<svg width="180" height="180" viewBox="0 0 180 180" fill="none" xmlns="http://www.w3.org/2000/svg">
<path d="M156 90C156 126.451 126.451 156 90 156C53.5492 156 24 126.451 24 90C24 53.5492 53.5492 24 90 24C126.451 24 156 53.5492 156 90Z" fill="#B2B3B7"/>
<path d="M33 0L147 0V30V60L33 63V0Z" fill="#B2B3B7"/>
<path d="M33 140.5L147 122.5V180H33V140.5Z" fill="#B2B3B7"/>
<path d="M180 30V144H146V30H180Z" fill="#B2B3B7"/>
<path d="M36.5 30L57 144H0L0 30H36.5Z" fill="#B2B3B7"/>
<path d="M61 49L61 32L57 32L57 49L61 49Z" fill="#D9D9D9"/>
<path d="M118.03 49L118.03 32L122.03 32L122.03 49L118.03 49Z" fill="#D9D9D9"/>
<path d="M61 24L61 7L57 7L57 24L61 24Z" fill="#D9D9D9"/>
<path d="M118.03 24L118.03 7L122.03 7L122.03 24L118.03 24Z" fill="#D9D9D9"/>
<path d="M92 24L92 7L88 7L88 24L92 24Z" fill="#D9D9D9"/>
<path d="M92 49L92 32L88 32L88 49L92 49Z" fill="#D9D9D9"/>
<path d="M92 66L92 57L88 57L88 66L92 66Z" fill="#D9D9D9"/>
<path d="M118.03 131L118.03 148L122.03 148L122.03 131L118.03 131Z" fill="#D9D9D9"/>
<path d="M61 131L61 148L57 148L57 131L61 131Z" fill="#D9D9D9"/>
<path d="M118.03 156L118.03 173L122.03 173L122.03 156L118.03 156Z" fill="#D9D9D9"/>
<path d="M61 156L61 173L57 173L57 156L61 156Z" fill="#D9D9D9"/>
<path d="M87.0303 156L87.0303 173L91.0303 173L91.0303 156L87.0303 156Z" fill="#D9D9D9"/>
<path d="M87.0303 131L87.0303 148L91.0303 148L91.0303 131L87.0303 131Z" fill="#D9D9D9"/>
<path d="M87.0303 114L87.0303 123L91.0303 123L91.0303 114L87.0303 114Z" fill="#D9D9D9"/>
<path d="M131 61H148V57H131V61Z" fill="#D9D9D9"/>
<path d="M131 118.03L148 118.03L148 122.03L131 122.03L131 118.03Z" fill="#D9D9D9"/>
<path d="M156 61H173V57H156V61Z" fill="#D9D9D9"/>
<path d="M156 118.03L173 118.03L173 122.03L156 122.03L156 118.03Z" fill="#D9D9D9"/>
<path d="M156 92H173V88H156V92Z" fill="#D9D9D9"/>
<path d="M131 92H148V88H131V92Z" fill="#D9D9D9"/>
<path d="M114 92H123V88H114V92Z" fill="#D9D9D9"/>
<path d="M49 118.03L32 118.03L32 122.03L49 122.03L49 118.03Z" fill="#D9D9D9"/>
<path d="M49 61L32 61L32 57L49 57L49 61Z" fill="#D9D9D9"/>
<path d="M24 118.03L7 118.03L7 122.03L24 122.03L24 118.03Z" fill="#D9D9D9"/>
<path d="M24 61L7 61L7 57L24 57L24 61Z" fill="#D9D9D9"/>
<path d="M24 87.0303L7 87.0303L7 91.0303L24 91.0303L24 87.0303Z" fill="#D9D9D9"/>
<path d="M49 87.0303L32 87.0303L32 91.0303L49 91.0303L49 87.0303Z" fill="#D9D9D9"/>
<path d="M66 87.0303L57 87.0303L57 91.0303L66 91.0303L66 87.0303Z" fill="#D9D9D9"/>
<path d="M140 90C140 117.614 117.614 140 90 140C62.3858 140 40 117.614 40 90C40 62.3858 62.3858 40 90 40C117.614 40 140 62.3858 140 90Z" fill="#B2B3B7"/>
<path d="M108.947 89.9999C108.947 100.464 100.464 108.947 89.9999 108.947C79.5355 108.947 71.0525 100.464 71.0525 89.9999C71.0525 79.5355 79.5355 71.0525 89.9999 71.0525C100.464 71.0525 108.947 79.5355 108.947 89.9999Z" fill="#B2B3B7"/>
<path fill-rule="evenodd" clip-rule="evenodd" d="M110 90C110 101.046 101.046 110 90 110C78.9543 110 70 101.046 70 90C70 78.9543 78.9543 70 90 70C101.046 70 110 78.9543 110 90ZM90 108.947C100.464 108.947 108.947 100.464 108.947 90C108.947 79.5357 100.464 71.0526 90 71.0526C79.5357 71.0526 71.0526 79.5357 71.0526 90C71.0526 100.464 79.5357 108.947 90 108.947Z" fill="#D9D9D9"/>
</svg>
