<svg width="181" height="181" viewBox="0 0 181 181" fill="none" xmlns="http://www.w3.org/2000/svg">
<path d="M21.5 33C28.1274 33 33.0283 27.8371 33.0283 21.2097V0L147 1.71661e-05V21.2008C147 27.8282 150.701 33 157.328 33H181V147H158.815C152.188 147 147 150.983 147 157.611V155.5V181H33V159C33 152.373 29.8945 147 23.2671 147H0V33L21.5 33Z" fill="#B2B3B7"/>
<path d="M61 49L61 32L57 32L57 49L61 49Z" fill="#D9D9D9"/>
<path d="M118.03 49L118.03 32L122.03 32L122.03 49L118.03 49Z" fill="#D9D9D9"/>
<path d="M61 24L61 7L57 7L57 24L61 24Z" fill="#D9D9D9"/>
<path d="M118.03 24L118.03 7L122.03 7L122.03 24L118.03 24Z" fill="#D9D9D9"/>
<path d="M92 24L92 7L88 7L88 24L92 24Z" fill="#D9D9D9"/>
<path d="M92 49L92 32L88 32L88 49L92 49Z" fill="#D9D9D9"/>
<path d="M92 74L92 57L88 57L88 74L92 74Z" fill="#D9D9D9"/>
<path d="M132 62H149V58H132V62Z" fill="#D9D9D9"/>
<path d="M132 119.03L149 119.03L149 123.03L132 123.03L132 119.03Z" fill="#D9D9D9"/>
<path d="M157 62H174V58H157V62Z" fill="#D9D9D9"/>
<path d="M157 119.03L174 119.03L174 123.03L157 123.03L157 119.03Z" fill="#D9D9D9"/>
<path d="M157 93H174V89H157V93Z" fill="#D9D9D9"/>
<path d="M132 93H149V89H132V93Z" fill="#D9D9D9"/>
<path d="M107 93H124V89H107V93Z" fill="#D9D9D9"/>
<path d="M49 120.03L32 120.03L32 124.03L49 124.03L49 120.03Z" fill="#D9D9D9"/>
<path d="M49 63L32 63L32 59L49 59L49 63Z" fill="#D9D9D9"/>
<path d="M24 120.03L7 120.03L7 124.03L24 124.03L24 120.03Z" fill="#D9D9D9"/>
<path d="M24 63L7 63L7 59L24 59L24 63Z" fill="#D9D9D9"/>
<path d="M24 89.0303L7 89.0303L7 93.0303L24 93.0303L24 89.0303Z" fill="#D9D9D9"/>
<path d="M49 89.0303L32 89.0303L32 93.0303L49 93.0303L49 89.0303Z" fill="#D9D9D9"/>
<path d="M74 89.0303L57 89.0303L57 93.0303L74 93.0303L74 89.0303Z" fill="#D9D9D9"/>
<path d="M119 132L119 149L123 149L123 132L119 132Z" fill="#D9D9D9"/>
<path d="M61.9697 132L61.9697 149L57.9697 149L57.9697 132L61.9697 132Z" fill="#D9D9D9"/>
<path d="M119 157L119 174L123 174L123 157L119 157Z" fill="#D9D9D9"/>
<path d="M61.9697 157L61.9697 174L57.9697 174L57.9697 157L61.9697 157Z" fill="#D9D9D9"/>
<path d="M88 157L88 174L92 174L92 157L88 157Z" fill="#D9D9D9"/>
<path d="M88 132L88 149L92 149L92 132L88 132Z" fill="#D9D9D9"/>
<path d="M88 107L88 124L92 124L92 107L88 107Z" fill="#D9D9D9"/>
</svg>
