<svg width="107" height="112" viewBox="0 0 107 112" fill="none" xmlns="http://www.w3.org/2000/svg">
<path d="M107 0H0V112H107V0Z" fill="#B2B3B7"/>
<path d="M91 22.5964L74 22.5964L74 26.5263L91 26.5263L91 22.5964Z" fill="#D9D9D9"/>
<path d="M62 22.5964L45 22.5964L45 26.5263L62 26.5263L62 22.5964Z" fill="#D9D9D9"/>
<path d="M33 22.5964L16 22.5964L16 26.5263L33 26.5263L33 22.5964Z" fill="#D9D9D9"/>
<path d="M0 54.0352H107V55.5088H0V54.0352Z" fill="#F3F3F3"/>
<path d="M0 56.4913V57.965L107 57.965V56.4913H0Z" fill="#F3F3F3"/>
<path d="M91 85.4736L74 85.4736L74 89.4035L91 89.4035L91 85.4736Z" fill="#D9D9D9"/>
<path d="M62 85.4736L45 85.4736L45 89.4035L62 89.4035L62 85.4736Z" fill="#D9D9D9"/>
<path d="M33 85.4736L16 85.4736L16 89.4035L33 89.4035L33 85.4736Z" fill="#D9D9D9"/>
</svg>
