<svg width="181" height="174" viewBox="0 0 181 174" fill="none" xmlns="http://www.w3.org/2000/svg">
<path fill-rule="evenodd" clip-rule="evenodd" d="M181 0H0V59V66V114H62H68C73.5229 114 78 118.477 78 124V173.5H103V124C103 118.477 107.477 114 113 114H119H181V66V59V0Z" fill="#B2B3B7"/>
<path d="M97 91H114V87H97V91Z" fill="#D9D9D9"/>
<path d="M126 91H143V87H126V91Z" fill="#D9D9D9"/>
<path d="M155 91H172V87H155V91Z" fill="#D9D9D9"/>
<path d="M97 59H114V55H97V59Z" fill="#D9D9D9"/>
<path d="M126 59H143V55H126V59Z" fill="#D9D9D9"/>
<path d="M155 59H172V55H155V59Z" fill="#D9D9D9"/>
<path d="M97 27H114V23H97V27Z" fill="#D9D9D9"/>
<path d="M126 27H143V23H126V27Z" fill="#D9D9D9"/>
<path d="M155 27H172V23H155V27Z" fill="#D9D9D9"/>
<path d="M10 91H27V87H10V91Z" fill="#D9D9D9"/>
<path d="M39 91H56V87H39V91Z" fill="#D9D9D9"/>
<path d="M68 91H85V87H68V91Z" fill="#D9D9D9"/>
<path d="M10 59H27V55H10V59Z" fill="#D9D9D9"/>
<path d="M39 59H56V55H39V59Z" fill="#D9D9D9"/>
<path d="M68 59H85V55H68V59Z" fill="#D9D9D9"/>
<path d="M10 27H27V23H10V27Z" fill="#D9D9D9"/>
<path d="M39 27H56V23H39V27Z" fill="#D9D9D9"/>
<path d="M68 27H85V23H68V27Z" fill="#D9D9D9"/>
</svg>
