<svg width="107" height="114" viewBox="0 0 107 114" fill="none" xmlns="http://www.w3.org/2000/svg">
<path d="M107 0H0V114H107V0Z" fill="#B2B3B7"/>
<path d="M91 23L74 23L74 27L91 27L91 23Z" fill="#D9D9D9"/>
<path d="M62 23L45 23L45 27L62 27L62 23Z" fill="#D9D9D9"/>
<path d="M33 23L16 23L16 27L33 27L33 23Z" fill="#D9D9D9"/>
<path d="M91 55L74 55L74 59L91 59L91 55Z" fill="#D9D9D9"/>
<path d="M62 55L45 55L45 59L62 59L62 55Z" fill="#D9D9D9"/>
<path d="M33 55L16 55L16 59L33 59L33 55Z" fill="#D9D9D9"/>
<path d="M91 87L74 87L74 91L91 91L91 87Z" fill="#D9D9D9"/>
<path d="M62 87L45 87L45 91L62 91L62 87Z" fill="#D9D9D9"/>
<path d="M33 87L16 87L16 91L33 91L33 87Z" fill="#D9D9D9"/>
</svg>
