<svg width="157" height="70" viewBox="0 0 157 70" fill="none" xmlns="http://www.w3.org/2000/svg">
<path d="M154.353 60.1767C156.484 55.6206 156.484 14.1931 154.353 9.6371C152.222 5.08109 125.918 0.186339 125.918 0.186339L0.437515 0.186334L0.437512 69.6443L125.932 69.6444C125.932 69.6274 152.222 64.7327 154.353 60.1767Z" fill="#FFBC36"/>
<path d="M141.826 56.9078C143.739 53.3172 143.739 17.0216 141.826 13.4309C139.912 9.84033 116.146 7.5708 116.146 7.5708L3.23351 7.57079L3.2335 62.2429L116.146 62.2429C116.146 62.2429 139.898 60.4984 141.826 56.9078Z" fill="#FFD62C"/>
<path d="M144.744 7.16429C144.092 6.53763 140.129 5.0133 136.79 4.16646C133.451 3.31961 121.086 1.338 120.638 2.13403C120.19 2.93007 119.987 5.1488 120.638 6.08033C121.29 7.01185 129.854 7.68934 132.745 8.24825C137.401 9.12897 140.115 10.738 140.889 10.0436C141.649 9.33221 145.707 8.11275 144.744 7.16429Z" fill="#385459"/>
<path d="M98.4061 6.08033C97.551 6.08033 96.8724 5.11493 96.8724 3.91241C96.8724 2.70989 97.5646 1.74451 98.4061 1.74451L117.245 1.74451C118.1 1.74451 118.779 2.70989 118.779 3.91241C118.779 5.11493 118.087 6.08034 117.245 6.08034L98.4061 6.08033Z" fill="#385459"/>
<path d="M74.9252 6.08033C74.0701 6.08033 73.3914 5.11493 73.3914 3.91241C73.3914 2.70989 74.0836 1.74451 74.9252 1.74451L93.7642 1.74451C94.6193 1.74451 95.298 2.70989 95.298 3.91241C95.298 5.11493 94.6058 6.08034 93.7642 6.08034L74.9252 6.08033Z" fill="#385459"/>
<path d="M51.4442 6.08033C50.5891 6.08033 49.9105 5.11493 49.9105 3.91241C49.9105 2.70989 50.6027 1.74451 51.4442 1.74451L70.2833 1.74451C71.1383 1.74451 71.817 2.70989 71.817 3.91241C71.817 5.11493 71.1248 6.08034 70.2833 6.08034L51.4442 6.08033Z" fill="#385459"/>
<path d="M27.9632 6.08033C27.1081 6.08033 26.4295 5.11493 26.4295 3.91241C26.4295 2.70989 27.1217 1.74451 27.9632 1.74451L46.8023 1.74451C47.6574 1.74451 48.336 2.70989 48.336 3.91241C48.336 5.11493 47.6438 6.08034 46.8023 6.08034L27.9632 6.08033Z" fill="#385459"/>
<path d="M4.48219 6.08033C3.6271 6.08033 2.94847 5.11493 2.94847 3.91241C2.94847 2.70989 3.64068 1.74451 4.48219 1.74451L23.3213 1.74451C24.1764 1.74451 24.855 2.70989 24.855 3.91241C24.855 5.11493 24.1628 6.08034 23.3213 6.08034L4.48219 6.08033Z" fill="#385459"/>
<path d="M145.327 62.8526C144.676 63.4793 140.713 65.0036 137.374 65.8505C134.035 66.6973 121.67 68.6789 121.222 67.8829C120.774 67.0699 120.571 64.8681 121.222 63.9366C121.874 63.0051 130.438 62.3276 133.329 61.7687C137.984 60.888 140.699 59.2789 141.473 59.9734C142.233 60.6678 146.291 61.9042 145.327 62.8526Z" fill="#385459"/>
<path d="M98.9897 63.9366C98.1347 63.9366 97.456 64.902 97.456 66.1045C97.456 67.307 98.1482 68.2724 98.9897 68.2724L117.829 68.2724C118.684 68.2724 119.363 67.307 119.363 66.1045C119.363 64.902 118.67 63.9366 117.829 63.9366L98.9897 63.9366Z" fill="#385459"/>
<path d="M75.5088 63.9366C74.6537 63.9366 73.9751 64.902 73.9751 66.1045C73.9751 67.307 74.6673 68.2724 75.5088 68.2724L94.3479 68.2724C95.203 68.2724 95.8816 67.307 95.8816 66.1045C95.8816 64.902 95.1894 63.9366 94.3479 63.9366L75.5088 63.9366Z" fill="#385459"/>
<path d="M52.0278 63.9366C51.1727 63.9366 50.4941 64.902 50.4941 66.1045C50.4941 67.307 51.1863 68.2724 52.0278 68.2724L70.8669 68.2724C71.722 68.2724 72.4006 67.307 72.4006 66.1045C72.4006 64.902 71.7084 63.9366 70.8669 63.9366L52.0278 63.9366Z" fill="#385459"/>
<path d="M28.5468 63.9366C27.6917 63.9366 27.0131 64.902 27.0131 66.1045C27.0131 67.307 27.7053 68.2724 28.5468 68.2724L47.3859 68.2724C48.241 68.2724 48.9196 67.307 48.9196 66.1045C48.9196 64.902 48.2274 63.9366 47.3859 63.9366L28.5468 63.9366Z" fill="#385459"/>
<path d="M5.06583 63.9366C4.21074 63.9366 3.53209 64.902 3.53209 66.1045C3.53209 67.307 4.22431 68.2724 5.06583 68.2724L23.9049 68.2724C24.76 68.2724 25.4386 67.307 25.4386 66.1045C25.4386 64.902 24.7464 63.9366 23.9049 63.9366L5.06583 63.9366Z" fill="#385459"/>
<path d="M149.168 57.8563L150.824 62.2598L150.58 70L149.725 69.8137L150.119 62.6494L147.906 58.737L149.168 57.8563Z" fill="#40413C"/>
<path d="M149.168 12.1437L150.824 7.74015L150.58 -1.06795e-08L149.725 0.186311L150.119 7.3506L147.906 11.263L149.168 12.1437Z" fill="#40413C"/>
<path d="M150.214 10.2637C149.589 8.80716 143.183 12.1099 143.183 12.1099C143.183 12.1099 144.554 26.6247 144.554 33.2978C144.554 52.1824 142.545 56.332 143.183 57.4837C143.821 58.6354 149.929 60.2444 150.526 59.6685C151.856 58.3983 152.738 47.8466 152.779 35.7198C152.806 21.5606 151.313 12.8043 150.214 10.2637Z" fill="#385459"/>
<path d="M7.4818 36.2957C7.04747 36.2957 6.69456 35.8553 6.69456 35.3133C6.69456 34.7713 7.04747 34.331 7.4818 34.331L138.405 34.331C138.84 34.331 139.192 34.7713 139.192 35.3133C139.192 35.8553 138.84 36.2957 138.405 36.2957L7.4818 36.2957Z" fill="#EDAB35"/>
<path d="M7.4818 18.1224C7.04747 18.1224 6.69456 17.6821 6.69456 17.1401C6.69456 16.5981 7.04747 16.1578 7.4818 16.1578L138.405 16.1578C138.84 16.1578 139.192 16.5981 139.192 17.1401C139.192 17.6821 138.84 18.1224 138.405 18.1224L7.4818 18.1224Z" fill="#EDAB35"/>
<path d="M7.4818 27.2006C7.04747 27.2006 6.69456 26.7602 6.69456 26.2182C6.69456 25.6763 7.04747 25.2359 7.4818 25.2359L138.405 25.2359C138.84 25.2359 139.192 25.6763 139.192 26.2182C139.192 26.7602 138.84 27.2006 138.405 27.2006L7.4818 27.2006Z" fill="#EDAB35"/>
<path d="M7.4818 45.3738C7.04747 45.3738 6.69456 44.9334 6.69456 44.3914C6.69456 43.8495 7.04747 43.4091 7.4818 43.4091L138.405 43.4091C138.84 43.4091 139.192 43.8495 139.192 44.3914C139.192 44.9334 138.84 45.3738 138.405 45.3738L7.4818 45.3738Z" fill="#EDAB35"/>
<path d="M7.4818 54.4689C7.04747 54.4689 6.69456 54.0285 6.69456 53.4866C6.69456 52.9446 7.04747 52.5042 7.4818 52.5042L138.405 52.5042C138.84 52.5042 139.192 52.9446 139.192 53.4866C139.192 54.0285 138.84 54.4689 138.405 54.4689L7.4818 54.4689Z" fill="#EDAB35"/>
<path d="M101.677 50.8614C100.632 50.8614 99.777 49.8113 99.777 48.4902L99.777 21.3066C99.777 20.0024 100.618 18.9354 101.677 18.9354L119.417 18.9354C120.462 18.9354 121.317 19.9855 121.317 21.3066L121.317 48.4902C121.317 49.7944 120.476 50.8614 119.417 50.8614L101.677 50.8614Z" fill="#EDAB35"/>
<path d="M102.627 50.8105C101.582 50.8105 100.727 49.7605 100.727 48.4394L100.727 21.2557C100.727 19.9516 101.569 18.8846 102.627 18.8846L120.367 18.8846C121.412 18.8846 122.267 19.9347 122.267 21.2557L122.267 48.4394C122.267 49.7435 121.426 50.8105 120.367 50.8105L102.627 50.8105Z" fill="#FFBC36"/>
<path d="M40.5588 51.2848C39.5137 51.2848 38.6586 50.2347 38.6586 48.9136L38.6586 21.73C38.6586 20.4258 39.5001 19.3588 40.5588 19.3588L58.2984 19.3588C59.3436 19.3588 60.1986 20.4089 60.1986 21.73L60.1986 48.9136C60.1986 50.2178 59.3571 51.2848 58.2984 51.2848L40.5588 51.2848Z" fill="#EDAB35"/>
<path d="M41.5089 51.2339C40.4637 51.2339 39.6087 50.1839 39.6087 48.8628L39.6087 21.6791C39.6087 20.375 40.4502 19.308 41.5089 19.308L59.2485 19.308C60.2936 19.308 61.1487 20.3581 61.1487 21.6791L61.1487 48.8628C61.1487 50.1669 60.3072 51.2339 59.2485 51.2339L41.5089 51.2339Z" fill="#FFBC36"/>
<path d="M154.991 20.1887C154.72 20.1887 154.503 19.9177 154.503 19.579L154.503 11.2799C154.503 10.9412 154.72 10.6702 154.991 10.6702C155.263 10.6702 155.48 10.9412 155.48 11.2799L155.48 19.579C155.48 19.9177 155.263 20.1887 154.991 20.1887Z" fill="#385459"/>
<path d="M155.48 19.85C156.349 19.325 157 17.5466 157 15.4295C157 13.3124 156.362 11.534 155.48 11.009L155.48 19.85Z" fill="#CECDB6"/>
<path d="M154.991 59.4145C154.72 59.4145 154.503 59.1435 154.503 58.8047L154.503 50.5057C154.503 50.1669 154.72 49.8959 154.991 49.8959C155.263 49.8959 155.48 50.1669 155.48 50.5057L155.48 58.8047C155.48 59.1435 155.263 59.4145 154.991 59.4145Z" fill="#385459"/>
<path d="M155.48 59.0757C156.349 58.5507 157 56.7723 157 54.6552C157 52.5381 156.362 50.7597 155.48 50.2347L155.48 59.0757Z" fill="#CECDB6"/>
</svg>
