<svg width="157" height="70" viewBox="0 0 157 70" fill="none" xmlns="http://www.w3.org/2000/svg">
<path d="M147.849 8.30692L147.849 6.43472C147.849 6.43472 150.98 5.81669 151.892 6.74372C152.804 7.67075 156.225 15.5233 156.362 35.0091C156.498 54.5131 152.774 62.202 151.755 62.5837C150.478 63.0563 148.229 62.7473 148.229 62.7473L147.849 8.30692Z" fill="#40413C"/>
<path d="M83.2717 66.9462L83.2717 4.70789L2.26171 4.70788L2.26171 66.9462L83.2717 66.9462Z" fill="#D81513"/>
<path d="M149.931 19.3768L149.278 7.21631L119.285 7.21631L119.406 13.7601L149.931 19.3768Z" fill="#F71E1E"/>
<path d="M150.342 49.8597L149.658 62.0202L119.649 61.893L119.801 55.3492L150.342 49.8597Z" fill="#F71E1E"/>
<path d="M124.499 13.2874C124.499 13.2874 127.372 12.8148 136.113 14.6871C144.854 16.5593 153.2 17.959 154.902 22.3396C156.605 26.7021 157.441 43.7886 155.1 48.1147C152.515 52.8771 142.862 53.6951 136.219 55.2583C129.637 56.8034 119.163 58.3848 119.163 58.3848L124.499 13.2874Z" fill="#D81513"/>
<path d="M126.916 15.5959C126.916 15.5959 132.388 16.8865 132.692 17.8135C132.996 18.7406 135.246 25.8842 135.14 36.5359C135.049 45.8972 133.088 50.6959 132.008 51.8592C130.929 53.0226 124.377 55.6037 124.377 55.6037L126.916 15.5959Z" fill="#40413C"/>
<path d="M82.2227 9.0885C82.2227 9.0885 99.2335 9.63384 104.888 9.9792C111.744 10.4155 126.87 10.6336 128.862 13.8327C132.252 19.2859 132.069 30.7919 132.191 35.9361C132.388 44.4793 131.537 52.7499 127.889 55.4037C124.24 58.0576 114.055 59.7662 104.797 60.7114C95.5394 61.6385 82.1011 62.4201 82.1011 62.4201L82.2227 9.0885Z" fill="#D81513"/>
<path d="M134.836 17.9408C135.125 18.0499 151.026 21.7398 152.151 23.0849C154.689 26.1205 153.716 46.0244 153.716 46.0244L151.953 47.6603C151.953 47.6603 152.804 31.1737 150.676 26.375C149.43 23.5575 136.189 20.8673 136.189 20.8673L134.836 17.9408Z" fill="#F71E1E"/>
<path d="M129.652 50.9323C129.652 50.9323 131.081 42.8253 130.625 33.3914C130.306 26.6295 129.059 17.3047 128.284 16.4322C126.429 14.3236 84.8374 11.7606 84.8374 11.7606L85.2327 16.6684C85.2327 16.6684 125.244 17.4864 126.916 19.0133C127.63 19.6677 128.588 27.5384 128.968 34.682C129.47 44.134 127.889 54.2223 127.889 54.2223L129.652 50.9323Z" fill="#F71E1E"/>
<path d="M84.8983 62.2748L84.8983 9.23401L83.3933 9.23401L83.3933 62.2748L84.8983 62.2748Z" fill="#8E1616"/>
<path d="M128.284 38.7172L128.284 34.0457L84.0621 34.0457L84.0621 38.7172L128.284 38.7172Z" fill="#8E1616"/>
<path d="M142.756 37.3539L142.756 35.5907L128.862 35.5907L128.862 37.3539L142.756 37.3539Z" fill="#8E1616"/>
<path d="M143.03 38.2991C142.771 38.2991 142.558 38.081 142.558 37.7902L142.558 35.1727C142.558 34.9 142.771 34.6637 143.03 34.6637C143.288 34.6637 143.501 34.8818 143.501 35.1727L143.501 37.7902C143.501 38.0628 143.288 38.2991 143.03 38.2991Z" fill="#40413C"/>
<path d="M128.375 37.6993L128.375 37.1176L84.351 37.1176L84.351 37.6993L128.375 37.6993Z" fill="#F71E1E"/>
<path d="M142.665 36.7722L142.665 36.4269L129.166 36.4269L129.166 36.7722L142.665 36.7722Z" fill="#F71E1E"/>
<path d="M128.618 39.9351C128.162 39.9351 127.782 39.4988 127.782 38.9353L127.782 33.7912C127.782 33.2459 128.147 32.7915 128.618 32.7915C129.074 32.7915 129.454 33.2278 129.454 33.7912L129.454 38.9353C129.454 39.4806 129.074 39.9351 128.618 39.9351Z" fill="#40413C"/>
<path d="M130.047 55.4946L132.1 60.7478L131.796 70L130.731 69.7636L131.218 61.2204L128.482 56.5489L130.047 55.4946Z" fill="#8E1616"/>
<path d="M129.88 14.4144L132.1 9.25217L132.069 -1.32865e-09L130.99 0.181771L131.233 8.7432L128.36 13.3056L129.88 14.4144Z" fill="#8E1616"/>
<path d="M152.637 13.4874C152.09 13.4874 151.664 12.9603 151.664 12.3241C151.664 11.6697 152.105 11.1608 152.637 11.1608L155.677 11.1608C156.225 11.1608 156.65 11.6879 156.65 12.3241C156.65 12.9785 156.21 13.4874 155.677 13.4874L152.637 13.4874Z" fill="#40413C"/>
<path d="M152.987 56.0763C152.439 56.0763 152.014 55.5492 152.014 54.913C152.014 54.2586 152.455 53.7496 152.987 53.7496L156.027 53.7496C156.574 53.7496 157 54.2768 157 54.913C157 55.5674 156.559 56.0763 156.027 56.0763L152.987 56.0763Z" fill="#40413C"/>
<path d="M135.003 32.1734L134.775 29.3923L156.194 29.356L156.362 32.1734L135.003 32.1734Z" fill="#D3D3D3"/>
<path d="M134.775 42.2618L135.003 39.4625L156.529 39.3898L156.331 42.1163L134.775 42.2618Z" fill="#D3D3D3"/>
<path d="M121.179 25.1361C122.265 26.4352 124.026 26.4352 125.113 25.1361C126.199 23.8371 126.199 21.731 125.113 20.4319C124.027 19.1329 122.265 19.1329 121.179 20.4319C120.092 21.731 120.092 23.8371 121.179 25.1361Z" fill="#40413C"/>
<path d="M121.154 22.7941C121.154 24.1092 122.046 25.1752 123.146 25.1752C124.246 25.1752 125.137 24.1092 125.137 22.7941C125.137 21.479 124.246 20.4128 123.146 20.4128C122.046 20.4128 121.154 21.479 121.154 22.7941Z" fill="#4848CC"/>
<path d="M123.374 22.3397C123.784 22.5578 124.119 23.1758 124.483 23.4485L124.559 23.1031C124.818 20.7583 121.914 20.013 122.036 22.576C122.598 22.5032 122.766 21.9943 123.374 22.3397Z" fill="#2974E2"/>
<path d="M121.178 51.6929C122.264 52.9919 124.026 52.992 125.112 51.6929C126.199 50.3939 126.199 48.2877 125.112 46.9887C124.026 45.6897 122.264 45.6897 121.178 46.9887C120.092 48.2877 120.092 50.3939 121.178 51.6929Z" fill="#40413C"/>
<path d="M121.154 49.3508C121.154 50.6659 122.046 51.732 123.146 51.732C124.246 51.732 125.137 50.6659 125.137 49.3508C125.137 48.0357 124.246 46.9696 123.146 46.9696C122.046 46.9696 121.154 48.0357 121.154 49.3508Z" fill="#4848CC"/>
<path d="M123.374 48.8963C123.784 49.1144 124.119 49.7325 124.483 50.0051L124.559 49.6597C124.818 47.3149 121.914 46.5696 122.036 49.1326C122.598 49.0599 122.766 48.5509 123.374 48.8963Z" fill="#2974E2"/>
<path d="M1.47123 23.6665C1.04558 23.6665 0.695923 23.2485 0.695923 22.7395C0.695923 22.2306 1.04558 21.8125 1.47123 21.8125L82.2988 21.8125C82.7244 21.8125 83.074 22.2306 83.074 22.7395C83.074 23.2485 82.7244 23.6666 82.2988 23.6666L1.47123 23.6665Z" fill="#CDC4BD"/>
<path d="M1.47118 41.9164C1.04552 41.9164 0.695869 41.4983 0.695869 40.9894C0.695869 40.4804 1.04552 40.0624 1.47118 40.0624L82.2987 40.0624C82.7243 40.0624 83.074 40.4804 83.074 40.9894C83.074 41.4983 82.7243 41.9164 82.2987 41.9164L1.47118 41.9164Z" fill="#CDC4BD"/>
<path d="M80.9153 41.371L80.9153 23.1212L80.0032 23.1212L80.0032 41.371L80.9153 41.371Z" fill="#CDC4BD"/>
<path d="M75.1082 41.2074L75.1082 22.9576L74.1961 22.9576L74.1961 41.2074L75.1082 41.2074Z" fill="#CDC4BD"/>
<path d="M69.3011 41.2074L69.3011 22.9576L68.389 22.9576L68.389 41.2074L69.3011 41.2074Z" fill="#CDC4BD"/>
<path d="M63.4941 40.8985L63.4941 22.6487L62.582 22.6487L62.582 40.8985L63.4941 40.8985Z" fill="#CDC4BD"/>
<path d="M57.687 40.7531L57.687 22.5033L56.7749 22.5033L56.7749 40.7531L57.687 40.7531Z" fill="#CDC4BD"/>
<path d="M51.8648 41.371L51.8648 23.1212L50.9527 23.1212L50.9527 41.371L51.8648 41.371Z" fill="#CDC4BD"/>
<path d="M46.0577 41.8437L46.0577 23.5939L45.1456 23.5939L45.1456 41.8437L46.0577 41.8437Z" fill="#CDC4BD"/>
<path d="M40.2507 41.5347L40.2507 23.2849L39.3386 23.2849L39.3386 41.5347L40.2507 41.5347Z" fill="#CDC4BD"/>
<path d="M34.4436 41.371L34.4436 23.1212L33.5315 23.1212L33.5315 41.371L34.4436 41.371Z" fill="#CDC4BD"/>
<path d="M28.6214 41.6801L28.6214 23.4303L27.7093 23.4303L27.7093 41.6801L28.6214 41.6801Z" fill="#CDC4BD"/>
<path d="M22.8143 41.371L22.8143 23.1212L21.9022 23.1212L21.9022 41.371L22.8143 41.371Z" fill="#CDC4BD"/>
<path d="M17.0072 41.2074L17.0072 22.9576L16.0951 22.9576L16.0951 41.2074L17.0072 41.2074Z" fill="#CDC4BD"/>
<path d="M11.2002 41.2074L11.2002 22.9576L10.2881 22.9576L10.2881 41.2074L11.2002 41.2074Z" fill="#CDC4BD"/>
<path d="M5.39313 41.0621L5.39313 22.8123L4.48102 22.8123L4.48102 41.0621L5.39313 41.0621Z" fill="#CDC4BD"/>
<path d="M1.21279 50.2597C0.787147 50.2597 0.437508 50.0416 0.437508 49.7507C0.437508 49.4781 0.787148 49.2418 1.21279 49.2418L82.0251 49.2418C82.4508 49.2418 82.8004 49.4599 82.8004 49.7507C82.8004 50.0234 82.4508 50.2597 82.0251 50.2597L1.21279 50.2597Z" fill="#CDC4BD"/>
<path d="M1.21275 60.0208C0.787109 60.0208 0.437469 59.8027 0.437469 59.5119C0.437469 59.2392 0.787109 59.0029 1.21275 59.0029L82.0251 59.0029C82.4507 59.0029 82.8004 59.2211 82.8004 59.5119C82.8004 59.7846 82.4507 60.0208 82.0251 60.0208L1.21275 60.0208Z" fill="#CDC4BD"/>
<path d="M80.657 59.7119L80.657 49.9508L79.7449 49.9508L79.7449 59.7119L80.657 59.7119Z" fill="#CDC4BD"/>
<path d="M74.8499 59.6391L74.8499 49.8781L73.9378 49.8781L73.9378 59.6391L74.8499 59.6391Z" fill="#CDC4BD"/>
<path d="M69.0429 59.6391L69.0429 49.8781L68.1308 49.8781L68.1308 59.6391L69.0429 59.6391Z" fill="#CDC4BD"/>
<path d="M63.2358 59.4756L63.2358 49.7145L62.3237 49.7145L62.3237 59.4756L63.2358 59.4756Z" fill="#CDC4BD"/>
<path d="M57.4136 59.3846L57.4136 49.6235L56.5015 49.6235L56.5015 59.3846L57.4136 59.3846Z" fill="#CDC4BD"/>
<path d="M51.6065 59.7119L51.6065 49.9508L50.6944 49.9508L50.6944 59.7119L51.6065 59.7119Z" fill="#CDC4BD"/>
<path d="M45.7995 59.9663L45.7995 50.2052L44.8874 50.2052L44.8874 59.9663L45.7995 59.9663Z" fill="#CDC4BD"/>
<path d="M39.9924 59.8027L39.9924 50.0416L39.0803 50.0416L39.0803 59.8027L39.9924 59.8027Z" fill="#CDC4BD"/>
<path d="M34.1854 59.7119L34.1854 49.9508L33.2733 49.9508L33.2733 59.7119L34.1854 59.7119Z" fill="#CDC4BD"/>
<path d="M28.3631 59.8937L28.3631 50.1326L27.451 50.1326L27.451 59.8937L28.3631 59.8937Z" fill="#CDC4BD"/>
<path d="M22.5561 59.7118L22.5561 49.9507L21.644 49.9507L21.644 59.7118L22.5561 59.7118Z" fill="#CDC4BD"/>
<path d="M16.749 59.6391L16.749 49.8781L15.8369 49.8781L15.8369 59.6391L16.749 59.6391Z" fill="#CDC4BD"/>
<path d="M10.9419 59.6391L10.9419 49.8781L10.0298 49.8781L10.0298 59.6391L10.9419 59.6391Z" fill="#CDC4BD"/>
<path d="M5.11969 59.5482L5.11969 49.7871L4.20758 49.7871L4.20758 59.5482L5.11969 59.5482Z" fill="#CDC4BD"/>
</svg>
