<svg width="60" height="60" viewBox="0 0 60 60" fill="none" xmlns="http://www.w3.org/2000/svg">
<g clip-path="url(#clip0_236_98901)">
<path d="M27.9579 41.181C28.1145 40.6897 27.9579 40.0345 27.6447 39.8707C27.4881 39.8707 27.3315 39.8707 27.3315 39.8707L24.8258 38.3966C24.8258 38.069 24.8258 37.7414 24.9824 37.5777C25.4522 37.0863 26.0786 36.5949 26.5484 35.776C28.4277 36.1035 30.3069 35.2846 30.9333 33.6467C31.4031 32.8277 31.4031 31.845 31.0899 30.8622L33.2823 31.6812L34.2219 32.3364L35.0049 32.3364L35.3181 31.5174L35.3181 30.8622L34.5351 30.3709L30.1503 26.4399L31.7163 26.6037C31.8729 26.9313 32.0295 27.0951 32.1861 27.2588C32.6559 27.4226 33.2823 27.0951 33.5955 26.4399C33.9087 25.7847 33.5955 24.9658 33.1257 24.802L31.4031 23.6555C31.2465 23.4917 31.0899 23.4917 30.9333 23.3279C28.5843 22.1813 25.2956 24.1468 22.9466 27.5864C22.4768 28.2416 22.3202 29.0605 22.007 29.7157C21.6938 30.3709 21.224 31.026 20.9108 31.845C19.658 35.776 20.441 39.5431 22.79 40.6897C22.9466 40.8535 23.2598 40.8535 23.4164 40.8535L26.5484 41.8362C26.5484 42 26.705 42 26.8617 42C27.3315 42 27.8013 41.6724 27.9579 41.181Z" fill="url(#paint0_linear_236_98901)"/>
<path d="M38.561 21.4001C38.8848 20.7525 38.561 19.943 38.0753 19.7811C37.5896 19.6192 36.9421 19.943 36.6183 20.5906C36.2945 21.2382 36.6183 22.0477 37.104 22.2096C37.5896 22.3714 38.2372 22.0477 38.561 21.4001Z" fill="#F1BFBE"/>
<path d="M36.2947 18.6478L34.9995 21.4L36.6185 21.5619L38.0755 19.7811L36.2947 18.6478Z" fill="#BD0007"/>
<path d="M32.7326 36.1327C32.8945 35.647 32.7326 34.9994 32.4088 34.8375C31.9232 34.6756 31.4375 34.9994 31.2756 35.4851C31.1137 35.9708 31.2756 36.6184 31.5994 36.7803C32.085 36.9422 32.5707 36.6184 32.7326 36.1327Z" fill="#F1BFBE"/>
<path d="M29.1713 33.2184L28.038 35.4849L31.2759 36.6182L32.4092 34.9992L29.1713 33.2184Z" fill="#BD0007"/>
<path d="M33.7042 20.5905L34.3518 25.4473L38.0754 26.9044L39.5324 25.2854L33.7042 20.5905Z" fill="#BD0007"/>
<path d="M30.952 26.5807C33.2185 21.8858 38.723 19.6192 35.8089 18.3241C33.3804 17.1908 29.9806 19.1335 27.5522 22.5333C27.0665 23.1809 26.9046 23.9904 26.5808 24.638C26.257 25.2856 25.7714 25.9332 25.4476 26.7426C24.1524 30.6281 24.9619 34.3517 27.3903 35.485C30.3044 36.6182 28.5236 31.2757 30.952 26.5807Z" fill="url(#paint1_radial_236_98901)"/>
<path d="M33.0565 27.5521C34.8373 23.6667 35.1611 20.105 33.5421 19.4574C31.9232 18.8098 29.171 21.4001 27.3901 25.1237C25.4474 29.0092 25.2855 32.5709 26.9044 33.2185C28.5234 33.8661 31.2756 31.4376 33.0565 27.5521Z" fill="url(#paint2_radial_236_98901)"/>
<path d="M29.8187 29.8186C29.1711 29.6567 28.6854 29.4948 28.6854 29.6567C28.5235 29.8186 29.0092 30.1423 29.4949 30.3042C29.9806 30.4661 30.4663 30.628 30.6282 30.4661C30.6282 30.3042 30.3044 29.9804 29.8187 29.8186Z" fill="#E8BAAB"/>
<path d="M33.0566 23.019C32.5709 22.8571 32.0852 22.6952 31.9233 22.8571C31.7614 23.019 32.2471 23.3428 32.7328 23.5047C33.2185 23.6666 33.7042 23.8285 33.8661 23.6666C33.8661 23.6666 33.5423 23.3428 33.0566 23.019Z" fill="#E8BAAB"/>
<path d="M35.8089 28.6853C36.7803 26.7426 35.647 24.4761 33.3805 23.3428C31.1139 22.3714 28.5236 23.1809 27.5522 24.9617C26.5809 26.9045 27.7141 29.171 29.9807 30.3043C32.2472 31.2757 34.8375 30.6281 35.8089 28.6853Z" fill="#341E11"/>
<path d="M40.3419 26.5808L40.3419 25.7713L39.5324 25.2856L38.0754 26.9046L39.0468 27.5522L39.8562 27.5522L40.3419 26.5808Z" fill="black"/>
</g>
<defs>
<linearGradient id="paint0_linear_236_98901" x1="27.8495" y1="22.8943" x2="27.8495" y2="41.8419" gradientUnits="userSpaceOnUse">
<stop stop-color="#E3E3E3"/>
<stop offset="1" stop-color="#C4C4C6"/>
</linearGradient>
<radialGradient id="paint1_radial_236_98901" cx="0" cy="0" r="1" gradientUnits="userSpaceOnUse" gradientTransform="translate(30.7299 26.8148) rotate(90) scale(7.43908 7.43909)">
<stop offset="0.00423729" stop-color="#FF5056"/>
<stop offset="1" stop-color="#E80009"/>
</radialGradient>
<radialGradient id="paint2_radial_236_98901" cx="0" cy="0" r="1" gradientUnits="userSpaceOnUse" gradientTransform="translate(30.2808 26.3067) rotate(90) scale(5.87696)">
<stop offset="0.00423729" stop-color="#FF5056"/>
<stop offset="1" stop-color="#E80009"/>
</radialGradient>
<clipPath id="clip0_236_98901">
<rect width="60" height="60" rx="8" fill="white"/>
</clipPath>
</defs>
</svg>
