<svg width="157" height="70" viewBox="0 0 157 70" fill="none" xmlns="http://www.w3.org/2000/svg">
<g clip-path="url(#clip0_956_22625)">
<path d="M68.2651 43.7184C68.2651 41.9494 69.2375 40.6859 70.453 40.6859C71.6686 40.6859 72.641 42.2022 72.641 43.7184L72.641 50.7942C72.641 52.5632 71.6686 53.8267 70.453 53.8267C69.2375 53.8267 68.2651 52.3105 68.2651 50.7942L68.2651 43.7184Z" fill="#6A6B6A"/>
<path d="M68.2651 17.1841C68.2651 15.4151 69.2375 14.1516 70.453 14.1516C71.6686 14.1516 72.641 15.6679 72.641 17.1841L72.641 24.2599C72.641 26.0289 71.6686 27.2924 70.453 27.2924C69.2375 27.2924 68.2651 25.7762 68.2651 24.2599L68.2651 17.1841Z" fill="#6A6B6A"/>
<path d="M19.4 22.9964C19.4 21.7328 20.6156 20.722 22.3174 20.722L76.7739 20.722C78.4756 20.722 79.6912 21.7328 79.6912 22.9964C79.6912 24.2599 78.4756 25.2708 76.7739 25.2708L22.3174 25.2708C20.8587 25.5235 19.4 24.2599 19.4 22.9964Z" fill="#898988"/>
<path d="M36.1746 26.2816C36.1746 24.2599 37.8764 22.491 39.8212 22.491L81.8792 22.491C83.8241 22.491 85.5258 24.2599 85.5258 26.2816L85.5258 43.7184C85.5258 45.7401 83.8241 47.509 81.8792 47.509L39.8212 47.509C37.8764 47.509 36.1746 45.7401 36.1746 43.7184L36.1746 26.2816Z" fill="#0049A7"/>
<path d="M115.185 35.1263L56.3527 35.1263L57.3251 26.5343L88.2 17.9422C88.2 17.9422 91.1173 17.1841 94.2778 17.9422C97.4382 18.7004 113.727 29.5668 113.727 29.5668L115.185 35.1263Z" fill="#C1C1C1"/>
<path d="M89.1725 35.1263L89.1725 17.6895C88.6863 17.6895 88.2 17.9422 88.2 17.9422L57.5683 26.5343L56.5958 35.1263L89.1725 35.1263Z" fill="#A2A3A3"/>
<path d="M89.6587 35.1263L115.185 35.1263L113.727 29.5668C113.727 29.5668 97.4382 18.7004 94.2778 17.9422C92.576 17.4368 90.8742 17.4368 89.6587 17.6895L89.6587 35.1263Z" fill="#C1C1C1"/>
<path d="M90.388 18.7004C93.0622 19.7112 95.7364 21.4801 98.4106 22.9964C104.245 26.2816 110.08 29.8195 114.942 34.6209L113.483 29.5668C113.483 29.5668 97.1951 18.7004 94.0347 17.9422C90.8742 17.1841 87.9569 17.9422 87.9569 17.9422L87.7138 17.9422C88.6863 18.1949 89.6587 18.4476 90.388 18.7004Z" fill="#898988"/>
<path d="M115.185 34.8736L56.3527 34.8736L57.3251 43.4657L87.9569 52.0577C87.9569 52.0577 90.8742 52.8159 94.0347 52.0577C97.1951 51.2996 113.483 40.4332 113.483 40.4332L115.185 34.8736Z" fill="#C1C1C1"/>
<path d="M89.1725 34.8736L56.5958 34.8736L57.5683 43.4657L88.2 52.0577C88.2 52.0577 88.4432 52.0577 89.1725 52.3105L89.1725 34.8736Z" fill="#A2A3A3"/>
<path d="M89.6587 52.3105C90.8742 52.5632 92.576 52.5632 94.2778 52.0577C97.4382 51.2996 113.727 40.4332 113.727 40.4332L115.185 34.8736L89.6587 34.8736L89.6587 52.3105Z" fill="#C1C1C1"/>
<path d="M90.388 51.2996C93.0622 50.2888 95.7364 48.5199 98.4106 47.0036C104.245 43.7184 110.08 40.1805 114.942 35.3791L113.483 40.4332C113.483 40.4332 97.1951 51.2996 94.0347 52.0578C90.8742 52.8159 87.9569 52.0578 87.9569 52.0578L87.7138 52.0578C88.6863 51.8051 89.6587 51.5523 90.388 51.2996Z" fill="#898988"/>
<path d="M57.3251 35.1263C57.3251 33.1047 55.6234 26.5343 57.5682 26.5343L110.566 31.3357C112.268 31.3357 113.727 33.1047 113.727 35.1263L113.727 36.3899C113.727 38.4115 112.268 40.1805 110.566 40.1805L64.8615 44.9819C63.1598 44.9819 57.3251 38.4115 57.3251 36.3899L57.3251 35.1263Z" fill="#D7D7D7"/>
<path d="M57.3251 35.1263L57.3251 36.3899C57.3251 38.4115 63.1598 44.9819 64.8615 44.9819L86.2552 42.9603L86.2552 29.3141L57.5682 26.787C55.6234 26.5343 57.3251 33.1047 57.3251 35.1263Z" fill="#A2A3A3"/>
<path d="M115.914 48.5199C115.914 48.5199 122.478 46.2455 123.694 39.9278C124.91 33.8628 123.208 23.7545 115.671 20.722L115.914 48.5199Z" fill="#0049A7"/>
<path d="M121.263 46.4982C121.263 45.7401 120.777 44.9819 119.804 44.9819L116.158 44.9819C115.428 44.9819 114.699 45.4873 114.699 46.4982C114.699 47.2563 115.185 48.0144 116.158 48.0144L119.804 48.0144C120.534 47.7617 121.263 47.2563 121.263 46.4982Z" fill="#00337D"/>
<path d="M121.263 49.7834C121.263 49.7834 126.125 48.7726 125.153 45.4874C124.666 43.7184 119.561 42.2022 117.859 43.213C117.13 43.7184 117.13 47.7617 117.616 49.278C118.102 50.0361 119.804 50.0361 121.263 49.7834Z" fill="#E95433"/>
<path d="M117.616 49.278C117.859 49.7834 118.832 50.0361 119.804 50.0361L119.804 42.9603C118.832 42.9603 118.102 42.9603 117.616 43.213C117.13 43.4657 117.13 47.7617 117.616 49.278Z" fill="#A8A7A1"/>
<path d="M125.153 47.0036C124.423 49.0253 121.263 49.7834 121.263 49.7834C119.804 50.0361 118.102 50.0361 117.616 49.278C117.373 48.7726 117.373 48.0144 117.13 47.0036L125.153 47.0036Z" fill="#E95433"/>
<path d="M121.263 23.5018C121.263 22.7437 120.777 21.9856 119.804 21.9856L116.158 21.9856C115.428 21.9856 114.699 22.7437 114.699 23.5018C114.699 24.2599 115.185 25.0181 116.158 25.0181L119.804 25.0181C120.534 25.0181 121.263 24.2599 121.263 23.5018Z" fill="#00337D"/>
<path d="M121.263 27.0397C121.263 27.0397 126.125 26.0289 125.153 22.7437C124.666 20.9747 119.561 19.4585 117.859 20.4693C117.13 20.9747 117.13 25.018 117.616 26.5343C118.102 27.2924 119.804 27.2924 121.263 27.0397Z" fill="#E95433"/>
<path d="M117.616 26.5343C117.859 27.0397 118.832 27.2924 119.804 27.2924L119.804 19.9639C118.832 19.9639 118.102 19.9639 117.616 20.2166C117.13 20.722 117.13 25.018 117.616 26.5343Z" fill="#A8A7A1"/>
<path d="M125.153 24.2599C124.423 26.2816 121.263 27.0397 121.263 27.0397C119.804 27.2924 118.102 27.2924 117.616 26.5343C117.373 26.0289 117.373 25.2707 117.13 24.2599L125.153 24.2599Z" fill="#E95433"/>
<path d="M108.864 33.8628C108.864 31.8412 110.809 30.0722 113.24 30.0722L148.734 30.0722C151.165 30.0722 157 31.8412 157 33.8628L157 35.8845C157 37.9061 150.922 39.6751 148.491 39.6751L112.997 39.6751C110.566 39.6751 108.621 37.9061 108.621 35.8845L108.621 33.8628L108.864 33.8628Z" fill="#0049A7"/>
<path d="M112.997 39.9278L132.932 39.9278L132.932 30.0722L112.997 30.0722C110.566 30.0722 108.621 31.8412 108.621 33.8628L108.621 35.8845C108.864 38.1588 110.809 39.9278 112.997 39.9278Z" fill="#002D75"/>
<path d="M116.887 34.3682C116.887 32.5993 118.103 30.0722 120.047 29.5668L128.07 28.556C129.772 28.556 131.23 30.0722 131.23 31.5885L131.23 38.1589C131.23 39.9278 129.772 41.1913 128.07 41.1913L120.047 40.4332C118.346 40.4332 116.887 37.4007 116.887 35.6318L116.887 34.3682Z" fill="#002D75"/>
<path d="M126.854 41.1913L127.827 41.1913C129.529 41.1913 130.987 39.6751 130.987 38.1589L130.987 31.5885C130.987 29.8195 129.529 28.556 127.827 28.556L126.854 28.556L126.854 41.1913Z" fill="#FFFCE6"/>
<path d="M126.854 41.1913L127.827 41.1913L128.07 41.1913L128.07 28.3033L127.827 28.3033L126.854 28.3033L126.854 41.1913Z" fill="#878888"/>
<path d="M107.406 35.3791L119.318 35.8845C119.318 35.8845 119.561 31.5884 117.859 26.5343C116.644 22.491 114.213 18.1949 111.782 13.3935L110.08 15.1624C110.08 15.1624 112.268 22.9964 110.809 24.7653C109.351 26.2816 106.676 32.3466 107.406 35.3791Z" fill="#0049A7"/>
<path d="M117.859 5.81227C118.346 9.09747 119.318 11.3718 120.29 11.3718C121.263 11.3718 121.749 8.59206 121.263 5.55957C120.777 2.27437 119.804 -7.20977e-08 118.832 -1.14604e-07C117.859 -1.57111e-07 117.616 2.77978 117.859 5.81227Z" fill="#878888"/>
<path d="M117.859 5.81227C117.373 2.52708 117.859 -1.16893e-07 118.832 -7.43866e-08L119.075 -6.376e-08C118.346 0.505415 118.103 3.03249 118.346 5.81227C118.832 8.84476 119.561 11.1191 120.534 11.3718L120.29 11.6245C119.318 11.6245 118.346 9.09747 117.859 5.81227Z" fill="#626362"/>
<path d="M121.263 5.55957C121.506 5.55957 121.749 5.55957 121.749 5.81228C121.992 6.06499 121.992 6.5704 121.992 6.82311C121.992 6.82311 121.992 7.32852 121.749 8.84477C121.506 11.8773 120.777 17.1841 120.777 17.9422C120.777 18.9531 120.047 18.9531 120.047 18.9531L111.052 21.2274L111.052 20.9747L120.047 18.7004C120.047 18.7004 120.534 18.7004 120.534 17.9422C120.534 17.1841 121.02 12.13 121.506 8.84477C121.749 7.83394 121.749 6.82311 121.749 6.82311C121.749 6.5704 121.749 6.31769 121.749 6.06499L121.506 5.81228L121.263 5.55957Z" fill="#797A79"/>
<path d="M107.163 5.05416C107.163 4.80145 107.163 4.29603 107.649 4.29603L109.107 3.79062C109.351 3.79062 109.837 3.79062 109.837 4.29603L112.754 14.657C112.754 14.9098 112.754 15.4152 112.268 15.4152L110.809 15.9206C110.566 15.9206 110.08 15.9206 110.08 15.4152L107.163 5.05416Z" fill="#313030"/>
<path d="M109.594 15.9206C109.594 15.6679 109.594 15.6679 109.594 15.4152L112.997 14.4043C112.997 14.4043 113.24 14.4043 113.24 14.657C113.24 14.9097 113.24 15.1625 113.24 15.1625L109.837 16.1733C109.594 16.1733 109.594 16.1733 109.594 15.9206Z" fill="#0C2518"/>
<path d="M107.406 34.8737L119.318 35.8845C119.318 35.8845 119.561 38.917 118.103 43.213C116.887 47.0036 114.213 51.5524 111.782 56.3538L110.08 54.8376C110.08 54.8376 112.268 47.0036 110.809 45.2347C109.351 43.7184 106.676 38.1589 107.406 34.8737Z" fill="#0049A7"/>
<path d="M117.859 64.1877C118.346 60.9025 119.318 58.6282 120.29 58.6282C121.263 58.6282 121.506 61.408 121.263 64.4404C120.777 67.7256 119.804 70 118.832 70C118.103 70 117.616 67.2202 117.859 64.1877Z" fill="#878888"/>
<path d="M117.859 64.1877C117.373 67.4729 117.859 70 118.832 70L119.075 70C118.346 69.4946 118.103 66.9675 118.346 64.1877C118.832 61.1552 119.561 58.8809 120.534 58.6282L120.29 58.3755C119.318 58.3755 118.346 60.9025 117.859 64.1877Z" fill="#626362"/>
<path d="M111.052 47.7617L120.047 50.7942C120.047 50.7942 120.777 50.7942 120.777 51.8051C120.777 52.3105 121.506 57.8701 121.749 60.9025C121.992 62.4188 121.992 62.9242 121.992 62.9242C121.992 63.1769 121.992 63.6823 121.749 63.935C121.749 64.1877 121.506 64.1877 121.263 64.1877L121.263 63.935C121.506 63.935 121.506 63.935 121.506 63.6823C121.749 63.4296 121.749 62.9242 121.506 62.9242C121.506 62.9242 121.506 61.9134 121.263 60.9025C121.02 57.6173 120.29 52.5632 120.29 51.8051C120.29 51.0469 119.804 51.047 119.804 51.047L111.052 48.0145L111.052 47.7617Z" fill="#797A79"/>
<path d="M107.163 64.9458C107.163 65.1986 107.163 65.704 107.649 65.704L109.107 66.2094C109.351 66.2094 109.837 66.2094 109.837 65.704L112.511 55.5957C112.511 55.343 112.511 54.8375 112.025 54.8375L110.566 54.3321C110.323 54.3321 109.837 54.3321 109.837 54.8375L107.163 64.9458Z" fill="#313030"/>
<path d="M109.594 54.0794C109.594 54.3321 109.594 54.3321 109.594 54.5848L112.997 55.5957C112.997 55.5957 113.24 55.5957 113.24 55.343C113.24 55.0903 113.24 55.0903 113.24 54.8376L109.837 53.8267C109.594 53.8267 109.594 53.8267 109.594 54.0794Z" fill="#0C2518"/>
<path d="M107.649 35.8845C107.649 32.5993 109.351 30.0722 111.295 30.0722C113.483 30.0722 114.942 32.5993 114.942 35.8845C114.942 39.1697 113.24 41.6968 111.295 41.6968C109.351 41.6968 107.649 39.1697 107.649 35.8845Z" fill="#AEAEAE"/>
<path d="M107.649 35.8845C107.649 32.5993 109.351 30.0722 111.295 30.0722C113.483 30.0722 114.942 32.5993 114.942 35.8845C114.942 39.1697 113.24 41.6968 111.295 41.6968C109.351 41.6968 107.649 39.1697 107.649 35.8845Z" fill="#AEAEAE"/>
<path d="M107.649 35.8845C107.649 33.3574 108.864 31.3357 110.566 31.3357C112.025 31.3357 113.483 33.3574 113.483 35.8845C113.483 38.4115 112.268 40.4332 110.566 40.4332C108.864 40.4332 107.649 38.4115 107.649 35.8845Z" fill="white"/>
<path d="M34.959 24.2599C34.959 23.7545 35.6884 23.2491 36.6608 23.2491C37.6332 23.2491 38.3626 23.7545 38.3626 24.2599L38.3626 44.4765C38.3626 44.9819 37.6332 45.4874 36.6608 45.4874C35.6884 45.4874 34.959 44.9819 34.959 44.4765L34.959 24.2599Z" fill="#0049A7"/>
<path d="M27.9089 38.4115C27.9089 38.1588 28.3951 37.9061 28.8813 37.9061C29.3675 37.9061 29.8538 38.1588 29.8538 38.4115L29.8538 45.9928C29.8538 46.2455 29.3675 46.4982 28.8813 46.4982C28.3951 46.4982 27.9089 46.2455 27.9089 45.9928L27.9089 38.4115Z" fill="#00337D"/>
<path d="M23.5329 45.7401C23.5329 44.9819 24.0191 44.2238 24.9916 44.2238L28.6382 44.2238C29.3675 44.2238 30.0969 44.7292 30.0969 45.7401C30.0969 46.4982 29.6106 47.2563 28.6382 47.2563L24.9916 47.2563C24.0191 47.0036 23.5329 46.4982 23.5329 45.7401Z" fill="#00337D"/>
<path d="M23.5329 49.0253C23.5329 49.0253 18.6707 48.0144 19.6432 44.7292C20.1294 42.9603 25.2347 41.444 26.9365 42.4549C27.6658 42.9603 27.6658 47.0036 27.1796 48.5199C26.6933 49.278 24.7485 49.278 23.5329 49.0253Z" fill="#E95433"/>
<path d="M26.9364 48.5198C26.6933 49.0253 25.7209 49.278 24.7484 49.278L24.7484 42.2021C25.7209 42.2021 26.4502 42.2021 26.9364 42.4549C27.4226 42.7076 27.6658 47.0036 26.9364 48.5198Z" fill="#A8A7A1"/>
<path d="M19.6432 46.2455C20.3725 48.2671 23.5329 49.0253 23.5329 49.0253C24.9916 49.278 26.6933 49.278 27.1796 48.5199C27.4227 48.0144 27.6658 47.2563 27.6658 46.2455L19.6432 46.2455Z" fill="#E95433"/>
<path d="M27.9089 31.5884C27.9089 31.8412 28.3951 32.0939 28.8813 32.0939C29.3675 32.0939 29.8538 31.8412 29.8538 31.5884L29.8538 24.0072C29.8538 23.7545 29.3675 23.5018 28.8813 23.5018C28.3951 23.5018 27.9089 23.7545 27.9089 24.0072L27.9089 31.5884Z" fill="#00337D"/>
<path d="M23.5329 24.2599C23.5329 25.0181 24.0191 25.7762 24.9916 25.7762L28.6382 25.7762C29.3675 25.7762 30.0969 25.2708 30.0969 24.2599C30.0969 23.5018 29.6106 22.7437 28.6382 22.7437L24.9916 22.7437C24.0191 22.9964 23.5329 23.5018 23.5329 24.2599Z" fill="#00337D"/>
<path d="M23.5329 20.9747C23.5329 20.9747 18.6707 21.9855 19.6431 25.2707C20.1294 27.0397 25.2347 28.5559 26.9364 27.5451C27.6658 27.0397 27.6658 22.9964 27.1795 21.4801C26.6933 20.722 24.7484 20.722 23.5329 20.9747Z" fill="#E95433"/>
<path d="M26.9364 21.4801C26.6933 20.9747 25.7209 20.722 24.7484 20.722L24.7484 27.7978C25.7209 27.7978 26.4502 27.7978 26.9364 27.5451C27.4226 27.2924 27.6658 22.9964 26.9364 21.4801Z" fill="#A8A7A1"/>
<path d="M19.6432 23.7545C20.3725 21.7328 23.5329 20.9747 23.5329 20.9747C24.9916 20.722 26.6933 20.722 27.1796 21.4801C27.4227 21.9855 27.6658 22.7437 27.6658 23.7545L19.6432 23.7545Z" fill="#E95433"/>
<path d="M33.0142 44.9819C33.0142 43.213 34.4728 41.6967 36.1746 41.6967C37.8764 41.6967 39.335 43.213 39.335 44.9819C39.335 46.7509 37.8764 48.2671 36.1746 48.2671C34.4728 48.0144 33.0142 46.7509 33.0142 44.9819Z" fill="#0049A7"/>
<path d="M33.0142 25.5234C33.0142 23.7545 34.4728 22.2383 36.1746 22.2383C37.8764 22.2383 39.335 23.7545 39.335 25.5234C39.335 27.2924 37.8764 28.8086 36.1746 28.8086C34.4728 28.8086 33.0142 27.2924 33.0142 25.5234Z" fill="#0049A7"/>
<path d="M0.4375 34.1155C0.4375 32.0939 2.38239 30.3249 4.81348 30.3249L40.5506 30.3249C42.9817 30.3249 48.8163 32.0939 48.8163 34.1155L48.8163 36.1372C48.8163 38.1589 42.7385 39.9278 40.3075 39.9278L4.81348 39.9278C2.38238 39.9278 0.4375 38.1589 0.4375 36.1372L0.4375 34.1155Z" fill="#0049A7"/>
<path d="M18.1845 40.4332L18.1845 30.0722L8.46013 30.0722L8.46013 40.4332L18.1845 40.4332Z" fill="#E95433"/>
<path d="M18.1845 40.4332L18.1845 30.0722L14.2948 30.0722L14.2948 40.4332L18.1845 40.4332Z" fill="#A8A7A1"/>
<path d="M18.1845 40.4332L18.1845 37.9061L8.46013 37.9061L8.46013 40.4332L18.1845 40.4332Z" fill="#E95433"/>
<path d="M15.0241 44.4765L39.335 44.4765C41.2799 44.4765 42.9817 42.7076 42.9817 40.6859L42.9817 30.3249C42.9817 28.3033 41.2799 26.5343 39.335 26.5343L15.0241 26.5343C13.0792 26.5343 11.3774 28.3033 11.3774 30.3249L11.3774 40.4332C11.3774 42.7076 12.8361 44.4765 15.0241 44.4765ZM12.3499 30.8303C12.3499 29.0614 13.8085 27.5451 15.7534 27.5451L38.1195 27.5451C40.0643 27.5451 41.523 29.0614 41.523 30.8303L41.523 39.6751C41.523 41.444 40.0643 42.9603 38.1195 42.9603L15.7534 42.9603C13.8085 42.9603 12.3499 41.444 12.3499 39.6751L12.3499 30.8303Z" fill="#C4C4C3"/>
<path d="M33.2573 27.0397C33.2573 26.5343 33.5004 26.2816 33.9866 26.2816C34.4728 26.2816 34.7159 26.5343 34.7159 27.0397L34.7159 43.213C34.7159 43.7184 34.4728 43.9711 33.9866 43.9711C33.5004 43.9711 33.2573 43.7184 33.2573 43.213L33.2573 27.0397Z" fill="#C4C4C3"/>
<path d="M25.4778 27.0397C25.4778 26.5343 25.7209 26.2816 26.2071 26.2816C26.6933 26.2816 26.9364 26.5343 26.9364 27.0397L26.9364 43.213C26.9364 43.7184 26.6933 43.9711 26.2071 43.9711C25.7209 43.9711 25.4778 43.7184 25.4778 43.213L25.4778 27.0397Z" fill="#C4C4C3"/>
<path d="M17.9414 27.0397C17.9414 26.5343 18.1845 26.2816 18.6707 26.2816C19.1569 26.2816 19.4001 26.5343 19.4001 27.0397L19.4001 43.213C19.4001 43.7184 19.1569 43.9711 18.6707 43.9711C18.1845 43.9711 17.9414 43.7184 17.9414 43.213L17.9414 27.0397Z" fill="#C4C4C3"/>
<path d="M42.9817 40.6859C42.9817 42.4549 43.4679 44.982 44.9266 45.9928C48.087 48.2672 54.4078 46.2455 57.8113 45.2347C61.9442 44.2238 65.1046 43.4657 69.2375 41.9495C71.4255 41.1913 73.8566 40.6859 76.0446 39.9278C77.5032 39.4224 79.9343 36.6426 79.6912 34.6209C79.4481 32.5993 77.7463 30.5776 76.2877 30.0722C74.0997 29.3141 69.9668 28.0506 68.0219 27.2924C63.8891 26.0289 62.4304 25.7762 58.0545 24.7654C54.6509 24.0072 48.3301 21.7329 45.1697 24.0072C43.4679 25.2708 43.2248 27.5451 43.2248 29.3141C43.2248 29.3141 43.2248 33.8628 43.2248 34.8737C42.9817 36.1372 42.9817 40.6859 42.9817 40.6859Z" fill="#543A22"/>
<path d="M67.7788 32.0939C67.7788 32.5993 67.7788 33.3574 67.7788 33.8628C67.7788 35.3791 67.7788 36.8953 67.7788 38.4116C67.7788 38.6643 67.7788 38.917 67.7788 39.1697L67.7788 39.4224C68.022 40.1805 69.4806 39.4224 69.9668 39.4224C70.6962 39.1697 71.4255 39.1697 71.9117 38.917C72.1548 38.917 72.641 38.6643 72.8842 38.6643C72.8842 38.6643 72.8842 38.6643 72.8842 38.4116L72.8842 38.1589C72.8842 38.1589 72.8841 38.1589 73.1273 37.9062L73.1273 31.8412C73.1273 31.5885 72.8841 31.5885 72.641 31.3358C72.3979 31.3358 71.9117 31.0831 71.6686 31.0831C70.9393 30.8303 70.2099 30.8303 69.7237 30.5776C69.4806 30.5776 68.9944 30.3249 68.7513 30.3249C68.5082 30.3249 68.2651 30.0722 68.022 30.3249C67.7789 31.0831 67.7788 31.8412 67.7788 32.0939Z" fill="#7A5435"/>
<path d="M74.5859 31.8412C74.3428 31.8412 74.0997 31.8412 73.8566 32.0939L73.8566 37.9062C73.8566 38.1589 73.8566 38.1589 74.0997 38.1589C74.0997 38.1589 74.3428 38.1589 74.3428 38.4116C75.0721 38.1589 75.5583 38.1589 76.2877 37.9062C77.017 37.6535 78.2325 37.6535 78.2325 36.8953C78.2325 35.8845 78.2325 34.8737 78.2325 33.8628C78.2325 33.6101 78.2325 33.1047 77.9894 32.852C77.7463 32.5993 77.2601 32.5993 76.7739 32.3466C76.0446 32.0939 75.3152 32.0939 74.5859 31.8412Z" fill="#7A5435"/>
<path d="M57.082 41.9495C57.3251 42.2022 57.3251 42.2022 57.5682 42.2022C60.7287 41.4441 63.646 40.9386 66.8064 40.1805C67.0495 39.9278 67.2926 39.6751 67.5357 39.4224L67.5357 30.8303C67.5357 30.5776 67.2926 30.5776 67.2926 30.3249L67.0495 30.0722C65.834 29.8195 64.6184 29.5668 63.4029 29.0614C61.7011 28.556 59.7562 28.0506 58.0545 27.5451C57.8114 27.5451 57.5682 27.5451 57.3251 27.7978C57.3251 28.0506 57.082 28.0506 57.082 28.3033L57.082 41.9495C56.8389 41.9495 56.8389 41.9495 57.082 41.9495Z" fill="#7A5435"/>
<path d="M46.3852 26.2816L46.3852 44.2238C46.6283 44.4766 46.8714 44.4766 47.1145 44.4766C49.7888 43.7184 52.7061 43.213 55.6234 42.7076C55.8665 42.7076 56.1096 42.4549 56.3527 42.2022C56.3527 41.9495 56.5958 41.9495 56.5958 41.6968L56.5958 28.0506C56.5958 27.7979 56.3527 27.5451 56.1096 27.5451L55.8665 27.5451C53.1923 26.787 50.5181 26.2816 47.8439 25.5235C46.8714 25.2708 46.3852 25.7762 46.3852 26.2816Z" fill="#7A5435"/>
</g>
<defs>
<clipPath id="clip0_956_22625">
<rect width="70" height="156.562" fill="white" transform="translate(157) rotate(90)"/>
</clipPath>
</defs>
</svg>
