<svg width="60" height="60" viewBox="0 0 60 60" fill="none" xmlns="http://www.w3.org/2000/svg">
<g clip-path="url(#clip0_236_98900)">
<path d="M34.8278 41.4548C34.8278 41.2937 34.6671 40.9716 34.6671 40.8106C34.6671 40.6495 34.5065 40.6495 34.3459 40.4885L28.4031 31.9532C28.4031 31.6312 28.2424 31.3091 28.0818 31.148L28.0818 30.987C28.0818 30.6649 27.9212 30.3428 27.6 30.1818L28.0818 22.1296C28.2424 22.1296 28.5637 22.1296 28.7243 22.2907C28.8849 22.7738 29.2061 23.418 29.688 23.9011C29.3668 25.1895 29.688 26.6388 30.3305 27.6051C30.8123 27.9272 31.9366 28.0882 31.9366 28.0882C31.9366 28.0882 32.4185 28.8934 32.9004 28.8934C34.1853 29.0545 35.6308 28.5713 36.5946 27.444C37.3976 27.6051 38.2007 27.444 38.8432 27.283C38.8432 27.444 39.0038 27.6051 39.1644 27.6051C39.0038 27.7661 38.8432 27.9272 38.6826 28.2493C38.6826 28.7324 39.1644 29.3766 39.9675 29.3766C40.2888 29.3766 40.61 29.3766 40.7706 29.2155C41.4131 29.6986 42.0556 29.6986 42.5374 28.7324C43.8223 26.3167 41.7343 23.579 38.3613 21.1634C38.3613 20.6803 36.9158 19.875 36.2733 19.553C35.7915 19.3919 35.4702 19.3919 34.9884 19.553C34.6671 19.3919 34.1853 19.0698 33.8641 18.9088C29.688 17.6204 26.315 17.4594 25.0301 20.0361C24.8695 20.3582 24.8695 20.6803 24.8695 20.8413L25.6726 30.987C25.6726 31.3091 25.8332 31.4701 25.9938 31.6312L25.9938 31.7922C25.9938 32.2753 26.4756 32.7585 27.2787 32.9195L28.4031 35.3351C28.0818 35.013 27.6 34.691 26.9575 34.5299C25.1907 34.0468 23.5845 35.013 22.6208 36.7845C21.6571 36.7845 21.0147 36.7845 20.2116 36.9456C19.8903 36.7845 19.5691 36.6235 19.2479 36.4624C19.4085 36.4624 19.5691 36.3014 19.7297 36.1403C20.0509 35.6572 19.7297 35.013 19.0872 34.5299C18.4448 34.2078 17.6417 34.2078 17.4811 34.691C17.3204 35.013 17.3204 35.3351 17.6417 35.6572C16.9992 35.6572 16.3567 36.1403 16.0355 37.2676C15.2324 39.8443 18.766 42.0989 22.4602 43.7093C23.1027 44.0314 23.9058 44.0314 24.7089 44.1925C25.5119 44.3535 26.1544 44.8367 26.9575 44.8367C30.8123 45.4808 35.149 44.1925 34.8278 41.4548ZM29.5274 38.717C29.5274 38.556 29.5274 38.556 29.5274 38.3949L29.688 38.8781C29.688 38.717 29.688 38.717 29.5274 38.717Z" fill="url(#paint0_linear_236_98900)"/>
<path d="M30.9816 28.0556C30.9816 27.5699 30.4959 26.9224 29.6864 26.9224C29.0388 26.9224 28.3912 27.408 28.3912 27.8937C28.3912 28.3794 28.8769 29.027 29.6864 29.027C30.334 29.027 30.9816 28.7032 30.9816 28.0556Z" fill="#F1BFBE"/>
<path d="M31.3057 29.0272C31.3057 28.5415 30.82 27.8939 30.0105 27.8939C29.201 27.8939 28.7153 28.2177 28.5534 28.8653C28.5534 29.351 29.0391 29.9986 29.8486 29.9986C30.6581 29.9986 31.3057 29.6748 31.3057 29.0272Z" fill="#F1BFBE"/>
<path d="M44.4189 25.6272C44.4189 25.1415 43.9333 24.4939 43.1238 24.4939C42.3143 24.4939 41.8286 24.8177 41.6667 25.4653C41.6667 25.951 42.1524 26.5985 42.9619 26.5985C43.7714 26.5985 44.257 26.1128 44.4189 25.6272Z" fill="#F1BFBE"/>
<path d="M45.5522 25.7892C46.8474 23.1989 44.5808 20.4467 41.0192 18.0182C40.3716 17.5326 39.5621 17.3707 38.9145 17.0469C38.105 16.7231 37.4575 16.0755 36.8099 15.9136C32.6006 14.6184 29.2008 14.4565 27.9056 17.0469C26.9343 18.9896 28.877 18.9896 31.7911 19.3134C32.1149 20.1229 32.6006 21.0942 33.4101 21.7418C34.2196 22.3894 34.7052 22.3894 36.1623 23.037C37.4575 23.6846 37.7812 24.1703 38.9145 24.3322C39.8859 24.494 41.0192 24.494 41.8286 24.3322C43.6095 26.2749 44.7427 27.5701 45.5522 25.7892Z" fill="black"/>
<path d="M33.734 19.4753C33.8959 18.8277 34.0578 18.342 33.8959 18.342C33.734 18.1801 33.2483 18.5039 33.0864 19.1515C32.7626 19.6372 32.7626 20.2848 32.9245 20.2848C33.0864 20.2848 33.4102 19.961 33.734 19.4753Z" fill="#E8BAAB"/>
<path d="M40.6954 22.8752C41.0192 22.3895 41.0192 21.9038 40.8573 21.7419C40.6954 21.7419 40.3717 22.0657 40.0479 22.5514C39.886 23.199 39.7241 23.6847 39.886 23.8466C40.0479 23.8466 40.5336 23.5228 40.6954 22.8752Z" fill="#E8BAAB"/>
<path d="M40.3716 23.1991C41.5048 20.7707 40.8572 18.1804 38.7526 17.209C36.8099 16.2376 34.2195 17.3709 33.0863 19.6374C32.2768 21.4183 32.4387 23.361 33.4101 24.6562C33.7338 24.98 34.8671 25.1419 34.8671 25.1419C34.8671 25.1419 35.3528 25.9513 35.8385 25.9513C37.4574 26.1132 39.4002 25.1419 40.3716 23.1991Z" fill="#A26B33"/>
<path d="M40.048 18.6658C40.3718 18.1801 39.8861 17.2087 39.0766 16.8849C38.2671 16.3992 37.4577 16.723 37.1339 17.2087C36.8101 17.8563 37.2958 18.6658 38.1053 18.9895C38.9147 19.4752 39.7242 19.3133 40.048 18.6658Z" fill="#694521"/>
<path d="M40.2098 18.5038C40.2098 18.3419 41.3431 18.3419 41.3431 18.18C41.3431 17.6943 39.886 16.8849 39.2384 16.5611C38.429 16.2373 37.6195 16.3992 37.2957 17.0468C36.9719 17.6943 37.2957 18.5038 38.1052 18.8276C38.9147 19.3133 39.886 19.1514 40.2098 18.5038Z" fill="#8F5E2D"/>
<path d="M30.9816 19.1515L27.5818 17.6945L28.3912 28.0558L30.4959 27.2463L30.9816 19.1515Z" fill="black"/>
<path d="M22.4011 33.0745C22.7249 32.5888 22.4011 31.9412 21.7535 31.4555C21.106 31.1317 20.2965 31.1317 20.1346 31.6174C19.8108 32.1031 20.1346 32.7507 20.7822 33.2364C21.4297 33.7221 22.2392 33.5602 22.4011 33.0745Z" fill="#F1BFBE"/>
<path d="M37.7813 38.5789C37.6194 37.4456 36.4862 36.1505 33.4101 37.2837C30.1722 38.5789 28.5533 36.798 28.5533 36.798C23.5345 35.341 19.9728 29.9984 18.6777 34.3696C17.8682 36.9599 21.4299 39.2265 25.1535 40.8454C25.8011 41.1692 26.6105 41.1692 27.42 41.3311C28.2295 41.493 28.8771 41.9787 29.6866 41.9787C33.7339 42.6263 38.1051 41.3311 37.7813 38.5789Z" fill="#C76400"/>
<path d="M29.6864 29.5128L33.41 37.4457L37.6193 37.9313L31.3053 29.0271L29.6864 29.5128Z" fill="#C76400"/>
<path d="M35.8386 39.5502C36.1624 37.9313 33.2482 35.6647 29.039 34.3696C24.8297 33.2363 21.268 33.722 20.7823 35.3409C20.4585 36.9599 23.3726 39.2264 27.5819 40.5216C31.7912 41.6549 35.3529 41.1692 35.8386 39.5502Z" fill="#C76400"/>
<path d="M32.6006 37.6078C32.7625 36.9602 32.7625 36.4745 32.4387 36.4745C32.2768 36.4745 31.953 36.7983 31.953 37.4459C31.7912 38.0934 31.7912 38.5791 32.1149 38.5791C32.1149 38.5791 32.4387 38.0934 32.6006 37.6078Z" fill="#E8BAAB"/>
<path d="M25.1536 35.503C25.3155 35.0173 25.3155 34.3698 25.1536 34.3698C24.9917 34.3698 24.6679 34.6935 24.6679 35.3411C24.506 35.9887 24.506 36.4744 24.8298 36.4744C24.8298 36.4744 24.9917 36.1506 25.1536 35.503Z" fill="#E8BAAB"/>
<path d="M32.4388 37.1219C32.9245 34.6935 31.7913 32.265 29.6866 31.6175C27.582 30.9699 25.4774 32.5888 24.8298 35.0173C24.1822 37.4457 25.4773 39.8741 27.582 40.5217C29.6866 41.0074 31.7913 39.5503 32.4388 37.1219Z" fill="#341E11"/>
</g>
<defs>
<linearGradient id="paint0_linear_236_98900" x1="29.2988" y1="17.9425" x2="29.2988" y2="45.1" gradientUnits="userSpaceOnUse">
<stop stop-color="#E3E3E3"/>
<stop offset="1" stop-color="#C4C4C6"/>
</linearGradient>
<clipPath id="clip0_236_98900">
<rect width="60" height="60" rx="8" fill="white"/>
</clipPath>
</defs>
</svg>
