<svg width="157" height="70" viewBox="0 0 157 70" fill="none" xmlns="http://www.w3.org/2000/svg">
<path d="M1.71193 59.1369C0.220714 55.7435 -0.0633226 14.4015 1.40423 11.008C3.74757 5.52473 16.4111 3.33142 16.4111 3.33142C16.4111 3.33142 18.6598 3.33142 22.447 3.33142C21.0978 3.57972 9.78347 5.83512 7.55847 10.9873C6.09092 14.3808 6.37496 55.7435 7.86618 59.1162C10.1385 64.2478 21.5002 66.3997 22.8494 66.648C19.0622 66.6687 16.8135 66.6894 16.8135 66.6894C16.8135 66.6894 4.14996 64.6202 1.71193 59.1369Z" fill="#385459"/>
<path d="M151.023 61.5992C152.68 57.854 152.68 12.1667 151.023 8.42153C148.325 2.35887 134.052 -7.96167e-07 134.052 -7.96167e-07C134.052 -7.96167e-07 31.6783 0.351753 27.7254 0.931121C10.7776 3.37274 6.54063 10.9045 5.16776 14.0911C3.22681 18.5605 2.65873 51.1085 4.59968 55.5572C5.99622 58.7437 10.8013 66.6273 27.7491 69.0689C31.702 69.6275 134.075 70 134.075 70C134.075 70 148.325 67.6618 151.023 61.5992Z" fill="#D81513" id="color-dark-1"/>
<path d="M155.899 61.5992C157.367 57.854 157.367 12.1667 155.899 8.42153C153.509 2.35887 140.845 -7.06152e-07 140.845 -7.06152e-07C140.845 -7.06152e-07 138.596 1.9402e-05 134.809 0.0207109C136.158 0.289703 147.496 2.71063 149.745 8.40085C151.213 12.146 151.213 57.8333 149.745 61.5785C147.496 67.2687 136.158 69.6896 134.809 69.9586C138.596 69.9793 140.845 69.9793 140.845 69.9793C140.845 69.9793 153.509 67.6618 155.899 61.5992Z" fill="#385459"/>
<path d="M96.9843 54.3778C103.423 47.384 103.139 35.031 103.139 35.031C103.139 35.031 103.423 22.6574 96.9843 15.6843C95.4458 14.0083 42.2826 14.5876 39.5369 17.381C36.7911 20.1744 37.0042 35.031 37.0042 35.031C37.0042 35.031 36.7911 49.8877 39.5369 52.6811C42.3063 55.4537 95.4458 56.0538 96.9843 54.3778Z" fill="#F71E1E" id="color-1"/>
<path d="M117.506 59.5093C123.021 55.3709 124.276 35.0103 124.276 35.0103C124.276 35.0103 123.021 14.6704 117.506 10.5114C116.133 9.47677 100.511 11.9598 99.4697 14.091C98.6886 15.6636 105.198 21.0848 104.559 35.0103C103.849 50.4463 98.7122 54.357 99.4697 55.9296C100.511 58.0609 116.133 60.5439 117.506 59.5093Z" fill="#385459"/>
<path d="M22.873 9.02157C17.3579 12.8082 17.1212 34.9689 17.1212 34.9689C17.1212 34.9689 17.3579 57.2125 22.873 60.9991C24.2459 61.9509 33.5009 56.0538 34.5661 54.0881C35.3235 52.6603 34.5661 34.9689 34.5661 34.9689C34.5661 34.9689 35.3235 17.2776 34.5661 15.8498C33.5009 13.8841 24.2459 8.06976 22.873 9.02157Z" fill="#385459"/>
<path d="M119.518 59.4265C119.518 59.4265 132.797 57.7919 138.904 55.6813C145.011 53.5708 148.065 50.8395 148.065 50.8395L148.301 35.3414L148.301 35.0103L148.301 34.6793L148.065 19.1812C148.065 19.1812 145.011 16.4499 138.904 14.3393C132.797 12.2288 119.518 10.5941 119.518 10.5941C119.518 10.5941 122.193 15.9326 123.093 20.0709C123.897 23.7954 124.939 33.1481 125.152 35.0103C124.939 36.8726 123.897 46.2045 123.092 49.9497C122.217 54.088 119.518 59.4265 119.518 59.4265Z" fill="#F71E1E" id="color-2"/>
<path d="M145.319 55.4745C146.337 55.5573 148.041 55.6193 148.562 56.5505C149.106 57.523 148.775 59.199 148.656 60.2956C148.349 62.7787 146.384 64.5581 143.828 65.5927C142.691 66.0479 136.75 67.1239 137.176 64.9927L137.01 64.8478C137.602 64.1857 138.857 63.7719 139.638 63.1511C140.49 62.4683 141.105 61.7027 141.603 60.8336C142.265 59.6749 142.81 58.7438 142.952 57.4609C143.117 55.9504 143.425 55.309 145.319 55.4745Z" fill="#385459"/>
<path d="M144.301 55.0192C145.319 55.102 147.023 55.1641 147.544 56.0952C148.088 57.0677 147.757 58.7437 147.638 59.8404C147.331 62.3234 145.366 64.1029 142.81 65.1375C141.674 65.5927 135.732 66.6687 136.158 64.5374L135.993 64.3926C136.584 63.7304 137.839 63.3166 138.62 62.6958C139.472 62.013 140.088 61.2474 140.585 60.3784C141.247 59.2196 141.792 58.2885 141.934 57.0056C142.1 55.4951 142.407 54.8744 144.301 55.0192Z" fill="#CECDB6"/>
<path opacity="0.5" d="M146.053 61.5992C145.65 61.7647 144.443 61.6819 144.112 61.3095C143.757 60.8956 144.064 59.9852 144.183 59.5507C144.396 58.6196 144.112 56.8401 145.366 56.4262C147.189 55.8262 147.094 57.6884 146.976 58.5989C146.905 59.3231 146.692 61.0405 146.053 61.5371C145.934 61.6199 145.626 61.6612 145.697 61.6612L146.053 61.5992Z" fill="white"/>
<path d="M145.319 14.1325C146.337 14.0497 148.041 13.9876 148.562 13.0565C149.106 12.084 148.775 10.4079 148.633 9.31129C148.325 6.82829 146.337 5.06949 143.804 4.03491C142.668 3.57969 136.703 2.52441 137.153 4.65566L136.987 4.80052C137.579 5.46265 138.833 5.87647 139.614 6.49722C140.466 7.18005 141.082 7.94566 141.579 8.81471C142.242 9.97344 142.786 10.9046 142.952 12.1874C143.117 13.6565 143.425 14.298 145.319 14.1325Z" fill="#385459"/>
<path d="M144.301 14.567C145.319 14.4842 147.023 14.4222 147.544 13.491C148.088 12.5185 147.757 10.8425 147.615 9.74586C147.307 7.26286 145.319 5.50406 142.786 4.46948C141.65 4.01426 135.685 2.95898 136.135 5.09023L135.969 5.23506C136.561 5.89719 137.815 6.31102 138.596 6.93177C139.449 7.6146 140.064 8.3802 140.561 9.24925C141.224 10.408 141.768 11.3391 141.934 12.622C142.1 14.1118 142.407 14.7325 144.301 14.567Z" fill="#CECDB6"/>
<path opacity="0.5" d="M146.053 8.00768C145.65 7.84215 144.443 7.92492 144.112 8.29737C143.756 8.71121 144.088 9.62164 144.183 10.0562C144.396 10.9873 144.135 12.7668 145.39 13.1806C147.212 13.7807 147.094 11.8977 146.999 11.008C146.905 10.2838 146.715 8.56635 146.076 8.06974C145.958 7.98698 145.65 7.9456 145.721 7.9456L146.053 8.00768Z" fill="white"/>
<path d="M116.465 6.60069C116.465 3.3521 84.9362 3.37279 81.1964 3.80731C77.4565 4.24184 78.6873 13.0358 79.4448 13.0358C80.6519 13.0358 96.6056 13.0358 96.6056 13.0358C97.5288 12.6427 101.269 10.6563 105.766 9.20784C110.287 7.75942 116.465 7.30421 116.465 6.60069Z" fill="#385459"/>
<path d="M76.7937 3.80727C76.1073 2.89684 40.105 4.90395 32.3648 5.71092C28.1279 6.14545 34.4004 13.76 37.7853 14.0497C41.1701 14.36 74.2847 12.6219 75.9416 12.3736C77.2434 12.1874 77.8115 5.15223 76.7937 3.80727Z" fill="#385459"/>
<path d="M116.465 63.9167C116.465 67.1653 84.9362 67.1446 81.1963 66.7101C77.4565 66.2755 78.6873 57.4816 79.4448 57.4816C80.6519 57.4816 96.6056 57.4816 96.6056 57.4816C97.5288 57.8747 101.269 59.8611 105.766 61.3095C110.287 62.758 116.465 63.1925 116.465 63.9167Z" fill="#385459"/>
<path d="M76.7937 66.71C76.1073 67.6205 40.105 65.6134 32.3648 64.8064C28.1279 64.3719 34.4004 56.7573 37.7853 56.4676C41.1701 56.1573 74.2847 57.8954 75.9416 58.1437C77.2434 58.3299 77.8115 65.3651 76.7937 66.71Z" fill="#385459"/>
<path opacity="0.2" d="M123.306 26.3613L101.718 19.3882L103.896 25.9061L124.134 33.3344L123.306 26.3613Z" fill="#CECDB6"/>
<path opacity="0.2" d="M104.393 29.1545L124.134 36.707L123.85 39.2935L104.582 31.9479L104.393 29.1545Z" fill="#CECDB6"/>
<path opacity="0.2" d="M104.393 37.5554L122.737 46.9495L120.749 54.3571L103.162 46.1839L104.393 37.5554Z" fill="#CECDB6"/>
<path opacity="0.2" d="M120.962 16.2637L109.127 10.9873L104.393 11.9598L121.885 19.3881L120.962 16.2637Z" fill="#CECDB6"/>
</svg>
