<svg width="157" height="70" viewBox="0 0 157 70" fill="none" xmlns="http://www.w3.org/2000/svg">
<path d="M20.3921 68.1088C16.2541 67.6303 13.0382 66.9695 11.464 66.1036C5.50442 62.8223 5.88673 35.4558 5.88673 35.4558C5.79677 30.739 5.59438 8.61336 10.8118 5.58276C12.431 4.62573 15.9168 3.89657 20.3921 3.30412L20.3921 2.71167C13.3755 3.37248 7.64088 4.28393 5.39198 5.60555C0.174549 8.63615 0.376942 30.7846 0.466898 35.4786C0.466898 35.4786 0.107085 62.8451 6.04416 66.1264C8.24808 67.3341 13.6904 68.1316 20.3921 68.6329L20.3921 68.1088Z" fill="#385459"/>
<path d="M153.774 60.9994C157.485 57.9004 157.012 36.8457 156.945 34.9544C156.99 33.0632 157.462 12.0085 153.774 8.9095C149.906 5.67383 142.709 -6.24663e-07 134.501 -9.83466e-07C133.399 -1.03163e-06 131.352 -1.12109e-06 128.676 -1.23807e-06C136.907 -8.78283e-07 144.081 5.67383 147.949 8.9095C151.66 12.0085 151.188 33.0632 151.12 34.9544C151.165 36.8457 151.637 57.9004 147.949 60.9994C144.081 64.235 136.885 69.9089 128.676 69.9089C131.352 69.9089 133.399 69.9089 134.501 69.9089C142.732 69.9089 149.906 64.235 153.774 60.9994Z" fill="#385459"/>
<path d="M131.218 69.9999C139.448 69.9999 146.622 64.3261 150.491 61.0904C154.201 57.9915 153.729 36.9368 153.661 35.0455C153.706 33.1542 154.179 12.0995 150.491 9.00057C146.622 5.76489 139.426 0.0910638 131.218 0.0910635C122.987 0.0910631 64.4704 0.0910606 64.4704 0.0910606C64.4704 0.0910606 15.2646 0.091058 7.5509 4.67114C2.33347 7.77009 2.53586 30.397 2.62582 35.205C2.62582 35.205 2.266 63.164 8.20308 66.5136C15.467 70.6152 58.1285 69.9771 64.4479 69.8632L64.4479 69.9543C64.4704 69.9999 123.009 69.9999 131.218 69.9999Z" fill="#EAA732" id="color-dark-1"/>
<path d="M99.868 56.3282C102.274 53.7989 102.274 16.2924 99.868 13.7631C97.0344 10.8009 50.2574 12.3276 47.7161 14.5834C45.7371 16.3608 45.7371 53.7534 47.7161 55.5307C50.2574 57.7638 97.0568 59.2905 99.868 56.3282Z" fill="#FFD62C" id="color-1"/>
<path d="M139.741 57.194C149.658 54.3913 149.299 35.0456 149.299 35.0456C149.299 35.0456 149.658 15.6999 139.741 12.8971C134.478 11.416 116.172 9.63867 116.172 9.63867C116.172 9.63867 117.207 14.401 118.624 23.1966C119.478 28.597 119.478 41.4941 118.624 46.8945C117.207 55.6901 116.172 60.4753 116.172 60.4753C116.172 60.4753 134.478 58.6751 139.741 57.194Z" fill="#FFD62C" id="color-2"/>
<path d="M35.887 58.8347C35.887 58.8347 34.1104 51.4975 33.908 47.6922C33.6156 42.1095 33.2783 35.114 33.2783 35.114C33.2783 35.114 33.6156 28.1186 33.908 22.5359C34.1104 18.7306 35.887 11.3933 35.887 11.3933C35.887 11.3933 12.8583 11.2566 10.452 12.4643C5.61687 14.8797 5.61687 35.0912 5.61687 35.0912C5.61687 35.0912 5.61687 55.3028 10.452 57.7182C12.8808 58.9715 35.887 58.8347 35.887 58.8347Z" fill="#FFD62C" id="color-3"/>
<path d="M114.148 9.72986C113.226 8.3171 102.207 13.0339 102.207 13.0339C102.207 13.0339 103.489 27.5944 103.489 34.0658C103.489 52.3177 101.285 55.7813 102.207 56.8978C103.129 58.0144 112.799 61.1361 113.676 60.5892C115.61 59.3588 117.252 47.3275 117.274 35.6153C117.342 21.875 115.745 12.168 114.148 9.72986Z" fill="#385459"/>
<path d="M46.2319 56.4649C46.2319 54.4141 45.5572 51.7025 45.1524 45.7781C44.7476 40.1726 44.6352 34.9773 44.6352 34.9773C44.6352 34.9773 44.7701 29.782 45.1524 24.1765C45.5797 18.2748 46.2319 15.5404 46.2319 13.4897C46.2319 11.3933 38.0234 8.79565 37.2588 10.0261C36.899 10.5958 35.887 15.6772 35.2123 21.1687C34.4027 27.6401 34.4702 35.0001 34.4702 35.0001C34.4702 35.0001 34.4027 42.3373 35.2123 48.8315C35.887 54.323 36.899 59.4044 37.2588 59.974C38.0459 61.1589 46.2544 58.5613 46.2319 56.4649Z" fill="#385459"/>
<path d="M112.304 4.21547C111.81 3.07615 80.3475 3.87367 76.9967 3.87367C75.8722 3.87367 75.4224 9.68422 76.8392 9.93487C78.2561 10.2083 99.8904 11.0514 102.252 10.664C108.526 9.68422 112.934 5.62823 112.304 4.21547Z" fill="#385459"/>
<path d="M73.6233 4.16999C74.7702 4.94473 74.3429 9.52481 73.6233 9.7071C72.9037 9.88939 48.1434 11.3705 46.6366 10.7781C45.1298 10.1856 36.3817 6.72207 37.3937 5.44603C38.4057 4.16999 71.9816 3.05345 73.6233 4.16999Z" fill="#385459"/>
<path d="M112.304 65.7845C111.809 66.9238 80.3475 66.1263 76.9966 66.1263C75.8722 66.1263 75.4224 60.3157 76.8392 60.0651C78.256 59.7917 99.8903 58.9486 102.252 59.3359C108.526 60.293 112.934 64.3489 112.304 65.7845Z" fill="#385459"/>
<path d="M73.6233 65.8301C74.7702 65.0554 74.3429 60.4753 73.6233 60.293C72.9037 60.1107 48.1434 58.6296 46.6366 59.2221C45.1298 59.8145 36.3817 63.2781 37.3937 64.5541C38.4057 65.8301 71.9816 66.9467 73.6233 65.8301Z" fill="#385459"/>
<path d="M149.164 51.7252C149.951 51.8164 151.255 51.8619 151.637 52.8418C152.042 53.8444 151.795 55.5761 151.705 56.6927C151.48 59.2448 149.973 61.0677 148.017 62.1386C147.14 62.6172 142.619 63.7109 142.957 61.5234L142.822 61.3639C143.272 60.6803 144.239 60.2474 144.823 59.6093C145.475 58.903 145.925 58.1282 146.308 57.2168C146.802 56.0319 147.23 55.0748 147.342 53.7532C147.499 52.2037 147.724 51.5657 149.164 51.7252Z" fill="#385459"/>
<path d="M148.399 51.2696C149.186 51.3607 150.491 51.4063 150.873 52.3861C151.278 53.3887 151.03 55.1205 150.94 56.237C150.715 58.7891 149.209 60.612 147.252 61.683C146.375 62.1615 141.855 63.2552 142.192 61.0677L142.057 60.9082C142.507 60.2246 143.474 59.7917 144.059 59.1537C144.711 58.4473 145.161 57.6726 145.543 56.7611C146.038 55.5762 146.465 54.6192 146.577 53.2976C146.712 51.7709 146.96 51.1101 148.399 51.2696Z" fill="#CECDB6"/>
<path opacity="0.5" d="M149.748 58.0372C149.434 58.1967 148.511 58.1283 148.264 57.7409C147.994 57.308 148.242 56.3738 148.309 55.9408C148.466 54.9838 148.264 53.1381 149.209 52.7279C150.603 52.1127 150.513 54.0267 150.445 54.961C150.378 55.7129 150.243 57.4675 149.748 57.9916C149.658 58.0827 149.433 58.1283 149.478 58.1283L149.748 58.0372Z" fill="white"/>
<path d="M149.164 18.2747C149.951 18.1835 151.255 18.1379 151.637 17.1581C152.042 16.1555 151.795 14.4237 151.705 13.3072C151.48 10.7551 149.973 8.93221 148.017 7.86124C147.14 7.38273 142.619 6.28898 142.957 8.47648L142.822 8.63599C143.272 9.31958 144.239 9.75252 144.823 10.3905C145.475 11.0969 145.925 11.8717 146.308 12.7831C146.802 13.968 147.23 14.925 147.342 16.2467C147.499 17.7734 147.724 18.4342 149.164 18.2747Z" fill="#385459"/>
<path d="M148.399 18.7305C149.186 18.6393 150.49 18.5937 150.873 17.6139C151.278 16.6113 151.03 14.8796 150.94 13.763C150.715 11.2109 149.209 9.38802 147.252 8.31706C146.375 7.83854 141.855 6.74479 142.192 8.93229L142.057 9.0918C142.507 9.77539 143.474 10.2083 144.059 10.8464C144.711 11.5527 145.161 12.3275 145.543 13.2389C146.038 14.4238 146.465 15.3809 146.577 16.7025C146.712 18.2292 146.96 18.89 148.399 18.7305Z" fill="#CECDB6"/>
<path opacity="0.5" d="M149.748 11.9627C149.434 11.8032 148.511 11.8716 148.264 12.259C147.994 12.6919 148.242 13.6261 148.309 14.0591C148.466 15.0161 148.264 16.8618 149.209 17.272C150.603 17.8872 150.513 15.9731 150.445 15.0389C150.378 14.2869 150.243 12.5324 149.748 12.0083C149.658 11.9172 149.433 11.8716 149.478 11.8716L149.748 11.9627Z" fill="white"/>
<path d="M5.23456 15.6087C6.7863 15.472 6.92121 14.8568 7.3485 13.4668C7.7533 12.168 8.38299 10.8691 8.78779 9.57031C9.08015 8.59049 9.86727 6.60807 9.21509 5.60547C8.90024 5.10417 8.15812 4.8763 7.39349 4.78516C5.32451 6.19792 4.1326 10.7324 3.45793 15.9277C4.11011 15.8594 4.82976 15.6543 5.23456 15.6087Z" fill="#F71E1E"/>
<path d="M5.70685 55.5307C7.25859 55.6674 7.39353 56.2826 7.82082 57.6726C8.22562 58.9714 8.85528 60.2703 9.26008 61.5691C9.55244 62.5489 10.3396 64.5313 9.68738 65.5339C9.37253 66.0352 8.63041 66.2631 7.86578 66.3542C5.7968 64.9415 4.60489 60.407 3.93022 55.2117C4.5824 55.2572 5.30205 55.4851 5.70685 55.5307Z" fill="#F71E1E"/>
<path opacity="0.2" d="M116.982 25.1107L102.791 20.2344L103.039 24.0625L117.229 30.6934L116.982 25.1107Z" fill="#CECDB6"/>
<path opacity="0.2" d="M103.399 30.3289L117.274 39.6029L116.892 45.3679L103.466 36.0027L103.399 30.3289Z" fill="#CECDB6"/>
<path opacity="0.2" d="M103.264 43.2031L116.33 51.0189L116.015 53.1608L103.129 45.3678L103.264 43.2031Z" fill="#CECDB6"/>
<path opacity="0.2" d="M116.487 19.6418L102.207 13.011L102.342 14.6972L116.735 21.9661L116.487 19.6418Z" fill="#CECDB6"/>
<path d="M137.784 34.2025L137.784 31.0352L134.658 31.0352L134.658 34.2025L137.784 34.2025Z" fill="#231F20"/>
<path d="M134.681 37.5521L134.681 34.3848L131.555 34.3848L131.555 37.5521L134.681 37.5521Z" fill="#231F20"/>
<path d="M137.784 40.8106L137.784 37.6433L134.658 37.6433L134.658 40.8106L137.784 40.8106Z" fill="#231F20"/>
<path d="M134.681 30.8985L134.681 27.7312L131.555 27.7312L131.555 30.8985L134.681 30.8985Z" fill="#231F20"/>
<path d="M134.681 43.9779L134.681 40.8105L131.555 40.8105L131.555 43.9779L134.681 43.9779Z" fill="#231F20"/>
<path d="M137.784 27.6856L137.784 24.5183L134.658 24.5183L134.658 27.6856L137.784 27.6856Z" fill="#231F20"/>
<path d="M137.784 47.077L137.784 43.9097L134.658 43.9097L134.658 47.077L137.784 47.077Z" fill="#231F20"/>
<path d="M20.3921 34.0885L20.3921 30.9211L17.2662 30.9211L17.2662 34.0885L20.3921 34.0885Z" fill="#231F20"/>
<path d="M23.5181 37.4381L23.5181 34.2708L20.3921 34.2708L20.3921 37.4381L23.5181 37.4381Z" fill="#231F20"/>
<path d="M20.3921 40.6966L20.3921 37.5293L17.2662 37.5293L17.2662 40.6966L20.3921 40.6966Z" fill="#231F20"/>
<path d="M23.5181 30.7618L23.5181 27.5945L20.3921 27.5945L20.3921 30.7618L23.5181 30.7618Z" fill="#231F20"/>
<path d="M23.5181 43.8638L23.5181 40.6965L20.3921 40.6965L20.3921 43.8638L23.5181 43.8638Z" fill="#231F20"/>
<path d="M20.3921 27.5716L20.3921 24.4043L17.2662 24.4043L17.2662 27.5716L20.3921 27.5716Z" fill="#231F20"/>
<path d="M20.3921 46.963L20.3921 43.7957L17.2662 43.7957L17.2662 46.963L20.3921 46.963Z" fill="#231F20"/>
</svg>
