<svg width="300" height="150" viewBox="0 0 300 150" fill="none" xmlns="http://www.w3.org/2000/svg">
<g clip-path="url(#clip0_74_2822)">
<path d="M0.53125 0H300V150H0.53125V0Z" fill="#777777"/>
<path fill-rule="evenodd" clip-rule="evenodd" d="M265.11 -53.2227L251.402 -30.194L266.431 -33.3954L273.989 -29.3447L305.265 -81.8847L236.447 -67.2257L239.713 -49.3505L238.974 -48.1097L239.581 -47.7846L265.11 -53.2227ZM138.583 11.1646L121.237 39.8163L103.809 30.3008L121.155 1.64906L138.583 11.1646ZM103.891 68.468L86.4632 58.9524L69.1173 87.6041L86.5451 97.1197L103.891 68.468ZM69.1992 125.771L51.7715 116.256L34.4256 144.908L51.8533 154.423L69.1992 125.771ZM152.937 135.219L170.445 144.601L187.702 115.61L170.195 106.228L152.937 135.219ZM187.452 77.2368L204.71 48.2458L222.217 57.6283L204.96 86.6194L187.452 77.2368ZM221.967 19.2548L239.475 28.6373L256.732 -0.353686L239.224 -9.73621L221.967 19.2548ZM135.68 164.21L153.188 173.592L139.61 196.402L104.713 202.848L101.747 183.379L127.051 178.705L135.68 164.21ZM51.9207 192.582L25.8345 197.401L39.4783 174.864L24.5272 177.625L17.0797 173.559L-13.9171 224.759L54.1048 212.195L51.2823 193.669L51.9352 192.59L51.9207 192.582ZM155.929 -17.4871L138.501 -27.0026L151.956 -49.2279L186.193 -56.5208L189.729 -37.1654L164.601 -31.8129L155.929 -17.4871Z" fill="white"/>
</g>
<defs>
<clipPath id="clip0_74_2822">
<rect width="300" height="150" fill="white"/>
</clipPath>
</defs>
</svg>
