<svg width="150" height="300" viewBox="0 0 150 300" fill="none" xmlns="http://www.w3.org/2000/svg">
<g clip-path="url(#clip0_74_3021)">
<path d="M150 299.469L150 3.05176e-05L3.57113e-06 2.87288e-05L0 299.469L150 299.469Z" fill="#777777"/>
<path d="M105 93.8526V92.7348H104.053L66.4899 63.1906L66.3321 32.5285C66.3321 31.2509 42.5 73.4112 42.5 73.4112L66.6478 114.294L66.4899 87.305L93.3207 108.545L93.7942 107.906V183.763H79.5896V159.808H62.2285V217.3H79.5896V194.942H93.7942V270H104.842V195.261V184.082L105 93.8526Z" fill="white"/>
</g>
<defs>
<clipPath id="clip0_74_3021">
<rect width="300" height="150" fill="white" transform="matrix(1.19249e-08 -1 -1 -1.19249e-08 150 300)"/>
</clipPath>
</defs>
</svg>
