<svg width="150" height="300" viewBox="0 0 150 300" fill="none" xmlns="http://www.w3.org/2000/svg">
<g clip-path="url(#clip0_74_3014)">
<path d="M150 299.469L150 3.05176e-05L3.57113e-06 2.87288e-05L0 299.469L150 299.469Z" fill="#777777"/>
<path d="M35 82.1481L59.4922 10L80.7617 82.7894L64.9707 82.6291V152.052L93.0078 130.087L93.1689 99.3033C93.1689 98.0207 117.5 140.348 117.5 140.348L92.8467 181.392L93.0078 154.136L65.6152 175.62L65.1318 174.979V237.988H78.0225V213.939H97.3584V270.054H78.0225V249.211H65.1318V292.5H52.2412V249.532V238.309V82.1481H35Z" fill="white"/>
</g>
<defs>
<clipPath id="clip0_74_3014">
<rect width="300" height="150" fill="white" transform="matrix(1.19249e-08 -1 -1 -1.19249e-08 150 300)"/>
</clipPath>
</defs>
</svg>
