<svg width="150" height="300" viewBox="0 0 150 300" fill="none" xmlns="http://www.w3.org/2000/svg">
<g clip-path="url(#clip0_74_2983)">
<path d="M150 299.469L150 3.05176e-05L3.57113e-06 2.87288e-05L0 299.469L150 299.469Z" fill="#777777"/>
<path d="M132.5 71.0709C132.5 71.0709 107.96 28.9106 107.96 30.1882L107.797 60.6906L73.9938 86.7214L39.7026 60.2115L39.5401 30.0285C39.5401 28.7509 15 70.9112 15 70.9112L39.8652 111.794L39.7026 84.1662L67.9806 105.885V267.5H80.982V105.246L107.635 84.6453L107.472 111.794L132.5 71.0709Z" fill="white"/>
</g>
<defs>
<clipPath id="clip0_74_2983">
<rect width="300" height="150" fill="white" transform="matrix(1.19249e-08 -1 -1 -1.19249e-08 150 300)"/>
</clipPath>
</defs>
</svg>
