<svg width="300" height="150" viewBox="0 0 300 150" fill="none" xmlns="http://www.w3.org/2000/svg">
<g clip-path="url(#clip0_76_3178)">
<path d="M299.469 0H3.05176e-05V150H299.469V0Z" fill="#777777"/>
<path d="M172.689 117.626C172.91 118.693 173.02 119.566 173.02 120.245C173.048 120.875 172.951 121.36 172.731 121.7C172.51 122.039 172.138 122.258 171.615 122.355C171.119 122.452 170.444 122.5 169.589 122.5C168.735 122.5 168.046 122.452 167.523 122.355C167.027 122.306 166.641 122.209 166.365 122.064C166.117 121.87 165.924 121.627 165.787 121.336C165.676 121.045 165.566 120.681 165.456 120.245L160.868 97.3316H138.631L134.249 119.954C134.167 120.391 134.056 120.778 133.919 121.118C133.781 121.409 133.574 121.676 133.299 121.918C133.051 122.112 132.679 122.258 132.183 122.355C131.714 122.452 131.094 122.5 130.323 122.5C129.524 122.5 128.862 122.427 128.339 122.282C127.843 122.185 127.484 121.967 127.264 121.627C127.071 121.288 126.975 120.803 126.975 120.172C127.002 119.493 127.126 118.62 127.347 117.554L145.285 30.1187C145.396 29.5852 145.533 29.1488 145.699 28.8093C145.892 28.4699 146.153 28.2032 146.484 28.0092C146.842 27.8152 147.283 27.694 147.807 27.6455C148.358 27.5485 149.047 27.5 149.873 27.5C150.755 27.5 151.485 27.5485 152.064 27.6455C152.643 27.694 153.111 27.8152 153.469 28.0092C153.828 28.2032 154.103 28.4941 154.296 28.8821C154.489 29.2215 154.64 29.658 154.751 30.1914L172.689 117.626ZM149.667 40.4479H149.625L140.408 87.366H159.008L149.667 40.4479Z" fill="white"/>
</g>
<defs>
<clipPath id="clip0_76_3178">
<rect width="300" height="150" fill="white" transform="matrix(-1 0 0 1 300 0)"/>
</clipPath>
</defs>
</svg>
