<svg width="300" height="150" viewBox="0 0 300 150" fill="none" xmlns="http://www.w3.org/2000/svg">
<g clip-path="url(#clip0_75_3162)">
<path d="M299.469 0H3.05176e-05V150H299.469V0Z" fill="#777777"/>
<path d="M130.129 102.027C130.129 102.59 130.098 103.091 130.036 103.529C129.973 103.935 129.864 104.279 129.707 104.561C129.551 104.842 129.363 105.046 129.144 105.171C128.956 105.296 128.737 105.358 128.487 105.358H99.3487C98.6292 105.358 97.941 105.124 97.2841 104.655C96.6585 104.154 96.3457 103.294 96.3457 102.074V47.9261C96.3457 46.7061 96.6585 45.8615 97.2841 45.3923C97.941 44.8918 98.6292 44.6415 99.3487 44.6415H128.159C128.409 44.6415 128.628 44.7041 128.816 44.8292C129.035 44.9543 129.207 45.1577 129.332 45.4392C129.457 45.7207 129.551 46.0805 129.613 46.5184C129.707 46.9251 129.754 47.4412 129.754 48.0668C129.754 48.6299 129.707 49.1304 129.613 49.5683C129.551 49.975 129.457 50.3191 129.332 50.6006C129.207 50.8509 129.035 51.0385 128.816 51.1637C128.628 51.2888 128.409 51.3514 128.159 51.3514H104.416V70.4017H124.78C125.031 70.4017 125.25 70.4799 125.437 70.6363C125.656 70.7614 125.828 70.9491 125.953 71.1993C126.11 71.4496 126.219 71.7937 126.282 72.2316C126.344 72.6695 126.376 73.1857 126.376 73.78C126.376 74.3431 126.344 74.828 126.282 75.2346C126.219 75.6413 126.11 75.9697 125.953 76.22C125.828 76.4702 125.656 76.6579 125.437 76.783C125.25 76.8769 125.031 76.9238 124.78 76.9238H104.416V98.6486H128.487C128.737 98.6486 128.956 98.7112 129.144 98.8363C129.363 98.9615 129.551 99.1648 129.707 99.4463C129.864 99.6966 129.973 100.041 130.036 100.479C130.098 100.885 130.129 101.401 130.129 102.027Z" fill="white"/>
<path d="M203.654 89.7804C203.654 92.408 203.185 94.7541 202.247 96.8187C201.308 98.852 199.947 100.572 198.164 101.98C196.413 103.388 194.239 104.451 191.642 105.171C189.046 105.89 186.074 106.25 182.727 106.25C179.599 106.25 176.799 105.922 174.328 105.265C171.857 104.608 169.761 103.638 168.041 102.355C166.32 101.073 165.006 99.4932 164.099 97.6164C163.192 95.7395 162.738 93.5967 162.738 91.1881C162.738 89.2799 163.051 87.5282 163.677 85.9328C164.302 84.3375 165.194 82.8672 166.351 81.5221C167.54 80.1771 168.995 78.9258 170.715 77.7684C172.436 76.5797 174.375 75.4536 176.533 74.39C174.657 73.4203 172.999 72.4037 171.56 71.3401C170.121 70.2452 168.901 69.0722 167.9 67.8209C166.899 66.5384 166.132 65.1777 165.601 63.7387C165.1 62.2998 164.85 60.7357 164.85 59.0465C164.85 56.9194 165.225 54.9331 165.976 53.0875C166.758 51.2106 167.915 49.584 169.448 48.2076C171.012 46.8312 172.983 45.752 175.36 44.97C177.769 44.1567 180.569 43.75 183.759 43.75C186.825 43.75 189.468 44.1254 191.689 44.8761C193.941 45.5956 195.787 46.5966 197.226 47.8791C198.696 49.1304 199.775 50.6162 200.464 52.3367C201.152 54.0572 201.496 55.9028 201.496 57.8735C201.496 59.4688 201.23 61.0016 200.698 62.4718C200.198 63.9421 199.447 65.3341 198.446 66.6479C197.445 67.9617 196.209 69.1973 194.739 70.3547C193.3 71.4809 191.642 72.5444 189.765 73.5454C191.986 74.6403 193.957 75.7664 195.678 76.9238C197.429 78.0812 198.884 79.3325 200.041 80.6776C201.23 81.9914 202.122 83.399 202.716 84.9005C203.341 86.3707 203.654 87.9974 203.654 89.7804ZM193.519 58.6242C193.519 57.3104 193.285 56.1217 192.815 55.0582C192.377 53.9946 191.72 53.0875 190.845 52.3367C189.969 51.586 188.874 51.0229 187.56 50.6475C186.278 50.2409 184.807 50.0375 183.149 50.0375C179.771 50.0375 177.206 50.8039 175.454 52.3367C173.734 53.8695 172.873 55.9653 172.873 58.6242C172.873 59.8442 173.077 60.986 173.483 62.0495C173.921 63.0818 174.578 64.0672 175.454 65.0056C176.361 65.9441 177.487 66.8669 178.833 67.774C180.209 68.6499 181.836 69.5727 183.712 70.5424C186.872 68.9158 189.296 67.1171 190.985 65.1464C192.675 63.1757 193.519 61.0016 193.519 58.6242ZM195.49 90.625C195.49 89.1861 195.224 87.8879 194.692 86.7305C194.16 85.5418 193.347 84.4469 192.252 83.4459C191.189 82.4137 189.844 81.4283 188.217 80.4899C186.622 79.5201 184.76 78.5191 182.633 77.4869C180.663 78.4566 178.926 79.4263 177.425 80.396C175.955 81.3657 174.735 82.3667 173.765 83.399C172.827 84.4313 172.107 85.5261 171.607 86.6836C171.137 87.8097 170.903 89.0609 170.903 90.4373C170.903 93.4716 171.935 95.8177 174 97.4756C176.095 99.1335 179.208 99.9625 183.337 99.9625C187.341 99.9625 190.36 99.1335 192.393 97.4756C194.458 95.7864 195.49 93.5029 195.49 90.625Z" fill="white"/>
</g>
<defs>
<clipPath id="clip0_75_3162">
<rect width="300" height="150" fill="white" transform="matrix(-1 0 0 1 300 0)"/>
</clipPath>
</defs>
</svg>
