<svg width="110" height="104" viewBox="0 0 110 104" fill="none" xmlns="http://www.w3.org/2000/svg">
<path fill-rule="evenodd" clip-rule="evenodd" d="M0 0H110V104H0V0ZM2 2V102H108V2H2Z" fill="white"/>
<path d="M2 2H108V102H2V2Z" fill="#B2B3B7"/>
<path d="M20 9H90V15H20V9Z" fill="white"/>
<path d="M20 19H90V25H20V19Z" fill="white"/>
<path d="M20 29H90V35H20V29Z" fill="white"/>
<path d="M20 39H90V45H20V39Z" fill="white"/>
<path d="M20 49H90V55H20V49Z" fill="white"/>
<path d="M20 59H90V65H20V59Z" fill="white"/>
<path d="M20 69H90V75H20V69Z" fill="white"/>
<path d="M20 79H90V85H20V79Z" fill="white"/>
<path d="M20 89H90V95H20V89Z" fill="white"/>
</svg>
