<svg width="112" height="107" viewBox="0 0 112 107" fill="none" xmlns="http://www.w3.org/2000/svg">
<path d="M0 107L-4.67712e-06 -6.10352e-05L46.1754 -6.30535e-05L46.1754 107L0 107Z" fill="white"/>
<path d="M3.92969 107L3.92968 -6.10352e-05L54.0349 -6.32253e-05L54.035 107L3.92969 107Z" fill="#B2B3B7"/>
<path d="M64.9192 107L64.9192 -6.10352e-05L112 -6.30931e-05L112 107L64.9192 107Z" fill="white"/>
<path d="M52.0703 107L52.0703 -6.10352e-05L108.07 -6.3483e-05L108.07 107L52.0703 107Z" fill="#B2B3B7"/>
<path d="M54.0352 107L54.0352 -6.10352e-05L55.5088 -6.10996e-05L55.5088 107L54.0352 107Z" fill="#F3F3F3"/>
<path d="M56.4913 107L57.965 107L57.965 -6.12069e-05L56.4913 -6.11425e-05L56.4913 107Z" fill="#F3F3F3"/>
</svg>
