<svg width="116" height="119" viewBox="0 0 116 119" fill="none" xmlns="http://www.w3.org/2000/svg">
<path fill-rule="evenodd" clip-rule="evenodd" d="M56 0H0V110.5V119H0.334259H55H56C56 116.026 56.331 113.047 57.098 110.174C67.2676 72.0808 84.7798 64.1938 116 60V4H106.5C86.5835 4 71.9439 9.46704 56 18.9823V0Z" fill="#B2B3B7"/>
<path d="M23 22L23 8L26 8L26 22L23 22Z" fill="#D9D9D9"/>
<path fill-rule="evenodd" clip-rule="evenodd" d="M44.8673 23.6353L43.7086 22.0051C40.3965 24.3594 37.2224 26.8949 34.2006 29.5971L35.5338 31.0879C38.5002 28.4352 41.6161 25.9463 44.8673 23.6353ZM27.0879 39.5338L25.5971 38.2006C22.8949 41.2223 20.3594 44.3965 18.0051 47.7086L19.6353 48.8673C21.9463 45.6161 24.4352 42.5002 27.0879 39.5338ZM13.2711 58.9753L11.5215 58.0063C9.5625 61.5434 7.79525 65.2016 6.23383 68.9669L8.08128 69.7331C9.61373 66.0376 11.3483 62.4471 13.2711 58.9753ZM4.1371 81.005L2.21503 80.4522C1.34722 83.4694 0.606815 86.5405 0 89.6591L0 92.4005L1.48903 92.6518C2.15735 88.691 3.04432 84.8044 4.1371 81.005Z" fill="white"/>
<path d="M103 32.5001C80.5001 31.6668 27.5001 59.5012 27.5001 113.001" stroke="#D9D9D9" stroke-width="4" stroke-dasharray="16 12"/>
</svg>
