<svg width="180" height="180" viewBox="0 0 180 180" fill="none" xmlns="http://www.w3.org/2000/svg">
<path d="M156 90C156 126.451 126.451 156 90 156C53.5492 156 24 126.451 24 90C24 53.5492 53.5492 24 90 24C126.451 24 156 53.5492 156 90Z" fill="#B2B3B7"/>
<path d="M62 0H118V32H62V0Z" fill="#B2B3B7"/>
<path d="M62 148H118V180H62V148Z" fill="#B2B3B7"/>
<path d="M180 62V118H148V62H180Z" fill="#B2B3B7"/>
<path d="M32 62L32 118H0L2.38419e-06 62H32Z" fill="#B2B3B7"/>
<path d="M126 90C126 109.882 109.882 126 90 126C70.1177 126 54 109.882 54 90C54 70.1177 70.1177 54 90 54C109.882 54 126 70.1177 126 90Z" fill="#B2B3B7"/>
<path d="M92 8L92 25L88 25L88 8L92 8Z" fill="#D9D9D9"/>
<path d="M92 155L92 172L88 172L88 155L92 155Z" fill="#D9D9D9"/>
<path d="M172 92L155 92L155 88L172 88L172 92Z" fill="#D9D9D9"/>
<path d="M25 92L8 92L8 88L25 88L25 92Z" fill="#D9D9D9"/>
<path fill-rule="evenodd" clip-rule="evenodd" d="M128 90C128 110.987 110.987 128 90 128C69.0132 128 52 110.987 52 90C52 69.0132 69.0132 52 90 52C110.987 52 128 69.0132 128 90ZM90 126C109.882 126 126 109.882 126 90C126 70.1177 109.882 54 90 54C70.1177 54 54 70.1177 54 90C54 109.882 70.1177 126 90 126Z" fill="#D9D9D9"/>
</svg>
