<svg width="181" height="181" viewBox="0 0 181 181" fill="none" xmlns="http://www.w3.org/2000/svg">
<path d="M51 63.0001C57.6274 63.0001 62 57.3517 62 50.7243V6.10352e-05L118 0V50.7242C118 57.3516 123.188 63.0001 129.815 63.0001H181V119H129.815C123.188 119 118 123.373 118 130V181H62V130C62 123.373 57.6274 119 51 119H0V63.0001H51Z" fill="#B2B3B7"/>
<path d="M88.5 27L88.5 10L92.5 10L92.5 27L88.5 27Z" fill="#D9D9D9"/>
<path d="M88.5 56L88.5 39L92.5 39L92.5 56L88.5 56Z" fill="#D9D9D9"/>
<path d="M88.5 142L88.5 125L92.5 125L92.5 142L88.5 142Z" fill="#D9D9D9"/>
<path d="M88.5 171L88.5 154L92.5 154L92.5 171L88.5 171Z" fill="#D9D9D9"/>
<path d="M153.5 88.5L170.5 88.5V92.5L153.5 92.5V88.5Z" fill="#D9D9D9"/>
<path d="M124.5 88.5L141.5 88.5V92.5L124.5 92.5L124.5 88.5Z" fill="#D9D9D9"/>
<path d="M39.5 88.5L56.5 88.5L56.5 92.5L39.5 92.5L39.5 88.5Z" fill="#D9D9D9"/>
<path d="M10.5 88.5L27.5 88.5L27.5 92.5L10.5 92.5L10.5 88.5Z" fill="#D9D9D9"/>
</svg>
