<svg width="157" height="70" viewBox="0 0 157 70" fill="none" xmlns="http://www.w3.org/2000/svg">
<path d="M111.322 63.3701C118.795 63.0844 144.199 58.6692 147.955 56.926C151.711 55.1685 154.523 51.4106 155.938 46.4238C157.354 41.4371 157.354 29.8633 155.938 24.8766C154.523 19.8898 151.711 16.1176 147.955 14.3744C144.199 12.6169 118.795 8.21603 111.322 7.93026C82.4452 6.80145 7.59312 7.91596 3.59195 8.18744C-0.39035 8.45893 0.534454 10.0735 0.534454 10.0735L0.534453 35.6502L0.534452 61.2268C0.534452 61.2268 -0.409228 62.8415 3.59195 63.1129C7.59312 63.3844 82.4452 64.4989 111.322 63.3701Z" fill="#CECDB6"/>
<path d="M102.923 59.055L102.923 10.8022L4.55446 10.8022L4.55446 59.055L102.923 59.055Z" fill="#E2E0C9"/>
<path d="M102.923 53.4109L102.923 17.2178L4.55446 17.2178L4.55446 53.4109L102.923 53.4109Z" fill="white"/>
<path d="M132.63 53.7395C137.084 52.0963 138.896 36.1645 139.028 34.9642C139.028 34.9642 139.028 34.9499 139.028 34.9214C139.028 34.8928 139.028 34.8785 139.028 34.8785C138.896 33.6783 137.084 17.7464 132.63 16.1033C125.703 13.5456 105.66 10.3163 102.168 10.845C102.168 10.845 100.62 17.475 100.809 17.475L100.79 34.8642L100.79 34.9071L100.79 34.9357L100.809 52.3249C100.62 52.3249 102.168 58.9549 102.168 58.9549C105.641 59.5407 125.703 56.3115 132.63 53.7395Z" fill="#385459"/>
<path d="M132.63 53.7395C137.084 52.0963 138.896 36.1645 139.028 34.9642C139.028 34.9642 139.028 34.9499 139.028 34.9214C139.028 34.8928 139.028 34.8785 139.028 34.8785C138.896 33.6783 137.084 17.7464 132.63 16.1033C125.703 13.5456 105.66 10.3163 102.168 10.845C102.168 10.845 102.074 11.2594 101.923 11.8738C108.944 12.4168 123.306 14.8458 128.949 16.8605C133.404 18.4466 135.215 33.7211 135.347 34.8785C135.347 34.8785 135.347 34.8928 135.347 34.9214C135.347 34.9499 135.347 34.9642 135.347 34.9642C135.215 36.1216 133.404 51.4105 128.949 52.9822C123.306 54.9826 108.944 57.4117 101.923 57.9689C102.055 58.5834 102.168 58.9977 102.168 58.9977C105.641 59.5407 125.703 56.3115 132.63 53.7395Z" fill="#40413C"/>
<path d="M154.051 20.3184C154.051 20.3184 153.768 21.3186 151.635 21.7186C149.502 22.1187 147.37 21.7186 147.37 21.7186C147.37 21.7186 149.031 31.292 149.295 35.3214C149.71 41.6084 147.37 50.1387 147.37 50.1387C147.37 50.1387 149.502 48.9099 151.446 49.3243C153.428 49.7387 154.051 50.9818 154.051 50.9818C154.051 50.9818 156.901 48.3955 156.976 37.3361C157.071 24.2763 154.051 20.3184 154.051 20.3184Z" fill="#40413C"/>
<path d="M154.051 20.3183C154.051 20.3183 153.881 18.0893 152.183 16.4604C150.484 14.8458 147.955 14.3743 147.955 14.3743C147.955 14.3743 147.389 15.8317 146.219 16.2889C145.048 16.7319 141.311 17.2177 141.311 17.2177C141.311 17.2177 144.935 20.9185 147.389 21.7186C153.07 23.5619 154.051 20.3183 154.051 20.3183Z" fill="#95968D"/>
<path d="M154.051 20.3183C154.051 20.3183 153.881 18.0893 152.183 16.4604C150.484 14.8458 147.955 14.3743 147.955 14.3743C147.955 14.3743 147.389 15.8317 146.219 16.2889C145.048 16.7319 141.311 17.2177 141.311 17.2177C141.311 17.2177 144.935 20.9185 147.389 21.7186C153.07 23.5619 154.051 20.3183 154.051 20.3183ZM147.955 21.1042C145.935 20.4469 142.972 17.4177 142.972 17.4177C142.972 17.4177 146.049 17.0177 146.992 16.6462C147.936 16.2747 148.408 15.0887 148.408 15.0887C148.408 15.0887 150.484 15.4745 151.881 16.8033C153.277 18.1322 153.409 19.9611 153.409 19.9611C153.409 19.9611 152.598 22.6045 147.955 21.1042Z" fill="#385459"/>
<path d="M154.051 51.039C154.051 51.039 153.881 53.268 152.183 54.8969C150.484 56.5115 147.955 56.983 147.955 56.983C147.955 56.983 147.389 55.5256 146.219 55.0684C145.048 54.6254 141.311 54.1396 141.311 54.1396C141.311 54.1396 144.935 50.4388 147.389 49.6387C153.07 47.7954 154.051 51.039 154.051 51.039Z" fill="#95968D"/>
<path d="M147.37 49.6387C144.897 50.4388 141.293 54.1396 141.293 54.1396C141.293 54.1396 145.048 54.6254 146.2 55.0684C147.37 55.5113 147.936 56.983 147.936 56.983C147.936 56.983 150.465 56.5115 152.164 54.8969C153.862 53.2823 154.032 51.039 154.032 51.039C154.032 51.039 153.07 47.7954 147.37 49.6387ZM153.409 51.3962C153.409 51.3962 153.258 53.2251 151.881 54.554C150.484 55.8828 148.408 56.2686 148.408 56.2686C148.408 56.2686 147.936 55.0684 146.992 54.7111C146.049 54.3396 142.972 53.9396 142.972 53.9396C142.972 53.9396 145.936 50.9104 147.955 50.2674C152.598 48.7528 153.409 51.3962 153.409 51.3962Z" fill="#385459"/>
<path d="M13.3496 25.448C10.9338 25.448 8.9709 23.962 8.9709 22.1331C8.9709 20.3041 10.9338 18.8181 13.3496 18.8181C15.7654 18.8181 17.7282 20.3041 17.7282 22.1331C17.7093 23.9763 15.7654 25.448 13.3496 25.448Z" fill="#40413C"/>
<path d="M12.5716 24.4266C14.239 24.7456 15.9323 23.9809 16.3537 22.7185C16.775 21.4562 15.7649 20.1742 14.0975 19.8552C12.4301 19.5362 10.7368 20.3009 10.3154 21.5633C9.89404 22.8257 10.9042 24.1076 12.5716 24.4266Z" fill="#4848CC"/>
<path d="M13.7269 21.6901C14.3686 21.9187 14.8971 22.5188 15.4633 22.7903L15.5765 22.4474C15.9917 20.1326 11.4432 19.3753 11.6131 21.9187C12.5002 21.8616 12.7644 21.3615 13.7269 21.6901Z" fill="#2974E2"/>
<path d="M13.3496 52.2393C10.9338 52.2393 8.9709 50.7533 8.9709 48.9243C8.9709 47.0954 10.9338 45.6094 13.3496 45.6094C15.7654 45.6094 17.7282 47.0954 17.7282 48.9243C17.7093 50.7676 15.7654 52.2393 13.3496 52.2393Z" fill="#40413C"/>
<path d="M13.3495 51.2963C11.632 51.2963 10.2354 50.2389 10.2354 48.9387C10.2354 47.6384 11.632 46.5811 13.3495 46.5811C15.067 46.5811 16.4636 47.6384 16.4636 48.9387C16.4636 50.2389 15.067 51.2963 13.3495 51.2963Z" fill="#4848CC"/>
<path d="M13.7269 48.4814C14.3686 48.71 14.8971 49.3101 15.4633 49.5816L15.5765 49.2387C15.9917 46.9239 11.4432 46.1666 11.6131 48.71C12.5002 48.6528 12.7644 48.1527 13.7269 48.4814Z" fill="#2974E2"/>
<path d="M7.66865 29.2631C7.17793 29.2631 6.7816 28.963 6.7816 28.5915C6.7816 28.22 7.17793 27.9199 7.66865 27.9199L87.8808 27.9199C88.3715 27.9199 88.7678 28.22 88.7678 28.5915C88.7678 28.963 88.3715 29.2631 87.8808 29.2631L7.66865 29.2631Z" fill="#E2E0C9"/>
<path d="M7.66865 36.5931C7.17793 36.5931 6.7816 36.2931 6.7816 35.9216C6.7816 35.5501 7.17793 35.25 7.66865 35.25L87.8808 35.25C88.3715 35.25 88.7678 35.5501 88.7678 35.9216C88.7678 36.2931 88.3715 36.5931 87.8808 36.5931L7.66865 36.5931Z" fill="#E2E0C9"/>
<path d="M7.66865 43.9376C7.17793 43.9376 6.7816 43.6376 6.7816 43.266C6.7816 42.8945 7.17793 42.5945 7.66865 42.5945L87.8808 42.5945C88.3715 42.5945 88.7678 42.8945 88.7678 43.2661C88.7678 43.6376 88.3715 43.9376 87.8808 43.9376L7.66865 43.9376Z" fill="#E2E0C9"/>
<path d="M88.8999 51.0103C87.7297 51.0103 86.7672 50.2816 86.7672 49.3957L86.7672 22.5331C86.7672 21.6472 87.7297 20.9185 88.8999 20.9185L94.2788 20.9185C95.449 20.9185 96.4115 21.6472 96.4115 22.5331L96.4115 49.3957C96.4115 50.2816 95.449 51.0103 94.2788 51.0103L88.8999 51.0103Z" fill="#4848CC"/>
<path d="M94.9395 49.8528L94.9395 22.2043L93.0332 22.2043L93.0332 49.8528L94.9395 49.8528Z" fill="#2974E2"/>
<path d="M96.4116 40.8653L96.4116 31.0776L86.7673 31.0776L86.7673 40.8653L96.4116 40.8653Z" fill="#385459"/>
<path d="M60.6464 47.0096C59.4762 47.0096 58.5137 46.2809 58.5137 45.395L58.5137 26.2911C58.5137 25.4052 59.4762 24.6765 60.6464 24.6765L74.6882 24.6765C75.8584 24.6765 76.8209 25.4052 76.8209 26.2911L76.8209 45.3807C76.8209 46.2666 75.8584 46.9953 74.6882 46.9953L60.6464 46.9953L60.6464 47.0096Z" fill="#385459"/>
<path d="M69.3469 40.2081L69.3469 37.1075L73.4424 37.1075L73.4424 34.5784L69.3469 34.5784L69.3469 31.4778L65.9874 31.4778L65.9874 34.5784L61.8919 34.5784L61.8919 37.1075L65.9874 37.1075L65.9874 40.2081L69.3469 40.2081Z" fill="#F71E1E"/>
<path d="M145.935 40.3939L145.935 37.3076L148.427 37.3076L148.427 34.7642L145.935 34.7642L145.935 31.6636L143.897 31.6636L143.897 34.7642L141.425 34.7642L141.425 37.3076L143.897 37.3076L143.897 40.3939L145.935 40.3939Z" fill="#F71E1E"/>
<path d="M149.635 15.9175C149.71 15.9603 149.804 16.0032 149.899 16.0604L150.069 16.0175C149.918 15.9746 149.786 15.9318 149.635 15.9175Z" fill="#CECDB6"/>
<path d="M151.258 20.3184C154.013 19.9469 151.371 16.9035 149.899 16.0461L149.352 16.189C148.71 17.3035 146.973 17.1892 148.257 18.6181C148.861 19.2754 150.088 20.4899 151.258 20.3184Z" fill="#CECDB6"/>
<path d="M149.238 54.9684C150.069 54.1253 151.277 53.811 151.579 52.6107C151.937 51.1962 151.05 50.1245 149.106 50.7675C148.125 51.0961 146.426 52.1535 146.256 52.9965C146.067 53.911 148.125 54.554 149.106 55.0684L149.238 54.9684Z" fill="#CECDB6"/>
<path opacity="0.2" d="M134.404 40.8513L111.057 31.0779L111.057 33.2926L133.366 45.2951L134.404 40.8513Z" fill="#CECDB6"/>
<path opacity="0.2" d="M134.328 28.5772L106.075 20.3184L134.876 31.6635L134.328 28.5772Z" fill="#CECDB6"/>
<path opacity="0.2" d="M131.516 50.2103L110.359 41.78L108.811 43.9376L129.308 52.8251L131.516 50.2103Z" fill="#CECDB6"/>
<path d="M100.035 17.2178C100.035 17.2178 115.172 17.8608 114.587 35.2786C114.002 52.6964 100.035 53.4109 100.035 53.4109L100.035 17.2178Z" fill="white"/>
<path d="M105.754 57.7261L108.491 62.1841L108.113 70L106.679 69.8L107.32 62.5842L103.659 58.6263L105.754 57.7261Z" fill="#40413C"/>
<path d="M105.754 12.2739L108.491 7.81588L108.113 -1.64997e-08L106.679 0.20004L107.32 7.41579L103.659 11.3737L105.754 12.2739Z" fill="#40413C"/>
</svg>
