<svg width="181" height="180" viewBox="0 0 181 180" fill="none" xmlns="http://www.w3.org/2000/svg">
<path fill-rule="evenodd" clip-rule="evenodd" d="M181 0H0V58.5203V62L4.85019e-06 114H53.5889C58.0072 114 63 117.582 63 122L63 180H119V122C119 117.582 122.582 114 127 114L181 114L181 62V58.5203V0Z" fill="#B2B3B7"/>
<path d="M92.5 137L92.5 120H88.5L88.5 137H92.5Z" fill="#D9D9D9"/>
<path d="M92.5 166V149H88.5V166H92.5Z" fill="#D9D9D9"/>
<path d="M85 24L68 24L68 28L85 28L85 24Z" fill="#D9D9D9"/>
<path d="M56 24L39 24L39 28L56 28L56 24Z" fill="#D9D9D9"/>
<path d="M27 24L10 24L10 28L27 28L27 24Z" fill="#D9D9D9"/>
<path d="M85 56L68 56L68 60L85 60L85 56Z" fill="#D9D9D9"/>
<path d="M56 56L39 56L39 60L56 60L56 56Z" fill="#D9D9D9"/>
<path d="M27 56L10 56L10 60L27 60L27 56Z" fill="#D9D9D9"/>
<path d="M85 88L68 88L68 92L85 92L85 88Z" fill="#D9D9D9"/>
<path d="M56 88L39 88L39 92L56 92L56 88Z" fill="#D9D9D9"/>
<path d="M27 88L10 88L10 92L27 92L27 88Z" fill="#D9D9D9"/>
<path d="M172 24L155 24L155 28L172 28L172 24Z" fill="#D9D9D9"/>
<path d="M143 24L126 24L126 28L143 28L143 24Z" fill="#D9D9D9"/>
<path d="M114 24L97 24L97 28L114 28L114 24Z" fill="#D9D9D9"/>
<path d="M172 56L155 56L155 60L172 60L172 56Z" fill="#D9D9D9"/>
<path d="M143 56L126 56L126 60L143 60L143 56Z" fill="#D9D9D9"/>
<path d="M114 56L97 56L97 60L114 60L114 56Z" fill="#D9D9D9"/>
<path d="M172 88L155 88L155 92L172 92L172 88Z" fill="#D9D9D9"/>
<path d="M143 88L126 88L126 92L143 92L143 88Z" fill="#D9D9D9"/>
<path d="M114 88L97 88L97 92L114 92L114 88Z" fill="#D9D9D9"/>
</svg>
