<svg width="320" height="323" viewBox="0 0 320 323" fill="none" xmlns="http://www.w3.org/2000/svg">
<path d="M276.854 -6.10352e-05H44.1362V44.9999H0V277H44.1362V323H276.854V277H320V44.9999H276.854V-6.10352e-05Z" fill="#B2B3B7"/>
<rect width="88.2724" height="232" transform="translate(319.987 277) rotate(-180)" fill="#B2B3B7"/>
<path d="M259.487 218L242.487 218L242.487 222L259.487 222L259.487 218Z" fill="#D9D9D9"/>
<path d="M284.487 218L267.487 218L267.487 222L284.487 222L284.487 218Z" fill="#D9D9D9"/>
<path d="M309.487 218L292.487 218L292.487 222L309.487 222L309.487 218Z" fill="#D9D9D9"/>
<path d="M231.987 159L319.987 159L319.987 160.5L231.987 160.5L231.987 159Z" fill="#F3F3F3"/>
<path d="M231.987 161.5L231.987 163L319.987 163L319.987 161.5L231.987 161.5Z" fill="#F3F3F3"/>
<path d="M292.487 104L309.487 104L309.487 99.9999L292.487 99.9999L292.487 104Z" fill="#D9D9D9"/>
<path d="M267.487 104L284.487 104L284.487 99.9999L267.487 99.9999L267.487 104Z" fill="#D9D9D9"/>
<path d="M242.487 104L259.487 104L259.487 99.9999L242.487 99.9999L242.487 104Z" fill="#D9D9D9"/>
<path d="M319.987 163L231.987 163L231.987 161.5L319.987 161.5L319.987 163Z" fill="#F3F3F3"/>
<path d="M319.987 160.5L319.987 159L231.987 159L231.987 160.5L319.987 160.5Z" fill="#F3F3F3"/>
<rect width="88" height="232.718" transform="translate(276.854 -6.10352e-05) rotate(90)" fill="#B2B3B7"/>
<path d="M217.854 60.5L217.854 77.5L221.854 77.5L221.854 60.5L217.854 60.5Z" fill="#D9D9D9"/>
<path d="M217.854 35.5L217.854 52.5L221.854 52.5L221.854 35.5L217.854 35.5Z" fill="#D9D9D9"/>
<path d="M217.854 10.5L217.854 27.5L221.854 27.5L221.854 10.5L217.854 10.5Z" fill="#D9D9D9"/>
<path d="M158.854 88L158.854 -4.57764e-05L160.354 -4.56631e-05L160.354 88L158.854 88Z" fill="#F3F3F3"/>
<path d="M161.354 88L162.854 88L162.854 -4.54742e-05L161.354 -4.55875e-05L161.354 88Z" fill="#F3F3F3"/>
<path d="M103.854 27.4999L103.854 10.4999L99.8545 10.4999L99.8545 27.4999L103.854 27.4999Z" fill="#D9D9D9"/>
<path d="M103.854 52.4999L103.854 35.4999L99.8545 35.4999L99.8545 52.4999L103.854 52.4999Z" fill="#D9D9D9"/>
<path d="M103.854 77.4999L103.854 60.4999L99.8545 60.4999L99.8545 77.4999L103.854 77.4999Z" fill="#D9D9D9"/>
<path d="M162.854 -6.10352e-05L162.854 88L161.354 88L161.354 -6.12796e-05L162.854 -6.10352e-05Z" fill="#F3F3F3"/>
<path d="M160.354 -6.14425e-05L158.854 -6.1687e-05L158.854 88L160.354 88L160.354 -6.14425e-05Z" fill="#F3F3F3"/>
<rect width="88" height="232.718" transform="translate(44.3501 323) rotate(-90)" fill="#B2B3B7"/>
<path d="M103.855 262.5L103.855 245.5L99.8547 245.5L99.8547 262.5L103.855 262.5Z" fill="#D9D9D9"/>
<path d="M103.855 287.5L103.855 270.5L99.8547 270.5L99.8547 287.5L103.855 287.5Z" fill="#D9D9D9"/>
<path d="M103.855 312.5L103.855 295.5L99.8547 295.5L99.8547 312.5L103.855 312.5Z" fill="#D9D9D9"/>
<path d="M162.855 235L162.855 323L161.355 323L161.355 235L162.855 235Z" fill="#F3F3F3"/>
<path d="M160.355 235L158.855 235L158.855 323L160.355 323L160.355 235Z" fill="#F3F3F3"/>
<path d="M217.855 295.5L217.855 312.5L221.855 312.5L221.855 295.5L217.855 295.5Z" fill="#D9D9D9"/>
<path d="M217.855 270.5L217.855 287.5L221.855 287.5L221.855 270.5L217.855 270.5Z" fill="#D9D9D9"/>
<path d="M217.855 245.5L217.855 262.5L221.855 262.5L221.855 245.5L217.855 245.5Z" fill="#D9D9D9"/>
<path d="M158.855 323L158.855 235L160.355 235L160.355 323L158.855 323Z" fill="#F3F3F3"/>
<path d="M161.355 323L162.855 323L162.855 235L161.355 235L161.355 323Z" fill="#F3F3F3"/>
<rect width="88.2724" height="232" transform="translate(0 44.9999)" fill="#B2B3B7"/>
<path d="M60.6873 104H77.7399L77.7399 99.9999H60.6873L60.6873 104Z" fill="#D9D9D9"/>
<path d="M35.6099 104H52.6625L52.6625 99.9999H35.6099L35.6099 104Z" fill="#D9D9D9"/>
<path d="M10.5325 104L27.5851 104L27.5851 99.9999L10.5325 99.9999L10.5325 104Z" fill="#D9D9D9"/>
<path d="M88.2725 163L3.05176e-05 163L3.06491e-05 161.5L88.2725 161.5L88.2725 163Z" fill="#F3F3F3"/>
<path d="M88.2725 160.5L88.2725 159L3.08684e-05 159L3.07368e-05 160.5L88.2725 160.5Z" fill="#F3F3F3"/>
<path d="M27.5852 218L10.5326 218L10.5326 222L27.5852 222L27.5852 218Z" fill="#D9D9D9"/>
<path d="M52.6626 218L35.61 218L35.61 222L52.6626 222L52.6626 218Z" fill="#D9D9D9"/>
<path d="M77.74 218L60.6874 218L60.6874 222L77.74 222L77.74 218Z" fill="#D9D9D9"/>
<path d="M0 159L88.2724 159L88.2724 160.5L-2.62674e-07 160.5L0 159Z" fill="#F3F3F3"/>
<path d="M-4.3779e-07 161.5L-7.00465e-07 163L88.2724 163L88.2724 161.5L-4.3779e-07 161.5Z" fill="#F3F3F3"/>
<path fill-rule="evenodd" clip-rule="evenodd" d="M162.854 111.08V159H209.961C209.987 159.663 210 160.33 210 161C210 161.67 209.987 162.337 209.961 163H162.854V210.92C161.91 210.973 160.958 211 160 211C159.617 211 159.235 210.996 158.854 210.987V163H110.039C110.013 162.337 110 161.67 110 161C110 160.33 110.013 159.663 110.039 159H158.854V111.013C159.235 111.004 159.617 111 160 111C160.958 111 161.91 111.027 162.854 111.08Z" fill="#D9D9D9"/>
</svg>
