<svg width="320" height="323" viewBox="0 0 320 323" fill="none" xmlns="http://www.w3.org/2000/svg">
<path d="M276.854 -6.10352e-05H44.1362V44.9999H0V277H44.1362V323H276.854V277H320V44.9999H276.854V-6.10352e-05Z" fill="#B2B3B7"/>
<path d="M226.502 161.475C226.502 197.727 197.023 227.115 160.659 227.115C124.294 227.115 94.8149 197.727 94.8149 161.475C94.8149 125.223 124.294 95.8347 160.659 95.8347C197.023 95.8347 226.502 125.223 226.502 161.475Z" fill="#B2B3B7"/>
<path d="M216.799 161.475C216.799 192.385 191.664 217.442 160.659 217.442C129.653 217.442 104.518 192.385 104.518 161.475C104.518 130.566 129.653 105.508 160.659 105.508C191.664 105.508 216.799 130.566 216.799 161.475Z" fill="#B2B3B7"/>
<path fill-rule="evenodd" clip-rule="evenodd" d="M219.918 161.475C219.918 194.102 193.387 220.552 160.659 220.552C127.931 220.552 101.4 194.102 101.4 161.475C101.4 128.848 127.931 102.399 160.659 102.399C193.387 102.399 219.918 128.848 219.918 161.475ZM160.659 217.442C191.665 217.442 216.799 192.385 216.799 161.475C216.799 130.565 191.665 105.508 160.659 105.508C129.654 105.508 104.519 130.565 104.519 161.475C104.519 192.385 129.654 217.442 160.659 217.442Z" fill="#D9D9D9"/>
<rect width="88.2724" height="232" transform="translate(319.987 277) rotate(-180)" fill="#B2B3B7"/>
<path d="M259.487 218L242.487 218L242.487 222L259.487 222L259.487 218Z" fill="#D9D9D9"/>
<path d="M284.487 218L267.487 218L267.487 222L284.487 222L284.487 218Z" fill="#D9D9D9"/>
<path d="M309.487 218L292.487 218L292.487 222L309.487 222L309.487 218Z" fill="#D9D9D9"/>
<path d="M231.987 159L319.987 159L319.987 160.5L231.987 160.5L231.987 159Z" fill="#F3F3F3"/>
<path d="M231.987 161.5L231.987 163L319.987 163L319.987 161.5L231.987 161.5Z" fill="#F3F3F3"/>
<path d="M292.487 104L309.487 104L309.487 99.9999L292.487 99.9999L292.487 104Z" fill="#D9D9D9"/>
<path d="M267.487 104L284.487 104L284.487 99.9999L267.487 99.9999L267.487 104Z" fill="#D9D9D9"/>
<path d="M242.487 104L259.487 104L259.487 99.9999L242.487 99.9999L242.487 104Z" fill="#D9D9D9"/>
<path d="M319.987 163L231.987 163L231.987 161.5L319.987 161.5L319.987 163Z" fill="#F3F3F3"/>
<path d="M319.987 160.5L319.987 159L231.987 159L231.987 160.5L319.987 160.5Z" fill="#F3F3F3"/>
<rect width="88" height="232.718" transform="translate(276.854 -6.10352e-05) rotate(90)" fill="#B2B3B7"/>
<path d="M217.854 60.4999L217.854 77.4999L221.854 77.4999L221.854 60.4999L217.854 60.4999Z" fill="#D9D9D9"/>
<path d="M217.854 35.4999L217.854 52.4999L221.854 52.4999L221.854 35.4999L217.854 35.4999Z" fill="#D9D9D9"/>
<path d="M217.854 10.4999L217.854 27.4999L221.854 27.4999L221.854 10.4999L217.854 10.4999Z" fill="#D9D9D9"/>
<path d="M158.854 87.9999L158.854 -7.62939e-05L160.354 -7.61806e-05L160.354 87.9999L158.854 87.9999Z" fill="#F3F3F3"/>
<path d="M161.354 87.9999L162.854 87.9999L162.854 -7.59918e-05L161.354 -7.61051e-05L161.354 87.9999Z" fill="#F3F3F3"/>
<path d="M103.854 27.4999L103.854 10.4999L99.8545 10.4999L99.8545 27.4999L103.854 27.4999Z" fill="#D9D9D9"/>
<path d="M103.854 52.4999L103.854 35.4999L99.8545 35.4999L99.8545 52.4999L103.854 52.4999Z" fill="#D9D9D9"/>
<path d="M103.854 77.4999L103.854 60.4999L99.8545 60.4999L99.8545 77.4999L103.854 77.4999Z" fill="#D9D9D9"/>
<path d="M162.854 -6.10352e-05L162.854 88L161.354 88L161.354 -6.12796e-05L162.854 -6.10352e-05Z" fill="#F3F3F3"/>
<path d="M160.354 -6.14425e-05L158.854 -6.1687e-05L158.854 88L160.354 88L160.354 -6.14425e-05Z" fill="#F3F3F3"/>
<rect width="88" height="232.718" transform="translate(44.1362 323) rotate(-90)" fill="#B2B3B7"/>
<path d="M103.136 262.5L103.136 245.5L99.1362 245.5L99.1362 262.5L103.136 262.5Z" fill="#D9D9D9"/>
<path d="M103.136 287.5L103.136 270.5L99.1362 270.5L99.1362 287.5L103.136 287.5Z" fill="#D9D9D9"/>
<path d="M103.136 312.5L103.136 295.5L99.1362 295.5L99.1362 312.5L103.136 312.5Z" fill="#D9D9D9"/>
<path d="M162.136 235L162.136 323L160.636 323L160.636 235L162.136 235Z" fill="#F3F3F3"/>
<path d="M159.636 235L158.136 235L158.136 323L159.636 323L159.636 235Z" fill="#F3F3F3"/>
<path d="M217.136 295.5L217.136 312.5L221.136 312.5L221.136 295.5L217.136 295.5Z" fill="#D9D9D9"/>
<path d="M217.136 270.5L217.136 287.5L221.136 287.5L221.136 270.5L217.136 270.5Z" fill="#D9D9D9"/>
<path d="M217.136 245.5L217.136 262.5L221.136 262.5L221.136 245.5L217.136 245.5Z" fill="#D9D9D9"/>
<path d="M158.136 323L158.136 235L159.636 235L159.636 323L158.136 323Z" fill="#F3F3F3"/>
<path d="M160.636 323L162.136 323L162.136 235L160.636 235L160.636 323Z" fill="#F3F3F3"/>
<rect width="88.2724" height="232" transform="translate(0 45.9999)" fill="#B2B3B7"/>
<path d="M60.6873 105H77.7399L77.7399 101H60.6873L60.6873 105Z" fill="#D9D9D9"/>
<path d="M35.6099 105H52.6625L52.6625 101H35.6099L35.6099 105Z" fill="#D9D9D9"/>
<path d="M10.5325 105L27.5851 105L27.5851 101L10.5325 101L10.5325 105Z" fill="#D9D9D9"/>
<path d="M88.2725 164L3.05176e-05 164L3.06491e-05 162.5L88.2725 162.5L88.2725 164Z" fill="#F3F3F3"/>
<path d="M88.2725 161.5L88.2725 160L3.08684e-05 160L3.07368e-05 161.5L88.2725 161.5Z" fill="#F3F3F3"/>
<path d="M27.5852 219L10.5326 219L10.5326 223L27.5852 223L27.5852 219Z" fill="#D9D9D9"/>
<path d="M52.6626 219L35.61 219L35.61 223L52.6626 223L52.6626 219Z" fill="#D9D9D9"/>
<path d="M77.74 219L60.6874 219L60.6874 223L77.74 223L77.74 219Z" fill="#D9D9D9"/>
<path d="M0 160L88.2724 160L88.2724 161.5L-2.62674e-07 161.5L0 160Z" fill="#F3F3F3"/>
<path d="M-4.3779e-07 162.5L-7.00465e-07 164L88.2724 164L88.2724 162.5L-4.3779e-07 162.5Z" fill="#F3F3F3"/>
</svg>
