<svg width="157" height="70" viewBox="0 0 157 70" fill="none" xmlns="http://www.w3.org/2000/svg">
<path d="M1.7687 55.4768C1.02413 55.4768 0.437498 54.5522 0.437498 53.4021L0.4375 16.7784C0.4375 15.6282 1.02414 14.7036 1.7687 14.7036L2.21996 14.7036C2.96453 14.7036 3.55115 15.6282 3.55115 16.7784L3.55115 53.4246C3.55115 54.5748 2.96452 55.4994 2.21996 55.4994L1.7687 55.4994L1.7687 55.4768Z" fill="#385459"/>
<path d="M153.886 61.5883C155.601 57.8447 155.601 12.1553 153.886 8.41173C151.111 2.36791 136.423 -8.19571e-07 136.423 -8.19571e-07C136.423 -8.19571e-07 31.0777 0.360821 27.0164 0.924609C9.57541 3.36018 5.22082 10.8924 3.79938 14.0947C1.79129 18.5599 1.20465 51.1018 3.21274 55.567C4.63418 58.7468 9.57542 66.6398 27.0389 69.0754C31.1002 69.6392 136.445 70 136.445 70C136.445 70 151.111 67.6321 153.886 61.5883Z" fill="#5C9162"/>
<path d="M101.947 54.3492C107.588 47.3582 107.34 34.9999 107.34 34.9999C107.34 34.9999 107.588 22.6417 101.947 15.6507C100.593 13.9819 54.1142 14.5682 51.6999 17.3421C49.2857 20.1385 49.4888 34.9999 49.4888 34.9999C49.4888 34.9999 49.3083 49.8614 51.6999 52.6578C54.1142 55.4542 100.593 56.0405 101.947 54.3492Z" fill="#76B577"/>
<path d="M119.884 59.491C124.713 55.3415 125.796 35.0001 125.796 35.0001C125.796 35.0001 124.69 14.6586 119.884 10.5091C118.666 9.47171 105.038 11.9524 104.113 14.0948C103.436 15.6734 109.122 21.0858 108.558 35.0001C107.949 50.4253 103.436 54.3267 104.113 55.9053C105.016 58.0477 118.666 60.5284 119.884 59.491Z" fill="#385459"/>
<path d="M37.1244 9.02066C32.296 12.8093 32.093 34.9549 32.093 34.9549C32.093 34.9549 32.296 57.1908 37.1244 60.9794C38.3428 61.9266 46.4203 56.0406 47.3453 54.0786C48.0222 52.6353 47.3453 34.9549 47.3453 34.9549C47.3453 34.9549 48.0222 17.2745 47.3453 15.8312C46.4203 13.8692 38.3203 8.0735 37.1244 9.02066Z" fill="#385459"/>
<path d="M121.644 59.4234C121.644 59.4234 135.204 57.7997 141.432 55.6798C147.682 53.56 150.773 50.8312 150.773 50.8312L150.998 35.3383L150.998 35.0226L150.998 34.7069L150.773 19.214C150.773 19.214 147.659 16.4852 141.432 14.3654C135.182 12.2455 121.644 10.6218 121.644 10.6218C121.644 10.6218 124.374 15.944 125.299 20.0935C126.112 23.8145 127.195 33.1734 127.398 35.0226C127.195 36.8718 126.134 46.2307 125.299 49.9517C124.374 54.0787 121.644 59.4234 121.644 59.4234Z" fill="#76B577"/>
<path d="M149.622 56.4465C150.457 56.7848 151.856 57.3034 152.014 58.3183C152.172 59.4007 151.404 60.9117 150.976 61.904C149.983 64.2042 147.794 65.3769 145.38 65.6926C144.275 65.8279 139.018 65.3092 140.01 63.3924L139.92 63.2119C140.619 62.7384 141.793 62.6707 142.628 62.2648C143.553 61.8363 144.275 61.2725 144.952 60.5509C145.831 59.6263 146.576 58.882 147.095 57.6868C147.636 56.3337 148.088 55.7925 149.622 56.4465Z" fill="#385459"/>
<path d="M148.9 55.7474C149.735 56.0857 151.134 56.6044 151.292 57.6192C151.45 58.7017 150.682 60.2126 150.254 61.2049C149.261 63.5051 147.072 64.6778 144.658 64.9935C143.553 65.1288 138.296 64.6102 139.288 62.6933L139.198 62.5129C139.897 62.0393 141.071 61.9716 141.906 61.5657C142.831 61.1372 143.553 60.5734 144.23 59.8518C145.109 58.9272 145.854 58.183 146.373 56.9877C146.914 55.6346 147.366 55.116 148.9 55.7474Z" fill="#CECDB6"/>
<path opacity="0.5" d="M148.404 62.4903C148.02 62.5354 147.027 62.152 146.869 61.701C146.711 61.2049 147.23 60.4156 147.456 60.0322C147.907 59.1978 148.223 57.4162 149.396 57.3486C151.089 57.2584 150.457 59.0174 150.096 59.8518C149.803 60.5283 149.126 62.1069 148.449 62.4227C148.336 62.4678 148.065 62.4227 148.11 62.4452L148.404 62.4903Z" fill="white"/>
<path d="M150.525 14.1849C151.359 13.8467 152.781 13.3731 152.961 12.3583C153.142 11.2758 152.42 9.76483 151.991 8.75001C151.043 6.4272 148.9 5.20942 146.463 4.84859C145.38 4.66818 140.078 5.09666 141.048 7.03609L140.935 7.2165C141.612 7.71264 142.786 7.80285 143.62 8.20877C144.523 8.6598 145.245 9.24614 145.922 9.96779C146.802 10.915 147.524 11.6817 147.997 12.8769C148.562 14.2526 148.968 14.7938 150.525 14.1849Z" fill="#385459"/>
<path d="M149.78 14.839C150.615 14.5007 152.036 14.0271 152.217 13.0123C152.397 11.9298 151.675 10.4189 151.247 9.40406C150.299 7.08125 148.155 5.86347 145.719 5.50264C144.636 5.32223 139.333 5.75071 140.304 7.69014L140.191 7.87056C140.868 8.36669 142.041 8.4569 142.876 8.86282C143.778 9.31386 144.5 9.9002 145.177 10.6218C146.057 11.569 146.779 12.3358 147.253 13.531C147.817 14.9292 148.246 15.4479 149.78 14.839Z" fill="#CECDB6"/>
<path opacity="0.5" d="M149.441 8.09605C149.058 8.02839 148.065 8.41177 147.885 8.84025C147.704 9.33638 148.223 10.1257 148.426 10.5091C148.855 11.3435 149.126 13.125 150.299 13.2152C151.991 13.3506 151.382 11.569 151.043 10.7346C150.773 10.058 150.141 8.45687 149.464 8.1186C149.351 8.07349 149.08 8.09605 149.126 8.09605L149.441 8.09605Z" fill="white"/>
<path d="M118.982 6.60756C118.982 3.36014 91.4103 3.38269 88.1387 3.81117C84.8671 4.23965 85.9501 13.0348 86.6044 13.0348C87.6423 13.0348 101.609 13.0348 101.609 13.0348C102.421 12.6514 105.692 10.6443 109.618 9.20099C113.567 7.75769 118.982 7.30666 118.982 6.60756Z" fill="#385459"/>
<path d="M84.2579 3.78864C83.6713 2.88657 52.1738 4.89366 45.405 5.70551C41.7047 6.15655 47.1874 13.7564 50.1431 14.0496C53.0988 14.3428 82.0468 12.6288 83.5133 12.3808C84.664 12.1778 85.1604 5.14173 84.2579 3.78864Z" fill="#385459"/>
<path d="M118.982 63.9111C118.982 67.1585 91.4103 67.1359 88.1387 66.7075C84.8671 66.279 85.9501 57.4839 86.6044 57.4839C87.6423 57.4839 101.609 57.4839 101.609 57.4839C102.421 57.8673 105.692 59.8743 109.618 61.3176C113.567 62.7384 118.982 63.1894 118.982 63.9111Z" fill="#385459"/>
<path d="M84.2579 66.7074C83.6713 67.6095 52.1738 65.6024 45.405 64.7905C41.7047 64.3395 47.1874 56.7396 50.1431 56.4465C53.0988 56.1533 82.0468 57.8672 83.5133 58.1153C84.664 58.3182 85.1604 65.3543 84.2579 66.7074Z" fill="#385459"/>
<path opacity="0.2" d="M124.938 26.3403L106.076 19.3718L107.971 25.9118L125.683 33.3312L124.938 26.3403Z" fill="#CECDB6"/>
<path opacity="0.2" d="M108.4 29.1366L125.683 36.6914L125.435 39.2848L108.58 31.9555L108.4 29.1366Z" fill="#CECDB6"/>
<path opacity="0.2" d="M108.4 37.5483L124.442 46.9523L122.705 54.3492L107.34 46.1856L108.4 37.5483Z" fill="#CECDB6"/>
<path opacity="0.2" d="M122.885 16.2596L112.552 10.9825L108.4 11.9748L123.72 19.3717L122.885 16.2596Z" fill="#CECDB6"/>
<path d="M34.462 62.3099C34.462 62.3099 30.7843 55.0483 29.7465 49.9967C28.7086 44.9452 29.1598 35 29.1598 35L29.2501 35C29.2501 35 28.7988 25.0547 29.8367 20.0032C30.8746 14.9742 34.5523 7.69006 34.5523 7.69006C34.5523 7.69006 22.4813 6.65269 18.8938 7.69006C15.3063 8.72743 6.2587 13.7113 5.67207 14.7036C5.08545 15.6959 3.43836 35 3.43836 35L3.34812 35C3.34812 35 4.99519 54.2815 5.58182 55.2964C6.16845 56.2886 15.2161 61.2725 18.8036 62.3099C22.391 63.3473 34.462 62.3099 34.462 62.3099Z" fill="#76B577"/>
<path d="M116.929 62.4903L116.929 62.1971L116.162 62.1971L116.162 62.4903L116.929 62.4903Z" fill="#385459"/>
<path d="M155.218 61.1372C154.473 61.1372 153.886 59.942 153.886 58.4761L153.886 11.1405C153.886 9.6746 154.473 8.47937 155.218 8.47937L155.669 8.47937C156.413 8.47937 157 9.6746 157 11.1405L157 58.4761C157 59.942 156.413 61.1372 155.669 61.1372L155.218 61.1372Z" fill="#385459"/>
</svg>
