<svg width="60" height="60" viewBox="0 0 60 60" fill="none" xmlns="http://www.w3.org/2000/svg">
<g clip-path="url(#clip0_236_98902)">
<path d="M32.3427 38.7591L34.933 33.6401L35.2568 35.1913C34.933 35.3464 34.7711 35.5015 34.7711 35.8118C34.7711 36.2771 35.2568 36.8976 35.9044 36.8976C36.552 37.0527 37.1995 36.5874 37.3614 36.122L38.009 34.2606C38.1709 34.1055 38.1709 33.9503 38.1709 33.6401C38.6566 31.1582 36.0663 28.366 32.0189 26.97C31.3713 26.6597 30.5619 26.8148 29.7524 26.5046C28.9429 26.3495 28.2953 26.0392 27.4859 26.0392C23.4385 25.729 20.0387 27.2802 19.553 29.9172C19.553 30.2275 19.553 30.3826 19.553 30.5377L19.3911 33.7952C19.3911 33.9503 19.2292 33.9503 19.2292 34.1055C19.2292 34.5708 19.553 34.8811 20.2006 35.0362C20.8482 35.1913 21.3339 34.8811 21.3339 34.4157C21.3339 34.2606 21.3339 34.1055 21.3339 34.1055L22.1434 31.3133C22.4671 31.3133 22.7909 31.3133 22.9528 31.1582C23.4385 31.6235 24.248 31.9338 25.0575 32.244C25.2193 34.1055 26.3526 35.6567 28.1334 36.122C29.1048 36.2771 29.9143 36.122 30.7238 35.6567L30.4 37.9835L29.9143 39.0693L30.0762 39.6898L31.2094 40L32.0189 39.6898L32.3427 38.7591Z" fill="url(#paint0_linear_236_98902)"/>
<path d="M41.8382 31.5641C42.0001 31.0784 41.3525 30.4308 40.7049 30.4308C40.0574 30.2689 39.4098 30.7546 39.2479 31.2403C39.2479 31.726 39.7336 32.3735 40.3812 32.3735C41.1906 32.5354 41.8382 32.2116 41.8382 31.5641Z" fill="#AED4A7"/>
<path d="M39.5718 28.9738L39.7337 30.5927L41.8383 31.5641L42.4859 29.6213L39.5718 28.9738Z" fill="#22A600"/>
<path d="M25.9727 29.7831C25.9727 29.2975 25.6489 28.9737 25.0013 28.8118C24.3537 28.8118 23.868 28.9737 23.868 29.4594C23.868 29.945 24.1918 30.2688 24.8394 30.4307C25.3251 30.4307 25.9727 30.1069 25.9727 29.7831Z" fill="#AED4A7"/>
<path d="M24.1918 25.5739L24.0299 29.1355L25.8108 29.6212L26.7821 26.2214L24.1918 25.5739Z" fill="#22A600"/>
<path d="M35.5242 29.4597L35.0385 33.3452L36.9813 34.3166L40.2192 27.517L35.5242 29.4597Z" fill="#22A600"/>
<path d="M42.6477 28.9738C43.1334 26.3835 40.5431 23.4694 36.4957 22.0123C35.8481 21.6885 35.0386 21.8504 34.2292 21.5266C33.4197 21.3647 32.7721 21.041 31.9626 21.041C28.0771 20.7172 24.6773 22.3361 24.1917 25.0883C23.706 28.1643 28.4009 25.2502 33.5816 26.3835C38.7622 27.3549 42.162 32.0498 42.6477 28.9738Z" fill="url(#paint1_radial_236_98902)"/>
<path d="M41.1909 27.1928C41.5147 25.5738 38.2768 23.4692 34.2294 22.4978C30.0201 21.5265 26.4584 22.174 26.1347 23.9549C25.8109 25.5738 29.0488 27.6785 33.0962 28.6499C37.3054 29.4593 41.029 28.9736 41.1909 27.1928Z" fill="url(#paint2_radial_236_98902)"/>
<path d="M30.182 25.898C30.3439 25.2505 30.182 24.7648 30.0201 24.7648C29.8582 24.7648 29.6963 25.0886 29.5344 25.7361C29.3725 26.3837 29.5344 26.8694 29.6963 26.8694C29.8582 26.8694 30.0201 26.5456 30.182 25.898Z" fill="#96CC9B"/>
<path d="M37.4672 27.5169C37.6291 26.8693 37.4672 26.3837 37.3053 26.3837C37.1435 26.3837 36.9816 26.7075 36.8197 27.355C36.6578 28.0026 36.8197 28.4883 36.9816 28.4883C37.1435 28.4883 37.4672 28.0026 37.4672 27.5169Z" fill="#96CC9B"/>
<path d="M37.3053 27.8407C37.791 25.4122 36.334 22.9838 34.2293 22.66C32.1247 22.1743 30.1819 23.7933 29.6963 26.2217C29.2106 28.6501 30.6676 31.0786 32.7723 31.5643C34.8769 31.888 36.8197 30.2691 37.3053 27.8407Z" fill="#0F2E15"/>
<path d="M36.9813 34.3162L35.0386 33.3448L34.7148 34.4781L34.8767 35.1257L35.848 35.4495L36.6575 35.2876L36.9813 34.3162Z" fill="black"/>
</g>
<defs>
<linearGradient id="paint0_linear_236_98902" x1="28.6986" y1="26.0216" x2="28.6986" y2="39.8173" gradientUnits="userSpaceOnUse">
<stop stop-color="#E3E3E3"/>
<stop offset="1" stop-color="#C4C4C6"/>
</linearGradient>
<radialGradient id="paint1_radial_236_98902" cx="0" cy="0" r="1" gradientUnits="userSpaceOnUse" gradientTransform="translate(33.4751 25.5305) rotate(90) scale(7.30844 7.30844)">
<stop offset="0.00423729" stop-color="#65E046"/>
<stop offset="1" stop-color="#2ACC00"/>
</radialGradient>
<radialGradient id="paint2_radial_236_98902" cx="0" cy="0" r="1" gradientUnits="userSpaceOnUse" gradientTransform="translate(33.7091 25.6035) rotate(90) scale(5.87664 5.87663)">
<stop offset="0.00423729" stop-color="#65E046"/>
<stop offset="1" stop-color="#2ACC00"/>
</radialGradient>
<clipPath id="clip0_236_98902">
<rect width="60" height="60" rx="8" fill="white"/>
</clipPath>
</defs>
</svg>
