<svg width="60" height="60" viewBox="0 0 60 60" fill="none" xmlns="http://www.w3.org/2000/svg">
<g clip-path="url(#clip0_236_98903)">
<path d="M37.8136 35.1959C37.8136 34.8772 37.8136 34.7179 37.8136 34.5586L37.9768 31.2131C37.9768 31.0538 38.1401 31.0538 38.1401 30.8945C38.1401 30.4166 37.8136 30.0979 37.1604 29.9386C36.5073 29.9386 36.0174 30.0979 36.0174 30.5759C36.0174 30.7352 36.0174 30.8945 36.0174 30.8945L35.201 33.7621C34.8744 33.7621 34.5478 33.7621 34.3846 33.9214C33.8947 33.4435 33.0783 33.1248 32.2618 32.8062C32.0986 30.8945 30.9556 29.3014 29.1594 28.8235C28.1797 28.6641 27.3633 28.8235 26.5468 29.3014L26.8734 27.071L27.3633 25.9559L27.2 25.3186L26.057 25L25.4038 25.1593L25.0773 25.9559L22.4647 31.2131L22.1381 29.62C22.4647 29.4607 22.628 29.3014 22.628 28.9828C22.628 28.5048 22.1381 27.8676 21.485 27.8676C20.8318 27.7083 20.1787 28.1862 20.0154 28.6641L19.3623 30.5759C19.199 30.7352 19.199 30.8945 19.199 31.2131C18.7091 33.7621 21.3217 36.6297 25.4038 38.0635C26.057 38.3821 26.8734 38.2228 27.6898 38.3821C28.5063 38.5414 29.1594 38.86 29.9758 38.86C33.8947 39.4972 37.3237 37.9041 37.8136 35.1959Z" fill="url(#paint0_linear_236_98903)"/>
<path d="M27.69 24.2092C27.69 23.7235 27.2043 23.0759 26.5567 23.0759C25.9092 22.9141 25.2616 23.3997 25.0997 23.8854C25.0997 24.3711 25.5854 25.0187 26.2329 25.0187C26.8805 25.1806 27.5281 24.6949 27.69 24.2092Z" fill="#BEDEF1"/>
<path d="M25.0998 23.8854L24.4522 25.8281L27.3663 26.4757L27.2044 24.8567L25.0998 23.8854Z" fill="#0082BD"/>
<path d="M43.0701 25.9903C43.0701 25.5046 42.7463 25.1808 42.0987 25.0189C41.4511 25.0189 40.9654 25.1808 40.9654 25.6665C40.9654 26.1522 41.2892 26.476 41.9368 26.6379C42.4225 26.7998 42.9082 26.476 43.0701 25.9903Z" fill="#BEDEF1"/>
<path d="M41.1272 25.8284L40.1558 29.2282L42.7461 29.8758L42.908 26.3141L41.1272 25.8284Z" fill="#0082BD"/>
<path d="M31.8994 22.1045L29.9566 21.1332L26.7187 27.9328L31.4137 25.99L31.8994 22.1045Z" fill="#0082BD"/>
<path d="M42.7463 30.3614C43.2319 27.2854 38.3751 30.3614 33.3563 29.2282C28.1757 28.0949 24.7759 23.3999 24.2902 26.476C23.8045 29.0663 26.3948 31.9804 30.4422 33.4374C31.0898 33.7612 31.8993 33.5993 32.7088 33.7612C33.5182 33.9231 34.1658 34.2469 34.9753 34.2469C38.8608 34.7326 42.2606 33.1137 42.7463 30.3614Z" fill="url(#paint1_radial_236_98903)"/>
<path d="M40.8034 31.4944C41.1272 29.8755 37.8893 27.7709 33.8419 26.7995C29.6326 25.99 26.0709 26.4757 25.7471 28.2565C25.4234 29.8755 28.6613 31.9801 32.7086 32.9515C36.9179 33.761 40.4796 33.1134 40.8034 31.4944Z" fill="url(#paint2_radial_236_98903)"/>
<path d="M37.4038 29.7135C37.5657 29.0659 37.4038 28.5802 37.2419 28.5802C37.08 28.5802 36.9181 28.904 36.7562 29.5516C36.5943 30.1992 36.7562 30.6848 36.9181 30.6848C37.08 30.6848 37.2419 30.1992 37.4038 29.7135Z" fill="#ABC4E8"/>
<path d="M29.9564 28.0944C30.1183 27.4469 29.9564 26.9612 29.7945 26.9612C29.6326 26.9612 29.4707 27.285 29.3088 27.9326C29.1469 28.5801 29.3088 29.0658 29.4707 29.0658C29.6326 29.0658 29.9564 28.5801 29.9564 28.0944Z" fill="#ABC4E8"/>
<path d="M37.2419 29.2279C37.7275 26.7995 36.2705 24.371 34.1659 23.8854C32.0612 23.3997 30.1185 25.0186 29.6328 27.4471C29.1471 29.8755 30.6042 32.3039 32.7088 32.7896C34.8134 33.2753 36.7562 31.6563 37.2419 29.2279Z" fill="#111B34"/>
<path d="M32.0612 20.3238L30.9279 20L30.2803 20.1619L29.9565 21.1333L31.8993 22.1046L32.2231 20.9714L32.0612 20.3238Z" fill="black"/>
</g>
<defs>
<linearGradient id="paint0_linear_236_98903" x1="28.5735" y1="25.028" x2="28.5735" y2="39.195" gradientUnits="userSpaceOnUse">
<stop stop-color="#E3E3E3"/>
<stop offset="1" stop-color="#C4C4C6"/>
</linearGradient>
<radialGradient id="paint1_radial_236_98903" cx="0" cy="0" r="1" gradientUnits="userSpaceOnUse" gradientTransform="translate(33.4462 29.9177) rotate(90) scale(7.3086 7.3086)">
<stop offset="0.00423729" stop-color="#50C8FF"/>
<stop offset="1" stop-color="#00A0E8"/>
</radialGradient>
<radialGradient id="paint2_radial_236_98903" cx="0" cy="0" r="1" gradientUnits="userSpaceOnUse" gradientTransform="translate(33.2138 29.8449) rotate(90) scale(5.87566)">
<stop offset="0.00423729" stop-color="#50C8FF"/>
<stop offset="1" stop-color="#00A0E8"/>
</radialGradient>
<clipPath id="clip0_236_98903">
<rect width="60" height="60" rx="8" fill="white"/>
</clipPath>
</defs>
</svg>
