<svg width="120" height="162" viewBox="0 0 120 162" fill="none" xmlns="http://www.w3.org/2000/svg">
<rect x="5.97852" y="12.0078" width="112.022" height="2.64341" fill="#9F9B9B"/>
<rect x="5.97852" y="17.5371" width="112.022" height="2.64341" fill="#9F9B9B"/>
<rect x="5.97852" y="53.582" width="112.022" height="2.64341" fill="#9F9B9B"/>
<rect x="5.97852" y="59.1094" width="112.022" height="2.64341" fill="#9F9B9B"/>
<rect x="2" y="6" width="5.50288" height="155" fill="#AEAEAE"/>
<rect x="2" y="6" width="5.50288" height="6.24806" fill="#AEAEAE"/>
<path d="M16.2559 5.79148C16.2559 3.93589 17.0578 2.43164 18.047 2.43164H115.773C116.762 2.43164 117.564 3.93589 117.564 5.79148V68.6836C117.564 70.5392 116.762 72.0434 115.773 72.0434H18.047C17.0578 72.0434 16.2559 70.5392 16.2559 68.6836V5.79148Z" fill="#00A500"/>
<path d="M97.7558 18.0542C97.7558 18.1444 97.7511 18.2221 97.7418 18.2874C97.7356 18.3496 97.7247 18.4009 97.7092 18.4414C97.6936 18.4818 97.6734 18.5113 97.6485 18.53C97.6237 18.5455 97.5957 18.5533 97.5646 18.5533H94.0942C94.0258 18.5533 93.9667 18.5471 93.9169 18.5346C93.8672 18.5222 93.8268 18.4989 93.7957 18.4647C93.7646 18.4274 93.7412 18.3745 93.7257 18.3061C93.7133 18.2377 93.707 18.149 93.707 18.0402C93.707 17.9376 93.7117 17.8505 93.721 17.779C93.7304 17.7044 93.7475 17.6391 93.7723 17.5831C93.7972 17.524 93.8283 17.468 93.8656 17.4152C93.906 17.3592 93.9574 17.2985 94.0196 17.2332L95.0644 16.1138C95.2727 15.8961 95.4407 15.6986 95.5682 15.5214C95.6957 15.341 95.7952 15.1778 95.8667 15.0316C95.9382 14.8823 95.9864 14.7455 96.0113 14.6211C96.0393 14.4967 96.0533 14.3786 96.0533 14.2666C96.0533 14.164 96.0362 14.0676 96.002 13.9774C95.9709 13.8841 95.9227 13.8033 95.8574 13.7349C95.7952 13.6665 95.7159 13.6136 95.6195 13.5763C95.5231 13.5359 95.4096 13.5156 95.279 13.5156C95.0955 13.5156 94.9322 13.539 94.7892 13.5856C94.6493 13.6323 94.5249 13.6851 94.416 13.7442C94.3103 13.8002 94.2217 13.853 94.1502 13.9028C94.0786 13.9494 94.0227 13.9728 93.9822 13.9728C93.9542 13.9728 93.9294 13.9634 93.9076 13.9448C93.8889 13.9261 93.8734 13.895 93.861 13.8515C93.8485 13.808 93.8376 13.7504 93.8283 13.6789C93.8221 13.6043 93.819 13.5141 93.819 13.4084C93.819 13.3368 93.8205 13.2778 93.8236 13.2311C93.8299 13.1814 93.8376 13.1394 93.847 13.1052C93.8563 13.0679 93.8687 13.0368 93.8843 13.0119C93.8998 12.9839 93.9263 12.9512 93.9636 12.9139C94.004 12.8766 94.0755 12.83 94.1781 12.774C94.2839 12.7149 94.4129 12.6589 94.5653 12.6061C94.7177 12.5501 94.8856 12.5034 95.0691 12.4661C95.2525 12.4288 95.4438 12.4102 95.6428 12.4102C95.9569 12.4102 96.2305 12.4506 96.4637 12.5314C96.7001 12.6092 96.896 12.7196 97.0515 12.8626C97.207 13.0025 97.322 13.1705 97.3966 13.3664C97.4744 13.5592 97.5133 13.7675 97.5133 13.9914C97.5133 14.1873 97.4946 14.3801 97.4573 14.5698C97.42 14.7595 97.3422 14.9647 97.2241 15.1855C97.1059 15.4032 96.9395 15.6458 96.725 15.9132C96.5104 16.1775 96.2259 16.4854 95.8714 16.8368L95.167 17.5598H97.5459C97.577 17.5598 97.605 17.5691 97.6299 17.5877C97.6579 17.6064 97.6812 17.6359 97.6998 17.6764C97.7185 17.7137 97.7325 17.765 97.7418 17.8303C97.7511 17.8925 97.7558 17.9671 97.7558 18.0542Z" fill="white"/>
<path d="M102.733 18.0868C102.733 18.1739 102.728 18.2486 102.719 18.3107C102.709 18.3698 102.695 18.418 102.677 18.4553C102.661 18.4896 102.642 18.5144 102.621 18.53C102.599 18.5455 102.574 18.5533 102.546 18.5533H99.2156C99.1907 18.5533 99.1674 18.5455 99.1456 18.53C99.1239 18.5144 99.1037 18.4896 99.085 18.4553C99.0695 18.418 99.057 18.3698 99.0477 18.3107C99.0384 18.2486 99.0337 18.1739 99.0337 18.0868C99.0337 17.9967 99.0368 17.922 99.043 17.863C99.0524 17.8008 99.0648 17.751 99.0803 17.7137C99.099 17.6764 99.1192 17.6499 99.141 17.6344C99.1627 17.6157 99.1876 17.6064 99.2156 17.6064H100.34V13.6789L99.3695 14.2153C99.298 14.2495 99.2389 14.2713 99.1923 14.2806C99.1488 14.2868 99.113 14.2775 99.085 14.2526C99.0601 14.2246 99.043 14.178 99.0337 14.1127C99.0244 14.0474 99.0197 13.9557 99.0197 13.8375C99.0197 13.7629 99.0213 13.7022 99.0244 13.6556C99.0275 13.6058 99.0353 13.5638 99.0477 13.5296C99.0601 13.4954 99.0772 13.4674 99.099 13.4457C99.1208 13.4239 99.1503 13.4006 99.1876 13.3757L100.484 12.5361C100.5 12.5237 100.519 12.5143 100.54 12.5081C100.565 12.4988 100.596 12.4926 100.634 12.4895C100.671 12.4832 100.719 12.4801 100.778 12.4801C100.84 12.477 100.92 12.4755 101.016 12.4755C101.134 12.4755 101.229 12.4786 101.301 12.4848C101.375 12.4879 101.431 12.4957 101.469 12.5081C101.506 12.5174 101.531 12.5314 101.543 12.5501C101.556 12.5687 101.562 12.5921 101.562 12.6201V17.6064H102.546C102.574 17.6064 102.599 17.6157 102.621 17.6344C102.646 17.6499 102.666 17.6764 102.681 17.7137C102.7 17.751 102.712 17.8008 102.719 17.863C102.728 17.922 102.733 17.9967 102.733 18.0868Z" fill="white"/>
<path d="M107.915 16.9347C107.915 17.2084 107.867 17.4525 107.77 17.667C107.677 17.8816 107.537 18.0635 107.35 18.2128C107.167 18.3589 106.938 18.4709 106.665 18.5486C106.391 18.6233 106.075 18.6606 105.718 18.6606C105.376 18.6606 105.076 18.6264 104.817 18.558C104.559 18.4896 104.343 18.39 104.169 18.2594C103.995 18.1257 103.864 17.9625 103.777 17.7697C103.69 17.5738 103.647 17.3499 103.647 17.098C103.647 16.9269 103.672 16.7668 103.721 16.6175C103.774 16.4652 103.85 16.3252 103.95 16.1977C104.053 16.0671 104.178 15.9458 104.328 15.8339C104.48 15.7188 104.654 15.61 104.85 15.5074C104.692 15.4203 104.549 15.327 104.421 15.2275C104.294 15.1249 104.185 15.0145 104.094 14.8963C104.004 14.7751 103.936 14.6429 103.889 14.4999C103.843 14.3568 103.819 14.2013 103.819 14.0334C103.819 13.7908 103.861 13.5716 103.945 13.3757C104.032 13.1767 104.16 13.0057 104.328 12.8626C104.499 12.7165 104.712 12.6045 104.967 12.5268C105.222 12.449 105.517 12.4102 105.853 12.4102C106.186 12.4102 106.47 12.4459 106.707 12.5174C106.946 12.589 107.142 12.69 107.294 12.8206C107.447 12.9512 107.559 13.1083 107.63 13.2917C107.705 13.4721 107.742 13.6727 107.742 13.8935C107.742 14.0396 107.717 14.1827 107.667 14.3226C107.621 14.4594 107.554 14.59 107.467 14.7144C107.38 14.8388 107.273 14.957 107.145 15.0689C107.018 15.1778 106.873 15.2773 106.711 15.3674C106.901 15.467 107.07 15.5727 107.22 15.6846C107.369 15.7966 107.495 15.9179 107.598 16.0485C107.7 16.176 107.778 16.3128 107.831 16.4589C107.887 16.6051 107.915 16.7637 107.915 16.9347ZM106.562 14.0054C106.562 13.8966 106.546 13.7986 106.515 13.7116C106.484 13.6245 106.435 13.5514 106.366 13.4923C106.301 13.4301 106.218 13.3835 106.119 13.3524C106.022 13.3213 105.907 13.3057 105.774 13.3057C105.512 13.3057 105.318 13.3664 105.191 13.4877C105.063 13.6058 104.999 13.7706 104.999 13.9821C104.999 14.0816 105.015 14.1733 105.046 14.2573C105.08 14.3413 105.132 14.4206 105.2 14.4952C105.268 14.5698 105.357 14.6429 105.466 14.7144C105.575 14.7859 105.704 14.8621 105.853 14.943C106.08 14.8093 106.254 14.6662 106.375 14.5138C106.5 14.3615 106.562 14.192 106.562 14.0054ZM106.702 17.0187C106.702 16.9036 106.682 16.7994 106.641 16.7062C106.604 16.6098 106.543 16.5196 106.459 16.4356C106.379 16.3517 106.276 16.2708 106.152 16.1931C106.027 16.1153 105.883 16.036 105.718 15.9552C105.575 16.0329 105.449 16.1107 105.34 16.1884C105.231 16.2661 105.141 16.3485 105.069 16.4356C104.998 16.5196 104.943 16.6098 104.906 16.7062C104.872 16.7994 104.855 16.9005 104.855 17.0093C104.855 17.2519 104.933 17.4369 105.088 17.5644C105.247 17.6919 105.481 17.7557 105.792 17.7557C106.097 17.7557 106.324 17.6904 106.473 17.5598C106.626 17.4292 106.702 17.2488 106.702 17.0187Z" fill="white"/>
<path d="M97.6996 37.6255C97.6996 37.952 97.6421 38.2443 97.527 38.5024C97.4151 38.7574 97.255 38.9735 97.0466 39.1507C96.8414 39.3249 96.5926 39.4586 96.3003 39.5519C96.0111 39.6452 95.6892 39.6918 95.3347 39.6918C95.1482 39.6918 94.9709 39.6794 94.803 39.6545C94.6351 39.6327 94.4842 39.6048 94.3505 39.5706C94.2168 39.5332 94.1064 39.4975 94.0193 39.4633C93.9354 39.426 93.8794 39.3964 93.8514 39.3746C93.8265 39.3498 93.8079 39.3233 93.7955 39.2953C93.783 39.2674 93.7721 39.2347 93.7628 39.1974C93.7566 39.157 93.7519 39.1072 93.7488 39.0481C93.7457 38.989 93.7441 38.9191 93.7441 38.8382C93.7441 38.7512 93.7473 38.6781 93.7535 38.619C93.7597 38.5568 93.769 38.507 93.7815 38.4697C93.797 38.4324 93.8141 38.406 93.8328 38.3904C93.8514 38.3749 93.8732 38.3671 93.8981 38.3671C93.9292 38.3671 93.9758 38.3858 94.038 38.4231C94.1033 38.4573 94.1873 38.4962 94.2899 38.5397C94.3956 38.5832 94.5231 38.6237 94.6724 38.661C94.8216 38.6952 95.0004 38.7123 95.2088 38.7123C95.3892 38.7123 95.5524 38.6936 95.6986 38.6563C95.8478 38.619 95.9738 38.5599 96.0764 38.4791C96.179 38.3951 96.2583 38.2909 96.3143 38.1665C96.3703 38.0422 96.3982 37.8929 96.3982 37.7187C96.3982 37.5695 96.3749 37.4373 96.3283 37.3223C96.2816 37.2041 96.2085 37.1046 96.109 37.0237C96.0095 36.9429 95.8805 36.8822 95.7219 36.8418C95.5633 36.8014 95.3705 36.7812 95.1435 36.7812C94.9631 36.7812 94.7983 36.7905 94.6491 36.8092C94.5029 36.8278 94.3645 36.8372 94.2339 36.8372C94.1437 36.8372 94.0784 36.8154 94.038 36.7719C94.0007 36.7252 93.982 36.6412 93.982 36.52V33.8985C93.982 33.7741 94.0054 33.6855 94.052 33.6327C94.1018 33.5767 94.1795 33.5487 94.2852 33.5487H97.1446C97.1725 33.5487 97.199 33.558 97.2239 33.5767C97.2487 33.5953 97.2689 33.6249 97.2845 33.6653C97.3032 33.7057 97.3156 33.7601 97.3218 33.8286C97.3311 33.8939 97.3358 33.9732 97.3358 34.0664C97.3358 34.253 97.3187 34.3883 97.2845 34.4723C97.2534 34.5562 97.2068 34.5982 97.1446 34.5982H94.9989V35.8903C95.1077 35.8778 95.215 35.8701 95.3207 35.8669C95.4296 35.8638 95.5431 35.8623 95.6612 35.8623C95.9878 35.8623 96.277 35.9011 96.5288 35.9789C96.7838 36.0535 96.9968 36.1655 97.1679 36.3147C97.342 36.4609 97.4742 36.6444 97.5644 36.8651C97.6545 37.0828 97.6996 37.3363 97.6996 37.6255Z" fill="white"/>
<path d="M102.732 37.6255C102.732 37.952 102.675 38.2443 102.56 38.5024C102.448 38.7574 102.288 38.9735 102.079 39.1507C101.874 39.3249 101.625 39.4586 101.333 39.5519C101.044 39.6452 100.722 39.6918 100.368 39.6918C100.181 39.6918 100.004 39.6794 99.8358 39.6545C99.6679 39.6327 99.517 39.6048 99.3833 39.5706C99.2496 39.5332 99.1392 39.4975 99.0521 39.4633C98.9682 39.426 98.9122 39.3964 98.8842 39.3746C98.8594 39.3498 98.8407 39.3233 98.8283 39.2953C98.8158 39.2674 98.8049 39.2347 98.7956 39.1974C98.7894 39.157 98.7847 39.1072 98.7816 39.0481C98.7785 38.989 98.7769 38.9191 98.7769 38.8382C98.7769 38.7512 98.7801 38.6781 98.7863 38.619C98.7925 38.5568 98.8018 38.507 98.8143 38.4697C98.8298 38.4324 98.8469 38.406 98.8656 38.3904C98.8842 38.3749 98.906 38.3671 98.9309 38.3671C98.962 38.3671 99.0086 38.3858 99.0708 38.4231C99.1361 38.4573 99.2201 38.4962 99.3227 38.5397C99.4284 38.5832 99.5559 38.6237 99.7052 38.661C99.8544 38.6952 100.033 38.7123 100.242 38.7123C100.422 38.7123 100.585 38.6936 100.731 38.6563C100.881 38.619 101.007 38.5599 101.109 38.4791C101.212 38.3951 101.291 38.2909 101.347 38.1665C101.403 38.0422 101.431 37.8929 101.431 37.7187C101.431 37.5695 101.408 37.4373 101.361 37.3223C101.314 37.2041 101.241 37.1046 101.142 37.0237C101.042 36.9429 100.913 36.8822 100.755 36.8418C100.596 36.8014 100.403 36.7812 100.176 36.7812C99.9959 36.7812 99.8311 36.7905 99.6819 36.8092C99.5357 36.8278 99.3973 36.8372 99.2667 36.8372C99.1765 36.8372 99.1112 36.8154 99.0708 36.7719C99.0335 36.7252 99.0148 36.6412 99.0148 36.52V33.8985C99.0148 33.7741 99.0382 33.6855 99.0848 33.6327C99.1346 33.5767 99.2123 33.5487 99.318 33.5487H102.177C102.205 33.5487 102.232 33.558 102.257 33.5767C102.282 33.5953 102.302 33.6249 102.317 33.6653C102.336 33.7057 102.348 33.7601 102.355 33.8286C102.364 33.8939 102.369 33.9732 102.369 34.0664C102.369 34.253 102.352 34.3883 102.317 34.4723C102.286 34.5562 102.24 34.5982 102.177 34.5982H100.032V35.8903C100.141 35.8778 100.248 35.8701 100.354 35.8669C100.462 35.8638 100.576 35.8623 100.694 35.8623C101.021 35.8623 101.31 35.9011 101.562 35.9789C101.817 36.0535 102.03 36.1655 102.201 36.3147C102.375 36.4609 102.507 36.6444 102.597 36.8651C102.687 37.0828 102.732 37.3363 102.732 37.6255Z" fill="white"/>
<path d="M107.915 37.966C107.915 38.2396 107.866 38.4837 107.77 38.6983C107.677 38.9129 107.537 39.0948 107.35 39.244C107.167 39.3902 106.938 39.5021 106.664 39.5799C106.391 39.6545 106.075 39.6918 105.718 39.6918C105.375 39.6918 105.075 39.6576 104.817 39.5892C104.559 39.5208 104.343 39.4213 104.169 39.2907C103.995 39.157 103.864 38.9937 103.777 38.8009C103.69 38.605 103.646 38.3811 103.646 38.1292C103.646 37.9582 103.671 37.798 103.721 37.6488C103.774 37.4964 103.85 37.3565 103.95 37.229C104.052 37.0984 104.178 36.9771 104.328 36.8651C104.48 36.7501 104.654 36.6412 104.85 36.5386C104.691 36.4516 104.548 36.3583 104.421 36.2588C104.293 36.1561 104.184 36.0457 104.094 35.9276C104.004 35.8063 103.936 35.6741 103.889 35.5311C103.842 35.3881 103.819 35.2326 103.819 35.0647C103.819 34.8221 103.861 34.6029 103.945 34.407C104.032 34.2079 104.16 34.0369 104.328 33.8939C104.499 33.7477 104.712 33.6358 104.967 33.558C105.222 33.4803 105.517 33.4414 105.853 33.4414C106.186 33.4414 106.47 33.4772 106.706 33.5487C106.946 33.6202 107.142 33.7213 107.294 33.8519C107.447 33.9825 107.558 34.1395 107.63 34.323C107.705 34.5034 107.742 34.7039 107.742 34.9247C107.742 35.0709 107.717 35.2139 107.667 35.3538C107.621 35.4907 107.554 35.6213 107.467 35.7457C107.38 35.8701 107.272 35.9882 107.145 36.1002C107.017 36.209 106.873 36.3085 106.711 36.3987C106.901 36.4982 107.07 36.6039 107.219 36.7159C107.369 36.8278 107.495 36.9491 107.597 37.0797C107.7 37.2072 107.778 37.344 107.831 37.4902C107.887 37.6363 107.915 37.7949 107.915 37.966ZM106.562 35.0367C106.562 34.9278 106.546 34.8299 106.515 34.7428C106.484 34.6557 106.434 34.5827 106.366 34.5236C106.301 34.4614 106.218 34.4147 106.119 34.3836C106.022 34.3525 105.907 34.337 105.774 34.337C105.512 34.337 105.318 34.3976 105.19 34.5189C105.063 34.6371 104.999 34.8019 104.999 35.0133C104.999 35.1129 105.015 35.2046 105.046 35.2885C105.08 35.3725 105.131 35.4518 105.2 35.5264C105.268 35.6011 105.357 35.6741 105.466 35.7457C105.574 35.8172 105.704 35.8934 105.853 35.9742C106.08 35.8405 106.254 35.6975 106.375 35.5451C106.5 35.3927 106.562 35.2232 106.562 35.0367ZM106.702 38.0499C106.702 37.9349 106.682 37.8307 106.641 37.7374C106.604 37.641 106.543 37.5508 106.459 37.4669C106.378 37.3829 106.276 37.3021 106.151 37.2243C106.027 37.1466 105.882 37.0673 105.718 36.9864C105.574 37.0642 105.449 37.1419 105.34 37.2196C105.231 37.2974 105.141 37.3798 105.069 37.4669C104.998 37.5508 104.943 37.641 104.906 37.7374C104.872 37.8307 104.855 37.9318 104.855 38.0406C104.855 38.2832 104.932 38.4682 105.088 38.5957C105.246 38.7232 105.481 38.7869 105.792 38.7869C106.097 38.7869 106.324 38.7216 106.473 38.591C106.626 38.4604 106.702 38.28 106.702 38.0499Z" fill="white"/>
<path d="M97.7689 57.1391C97.7689 57.3847 97.7565 57.6397 97.7316 57.904C97.7067 58.1653 97.6585 58.4218 97.587 58.6737C97.5186 58.9256 97.4222 59.165 97.2978 59.392C97.1765 59.619 97.0179 59.818 96.822 59.9891C96.6292 60.157 96.3929 60.2907 96.113 60.3902C95.8363 60.4897 95.5082 60.5395 95.1288 60.5395C94.9951 60.5395 94.8614 60.5302 94.7277 60.5115C94.5971 60.4928 94.4773 60.4695 94.3685 60.4415C94.2597 60.4135 94.1664 60.384 94.0886 60.3529C94.014 60.3218 93.9596 60.2907 93.9254 60.2596C93.8912 60.2254 93.8663 60.1772 93.8507 60.115C93.8352 60.0528 93.8274 59.9658 93.8274 59.8538C93.8274 59.7512 93.829 59.6688 93.8321 59.6066C93.8383 59.5444 93.8476 59.4962 93.8601 59.462C93.8756 59.4278 93.8927 59.406 93.9114 59.3967C93.9331 59.3842 93.958 59.378 93.986 59.378C94.0233 59.378 94.0762 59.3889 94.1446 59.4107C94.213 59.4324 94.2954 59.4573 94.3918 59.4853C94.4913 59.5133 94.6033 59.5382 94.7277 59.5599C94.852 59.5817 94.9904 59.5926 95.1428 59.5926C95.404 59.5926 95.6248 59.5459 95.8052 59.4527C95.9855 59.3594 96.1317 59.2334 96.2436 59.0748C96.3556 58.9162 96.438 58.7328 96.4908 58.5244C96.5437 58.3161 96.5732 58.0968 96.5795 57.8667C96.4364 57.9569 96.2638 58.0362 96.0617 58.1046C95.8596 58.1699 95.6279 58.2026 95.3667 58.2026C95.0464 58.2026 94.7743 58.1606 94.5504 58.0766C94.3265 57.9927 94.1446 57.8714 94.0047 57.7128C93.8647 57.5542 93.7621 57.3614 93.6968 57.1344C93.6346 56.9074 93.6035 56.6509 93.6035 56.3648C93.6035 56.0631 93.6486 55.7864 93.7388 55.5345C93.829 55.2795 93.9627 55.0603 94.1399 54.8768C94.3172 54.6902 94.538 54.5456 94.8023 54.443C95.0666 54.3404 95.3729 54.2891 95.7212 54.2891C96.0011 54.2891 96.2452 54.3217 96.4535 54.387C96.665 54.4523 96.8453 54.5456 96.9946 54.6669C97.147 54.7882 97.2729 54.9359 97.3724 55.11C97.475 55.281 97.5543 55.4723 97.6103 55.6837C97.6694 55.8952 97.7098 56.1238 97.7316 56.3694C97.7565 56.6151 97.7689 56.8716 97.7689 57.1391ZM96.5515 56.9711C96.5515 56.6384 96.5328 56.3601 96.4955 56.1362C96.4582 55.9123 96.4022 55.7335 96.3276 55.5998C96.253 55.4661 96.1597 55.3712 96.0477 55.3153C95.9358 55.2593 95.8052 55.2313 95.6559 55.2313C95.5097 55.2313 95.3838 55.2577 95.2781 55.3106C95.1723 55.3603 95.0837 55.4319 95.0122 55.5252C94.9438 55.6184 94.8925 55.7288 94.8583 55.8563C94.8241 55.9838 94.807 56.1238 94.807 56.2761C94.807 56.4409 94.8209 56.5871 94.8489 56.7146C94.88 56.839 94.9267 56.9432 94.9889 57.0271C95.0542 57.108 95.1381 57.1686 95.2408 57.209C95.3434 57.2495 95.4678 57.2697 95.6139 57.2697C95.7943 57.2697 95.9638 57.2432 96.1223 57.1904C96.284 57.1344 96.4271 57.0613 96.5515 56.9711Z" fill="white"/>
<path d="M102.788 59.9331C102.788 60.0233 102.783 60.101 102.774 60.1663C102.768 60.2285 102.757 60.2798 102.741 60.3203C102.726 60.3607 102.705 60.3902 102.68 60.4089C102.656 60.4244 102.628 60.4322 102.596 60.4322H99.1261C99.0577 60.4322 98.9986 60.426 98.9488 60.4135C98.8991 60.4011 98.8587 60.3778 98.8276 60.3436C98.7965 60.3063 98.7731 60.2534 98.7576 60.185C98.7452 60.1166 98.7389 60.0279 98.7389 59.9191C98.7389 59.8165 98.7436 59.7294 98.7529 59.6579C98.7623 59.5833 98.7794 59.518 98.8042 59.462C98.8291 59.4029 98.8602 59.3469 98.8975 59.2941C98.938 59.2381 98.9893 59.1775 99.0515 59.1122L100.096 57.9927C100.305 57.775 100.473 57.5775 100.6 57.4003C100.728 57.2199 100.827 57.0567 100.899 56.9105C100.97 56.7612 101.018 56.6244 101.043 56.5C101.071 56.3756 101.085 56.2575 101.085 56.1455C101.085 56.0429 101.068 55.9465 101.034 55.8563C101.003 55.763 100.955 55.6822 100.889 55.6138C100.827 55.5454 100.748 55.4925 100.651 55.4552C100.555 55.4148 100.441 55.3945 100.311 55.3945C100.127 55.3945 99.9641 55.4179 99.8211 55.4645C99.6812 55.5112 99.5568 55.564 99.4479 55.6231C99.3422 55.6791 99.2536 55.7319 99.1821 55.7817C99.1105 55.8283 99.0546 55.8517 99.0141 55.8517C98.9862 55.8517 98.9613 55.8423 98.9395 55.8237C98.9209 55.805 98.9053 55.7739 98.8929 55.7304C98.8804 55.6869 98.8695 55.6293 98.8602 55.5578C98.854 55.4832 98.8509 55.393 98.8509 55.2873C98.8509 55.2157 98.8524 55.1567 98.8556 55.11C98.8618 55.0603 98.8695 55.0183 98.8789 54.9841C98.8882 54.9468 98.9006 54.9157 98.9162 54.8908C98.9317 54.8628 98.9582 54.8301 98.9955 54.7928C99.0359 54.7555 99.1074 54.7089 99.2101 54.6529C99.3158 54.5938 99.4448 54.5378 99.5972 54.485C99.7496 54.429 99.9175 54.3824 100.101 54.345C100.284 54.3077 100.476 54.2891 100.675 54.2891C100.989 54.2891 101.262 54.3295 101.496 54.4103C101.732 54.4881 101.928 54.5985 102.083 54.7415C102.239 54.8815 102.354 55.0494 102.429 55.2453C102.506 55.4381 102.545 55.6464 102.545 55.8703C102.545 56.0662 102.527 56.259 102.489 56.4487C102.452 56.6384 102.374 56.8437 102.256 57.0644C102.138 57.2821 101.971 57.5247 101.757 57.7921C101.542 58.0564 101.258 58.3643 100.903 58.7157L100.199 59.4387H102.578C102.609 59.4387 102.637 59.448 102.662 59.4667C102.69 59.4853 102.713 59.5149 102.732 59.5553C102.75 59.5926 102.764 59.6439 102.774 59.7092C102.783 59.7714 102.788 59.846 102.788 59.9331Z" fill="white"/>
<path d="M107.835 57.1391C107.835 57.3847 107.822 57.6397 107.797 57.904C107.772 58.1653 107.724 58.4218 107.653 58.6737C107.584 58.9256 107.488 59.165 107.363 59.392C107.242 59.619 107.084 59.818 106.888 59.9891C106.695 60.157 106.458 60.2907 106.179 60.3902C105.902 60.4897 105.574 60.5395 105.194 60.5395C105.061 60.5395 104.927 60.5302 104.793 60.5115C104.663 60.4928 104.543 60.4695 104.434 60.4415C104.325 60.4135 104.232 60.384 104.154 60.3529C104.08 60.3218 104.025 60.2907 103.991 60.2596C103.957 60.2254 103.932 60.1772 103.916 60.115C103.901 60.0528 103.893 59.9658 103.893 59.8538C103.893 59.7512 103.895 59.6688 103.898 59.6066C103.904 59.5444 103.913 59.4962 103.926 59.462C103.941 59.4278 103.958 59.406 103.977 59.3967C103.999 59.3842 104.024 59.378 104.052 59.378C104.089 59.378 104.142 59.3889 104.21 59.4107C104.279 59.4324 104.361 59.4573 104.457 59.4853C104.557 59.5133 104.669 59.5382 104.793 59.5599C104.918 59.5817 105.056 59.5926 105.208 59.5926C105.47 59.5926 105.69 59.5459 105.871 59.4527C106.051 59.3594 106.197 59.2334 106.309 59.0748C106.421 58.9162 106.504 58.7328 106.556 58.5244C106.609 58.3161 106.639 58.0968 106.645 57.8667C106.502 57.9569 106.329 58.0362 106.127 58.1046C105.925 58.1699 105.694 58.2026 105.432 58.2026C105.112 58.2026 104.84 58.1606 104.616 58.0766C104.392 57.9927 104.21 57.8714 104.07 57.7128C103.93 57.5542 103.828 57.3614 103.762 57.1344C103.7 56.9074 103.669 56.6509 103.669 56.3648C103.669 56.0631 103.714 55.7864 103.804 55.5345C103.895 55.2795 104.028 55.0603 104.206 54.8768C104.383 54.6902 104.604 54.5456 104.868 54.443C105.132 54.3404 105.439 54.2891 105.787 54.2891C106.067 54.2891 106.311 54.3217 106.519 54.387C106.731 54.4523 106.911 54.5456 107.06 54.6669C107.213 54.7882 107.339 54.9359 107.438 55.11C107.541 55.281 107.62 55.4723 107.676 55.6837C107.735 55.8952 107.775 56.1238 107.797 56.3694C107.822 56.6151 107.835 56.8716 107.835 57.1391ZM106.617 56.9711C106.617 56.6384 106.598 56.3601 106.561 56.1362C106.524 55.9123 106.468 55.7335 106.393 55.5998C106.319 55.4661 106.225 55.3712 106.113 55.3153C106.001 55.2593 105.871 55.2313 105.722 55.2313C105.575 55.2313 105.449 55.2577 105.344 55.3106C105.238 55.3603 105.149 55.4319 105.078 55.5252C105.009 55.6184 104.958 55.7288 104.924 55.8563C104.89 55.9838 104.873 56.1238 104.873 56.2761C104.873 56.4409 104.887 56.5871 104.915 56.7146C104.946 56.839 104.992 56.9432 105.054 57.0271C105.12 57.108 105.204 57.1686 105.306 57.209C105.409 57.2495 105.533 57.2697 105.68 57.2697C105.86 57.2697 106.029 57.2432 106.188 57.1904C106.35 57.1344 106.493 57.0613 106.617 56.9711Z" fill="white"/>
<path d="M30.1063 14.4619C30.1495 14.5914 30.1764 14.6938 30.1872 14.7693C30.198 14.8448 30.1836 14.9024 30.1441 14.9419C30.1045 14.9779 30.0344 14.9994 29.9337 15.0066C29.8331 15.0174 29.6947 15.0228 29.5185 15.0228C29.3351 15.0228 29.1913 15.0192 29.087 15.012C28.9863 15.0084 28.909 14.9994 28.8551 14.9851C28.8012 14.9671 28.7634 14.9437 28.7419 14.9149C28.7203 14.8862 28.7023 14.8484 28.6879 14.8017L28.2187 13.3995H25.5976L25.1554 14.7639C25.141 14.8143 25.1212 14.8574 25.0961 14.8934C25.0745 14.9257 25.0368 14.9527 24.9828 14.9743C24.9325 14.9922 24.8588 15.0048 24.7617 15.012C24.6682 15.0192 24.5442 15.0228 24.3896 15.0228C24.2242 15.0228 24.0947 15.0174 24.0013 15.0066C23.9078 14.9958 23.8431 14.9707 23.8071 14.9311C23.7712 14.888 23.7586 14.8287 23.7694 14.7532C23.7801 14.6776 23.8071 14.577 23.8503 14.4511L26.0021 8.25978C26.0237 8.19866 26.0489 8.15012 26.0776 8.11416C26.1064 8.07461 26.1513 8.04585 26.2125 8.02787C26.2772 8.0063 26.3653 7.99372 26.4767 7.99012C26.5882 7.98293 26.7356 7.97934 26.919 7.97934C27.1311 7.97934 27.3001 7.98293 27.4259 7.99012C27.5518 7.99372 27.6488 8.0063 27.7172 8.02787C27.7891 8.04585 27.8394 8.07461 27.8682 8.11416C27.9005 8.15371 27.9275 8.20765 27.9491 8.27596L30.1063 14.4619ZM26.9028 9.34381H26.8974L25.9104 12.31H27.8897L26.9028 9.34381Z" fill="white"/>
<path d="M36.9076 8.08996L34.3948 11.4049L36.1151 13.7341H37.6615V17.0007H36.2504V14.9905H35.3806L32.8775 11.4919V14.9905H31.4182V8.08996H32.8775V11.4339L35.3516 8.08996H36.9076Z" fill="white"/>
<path d="M43.634 13.9334C43.634 14.0233 43.6304 14.1006 43.6232 14.1653C43.6196 14.2264 43.6124 14.2804 43.6017 14.3271C43.5909 14.3702 43.5765 14.408 43.5585 14.4403C43.5405 14.4727 43.5118 14.5105 43.4722 14.5536C43.4327 14.5932 43.3554 14.6453 43.2403 14.71C43.1289 14.7747 42.9904 14.8376 42.825 14.8988C42.6632 14.9563 42.4763 15.0048 42.2641 15.0444C42.0556 15.0839 41.8291 15.1037 41.5846 15.1037C41.1064 15.1037 40.675 15.03 40.2902 14.8826C39.9055 14.7352 39.5783 14.5159 39.3087 14.2246C39.039 13.9298 38.8323 13.5631 38.6885 13.1244C38.5447 12.6858 38.4727 12.1752 38.4727 11.5928C38.4727 10.9995 38.5518 10.4728 38.71 10.0126C38.8682 9.55234 39.0894 9.16583 39.3734 8.85303C39.6574 8.54022 39.9972 8.30292 40.3927 8.14113C40.7918 7.97933 41.2305 7.89844 41.7086 7.89844C41.9028 7.89844 42.0898 7.91462 42.2695 7.94698C42.4493 7.97934 42.6147 8.02248 42.7657 8.07641C42.9203 8.12675 43.0587 8.18607 43.181 8.25439C43.3032 8.3227 43.3877 8.38202 43.4345 8.43236C43.4848 8.4791 43.519 8.51865 43.5369 8.55101C43.5549 8.58337 43.5693 8.62472 43.5801 8.67505C43.5909 8.72539 43.5981 8.78471 43.6017 8.85303C43.6088 8.92134 43.6124 9.00583 43.6124 9.10651C43.6124 9.21437 43.6088 9.30605 43.6017 9.38156C43.5945 9.45706 43.5819 9.51819 43.5639 9.56493C43.5459 9.61167 43.5243 9.64582 43.4992 9.6674C43.474 9.68897 43.4452 9.69976 43.4129 9.69976C43.359 9.69976 43.2906 9.66919 43.208 9.60807C43.1253 9.54335 43.0174 9.47324 42.8844 9.39774C42.7549 9.31864 42.5985 9.24853 42.4152 9.1874C42.2354 9.12269 42.0197 9.09033 41.768 9.09033C41.4911 9.09033 41.243 9.14785 41.0237 9.26291C40.808 9.37437 40.6228 9.53616 40.4682 9.74829C40.3172 9.95683 40.2022 10.2103 40.1231 10.5087C40.044 10.8072 40.0044 11.1433 40.0044 11.5173C40.0044 11.9271 40.0458 12.2831 40.1285 12.5851C40.2147 12.8835 40.3352 13.1298 40.4898 13.324C40.648 13.5181 40.8368 13.6637 41.0561 13.7608C41.279 13.8543 41.5289 13.901 41.8057 13.901C42.0574 13.901 42.2749 13.8723 42.4583 13.8147C42.6417 13.7536 42.7981 13.6871 42.9275 13.6152C43.0605 13.5433 43.1684 13.4786 43.2511 13.421C43.3374 13.3635 43.4039 13.3347 43.4506 13.3347C43.4866 13.3347 43.5154 13.3419 43.5369 13.3563C43.5585 13.3707 43.5765 13.3995 43.5909 13.4426C43.6052 13.4858 43.616 13.5469 43.6232 13.626C43.6304 13.7015 43.634 13.804 43.634 13.9334Z" fill="white"/>
<path d="M47.1291 10.9313L48.5691 8.08996H50.1445L47.854 12.3037V14.9905H46.4043V12.352L44.1138 8.08996H45.6988L47.1291 10.9313Z" fill="white"/>
<path d="M55.235 14.435C55.235 14.5392 55.2296 14.6273 55.2188 14.6992C55.2116 14.7675 55.199 14.8233 55.181 14.8664C55.1631 14.9096 55.1397 14.9419 55.1109 14.9635C55.0858 14.9815 55.057 14.9905 55.0246 14.9905H51.5191C51.4004 14.9905 51.2998 14.9563 51.2171 14.888C51.138 14.8161 51.0984 14.701 51.0984 14.5428V8.45933C51.0984 8.30113 51.138 8.18787 51.2171 8.11956C51.2998 8.04765 51.4004 8.01169 51.5191 8.01169H55.0031C55.0354 8.01169 55.0642 8.02068 55.0894 8.03866C55.1145 8.05664 55.1361 8.089 55.1541 8.13574C55.1721 8.17888 55.1846 8.23641 55.1918 8.30832C55.2026 8.37663 55.208 8.46472 55.208 8.57258C55.208 8.67326 55.2026 8.75955 55.1918 8.83146C55.1846 8.89977 55.1721 8.9555 55.1541 8.99864C55.1361 9.04179 55.1145 9.07415 55.0894 9.09572C55.0642 9.1137 55.0354 9.12269 55.0031 9.12269H52.5114V10.8269H54.6202C54.6525 10.8269 54.6813 10.8377 54.7065 10.8593C54.7352 10.8773 54.7586 10.9078 54.7766 10.951C54.7945 10.9905 54.8071 11.0462 54.8143 11.1182C54.8251 11.1865 54.8305 11.271 54.8305 11.3716C54.8305 11.4759 54.8251 11.5622 54.8143 11.6305C54.8071 11.6988 54.7945 11.7546 54.7766 11.7977C54.7586 11.8372 54.7352 11.866 54.7065 11.884C54.6813 11.902 54.6525 11.911 54.6202 11.911H52.5114V13.8795H55.0246C55.057 13.8795 55.0858 13.8902 55.1109 13.9118C55.1397 13.9298 55.1631 13.9604 55.181 14.0035C55.199 14.0466 55.2116 14.1042 55.2188 14.1761C55.2296 14.2444 55.235 14.3307 55.235 14.435Z" fill="white"/>
<path d="M61.8792 14.8017C61.8792 14.8412 61.8684 14.8754 61.8468 14.9042C61.8252 14.9293 61.7857 14.9509 61.7281 14.9689C61.6742 14.9869 61.6005 14.9994 61.507 15.0066C61.4135 15.0174 61.2931 15.0228 61.1457 15.0228C60.9911 15.0228 60.8652 15.0174 60.7682 15.0066C60.6747 14.9994 60.5992 14.9869 60.5416 14.9689C60.4841 14.9473 60.441 14.9203 60.4122 14.888C60.3834 14.852 60.3619 14.8089 60.3475 14.7585L59.7866 13.2053C59.7075 12.9788 59.6248 12.79 59.5385 12.639C59.4522 12.4844 59.3569 12.3604 59.2527 12.2669C59.1484 12.1698 59.0298 12.1015 58.8967 12.062C58.7637 12.0224 58.6145 12.0026 58.4491 12.0026H58.1309V14.7963C58.1309 14.8358 58.1201 14.87 58.0985 14.8988C58.077 14.9239 58.0392 14.9473 57.9853 14.9689C57.9313 14.9869 57.8594 14.9994 57.7696 15.0066C57.6797 15.0174 57.5646 15.0228 57.4244 15.0228C57.2878 15.0228 57.1727 15.0174 57.0792 15.0066C56.9893 14.9994 56.9174 14.9869 56.8635 14.9689C56.8096 14.9473 56.77 14.9239 56.7449 14.8988C56.7233 14.87 56.7125 14.8358 56.7125 14.7963V8.20045C56.7125 8.1609 56.7233 8.12855 56.7449 8.10338C56.77 8.07461 56.8096 8.05124 56.8635 8.03327C56.9174 8.01529 56.9893 8.00271 57.0792 7.99551C57.1727 7.98473 57.2878 7.97934 57.4244 7.97934C57.5646 7.97934 57.6797 7.98473 57.7696 7.99551C57.8594 8.00271 57.9313 8.01529 57.9853 8.03327C58.0392 8.05124 58.077 8.07461 58.0985 8.10338C58.1201 8.12855 58.1309 8.1609 58.1309 8.20045V10.8215H58.4491C58.6109 10.8215 58.7529 10.8 58.8752 10.7568C58.9974 10.7137 59.1071 10.6454 59.2041 10.5519C59.3048 10.4584 59.3947 10.3379 59.4738 10.1905C59.5565 10.0395 59.6356 9.85436 59.7111 9.63504L60.1803 8.2436C60.1983 8.19326 60.2198 8.15192 60.245 8.11956C60.2702 8.0836 60.3097 8.05664 60.3637 8.03866C60.4212 8.01709 60.4949 8.00271 60.5848 7.99551C60.6783 7.98473 60.8023 7.97934 60.9569 7.97934C61.0971 7.97934 61.2122 7.98473 61.3021 7.99551C61.3956 8.00271 61.4675 8.01529 61.5178 8.03327C61.5717 8.04765 61.6077 8.06922 61.6257 8.09798C61.6436 8.12315 61.6526 8.15551 61.6526 8.19506C61.6526 8.2418 61.6436 8.29933 61.6257 8.36764C61.6113 8.43596 61.5843 8.52584 61.5448 8.6373L61.0756 9.87773C60.9893 10.1078 60.903 10.3038 60.8167 10.4656C60.7304 10.6274 60.6387 10.7658 60.5416 10.8809C60.4482 10.9923 60.3475 11.084 60.2396 11.1559C60.1354 11.2278 60.0185 11.2871 59.8891 11.3339V11.3393C60.0329 11.4004 60.1623 11.4705 60.2774 11.5496C60.396 11.6251 60.5057 11.7222 60.6064 11.8408C60.7106 11.9595 60.8095 12.1051 60.903 12.2777C60.9965 12.4503 61.0917 12.6624 61.1888 12.9141L61.7605 14.3595C61.818 14.5069 61.8522 14.6093 61.863 14.6669C61.8738 14.7208 61.8792 14.7657 61.8792 14.8017Z" fill="white"/>
<path d="M30.1063 24.8168C30.1495 24.9462 30.1764 25.0487 30.1872 25.1242C30.198 25.1997 30.1836 25.2572 30.1441 25.2968C30.1045 25.3327 30.0344 25.3543 29.9337 25.3615C29.8331 25.3723 29.6947 25.3777 29.5185 25.3777C29.3351 25.3777 29.1913 25.3741 29.087 25.3669C28.9863 25.3633 28.909 25.3543 28.8551 25.3399C28.8012 25.322 28.7634 25.2986 28.7419 25.2698C28.7203 25.2411 28.7023 25.2033 28.6879 25.1566L28.2187 23.7543H25.5976L25.1554 25.1188C25.141 25.1692 25.1212 25.2123 25.0961 25.2483C25.0745 25.2806 25.0368 25.3076 24.9828 25.3292C24.9325 25.3471 24.8588 25.3597 24.7617 25.3669C24.6682 25.3741 24.5442 25.3777 24.3896 25.3777C24.2242 25.3777 24.0947 25.3723 24.0013 25.3615C23.9078 25.3507 23.8431 25.3256 23.8071 25.286C23.7712 25.2429 23.7586 25.1835 23.7694 25.108C23.7801 25.0325 23.8071 24.9319 23.8503 24.806L26.0021 18.6147C26.0237 18.5535 26.0489 18.505 26.0776 18.469C26.1064 18.4295 26.1513 18.4007 26.2125 18.3828C26.2772 18.3612 26.3653 18.3486 26.4767 18.345C26.5882 18.3378 26.7356 18.3342 26.919 18.3342C27.1311 18.3342 27.3001 18.3378 27.4259 18.345C27.5518 18.3486 27.6488 18.3612 27.7172 18.3828C27.7891 18.4007 27.8394 18.4295 27.8682 18.469C27.9005 18.5086 27.9275 18.5625 27.9491 18.6308L30.1063 24.8168ZM26.9028 19.6987H26.8974L25.9104 22.6649H27.8897L26.9028 19.6987Z" fill="white"/>
<path d="M36.4754 25.1566C36.4754 25.1961 36.4647 25.2303 36.4431 25.259C36.4215 25.2842 36.382 25.3058 36.3244 25.3238C36.2705 25.3417 36.1968 25.3543 36.1033 25.3615C36.0098 25.3723 35.8894 25.3777 35.742 25.3777C35.5874 25.3777 35.4615 25.3723 35.3645 25.3615C35.271 25.3543 35.1955 25.3417 35.1379 25.3238C35.0804 25.3022 35.0373 25.2752 35.0085 25.2429C34.9797 25.2069 34.9582 25.1638 34.9438 25.1134L34.3829 23.5602C34.3038 23.3337 34.2211 23.1449 34.1348 22.9939C34.0485 22.8393 33.9532 22.7153 33.849 22.6218C33.7447 22.5247 33.6261 22.4564 33.493 22.4168C33.36 22.3773 33.2108 22.3575 33.0454 22.3575H32.7272V25.1512C32.7272 25.1907 32.7164 25.2249 32.6948 25.2536C32.6733 25.2788 32.6355 25.3022 32.5816 25.3238C32.5276 25.3417 32.4557 25.3543 32.3659 25.3615C32.276 25.3723 32.1609 25.3777 32.0207 25.3777C31.8841 25.3777 31.769 25.3723 31.6755 25.3615C31.5856 25.3543 31.5137 25.3417 31.4598 25.3238C31.4059 25.3022 31.3663 25.2788 31.3411 25.2536C31.3196 25.2249 31.3088 25.1907 31.3088 25.1512V18.5553C31.3088 18.5158 31.3196 18.4834 31.3411 18.4583C31.3663 18.4295 31.4059 18.4061 31.4598 18.3881C31.5137 18.3702 31.5856 18.3576 31.6755 18.3504C31.769 18.3396 31.8841 18.3342 32.0207 18.3342C32.1609 18.3342 32.276 18.3396 32.3659 18.3504C32.4557 18.3576 32.5276 18.3702 32.5816 18.3881C32.6355 18.4061 32.6733 18.4295 32.6948 18.4583C32.7164 18.4834 32.7272 18.5158 32.7272 18.5553V21.1764H33.0454C33.2072 21.1764 33.3492 21.1548 33.4714 21.1117C33.5937 21.0686 33.7034 21.0002 33.8004 20.9068C33.9011 20.8133 33.991 20.6928 34.0701 20.5454C34.1528 20.3944 34.2319 20.2092 34.3074 19.9899L34.7766 18.5985C34.7946 18.5481 34.8161 18.5068 34.8413 18.4744C34.8665 18.4385 34.906 18.4115 34.96 18.3935C35.0175 18.372 35.0912 18.3576 35.1811 18.3504C35.2746 18.3396 35.3986 18.3342 35.5532 18.3342C35.6934 18.3342 35.8085 18.3396 35.8984 18.3504C35.9919 18.3576 36.0638 18.3702 36.1141 18.3881C36.168 18.4025 36.204 18.4241 36.222 18.4529C36.2399 18.478 36.2489 18.5104 36.2489 18.5499C36.2489 18.5967 36.2399 18.6542 36.222 18.7225C36.2076 18.7908 36.1806 18.8807 36.1411 18.9922L35.6719 20.2326C35.5856 20.4627 35.4993 20.6587 35.413 20.8205C35.3267 20.9823 35.235 21.1207 35.1379 21.2357C35.0445 21.3472 34.9438 21.4389 34.8359 21.5108C34.7317 21.5827 34.6148 21.642 34.4854 21.6888V21.6942C34.6292 21.7553 34.7586 21.8254 34.8737 21.9045C34.9923 21.98 35.102 22.0771 35.2027 22.1957C35.3069 22.3144 35.4058 22.46 35.4993 22.6326C35.5928 22.8052 35.688 23.0173 35.7851 23.269L36.3568 24.7143C36.4143 24.8617 36.4485 24.9642 36.4593 25.0217C36.4701 25.0757 36.4754 25.1206 36.4754 25.1566Z" fill="white"/>
<path d="M42.2675 24.2883C42.2675 24.3782 42.2639 24.4555 42.2567 24.5202C42.2531 24.5813 42.2459 24.6352 42.2351 24.682C42.2243 24.7251 42.21 24.7629 42.192 24.7952C42.174 24.8276 42.1452 24.8653 42.1057 24.9085C42.0661 24.948 41.9888 25.0002 41.8738 25.0649C41.7623 25.1296 41.6239 25.1925 41.4585 25.2536C41.2967 25.3112 41.1098 25.3597 40.8976 25.3993C40.6891 25.4388 40.4626 25.4586 40.2181 25.4586C39.7399 25.4586 39.3084 25.3849 38.9237 25.2375C38.539 25.0901 38.2118 24.8707 37.9422 24.5795C37.6725 24.2847 37.4658 23.9179 37.322 23.4793C37.1781 23.0407 37.1062 22.5301 37.1062 21.9476C37.1062 21.3544 37.1853 20.8277 37.3435 20.3674C37.5017 19.9072 37.7228 19.5207 38.0069 19.2079C38.2909 18.8951 38.6307 18.6578 39.0262 18.496C39.4253 18.3342 39.8639 18.2533 40.3421 18.2533C40.5363 18.2533 40.7232 18.2695 40.903 18.3019C41.0828 18.3342 41.2482 18.3774 41.3992 18.4313C41.5538 18.4816 41.6922 18.541 41.8145 18.6093C41.9367 18.6776 42.0212 18.7369 42.0679 18.7872C42.1183 18.834 42.1524 18.8735 42.1704 18.9059C42.1884 18.9382 42.2028 18.9796 42.2136 19.0299C42.2243 19.0803 42.2315 19.1396 42.2351 19.2079C42.2423 19.2762 42.2459 19.3607 42.2459 19.4614C42.2459 19.5693 42.2423 19.6609 42.2351 19.7364C42.2279 19.8119 42.2154 19.8731 42.1974 19.9198C42.1794 19.9665 42.1578 20.0007 42.1327 20.0223C42.1075 20.0438 42.0787 20.0546 42.0464 20.0546C41.9924 20.0546 41.9241 20.0241 41.8414 19.963C41.7587 19.8982 41.6509 19.8281 41.5178 19.7526C41.3884 19.6735 41.232 19.6034 41.0486 19.5423C40.8689 19.4776 40.6531 19.4452 40.4015 19.4452C40.1246 19.4452 39.8765 19.5027 39.6572 19.6178C39.4415 19.7292 39.2563 19.891 39.1017 20.1032C38.9507 20.3117 38.8356 20.5652 38.7565 20.8636C38.6774 21.162 38.6379 21.4982 38.6379 21.8721C38.6379 22.282 38.6792 22.638 38.7619 22.94C38.8482 23.2384 38.9687 23.4847 39.1233 23.6788C39.2815 23.873 39.4702 24.0186 39.6896 24.1157C39.9125 24.2092 40.1624 24.2559 40.4392 24.2559C40.6909 24.2559 40.9084 24.2271 41.0918 24.1696C41.2751 24.1085 41.4315 24.042 41.561 23.9701C41.694 23.8982 41.8019 23.8334 41.8846 23.7759C41.9709 23.7184 42.0374 23.6896 42.0841 23.6896C42.1201 23.6896 42.1488 23.6968 42.1704 23.7112C42.192 23.7256 42.21 23.7543 42.2243 23.7975C42.2387 23.8406 42.2495 23.9018 42.2567 23.9809C42.2639 24.0564 42.2675 24.1588 42.2675 24.2883Z" fill="white"/>
<path d="M46.8245 23.42C46.6663 23.8227 46.5099 24.1552 46.3553 24.4177C46.2043 24.6802 46.0407 24.8887 45.8645 25.0433C45.6919 25.1943 45.5014 25.2986 45.2928 25.3561C45.0879 25.4172 44.8524 25.4478 44.5863 25.4478C44.4893 25.4478 44.394 25.4406 44.3005 25.4262C44.207 25.4154 44.1189 25.3993 44.0362 25.3777C43.9535 25.3561 43.8816 25.3309 43.8205 25.3022C43.7594 25.2734 43.7144 25.2465 43.6857 25.2213C43.6569 25.1961 43.6335 25.1692 43.6156 25.1404C43.6012 25.108 43.5886 25.0667 43.5778 25.0163C43.567 24.966 43.558 24.9031 43.5508 24.8276C43.5473 24.7485 43.5455 24.6514 43.5455 24.5364C43.5455 24.3278 43.5598 24.1804 43.5886 24.0941C43.621 24.0042 43.6695 23.9593 43.7342 23.9593C43.7666 23.9593 43.8025 23.9719 43.8421 23.997C43.8816 24.0222 43.9284 24.0492 43.9823 24.0779C44.0398 24.1067 44.1045 24.1337 44.1765 24.1588C44.252 24.1804 44.34 24.1912 44.4407 24.1912C44.5162 24.1912 44.5863 24.184 44.6511 24.1696C44.7158 24.1516 44.7769 24.1193 44.8344 24.0725C44.8919 24.0258 44.9495 23.9611 45.007 23.8784C45.0645 23.7921 45.1257 23.6806 45.1904 23.544L42.8929 18.8681C42.8425 18.7567 42.812 18.6668 42.8012 18.5985C42.794 18.5266 42.812 18.4708 42.8551 18.4313C42.8983 18.3917 42.9702 18.3666 43.0709 18.3558C43.1751 18.3414 43.3135 18.3342 43.4861 18.3342C43.6551 18.3342 43.7899 18.3378 43.8906 18.345C43.9913 18.3522 44.0722 18.3684 44.1333 18.3935C44.1944 18.4151 44.2412 18.4493 44.2735 18.496C44.3059 18.5392 44.3382 18.5967 44.3706 18.6686L45.3522 20.7827C45.46 21.0092 45.5625 21.2357 45.6596 21.4623C45.7567 21.6852 45.8501 21.9117 45.94 22.1418H45.9562C46.0281 21.9009 46.1036 21.6672 46.1827 21.4407C46.2654 21.2106 46.3553 20.9697 46.4524 20.718L47.256 18.5715C47.2739 18.5212 47.2973 18.4816 47.3261 18.4529C47.3548 18.4205 47.398 18.3953 47.4555 18.3774C47.513 18.3594 47.5921 18.3486 47.6928 18.345C47.7935 18.3378 47.9247 18.3342 48.0865 18.3342C48.2519 18.3342 48.3831 18.3396 48.4802 18.3504C48.5773 18.3612 48.6474 18.3828 48.6905 18.4151C48.7337 18.4439 48.7535 18.4852 48.7499 18.5392C48.7463 18.5931 48.7283 18.6632 48.6959 18.7495L46.8245 23.42Z" fill="white"/>
<path d="M53.9163 24.7898C53.9163 24.8941 53.9109 24.9822 53.9001 25.0541C53.8929 25.1224 53.8803 25.1781 53.8624 25.2213C53.8444 25.2644 53.821 25.2968 53.7923 25.3184C53.7671 25.3363 53.7383 25.3453 53.706 25.3453H50.2004C50.0818 25.3453 49.9811 25.3112 49.8984 25.2429C49.8193 25.171 49.7797 25.0559 49.7797 24.8977V18.8142C49.7797 18.656 49.8193 18.5428 49.8984 18.4744C49.9811 18.4025 50.0818 18.3666 50.2004 18.3666H53.6844C53.7168 18.3666 53.7455 18.3756 53.7707 18.3935C53.7959 18.4115 53.8174 18.4439 53.8354 18.4906C53.8534 18.5338 53.866 18.5913 53.8732 18.6632C53.8839 18.7315 53.8893 18.8196 53.8893 18.9275C53.8893 19.0281 53.8839 19.1144 53.8732 19.1863C53.866 19.2546 53.8534 19.3104 53.8354 19.3535C53.8174 19.3967 53.7959 19.429 53.7707 19.4506C53.7455 19.4686 53.7168 19.4776 53.6844 19.4776H51.1927V21.1818H53.3015C53.3338 21.1818 53.3626 21.1926 53.3878 21.2142C53.4165 21.2321 53.4399 21.2627 53.4579 21.3059C53.4759 21.3454 53.4884 21.4011 53.4956 21.473C53.5064 21.5414 53.5118 21.6258 53.5118 21.7265C53.5118 21.8308 53.5064 21.9171 53.4956 21.9854C53.4884 22.0537 53.4759 22.1094 53.4579 22.1526C53.4399 22.1921 53.4165 22.2209 53.3878 22.2389C53.3626 22.2568 53.3338 22.2658 53.3015 22.2658H51.1927V24.2343H53.706C53.7383 24.2343 53.7671 24.2451 53.7923 24.2667C53.821 24.2847 53.8444 24.3152 53.8624 24.3584C53.8803 24.4015 53.8929 24.4591 53.9001 24.531C53.9109 24.5993 53.9163 24.6856 53.9163 24.7898Z" fill="white"/>
<path d="M60.5605 25.1566C60.5605 25.1961 60.5497 25.2303 60.5281 25.259C60.5065 25.2842 60.467 25.3058 60.4095 25.3238C60.3555 25.3417 60.2818 25.3543 60.1883 25.3615C60.0949 25.3723 59.9744 25.3777 59.827 25.3777C59.6724 25.3777 59.5465 25.3723 59.4495 25.3615C59.356 25.3543 59.2805 25.3417 59.223 25.3238C59.1654 25.3022 59.1223 25.2752 59.0935 25.2429C59.0648 25.2069 59.0432 25.1638 59.0288 25.1134L58.4679 23.5602C58.3888 23.3337 58.3061 23.1449 58.2198 22.9939C58.1335 22.8393 58.0383 22.7153 57.934 22.6218C57.8297 22.5247 57.7111 22.4564 57.578 22.4168C57.445 22.3773 57.2958 22.3575 57.1304 22.3575H56.8122V25.1512C56.8122 25.1907 56.8014 25.2249 56.7799 25.2536C56.7583 25.2788 56.7205 25.3022 56.6666 25.3238C56.6127 25.3417 56.5408 25.3543 56.4509 25.3615C56.361 25.3723 56.2459 25.3777 56.1057 25.3777C55.9691 25.3777 55.854 25.3723 55.7605 25.3615C55.6707 25.3543 55.5987 25.3417 55.5448 25.3238C55.4909 25.3022 55.4513 25.2788 55.4262 25.2536C55.4046 25.2249 55.3938 25.1907 55.3938 25.1512V18.5553C55.3938 18.5158 55.4046 18.4834 55.4262 18.4583C55.4513 18.4295 55.4909 18.4061 55.5448 18.3881C55.5987 18.3702 55.6707 18.3576 55.7605 18.3504C55.854 18.3396 55.9691 18.3342 56.1057 18.3342C56.2459 18.3342 56.361 18.3396 56.4509 18.3504C56.5408 18.3576 56.6127 18.3702 56.6666 18.3881C56.7205 18.4061 56.7583 18.4295 56.7799 18.4583C56.8014 18.4834 56.8122 18.5158 56.8122 18.5553V21.1764H57.1304C57.2922 21.1764 57.4342 21.1548 57.5565 21.1117C57.6787 21.0686 57.7884 21.0002 57.8855 20.9068C57.9861 20.8133 58.076 20.6928 58.1551 20.5454C58.2378 20.3944 58.3169 20.2092 58.3924 19.9899L58.8616 18.5985C58.8796 18.5481 58.9012 18.5068 58.9263 18.4744C58.9515 18.4385 58.9911 18.4115 59.045 18.3935C59.1025 18.372 59.1762 18.3576 59.2661 18.3504C59.3596 18.3396 59.4836 18.3342 59.6382 18.3342C59.7785 18.3342 59.8935 18.3396 59.9834 18.3504C60.0769 18.3576 60.1488 18.3702 60.1991 18.3881C60.2531 18.4025 60.289 18.4241 60.307 18.4529C60.325 18.478 60.334 18.5104 60.334 18.5499C60.334 18.5967 60.325 18.6542 60.307 18.7225C60.2926 18.7908 60.2656 18.8807 60.2261 18.9922L59.7569 20.2326C59.6706 20.4627 59.5843 20.6587 59.498 20.8205C59.4117 20.9823 59.32 21.1207 59.223 21.2357C59.1295 21.3472 59.0288 21.4389 58.9209 21.5108C58.8167 21.5827 58.6998 21.642 58.5704 21.6888V21.6942C58.7142 21.7553 58.8436 21.8254 58.9587 21.9045C59.0773 21.98 59.187 22.0771 59.2877 22.1957C59.3919 22.3144 59.4908 22.46 59.5843 22.6326C59.6778 22.8052 59.7731 23.0173 59.8701 23.269L60.4418 24.7143C60.4993 24.8617 60.5335 24.9642 60.5443 25.0217C60.5551 25.0757 60.5605 25.1206 60.5605 25.1566Z" fill="white"/>
<path d="M29.4484 33.5376C29.4484 33.854 29.3944 34.1434 29.2866 34.4059C29.1787 34.6683 29.0151 34.8966 28.7958 35.0908C28.5801 35.2813 28.305 35.4306 27.9706 35.5384C27.6363 35.6463 27.203 35.7002 26.6709 35.7002H24.8318C24.7024 35.7002 24.5963 35.6661 24.5136 35.5977C24.4345 35.5258 24.395 35.4054 24.395 35.2364V29.1691C24.395 29.0109 24.4345 28.8976 24.5136 28.8293C24.5963 28.7574 24.697 28.7215 24.8156 28.7215H28.7634C28.7994 28.7215 28.8299 28.7304 28.8551 28.7484C28.8839 28.7664 28.9072 28.7988 28.9252 28.8455C28.9468 28.8886 28.9612 28.9462 28.9684 29.0181C28.9792 29.0864 28.9846 29.1745 28.9846 29.2823C28.9846 29.383 28.9792 29.4693 28.9684 29.5412C28.9612 29.6095 28.9468 29.6671 28.9252 29.7138C28.9072 29.7569 28.8839 29.7893 28.8551 29.8109C28.8299 29.8288 28.8012 29.8378 28.7688 29.8378H25.8134V31.5744H26.9729C27.4223 31.5744 27.7927 31.6176 28.0839 31.7039C28.3751 31.7902 28.6214 31.9178 28.8228 32.0868C29.0241 32.2558 29.1787 32.4625 29.2866 32.707C29.3944 32.9515 29.4484 33.2283 29.4484 33.5376ZM28.0084 33.6292C28.0084 33.4746 27.9832 33.3362 27.9329 33.214C27.8825 33.0881 27.8088 32.9821 27.7118 32.8958C27.6147 32.8059 27.4888 32.7376 27.3342 32.6908C27.1832 32.6441 26.9801 32.6207 26.7248 32.6207H25.8134V34.6324H26.741C26.9711 34.6324 27.1599 34.6108 27.3073 34.5676C27.4583 34.5245 27.5841 34.4598 27.6848 34.3735C27.7855 34.2872 27.8646 34.1811 27.9221 34.0553C27.9796 33.9295 28.0084 33.7874 28.0084 33.6292Z" fill="white"/>
<path d="M36.3352 35.1717C36.3784 35.3011 36.4053 35.4036 36.4161 35.4791C36.4269 35.5546 36.4125 35.6121 36.373 35.6517C36.3334 35.6876 36.2633 35.7092 36.1626 35.7164C36.062 35.7272 35.9235 35.7326 35.7474 35.7326C35.564 35.7326 35.4202 35.729 35.3159 35.7218C35.2152 35.7182 35.1379 35.7092 35.084 35.6948C35.0301 35.6768 34.9923 35.6535 34.9707 35.6247C34.9492 35.5959 34.9312 35.5582 34.9168 35.5115L34.4476 34.1092H31.8265L31.3843 35.4737C31.3699 35.524 31.3501 35.5672 31.325 35.6031C31.3034 35.6355 31.2656 35.6625 31.2117 35.684C31.1614 35.702 31.0877 35.7146 30.9906 35.7218C30.8971 35.729 30.7731 35.7326 30.6185 35.7326C30.4531 35.7326 30.3236 35.7272 30.2302 35.7164C30.1367 35.7056 30.072 35.6804 30.036 35.6409C30 35.5977 29.9875 35.5384 29.9983 35.4629C30.009 35.3874 30.036 35.2867 30.0791 35.1609L32.231 28.9695C32.2526 28.9084 32.2778 28.8599 32.3065 28.8239C32.3353 28.7844 32.3802 28.7556 32.4414 28.7376C32.5061 28.7161 32.5942 28.7035 32.7056 28.6999C32.8171 28.6927 32.9645 28.6891 33.1479 28.6891C33.36 28.6891 33.529 28.6927 33.6548 28.6999C33.7807 28.7035 33.8777 28.7161 33.946 28.7376C34.018 28.7556 34.0683 28.7844 34.0971 28.8239C34.1294 28.8635 34.1564 28.9174 34.178 28.9857L36.3352 35.1717ZM33.1317 30.0536H33.1263L32.1393 33.0198H34.1186L33.1317 30.0536Z" fill="white"/>
<path d="M42.9578 35.5168C42.9578 35.5528 42.947 35.5852 42.9255 35.6139C42.9039 35.6391 42.8661 35.6607 42.8122 35.6786C42.7583 35.6966 42.6846 35.7092 42.5911 35.7164C42.5012 35.7272 42.3879 35.7326 42.2513 35.7326C42.1111 35.7326 41.996 35.7272 41.9061 35.7164C41.8163 35.7092 41.7444 35.6966 41.6904 35.6786C41.6365 35.6607 41.5987 35.6391 41.5772 35.6139C41.5556 35.5852 41.5448 35.5528 41.5448 35.5168V29.8864H40.0455C39.9448 30.7097 39.8424 31.4288 39.7381 32.0436C39.6338 32.6585 39.5224 33.1852 39.4037 33.6238C39.2851 34.0625 39.1538 34.422 39.01 34.7025C38.8698 34.9829 38.708 35.2058 38.5246 35.3712C38.3449 35.533 38.1399 35.6445 37.9098 35.7056C37.6833 35.7667 37.4244 35.7973 37.1332 35.7973C37.0793 35.7973 37.0325 35.7901 36.993 35.7757C36.9534 35.7613 36.9211 35.7344 36.8959 35.6948C36.8743 35.6553 36.8581 35.5995 36.8474 35.5276C36.8366 35.4557 36.8312 35.364 36.8312 35.2526C36.8312 35.098 36.8348 34.9739 36.842 34.8805C36.8492 34.7834 36.8617 34.7097 36.8797 34.6593C36.8977 34.6054 36.9211 34.5694 36.9498 34.5515C36.9786 34.5335 37.0127 34.5245 37.0523 34.5245C37.1638 34.5245 37.2698 34.5029 37.3705 34.4598C37.4748 34.413 37.5736 34.3232 37.6671 34.1901C37.7642 34.0571 37.8559 33.8701 37.9422 33.6292C38.0321 33.3883 38.1183 33.0719 38.201 32.68C38.2873 32.2845 38.3718 31.8045 38.4545 31.2401C38.5408 30.672 38.6271 29.9978 38.7134 29.2176C38.735 29.0343 38.7781 28.9066 38.8428 28.8347C38.9075 28.7592 39.0028 28.7215 39.1287 28.7215H42.5533C42.6828 28.7215 42.7816 28.7592 42.85 28.8347C42.9219 28.9066 42.9578 29.0181 42.9578 29.1691V35.5168Z" fill="white"/>
<path d="M50.3038 28.7997L47.791 32.1147L49.5113 34.4438H51.0577V37.7104H49.6466V35.7002H48.7768L46.2737 32.2016V35.7002H44.8144V28.7997H46.2737V32.1437L48.7478 28.7997H50.3038Z" fill="white"/>
<path d="M57.9201 35.1717C57.9632 35.3011 57.9902 35.4036 58.001 35.4791C58.0118 35.5546 57.9974 35.6121 57.9578 35.6517C57.9183 35.6876 57.8482 35.7092 57.7475 35.7164C57.6468 35.7272 57.5084 35.7326 57.3322 35.7326C57.1489 35.7326 57.005 35.729 56.9008 35.7218C56.8001 35.7182 56.7228 35.7092 56.6689 35.6948C56.6149 35.6768 56.5772 35.6535 56.5556 35.6247C56.534 35.5959 56.5161 35.5582 56.5017 35.5115L56.0325 34.1092H53.4114L52.9692 35.4737C52.9548 35.524 52.935 35.5672 52.9098 35.6031C52.8883 35.6355 52.8505 35.6625 52.7966 35.684C52.7462 35.702 52.6725 35.7146 52.5755 35.7218C52.482 35.729 52.3579 35.7326 52.2033 35.7326C52.0379 35.7326 51.9085 35.7272 51.815 35.7164C51.7215 35.7056 51.6568 35.6804 51.6209 35.6409C51.5849 35.5977 51.5723 35.5384 51.5831 35.4629C51.5939 35.3874 51.6209 35.2867 51.664 35.1609L53.8159 28.9695C53.8375 28.9084 53.8626 28.8599 53.8914 28.8239C53.9201 28.7844 53.9651 28.7556 54.0262 28.7376C54.0909 28.7161 54.179 28.7035 54.2905 28.6999C54.4019 28.6927 54.5493 28.6891 54.7327 28.6891C54.9448 28.6891 55.1138 28.6927 55.2397 28.6999C55.3655 28.7035 55.4626 28.7161 55.5309 28.7376C55.6028 28.7556 55.6532 28.7844 55.6819 28.8239C55.7143 28.8635 55.7412 28.9174 55.7628 28.9857L57.9201 35.1717ZM54.7165 30.0536H54.7111L53.7242 33.0198H55.7035L54.7165 30.0536Z" fill="white"/>
<path d="M67.5089 35.2526C67.5089 35.4036 67.473 35.5168 67.4011 35.5923C67.3291 35.6643 67.2285 35.7002 67.099 35.7002H59.5432C59.4174 35.7002 59.3149 35.6643 59.2358 35.5923C59.1603 35.5168 59.1225 35.4036 59.1225 35.2526V28.894C59.1225 28.8581 59.1333 28.8275 59.1549 28.8024C59.1801 28.7772 59.2196 28.7574 59.2735 28.743C59.3275 28.725 59.3994 28.7125 59.4893 28.7053C59.5792 28.6945 59.6888 28.6891 59.8183 28.6891C59.9513 28.6891 60.061 28.6945 60.1472 28.7053C60.2371 28.7125 60.309 28.725 60.363 28.743C60.4169 28.7574 60.4547 28.7772 60.4762 28.8024C60.5014 28.8275 60.514 28.8581 60.514 28.894V34.5461H62.6227V28.894C62.6227 28.8581 62.6335 28.8275 62.6551 28.8024C62.6802 28.7772 62.718 28.7574 62.7683 28.743C62.8223 28.725 62.8942 28.7125 62.984 28.7053C63.0739 28.6945 63.1836 28.6891 63.313 28.6891C63.4425 28.6891 63.5503 28.6945 63.6366 28.7053C63.7265 28.7125 63.7984 28.725 63.8523 28.743C63.9063 28.7574 63.944 28.7772 63.9656 28.8024C63.9908 28.8275 64.0034 28.8581 64.0034 28.894V34.5461H66.1175V28.894C66.1175 28.8581 66.1283 28.8275 66.1498 28.8024C66.175 28.7772 66.2146 28.7574 66.2685 28.743C66.3224 28.725 66.3925 28.7125 66.4788 28.7053C66.5687 28.6945 66.6802 28.6891 66.8132 28.6891C66.9426 28.6891 67.0505 28.6945 67.1368 28.7053C67.2267 28.7125 67.2986 28.725 67.3525 28.743C67.4064 28.7574 67.446 28.7772 67.4712 28.8024C67.4963 28.8275 67.5089 28.8581 67.5089 28.894V35.2526Z" fill="white"/>
<path d="M29.4484 43.8924C29.4484 44.2088 29.3944 44.4983 29.2866 44.7607C29.1787 45.0232 29.0151 45.2515 28.7958 45.4457C28.5801 45.6362 28.305 45.7854 27.9706 45.8933C27.6363 46.0012 27.203 46.0551 26.6709 46.0551H24.8318C24.7024 46.0551 24.5963 46.0209 24.5136 45.9526C24.4345 45.8807 24.395 45.7603 24.395 45.5913V39.524C24.395 39.3658 24.4345 39.2525 24.5136 39.1842C24.5963 39.1123 24.697 39.0763 24.8156 39.0763H28.7634C28.7994 39.0763 28.8299 39.0853 28.8551 39.1033C28.8839 39.1213 28.9072 39.1536 28.9252 39.2004C28.9468 39.2435 28.9612 39.3011 28.9684 39.373C28.9792 39.4413 28.9846 39.5294 28.9846 39.6372C28.9846 39.7379 28.9792 39.8242 28.9684 39.8961C28.9612 39.9644 28.9468 40.0219 28.9252 40.0687C28.9072 40.1118 28.8839 40.1442 28.8551 40.1658C28.8299 40.1837 28.8012 40.1927 28.7688 40.1927H25.8134V41.9293H26.9729C27.4223 41.9293 27.7927 41.9725 28.0839 42.0588C28.3751 42.145 28.6214 42.2727 28.8228 42.4417C29.0241 42.6107 29.1787 42.8174 29.2866 43.0619C29.3944 43.3064 29.4484 43.5832 29.4484 43.8924ZM28.0084 43.9841C28.0084 43.8295 27.9832 43.6911 27.9329 43.5688C27.8825 43.443 27.8088 43.3369 27.7118 43.2506C27.6147 43.1608 27.4888 43.0924 27.3342 43.0457C27.1832 42.999 26.9801 42.9756 26.7248 42.9756H25.8134V44.9872H26.741C26.9711 44.9872 27.1599 44.9657 27.3073 44.9225C27.4583 44.8794 27.5841 44.8147 27.6848 44.7284C27.7855 44.6421 27.8646 44.536 27.9221 44.4102C27.9796 44.2843 28.0084 44.1423 28.0084 43.9841Z" fill="white"/>
<path d="M36.3352 45.5266C36.3784 45.656 36.4053 45.7585 36.4161 45.834C36.4269 45.9095 36.4125 45.967 36.373 46.0066C36.3334 46.0425 36.2633 46.0641 36.1626 46.0713C36.062 46.0821 35.9235 46.0875 35.7474 46.0875C35.564 46.0875 35.4202 46.0839 35.3159 46.0767C35.2152 46.0731 35.1379 46.0641 35.084 46.0497C35.0301 46.0317 34.9923 46.0084 34.9707 45.9796C34.9492 45.9508 34.9312 45.9131 34.9168 45.8663L34.4476 44.4641H31.8265L31.3843 45.8286C31.3699 45.8789 31.3501 45.9221 31.325 45.958C31.3034 45.9904 31.2656 46.0173 31.2117 46.0389C31.1614 46.0569 31.0877 46.0695 30.9906 46.0767C30.8971 46.0839 30.7731 46.0875 30.6185 46.0875C30.4531 46.0875 30.3236 46.0821 30.2302 46.0713C30.1367 46.0605 30.072 46.0353 30.036 45.9958C30 45.9526 29.9875 45.8933 29.9983 45.8178C30.009 45.7423 30.036 45.6416 30.0791 45.5158L32.231 39.3244C32.2526 39.2633 32.2778 39.2148 32.3065 39.1788C32.3353 39.1393 32.3802 39.1105 32.4414 39.0925C32.5061 39.0709 32.5942 39.0584 32.7056 39.0548C32.8171 39.0476 32.9645 39.044 33.1479 39.044C33.36 39.044 33.529 39.0476 33.6548 39.0548C33.7807 39.0584 33.8777 39.0709 33.946 39.0925C34.018 39.1105 34.0683 39.1393 34.0971 39.1788C34.1294 39.2184 34.1564 39.2723 34.178 39.3406L36.3352 45.5266ZM33.1317 40.4084H33.1263L32.1393 43.3747H34.1186L33.1317 40.4084Z" fill="white"/>
<path d="M42.9578 45.8717C42.9578 45.9077 42.947 45.94 42.9255 45.9688C42.9039 45.994 42.8661 46.0155 42.8122 46.0335C42.7583 46.0515 42.6846 46.0641 42.5911 46.0713C42.5012 46.0821 42.3879 46.0875 42.2513 46.0875C42.1111 46.0875 41.996 46.0821 41.9061 46.0713C41.8163 46.0641 41.7444 46.0515 41.6904 46.0335C41.6365 46.0155 41.5987 45.994 41.5772 45.9688C41.5556 45.94 41.5448 45.9077 41.5448 45.8717V40.2413H40.0455C39.9448 41.0646 39.8424 41.7837 39.7381 42.3985C39.6338 43.0133 39.5224 43.5401 39.4037 43.9787C39.2851 44.4174 39.1538 44.7769 39.01 45.0574C38.8698 45.3378 38.708 45.5607 38.5246 45.7261C38.3449 45.8879 38.1399 45.9994 37.9098 46.0605C37.6833 46.1216 37.4244 46.1522 37.1332 46.1522C37.0793 46.1522 37.0325 46.145 36.993 46.1306C36.9534 46.1162 36.9211 46.0892 36.8959 46.0497C36.8743 46.0102 36.8581 45.9544 36.8474 45.8825C36.8366 45.8106 36.8312 45.7189 36.8312 45.6075C36.8312 45.4529 36.8348 45.3288 36.842 45.2353C36.8492 45.1383 36.8617 45.0645 36.8797 45.0142C36.8977 44.9603 36.9211 44.9243 36.9498 44.9063C36.9786 44.8884 37.0127 44.8794 37.0523 44.8794C37.1638 44.8794 37.2698 44.8578 37.3705 44.8147C37.4748 44.7679 37.5736 44.678 37.6671 44.545C37.7642 44.412 37.8559 44.225 37.9422 43.9841C38.0321 43.7432 38.1183 43.4268 38.201 43.0349C38.2873 42.6394 38.3718 42.1594 38.4545 41.5949C38.5408 41.0269 38.6271 40.3527 38.7134 39.5725C38.735 39.3891 38.7781 39.2615 38.8428 39.1896C38.9075 39.1141 39.0028 39.0763 39.1287 39.0763H42.5533C42.6828 39.0763 42.7816 39.1141 42.85 39.1896C42.9219 39.2615 42.9578 39.373 42.9578 39.524V45.8717Z" fill="white"/>
<path d="M49.6775 45.5212C49.7422 45.647 49.7836 45.7477 49.8015 45.8232C49.8231 45.8987 49.8123 45.9562 49.7692 45.9958C49.726 46.0353 49.6469 46.0605 49.5319 46.0713C49.4204 46.0821 49.264 46.0875 49.0627 46.0875C48.8937 46.0875 48.7606 46.0839 48.6636 46.0767C48.5665 46.0695 48.4892 46.0587 48.4317 46.0443C48.3777 46.0263 48.3382 46.003 48.313 45.9742C48.2878 45.9454 48.2663 45.9095 48.2483 45.8663L46.9378 43.3477L45.6326 45.8663C45.611 45.9095 45.5877 45.9454 45.5625 45.9742C45.5373 46.003 45.496 46.0263 45.4385 46.0443C45.3845 46.0587 45.3072 46.0695 45.2065 46.0767C45.1095 46.0839 44.98 46.0875 44.8182 46.0875C44.6313 46.0875 44.4857 46.0821 44.3814 46.0713C44.2807 46.0605 44.2124 46.0353 44.1765 45.9958C44.1405 45.9562 44.1333 45.8987 44.1549 45.8232C44.1765 45.7477 44.2214 45.647 44.2897 45.5212L45.9616 42.474L44.4084 39.6103C44.3436 39.4808 44.2987 39.3784 44.2735 39.3028C44.252 39.2237 44.2609 39.1662 44.3005 39.1303C44.3436 39.0907 44.4209 39.0673 44.5324 39.0602C44.6439 39.0494 44.8021 39.044 45.007 39.044C45.176 39.044 45.309 39.0476 45.4061 39.0548C45.5068 39.062 45.5859 39.0745 45.6434 39.0925C45.7009 39.1069 45.7405 39.1285 45.762 39.1572C45.7872 39.186 45.8106 39.222 45.8322 39.2651L47.0564 41.5734L48.2483 39.2651C48.2699 39.222 48.2914 39.186 48.313 39.1572C48.3382 39.1285 48.3759 39.1069 48.4263 39.0925C48.4802 39.0745 48.5521 39.062 48.642 39.0548C48.7355 39.0476 48.8631 39.044 49.0249 39.044C49.2047 39.044 49.3467 39.0494 49.451 39.0602C49.5552 39.0673 49.6271 39.0907 49.6667 39.1303C49.7062 39.1698 49.7152 39.2273 49.6937 39.3028C49.6757 39.3784 49.6361 39.4808 49.575 39.6103L48.0218 42.4579L49.6775 45.5212Z" fill="white"/>
<path d="M56.7261 45.5266C56.7693 45.656 56.7962 45.7585 56.807 45.834C56.8178 45.9095 56.8034 45.967 56.7639 46.0066C56.7243 46.0425 56.6542 46.0641 56.5536 46.0713C56.4529 46.0821 56.3145 46.0875 56.1383 46.0875C55.9549 46.0875 55.8111 46.0839 55.7068 46.0767C55.6062 46.0731 55.5289 46.0641 55.4749 46.0497C55.421 46.0317 55.3832 46.0084 55.3617 45.9796C55.3401 45.9508 55.3221 45.9131 55.3077 45.8663L54.8385 44.4641H52.2175L51.7752 45.8286C51.7608 45.8789 51.7411 45.9221 51.7159 45.958C51.6943 45.9904 51.6566 46.0173 51.6026 46.0389C51.5523 46.0569 51.4786 46.0695 51.3815 46.0767C51.288 46.0839 51.164 46.0875 51.0094 46.0875C50.844 46.0875 50.7146 46.0821 50.6211 46.0713C50.5276 46.0605 50.4629 46.0353 50.4269 45.9958C50.391 45.9526 50.3784 45.8933 50.3892 45.8178C50.4 45.7423 50.4269 45.6416 50.4701 45.5158L52.6219 39.3244C52.6435 39.2633 52.6687 39.2148 52.6974 39.1788C52.7262 39.1393 52.7711 39.1105 52.8323 39.0925C52.897 39.0709 52.9851 39.0584 53.0965 39.0548C53.208 39.0476 53.3554 39.044 53.5388 39.044C53.7509 39.044 53.9199 39.0476 54.0457 39.0548C54.1716 39.0584 54.2687 39.0709 54.337 39.0925C54.4089 39.1105 54.4592 39.1393 54.488 39.1788C54.5203 39.2184 54.5473 39.2723 54.5689 39.3406L56.7261 45.5266ZM53.5226 40.4084H53.5172L52.5303 43.3747H54.5095L53.5226 40.4084Z" fill="white"/>
<path d="M66.315 45.6075C66.315 45.7585 66.279 45.8717 66.2071 45.9472C66.1352 46.0191 66.0345 46.0551 65.9051 46.0551H58.3493C58.2234 46.0551 58.121 46.0191 58.0419 45.9472C57.9664 45.8717 57.9286 45.7585 57.9286 45.6075V39.2489C57.9286 39.213 57.9394 39.1824 57.961 39.1572C57.9861 39.1321 58.0257 39.1123 58.0796 39.0979C58.1335 39.0799 58.2054 39.0673 58.2953 39.0602C58.3852 39.0494 58.4949 39.044 58.6243 39.044C58.7573 39.044 58.867 39.0494 58.9533 39.0602C59.0432 39.0673 59.1151 39.0799 59.169 39.0979C59.223 39.1123 59.2607 39.1321 59.2823 39.1572C59.3074 39.1824 59.32 39.213 59.32 39.2489V44.901H61.4288V39.2489C61.4288 39.213 61.4395 39.1824 61.4611 39.1572C61.4863 39.1321 61.524 39.1123 61.5744 39.0979C61.6283 39.0799 61.7002 39.0673 61.7901 39.0602C61.88 39.0494 61.9897 39.044 62.1191 39.044C62.2485 39.044 62.3564 39.0494 62.4427 39.0602C62.5326 39.0673 62.6045 39.0799 62.6584 39.0979C62.7123 39.1123 62.7501 39.1321 62.7717 39.1572C62.7968 39.1824 62.8094 39.213 62.8094 39.2489V44.901H64.9235V39.2489C64.9235 39.213 64.9343 39.1824 64.9559 39.1572C64.9811 39.1321 65.0206 39.1123 65.0745 39.0979C65.1285 39.0799 65.1986 39.0673 65.2849 39.0602C65.3748 39.0494 65.4862 39.044 65.6193 39.044C65.7487 39.044 65.8566 39.0494 65.9428 39.0602C66.0327 39.0673 66.1046 39.0799 66.1586 39.0979C66.2125 39.1123 66.252 39.1321 66.2772 39.1572C66.3024 39.1824 66.315 39.213 66.315 39.2489V45.6075Z" fill="white"/>
<path d="M29.9884 49.5095L27.4756 52.8244L29.1959 55.1536H30.7422V58.4202H29.3312V56.41H28.4614L25.9583 52.9114V56.41H24.4989V49.5095H25.9583V52.8534L28.4324 49.5095H29.9884Z" fill="white"/>
<path d="M37.6047 55.8814C37.6478 56.0109 37.6748 56.1133 37.6856 56.1889C37.6963 56.2644 37.682 56.3219 37.6424 56.3614C37.6029 56.3974 37.5328 56.419 37.4321 56.4262C37.3314 56.4369 37.193 56.4423 37.0168 56.4423C36.8334 56.4423 36.6896 56.4387 36.5854 56.4315C36.4847 56.4279 36.4074 56.419 36.3534 56.4046C36.2995 56.3866 36.2618 56.3632 36.2402 56.3345C36.2186 56.3057 36.2006 56.268 36.1863 56.2212L35.7171 54.819H33.096L32.6537 56.1835C32.6394 56.2338 32.6196 56.2769 32.5944 56.3129C32.5728 56.3453 32.5351 56.3722 32.4812 56.3938C32.4308 56.4118 32.3571 56.4244 32.26 56.4315C32.1666 56.4387 32.0425 56.4423 31.8879 56.4423C31.7225 56.4423 31.5931 56.4369 31.4996 56.4262C31.4061 56.4154 31.3414 56.3902 31.3054 56.3506C31.2695 56.3075 31.2569 56.2482 31.2677 56.1727C31.2785 56.0972 31.3054 55.9965 31.3486 55.8707L33.5005 49.6793C33.522 49.6182 33.5472 49.5696 33.576 49.5337C33.6047 49.4941 33.6497 49.4654 33.7108 49.4474C33.7755 49.4258 33.8636 49.4132 33.9751 49.4096C34.0865 49.4025 34.2339 49.3989 34.4173 49.3989C34.6294 49.3989 34.7984 49.4025 34.9243 49.4096C35.0501 49.4132 35.1472 49.4258 35.2155 49.4474C35.2874 49.4654 35.3377 49.4941 35.3665 49.5337C35.3989 49.5732 35.4258 49.6272 35.4474 49.6955L37.6047 55.8814ZM34.4011 50.7633H34.3957L33.4088 53.7296H35.3881L34.4011 50.7633Z" fill="white"/>
<path d="M43.5855 51.5507C43.5855 51.9426 43.5244 52.2896 43.4021 52.5916C43.2799 52.8936 43.1019 53.1489 42.8682 53.3574C42.6345 53.5624 42.3468 53.7188 42.0053 53.8266C41.6673 53.9345 41.2682 53.9884 40.808 53.9884H40.2255V56.2158C40.2255 56.2518 40.2129 56.2841 40.1878 56.3129C40.1662 56.3417 40.1285 56.365 40.0745 56.383C40.0206 56.401 39.9487 56.4154 39.8588 56.4262C39.7689 56.4369 39.6539 56.4423 39.5136 56.4423C39.377 56.4423 39.262 56.4369 39.1685 56.4262C39.0786 56.4154 39.0067 56.401 38.9527 56.383C38.8988 56.365 38.8611 56.3417 38.8395 56.3129C38.8179 56.2841 38.8071 56.2518 38.8071 56.2158V49.9382C38.8071 49.7692 38.8503 49.6433 38.9366 49.5606C39.0264 49.4744 39.1433 49.4312 39.2871 49.4312H40.932C41.0974 49.4312 41.2538 49.4384 41.4012 49.4528C41.5522 49.4636 41.732 49.4905 41.9406 49.5337C42.1491 49.5732 42.3594 49.6487 42.5716 49.7602C42.7873 49.8717 42.9707 50.0137 43.1217 50.1863C43.2727 50.3552 43.3877 50.5548 43.4668 50.7849C43.5459 51.0114 43.5855 51.2667 43.5855 51.5507ZM42.1024 51.6532C42.1024 51.4087 42.0592 51.2074 41.9729 51.0492C41.8866 50.891 41.7806 50.7741 41.6547 50.6986C41.5289 50.6231 41.3958 50.5764 41.2556 50.5584C41.119 50.5368 40.977 50.526 40.8296 50.526H40.2255V52.8936H40.8619C41.0884 52.8936 41.2772 52.8631 41.4282 52.8019C41.5828 52.7408 41.7087 52.6563 41.8057 52.5485C41.9028 52.437 41.9765 52.3058 42.0268 52.1548C42.0772 52.0002 42.1024 51.833 42.1024 51.6532Z" fill="white"/>
<path d="M50.0085 55.8814C50.0517 56.0109 50.0786 56.1133 50.0894 56.1889C50.1002 56.2644 50.0858 56.3219 50.0463 56.3614C50.0067 56.3974 49.9366 56.419 49.8359 56.4262C49.7353 56.4369 49.5968 56.4423 49.4207 56.4423C49.2373 56.4423 49.0935 56.4387 48.9892 56.4315C48.8885 56.4279 48.8112 56.419 48.7573 56.4046C48.7034 56.3866 48.6656 56.3632 48.644 56.3345C48.6225 56.3057 48.6045 56.268 48.5901 56.2212L48.1209 54.819H45.4998L45.0576 56.1835C45.0432 56.2338 45.0234 56.2769 44.9983 56.3129C44.9767 56.3453 44.9389 56.3722 44.885 56.3938C44.8347 56.4118 44.761 56.4244 44.6639 56.4315C44.5704 56.4387 44.4464 56.4423 44.2918 56.4423C44.1264 56.4423 43.9969 56.4369 43.9035 56.4262C43.81 56.4154 43.7453 56.3902 43.7093 56.3506C43.6733 56.3075 43.6608 56.2482 43.6715 56.1727C43.6823 56.0972 43.7093 55.9965 43.7524 55.8707L45.9043 49.6793C45.9259 49.6182 45.9511 49.5696 45.9798 49.5337C46.0086 49.4941 46.0535 49.4654 46.1146 49.4474C46.1794 49.4258 46.2675 49.4132 46.3789 49.4096C46.4904 49.4025 46.6378 49.3989 46.8212 49.3989C47.0333 49.3989 47.2023 49.4025 47.3281 49.4096C47.454 49.4132 47.551 49.4258 47.6193 49.4474C47.6913 49.4654 47.7416 49.4941 47.7704 49.5337C47.8027 49.5732 47.8297 49.6272 47.8512 49.6955L50.0085 55.8814ZM46.805 50.7633H46.7996L45.8126 53.7296H47.7919L46.805 50.7633Z" fill="white"/>
<path d="M55.6597 49.5095V50.7079H52.7797V52.3992H54.674V53.5976H52.7797V56.41H51.3204V53.5976H50.6728V52.3992H51.3204V49.5095H55.6597Z" fill="white"/>
<path d="M62.5196 55.8814C62.5627 56.0109 62.5897 56.1133 62.6005 56.1889C62.6113 56.2644 62.5969 56.3219 62.5573 56.3614C62.5178 56.3974 62.4477 56.419 62.347 56.4262C62.2463 56.4369 62.1079 56.4423 61.9317 56.4423C61.7484 56.4423 61.6045 56.4387 61.5003 56.4315C61.3996 56.4279 61.3223 56.419 61.2684 56.4046C61.2144 56.3866 61.1767 56.3632 61.1551 56.3345C61.1335 56.3057 61.1156 56.268 61.1012 56.2212L60.632 54.819H58.0109L57.5687 56.1835C57.5543 56.2338 57.5345 56.2769 57.5093 56.3129C57.4878 56.3453 57.45 56.3722 57.3961 56.3938C57.3457 56.4118 57.272 56.4244 57.175 56.4315C57.0815 56.4387 56.9574 56.4423 56.8028 56.4423C56.6374 56.4423 56.508 56.4369 56.4145 56.4262C56.321 56.4154 56.2563 56.3902 56.2204 56.3506C56.1844 56.3075 56.1718 56.2482 56.1826 56.1727C56.1934 56.0972 56.2204 55.9965 56.2635 55.8707L58.4154 49.6793C58.437 49.6182 58.4621 49.5696 58.4909 49.5337C58.5197 49.4941 58.5646 49.4654 58.6257 49.4474C58.6904 49.4258 58.7785 49.4132 58.89 49.4096C59.0014 49.4025 59.1489 49.3989 59.3322 49.3989C59.5444 49.3989 59.7133 49.4025 59.8392 49.4096C59.965 49.4132 60.0621 49.4258 60.1304 49.4474C60.2023 49.4654 60.2527 49.4941 60.2814 49.5337C60.3138 49.5732 60.3407 49.6272 60.3623 49.6955L62.5196 55.8814ZM59.316 50.7633H59.3106L58.3237 53.7296H60.303L59.316 50.7633Z" fill="white"/>
<path d="M69.1691 56.2158C69.1691 56.2518 69.1566 56.2841 69.1314 56.3129C69.1098 56.3417 69.0721 56.365 69.0181 56.383C68.9642 56.401 68.8923 56.4154 68.8024 56.4262C68.7125 56.4369 68.5993 56.4423 68.4626 56.4423C68.3224 56.4423 68.2056 56.4369 68.1121 56.4262C68.0222 56.4154 67.9503 56.401 67.8964 56.383C67.846 56.365 67.8083 56.3417 67.7831 56.3129C67.7615 56.2841 67.7507 56.2518 67.7507 56.2158V53.3952H65.1404V56.2158C65.1404 56.2518 65.1297 56.2841 65.1081 56.3129C65.0865 56.3417 65.0488 56.365 64.9948 56.383C64.9409 56.401 64.869 56.4154 64.7791 56.4262C64.6892 56.4369 64.5742 56.4423 64.4339 56.4423C64.2973 56.4423 64.1823 56.4369 64.0888 56.4262C63.9989 56.4154 63.927 56.401 63.8731 56.383C63.8191 56.365 63.7796 56.3417 63.7544 56.3129C63.7328 56.2841 63.722 56.2518 63.722 56.2158V49.6254C63.722 49.5894 63.7328 49.5571 63.7544 49.5283C63.7796 49.4995 63.8191 49.4762 63.8731 49.4582C63.927 49.4402 63.9989 49.4258 64.0888 49.415C64.1823 49.4042 64.2973 49.3989 64.4339 49.3989C64.5742 49.3989 64.6892 49.4042 64.7791 49.415C64.869 49.4258 64.9409 49.4402 64.9948 49.4582C65.0488 49.4762 65.0865 49.4995 65.1081 49.5283C65.1297 49.5571 65.1404 49.5894 65.1404 49.6254V52.1871H67.7507V49.6254C67.7507 49.5894 67.7615 49.5571 67.7831 49.5283C67.8083 49.4995 67.846 49.4762 67.8964 49.4582C67.9503 49.4402 68.0222 49.4258 68.1121 49.415C68.2056 49.4042 68.3224 49.3989 68.4626 49.3989C68.5993 49.3989 68.7125 49.4042 68.8024 49.415C68.8923 49.4258 68.9642 49.4402 69.0181 49.4582C69.0721 49.4762 69.1098 49.4995 69.1314 49.5283C69.1566 49.5571 69.1691 49.5894 69.1691 49.6254V56.2158Z" fill="white"/>
<path d="M77.345 58.0549C77.345 58.0908 77.336 58.1214 77.318 58.1466C77.3 58.1717 77.2677 58.1915 77.2209 58.2059C77.1742 58.2239 77.1113 58.2365 77.0322 58.2437C76.9531 58.2544 76.8506 58.2598 76.7248 58.2598C76.6025 58.2598 76.5018 58.2544 76.4227 58.2437C76.3472 58.2365 76.2843 58.2239 76.234 58.2059C76.1872 58.1915 76.1531 58.1717 76.1315 58.1466C76.1135 58.1214 76.1045 58.0908 76.1045 58.0549V56.41H71.461V58.0549C71.461 58.0908 71.4502 58.1214 71.4287 58.1466C71.4107 58.1717 71.3765 58.1915 71.3262 58.2059C71.2795 58.2239 71.2165 58.2365 71.1374 58.2437C71.0583 58.2544 70.9577 58.2598 70.8354 58.2598C70.7132 58.2598 70.6125 58.2544 70.5334 58.2437C70.4543 58.2365 70.3896 58.2239 70.3392 58.2059C70.2925 58.1915 70.2602 58.1717 70.2422 58.1466C70.2242 58.1214 70.2152 58.0908 70.2152 58.0549V55.5471C70.208 55.4428 70.226 55.3691 70.2691 55.3259C70.3159 55.2792 70.3842 55.2558 70.4741 55.2558H70.7977C70.884 55.1336 70.9649 55.0077 71.0404 54.8783C71.1195 54.7489 71.195 54.5961 71.2669 54.4199C71.3388 54.2401 71.4089 54.028 71.4772 53.7835C71.5491 53.5354 71.6192 53.2334 71.6875 52.8774C71.7559 52.5215 71.8242 52.1008 71.8925 51.6154C71.9644 51.1265 72.0381 50.553 72.1136 49.895C72.1352 49.7332 72.1765 49.6164 72.2376 49.5445C72.2988 49.469 72.3922 49.4312 72.5181 49.4312H76.083C76.2088 49.4312 76.3077 49.469 76.3796 49.5445C76.4515 49.6164 76.4875 49.7278 76.4875 49.8788V55.2558H77.0807C77.1778 55.2558 77.2461 55.2828 77.2856 55.3367C77.3252 55.3871 77.345 55.459 77.345 55.5525V58.0549ZM75.0744 50.5746H73.4457C73.381 51.1211 73.3163 51.6029 73.2516 52.0199C73.1904 52.4334 73.1275 52.7965 73.0628 53.1094C73.0017 53.4222 72.9388 53.6918 72.874 53.9183C72.8093 54.1448 72.7428 54.3408 72.6745 54.5062C72.6098 54.6716 72.5415 54.8136 72.4696 54.9322C72.3976 55.0509 72.3239 55.1588 72.2484 55.2558H75.0744V50.5746Z" fill="white"/>
<path d="M85.8606 56.2266C85.8606 56.2626 85.848 56.2949 85.8228 56.3237C85.8012 56.3489 85.7635 56.3704 85.7096 56.3884C85.6556 56.4064 85.5819 56.419 85.4884 56.4262C85.3986 56.4369 85.2853 56.4423 85.1487 56.4423C85.012 56.4423 84.8988 56.4369 84.8089 56.4262C84.719 56.419 84.6453 56.4064 84.5878 56.3884C84.5338 56.3704 84.4943 56.3489 84.4691 56.3237C84.4476 56.2949 84.4368 56.2626 84.4368 56.2266V49.6146C84.4368 49.5786 84.4476 49.5481 84.4691 49.5229C84.4943 49.4941 84.5338 49.4708 84.5878 49.4528C84.6453 49.4348 84.719 49.4222 84.8089 49.415C84.9024 49.4042 85.0156 49.3989 85.1487 49.3989C85.2853 49.3989 85.3986 49.4042 85.4884 49.415C85.5819 49.4222 85.6556 49.4348 85.7096 49.4528C85.7635 49.4708 85.8012 49.4941 85.8228 49.5229C85.848 49.5481 85.8606 49.5786 85.8606 49.6146V56.2266ZM83.59 54.1071C83.59 54.4379 83.5379 54.7417 83.4336 55.0185C83.333 55.2918 83.173 55.5309 82.9536 55.7358C82.7343 55.9408 82.4467 56.1044 82.0907 56.2266C81.7384 56.3489 81.2566 56.41 80.6454 56.41H79.0005C78.9393 56.41 78.8818 56.4028 78.8279 56.3884C78.7775 56.3704 78.7326 56.3435 78.693 56.3075C78.6535 56.268 78.6211 56.2212 78.596 56.1673C78.5744 56.1098 78.5636 56.0414 78.5636 55.9623V49.6146C78.5636 49.5786 78.5744 49.5481 78.596 49.5229C78.6211 49.4941 78.6607 49.4708 78.7146 49.4528C78.7721 49.4348 78.8459 49.4222 78.9357 49.415C79.0292 49.4042 79.1425 49.3989 79.2755 49.3989C79.4157 49.3989 79.5308 49.4042 79.6207 49.415C79.7106 49.4222 79.7825 49.4348 79.8364 49.4528C79.8903 49.4708 79.9281 49.4941 79.9497 49.5229C79.9712 49.5481 79.982 49.5786 79.982 49.6146V52.0253H80.8611C81.3824 52.0253 81.7977 52.0703 82.1069 52.1602C82.4197 52.25 82.684 52.3831 82.8997 52.5592C83.119 52.7354 83.288 52.9548 83.4067 53.2172C83.5289 53.4797 83.59 53.7763 83.59 54.1071ZM82.1339 54.2257C82.1339 54.0532 82.1087 53.8986 82.0584 53.7619C82.008 53.6253 81.9307 53.5084 81.8265 53.4114C81.7222 53.3143 81.5892 53.2388 81.4274 53.1849C81.2656 53.1309 81.0265 53.104 80.7101 53.104H79.982V55.3206H80.7317C81.0624 55.3206 81.3105 55.2882 81.4759 55.2235C81.6449 55.1552 81.7761 55.0689 81.8696 54.9646C81.9631 54.8567 82.0296 54.7381 82.0692 54.6087C82.1123 54.4792 82.1339 54.3516 82.1339 54.2257Z" fill="white"/>
<path d="M29.5562 66.5761C29.5562 66.6156 29.5454 66.6498 29.5239 66.6786C29.5023 66.7037 29.4627 66.7253 29.4052 66.7433C29.3513 66.7613 29.2776 66.7738 29.1841 66.781C29.0906 66.7918 28.9702 66.7972 28.8228 66.7972C28.6682 66.7972 28.5423 66.7918 28.4452 66.781C28.3518 66.7738 28.2762 66.7613 28.2187 66.7433C28.1612 66.7217 28.118 66.6947 28.0893 66.6624C28.0605 66.6264 28.0389 66.5833 28.0246 66.5329L27.4637 64.9797C27.3846 64.7532 27.3019 64.5644 27.2156 64.4134C27.1293 64.2588 27.034 64.1348 26.9298 64.0413C26.8255 63.9442 26.7068 63.8759 26.5738 63.8364C26.4408 63.7968 26.2916 63.777 26.1262 63.777H25.808V66.5707C25.808 66.6103 25.7972 66.6444 25.7756 66.6732C25.754 66.6983 25.7163 66.7217 25.6624 66.7433C25.6084 66.7613 25.5365 66.7738 25.4466 66.781C25.3567 66.7918 25.2417 66.7972 25.1015 66.7972C24.9648 66.7972 24.8498 66.7918 24.7563 66.781C24.6664 66.7738 24.5945 66.7613 24.5406 66.7433C24.4866 66.7217 24.4471 66.6983 24.4219 66.6732C24.4004 66.6444 24.3896 66.6103 24.3896 66.5707V59.9749C24.3896 59.9353 24.4004 59.9029 24.4219 59.8778C24.4471 59.849 24.4866 59.8256 24.5406 59.8077C24.5945 59.7897 24.6664 59.7771 24.7563 59.7699C24.8498 59.7591 24.9648 59.7537 25.1015 59.7537C25.2417 59.7537 25.3567 59.7591 25.4466 59.7699C25.5365 59.7771 25.6084 59.7897 25.6624 59.8077C25.7163 59.8256 25.754 59.849 25.7756 59.8778C25.7972 59.9029 25.808 59.9353 25.808 59.9749V62.5959H26.1262C26.288 62.5959 26.43 62.5744 26.5522 62.5312C26.6745 62.4881 26.7841 62.4198 26.8812 62.3263C26.9819 62.2328 27.0718 62.1123 27.1509 61.9649C27.2336 61.8139 27.3127 61.6288 27.3882 61.4094L27.8574 60.018C27.8754 59.9677 27.8969 59.9263 27.9221 59.894C27.9473 59.858 27.9868 59.831 28.0407 59.8131C28.0983 59.7915 28.172 59.7771 28.2619 59.7699C28.3553 59.7591 28.4794 59.7537 28.634 59.7537C28.7742 59.7537 28.8893 59.7591 28.9792 59.7699C29.0726 59.7771 29.1445 59.7897 29.1949 59.8077C29.2488 59.8221 29.2848 59.8436 29.3027 59.8724C29.3207 59.8976 29.3297 59.9299 29.3297 59.9695C29.3297 60.0162 29.3207 60.0737 29.3027 60.142C29.2884 60.2104 29.2614 60.3002 29.2219 60.4117L28.7526 61.6521C28.6664 61.8822 28.5801 62.0782 28.4938 62.24C28.4075 62.4018 28.3158 62.5402 28.2187 62.6553C28.1252 62.7667 28.0246 62.8584 27.9167 62.9303C27.8124 63.0022 27.6956 63.0615 27.5661 63.1083V63.1137C27.71 63.1748 27.8394 63.2449 27.9545 63.324C28.0731 63.3995 28.1828 63.4966 28.2834 63.6152C28.3877 63.7339 28.4866 63.8795 28.5801 64.0521C28.6735 64.2247 28.7688 64.4368 28.8659 64.6885L29.4376 66.1339C29.4951 66.2813 29.5293 66.3837 29.54 66.4413C29.5508 66.4952 29.5562 66.5401 29.5562 66.5761Z" fill="white"/>
<path d="M36.5509 66.2363C36.5941 66.3658 36.6211 66.4682 36.6318 66.5437C36.6426 66.6192 36.6283 66.6768 36.5887 66.7163C36.5492 66.7523 36.479 66.7738 36.3784 66.781C36.2777 66.7918 36.1393 66.7972 35.9631 66.7972C35.7797 66.7972 35.6359 66.7936 35.5316 66.7864C35.431 66.7828 35.3537 66.7738 35.2997 66.7595C35.2458 66.7415 35.208 66.7181 35.1865 66.6894C35.1649 66.6606 35.1469 66.6228 35.1325 66.5761L34.6633 65.1739H32.0423L31.6 66.5383C31.5856 66.5887 31.5659 66.6318 31.5407 66.6678C31.5191 66.7001 31.4814 66.7271 31.4274 66.7487C31.3771 66.7666 31.3034 66.7792 31.2063 66.7864C31.1128 66.7936 30.9888 66.7972 30.8342 66.7972C30.6688 66.7972 30.5394 66.7918 30.4459 66.781C30.3524 66.7702 30.2877 66.7451 30.2517 66.7055C30.2158 66.6624 30.2032 66.6031 30.214 66.5276C30.2248 66.452 30.2517 66.3514 30.2949 66.2255L32.4467 60.0342C32.4683 59.9731 32.4935 59.9245 32.5223 59.8886C32.551 59.849 32.596 59.8203 32.6571 59.8023C32.7218 59.7807 32.8099 59.7681 32.9213 59.7645C33.0328 59.7573 33.1802 59.7537 33.3636 59.7537C33.5757 59.7537 33.7447 59.7573 33.8705 59.7645C33.9964 59.7681 34.0935 59.7807 34.1618 59.8023C34.2337 59.8203 34.284 59.849 34.3128 59.8886C34.3451 59.9281 34.3721 59.982 34.3937 60.0504L36.5509 66.2363ZM33.3474 61.1182H33.342L32.3551 64.0844H34.3344L33.3474 61.1182Z" fill="white"/>
<path d="M42.5318 61.9056C42.5318 62.2975 42.4706 62.6445 42.3484 62.9465C42.2261 63.2485 42.0482 63.5038 41.8145 63.7123C41.5808 63.9173 41.2931 64.0737 40.9516 64.1815C40.6136 64.2894 40.2145 64.3433 39.7543 64.3433H39.1718V66.5707C39.1718 66.6067 39.1592 66.639 39.1341 66.6678C39.1125 66.6965 39.0747 66.7199 39.0208 66.7379C38.9669 66.7559 38.895 66.7702 38.8051 66.781C38.7152 66.7918 38.6001 66.7972 38.4599 66.7972C38.3233 66.7972 38.2082 66.7918 38.1148 66.781C38.0249 66.7702 37.953 66.7559 37.899 66.7379C37.8451 66.7199 37.8073 66.6965 37.7858 66.6678C37.7642 66.639 37.7534 66.6067 37.7534 66.5707V60.2931C37.7534 60.1241 37.7966 59.9982 37.8828 59.9155C37.9727 59.8292 38.0896 59.7861 38.2334 59.7861H39.8783C40.0437 59.7861 40.2001 59.7933 40.3475 59.8077C40.4985 59.8185 40.6783 59.8454 40.8868 59.8886C41.0954 59.9281 41.3057 60.0036 41.5178 60.1151C41.7336 60.2265 41.9169 60.3686 42.0679 60.5411C42.219 60.7101 42.334 60.9097 42.4131 61.1398C42.4922 61.3663 42.5318 61.6216 42.5318 61.9056ZM41.0486 62.0081C41.0486 61.7636 41.0055 61.5622 40.9192 61.404C40.8329 61.2458 40.7268 61.129 40.601 61.0535C40.4752 60.978 40.3421 60.9312 40.2019 60.9133C40.0653 60.8917 39.9233 60.8809 39.7758 60.8809H39.1718V63.2485H39.8082C40.0347 63.2485 40.2235 63.2179 40.3745 63.1568C40.5291 63.0957 40.6549 63.0112 40.752 62.9033C40.8491 62.7919 40.9228 62.6607 40.9731 62.5096C41.0235 62.355 41.0486 62.1879 41.0486 62.0081Z" fill="white"/>
<path d="M48.9548 66.2363C48.9979 66.3658 49.0249 66.4682 49.0357 66.5437C49.0465 66.6192 49.0321 66.6768 48.9926 66.7163C48.953 66.7523 48.8829 66.7738 48.7822 66.781C48.6815 66.7918 48.5431 66.7972 48.3669 66.7972C48.1836 66.7972 48.0398 66.7936 47.9355 66.7864C47.8348 66.7828 47.7575 66.7738 47.7036 66.7595C47.6497 66.7415 47.6119 66.7181 47.5903 66.6894C47.5688 66.6606 47.5508 66.6228 47.5364 66.5761L47.0672 65.1739H44.4461L44.0039 66.5383C43.9895 66.5887 43.9697 66.6318 43.9445 66.6678C43.923 66.7001 43.8852 66.7271 43.8313 66.7487C43.781 66.7666 43.7072 66.7792 43.6102 66.7864C43.5167 66.7936 43.3926 66.7972 43.238 66.7972C43.0727 66.7972 42.9432 66.7918 42.8497 66.781C42.7563 66.7702 42.6915 66.7451 42.6556 66.7055C42.6196 66.6624 42.607 66.6031 42.6178 66.5276C42.6286 66.452 42.6556 66.3514 42.6987 66.2255L44.8506 60.0342C44.8722 59.9731 44.8973 59.9245 44.9261 59.8886C44.9549 59.849 44.9998 59.8203 45.0609 59.8023C45.1257 59.7807 45.2137 59.7681 45.3252 59.7645C45.4367 59.7573 45.5841 59.7537 45.7674 59.7537C45.9796 59.7537 46.1486 59.7573 46.2744 59.7645C46.4002 59.7681 46.4973 59.7807 46.5656 59.8023C46.6375 59.8203 46.6879 59.849 46.7166 59.8886C46.749 59.9281 46.776 59.982 46.7975 60.0504L48.9548 66.2363ZM45.7513 61.1182H45.7459L44.7589 64.0844H46.7382L45.7513 61.1182Z" fill="white"/>
<path d="M54.1105 60.374C54.1105 60.4818 54.1051 60.5735 54.0943 60.649C54.0871 60.7209 54.0745 60.7802 54.0565 60.827C54.0385 60.8701 54.0152 60.9025 53.9864 60.9241C53.9612 60.942 53.9307 60.951 53.8947 60.951H51.5811V66.5815C51.5811 66.6174 51.5685 66.6498 51.5433 66.6786C51.5217 66.7037 51.484 66.7253 51.43 66.7433C51.3761 66.7613 51.3042 66.7738 51.2143 66.781C51.1244 66.7918 51.0094 66.7972 50.8692 66.7972C50.7325 66.7972 50.6175 66.7918 50.524 66.781C50.4341 66.7738 50.3622 66.7613 50.3083 66.7433C50.2543 66.7253 50.2148 66.7037 50.1896 66.6786C50.168 66.6498 50.1573 66.6174 50.1573 66.5815V60.2337C50.1573 60.0827 50.195 59.9713 50.2705 59.8993C50.3496 59.8238 50.4521 59.7861 50.5779 59.7861H53.8947C53.9666 59.7861 54.0206 59.831 54.0565 59.9209C54.0925 60.0108 54.1105 60.1618 54.1105 60.374Z" fill="white"/>
<path d="M60.0104 66.2363C60.0535 66.3658 60.0805 66.4682 60.0913 66.5437C60.102 66.6192 60.0877 66.6768 60.0481 66.7163C60.0086 66.7523 59.9384 66.7738 59.8378 66.781C59.7371 66.7918 59.5987 66.7972 59.4225 66.7972C59.2391 66.7972 59.0953 66.7936 58.9911 66.7864C58.8904 66.7828 58.8131 66.7738 58.7591 66.7595C58.7052 66.7415 58.6675 66.7181 58.6459 66.6894C58.6243 66.6606 58.6063 66.6228 58.592 66.5761L58.1227 65.1739H55.5017L55.0594 66.5383C55.0451 66.5887 55.0253 66.6318 55.0001 66.6678C54.9785 66.7001 54.9408 66.7271 54.8869 66.7487C54.8365 66.7666 54.7628 66.7792 54.6657 66.7864C54.5723 66.7936 54.4482 66.7972 54.2936 66.7972C54.1282 66.7972 53.9988 66.7918 53.9053 66.781C53.8118 66.7702 53.7471 66.7451 53.7111 66.7055C53.6752 66.6624 53.6626 66.6031 53.6734 66.5276C53.6842 66.452 53.7111 66.3514 53.7543 66.2255L55.9062 60.0342C55.9277 59.9731 55.9529 59.9245 55.9817 59.8886C56.0104 59.849 56.0554 59.8203 56.1165 59.8023C56.1812 59.7807 56.2693 59.7681 56.3808 59.7645C56.4922 59.7573 56.6396 59.7537 56.823 59.7537C57.0351 59.7537 57.2041 59.7573 57.33 59.7645C57.4558 59.7681 57.5529 59.7807 57.6212 59.8023C57.6931 59.8203 57.7434 59.849 57.7722 59.8886C57.8046 59.9281 57.8315 59.982 57.8531 60.0504L60.0104 66.2363ZM56.8068 61.1182H56.8014L55.8145 64.0844H57.7938L56.8068 61.1182Z" fill="white"/>
<path d="M66.6599 66.5707C66.6599 66.6067 66.6473 66.639 66.6222 66.6678C66.6006 66.6965 66.5628 66.7199 66.5089 66.7379C66.455 66.7559 66.3831 66.7702 66.2932 66.781C66.2033 66.7918 66.09 66.7972 65.9534 66.7972C65.8132 66.7972 65.6963 66.7918 65.6029 66.781C65.513 66.7702 65.4411 66.7559 65.3871 66.7379C65.3368 66.7199 65.299 66.6965 65.2739 66.6678C65.2523 66.639 65.2415 66.6067 65.2415 66.5707V63.7501H62.6312V66.5707C62.6312 66.6067 62.6204 66.639 62.5989 66.6678C62.5773 66.6965 62.5395 66.7199 62.4856 66.7379C62.4317 66.7559 62.3598 66.7702 62.2699 66.781C62.18 66.7918 62.0649 66.7972 61.9247 66.7972C61.7881 66.7972 61.673 66.7918 61.5796 66.781C61.4897 66.7702 61.4178 66.7559 61.3638 66.7379C61.3099 66.7199 61.2703 66.6965 61.2452 66.6678C61.2236 66.639 61.2128 66.6067 61.2128 66.5707V59.9803C61.2128 59.9443 61.2236 59.9119 61.2452 59.8832C61.2703 59.8544 61.3099 59.831 61.3638 59.8131C61.4178 59.7951 61.4897 59.7807 61.5796 59.7699C61.673 59.7591 61.7881 59.7537 61.9247 59.7537C62.0649 59.7537 62.18 59.7591 62.2699 59.7699C62.3598 59.7807 62.4317 59.7951 62.4856 59.8131C62.5395 59.831 62.5773 59.8544 62.5989 59.8832C62.6204 59.9119 62.6312 59.9443 62.6312 59.9803V62.542H65.2415V59.9803C65.2415 59.9443 65.2523 59.9119 65.2739 59.8832C65.299 59.8544 65.3368 59.831 65.3871 59.8131C65.4411 59.7951 65.513 59.7807 65.6029 59.7699C65.6963 59.7591 65.8132 59.7537 65.9534 59.7537C66.09 59.7537 66.2033 59.7591 66.2932 59.7699C66.3831 59.7807 66.455 59.7951 66.5089 59.8131C66.5628 59.831 66.6006 59.8544 66.6222 59.8832C66.6473 59.9119 66.6599 59.9443 66.6599 59.9803V66.5707Z" fill="white"/>
<path d="M74.8358 68.4098C74.8358 68.4457 74.8268 68.4763 74.8088 68.5015C74.7908 68.5266 74.7584 68.5464 74.7117 68.5608C74.665 68.5788 74.602 68.5913 74.5229 68.5985C74.4438 68.6093 74.3414 68.6147 74.2155 68.6147C74.0933 68.6147 73.9926 68.6093 73.9135 68.5985C73.838 68.5913 73.7751 68.5788 73.7248 68.5608C73.678 68.5464 73.6439 68.5266 73.6223 68.5015C73.6043 68.4763 73.5953 68.4457 73.5953 68.4098V66.7649H68.9518V68.4098C68.9518 68.4457 68.941 68.4763 68.9194 68.5015C68.9015 68.5266 68.8673 68.5464 68.817 68.5608C68.7702 68.5788 68.7073 68.5913 68.6282 68.5985C68.5491 68.6093 68.4484 68.6147 68.3262 68.6147C68.204 68.6147 68.1033 68.6093 68.0242 68.5985C67.9451 68.5913 67.8804 68.5788 67.83 68.5608C67.7833 68.5464 67.7509 68.5266 67.7329 68.5015C67.715 68.4763 67.706 68.4457 67.706 68.4098V65.9019C67.6988 65.7977 67.7168 65.724 67.7599 65.6808C67.8067 65.6341 67.875 65.6107 67.9649 65.6107H68.2884C68.3747 65.4885 68.4556 65.3626 68.5311 65.2332C68.6102 65.1038 68.6857 64.951 68.7576 64.7748C68.8296 64.595 68.8997 64.3829 68.968 64.1384C69.0399 63.8903 69.11 63.5883 69.1783 63.2323C69.2466 62.8764 69.3149 62.4557 69.3833 61.9703C69.4552 61.4813 69.5289 60.9079 69.6044 60.2499C69.6259 60.0881 69.6673 59.9713 69.7284 59.8993C69.7895 59.8238 69.883 59.7861 70.0089 59.7861H73.5737C73.6996 59.7861 73.7985 59.8238 73.8704 59.8993C73.9423 59.9713 73.9782 60.0827 73.9782 60.2337V65.6107H74.5715C74.6686 65.6107 74.7369 65.6377 74.7764 65.6916C74.816 65.7419 74.8358 65.8139 74.8358 65.9073V68.4098ZM72.5652 60.9294H70.9365C70.8718 61.476 70.8071 61.9577 70.7423 62.3748C70.6812 62.7883 70.6183 63.1514 70.5536 63.4642C70.4925 63.777 70.4295 64.0467 70.3648 64.2732C70.3001 64.4997 70.2336 64.6957 70.1653 64.8611C70.1005 65.0265 70.0322 65.1685 69.9603 65.2871C69.8884 65.4058 69.8147 65.5136 69.7392 65.6107H72.5652V60.9294Z" fill="white"/>
<path d="M81.7711 66.2363C81.8143 66.3658 81.8412 66.4682 81.852 66.5437C81.8628 66.6192 81.8484 66.6768 81.8089 66.7163C81.7693 66.7523 81.6992 66.7738 81.5986 66.781C81.4979 66.7918 81.3595 66.7972 81.1833 66.7972C80.9999 66.7972 80.8561 66.7936 80.7518 66.7864C80.6512 66.7828 80.5739 66.7738 80.5199 66.7595C80.466 66.7415 80.4282 66.7181 80.4067 66.6894C80.3851 66.6606 80.3671 66.6228 80.3527 66.5761L79.8835 65.1739H77.2625L76.8202 66.5383C76.8058 66.5887 76.7861 66.6318 76.7609 66.6678C76.7393 66.7001 76.7016 66.7271 76.6476 66.7487C76.5973 66.7666 76.5236 66.7792 76.4265 66.7864C76.333 66.7936 76.209 66.7972 76.0544 66.7972C75.889 66.7972 75.7596 66.7918 75.6661 66.781C75.5726 66.7702 75.5079 66.7451 75.4719 66.7055C75.436 66.6624 75.4234 66.6031 75.4342 66.5276C75.445 66.452 75.4719 66.3514 75.5151 66.2255L77.6669 60.0342C77.6885 59.9731 77.7137 59.9245 77.7424 59.8886C77.7712 59.849 77.8162 59.8203 77.8773 59.8023C77.942 59.7807 78.0301 59.7681 78.1415 59.7645C78.253 59.7573 78.4004 59.7537 78.5838 59.7537C78.7959 59.7537 78.9649 59.7573 79.0907 59.7645C79.2166 59.7681 79.3137 59.7807 79.382 59.8023C79.4539 59.8203 79.5042 59.849 79.533 59.8886C79.5653 59.9281 79.5923 59.982 79.6139 60.0504L81.7711 66.2363ZM78.5676 61.1182H78.5622L77.5753 64.0844H79.5545L78.5676 61.1182Z" fill="white"/>
<path fill-rule="evenodd" clip-rule="evenodd" d="M18.0478 1.23828H115.774C116.924 1.23828 117.688 2.09331 118.094 2.85472C118.527 3.66755 118.759 4.70819 118.759 5.79224V68.6843C118.759 69.7684 118.527 70.809 118.094 71.6218C117.688 72.3832 116.924 73.2383 115.774 73.2383H18.0478C16.8972 73.2383 16.1334 72.3832 15.7275 71.6218C15.2942 70.809 15.0625 69.7684 15.0625 68.6843V5.79224C15.0625 4.70819 15.2942 3.66755 15.7275 2.85472C16.1334 2.09331 16.8972 1.23828 18.0478 1.23828ZM18.0478 2.43239C17.0585 2.43239 16.2566 3.93665 16.2566 5.79224V68.6843C16.2566 70.5399 17.0585 72.0442 18.0478 72.0442H115.774C116.763 72.0442 117.565 70.5399 117.565 68.6843V5.79224C117.565 3.93665 116.763 2.43239 115.774 2.43239H18.0478Z" fill="white"/>
<path fill-rule="evenodd" clip-rule="evenodd" d="M18.0472 0.640625H115.773C117.255 0.640625 118.176 1.73998 118.62 2.57324C119.108 3.48853 119.355 4.62954 119.355 5.79164V68.6837C119.355 69.8458 119.108 70.9868 118.62 71.9021C118.176 72.7354 117.255 73.8347 115.773 73.8347H18.0472C16.5651 73.8347 15.6443 72.7354 15.2 71.9021C14.7121 70.9868 14.4648 69.8458 14.4648 68.6837V5.79164C14.4648 4.62954 14.7121 3.48854 15.2 2.57324C15.6443 1.73998 16.5651 0.640625 18.0472 0.640625ZM17.3075 3.69674C17.038 4.20234 16.8531 4.94196 16.8531 5.79164V68.6837C16.8531 69.5334 17.038 70.273 17.3075 70.7786C17.5907 71.3099 17.8805 71.4465 18.0472 71.4465H115.773C115.94 71.4465 116.229 71.3099 116.513 70.7786C116.782 70.273 116.967 69.5334 116.967 68.6837V5.79164C116.967 4.94196 116.782 4.20234 116.513 3.69674C116.229 3.16543 115.94 3.02885 115.773 3.02885H18.0472C17.8805 3.02885 17.5907 3.16543 17.3075 3.69674ZM115.773 1.23768H18.0472C16.8966 1.23768 16.1328 2.09271 15.7269 2.85412C15.2936 3.66695 15.0619 4.70759 15.0619 5.79164V68.6837C15.0619 69.7678 15.2936 70.8084 15.7269 71.6212C16.1328 72.3826 16.8966 73.2377 18.0472 73.2377H115.773C116.924 73.2377 117.687 72.3826 118.093 71.6212C118.527 70.8084 118.758 69.7678 118.758 68.6837V5.79164C118.758 4.70759 118.527 3.66695 118.093 2.85412C117.687 2.09271 116.924 1.23768 115.773 1.23768ZM16.256 5.79164C16.256 3.93604 17.0579 2.43179 18.0472 2.43179H115.773C116.762 2.43179 117.564 3.93605 117.564 5.79164V68.6837C117.564 70.5393 116.762 72.0436 115.773 72.0436H18.0472C17.0579 72.0436 16.256 70.5393 16.256 68.6837V5.79164Z" fill="black"/>
</svg>
