<svg width="57" height="99" viewBox="0 0 57 99" fill="none" xmlns="http://www.w3.org/2000/svg">
<rect x="5.55469" y="6.47656" width="3.57143" height="76.3839" fill="#AEAEAE"/>
<path d="M4.83984 82.6686C4.83984 82.1375 5.28401 81.707 5.83191 81.707H8.84778C9.39568 81.707 9.83984 82.1375 9.83984 82.6686V96.4768H4.83984V82.6686Z" fill="#9F9B9B"/>
<path d="M4.67578 5.44894C4.67578 3.87098 5.95497 2.5918 7.53292 2.5918H46.9073C48.4852 2.5918 49.7644 3.87098 49.7644 5.44894V20.5578C49.7644 22.1357 48.4852 23.4149 46.9073 23.4149H7.53292C5.95497 23.4149 4.67578 22.1357 4.67578 20.5578V5.44894Z" fill="#0D69E1"/>
<path fill-rule="evenodd" clip-rule="evenodd" d="M7.53125 0.449219H46.9056C49.667 0.449219 51.9056 2.6878 51.9056 5.44922V20.558C51.9056 23.3195 49.667 25.558 46.9056 25.558H7.53125C4.76982 25.558 2.53125 23.3195 2.53125 20.558V5.44922C2.53125 2.6878 4.76983 0.449219 7.53125 0.449219ZM7.53125 2.59208C5.95329 2.59208 4.67411 3.87126 4.67411 5.44922V20.558C4.67411 22.136 5.95329 23.4152 7.53125 23.4152H46.9056C48.4836 23.4152 49.7628 22.136 49.7628 20.558V5.44922C49.7628 3.87126 48.4836 2.59208 46.9056 2.59208H7.53125Z" fill="black"/>
<path d="M4.67578 5.44894C4.67578 3.87098 5.95497 2.5918 7.53292 2.5918H46.9073C48.4852 2.5918 49.7644 3.87098 49.7644 5.44894V20.5578C49.7644 22.1357 48.4852 23.4149 46.9073 23.4149H7.53292C5.95497 23.4149 4.67578 22.1357 4.67578 20.5578V5.44894Z" fill="#0D69E1"/>
<path fill-rule="evenodd" clip-rule="evenodd" d="M7.53181 1.16406H46.9062C49.2731 1.16406 51.1919 3.08284 51.1919 5.44978V20.5586C51.1919 22.9255 49.2731 24.8443 46.9062 24.8443H7.53181C5.16487 24.8443 3.24609 22.9255 3.24609 20.5586V5.44978C3.24609 3.08284 5.16487 1.16406 7.53181 1.16406ZM7.53181 2.59263C5.95385 2.59263 4.67467 3.87182 4.67467 5.44978V20.5586C4.67467 22.1366 5.95385 23.4157 7.53181 23.4157H46.9062C48.4841 23.4157 49.7633 22.1366 49.7633 20.5586V5.44978C49.7633 3.87182 48.4841 2.59263 46.9062 2.59263H7.53181Z" fill="white"/>
<path d="M15.7085 5.1392L20.7227 13.7638L17.5472 13.7439L17.5887 20.371L14.0166 20.3486L13.9751 13.7215L10.8004 13.7024L15.7085 5.1392Z" fill="white"/>
<path d="M25.8574 1.86523H27.286V24.7852H25.8574V1.86523Z" fill="white"/>
<path d="M38.2758 13.0222C38.2758 13.4263 38.2553 13.8457 38.2144 14.2806C38.1735 14.7102 38.0942 15.1323 37.9766 15.5466C37.864 15.9609 37.7055 16.3548 37.5008 16.7282C37.3013 17.1017 37.0405 17.429 36.7182 17.7104C36.401 17.9866 36.0123 18.2066 35.5519 18.3703C35.0966 18.5339 34.557 18.6158 33.9329 18.6158C33.7129 18.6158 33.493 18.6004 33.273 18.5698C33.0582 18.5391 32.8612 18.5007 32.6822 18.4547C32.5032 18.4086 32.3497 18.36 32.2218 18.3089C32.0991 18.2577 32.0095 18.2066 31.9533 18.1554C31.897 18.0991 31.8561 18.0199 31.8305 17.9176C31.8049 17.8152 31.7921 17.672 31.7921 17.4879C31.7921 17.3191 31.7947 17.1835 31.7998 17.0812C31.81 16.9789 31.8254 16.8996 31.8458 16.8433C31.8714 16.7871 31.8996 16.7513 31.9302 16.7359C31.9661 16.7154 32.007 16.7052 32.053 16.7052C32.1144 16.7052 32.2014 16.7231 32.3139 16.7589C32.4264 16.7947 32.562 16.8357 32.7206 16.8817C32.8843 16.9277 33.0684 16.9687 33.273 17.0045C33.4776 17.0403 33.7053 17.0582 33.9559 17.0582C34.3856 17.0582 34.7488 16.9814 35.0455 16.828C35.3422 16.6745 35.5826 16.4674 35.7667 16.2065C35.9509 15.9456 36.0864 15.6438 36.1734 15.3011C36.2604 14.9583 36.309 14.5977 36.3192 14.2192C36.0839 14.3675 35.8 14.498 35.4675 14.6105C35.135 14.7179 34.7539 14.7716 34.3242 14.7716C33.7973 14.7716 33.3497 14.7026 32.9814 14.5645C32.6131 14.4263 32.3139 14.2268 32.0837 13.966C31.8535 13.7051 31.6847 13.3879 31.5773 13.0145C31.475 12.6411 31.4238 12.2191 31.4238 11.7485C31.4238 11.2523 31.498 10.797 31.6463 10.3827C31.7947 9.96322 32.0146 9.60259 32.3062 9.30078C32.5978 8.99386 32.961 8.756 33.3958 8.58719C33.8306 8.41839 34.3344 8.33398 34.9074 8.33398C35.3677 8.33398 35.7693 8.3877 36.112 8.49512C36.4599 8.60254 36.7566 8.756 37.0021 8.9555C37.2527 9.15499 37.4599 9.39797 37.6236 9.68443C37.7924 9.96577 37.9229 10.2804 38.0149 10.6282C38.1121 10.9761 38.1786 11.352 38.2144 11.7561C38.2553 12.1602 38.2758 12.5823 38.2758 13.0222ZM36.2732 12.746C36.2732 12.1986 36.2425 11.7408 36.1811 11.3725C36.1197 11.0042 36.0276 10.7101 35.9049 10.4901C35.7821 10.2701 35.6286 10.1141 35.4445 10.022C35.2603 9.92997 35.0455 9.88393 34.7999 9.88393C34.5595 9.88393 34.3524 9.92741 34.1784 10.0144C34.0045 10.0962 33.8587 10.2139 33.7411 10.3673C33.6285 10.5208 33.5441 10.7024 33.4879 10.9121C33.4316 11.1218 33.4035 11.352 33.4035 11.6027C33.4035 11.8738 33.4265 12.1142 33.4725 12.3239C33.5237 12.5286 33.6004 12.6999 33.7027 12.838C33.8101 12.971 33.9482 13.0708 34.117 13.1373C34.2859 13.2038 34.4905 13.237 34.7309 13.237C35.0276 13.237 35.3064 13.1935 35.5672 13.1066C35.8332 13.0145 36.0685 12.8943 36.2732 12.746Z" fill="white"/>
<path d="M46.5316 17.6183C46.5316 17.7666 46.524 17.8945 46.5086 18.002C46.4984 18.1043 46.4805 18.1887 46.4549 18.2552C46.4293 18.3217 46.3961 18.3703 46.3552 18.4009C46.3142 18.4265 46.2682 18.4393 46.217 18.4393H40.5083C40.3958 18.4393 40.2986 18.4291 40.2168 18.4086C40.1349 18.3882 40.0684 18.3498 40.0173 18.2935C39.9661 18.2321 39.9278 18.1452 39.9022 18.0326C39.8817 17.9201 39.8715 17.7743 39.8715 17.5953C39.8715 17.4265 39.8792 17.2832 39.8945 17.1656C39.9099 17.0428 39.938 16.9354 39.9789 16.8433C40.0198 16.7461 40.071 16.6541 40.1324 16.5671C40.1989 16.475 40.2833 16.3753 40.3856 16.2679L42.1043 14.4263C42.4471 14.0683 42.7233 13.7434 42.933 13.4519C43.1427 13.1552 43.3064 12.8866 43.4241 12.6462C43.5417 12.4007 43.621 12.1756 43.6619 11.971C43.708 11.7664 43.731 11.572 43.731 11.3878C43.731 11.219 43.7029 11.0605 43.6466 10.9121C43.5954 10.7586 43.5162 10.6257 43.4087 10.5131C43.3064 10.4006 43.176 10.3136 43.0174 10.2522C42.8588 10.1857 42.6721 10.1525 42.4573 10.1525C42.1555 10.1525 41.8869 10.1908 41.6516 10.2676C41.4214 10.3443 41.2168 10.4313 41.0378 10.5285C40.8639 10.6205 40.7181 10.7075 40.6004 10.7893C40.4828 10.8661 40.3907 10.9044 40.3242 10.9044C40.2782 10.9044 40.2372 10.8891 40.2014 10.8584C40.1707 10.8277 40.1452 10.7766 40.1247 10.7049C40.1042 10.6333 40.0863 10.5387 40.071 10.421C40.0608 10.2983 40.0556 10.1499 40.0556 9.976C40.0556 9.85835 40.0582 9.76116 40.0633 9.68443C40.0735 9.60259 40.0863 9.53353 40.1017 9.47726C40.117 9.41588 40.1375 9.36472 40.1631 9.3238C40.1886 9.27776 40.2321 9.22405 40.2935 9.16267C40.36 9.10128 40.4777 9.02455 40.6465 8.93248C40.8204 8.83529 41.0327 8.74321 41.2833 8.65625C41.534 8.56417 41.8102 8.48744 42.112 8.42606C42.4138 8.36468 42.7284 8.33398 43.0558 8.33398C43.5724 8.33398 44.0226 8.40048 44.4062 8.53348C44.795 8.66137 45.1173 8.84296 45.373 9.07826C45.6288 9.30845 45.8181 9.58468 45.9408 9.90695C46.0687 10.2241 46.1326 10.5668 46.1326 10.9351C46.1326 11.2574 46.102 11.5745 46.0406 11.8866C45.9792 12.1986 45.8513 12.5362 45.6569 12.8994C45.4625 13.2575 45.1889 13.6565 44.8359 14.0964C44.483 14.5312 44.0149 15.0376 43.4318 15.6157L42.2731 16.805H46.1864C46.2375 16.805 46.2835 16.8203 46.3245 16.851C46.3705 16.8817 46.4089 16.9303 46.4396 16.9968C46.4703 17.0582 46.4933 17.1426 46.5086 17.25C46.524 17.3523 46.5316 17.4751 46.5316 17.6183Z" fill="white"/>
</svg>
