<svg width="146" height="161" viewBox="0 0 146 161" fill="none" xmlns="http://www.w3.org/2000/svg">
<rect x="6.25781" y="10.8594" width="122.141" height="2.64" fill="#9F9B9B"/>
<rect x="6.25781" y="16.3809" width="122.141" height="2.64" fill="#9F9B9B"/>
<rect x="6.25781" y="52.3809" width="122.141" height="2.64" fill="#9F9B9B"/>
<rect x="6.25781" y="57.9004" width="122.141" height="2.64" fill="#9F9B9B"/>
<rect x="1.91992" y="4.85938" width="6" height="154.8" fill="#AEAEAE"/>
<rect x="1.91992" y="4.85938" width="6" height="6.24" fill="#AEAEAE"/>
<path d="M143.761 60C143.761 62.9 141.361 65.3 138.461 65.3H21.8605C18.9605 65.3 16.5605 62.9 16.5605 60V8.3C16.5605 5.4 18.9605 3 21.8605 3H138.461C141.361 3 143.761 5.4 143.761 8.3V60Z" fill="url(#paint0_linear_349_25306)"/>
<g clip-path="url(#clip0_349_25306)">
<path d="M141.875 0H19.2648C17.4617 0 16 1.46169 16 3.26478V67.8348C16 69.6379 17.4617 71.0996 19.2648 71.0996H141.875C143.678 71.0996 145.14 69.6379 145.14 67.8348V3.26478C145.14 1.46169 143.678 0 141.875 0Z" fill="white"/>
<path d="M17.209 3.24108C17.209 1.93217 18.2701 0.871094 19.579 0.871094H141.56C142.869 0.871094 143.93 1.93217 143.93 3.24108V43.7854H17.209V3.24108Z" fill="#0D69E1"/>
<path d="M27.8984 14.2195H24.416L29.8573 4.79492L35.2986 14.2195H31.8162L31.8887 21.4746H27.971L27.8984 14.2195Z" fill="white"/>
<path d="M30.5105 35.6951V39.1775L21.0859 33.7362L30.5105 28.2949V31.7774L37.7656 31.7048V35.6225L30.5105 35.6951Z" fill="white"/>
<path d="M130.195 57.822V61.3045L139.619 55.8632L130.195 50.4219V53.9043L122.939 53.8318V57.7495L130.195 57.822Z" fill="white"/>
<path fill-rule="evenodd" clip-rule="evenodd" d="M130.195 57.8229L122.94 57.7503V53.8326L130.195 53.9051V50.4227L139.62 55.864L130.195 61.3053V57.8229ZM129.603 53.3067L122.348 53.2341V58.3369L129.603 58.4095V62.3315L140.805 55.864L129.603 49.3965V53.3067Z" fill="black"/>
<path d="M19.2653 0.871094C17.9389 0.871094 16.8711 1.93889 16.8711 3.26526V67.8353C16.8711 69.1616 17.9389 70.2294 19.2653 70.2294H141.876C143.202 70.2294 144.27 69.1616 144.27 67.8353V3.26526C144.27 1.93889 143.202 0.871094 141.876 0.871094H19.2653ZM19.2653 1.3064H141.876C142.961 1.3064 143.835 2.18005 143.835 3.26526V23.8333H17.3064V3.26526C17.3064 2.18005 18.1801 1.3064 19.2653 1.3064ZM17.3064 24.5589H143.835V43.3495H17.3064V24.5589ZM17.3064 44.075H143.835V67.8353C143.835 68.9205 142.961 69.7941 141.876 69.7941H19.2653C18.1801 69.7941 17.3064 68.9205 17.3064 67.8353V44.075Z" fill="black"/>
<path d="M141.875 0.0722656H19.2645C17.5015 0.0722656 16.0723 1.50147 16.0723 3.26449V67.8345C16.0723 69.5975 17.5015 71.0267 19.2645 71.0267H141.875C143.638 71.0267 145.067 69.5975 145.067 67.8345V3.26449C145.067 1.50147 143.638 0.0722656 141.875 0.0722656Z" stroke="black" stroke-width="2"/>
<path d="M55.8984 15.6656C55.8984 15.8114 55.8637 15.9208 55.7943 15.9937C55.7248 16.0631 55.6276 16.0979 55.5027 16.0979H48.207C48.0855 16.0979 47.9865 16.0631 47.9101 15.9937C47.8372 15.9208 47.8008 15.8114 47.8008 15.6656V9.52601C47.8008 9.49129 47.8112 9.46178 47.832 9.43748C47.8563 9.41318 47.8945 9.39409 47.9466 9.3802C47.9987 9.36284 48.0681 9.35069 48.1549 9.34375C48.2417 9.33333 48.3476 9.32812 48.4725 9.32812C48.601 9.32812 48.7069 9.33333 48.7902 9.34375C48.877 9.35069 48.9464 9.36284 48.9985 9.3802C49.0506 9.39409 49.087 9.41318 49.1079 9.43748C49.1322 9.46178 49.1443 9.49129 49.1443 9.52601V14.9835H51.1804V9.52601C51.1804 9.49129 51.1909 9.46178 51.2117 9.43748C51.236 9.41318 51.2724 9.39409 51.321 9.3802C51.3731 9.36284 51.4425 9.35069 51.5293 9.34375C51.6161 9.33333 51.722 9.32812 51.847 9.32812C51.972 9.32812 52.0761 9.33333 52.1594 9.34375C52.2462 9.35069 52.3157 9.36284 52.3677 9.3802C52.4198 9.39409 52.4563 9.41318 52.4771 9.43748C52.5014 9.46178 52.5136 9.49129 52.5136 9.52601V14.9835H54.5549V9.52601C54.5549 9.49129 54.5653 9.46178 54.5861 9.43748C54.6104 9.41318 54.6486 9.39409 54.7007 9.3802C54.7528 9.36284 54.8205 9.35069 54.9038 9.34375C54.9906 9.33333 55.0982 9.32812 55.2267 9.32812C55.3516 9.32812 55.4558 9.33333 55.5391 9.34375C55.6259 9.35069 55.6953 9.36284 55.7474 9.3802C55.7995 9.39409 55.8377 9.41318 55.862 9.43748C55.8863 9.46178 55.8984 9.49129 55.8984 9.52601V15.6656Z" fill="white"/>
<path d="M61.5796 15.5615C61.5796 15.6622 61.5744 15.7472 61.564 15.8167C61.557 15.8826 61.5449 15.9364 61.5275 15.9781C61.5101 16.0197 61.4876 16.051 61.4598 16.0718C61.4355 16.0892 61.4077 16.0979 61.3765 16.0979H57.9916C57.8771 16.0979 57.7799 16.0649 57.7 15.9989C57.6236 15.9295 57.5854 15.8184 57.5854 15.6656V9.79159C57.5854 9.63884 57.6236 9.52948 57.7 9.46352C57.7799 9.39409 57.8771 9.35937 57.9916 9.35937H61.3557C61.3869 9.35937 61.4147 9.36805 61.439 9.38541C61.4633 9.40277 61.4841 9.43401 61.5015 9.47914C61.5188 9.5208 61.531 9.57635 61.5379 9.64578C61.5483 9.71174 61.5535 9.7968 61.5535 9.90095C61.5535 9.99815 61.5483 10.0815 61.5379 10.1509C61.531 10.2169 61.5188 10.2707 61.5015 10.3123C61.4841 10.354 61.4633 10.3852 61.439 10.4061C61.4147 10.4234 61.3869 10.4321 61.3557 10.4321H58.9498V12.0777H60.9859C61.0172 12.0777 61.0449 12.0881 61.0692 12.1089C61.097 12.1263 61.1196 12.1558 61.1369 12.1974C61.1543 12.2356 61.1665 12.2894 61.1734 12.3589C61.1838 12.4248 61.189 12.5064 61.189 12.6036C61.189 12.7043 61.1838 12.7876 61.1734 12.8536C61.1665 12.9196 61.1543 12.9734 61.1369 13.015C61.1196 13.0532 61.097 13.081 61.0692 13.0983C61.0449 13.1157 61.0172 13.1244 60.9859 13.1244H58.9498V15.0251H61.3765C61.4077 15.0251 61.4355 15.0355 61.4598 15.0564C61.4876 15.0737 61.5101 15.1032 61.5275 15.1449C61.5449 15.1865 61.557 15.2421 61.564 15.3115C61.5744 15.3775 61.5796 15.4608 61.5796 15.5615Z" fill="white"/>
<path d="M68.1148 15.9208C68.1148 15.9555 68.1044 15.9868 68.0835 16.0145C68.0627 16.0388 68.0262 16.0597 67.9742 16.077C67.9221 16.0944 67.8509 16.1065 67.7607 16.1135C67.6739 16.1239 67.5645 16.1291 67.4326 16.1291C67.2972 16.1291 67.1861 16.1239 67.0993 16.1135C67.0125 16.1065 66.9431 16.0944 66.891 16.077C66.8389 16.0597 66.8025 16.0388 66.7817 16.0145C66.7608 15.9868 66.7504 15.9555 66.7504 15.9208V10.4842H65.3027C65.2055 11.2792 65.1066 11.9735 65.0059 12.5672C64.9052 13.1608 64.7976 13.6694 64.683 14.093C64.5685 14.5165 64.4418 14.8637 64.3029 15.1345C64.1675 15.4053 64.0113 15.6205 63.8342 15.7802C63.6606 15.9364 63.4627 16.044 63.2406 16.1031C63.0218 16.1621 62.7719 16.1916 62.4907 16.1916C62.4386 16.1916 62.3935 16.1846 62.3553 16.1708C62.3171 16.1569 62.2859 16.1308 62.2616 16.0926C62.2407 16.0545 62.2251 16.0007 62.2147 15.9312C62.2043 15.8618 62.1991 15.7733 62.1991 15.6656C62.1991 15.5164 62.2025 15.3966 62.2095 15.3063C62.2164 15.2126 62.2286 15.1414 62.2459 15.0928C62.2633 15.0407 62.2859 15.006 62.3136 14.9887C62.3414 14.9713 62.3744 14.9626 62.4126 14.9626C62.5202 14.9626 62.6226 14.9418 62.7198 14.9001C62.8205 14.855 62.916 14.7682 63.0062 14.6398C63.1 14.5113 63.1885 14.3308 63.2718 14.0982C63.3586 13.8656 63.4419 13.5601 63.5218 13.1817C63.6051 12.7998 63.6867 12.3363 63.7665 11.7913C63.8498 11.2427 63.9332 10.5918 64.0165 9.83846C64.0373 9.6614 64.079 9.53816 64.1415 9.46873C64.2039 9.39582 64.2959 9.35937 64.4175 9.35937H67.7242C67.8492 9.35937 67.9447 9.39582 68.0106 9.46873C68.0801 9.53816 68.1148 9.64578 68.1148 9.79159V15.9208Z" fill="white"/>
<path d="M73.7959 15.5615C73.7959 15.6622 73.7907 15.7472 73.7803 15.8167C73.7734 15.8826 73.7612 15.9364 73.7439 15.9781C73.7265 16.0197 73.7039 16.051 73.6762 16.0718C73.6519 16.0892 73.6241 16.0979 73.5928 16.0979H70.208C70.0934 16.0979 69.9962 16.0649 69.9164 15.9989C69.84 15.9295 69.8018 15.8184 69.8018 15.6656V9.79159C69.8018 9.63884 69.84 9.52948 69.9164 9.46352C69.9962 9.39409 70.0934 9.35937 70.208 9.35937H73.572C73.6033 9.35937 73.631 9.36805 73.6553 9.38541C73.6796 9.40277 73.7005 9.43401 73.7178 9.47914C73.7352 9.5208 73.7473 9.57635 73.7543 9.64578C73.7647 9.71174 73.7699 9.7968 73.7699 9.90095C73.7699 9.99815 73.7647 10.0815 73.7543 10.1509C73.7473 10.2169 73.7352 10.2707 73.7178 10.3123C73.7005 10.354 73.6796 10.3852 73.6553 10.4061C73.631 10.4234 73.6033 10.4321 73.572 10.4321H71.1661V12.0777H73.2023C73.2335 12.0777 73.2613 12.0881 73.2856 12.1089C73.3134 12.1263 73.3359 12.1558 73.3533 12.1974C73.3707 12.2356 73.3828 12.2894 73.3897 12.3589C73.4002 12.4248 73.4054 12.5064 73.4054 12.6036C73.4054 12.7043 73.4002 12.7876 73.3897 12.8536C73.3828 12.9196 73.3707 12.9734 73.3533 13.015C73.3359 13.0532 73.3134 13.081 73.2856 13.0983C73.2613 13.1157 73.2335 13.1244 73.2023 13.1244H71.1661V15.0251H73.5928C73.6241 15.0251 73.6519 15.0355 73.6762 15.0564C73.7039 15.0737 73.7265 15.1032 73.7439 15.1449C73.7612 15.1865 73.7734 15.2421 73.7803 15.3115C73.7907 15.3775 73.7959 15.4608 73.7959 15.5615Z" fill="white"/>
<path d="M80.2113 15.9156C80.2113 15.9538 80.2009 15.9868 80.1801 16.0145C80.1593 16.0388 80.1211 16.0597 80.0655 16.077C80.0135 16.0944 79.9423 16.1065 79.852 16.1135C79.7618 16.1239 79.6455 16.1291 79.5031 16.1291C79.3538 16.1291 79.2323 16.1239 79.1386 16.1135C79.0483 16.1065 78.9754 16.0944 78.9199 16.077C78.8643 16.0562 78.8227 16.0302 78.7949 15.9989C78.7671 15.9642 78.7463 15.9225 78.7324 15.8739L78.1908 14.3742C78.1145 14.1555 78.0346 13.9732 77.9513 13.8274C77.868 13.6781 77.776 13.5583 77.6753 13.4681C77.5746 13.3743 77.4601 13.3084 77.3316 13.2702C77.2031 13.232 77.0591 13.2129 76.8994 13.2129H76.5921V15.9104C76.5921 15.9486 76.5817 15.9816 76.5609 16.0093C76.5401 16.0336 76.5036 16.0562 76.4515 16.077C76.3995 16.0944 76.33 16.1065 76.2432 16.1135C76.1564 16.1239 76.0454 16.1291 75.91 16.1291C75.778 16.1291 75.6669 16.1239 75.5767 16.1135C75.4899 16.1065 75.4205 16.0944 75.3684 16.077C75.3163 16.0562 75.2781 16.0336 75.2538 16.0093C75.233 15.9816 75.2226 15.9486 75.2226 15.9104V9.54163C75.2226 9.50344 75.233 9.4722 75.2538 9.4479C75.2781 9.42012 75.3163 9.39756 75.3684 9.3802C75.4205 9.36284 75.4899 9.35069 75.5767 9.34375C75.6669 9.33333 75.778 9.32812 75.91 9.32812C76.0454 9.32812 76.1564 9.33333 76.2432 9.34375C76.33 9.35069 76.3995 9.36284 76.4515 9.3802C76.5036 9.39756 76.5401 9.42012 76.5609 9.4479C76.5817 9.4722 76.5921 9.50344 76.5921 9.54163V12.0725H76.8994C77.0556 12.0725 77.1927 12.0516 77.3108 12.01C77.4288 11.9683 77.5347 11.9024 77.6284 11.8121C77.7256 11.7218 77.8124 11.6055 77.8888 11.4632C77.9687 11.3174 78.045 11.1386 78.1179 10.9268L78.571 9.58329C78.5883 9.53469 78.6092 9.49476 78.6335 9.46352C78.6578 9.4288 78.696 9.40277 78.748 9.38541C78.8036 9.36458 78.8748 9.35069 78.9615 9.34375C79.0518 9.33333 79.1716 9.32812 79.3209 9.32812C79.4563 9.32812 79.5673 9.33333 79.6541 9.34375C79.7444 9.35069 79.8138 9.36284 79.8624 9.3802C79.9145 9.39409 79.9492 9.41492 79.9666 9.44269C79.9839 9.46699 79.9926 9.49824 79.9926 9.53642C79.9926 9.58156 79.9839 9.6371 79.9666 9.70306C79.9527 9.76903 79.9267 9.85582 79.8885 9.96344L79.4354 11.1612C79.3521 11.3833 79.2688 11.5726 79.1855 11.7288C79.1021 11.885 79.0136 12.0187 78.9199 12.1298C78.8296 12.2374 78.7324 12.3259 78.6283 12.3953C78.5276 12.4648 78.4148 12.522 78.2898 12.5672V12.5724C78.4286 12.6314 78.5536 12.6991 78.6647 12.7755C78.7793 12.8484 78.8852 12.9421 78.9824 13.0567C79.0831 13.1712 79.1785 13.3119 79.2688 13.4785C79.3591 13.6451 79.451 13.85 79.5448 14.093L80.0968 15.4886C80.1523 15.6309 80.1853 15.7299 80.1957 15.7854C80.2061 15.8375 80.2113 15.8809 80.2113 15.9156Z" fill="white"/>
<path d="M113.485 15.5777C113.485 15.675 113.48 15.7583 113.469 15.8277C113.459 15.8937 113.443 15.9475 113.423 15.9891C113.405 16.0273 113.384 16.0551 113.36 16.0725C113.336 16.0898 113.308 16.0985 113.277 16.0985H109.559C109.531 16.0985 109.505 16.0898 109.48 16.0725C109.456 16.0551 109.434 16.0273 109.413 15.9891C109.395 15.9475 109.382 15.8937 109.371 15.8277C109.361 15.7583 109.355 15.675 109.355 15.5777C109.355 15.4771 109.359 15.3937 109.366 15.3278C109.376 15.2584 109.39 15.2028 109.408 15.1611C109.428 15.1195 109.451 15.09 109.475 15.0726C109.5 15.0518 109.527 15.0414 109.559 15.0414H110.814V10.6567L109.73 11.2555C109.651 11.2937 109.585 11.318 109.533 11.3284C109.484 11.3354 109.444 11.325 109.413 11.2972C109.385 11.2659 109.366 11.2139 109.355 11.141C109.345 11.0681 109.34 10.9656 109.34 10.8337C109.34 10.7504 109.342 10.6827 109.345 10.6306C109.349 10.5751 109.357 10.5282 109.371 10.49C109.385 10.4518 109.404 10.4206 109.428 10.3963C109.453 10.372 109.486 10.346 109.527 10.3182L110.975 9.38084C110.992 9.36695 111.013 9.35653 111.037 9.34959C111.065 9.33918 111.1 9.33223 111.142 9.32876C111.183 9.32182 111.237 9.31835 111.303 9.31835C111.372 9.31488 111.461 9.31314 111.569 9.31314C111.701 9.31314 111.806 9.31661 111.886 9.32355C111.97 9.32703 112.032 9.3357 112.074 9.34959C112.115 9.36001 112.143 9.37563 112.157 9.39646C112.171 9.41729 112.178 9.44333 112.178 9.47457V15.0414H113.277C113.308 15.0414 113.336 15.0518 113.36 15.0726C113.388 15.09 113.41 15.1195 113.428 15.1611C113.449 15.2028 113.462 15.2584 113.469 15.3278C113.48 15.3937 113.485 15.4771 113.485 15.5777Z" fill="white"/>
<path d="M119.166 15.5413C119.166 15.642 119.161 15.7288 119.151 15.8017C119.144 15.8711 119.131 15.9284 119.114 15.9735C119.097 16.0186 119.074 16.0516 119.046 16.0725C119.019 16.0898 118.987 16.0985 118.953 16.0985H115.078C115.002 16.0985 114.936 16.0916 114.88 16.0777C114.825 16.0638 114.78 16.0377 114.745 15.9996C114.71 15.9579 114.684 15.8989 114.667 15.8225C114.653 15.7461 114.646 15.6472 114.646 15.5257C114.646 15.4111 114.651 15.3139 114.662 15.2341C114.672 15.1507 114.691 15.0778 114.719 15.0153C114.747 14.9494 114.781 14.8869 114.823 14.8279C114.868 14.7654 114.926 14.6977 114.995 14.6248L116.161 13.375C116.394 13.132 116.582 12.9115 116.724 12.7136C116.866 12.5123 116.977 12.33 117.057 12.1668C117.137 12.0002 117.191 11.8474 117.219 11.7086C117.25 11.5697 117.265 11.4378 117.265 11.3128C117.265 11.1982 117.246 11.0906 117.208 10.9899C117.173 10.8858 117.12 10.7955 117.047 10.7192C116.977 10.6428 116.889 10.5838 116.781 10.5421C116.674 10.497 116.547 10.4744 116.401 10.4744C116.196 10.4744 116.014 10.5004 115.854 10.5525C115.698 10.6046 115.559 10.6636 115.438 10.7296C115.32 10.7921 115.221 10.8511 115.141 10.9066C115.061 10.9587 114.998 10.9847 114.953 10.9847C114.922 10.9847 114.894 10.9743 114.87 10.9535C114.849 10.9327 114.832 10.898 114.818 10.8493C114.804 10.8007 114.792 10.7365 114.781 10.6567C114.775 10.5734 114.771 10.4727 114.771 10.3546C114.771 10.2748 114.773 10.2088 114.776 10.1568C114.783 10.1012 114.792 10.0543 114.802 10.0161C114.813 9.97449 114.827 9.93977 114.844 9.912C114.861 9.88076 114.891 9.8443 114.932 9.80264C114.978 9.76098 115.057 9.70891 115.172 9.64642C115.29 9.58046 115.434 9.51797 115.604 9.45895C115.774 9.39646 115.962 9.34438 116.167 9.30272C116.371 9.26106 116.585 9.24023 116.807 9.24023C117.158 9.24023 117.463 9.28537 117.724 9.37563C117.988 9.46242 118.206 9.58566 118.38 9.74536C118.553 9.90159 118.682 10.0891 118.765 10.3078C118.852 10.523 118.895 10.7556 118.895 11.0056C118.895 11.2243 118.875 11.4395 118.833 11.6513C118.791 11.8631 118.704 12.0922 118.573 12.3387C118.441 12.5817 118.255 12.8525 118.015 13.1511C117.776 13.4461 117.458 13.7898 117.062 14.1821L116.276 14.9893H118.932C118.967 14.9893 118.998 14.9997 119.026 15.0205C119.057 15.0414 119.083 15.0744 119.104 15.1195C119.125 15.1611 119.14 15.2184 119.151 15.2913C119.161 15.3608 119.166 15.4441 119.166 15.5413Z" fill="white"/>
<path d="M124.92 12.7032C124.92 13.2413 124.877 13.7274 124.79 14.1613C124.703 14.5953 124.561 14.965 124.363 15.2705C124.169 15.576 123.913 15.8103 123.598 15.9735C123.285 16.1367 122.901 16.2183 122.447 16.2183C121.985 16.2183 121.603 16.1402 121.301 15.9839C120.999 15.8242 120.759 15.5968 120.582 15.3017C120.405 15.0032 120.28 14.6404 120.207 14.2134C120.138 13.7829 120.103 13.2969 120.103 12.7553C120.103 12.2207 120.147 11.7364 120.233 11.3024C120.324 10.865 120.466 10.4935 120.661 10.188C120.858 9.88249 121.114 9.64815 121.426 9.48499C121.742 9.32182 122.126 9.24023 122.577 9.24023C123.039 9.24023 123.42 9.32008 123.723 9.47978C124.028 9.636 124.269 9.8634 124.446 10.162C124.623 10.4571 124.747 10.8198 124.816 11.2503C124.886 11.6773 124.92 12.1616 124.92 12.7032ZM123.54 12.7709C123.54 12.4515 123.532 12.1703 123.514 11.9273C123.497 11.6808 123.469 11.4673 123.431 11.2868C123.396 11.1063 123.351 10.9535 123.295 10.8285C123.243 10.7035 123.179 10.6046 123.103 10.5317C123.026 10.4553 122.94 10.4015 122.842 10.3703C122.745 10.339 122.638 10.3234 122.52 10.3234C122.315 10.3234 122.145 10.3737 122.009 10.4744C121.877 10.5716 121.771 10.7192 121.692 10.917C121.615 11.1149 121.561 11.3614 121.53 11.6565C121.499 11.9516 121.483 12.2953 121.483 12.6876C121.483 13.1667 121.502 13.5642 121.541 13.8801C121.579 14.1926 121.638 14.4425 121.718 14.63C121.801 14.814 121.907 14.9442 122.035 15.0205C122.164 15.0934 122.318 15.1299 122.499 15.1299C122.634 15.1299 122.754 15.1091 122.858 15.0674C122.962 15.0223 123.052 14.9563 123.129 14.8695C123.209 14.7827 123.275 14.6734 123.327 14.5415C123.379 14.4095 123.42 14.2568 123.452 14.0832C123.486 13.9096 123.509 13.7135 123.519 13.4948C123.533 13.276 123.54 13.0348 123.54 12.7709Z" fill="white"/>
<path d="M119.104 37.2535C119.104 37.3507 119.099 37.4341 119.089 37.5035C119.078 37.5694 119.062 37.6233 119.042 37.6649C119.024 37.7031 119.003 37.7309 118.979 37.7482C118.955 37.7656 118.927 37.7743 118.896 37.7743H115.178C115.15 37.7743 115.124 37.7656 115.1 37.7482C115.075 37.7309 115.053 37.7031 115.032 37.6649C115.015 37.6233 115.001 37.5694 114.99 37.5035C114.98 37.4341 114.975 37.3507 114.975 37.2535C114.975 37.1528 114.978 37.0695 114.985 37.0036C114.995 36.9341 115.009 36.8786 115.027 36.8369C115.048 36.7953 115.07 36.7658 115.094 36.7484C115.119 36.7276 115.146 36.7172 115.178 36.7172H116.433V32.3325L115.35 32.9313C115.27 32.9695 115.204 32.9938 115.152 33.0042C115.103 33.0112 115.063 33.0007 115.032 32.973C115.004 32.9417 114.985 32.8897 114.975 32.8167C114.964 32.7438 114.959 32.6414 114.959 32.5095C114.959 32.4262 114.961 32.3585 114.964 32.3064C114.968 32.2509 114.976 32.204 114.99 32.1658C115.004 32.1276 115.023 32.0964 115.048 32.0721C115.072 32.0478 115.105 32.0217 115.146 31.994L116.594 31.0566C116.611 31.0427 116.632 31.0323 116.657 31.0254C116.684 31.015 116.719 31.008 116.761 31.0045C116.802 30.9976 116.856 30.9941 116.922 30.9941C116.992 30.9907 117.08 30.9889 117.188 30.9889C117.32 30.9889 117.426 30.9924 117.505 30.9993C117.589 31.0028 117.651 31.0115 117.693 31.0254C117.735 31.0358 117.762 31.0514 117.776 31.0722C117.79 31.0931 117.797 31.1191 117.797 31.1504V36.7172H118.896C118.927 36.7172 118.955 36.7276 118.979 36.7484C119.007 36.7658 119.03 36.7953 119.047 36.8369C119.068 36.8786 119.082 36.9341 119.089 37.0036C119.099 37.0695 119.104 37.1528 119.104 37.2535Z" fill="white"/>
<path d="M124.921 34.379C124.921 34.9171 124.877 35.4031 124.791 35.8371C124.704 36.271 124.561 36.6408 124.363 36.9463C124.169 37.2518 123.914 37.4861 123.598 37.6493C123.286 37.8125 122.902 37.894 122.447 37.894C121.985 37.894 121.604 37.8159 121.301 37.6597C120.999 37.5 120.76 37.2726 120.583 36.9775C120.406 36.679 120.281 36.3162 120.208 35.8892C120.138 35.4587 120.104 34.9726 120.104 34.4311C120.104 33.8964 120.147 33.4121 120.234 32.9782C120.324 32.5408 120.467 32.1693 120.661 31.8638C120.859 31.5583 121.114 31.3239 121.426 31.1608C121.742 30.9976 122.126 30.916 122.577 30.916C123.039 30.916 123.421 30.9959 123.723 31.1556C124.028 31.3118 124.27 31.5392 124.447 31.8377C124.624 32.1328 124.747 32.4956 124.817 32.9261C124.886 33.3531 124.921 33.8374 124.921 34.379ZM123.541 34.4467C123.541 34.1273 123.532 33.8461 123.515 33.6031C123.497 33.3566 123.47 33.1431 123.431 32.9626C123.397 32.782 123.352 32.6293 123.296 32.5043C123.244 32.3793 123.18 32.2804 123.103 32.2075C123.027 32.1311 122.94 32.0773 122.843 32.046C122.746 32.0148 122.638 31.9992 122.52 31.9992C122.315 31.9992 122.145 32.0495 122.01 32.1502C121.878 32.2474 121.772 32.3949 121.692 32.5928C121.616 32.7907 121.562 33.0372 121.531 33.3323C121.499 33.6274 121.484 33.9711 121.484 34.3634C121.484 34.8425 121.503 35.24 121.541 35.5559C121.579 35.8683 121.638 36.1183 121.718 36.3058C121.801 36.4898 121.907 36.6199 122.036 36.6963C122.164 36.7692 122.319 36.8057 122.499 36.8057C122.635 36.8057 122.754 36.7849 122.859 36.7432C122.963 36.6981 123.053 36.6321 123.129 36.5453C123.209 36.4585 123.275 36.3492 123.327 36.2172C123.379 36.0853 123.421 35.9326 123.452 35.759C123.487 35.5854 123.509 35.3892 123.52 35.1705C123.534 34.9518 123.541 34.7105 123.541 34.4467Z" fill="white"/>
<path d="M117.546 58.1528C117.546 58.4583 117.492 58.7309 117.385 58.9704C117.281 59.2099 117.124 59.413 116.916 59.5797C116.711 59.7428 116.456 59.8678 116.15 59.9546C115.845 60.0379 115.493 60.0796 115.093 60.0796C114.711 60.0796 114.376 60.0414 114.088 59.965C113.8 59.8887 113.559 59.7776 113.364 59.6317C113.17 59.4825 113.024 59.3002 112.927 59.085C112.83 58.8662 112.781 58.6163 112.781 58.3351C112.781 58.1441 112.809 57.9654 112.865 57.7987C112.924 57.6286 113.009 57.4724 113.12 57.33C113.234 57.1842 113.375 57.0488 113.542 56.9239C113.712 56.7954 113.906 56.6739 114.125 56.5593C113.948 56.4621 113.788 56.358 113.646 56.2469C113.503 56.1323 113.382 56.0091 113.281 55.8772C113.18 55.7418 113.104 55.5942 113.052 55.4345C113 55.2748 112.974 55.1012 112.974 54.9138C112.974 54.643 113.021 54.3982 113.115 54.1795C113.212 53.9573 113.354 53.7664 113.542 53.6067C113.732 53.4435 113.97 53.3185 114.255 53.2317C114.54 53.145 114.869 53.1016 115.244 53.1016C115.616 53.1016 115.934 53.1415 116.197 53.2213C116.465 53.3012 116.683 53.414 116.854 53.5598C117.024 53.7056 117.149 53.8809 117.228 54.0858C117.312 54.2871 117.353 54.5111 117.353 54.7575C117.353 54.9207 117.326 55.0804 117.27 55.2366C117.218 55.3894 117.143 55.5352 117.046 55.6741C116.949 55.8129 116.829 55.9448 116.687 56.0698C116.545 56.1913 116.383 56.3024 116.203 56.4031C116.414 56.5142 116.604 56.6322 116.77 56.7572C116.937 56.8822 117.077 57.0176 117.192 57.1634C117.307 57.3057 117.393 57.4585 117.452 57.6217C117.515 57.7848 117.546 57.9619 117.546 58.1528ZM116.036 54.8825C116.036 54.761 116.019 54.6517 115.984 54.5545C115.949 54.4572 115.894 54.3757 115.817 54.3097C115.744 54.2403 115.652 54.1882 115.541 54.1535C115.434 54.1188 115.305 54.1014 115.156 54.1014C114.864 54.1014 114.647 54.1691 114.505 54.3045C114.363 54.4364 114.291 54.6204 114.291 54.8565C114.291 54.9676 114.309 55.07 114.343 55.1637C114.382 55.2575 114.439 55.346 114.515 55.4293C114.592 55.5126 114.691 55.5942 114.812 55.6741C114.934 55.7539 115.078 55.839 115.244 55.9292C115.498 55.7799 115.692 55.6202 115.828 55.4501C115.966 55.28 116.036 55.0908 116.036 54.8825ZM116.192 58.2466C116.192 58.1181 116.17 58.0018 116.124 57.8977C116.083 57.79 116.015 57.6894 115.921 57.5956C115.831 57.5019 115.717 57.4116 115.578 57.3248C115.439 57.238 115.277 57.1495 115.093 57.0593C114.934 57.146 114.793 57.2328 114.672 57.3196C114.55 57.4064 114.449 57.4984 114.37 57.5956C114.29 57.6894 114.229 57.79 114.187 57.8977C114.149 58.0018 114.13 58.1146 114.13 58.2361C114.13 58.5069 114.217 58.7135 114.39 58.8558C114.567 58.9982 114.83 59.0693 115.177 59.0693C115.517 59.0693 115.77 58.9964 115.937 58.8506C116.107 58.7048 116.192 58.5035 116.192 58.2466Z" fill="black"/>
<path d="M50.1469 28.5061C49.8286 28.5061 49.5256 28.5421 49.238 28.614C48.9505 28.6807 48.6963 28.7629 48.4755 28.8604C48.2547 28.9529 48.0852 29.0376 47.9671 29.1146V28.1056C48.1212 28.0132 48.2958 27.9233 48.4909 27.836C48.6912 27.7487 48.9274 27.6768 49.1995 27.6203C49.4717 27.5639 49.7901 27.5356 50.1546 27.5356C50.6014 27.5356 50.9968 27.6024 51.3408 27.7359C51.6849 27.8694 51.9724 28.062 52.2035 28.3136C52.4397 28.5652 52.6169 28.8656 52.735 29.2148C52.8531 29.5639 52.9121 29.9516 52.9121 30.3778C52.9121 30.8143 52.8556 31.2071 52.7427 31.5563C52.6297 31.9003 52.4602 32.1956 52.2343 32.4421C52.0135 32.6834 51.7413 32.8709 51.4178 33.0044C51.0943 33.1327 50.7195 33.1969 50.2933 33.1969C49.6668 33.1969 49.161 33.0763 48.7759 32.8349C48.3959 32.5884 48.1186 32.2444 47.944 31.8028C47.7694 31.3612 47.6822 30.8451 47.6822 30.2546V29.985H51.6951C51.6746 29.6769 51.6053 29.4125 51.4872 29.1916C51.3691 28.9708 51.197 28.8014 50.9711 28.6833C50.7503 28.5652 50.4756 28.5061 50.1469 28.5061ZM50.2933 32.2264C50.5552 32.2264 50.7862 32.1776 50.9865 32.0801C51.1868 31.9825 51.346 31.8387 51.4641 31.6487C51.5873 31.4587 51.6592 31.2277 51.6797 30.9555H48.8914C48.8914 31.2225 48.9351 31.451 49.0224 31.641C49.1097 31.831 49.256 31.9774 49.4614 32.0801C49.6668 32.1776 49.9441 32.2264 50.2933 32.2264Z" fill="white"/>
<path d="M56.7966 31.5707C56.6693 31.8947 56.5434 32.1623 56.419 32.3735C56.2975 32.5847 56.1659 32.7525 56.0241 32.8769C55.8853 32.9984 55.7319 33.0823 55.5641 33.1286C55.3992 33.1778 55.2097 33.2024 54.9957 33.2024C54.9175 33.2024 54.8409 33.1966 54.7657 33.185C54.6904 33.1763 54.6196 33.1633 54.553 33.1459C54.4865 33.1286 54.4286 33.1083 54.3794 33.0852C54.3303 33.062 54.2941 33.0403 54.2709 33.0201C54.2478 32.9998 54.229 32.9781 54.2145 32.955C54.203 32.929 54.1928 32.8957 54.1842 32.8552C54.1755 32.8147 54.1682 32.7641 54.1625 32.7033C54.1596 32.6397 54.1581 32.5615 54.1581 32.469C54.1581 32.3012 54.1697 32.1826 54.1928 32.1131C54.2189 32.0408 54.2579 32.0046 54.31 32.0046C54.336 32.0046 54.365 32.0148 54.3968 32.035C54.4286 32.0553 54.4662 32.077 54.5096 32.1001C54.5559 32.1232 54.608 32.1449 54.6658 32.1652C54.7266 32.1826 54.7975 32.1912 54.8785 32.1912C54.9392 32.1912 54.9957 32.1854 55.0477 32.1739C55.0998 32.1594 55.149 32.1334 55.1953 32.0958C55.2416 32.0582 55.2878 32.0061 55.3341 31.9395C55.3804 31.8701 55.4296 31.7804 55.4817 31.6705L53.633 27.9081C53.5925 27.8184 53.5679 27.7461 53.5593 27.6911C53.5535 27.6332 53.5679 27.5884 53.6026 27.5566C53.6374 27.5247 53.6952 27.5045 53.7762 27.4958C53.8601 27.4842 53.9715 27.4785 54.1104 27.4785C54.2464 27.4785 54.3548 27.4813 54.4358 27.4871C54.5169 27.4929 54.5819 27.5059 54.6311 27.5262C54.6803 27.5435 54.7179 27.571 54.744 27.6086C54.77 27.6434 54.796 27.6896 54.8221 27.7475L55.6119 29.4486C55.6987 29.6309 55.7811 29.8131 55.8592 29.9954C55.9373 30.1748 56.0126 30.357 56.0849 30.5422H56.0979C56.1558 30.3484 56.2165 30.1603 56.2802 29.9781C56.3467 29.7929 56.419 29.5991 56.4971 29.3965L57.1437 27.6694C57.1582 27.6289 57.177 27.5971 57.2002 27.5739C57.2233 27.5479 57.258 27.5276 57.3043 27.5132C57.3506 27.4987 57.4142 27.49 57.4952 27.4871C57.5763 27.4813 57.6818 27.4785 57.812 27.4785C57.9451 27.4785 58.0507 27.4828 58.1288 27.4915C58.2069 27.5002 58.2633 27.5175 58.2981 27.5435C58.3328 27.5667 58.3487 27.6 58.3458 27.6434C58.3429 27.6868 58.3284 27.7432 58.3024 27.8126L56.7966 31.5707Z" fill="white"/>
<path d="M62.5029 32.6729C62.5029 32.7568 62.4986 32.8277 62.4899 32.8856C62.4841 32.9405 62.474 32.9854 62.4595 33.0201C62.4451 33.0548 62.4263 33.0808 62.4031 33.0982C62.3829 33.1127 62.3597 33.1199 62.3337 33.1199H59.513C59.4175 33.1199 59.3365 33.0924 59.27 33.0374C59.2063 32.9796 59.1745 32.887 59.1745 32.7597V27.8647C59.1745 27.7374 59.2063 27.6463 59.27 27.5913C59.3365 27.5334 59.4175 27.5045 59.513 27.5045H62.3163C62.3424 27.5045 62.3655 27.5117 62.3858 27.5262C62.406 27.5407 62.4234 27.5667 62.4378 27.6043C62.4523 27.639 62.4624 27.6853 62.4682 27.7432C62.4769 27.7981 62.4812 27.869 62.4812 27.9558C62.4812 28.0368 62.4769 28.1062 62.4682 28.1641C62.4624 28.2191 62.4523 28.2639 62.4378 28.2986C62.4234 28.3334 62.406 28.3594 62.3858 28.3767C62.3655 28.3912 62.3424 28.3984 62.3163 28.3984H60.3115V29.7698H62.0082C62.0343 29.7698 62.0574 29.7784 62.0777 29.7958C62.1008 29.8103 62.1196 29.8348 62.1341 29.8696C62.1485 29.9014 62.1587 29.9462 62.1645 30.0041C62.1731 30.0591 62.1775 30.127 62.1775 30.208C62.1775 30.2919 62.1731 30.3614 62.1645 30.4163C62.1587 30.4713 62.1485 30.5162 62.1341 30.5509C62.1196 30.5827 62.1008 30.6058 62.0777 30.6203C62.0574 30.6348 62.0343 30.642 62.0082 30.642H60.3115V32.2259H62.3337C62.3597 32.2259 62.3829 32.2346 62.4031 32.252C62.4263 32.2665 62.4451 32.291 62.4595 32.3258C62.474 32.3605 62.4841 32.4068 62.4899 32.4646C62.4986 32.5196 62.5029 32.589 62.5029 32.6729Z" fill="white"/>
<path d="M70.2272 32.968C70.2272 32.9998 70.2185 33.0273 70.2012 33.0505C70.1838 33.0707 70.152 33.0881 70.1057 33.1025C70.0623 33.117 70.0015 33.1271 69.9234 33.1329C69.8482 33.1416 69.7513 33.1459 69.6327 33.1459C69.5112 33.1459 69.4114 33.1416 69.3333 33.1329C69.2551 33.1271 69.1929 33.117 69.1467 33.1025C69.1033 33.0852 69.07 33.0635 69.0468 33.0374C69.0266 33.0085 69.0092 32.9738 68.9948 32.9333L68.5912 31.6618C68.5362 31.4824 68.4755 31.3334 68.4089 31.2148C68.3453 31.0933 68.2715 30.995 68.1876 30.9197C68.1066 30.8445 68.014 30.7924 67.9099 30.7635C67.8086 30.7317 67.6914 30.7158 67.5584 30.7158H67.337V32.9637C67.337 32.9955 67.3284 33.023 67.311 33.0461C67.2937 33.0664 67.2633 33.0852 67.2199 33.1025C67.1794 33.117 67.123 33.1271 67.0506 33.1329C66.9783 33.1416 66.8872 33.1459 66.7772 33.1459C66.6673 33.1459 66.5762 33.1416 66.5038 33.1329C66.4315 33.1271 66.3737 33.117 66.3303 33.1025C66.2898 33.0852 66.2608 33.0664 66.2435 33.0461C66.229 33.023 66.2218 32.9955 66.2218 32.9637V30.7158H66.0005C65.8587 30.7158 65.7343 30.7346 65.6273 30.7722C65.5202 30.8069 65.4262 30.8633 65.3452 30.9414C65.2642 31.0167 65.1933 31.1136 65.1325 31.2322C65.0718 31.3508 65.0154 31.494 64.9633 31.6618L64.5641 32.9333C64.5496 32.9738 64.5308 33.0085 64.5076 33.0374C64.4874 33.0635 64.4541 33.0852 64.4078 33.1025C64.3615 33.117 64.2993 33.1271 64.2212 33.1329C64.146 33.1416 64.0477 33.1459 63.9261 33.1459C63.8046 33.1459 63.7063 33.1416 63.6311 33.1329C63.5558 33.1271 63.4951 33.117 63.4488 33.1025C63.4054 33.0881 63.375 33.0707 63.3577 33.0505C63.3403 33.0273 63.3316 32.9998 63.3316 32.968C63.3316 32.9536 63.3316 32.9362 63.3316 32.9159C63.3345 32.8957 63.3389 32.8725 63.3446 32.8465C63.3533 32.8176 63.3634 32.7843 63.375 32.7467C63.3866 32.7091 63.4025 32.6642 63.4228 32.6122L63.8133 31.4926C63.8856 31.2843 63.958 31.1092 64.0303 30.9675C64.1026 30.8228 64.1793 30.7028 64.2603 30.6073C64.3413 30.5089 64.4295 30.4294 64.525 30.3686C64.6205 30.305 64.7275 30.25 64.8461 30.2037V30.1994C64.7449 30.1675 64.6509 30.1241 64.5641 30.0692C64.4802 30.0142 64.4006 29.9419 64.3254 29.8522C64.2531 29.7596 64.1822 29.6453 64.1127 29.5094C64.0462 29.3734 63.9797 29.2085 63.9131 29.0147L63.579 28.0079C63.5472 27.9153 63.5255 27.843 63.5139 27.7909C63.5023 27.7359 63.4965 27.6896 63.4965 27.652C63.4965 27.6202 63.5038 27.5942 63.5182 27.5739C63.5356 27.5508 63.5645 27.5334 63.605 27.5219C63.6484 27.5074 63.7063 27.4973 63.7786 27.4915C63.8538 27.4828 63.9493 27.4785 64.065 27.4785C64.1865 27.4785 64.2849 27.4828 64.3601 27.4915C64.4353 27.4973 64.4946 27.5088 64.538 27.5262C64.5814 27.5407 64.6118 27.5624 64.6292 27.5913C64.6494 27.6173 64.6653 27.6506 64.6769 27.6911L65.0327 28.8801C65.0819 29.045 65.134 29.1839 65.189 29.2967C65.2468 29.4096 65.3134 29.5007 65.3886 29.5701C65.4638 29.6396 65.5506 29.6902 65.649 29.722C65.7473 29.7509 65.8645 29.7654 66.0005 29.7654H66.2218V27.6564C66.2218 27.6246 66.229 27.5985 66.2435 27.5783C66.2608 27.5551 66.2898 27.5363 66.3303 27.5219C66.3737 27.5074 66.4315 27.4973 66.5038 27.4915C66.5762 27.4828 66.6673 27.4785 66.7772 27.4785C66.8872 27.4785 66.9783 27.4828 67.0506 27.4915C67.123 27.4973 67.1794 27.5074 67.2199 27.5219C67.2633 27.5363 67.2937 27.5551 67.311 27.5783C67.3284 27.5985 67.337 27.6246 67.337 27.6564V29.7654H67.5584C67.6886 29.7654 67.8028 29.7495 67.9012 29.7177C68.0024 29.683 68.0907 29.6294 68.1659 29.5571C68.244 29.4848 68.312 29.3937 68.3699 29.2837C68.4277 29.1709 68.4798 29.0349 68.5261 28.8758L68.8819 27.6911C68.8935 27.6506 68.908 27.6173 68.9253 27.5913C68.9456 27.5624 68.9774 27.5407 69.0208 27.5262C69.0642 27.5088 69.1235 27.4973 69.1987 27.4915C69.2739 27.4828 69.3723 27.4785 69.4938 27.4785C69.6095 27.4785 69.7036 27.4828 69.7759 27.4915C69.8482 27.4973 69.9061 27.5074 69.9495 27.5219C69.9929 27.5334 70.0218 27.5508 70.0363 27.5739C70.0536 27.5942 70.0623 27.6202 70.0623 27.652C70.0623 27.6896 70.0551 27.7359 70.0406 27.7909C70.029 27.8459 70.0088 27.9182 69.9798 28.0079L69.6457 28.9973C69.5821 29.1825 69.517 29.3416 69.4504 29.4747C69.3868 29.6048 69.3173 29.7148 69.2421 29.8045C69.1698 29.8942 69.0902 29.9694 69.0034 30.0301C68.9167 30.088 68.8197 30.1372 68.7127 30.1777V30.182C68.8342 30.2341 68.9427 30.2934 69.0382 30.3599C69.1336 30.4236 69.2219 30.5046 69.3029 30.6029C69.3839 30.7013 69.4591 30.8228 69.5285 30.9675C69.598 31.1092 69.6703 31.2843 69.7455 31.4926L70.1317 32.6122C70.152 32.6642 70.1679 32.7091 70.1795 32.7467C70.191 32.7843 70.1997 32.8176 70.2055 32.8465C70.2142 32.8725 70.22 32.8957 70.2229 32.9159C70.2258 32.9362 70.2272 32.9536 70.2272 32.968Z" fill="white"/>
<path d="M75.8728 32.6946C75.9075 32.7988 75.9292 32.8812 75.9379 32.942C75.9466 33.0027 75.935 33.049 75.9032 33.0808C75.8714 33.1098 75.815 33.1271 75.7339 33.1329C75.6529 33.1416 75.5416 33.1459 75.3998 33.1459C75.2523 33.1459 75.1365 33.143 75.0526 33.1373C74.9716 33.1344 74.9094 33.1271 74.866 33.1156C74.8226 33.1011 74.7923 33.0823 74.7749 33.0591C74.7575 33.036 74.7431 33.0056 74.7315 32.968L74.354 31.8397H72.2449L71.8891 32.9376C71.8775 32.9781 71.8616 33.0129 71.8414 33.0418C71.824 33.0678 71.7936 33.0895 71.7502 33.1069C71.7097 33.1213 71.6504 33.1315 71.5723 33.1373C71.4971 33.143 71.3973 33.1459 71.2729 33.1459C71.1398 33.1459 71.0356 33.1416 70.9604 33.1329C70.8852 33.1242 70.8331 33.104 70.8042 33.0722C70.7753 33.0374 70.7651 32.9897 70.7738 32.929C70.7825 32.8682 70.8042 32.7872 70.8389 32.6859L72.5704 27.7041C72.5878 27.6549 72.608 27.6159 72.6312 27.5869C72.6543 27.5551 72.6905 27.532 72.7396 27.5175C72.7917 27.5002 72.8626 27.49 72.9523 27.4871C73.042 27.4813 73.1606 27.4785 73.3081 27.4785C73.4788 27.4785 73.6148 27.4813 73.716 27.4871C73.8173 27.49 73.8954 27.5002 73.9504 27.5175C74.0082 27.532 74.0487 27.5551 74.0719 27.5869C74.0979 27.6188 74.1196 27.6622 74.137 27.7171L75.8728 32.6946ZM73.2951 28.5764H73.2908L72.4966 30.9631H74.0892L73.2951 28.5764Z" fill="white"/>
<path d="M81.4099 32.9724C81.4099 33.0013 81.3998 33.0273 81.3796 33.0505C81.3622 33.0707 81.3318 33.0881 81.2884 33.1025C81.245 33.117 81.1857 33.1271 81.1105 33.1329C81.0382 33.1416 80.947 33.1459 80.8371 33.1459C80.7272 33.1459 80.6346 33.1416 80.5594 33.1329C80.487 33.1271 80.4292 33.117 80.3858 33.1025C80.3453 33.0881 80.3164 33.0707 80.299 33.0505C80.2816 33.0273 80.273 33.0013 80.273 32.9724V30.0128C80.273 29.8999 80.2744 29.79 80.2773 29.683C80.2802 29.573 80.2845 29.4761 80.2903 29.3922H80.2816C80.2585 29.4327 80.231 29.4804 80.1992 29.5354C80.1674 29.5875 80.1327 29.6439 80.095 29.7047C80.0603 29.7625 80.0227 29.8233 79.9822 29.8869C79.9417 29.9477 79.9012 30.007 79.8607 30.0648L77.9079 32.9767C77.8848 33.0085 77.8602 33.036 77.8341 33.0591C77.811 33.0823 77.7792 33.1011 77.7387 33.1156C77.701 33.1271 77.6533 33.1344 77.5954 33.1373C77.5405 33.143 77.4682 33.1459 77.3785 33.1459C77.2656 33.1459 77.1745 33.1416 77.1051 33.1329C77.0356 33.1271 76.9807 33.117 76.9402 33.1025C76.9026 33.0881 76.8765 33.0693 76.8621 33.0461C76.8476 33.023 76.8404 32.9955 76.8404 32.9637V27.652C76.8404 27.6231 76.849 27.5985 76.8664 27.5783C76.8867 27.5551 76.9185 27.5363 76.9619 27.5219C77.0082 27.5074 77.0675 27.4973 77.1398 27.4915C77.2121 27.4828 77.3033 27.4785 77.4132 27.4785C77.526 27.4785 77.6186 27.4828 77.6909 27.4915C77.7632 27.4973 77.8211 27.5074 77.8645 27.5219C77.9079 27.5363 77.9383 27.5551 77.9556 27.5783C77.973 27.5985 77.9817 27.6231 77.9817 27.652V30.629C77.9817 30.7216 77.9802 30.8199 77.9773 30.9241C77.9744 31.0282 77.9701 31.1295 77.9643 31.2278H77.973C78.0222 31.1411 78.0844 31.0369 78.1596 30.9154C78.2348 30.7939 78.3129 30.6753 78.3939 30.5596L80.3467 27.6477C80.367 27.6188 80.3887 27.5942 80.4118 27.5739C80.435 27.5508 80.4654 27.532 80.503 27.5175C80.5435 27.503 80.5926 27.4929 80.6505 27.4871C80.7084 27.4813 80.7821 27.4785 80.8718 27.4785C80.9818 27.4785 81.07 27.4828 81.1365 27.4915C81.206 27.4973 81.2609 27.5074 81.3014 27.5219C81.3419 27.5363 81.3694 27.5551 81.3839 27.5783C81.4013 27.5985 81.4099 27.6246 81.4099 27.6564V32.9724ZM80.746 25.9987C80.746 26.1578 80.7185 26.3111 80.6635 26.4587C80.6086 26.6033 80.5189 26.732 80.3945 26.8449C80.273 26.9548 80.111 27.0431 79.9084 27.1096C79.7088 27.1761 79.4629 27.2094 79.1707 27.2094C78.8872 27.2094 78.6456 27.179 78.446 27.1183C78.2464 27.0575 78.0829 26.9751 77.9556 26.8709C77.8312 26.7639 77.7401 26.6366 77.6822 26.489C77.6244 26.3386 77.5954 26.1751 77.5954 25.9987C77.5954 25.9553 77.6027 25.9205 77.6171 25.8945C77.6345 25.8656 77.662 25.8424 77.6996 25.8251C77.7372 25.8077 77.7878 25.7961 77.8515 25.7904C77.918 25.7817 78.0005 25.7773 78.0988 25.7773C78.1914 25.7773 78.2681 25.7817 78.3288 25.7904C78.3896 25.799 78.4359 25.8121 78.4677 25.8294C78.4995 25.8468 78.5212 25.8699 78.5328 25.8989C78.5473 25.9249 78.5545 25.9567 78.5545 25.9943C78.5545 26.0638 78.5675 26.1288 78.5935 26.1896C78.6225 26.2504 78.663 26.3039 78.7151 26.3502C78.77 26.3936 78.8366 26.4297 78.9147 26.4587C78.9928 26.4876 79.0796 26.5021 79.1751 26.5021C79.2676 26.5021 79.3515 26.489 79.4267 26.463C79.502 26.4341 79.5656 26.3979 79.6177 26.3545C79.6727 26.3082 79.7132 26.2547 79.7392 26.1939C79.7681 26.1303 79.7826 26.0609 79.7826 25.9856C79.7826 25.9509 79.7884 25.9205 79.7999 25.8945C79.8115 25.8685 79.8332 25.8468 79.865 25.8294C79.8998 25.8121 79.9446 25.799 79.9996 25.7904C80.0574 25.7817 80.1298 25.7773 80.2165 25.7773C80.3207 25.7773 80.406 25.7817 80.4726 25.7904C80.542 25.7961 80.597 25.8077 80.6375 25.8251C80.678 25.8424 80.7055 25.8656 80.7199 25.8945C80.7373 25.9205 80.746 25.9553 80.746 25.9987Z" fill="white"/>
<path d="M52.2778 40.9896C52.3125 41.0937 52.3342 41.1762 52.3429 41.2369C52.3516 41.2977 52.34 41.344 52.3082 41.3758C52.2763 41.4047 52.2199 41.4221 52.1389 41.4279C52.0579 41.4365 51.9465 41.4409 51.8048 41.4409C51.6572 41.4409 51.5415 41.438 51.4576 41.4322C51.3766 41.4293 51.3144 41.4221 51.271 41.4105C51.2276 41.396 51.1972 41.3772 51.1799 41.3541C51.1625 41.331 51.148 41.3006 51.1365 41.263L50.7589 40.1347H48.6499L48.2941 41.2326C48.2825 41.2731 48.2666 41.3078 48.2463 41.3367C48.229 41.3628 48.1986 41.3845 48.1552 41.4018C48.1147 41.4163 48.0554 41.4264 47.9773 41.4322C47.902 41.438 47.8022 41.4409 47.6778 41.4409C47.5448 41.4409 47.4406 41.4365 47.3654 41.4279C47.2902 41.4192 47.2381 41.3989 47.2092 41.3671C47.1802 41.3324 47.1701 41.2847 47.1788 41.2239C47.1875 41.1632 47.2092 41.0821 47.2439 40.9809L48.9754 35.9991C48.9927 35.9499 49.013 35.9108 49.0361 35.8819C49.0593 35.8501 49.0954 35.8269 49.1446 35.8125C49.1967 35.7951 49.2676 35.785 49.3573 35.7821C49.4469 35.7763 49.5656 35.7734 49.7131 35.7734C49.8838 35.7734 50.0198 35.7763 50.121 35.7821C50.2223 35.785 50.3004 35.7951 50.3554 35.8125C50.4132 35.8269 50.4537 35.8501 50.4769 35.8819C50.5029 35.9137 50.5246 35.9571 50.542 36.0121L52.2778 40.9896ZM49.7001 36.8713H49.6957L48.9016 39.2581H50.4942L49.7001 36.8713Z" fill="white"/>
<path d="M57.0772 38.5638C57.0772 39.0642 57.0193 39.4997 56.9036 39.87C56.7908 40.2374 56.6244 40.5426 56.4045 40.7856C56.1876 41.0286 55.92 41.2109 55.6017 41.3324C55.2864 41.451 54.9219 41.5103 54.5081 41.5103C54.3664 41.5103 54.2203 41.4987 54.0699 41.4756C53.9223 41.4554 53.782 41.4279 53.6489 41.3932C53.5187 41.3555 53.4016 41.3121 53.2974 41.263C53.1962 41.2138 53.1253 41.1704 53.0848 41.1328C53.0443 41.0923 53.0168 41.059 53.0023 41.033C52.9907 41.0069 52.9806 40.9737 52.9719 40.9332C52.9633 40.8898 52.956 40.8391 52.9502 40.7813C52.9474 40.7205 52.9459 40.6453 52.9459 40.5556C52.9459 40.4139 52.9589 40.3112 52.985 40.2475C53.011 40.1839 53.0486 40.152 53.0978 40.152C53.1325 40.152 53.1802 40.1752 53.241 40.2215C53.3017 40.2649 53.3842 40.3126 53.4884 40.3647C53.5925 40.4167 53.7227 40.4645 53.8789 40.5079C54.038 40.5513 54.2319 40.573 54.4604 40.573C54.6658 40.573 54.851 40.5411 55.0159 40.4775C55.1808 40.411 55.3225 40.3112 55.4412 40.1781C55.5627 40.045 55.6581 39.8786 55.7276 39.679C55.797 39.4794 55.8375 39.2465 55.8491 38.9803H53.5187C53.4898 38.9803 53.4652 38.9731 53.445 38.9587C53.4247 38.9413 53.4073 38.9153 53.3929 38.8805C53.3784 38.8458 53.3668 38.801 53.3582 38.746C53.3524 38.6882 53.3495 38.6187 53.3495 38.5377C53.3495 38.4567 53.3524 38.3873 53.3582 38.3294C53.3668 38.2716 53.3784 38.2267 53.3929 38.1949C53.4073 38.1602 53.4247 38.1356 53.445 38.1211C53.4652 38.1038 53.4898 38.0951 53.5187 38.0951H55.8361C55.8158 37.8578 55.7681 37.6495 55.6929 37.4702C55.6176 37.2879 55.5193 37.1346 55.3978 37.0102C55.2763 36.8858 55.1302 36.7932 54.9595 36.7325C54.7888 36.6688 54.6007 36.637 54.3953 36.637C54.2073 36.637 54.0409 36.6587 53.8963 36.7021C53.7516 36.7455 53.6258 36.7932 53.5187 36.8453C53.4146 36.8974 53.3292 36.9465 53.2627 36.9928C53.1962 37.0362 53.147 37.0579 53.1151 37.0579C53.0978 37.0579 53.0804 37.0521 53.0631 37.0406C53.0486 37.0261 53.0356 37.0044 53.024 36.9755C53.0124 36.9436 53.0023 36.9017 52.9936 36.8496C52.9879 36.7975 52.985 36.7325 52.985 36.6543C52.985 36.5675 52.9864 36.4938 52.9893 36.433C52.9951 36.3723 53.0023 36.3231 53.011 36.2855C53.0197 36.245 53.0298 36.2117 53.0414 36.1857C53.0558 36.1567 53.0761 36.1292 53.1021 36.1032C53.1311 36.0772 53.1875 36.041 53.2714 35.9947C53.3553 35.9455 53.4609 35.9007 53.5882 35.8602C53.7183 35.8168 53.8644 35.7806 54.0265 35.7517C54.1914 35.7199 54.3707 35.704 54.5646 35.704C54.9493 35.704 55.2965 35.7647 55.6061 35.8862C55.9185 36.0048 56.1832 36.1842 56.4002 36.4243C56.6172 36.6645 56.7835 36.9639 56.8993 37.3226C57.0179 37.6785 57.0772 38.0922 57.0772 38.5638Z" fill="white"/>
<path d="M62.0588 37.5049C62.0588 37.8202 62.0097 38.0994 61.9113 38.3424C61.8129 38.5854 61.6697 38.7909 61.4817 38.9587C61.2936 39.1236 61.0622 39.2494 60.7873 39.3362C60.5154 39.423 60.1943 39.4664 59.824 39.4664H59.3553V41.2586C59.3553 41.2876 59.3452 41.3136 59.3249 41.3367C59.3075 41.3599 59.2772 41.3787 59.2338 41.3932C59.1904 41.4076 59.1325 41.4192 59.0602 41.4279C58.9879 41.4365 58.8953 41.4409 58.7825 41.4409C58.6725 41.4409 58.5799 41.4365 58.5047 41.4279C58.4324 41.4192 58.3745 41.4076 58.3311 41.3932C58.2877 41.3787 58.2574 41.3599 58.24 41.3367C58.2226 41.3136 58.214 41.2876 58.214 41.2586V36.2074C58.214 36.0714 58.2487 35.9701 58.3181 35.9036C58.3904 35.8342 58.4845 35.7994 58.6002 35.7994H59.9238C60.0568 35.7994 60.1827 35.8052 60.3013 35.8168C60.4228 35.8255 60.5675 35.8472 60.7353 35.8819C60.9031 35.9137 61.0723 35.9745 61.243 36.0642C61.4166 36.1538 61.5641 36.2681 61.6856 36.407C61.8071 36.543 61.8997 36.7035 61.9634 36.8887C62.027 37.0709 62.0588 37.2763 62.0588 37.5049ZM60.8654 37.5873C60.8654 37.3906 60.8307 37.2286 60.7613 37.1013C60.6919 36.974 60.6065 36.88 60.5053 36.8192C60.404 36.7585 60.297 36.7209 60.1841 36.7064C60.0742 36.6891 59.9599 36.6804 59.8413 36.6804H59.3553V38.5854H59.8673C60.0496 38.5854 60.2015 38.5609 60.323 38.5117C60.4474 38.4625 60.5487 38.3945 60.6268 38.3077C60.7049 38.218 60.7642 38.1124 60.8047 37.9909C60.8452 37.8665 60.8654 37.732 60.8654 37.5873Z" fill="white"/>
<path d="M68.1731 38.5421C68.1731 39.0078 68.1153 39.4244 67.9995 39.7918C67.8838 40.1593 67.7117 40.4717 67.4831 40.7292C67.2546 40.9838 66.9711 41.1791 66.6326 41.315C66.297 41.4481 65.9079 41.5147 65.4652 41.5147C65.0284 41.5147 64.6465 41.4582 64.3196 41.3454C63.9956 41.2297 63.7251 41.0547 63.5081 40.8203C63.2911 40.586 63.1276 40.288 63.0177 39.9264C62.9107 39.5647 62.8571 39.1366 62.8571 38.6419C62.8571 38.1877 62.915 37.7797 63.0307 37.4181C63.1464 37.0536 63.3186 36.744 63.5471 36.4894C63.7757 36.2348 64.0578 36.0396 64.3933 35.9036C64.7318 35.7676 65.1238 35.6996 65.5694 35.6996C65.9946 35.6996 66.3693 35.756 66.6933 35.8689C67.0202 35.9817 67.2922 36.1553 67.5092 36.3896C67.729 36.624 67.8939 36.9205 68.0039 37.2792C68.1167 37.6351 68.1731 38.056 68.1731 38.5421ZM66.9754 38.6028C66.9754 38.3077 66.9522 38.0401 66.906 37.8C66.8597 37.557 66.7801 37.3501 66.6673 37.1794C66.5573 37.0058 66.4098 36.8728 66.2246 36.7802C66.0395 36.6847 65.808 36.637 65.5303 36.637C65.2497 36.637 65.0154 36.6905 64.8273 36.7975C64.6393 36.9017 64.4874 37.042 64.3716 37.2185C64.2559 37.395 64.1735 37.6018 64.1243 37.839C64.078 38.0734 64.0549 38.3222 64.0549 38.5854C64.0549 38.8921 64.078 39.1684 64.1243 39.4143C64.1706 39.6573 64.2487 39.8656 64.3586 40.0392C64.4686 40.2128 64.6161 40.3459 64.8013 40.4384C64.9864 40.5281 65.2193 40.573 65.4999 40.573C65.7806 40.573 66.0149 40.5209 66.2029 40.4167C66.391 40.3126 66.5429 40.1708 66.6586 39.9915C66.7743 39.8121 66.8553 39.6038 66.9016 39.3666C66.9508 39.1264 66.9754 38.8719 66.9754 38.6028Z" fill="white"/>
<path d="M73.6885 41.2673C73.6885 41.2962 73.6799 41.3223 73.6625 41.3454C73.6451 41.3657 73.6148 41.383 73.5714 41.3975C73.528 41.412 73.4687 41.4221 73.3934 41.4279C73.3211 41.4365 73.23 41.4409 73.1201 41.4409C73.0101 41.4409 72.9175 41.4365 72.8423 41.4279C72.77 41.4221 72.7121 41.412 72.6687 41.3975C72.6253 41.383 72.5935 41.3657 72.5733 41.3454C72.5559 41.3223 72.5472 41.2962 72.5472 41.2673V36.7498H70.4556V41.2673C70.4556 41.2962 70.4454 41.3223 70.4252 41.3454C70.4078 41.3657 70.3774 41.383 70.334 41.3975C70.2907 41.412 70.2328 41.4221 70.1605 41.4279C70.0881 41.4365 69.9956 41.4409 69.8827 41.4409C69.7728 41.4409 69.6802 41.4365 69.605 41.4279C69.5327 41.4221 69.4748 41.412 69.4314 41.3975C69.388 41.383 69.3576 41.3657 69.3403 41.3454C69.3229 41.3223 69.3142 41.2962 69.3142 41.2673V36.1596C69.3142 36.0381 69.3446 35.9484 69.4054 35.8906C69.4661 35.8298 69.5471 35.7994 69.6484 35.7994H73.3587C73.4629 35.7994 73.5439 35.8298 73.6017 35.8906C73.6596 35.9484 73.6885 36.0381 73.6885 36.1596V41.2673Z" fill="white"/>
<path d="M80.1413 38.5421C80.1413 39.0078 80.0834 39.4244 79.9677 39.7918C79.852 40.1593 79.6799 40.4717 79.4513 40.7292C79.2228 40.9838 78.9392 41.1791 78.6008 41.315C78.2652 41.4481 77.8761 41.5147 77.4334 41.5147C76.9966 41.5147 76.6147 41.4582 76.2878 41.3454C75.9637 41.2297 75.6932 41.0547 75.4763 40.8203C75.2593 40.586 75.0958 40.288 74.9859 39.9264C74.8789 39.5647 74.8253 39.1366 74.8253 38.6419C74.8253 38.1877 74.8832 37.7797 74.9989 37.4181C75.1146 37.0536 75.2868 36.744 75.5153 36.4894C75.7439 36.2348 76.0259 36.0396 76.3615 35.9036C76.7 35.7676 77.092 35.6996 77.5376 35.6996C77.9628 35.6996 78.3375 35.756 78.6615 35.8689C78.9884 35.9817 79.2604 36.1553 79.4774 36.3896C79.6972 36.624 79.8621 36.9205 79.9721 37.2792C80.0849 37.6351 80.1413 38.056 80.1413 38.5421ZM78.9436 38.6028C78.9436 38.3077 78.9204 38.0401 78.8742 37.8C78.8279 37.557 78.7483 37.3501 78.6355 37.1794C78.5255 37.0058 78.378 36.8728 78.1928 36.7802C78.0077 36.6847 77.7762 36.637 77.4985 36.637C77.2179 36.637 76.9835 36.6905 76.7955 36.7975C76.6075 36.9017 76.4556 37.042 76.3398 37.2185C76.2241 37.395 76.1417 37.6018 76.0925 37.839C76.0462 38.0734 76.0231 38.3222 76.0231 38.5854C76.0231 38.8921 76.0462 39.1684 76.0925 39.4143C76.1388 39.6573 76.2169 39.8656 76.3268 40.0392C76.4368 40.2128 76.5843 40.3459 76.7695 40.4384C76.9546 40.5281 77.1875 40.573 77.4681 40.573C77.7488 40.573 77.9831 40.5209 78.1711 40.4167C78.3592 40.3126 78.5111 40.1708 78.6268 39.9915C78.7425 39.8121 78.8235 39.6038 78.8698 39.3666C78.919 39.1264 78.9436 38.8719 78.9436 38.6028Z" fill="white"/>
<path d="M85.1273 37.5049C85.1273 37.8202 85.0781 38.0994 84.9798 38.3424C84.8814 38.5854 84.7382 38.7909 84.5501 38.9587C84.3621 39.1236 84.1306 39.2494 83.8558 39.3362C83.5839 39.423 83.2627 39.4664 82.8924 39.4664H82.4237V41.2586C82.4237 41.2876 82.4136 41.3136 82.3934 41.3367C82.376 41.3599 82.3456 41.3787 82.3022 41.3932C82.2588 41.4076 82.201 41.4192 82.1287 41.4279C82.0563 41.4365 81.9638 41.4409 81.8509 41.4409C81.741 41.4409 81.6484 41.4365 81.5732 41.4279C81.5009 41.4192 81.443 41.4076 81.3996 41.3932C81.3562 41.3787 81.3258 41.3599 81.3085 41.3367C81.2911 41.3136 81.2824 41.2876 81.2824 41.2586V36.2074C81.2824 36.0714 81.3172 35.9701 81.3866 35.9036C81.4589 35.8342 81.5529 35.7994 81.6687 35.7994H82.9922C83.1253 35.7994 83.2512 35.8052 83.3698 35.8168C83.4913 35.8255 83.6359 35.8472 83.8037 35.8819C83.9715 35.9137 84.1408 35.9745 84.3115 36.0642C84.485 36.1538 84.6326 36.2681 84.7541 36.407C84.8756 36.543 84.9682 36.7035 85.0318 36.8887C85.0955 37.0709 85.1273 37.2763 85.1273 37.5049ZM83.9339 37.5873C83.9339 37.3906 83.8992 37.2286 83.8298 37.1013C83.7603 36.974 83.675 36.88 83.5737 36.8192C83.4725 36.7585 83.3654 36.7209 83.2526 36.7064C83.1427 36.6891 83.0284 36.6804 82.9098 36.6804H82.4237V38.5854H82.9358C83.1181 38.5854 83.27 38.5609 83.3915 38.5117C83.5159 38.4625 83.6171 38.3945 83.6952 38.3077C83.7734 38.218 83.8327 38.1124 83.8732 37.9909C83.9137 37.8665 83.9339 37.732 83.9339 37.5873Z" fill="white"/>
<path d="M89.8833 36.2681C89.8833 36.352 89.879 36.4243 89.8703 36.4851C89.8645 36.543 89.8544 36.5907 89.8399 36.6283C89.8254 36.663 89.8066 36.6891 89.7835 36.7064C89.7632 36.7238 89.7401 36.7325 89.7141 36.7325H88.308V41.2586C88.308 41.2876 88.2979 41.3136 88.2777 41.3367C88.2603 41.3599 88.2299 41.3787 88.1865 41.3932C88.1431 41.4076 88.0838 41.4192 88.0086 41.4279C87.9363 41.4365 87.8451 41.4409 87.7352 41.4409C87.6253 41.4409 87.5327 41.4365 87.4575 41.4279C87.3852 41.4192 87.3273 41.4076 87.2839 41.3932C87.2405 41.3787 87.2087 41.3599 87.1884 41.3367C87.1711 41.3136 87.1624 41.2876 87.1624 41.2586V36.7325H85.7564C85.7274 36.7325 85.7028 36.7238 85.6826 36.7064C85.6623 36.6891 85.645 36.663 85.6305 36.6283C85.6161 36.5907 85.6045 36.543 85.5958 36.4851C85.59 36.4243 85.5871 36.352 85.5871 36.2681C85.5871 36.1813 85.59 36.1076 85.5958 36.0468C85.6045 35.986 85.6161 35.9383 85.6305 35.9036C85.645 35.866 85.6623 35.8399 85.6826 35.8255C85.7028 35.8081 85.7274 35.7994 85.7564 35.7994H89.7141C89.7401 35.7994 89.7632 35.8081 89.7835 35.8255C89.8066 35.8399 89.8254 35.866 89.8399 35.9036C89.8544 35.9383 89.8645 35.986 89.8703 36.0468C89.879 36.1076 89.8833 36.1813 89.8833 36.2681Z" fill="white"/>
<path d="M28.9653 51.1413V51.7242C28.9653 51.8095 28.9553 51.8784 28.9352 51.9311C28.9177 51.9812 28.8888 52.0201 28.8487 52.0477C28.8111 52.0753 28.761 52.0941 28.6983 52.1041C28.6381 52.1116 28.5679 52.1154 28.4877 52.1154C28.4049 52.1154 28.3347 52.1116 28.2771 52.1041C28.2194 52.0941 28.1718 52.0753 28.1341 52.0477C28.0965 52.0201 28.069 51.9812 28.0514 51.9311C28.0364 51.8784 28.0288 51.8095 28.0288 51.7242C28.0288 51.629 28.0326 51.5412 28.0401 51.461C28.0502 51.3807 28.0652 51.3043 28.0853 51.2316C28.1053 51.1588 28.1316 51.0886 28.1642 51.0209C28.1993 50.9533 28.2407 50.8843 28.2883 50.8141L28.766 50.0958C28.7835 50.0707 28.8011 50.0494 28.8186 50.0318C28.8387 50.0143 28.8625 50.0005 28.8901 49.9904C28.9202 49.9779 28.9553 49.9691 28.9954 49.9641C29.0355 49.9591 29.0857 49.9566 29.1458 49.9566C29.211 49.9566 29.2637 49.9591 29.3038 49.9641C29.3439 49.9691 29.3728 49.9792 29.3903 49.9942C29.4104 50.0067 29.4204 50.023 29.4204 50.0431C29.4229 50.0632 29.4179 50.087 29.4054 50.1146L28.9653 51.1413ZM27.4873 51.1413V51.7242C27.4873 51.8095 27.4772 51.8784 27.4572 51.9311C27.4396 51.9812 27.4108 52.0201 27.3707 52.0477C27.3331 52.0753 27.2842 52.0941 27.224 52.1041C27.1638 52.1116 27.0924 52.1154 27.0096 52.1154C26.9269 52.1154 26.8567 52.1116 26.799 52.1041C26.7413 52.0941 26.6937 52.0753 26.6561 52.0477C26.621 52.0201 26.5947 51.9812 26.5771 51.9311C26.5596 51.8784 26.5508 51.8095 26.5508 51.7242C26.5508 51.629 26.5545 51.5412 26.5621 51.461C26.5721 51.3807 26.5871 51.3043 26.6072 51.2316C26.6273 51.1588 26.6536 51.0886 26.6862 51.0209C26.7213 50.9533 26.7626 50.8843 26.8103 50.8141L27.2917 50.0958C27.3092 50.0707 27.3268 50.0494 27.3443 50.0318C27.3644 50.0143 27.3882 50.0005 27.4158 49.9904C27.4459 49.9779 27.481 49.9691 27.5211 49.9641C27.5612 49.9591 27.6101 49.9566 27.6678 49.9566C27.733 49.9566 27.7856 49.9591 27.8257 49.9641C27.8659 49.9691 27.896 49.9792 27.916 49.9942C27.9361 50.0067 27.9461 50.023 27.9461 50.0431C27.9461 50.0632 27.9411 50.087 27.9311 50.1146L27.4873 51.1413Z" fill="black"/>
<path d="M34.2004 54.8534C34.2305 54.9436 34.2493 55.0151 34.2568 55.0677C34.2644 55.1204 34.2543 55.1605 34.2268 55.1881C34.1992 55.2132 34.1503 55.2282 34.0801 55.2332C34.0099 55.2407 33.9133 55.2445 33.7905 55.2445C33.6626 55.2445 33.5623 55.242 33.4896 55.237C33.4194 55.2345 33.3655 55.2282 33.3279 55.2182C33.2903 55.2056 33.2639 55.1893 33.2489 55.1693C33.2339 55.1492 33.2213 55.1229 33.2113 55.0903L32.8841 54.1125H31.0563L30.7479 55.064C30.7378 55.0991 30.724 55.1292 30.7065 55.1542C30.6915 55.1768 30.6651 55.1956 30.6275 55.2107C30.5924 55.2232 30.541 55.232 30.4733 55.237C30.4081 55.242 30.3216 55.2445 30.2138 55.2445C30.0985 55.2445 30.0082 55.2407 29.943 55.2332C29.8778 55.2257 29.8327 55.2082 29.8076 55.1806C29.7826 55.1505 29.7738 55.1091 29.7813 55.0565C29.7888 55.0038 29.8076 54.9336 29.8377 54.8458L31.3383 50.5283C31.3534 50.4856 31.3709 50.4518 31.391 50.4267C31.411 50.3991 31.4424 50.3791 31.485 50.3665C31.5301 50.3515 31.5916 50.3427 31.6693 50.3402C31.747 50.3352 31.8498 50.3327 31.9777 50.3327C32.1256 50.3327 32.2435 50.3352 32.3312 50.3402C32.419 50.3427 32.4867 50.3515 32.5343 50.3665C32.5845 50.3791 32.6196 50.3991 32.6396 50.4267C32.6622 50.4543 32.681 50.4919 32.696 50.5395L34.2004 54.8534ZM31.9664 51.2842H31.9627L31.2744 53.3527H32.6547L31.9664 51.2842Z" fill="black"/>
<path d="M38.8187 55.0941C38.8187 55.1191 38.8112 55.1417 38.7962 55.1618C38.7811 55.1793 38.7548 55.1944 38.7172 55.2069C38.6796 55.2194 38.6282 55.2282 38.563 55.2332C38.5003 55.2407 38.4213 55.2445 38.3261 55.2445C38.2283 55.2445 38.148 55.2407 38.0854 55.2332C38.0227 55.2282 37.9725 55.2194 37.9349 55.2069C37.8973 55.1944 37.871 55.1793 37.8559 55.1618C37.8409 55.1417 37.8334 55.1191 37.8334 55.0941V51.1676H36.7878C36.7176 51.7418 36.6462 52.2433 36.5734 52.672C36.5007 53.1008 36.423 53.4681 36.3403 53.774C36.2575 54.0799 36.166 54.3306 36.0657 54.5262C35.9679 54.7217 35.8551 54.8772 35.7272 54.9925C35.6019 55.1054 35.4589 55.1831 35.2985 55.2257C35.1405 55.2683 34.96 55.2896 34.7569 55.2896C34.7193 55.2896 34.6867 55.2846 34.6591 55.2746C34.6315 55.2646 34.609 55.2458 34.5914 55.2182C34.5764 55.1906 34.5651 55.1517 34.5576 55.1016C34.55 55.0514 34.5463 54.9875 34.5463 54.9098C34.5463 54.802 34.5488 54.7155 34.5538 54.6503C34.5588 54.5826 34.5676 54.5312 34.5801 54.4961C34.5927 54.4585 34.609 54.4334 34.629 54.4209C34.6491 54.4083 34.6729 54.4021 34.7005 54.4021C34.7782 54.4021 34.8522 54.387 34.9224 54.3569C34.9951 54.3243 35.064 54.2616 35.1292 54.1689C35.1969 54.0761 35.2609 53.9457 35.321 53.7777C35.3837 53.6097 35.4439 53.3891 35.5016 53.1158C35.5617 52.84 35.6207 52.5053 35.6783 52.1116C35.7385 51.7155 35.7987 51.2454 35.8589 50.7013C35.8739 50.5734 35.904 50.4844 35.9491 50.4342C35.9943 50.3816 36.0607 50.3553 36.1485 50.3553H38.5367C38.6269 50.3553 38.6959 50.3816 38.7435 50.4342C38.7937 50.4844 38.8187 50.5621 38.8187 50.6674V55.0941Z" fill="black"/>
<path d="M44.0238 54.8534C44.0539 54.9436 44.0727 55.0151 44.0802 55.0677C44.0877 55.1204 44.0777 55.1605 44.0501 55.1881C44.0225 55.2132 43.9736 55.2282 43.9034 55.2332C43.8332 55.2407 43.7367 55.2445 43.6138 55.2445C43.4859 55.2445 43.3857 55.242 43.3129 55.237C43.2427 55.2345 43.1888 55.2282 43.1512 55.2182C43.1136 55.2056 43.0873 55.1893 43.0722 55.1693C43.0572 55.1492 43.0447 55.1229 43.0346 55.0903L42.7074 54.1125H40.8796L40.5712 55.064C40.5612 55.0991 40.5474 55.1292 40.5298 55.1542C40.5148 55.1768 40.4885 55.1956 40.4508 55.2107C40.4157 55.2232 40.3643 55.232 40.2966 55.237C40.2315 55.242 40.145 55.2445 40.0371 55.2445C39.9218 55.2445 39.8315 55.2407 39.7664 55.2332C39.7012 55.2257 39.656 55.2082 39.631 55.1806C39.6059 55.1505 39.5971 55.1091 39.6046 55.0565C39.6122 55.0038 39.631 54.9336 39.661 54.8458L41.1617 50.5283C41.1767 50.4856 41.1943 50.4518 41.2143 50.4267C41.2344 50.3991 41.2657 50.3791 41.3083 50.3665C41.3535 50.3515 41.4149 50.3427 41.4926 50.3402C41.5704 50.3352 41.6732 50.3327 41.801 50.3327C41.949 50.3327 42.0668 50.3352 42.1546 50.3402C42.2423 50.3427 42.31 50.3515 42.3577 50.3665C42.4078 50.3791 42.4429 50.3991 42.463 50.4267C42.4855 50.4543 42.5043 50.4919 42.5194 50.5395L44.0238 54.8534ZM41.7898 51.2842H41.786L41.0977 53.3527H42.478L41.7898 51.2842Z" fill="black"/>
<path d="M47.574 50.7614C47.574 50.8342 47.5702 50.8968 47.5627 50.9495C47.5577 50.9996 47.5489 51.041 47.5364 51.0736C47.5238 51.1037 47.5075 51.1263 47.4875 51.1413C47.4699 51.1563 47.4499 51.1639 47.4273 51.1639H46.2087V55.0865C46.2087 55.1116 46.2 55.1342 46.1824 55.1542C46.1674 55.1743 46.141 55.1906 46.1034 55.2031C46.0658 55.2157 46.0144 55.2257 45.9492 55.2332C45.8865 55.2407 45.8076 55.2445 45.7123 55.2445C45.617 55.2445 45.5368 55.2407 45.4716 55.2332C45.4089 55.2257 45.3588 55.2157 45.3211 55.2031C45.2835 55.1906 45.256 55.1743 45.2384 55.1542C45.2234 55.1342 45.2158 55.1116 45.2158 55.0865V51.1639H43.9973C43.9722 51.1639 43.9509 51.1563 43.9333 51.1413C43.9158 51.1263 43.9008 51.1037 43.8882 51.0736C43.8757 51.041 43.8657 50.9996 43.8581 50.9495C43.8531 50.8968 43.8506 50.8342 43.8506 50.7614C43.8506 50.6862 43.8531 50.6223 43.8581 50.5696C43.8657 50.517 43.8757 50.4756 43.8882 50.4455C43.9008 50.4129 43.9158 50.3904 43.9333 50.3778C43.9509 50.3628 43.9722 50.3553 43.9973 50.3553H47.4273C47.4499 50.3553 47.4699 50.3628 47.4875 50.3778C47.5075 50.3904 47.5238 50.4129 47.5364 50.4455C47.5489 50.4756 47.5577 50.517 47.5627 50.5696C47.5702 50.6223 47.574 50.6862 47.574 50.7614Z" fill="black"/>
<path d="M51.7635 54.8534C51.7936 54.9436 51.8124 55.0151 51.8199 55.0677C51.8275 55.1204 51.8174 55.1605 51.7898 55.1881C51.7623 55.2132 51.7134 55.2282 51.6432 55.2332C51.573 55.2407 51.4764 55.2445 51.3536 55.2445C51.2257 55.2445 51.1254 55.242 51.0527 55.237C50.9825 55.2345 50.9286 55.2282 50.891 55.2182C50.8534 55.2056 50.827 55.1893 50.812 55.1693C50.797 55.1492 50.7844 55.1229 50.7744 55.0903L50.4472 54.1125H48.6194L48.311 55.064C48.3009 55.0991 48.2871 55.1292 48.2696 55.1542C48.2545 55.1768 48.2282 55.1956 48.1906 55.2107C48.1555 55.2232 48.1041 55.232 48.0364 55.237C47.9712 55.242 47.8847 55.2445 47.7769 55.2445C47.6616 55.2445 47.5713 55.2407 47.5061 55.2332C47.4409 55.2257 47.3958 55.2082 47.3707 55.1806C47.3456 55.1505 47.3369 55.1091 47.3444 55.0565C47.3519 55.0038 47.3707 54.9336 47.4008 54.8458L48.9014 50.5283C48.9165 50.4856 48.934 50.4518 48.9541 50.4267C48.9741 50.3991 49.0055 50.3791 49.0481 50.3665C49.0932 50.3515 49.1547 50.3427 49.2324 50.3402C49.3101 50.3352 49.4129 50.3327 49.5408 50.3327C49.6887 50.3327 49.8066 50.3352 49.8943 50.3402C49.9821 50.3427 50.0498 50.3515 50.0974 50.3665C50.1476 50.3791 50.1827 50.3991 50.2027 50.4267C50.2253 50.4543 50.2441 50.4919 50.2591 50.5395L51.7635 54.8534ZM49.5295 51.2842H49.5257L48.8375 53.3527H50.2178L49.5295 51.2842Z" fill="black"/>
<path d="M54.5239 53.8793C54.4136 54.1601 54.3045 54.392 54.1967 54.5751C54.0914 54.7581 53.9773 54.9035 53.8545 55.0113C53.7341 55.1166 53.6012 55.1893 53.4558 55.2295C53.3129 55.2721 53.1487 55.2934 52.9631 55.2934C52.8954 55.2934 52.829 55.2884 52.7638 55.2784C52.6986 55.2708 52.6372 55.2596 52.5795 55.2445C52.5218 55.2295 52.4717 55.2119 52.4291 55.1919C52.3864 55.1718 52.3551 55.153 52.335 55.1354C52.315 55.1179 52.2987 55.0991 52.2861 55.079C52.2761 55.0565 52.2673 55.0276 52.2598 54.9925C52.2523 54.9574 52.246 54.9135 52.241 54.8609C52.2385 54.8057 52.2373 54.738 52.2373 54.6578C52.2373 54.5124 52.2473 54.4096 52.2673 54.3494C52.2899 54.2867 52.3238 54.2554 52.3689 54.2554C52.3915 54.2554 52.4165 54.2642 52.4441 54.2817C52.4717 54.2993 52.5043 54.3181 52.5419 54.3381C52.582 54.3582 52.6271 54.377 52.6773 54.3945C52.7299 54.4096 52.7914 54.4171 52.8616 54.4171C52.9142 54.4171 52.9631 54.4121 53.0083 54.4021C53.0534 54.3895 53.096 54.367 53.1361 54.3344C53.1762 54.3018 53.2164 54.2566 53.2565 54.199C53.2966 54.1388 53.3392 54.0611 53.3843 53.9658L51.7822 50.705C51.7471 50.6273 51.7258 50.5646 51.7182 50.517C51.7132 50.4668 51.7258 50.428 51.7559 50.4004C51.7859 50.3728 51.8361 50.3553 51.9063 50.3477C51.979 50.3377 52.0755 50.3327 52.1959 50.3327C52.3137 50.3327 52.4078 50.3352 52.478 50.3402C52.5482 50.3452 52.6046 50.3565 52.6472 50.3741C52.6898 50.3891 52.7224 50.4129 52.745 50.4455C52.7675 50.4756 52.7901 50.5157 52.8127 50.5659L53.4972 52.0402C53.5724 52.1981 53.6439 52.3561 53.7116 52.5141C53.7792 52.6695 53.8444 52.8275 53.9071 52.9879H53.9184C53.9686 52.8199 54.0212 52.657 54.0764 52.499C54.134 52.3385 54.1967 52.1705 54.2644 51.995L54.8248 50.4982C54.8373 50.4631 54.8536 50.4355 54.8737 50.4154C54.8937 50.3929 54.9238 50.3753 54.964 50.3628C55.0041 50.3502 55.0592 50.3427 55.1294 50.3402C55.1996 50.3352 55.2912 50.3327 55.404 50.3327C55.5193 50.3327 55.6108 50.3365 55.6785 50.344C55.7462 50.3515 55.7951 50.3665 55.8252 50.3891C55.8553 50.4092 55.8691 50.438 55.8666 50.4756C55.8641 50.5132 55.8515 50.5621 55.829 50.6223L54.5239 53.8793Z" fill="black"/>
<path d="M59.0294 50.3477C59.0294 50.443 59.0244 50.5308 59.0144 50.611C59.0068 50.6912 58.993 50.7677 58.973 50.8404C58.9529 50.9131 58.9266 50.9833 58.894 51.051C58.8614 51.1187 58.82 51.1877 58.7699 51.2579L58.2885 51.9762C58.2709 52.0013 58.2521 52.0226 58.2321 52.0402C58.2145 52.0577 58.1907 52.0728 58.1606 52.0853C58.133 52.0953 58.0992 52.1029 58.0591 52.1079C58.019 52.1129 57.9701 52.1154 57.9124 52.1154C57.8472 52.1154 57.7946 52.1129 57.7544 52.1079C57.7143 52.1029 57.6842 52.0941 57.6642 52.0815C57.6466 52.0665 57.6366 52.0489 57.6341 52.0289C57.6341 52.0088 57.6391 51.9838 57.6491 51.9537L58.0929 50.9307V50.3477C58.0929 50.2625 58.1017 50.1948 58.1192 50.1446C58.1393 50.092 58.1681 50.0519 58.2058 50.0243C58.2434 49.9967 58.2923 49.9792 58.3524 49.9716C58.4151 49.9616 58.4878 49.9566 58.5706 49.9566C58.6533 49.9566 58.7235 49.9616 58.7812 49.9716C58.8388 49.9792 58.8852 49.9967 58.9203 50.0243C58.9579 50.0519 58.9855 50.092 59.0031 50.1446C59.0206 50.1948 59.0294 50.2625 59.0294 50.3477ZM57.5551 50.3477C57.5551 50.443 57.5501 50.5308 57.5401 50.611C57.5325 50.6912 57.5187 50.7677 57.4987 50.8404C57.4786 50.9131 57.4511 50.9833 57.4159 51.051C57.3834 51.1187 57.3432 51.1877 57.2956 51.2579L56.8104 51.9762C56.7954 52.0013 56.7778 52.0226 56.7578 52.0402C56.7377 52.0577 56.7126 52.0728 56.6826 52.0853C56.655 52.0953 56.6211 52.1029 56.581 52.1079C56.5434 52.1129 56.4958 52.1154 56.4381 52.1154C56.3729 52.1154 56.319 52.1129 56.2764 52.1079C56.2363 52.1029 56.2062 52.0941 56.1861 52.0815C56.1686 52.0665 56.1585 52.0489 56.156 52.0289C56.156 52.0088 56.1623 51.9838 56.1748 51.9537L56.6186 50.9307V50.3477C56.6186 50.2625 56.6274 50.1948 56.645 50.1446C56.6625 50.092 56.6901 50.0519 56.7277 50.0243C56.7678 49.9967 56.818 49.9792 56.8781 49.9716C56.9408 49.9616 57.0135 49.9566 57.0963 49.9566C57.179 49.9566 57.2492 49.9616 57.3069 49.9716C57.3645 49.9792 57.4109 49.9967 57.446 50.0243C57.4836 50.0519 57.5112 50.092 57.5288 50.1446C57.5463 50.1948 57.5551 50.2625 57.5551 50.3477Z" fill="black"/>
<path d="M64.832 56.4994V55.2219H64.3953L62.9419 53.4166V55.2219H61.9708V51.6634H62.9419V53.3905L64.3041 51.6634H65.3729L63.9651 53.371L64.9102 54.5115H65.7053V56.4994H64.832Z" fill="black"/>
<path d="M69.7934 53.3828C69.7934 53.6687 69.7558 53.9294 69.6806 54.1651C69.6054 54.4008 69.4913 54.6039 69.3383 54.7744C69.1854 54.9449 68.9936 55.0765 68.7629 55.1693C68.5322 55.2621 68.2627 55.3084 67.9543 55.3084C67.6559 55.3084 67.3964 55.2671 67.1758 55.1843C66.9552 55.1016 66.7721 54.9812 66.6267 54.8233C66.4813 54.6653 66.3735 54.471 66.3033 54.2403C66.233 54.0097 66.1979 53.7464 66.1979 53.4505C66.1979 53.1647 66.2356 52.9039 66.3108 52.6682C66.3885 52.4301 66.5038 52.227 66.6568 52.059C66.8097 51.8885 67.0003 51.7568 67.2285 51.6641C67.4591 51.5713 67.7287 51.5249 68.0371 51.5249C68.3379 51.5249 68.5987 51.5663 68.8193 51.649C69.04 51.7293 69.2218 51.8484 69.3647 52.0063C69.5101 52.1643 69.6179 52.3586 69.6881 52.5893C69.7583 52.8199 69.7934 53.0845 69.7934 53.3828ZM68.8193 53.4204C68.8193 53.255 68.8055 53.1033 68.778 52.9654C68.7529 52.825 68.709 52.7034 68.6463 52.6006C68.5836 52.4978 68.4997 52.4175 68.3943 52.3599C68.2915 52.3022 68.1612 52.2733 68.0032 52.2733C67.8628 52.2733 67.7399 52.2997 67.6346 52.3523C67.5293 52.4025 67.4428 52.4777 67.3751 52.578C67.3074 52.6758 67.256 52.7949 67.2209 52.9353C67.1883 53.0732 67.172 53.2311 67.172 53.4092C67.172 53.5746 67.1858 53.7276 67.2134 53.868C67.241 54.0059 67.2849 54.1262 67.345 54.229C67.4077 54.3318 67.4917 54.4121 67.597 54.4698C67.7023 54.5249 67.8327 54.5525 67.9882 54.5525C68.1311 54.5525 68.2552 54.5274 68.3605 54.4773C68.4658 54.4246 68.5523 54.3494 68.62 54.2516C68.6877 54.1538 68.7379 54.036 68.7704 53.8981C68.803 53.7577 68.8193 53.5985 68.8193 53.4204Z" fill="black"/>
<path d="M73.9491 55.0941C73.9491 55.1191 73.9416 55.1417 73.9266 55.1618C73.9115 55.1793 73.8865 55.1944 73.8514 55.2069C73.8163 55.2194 73.7674 55.2282 73.7047 55.2332C73.6445 55.2407 73.5693 55.2445 73.479 55.2445C73.3862 55.2445 73.3085 55.2407 73.2458 55.2332C73.1857 55.2282 73.138 55.2194 73.1029 55.2069C73.0678 55.1944 73.0427 55.1793 73.0277 55.1618C73.0127 55.1417 73.0051 55.1191 73.0051 55.0941V53.774H71.6474V55.0941C71.6474 55.1191 71.6399 55.1417 71.6249 55.1618C71.6098 55.1793 71.5835 55.1944 71.5459 55.2069C71.5108 55.2194 71.4631 55.2282 71.403 55.2332C71.3428 55.2407 71.2663 55.2445 71.1735 55.2445C71.0808 55.2445 71.0043 55.2407 70.9441 55.2332C70.884 55.2282 70.8351 55.2194 70.7975 55.2069C70.7624 55.1944 70.7373 55.1793 70.7222 55.1618C70.7072 55.1417 70.6997 55.1191 70.6997 55.0941V51.7393C70.6997 51.7142 70.7072 51.6929 70.7222 51.6754C70.7373 51.6553 70.7624 51.639 70.7975 51.6265C70.8351 51.6139 70.884 51.6052 70.9441 51.6001C71.0043 51.5926 71.0808 51.5889 71.1735 51.5889C71.2663 51.5889 71.3428 51.5926 71.403 51.6001C71.4631 51.6052 71.5108 51.6139 71.5459 51.6265C71.5835 51.639 71.6098 51.6553 71.6249 51.6754C71.6399 51.6929 71.6474 51.7142 71.6474 51.7393V52.9955H73.0051V51.7393C73.0051 51.7142 73.0127 51.6929 73.0277 51.6754C73.0427 51.6553 73.0678 51.639 73.1029 51.6265C73.138 51.6139 73.1857 51.6052 73.2458 51.6001C73.3085 51.5926 73.3862 51.5889 73.479 51.5889C73.5693 51.5889 73.6445 51.5926 73.7047 51.6001C73.7674 51.6052 73.8163 51.6139 73.8514 51.6265C73.8865 51.639 73.9115 51.6553 73.9266 51.6754C73.9416 51.6929 73.9491 51.7142 73.9491 51.7393V55.0941Z" fill="black"/>
<path d="M77.9168 55.1054C77.9168 55.1405 77.9043 55.168 77.8792 55.1881C77.8541 55.2082 77.814 55.2219 77.7588 55.2295C77.7062 55.2395 77.6272 55.2445 77.5219 55.2445C77.4091 55.2445 77.3263 55.2395 77.2737 55.2295C77.2235 55.2219 77.1872 55.2082 77.1646 55.1881C77.1446 55.168 77.1345 55.1405 77.1345 55.1054V54.8383C76.9966 54.9863 76.8387 55.1016 76.6606 55.1843C76.4851 55.2671 76.2896 55.3084 76.0739 55.3084C75.8959 55.3084 75.7317 55.2846 75.5812 55.237C75.4333 55.1919 75.3042 55.1242 75.1939 55.0339C75.0861 54.9411 75.0021 54.827 74.9419 54.6916C74.8817 54.5563 74.8516 54.3983 74.8516 54.2178C74.8516 54.0222 74.8892 53.853 74.9645 53.71C75.0422 53.5646 75.1563 53.4455 75.3067 53.3527C75.4596 53.2575 75.6489 53.1873 75.8746 53.1421C76.1003 53.097 76.3623 53.0744 76.6606 53.0744H76.9879V52.8713C76.9879 52.766 76.9766 52.6745 76.954 52.5968C76.9339 52.5166 76.8988 52.4501 76.8487 52.3975C76.8011 52.3448 76.7359 52.3059 76.6531 52.2809C76.5729 52.2558 76.4726 52.2433 76.3522 52.2433C76.1943 52.2433 76.0526 52.2608 75.9273 52.2959C75.8044 52.331 75.6953 52.3699 75.6001 52.4125C75.5048 52.4551 75.4245 52.494 75.3594 52.5291C75.2967 52.5642 75.2453 52.5817 75.2052 52.5817C75.1776 52.5817 75.1525 52.573 75.1299 52.5554C75.1099 52.5379 75.0923 52.5128 75.0773 52.4802C75.0647 52.4476 75.0547 52.4075 75.0472 52.3599C75.0397 52.3122 75.0359 52.2596 75.0359 52.2019C75.0359 52.1242 75.0422 52.0627 75.0547 52.0176C75.0672 51.9725 75.0911 51.9324 75.1262 51.8973C75.1613 51.8596 75.2227 51.8195 75.3105 51.7769C75.3982 51.7318 75.501 51.6904 75.6189 51.6528C75.7367 51.6152 75.8646 51.5851 76.0025 51.5625C76.1429 51.5375 76.2871 51.5249 76.435 51.5249C76.6983 51.5249 76.9227 51.5512 77.1082 51.6039C77.2962 51.654 77.4504 51.733 77.5708 51.8408C77.6912 51.9461 77.7789 52.0828 77.8341 52.2508C77.8892 52.4188 77.9168 52.6181 77.9168 52.8488V55.1054ZM76.9879 53.6687H76.6268C76.4739 53.6687 76.3435 53.6799 76.2357 53.7025C76.1278 53.7251 76.0401 53.7589 75.9724 53.8041C75.9047 53.8492 75.8545 53.9044 75.822 53.9695C75.7919 54.0322 75.7768 54.1049 75.7768 54.1877C75.7768 54.3281 75.8207 54.4384 75.9085 54.5186C75.9987 54.5989 76.1228 54.639 76.2808 54.639C76.4137 54.639 76.5353 54.6051 76.6456 54.5374C76.7584 54.4698 76.8725 54.3707 76.9879 54.2403V53.6687Z" fill="black"/>
<path d="M81.9143 56.4994V55.2219H81.4776L80.0242 53.4166V55.2219H79.0531V51.6634H80.0242V53.3905L81.3863 51.6634H82.4552L81.0474 53.371L81.9925 54.5115H82.7876V56.4994H81.9143Z" fill="black"/>
<path d="M87.2679 56.7861H86.2903V55.2219L84.9086 51.6634H85.9775L86.538 53.2667C86.5857 53.3971 86.6292 53.5491 86.6683 53.7229C86.7074 53.8967 86.7378 54.0379 86.7595 54.1466H86.7986C86.8204 54.0379 86.8508 53.8967 86.8899 53.7229C86.9333 53.5491 86.9768 53.3971 87.0202 53.2667L87.5873 51.6634H88.6496L87.2679 55.2219V56.7861Z" fill="black"/>
<path d="M92.595 55.1054C92.595 55.1304 92.5875 55.1517 92.5724 55.1693C92.5599 55.1868 92.5361 55.2019 92.501 55.2144C92.4659 55.2245 92.4182 55.232 92.3581 55.237C92.3004 55.242 92.2264 55.2445 92.1362 55.2445C92.0459 55.2445 91.9694 55.242 91.9067 55.237C91.8466 55.232 91.7964 55.2245 91.7563 55.2144C91.7187 55.2019 91.6911 55.1868 91.6736 55.1693C91.6585 55.1517 91.651 55.1304 91.651 55.1054V53.6085C91.651 53.5032 91.6535 53.3941 91.6585 53.2813C91.666 53.1685 91.6761 53.0581 91.6886 52.9503C91.6284 53.0556 91.5632 53.1597 91.493 53.2625C91.4228 53.3628 91.3514 53.4631 91.2787 53.5634L90.1466 55.1016C90.124 55.1292 90.1027 55.153 90.0827 55.1731C90.0626 55.1906 90.0363 55.2056 90.0037 55.2182C89.9736 55.2282 89.9347 55.2345 89.8871 55.237C89.8395 55.242 89.778 55.2445 89.7028 55.2445C89.6126 55.2445 89.5386 55.242 89.4809 55.237C89.4258 55.232 89.3806 55.2245 89.3455 55.2144C89.3129 55.2019 89.2891 55.1868 89.2741 55.1693C89.2615 55.1492 89.2553 55.1267 89.2553 55.1016V51.7355C89.2553 51.713 89.2615 51.6929 89.2741 51.6754C89.2891 51.6553 89.3142 51.639 89.3493 51.6265C89.3869 51.6139 89.4345 51.6052 89.4922 51.6001C89.5524 51.5926 89.6276 51.5889 89.7179 51.5889C89.8959 51.5889 90.0212 51.6014 90.094 51.6265C90.1667 51.6515 90.203 51.6879 90.203 51.7355V53.2249C90.203 53.3277 90.1993 53.4342 90.1917 53.5446C90.1842 53.6549 90.1742 53.7614 90.1617 53.8642C90.2218 53.7639 90.2833 53.6649 90.3459 53.5671C90.4086 53.4668 90.4751 53.3703 90.5453 53.2775L91.6886 51.7355C91.7087 51.708 91.73 51.6854 91.7525 51.6678C91.7751 51.6478 91.8027 51.6327 91.8353 51.6227C91.8704 51.6102 91.9118 51.6014 91.9594 51.5964C92.0095 51.5914 92.0735 51.5889 92.1512 51.5889C92.239 51.5889 92.3117 51.5914 92.3693 51.5964C92.427 51.6014 92.4721 51.6102 92.5047 51.6227C92.5398 51.6352 92.5637 51.6515 92.5762 51.6716C92.5887 51.6917 92.595 51.7142 92.595 51.7393V55.1054ZM92.3167 50.1371C92.3167 50.2851 92.2929 50.4242 92.2452 50.5546C92.1976 50.685 92.1199 50.8003 92.012 50.9006C91.9067 50.9984 91.7663 51.0761 91.5908 51.1338C91.4178 51.1914 91.2047 51.2203 90.9515 51.2203C90.7057 51.2203 90.4964 51.194 90.3234 51.1413C90.1504 51.0886 90.0087 51.0159 89.8984 50.9232C89.7906 50.8279 89.7116 50.7138 89.6614 50.5809C89.6113 50.4455 89.5862 50.2976 89.5862 50.1371C89.5862 50.0995 89.5925 50.0694 89.605 50.0469C89.6201 50.0218 89.6439 50.0017 89.6765 49.9867C89.7091 49.9716 89.753 49.9616 89.8081 49.9566C89.8658 49.9491 89.9373 49.9453 90.0225 49.9453C90.1027 49.9453 90.1692 49.9491 90.2218 49.9566C90.2745 49.9641 90.3146 49.9767 90.3422 49.9942C90.3698 50.0092 90.3886 50.0293 90.3986 50.0544C90.4111 50.0769 90.4174 50.1045 90.4174 50.1371C90.4174 50.2048 90.4287 50.2675 90.4513 50.3252C90.4763 50.3828 90.5114 50.433 90.5566 50.4756C90.6042 50.5157 90.6619 50.5483 90.7296 50.5734C90.7973 50.596 90.8725 50.6072 90.9552 50.6072C91.0355 50.6072 91.1082 50.596 91.1734 50.5734C91.2385 50.5508 91.2937 50.5182 91.3388 50.4756C91.3865 50.433 91.4216 50.3828 91.4441 50.3252C91.4692 50.265 91.4818 50.1998 91.4818 50.1296C91.4818 50.0995 91.4868 50.0732 91.4968 50.0506C91.5068 50.0281 91.5256 50.0092 91.5532 49.9942C91.5833 49.9767 91.6222 49.9641 91.6698 49.9566C91.7199 49.9491 91.7826 49.9453 91.8578 49.9453C91.9481 49.9453 92.0221 49.9491 92.0798 49.9566C92.1399 49.9616 92.1876 49.9716 92.2227 49.9867C92.2578 50.0017 92.2816 50.0218 92.2941 50.0469C92.3092 50.0694 92.3167 50.0995 92.3167 50.1371Z" fill="black"/>
<path d="M94.6446 55.0941C94.6446 55.1191 94.6371 55.1417 94.622 55.1618C94.607 55.1793 94.5806 55.1944 94.543 55.2069C94.5079 55.2194 94.4603 55.2282 94.4001 55.2332C94.3399 55.2407 94.2635 55.2445 94.1707 55.2445C94.0779 55.2445 94.0014 55.2407 93.9413 55.2332C93.8811 55.2282 93.8322 55.2194 93.7946 55.2069C93.7595 55.1944 93.7344 55.1793 93.7194 55.1618C93.7043 55.1417 93.6968 55.1191 93.6968 55.0941V51.7468C93.6968 51.7217 93.7043 51.7004 93.7194 51.6829C93.7344 51.6628 93.7595 51.6465 93.7946 51.634C93.8322 51.6189 93.8811 51.6077 93.9413 51.6001C94.0014 51.5926 94.0779 51.5889 94.1707 51.5889C94.2635 51.5889 94.3399 51.5926 94.4001 51.6001C94.4603 51.6077 94.5079 51.6189 94.543 51.634C94.5806 51.6465 94.607 51.6628 94.622 51.6829C94.6371 51.7004 94.6446 51.7217 94.6446 51.7468V55.0941ZM94.716 50.6035C94.716 50.794 94.6772 50.9257 94.5994 50.9984C94.5217 51.0711 94.3775 51.1075 94.1669 51.1075C93.9538 51.1075 93.8096 51.0723 93.7344 51.0021C93.6617 50.9319 93.6254 50.8053 93.6254 50.6223C93.6254 50.4317 93.663 50.3001 93.7382 50.2274C93.8159 50.1522 93.9613 50.1146 94.1745 50.1146C94.3851 50.1146 94.528 50.1509 94.6032 50.2236C94.6784 50.2938 94.716 50.4204 94.716 50.6035Z" fill="black"/>
<path d="M28.8374 60.3238C28.8374 60.4016 28.8337 60.468 28.8262 60.5232C28.8186 60.5758 28.8086 60.6184 28.7961 60.651C28.7835 60.6836 28.7685 60.7075 28.7509 60.7225C28.7334 60.735 28.7121 60.7413 28.687 60.7413H27.5963V63.389C27.5963 63.4141 27.5888 63.4367 27.5738 63.4567C27.5587 63.4743 27.5324 63.4893 27.4948 63.5018C27.4597 63.5144 27.412 63.5232 27.3519 63.5282C27.2917 63.5357 27.2152 63.5395 27.1224 63.5395C27.0297 63.5395 26.9532 63.5357 26.893 63.5282C26.8329 63.5232 26.784 63.5144 26.7464 63.5018C26.7112 63.4893 26.6862 63.4743 26.6711 63.4567C26.6561 63.4367 26.6486 63.4141 26.6486 63.389V60.211C26.6486 60.1107 26.6699 60.0355 26.7125 59.9853C26.7551 59.9327 26.8216 59.9064 26.9118 59.9064H28.687C28.7121 59.9064 28.7334 59.9139 28.7509 59.9289C28.7685 59.9415 28.7835 59.964 28.7961 59.9966C28.8086 60.0292 28.8186 60.0731 28.8262 60.1283C28.8337 60.1809 28.8374 60.2461 28.8374 60.3238Z" fill="black"/>
<path d="M32.8578 61.6778C32.8578 61.9636 32.8202 62.2244 32.7449 62.4601C32.6697 62.6957 32.5556 62.8988 32.4027 63.0693C32.2497 63.2398 32.0579 63.3715 31.8273 63.4642C31.5966 63.557 31.3271 63.6034 31.0187 63.6034C30.7203 63.6034 30.4608 63.562 30.2401 63.4793C30.0195 63.3965 29.8365 63.2762 29.691 63.1182C29.5456 62.9603 29.4378 62.766 29.3676 62.5353C29.2974 62.3046 29.2623 62.0413 29.2623 61.7455C29.2623 61.4596 29.2999 61.1989 29.3751 60.9632C29.4528 60.725 29.5682 60.5219 29.7211 60.3539C29.8741 60.1834 30.0646 60.0518 30.2928 59.959C30.5235 59.8663 30.793 59.8199 31.1014 59.8199C31.4023 59.8199 31.663 59.8612 31.8837 59.944C32.1043 60.0242 32.2861 60.1433 32.429 60.3013C32.5744 60.4592 32.6823 60.6535 32.7525 60.8842C32.8227 61.1149 32.8578 61.3794 32.8578 61.6778ZM31.8837 61.7154C31.8837 61.5499 31.8699 61.3982 31.8423 61.2603C31.8172 61.1199 31.7734 60.9983 31.7107 60.8955C31.648 60.7927 31.564 60.7125 31.4587 60.6548C31.3559 60.5971 31.2255 60.5683 31.0675 60.5683C30.9271 60.5683 30.8043 60.5946 30.699 60.6473C30.5937 60.6974 30.5072 60.7726 30.4395 60.8729C30.3718 60.9707 30.3204 61.0898 30.2853 61.2302C30.2527 61.3681 30.2364 61.5261 30.2364 61.7041C30.2364 61.8696 30.2502 62.0225 30.2777 62.1629C30.3053 62.3008 30.3492 62.4212 30.4094 62.524C30.4721 62.6268 30.5561 62.707 30.6614 62.7647C30.7667 62.8199 30.8971 62.8474 31.0525 62.8474C31.1954 62.8474 31.3195 62.8224 31.4248 62.7722C31.5301 62.7196 31.6166 62.6443 31.6843 62.5466C31.752 62.4488 31.8022 62.3309 31.8348 62.193C31.8674 62.0526 31.8837 61.8934 31.8837 61.7154Z" fill="black"/>
<path d="M36.3027 62.855C36.3027 62.9202 36.3001 62.9753 36.2951 63.0204C36.2926 63.0631 36.2876 63.0994 36.2801 63.1295C36.2751 63.1596 36.2676 63.1847 36.2575 63.2047C36.25 63.2223 36.2312 63.2461 36.2011 63.2762C36.171 63.3038 36.1196 63.3389 36.0469 63.3815C35.9742 63.4216 35.8915 63.458 35.7987 63.4906C35.7059 63.5232 35.6044 63.5495 35.4941 63.5695C35.3862 63.5896 35.2747 63.5996 35.1593 63.5996C34.9011 63.5996 34.6717 63.5595 34.4711 63.4793C34.273 63.399 34.1063 63.2812 33.9709 63.1258C33.8355 62.9678 33.7327 62.776 33.6625 62.5503C33.5948 62.3247 33.5609 62.0664 33.5609 61.7756C33.5609 61.4396 33.6023 61.15 33.685 60.9068C33.7703 60.6611 33.8881 60.458 34.0386 60.2975C34.189 60.137 34.367 60.0179 34.5726 59.9402C34.7782 59.8625 35.0039 59.8236 35.2496 59.8236C35.3499 59.8236 35.4477 59.8324 35.5429 59.85C35.6407 59.8675 35.731 59.8913 35.8137 59.9214C35.899 59.9515 35.9742 59.9853 36.0394 60.023C36.1071 60.0606 36.1547 60.0932 36.1823 60.1207C36.2099 60.1483 36.2287 60.1721 36.2387 60.1922C36.2513 60.2098 36.26 60.2336 36.265 60.2637C36.2726 60.2937 36.2776 60.3314 36.2801 60.3765C36.2851 60.4191 36.2876 60.4718 36.2876 60.5344C36.2876 60.6799 36.2751 60.7827 36.25 60.8428C36.2249 60.9005 36.1923 60.9293 36.1522 60.9293C36.1096 60.9293 36.0645 60.9118 36.0168 60.8767C35.9692 60.8416 35.9128 60.8027 35.8476 60.7601C35.7824 60.7175 35.7047 60.6786 35.6144 60.6435C35.5241 60.6084 35.4163 60.5909 35.291 60.5909C35.0452 60.5909 34.8572 60.6861 34.7268 60.8767C34.5964 61.0647 34.5312 61.3418 34.5312 61.7079C34.5312 61.8884 34.5475 62.0476 34.5801 62.1855C34.6127 62.3234 34.6604 62.4387 34.7231 62.5315C34.7882 62.6243 34.8685 62.6945 34.9638 62.7421C35.0615 62.7873 35.1744 62.8098 35.3022 62.8098C35.4326 62.8098 35.5442 62.791 35.637 62.7534C35.7322 62.7133 35.815 62.6694 35.8852 62.6218C35.9554 62.5741 36.0143 62.5315 36.062 62.4939C36.1096 62.4538 36.1497 62.4337 36.1823 62.4337C36.2049 62.4337 36.2237 62.44 36.2387 62.4525C36.2538 62.4651 36.265 62.4889 36.2726 62.524C36.2826 62.5566 36.2901 62.5992 36.2951 62.6519C36.3001 62.7045 36.3027 62.7722 36.3027 62.855Z" fill="black"/>
<path d="M39.6347 60.3238C39.6347 60.4066 39.631 60.4755 39.6234 60.5307C39.6184 60.5858 39.6096 60.6297 39.5971 60.6623C39.5846 60.6949 39.5683 60.7175 39.5482 60.73C39.5307 60.7426 39.5106 60.7488 39.488 60.7488H38.6418V63.389C38.6418 63.4141 38.6343 63.4367 38.6193 63.4567C38.6042 63.4743 38.5791 63.4893 38.544 63.5018C38.5089 63.5144 38.46 63.5232 38.3974 63.5282C38.3372 63.5357 38.2607 63.5395 38.1679 63.5395C38.0777 63.5395 38.0025 63.5357 37.9423 63.5282C37.8821 63.5232 37.8332 63.5144 37.7956 63.5018C37.7605 63.4893 37.7354 63.4743 37.7204 63.4567C37.7079 63.4367 37.7016 63.4141 37.7016 63.389V60.7488H36.8554C36.8303 60.7488 36.8077 60.7426 36.7877 60.73C36.7701 60.715 36.7551 60.6912 36.7425 60.6586C36.73 60.626 36.72 60.5808 36.7125 60.5232C36.7074 60.4655 36.7049 60.3953 36.7049 60.3126C36.7049 60.2373 36.7087 60.1746 36.7162 60.1245C36.7237 60.0718 36.7338 60.0292 36.7463 59.9966C36.7588 59.964 36.7739 59.9415 36.7914 59.9289C36.809 59.9139 36.8303 59.9064 36.8554 59.9064H39.488C39.5106 59.9064 39.5307 59.9139 39.5482 59.9289C39.5683 59.9415 39.5846 59.964 39.5971 59.9966C39.6096 60.0292 39.6184 60.0731 39.6234 60.1283C39.631 60.1809 39.6347 60.2461 39.6347 60.3238Z" fill="black"/>
<path d="M41.1277 62.9753C41.1277 63.2085 41.0863 63.3652 41.0036 63.4454C40.9233 63.5257 40.7779 63.5658 40.5673 63.5658C40.3567 63.5658 40.2113 63.5269 40.131 63.4492C40.0508 63.369 40.0107 63.2185 40.0107 62.9979C40.0107 62.7622 40.0508 62.6042 40.131 62.524C40.2138 62.4438 40.3617 62.4036 40.5748 62.4036C40.7829 62.4036 40.9271 62.4438 41.0073 62.524C41.0876 62.6017 41.1277 62.7522 41.1277 62.9753Z" fill="black"/>
<path d="M46.4454 59.4362V60.0192C46.4454 60.1044 46.4353 60.1734 46.4153 60.226C46.3977 60.2762 46.3689 60.3151 46.3288 60.3426C46.2912 60.3702 46.241 60.389 46.1783 60.3991C46.1182 60.4066 46.048 60.4103 45.9677 60.4103C45.885 60.4103 45.8148 60.4066 45.7571 60.3991C45.6994 60.389 45.6518 60.3702 45.6142 60.3426C45.5766 60.3151 45.549 60.2762 45.5315 60.226C45.5164 60.1734 45.5089 60.1044 45.5089 60.0192C45.5089 59.9239 45.5127 59.8362 45.5202 59.7559C45.5302 59.6757 45.5452 59.5992 45.5653 59.5265C45.5854 59.4538 45.6117 59.3836 45.6443 59.3159C45.6794 59.2482 45.7208 59.1792 45.7684 59.109L46.246 58.3907C46.2636 58.3656 46.2811 58.3443 46.2987 58.3268C46.3188 58.3092 46.3426 58.2954 46.3701 58.2854C46.4002 58.2729 46.4353 58.2641 46.4755 58.2591C46.5156 58.2541 46.5657 58.2515 46.6259 58.2515C46.6911 58.2515 46.7437 58.2541 46.7839 58.2591C46.824 58.2641 46.8528 58.2741 46.8704 58.2892C46.8904 58.3017 46.9004 58.318 46.9004 58.338C46.903 58.3581 46.8979 58.3819 46.8854 58.4095L46.4454 59.4362ZM44.9673 59.4362V60.0192C44.9673 60.1044 44.9573 60.1734 44.9372 60.226C44.9197 60.2762 44.8908 60.3151 44.8507 60.3426C44.8131 60.3702 44.7642 60.389 44.704 60.3991C44.6439 60.4066 44.5724 60.4103 44.4897 60.4103C44.4069 60.4103 44.3367 60.4066 44.2791 60.3991C44.2214 60.389 44.1737 60.3702 44.1361 60.3426C44.101 60.3151 44.0747 60.2762 44.0572 60.226C44.0396 60.1734 44.0308 60.1044 44.0308 60.0192C44.0308 59.9239 44.0346 59.8362 44.0421 59.7559C44.0521 59.6757 44.0672 59.5992 44.0872 59.5265C44.1073 59.4538 44.1336 59.3836 44.1662 59.3159C44.2013 59.2482 44.2427 59.1792 44.2903 59.109L44.7717 58.3907C44.7893 58.3656 44.8068 58.3443 44.8244 58.3268C44.8445 58.3092 44.8683 58.2954 44.8959 58.2854C44.9259 58.2729 44.961 58.2641 45.0012 58.2591C45.0413 58.2541 45.0902 58.2515 45.1478 58.2515C45.213 58.2515 45.2657 58.2541 45.3058 58.2591C45.3459 58.2641 45.376 58.2741 45.3961 58.2892C45.4161 58.3017 45.4261 58.318 45.4261 58.338C45.4261 58.3581 45.4211 58.3819 45.4111 58.4095L44.9673 59.4362Z" fill="black"/>
<path d="M51.6805 63.1483C51.7106 63.2386 51.7294 63.31 51.7369 63.3627C51.7444 63.4153 51.7344 63.4555 51.7068 63.483C51.6792 63.5081 51.6303 63.5232 51.5601 63.5282C51.4899 63.5357 51.3934 63.5395 51.2705 63.5395C51.1427 63.5395 51.0424 63.5369 50.9697 63.5319C50.8995 63.5294 50.8455 63.5232 50.8079 63.5131C50.7703 63.5006 50.744 63.4843 50.729 63.4642C50.7139 63.4442 50.7014 63.4179 50.6913 63.3853L50.3641 62.4074H48.5363L48.2279 63.3589C48.2179 63.394 48.2041 63.4241 48.1865 63.4492C48.1715 63.4718 48.1452 63.4906 48.1076 63.5056C48.0725 63.5181 48.0211 63.5269 47.9534 63.5319C47.8882 63.5369 47.8017 63.5395 47.6939 63.5395C47.5785 63.5395 47.4883 63.5357 47.4231 63.5282C47.3579 63.5207 47.3127 63.5031 47.2877 63.4755C47.2626 63.4454 47.2538 63.4041 47.2613 63.3514C47.2689 63.2988 47.2877 63.2286 47.3178 63.1408L48.8184 58.8232C48.8334 58.7806 48.851 58.7467 48.871 58.7217C48.8911 58.6941 48.9224 58.674 48.9651 58.6615C49.0102 58.6464 49.0716 58.6377 49.1494 58.6352C49.2271 58.6301 49.3299 58.6276 49.4578 58.6276C49.6057 58.6276 49.7235 58.6301 49.8113 58.6352C49.899 58.6377 49.9667 58.6464 50.0144 58.6615C50.0645 58.674 50.0996 58.6941 50.1197 58.7217C50.1422 58.7492 50.1611 58.7869 50.1761 58.8345L51.6805 63.1483ZM49.4465 59.5792H49.4427L48.7545 61.6477H50.1347L49.4465 59.5792Z" fill="black"/>
<path d="M56.2988 63.389C56.2988 63.4141 56.2913 63.4367 56.2762 63.4567C56.2612 63.4743 56.2349 63.4893 56.1972 63.5018C56.1596 63.5144 56.1082 63.5232 56.043 63.5282C55.9804 63.5357 55.9014 63.5395 55.8061 63.5395C55.7083 63.5395 55.6281 63.5357 55.5654 63.5282C55.5027 63.5232 55.4526 63.5144 55.415 63.5018C55.3774 63.4893 55.351 63.4743 55.336 63.4567C55.3209 63.4367 55.3134 63.4141 55.3134 63.389V59.4626H54.2679C54.1977 60.0367 54.1262 60.5382 54.0535 60.967C53.9808 61.3957 53.9031 61.763 53.8203 62.0689C53.7376 62.3748 53.6461 62.6255 53.5458 62.8211C53.448 63.0167 53.3352 63.1721 53.2073 63.2875C53.0819 63.4003 52.939 63.478 52.7785 63.5207C52.6206 63.5633 52.44 63.5846 52.237 63.5846C52.1993 63.5846 52.1667 63.5796 52.1392 63.5695C52.1116 63.5595 52.089 63.5407 52.0715 63.5131C52.0564 63.4855 52.0451 63.4467 52.0376 63.3965C52.0301 63.3464 52.0263 63.2825 52.0263 63.2047C52.0263 63.0969 52.0288 63.0104 52.0339 62.9452C52.0389 62.8775 52.0477 62.8261 52.0602 62.791C52.0727 62.7534 52.089 62.7283 52.1091 62.7158C52.1291 62.7033 52.153 62.697 52.1805 62.697C52.2583 62.697 52.3322 62.682 52.4024 62.6519C52.4751 62.6193 52.5441 62.5566 52.6093 62.4638C52.677 62.3711 52.7409 62.2407 52.8011 62.0727C52.8638 61.9047 52.924 61.684 52.9816 61.4108C53.0418 61.1349 53.1007 60.8002 53.1584 60.4066C53.2186 60.0104 53.2787 59.5403 53.3389 58.9962C53.354 58.8683 53.384 58.7793 53.4292 58.7292C53.4743 58.6765 53.5408 58.6502 53.6285 58.6502H56.0167C56.107 58.6502 56.1759 58.6765 56.2236 58.7292C56.2737 58.7793 56.2988 58.8571 56.2988 58.9624V63.389Z" fill="black"/>
<path d="M61.5038 63.1483C61.5339 63.2386 61.5527 63.31 61.5602 63.3627C61.5678 63.4153 61.5577 63.4555 61.5301 63.483C61.5026 63.5081 61.4537 63.5232 61.3835 63.5282C61.3133 63.5357 61.2167 63.5395 61.0939 63.5395C60.966 63.5395 60.8657 63.5369 60.793 63.5319C60.7228 63.5294 60.6689 63.5232 60.6313 63.5131C60.5937 63.5006 60.5673 63.4843 60.5523 63.4642C60.5372 63.4442 60.5247 63.4179 60.5147 63.3853L60.1875 62.4074H58.3596L58.0513 63.3589C58.0412 63.394 58.0274 63.4241 58.0099 63.4492C57.9948 63.4718 57.9685 63.4906 57.9309 63.5056C57.8958 63.5181 57.8444 63.5269 57.7767 63.5319C57.7115 63.5369 57.625 63.5395 57.5172 63.5395C57.4019 63.5395 57.3116 63.5357 57.2464 63.5282C57.1812 63.5207 57.1361 63.5031 57.111 63.4755C57.0859 63.4454 57.0772 63.4041 57.0847 63.3514C57.0922 63.2988 57.111 63.2286 57.1411 63.1408L58.6417 58.8232C58.6568 58.7806 58.6743 58.7467 58.6944 58.7217C58.7144 58.6941 58.7458 58.674 58.7884 58.6615C58.8335 58.6464 58.895 58.6377 58.9727 58.6352C59.0504 58.6301 59.1532 58.6276 59.2811 58.6276C59.429 58.6276 59.5469 58.6301 59.6346 58.6352C59.7224 58.6377 59.7901 58.6464 59.8377 58.6615C59.8879 58.674 59.923 58.6941 59.943 58.7217C59.9656 58.7492 59.9844 58.7869 59.9994 58.8345L61.5038 63.1483ZM59.2698 59.5792H59.266L58.5778 61.6477H59.9581L59.2698 59.5792Z" fill="black"/>
<path d="M65.054 59.0564C65.054 59.1291 65.0503 59.1918 65.0427 59.2444C65.0377 59.2946 65.0289 59.336 65.0164 59.3685C65.0039 59.3986 64.9876 59.4212 64.9675 59.4362C64.95 59.4513 64.9299 59.4588 64.9073 59.4588H63.6888V63.3815C63.6888 63.4066 63.68 63.4291 63.6625 63.4492C63.6474 63.4693 63.6211 63.4855 63.5835 63.4981C63.5459 63.5106 63.4945 63.5207 63.4293 63.5282C63.3666 63.5357 63.2876 63.5395 63.1923 63.5395C63.0971 63.5395 63.0168 63.5357 62.9516 63.5282C62.889 63.5207 62.8388 63.5106 62.8012 63.4981C62.7636 63.4855 62.736 63.4693 62.7185 63.4492C62.7034 63.4291 62.6959 63.4066 62.6959 63.3815V59.4588H61.4773C61.4523 59.4588 61.431 59.4513 61.4134 59.4362C61.3958 59.4212 61.3808 59.3986 61.3683 59.3685C61.3557 59.336 61.3457 59.2946 61.3382 59.2444C61.3332 59.1918 61.3307 59.1291 61.3307 59.0564C61.3307 58.9812 61.3332 58.9172 61.3382 58.8646C61.3457 58.8119 61.3557 58.7706 61.3683 58.7405C61.3808 58.7079 61.3958 58.6853 61.4134 58.6728C61.431 58.6577 61.4523 58.6502 61.4773 58.6502H64.9073C64.9299 58.6502 64.95 58.6577 64.9675 58.6728C64.9876 58.6853 65.0039 58.7079 65.0164 58.7405C65.0289 58.7706 65.0377 58.8119 65.0427 58.8646C65.0503 58.9172 65.054 58.9812 65.054 59.0564Z" fill="black"/>
<path d="M69.2436 63.1483C69.2737 63.2386 69.2925 63.31 69.3 63.3627C69.3075 63.4153 69.2975 63.4555 69.2699 63.483C69.2423 63.5081 69.1934 63.5232 69.1232 63.5282C69.053 63.5357 68.9565 63.5395 68.8336 63.5395C68.7058 63.5395 68.6055 63.5369 68.5328 63.5319C68.4625 63.5294 68.4086 63.5232 68.371 63.5131C68.3334 63.5006 68.3071 63.4843 68.2921 63.4642C68.277 63.4442 68.2645 63.4179 68.2544 63.3853L67.9272 62.4074H66.0994L65.791 63.3589C65.781 63.394 65.7672 63.4241 65.7496 63.4492C65.7346 63.4718 65.7083 63.4906 65.6707 63.5056C65.6356 63.5181 65.5842 63.5269 65.5165 63.5319C65.4513 63.5369 65.3648 63.5395 65.257 63.5395C65.1416 63.5395 65.0514 63.5357 64.9862 63.5282C64.921 63.5207 64.8758 63.5031 64.8508 63.4755C64.8257 63.4454 64.8169 63.4041 64.8244 63.3514C64.832 63.2988 64.8508 63.2286 64.8809 63.1408L66.3815 58.8232C66.3965 58.7806 66.4141 58.7467 66.4341 58.7217C66.4542 58.6941 66.4855 58.674 66.5282 58.6615C66.5733 58.6464 66.6347 58.6377 66.7124 58.6352C66.7902 58.6301 66.893 58.6276 67.0208 58.6276C67.1688 58.6276 67.2866 58.6301 67.3744 58.6352C67.4621 58.6377 67.5298 58.6464 67.5775 58.6615C67.6276 58.674 67.6627 58.6941 67.6828 58.7217C67.7053 58.7492 67.7241 58.7869 67.7392 58.8345L69.2436 63.1483ZM67.0096 59.5792H67.0058L66.3175 61.6477H67.6978L67.0096 59.5792Z" fill="black"/>
<path d="M72.004 62.1742C71.8937 62.455 71.7846 62.687 71.6768 62.87C71.5715 63.053 71.4574 63.1985 71.3345 63.3063C71.2142 63.4116 71.0813 63.4843 70.9359 63.5244C70.7929 63.567 70.6287 63.5883 70.4432 63.5883C70.3755 63.5883 70.309 63.5833 70.2438 63.5733C70.1787 63.5658 70.1172 63.5545 70.0596 63.5395C70.0019 63.5244 69.9517 63.5069 69.9091 63.4868C69.8665 63.4667 69.8352 63.4479 69.8151 63.4304C69.795 63.4128 69.7787 63.394 69.7662 63.374C69.7562 63.3514 69.7474 63.3226 69.7399 63.2875C69.7323 63.2524 69.7261 63.2085 69.7211 63.1558C69.7186 63.1007 69.7173 63.033 69.7173 62.9527C69.7173 62.8073 69.7273 62.7045 69.7474 62.6443C69.77 62.5817 69.8038 62.5503 69.8489 62.5503C69.8715 62.5503 69.8966 62.5591 69.9242 62.5767C69.9517 62.5942 69.9843 62.613 70.0219 62.6331C70.0621 62.6531 70.1072 62.6719 70.1573 62.6895C70.21 62.7045 70.2714 62.712 70.3416 62.712C70.3943 62.712 70.4432 62.707 70.4883 62.697C70.5334 62.6845 70.5761 62.6619 70.6162 62.6293C70.6563 62.5967 70.6964 62.5516 70.7365 62.4939C70.7766 62.4337 70.8193 62.356 70.8644 62.2607L69.2622 59C69.2271 58.9222 69.2058 58.8596 69.1983 58.8119C69.1933 58.7618 69.2058 58.7229 69.2359 58.6953C69.266 58.6678 69.3161 58.6502 69.3863 58.6427C69.4591 58.6327 69.5556 58.6276 69.6759 58.6276C69.7938 58.6276 69.8878 58.6301 69.958 58.6352C70.0282 58.6402 70.0846 58.6515 70.1273 58.669C70.1699 58.6841 70.2025 58.7079 70.225 58.7405C70.2476 58.7706 70.2702 58.8107 70.2927 58.8608L70.9772 60.3351C71.0524 60.4931 71.1239 60.651 71.1916 60.809C71.2593 60.9645 71.3245 61.1224 71.3872 61.2829H71.3985C71.4486 61.1149 71.5013 60.9519 71.5564 60.794C71.6141 60.6335 71.6768 60.4655 71.7445 60.29L72.3049 58.7931C72.3174 58.758 72.3337 58.7304 72.3537 58.7104C72.3738 58.6878 72.4039 58.6703 72.444 58.6577C72.4841 58.6452 72.5393 58.6377 72.6095 58.6352C72.6797 58.6301 72.7712 58.6276 72.884 58.6276C72.9994 58.6276 73.0909 58.6314 73.1586 58.6389C73.2263 58.6464 73.2752 58.6615 73.3053 58.6841C73.3354 58.7041 73.3491 58.7329 73.3466 58.7706C73.3441 58.8082 73.3316 58.8571 73.309 58.9172L72.004 62.1742Z" fill="black"/>
<path d="M76.5095 58.6427C76.5095 58.738 76.5044 58.8257 76.4944 58.906C76.4869 58.9862 76.4731 59.0627 76.453 59.1354C76.433 59.2081 76.4067 59.2783 76.3741 59.346C76.3415 59.4137 76.3001 59.4826 76.2499 59.5528L75.7685 60.2712C75.751 60.2963 75.7322 60.3176 75.7121 60.3351C75.6946 60.3527 75.6708 60.3677 75.6407 60.3802C75.6131 60.3903 75.5792 60.3978 75.5391 60.4028C75.499 60.4078 75.4501 60.4103 75.3924 60.4103C75.3273 60.4103 75.2746 60.4078 75.2345 60.4028C75.1944 60.3978 75.1643 60.389 75.1442 60.3765C75.1267 60.3614 75.1166 60.3439 75.1141 60.3238C75.1141 60.3038 75.1191 60.2787 75.1292 60.2486L75.573 59.2256V58.6427C75.573 58.5574 75.5817 58.4897 75.5993 58.4396C75.6194 58.3869 75.6482 58.3468 75.6858 58.3192C75.7234 58.2917 75.7723 58.2741 75.8325 58.2666C75.8952 58.2566 75.9679 58.2515 76.0506 58.2515C76.1334 58.2515 76.2036 58.2566 76.2612 58.2666C76.3189 58.2741 76.3653 58.2917 76.4004 58.3192C76.438 58.3468 76.4656 58.3869 76.4831 58.4396C76.5007 58.4897 76.5095 58.5574 76.5095 58.6427ZM75.0352 58.6427C75.0352 58.738 75.0301 58.8257 75.0201 58.906C75.0126 58.9862 74.9988 59.0627 74.9787 59.1354C74.9587 59.2081 74.9311 59.2783 74.896 59.346C74.8634 59.4137 74.8233 59.4826 74.7757 59.5528L74.2905 60.2712C74.2754 60.2963 74.2579 60.3176 74.2378 60.3351C74.2178 60.3527 74.1927 60.3677 74.1626 60.3802C74.135 60.3903 74.1012 60.3978 74.0611 60.4028C74.0235 60.4078 73.9758 60.4103 73.9181 60.4103C73.853 60.4103 73.7991 60.4078 73.7564 60.4028C73.7163 60.3978 73.6862 60.389 73.6662 60.3765C73.6486 60.3614 73.6386 60.3439 73.6361 60.3238C73.6361 60.3038 73.6423 60.2787 73.6549 60.2486L74.0987 59.2256V58.6427C74.0987 58.5574 74.1075 58.4897 74.125 58.4396C74.1426 58.3869 74.1701 58.3468 74.2077 58.3192C74.2479 58.2917 74.298 58.2741 74.3582 58.2666C74.4209 58.2566 74.4936 58.2515 74.5763 58.2515C74.6591 58.2515 74.7293 58.2566 74.7869 58.2666C74.8446 58.2741 74.891 58.2917 74.9261 58.3192C74.9637 58.3468 74.9913 58.3869 75.0088 58.4396C75.0264 58.4897 75.0352 58.5574 75.0352 58.6427Z" fill="black"/>
</g>
<defs>
<linearGradient id="paint0_linear_349_25306" x1="57.0986" y1="-15.4991" x2="104.275" y2="86.1103" gradientUnits="userSpaceOnUse">
<stop stop-color="#006BBE"/>
<stop offset="1" stop-color="#005E99"/>
</linearGradient>
<clipPath id="clip0_349_25306">
<rect width="129.14" height="71.0996" fill="white" transform="translate(16)"/>
</clipPath>
</defs>
</svg>
