<svg width="166" height="161" viewBox="0 0 166 161" fill="none" xmlns="http://www.w3.org/2000/svg">
<rect x="5.76172" y="11.1055" width="108.159" height="2.64341" fill="#9F9B9B"/>
<rect x="5.76172" y="16.6348" width="108.159" height="2.64341" fill="#9F9B9B"/>
<rect x="5.76172" y="52.6797" width="108.159" height="2.64341" fill="#9F9B9B"/>
<rect x="5.76172" y="58.207" width="108.159" height="2.64341" fill="#9F9B9B"/>
<rect x="1.91992" y="5.09766" width="5.31313" height="155" fill="#AEAEAE"/>
<rect x="1.91992" y="5.09766" width="5.31313" height="6.24806" fill="#AEAEAE"/>
<g clip-path="url(#clip0_355_31298)">
<path d="M24.6552 34.8242C23.2686 34.8242 22.1523 35.9405 22.1523 37.3271V52.3442C22.1523 53.7308 23.2686 54.8471 24.6552 54.8471H100.992C102.379 54.8471 103.495 53.7308 103.495 52.3442V37.3271C103.495 35.9405 102.379 34.8242 100.992 34.8242H24.6552ZM24.6552 35.2414H100.992C102.148 35.2414 103.078 36.1716 103.078 37.3271V52.3442C103.078 53.4997 102.148 54.4299 100.992 54.4299H24.6552C23.4997 54.4299 22.5695 53.4997 22.5695 52.3442V37.3271C22.5695 36.1716 23.4997 35.2414 24.6552 35.2414Z" fill="black"/>
<path fill-rule="evenodd" clip-rule="evenodd" d="M18.8168 0.619141H157.308C159.382 0.619141 161.062 2.29999 161.062 4.37343V80.2934C161.062 82.3669 159.382 84.0477 157.308 84.0477H18.8168C16.7434 84.0477 15.0625 82.3669 15.0625 80.2934V4.37343C15.0625 2.29999 16.7434 0.619141 18.8168 0.619141Z" fill="white"/>
<path d="M39.0852 11.636L36.8579 14.5742L38.3827 16.6387H39.7534V19.5341H38.5027V17.7523H37.7317L35.513 14.6513V17.7523H34.2195V11.636H35.513V14.5999L37.706 11.636H39.0852Z" fill="black"/>
<path d="M45.6022 17.289C45.6401 17.4024 45.6637 17.4923 45.6732 17.5585C45.6826 17.6247 45.67 17.6751 45.6353 17.7098C45.6007 17.7413 45.5392 17.7602 45.4509 17.7665C45.3627 17.776 45.2413 17.7807 45.0868 17.7807C44.9261 17.7807 44.8 17.7775 44.7086 17.7712C44.6203 17.7681 44.5525 17.7602 44.5053 17.7476C44.458 17.7318 44.4249 17.7114 44.406 17.6861C44.387 17.6609 44.3713 17.6278 44.3587 17.5868L43.9473 16.3575H41.6493L41.2616 17.5537C41.249 17.5979 41.2317 17.6357 41.2096 17.6672C41.1907 17.6956 41.1576 17.7192 41.1103 17.7381C41.0662 17.7539 41.0015 17.7649 40.9164 17.7712C40.8345 17.7775 40.7257 17.7807 40.5902 17.7807C40.4452 17.7807 40.3317 17.776 40.2497 17.7665C40.1678 17.7571 40.111 17.735 40.0795 17.7003C40.048 17.6625 40.037 17.6105 40.0464 17.5443C40.0559 17.4781 40.0795 17.3898 40.1173 17.2795L42.004 11.8513C42.0229 11.7978 42.0449 11.7552 42.0701 11.7237C42.0954 11.689 42.1348 11.6638 42.1884 11.648C42.2451 11.6291 42.3223 11.6181 42.42 11.6149C42.5178 11.6086 42.647 11.6055 42.8078 11.6055C42.9938 11.6055 43.1419 11.6086 43.2522 11.6149C43.3626 11.6181 43.4477 11.6291 43.5076 11.648C43.5706 11.6638 43.6147 11.689 43.64 11.7237C43.6683 11.7584 43.692 11.8056 43.7109 11.8655L45.6022 17.289ZM42.7936 12.8017H42.7889L41.9236 15.4023H43.6589L42.7936 12.8017Z" fill="black"/>
<path d="M51.229 17.5916C51.229 17.6231 51.2195 17.6515 51.2006 17.6767C51.1817 17.6987 51.1486 17.7177 51.1013 17.7334C51.054 17.7492 50.9894 17.7602 50.9074 17.7665C50.8286 17.776 50.7293 17.7807 50.6096 17.7807C50.4898 17.7807 50.3889 17.776 50.3069 17.7665C50.2281 17.7602 50.1651 17.7492 50.1178 17.7334C50.0705 17.7177 50.0359 17.6987 50.0138 17.6767C49.9949 17.6515 49.9854 17.6231 49.9854 17.5916V12.6693H47.7063V17.5916C47.7063 17.6231 47.6953 17.6515 47.6732 17.6767C47.6543 17.6987 47.6212 17.7177 47.574 17.7334C47.5267 17.7492 47.4636 17.7602 47.3848 17.7665C47.306 17.776 47.2051 17.7807 47.0822 17.7807C46.9624 17.7807 46.8615 17.776 46.7796 17.7665C46.7008 17.7602 46.6377 17.7492 46.5905 17.7334C46.5432 17.7177 46.5101 17.6987 46.4912 17.6767C46.4722 17.6515 46.4628 17.6231 46.4628 17.5916V12.0263C46.4628 11.8939 46.4959 11.7962 46.5621 11.7331C46.6283 11.6669 46.7165 11.6338 46.8269 11.6338H50.8696C50.9831 11.6338 51.0714 11.6669 51.1344 11.7331C51.1975 11.7962 51.229 11.8939 51.229 12.0263V17.5916Z" fill="black"/>
<path d="M59.915 17.3599C59.915 17.4923 59.8834 17.5916 59.8204 17.6578C59.7574 17.7208 59.6691 17.7523 59.5556 17.7523H52.9312C52.8209 17.7523 52.731 17.7208 52.6617 17.6578C52.5955 17.5916 52.5624 17.4923 52.5624 17.3599V11.7851C52.5624 11.7536 52.5718 11.7268 52.5907 11.7048C52.6128 11.6827 52.6475 11.6654 52.6948 11.6528C52.742 11.637 52.8051 11.626 52.8839 11.6197C52.9627 11.6102 53.0588 11.6055 53.1723 11.6055C53.289 11.6055 53.3851 11.6102 53.4608 11.6197C53.5396 11.626 53.6026 11.637 53.6499 11.6528C53.6972 11.6654 53.7303 11.6827 53.7492 11.7048C53.7713 11.7268 53.7823 11.7536 53.7823 11.7851V16.7405H55.6311V11.7851C55.6311 11.7536 55.6405 11.7268 55.6594 11.7048C55.6815 11.6827 55.7146 11.6654 55.7587 11.6528C55.806 11.637 55.8691 11.626 55.9479 11.6197C56.0267 11.6102 56.1228 11.6055 56.2363 11.6055C56.3498 11.6055 56.4443 11.6102 56.52 11.6197C56.5988 11.626 56.6619 11.637 56.7091 11.6528C56.7564 11.6654 56.7895 11.6827 56.8084 11.7048C56.8305 11.7268 56.8415 11.7536 56.8415 11.7851V16.7405H58.695V11.7851C58.695 11.7536 58.7045 11.7268 58.7234 11.7048C58.7455 11.6827 58.7802 11.6654 58.8274 11.6528C58.8747 11.637 58.9362 11.626 59.0118 11.6197C59.0907 11.6102 59.1884 11.6055 59.305 11.6055C59.4185 11.6055 59.5131 11.6102 59.5887 11.6197C59.6675 11.626 59.7306 11.637 59.7778 11.6528C59.8251 11.6654 59.8598 11.6827 59.8819 11.7048C59.9039 11.7268 59.915 11.7536 59.915 11.7851V17.3599Z" fill="black"/>
<path d="M66.2651 17.289C66.303 17.4024 66.3266 17.4923 66.3361 17.5585C66.3455 17.6247 66.3329 17.6751 66.2982 17.7098C66.2636 17.7413 66.2021 17.7602 66.1138 17.7665C66.0256 17.776 65.9042 17.7807 65.7498 17.7807C65.589 17.7807 65.4629 17.7775 65.3715 17.7712C65.2832 17.7681 65.2154 17.7602 65.1682 17.7476C65.1209 17.7318 65.0878 17.7114 65.0689 17.6861C65.05 17.6609 65.0342 17.6278 65.0216 17.5868L64.6102 16.3575H62.3122L61.9245 17.5537C61.9119 17.5979 61.8946 17.6357 61.8725 17.6672C61.8536 17.6956 61.8205 17.7192 61.7732 17.7381C61.7291 17.7539 61.6645 17.7649 61.5793 17.7712C61.4974 17.7775 61.3886 17.7807 61.2531 17.7807C61.1081 17.7807 60.9946 17.776 60.9126 17.7665C60.8307 17.7571 60.7739 17.735 60.7424 17.7003C60.7109 17.6625 60.6999 17.6105 60.7093 17.5443C60.7188 17.4781 60.7424 17.3898 60.7803 17.2795L62.6669 11.8513C62.6858 11.7978 62.7078 11.7552 62.7331 11.7237C62.7583 11.689 62.7977 11.6638 62.8513 11.648C62.908 11.6291 62.9852 11.6181 63.083 11.6149C63.1807 11.6086 63.3099 11.6055 63.4707 11.6055C63.6567 11.6055 63.8048 11.6086 63.9152 11.6149C64.0255 11.6181 64.1106 11.6291 64.1705 11.648C64.2335 11.6638 64.2777 11.689 64.3029 11.7237C64.3312 11.7584 64.3549 11.8056 64.3738 11.8655L66.2651 17.289ZM63.4565 12.8017H63.4518L62.5865 15.4023H64.3218L63.4565 12.8017Z" fill="black"/>
<path d="M71.0763 11.636V12.6982H68.5235V14.1973H70.2025V15.2595H68.5235V17.7523H67.23V15.2595H66.656V14.1973H67.23V11.636H71.0763Z" fill="black"/>
<path d="M76.9229 17.289C76.9607 17.4024 76.9843 17.4923 76.9938 17.5585C77.0032 17.6247 76.9906 17.6751 76.956 17.7098C76.9213 17.7413 76.8598 17.7602 76.7715 17.7665C76.6833 17.776 76.5619 17.7807 76.4075 17.7807C76.2467 17.7807 76.1206 17.7775 76.0292 17.7712C75.9409 17.7681 75.8732 17.7602 75.8259 17.7476C75.7786 17.7318 75.7455 17.7114 75.7266 17.6861C75.7077 17.6609 75.6919 17.6278 75.6793 17.5868L75.2679 16.3575H72.97L72.5822 17.5537C72.5696 17.5979 72.5523 17.6357 72.5302 17.6672C72.5113 17.6956 72.4782 17.7192 72.4309 17.7381C72.3868 17.7539 72.3222 17.7649 72.2371 17.7712C72.1551 17.7775 72.0463 17.7807 71.9108 17.7807C71.7658 17.7807 71.6523 17.776 71.5704 17.7665C71.4884 17.7571 71.4317 17.735 71.4001 17.7003C71.3686 17.6625 71.3576 17.6105 71.367 17.5443C71.3765 17.4781 71.4001 17.3898 71.438 17.2795L73.3246 11.8513C73.3435 11.7978 73.3656 11.7552 73.3908 11.7237C73.416 11.689 73.4554 11.6638 73.509 11.648C73.5657 11.6291 73.643 11.6181 73.7407 11.6149C73.8384 11.6086 73.9676 11.6055 74.1284 11.6055C74.3144 11.6055 74.4625 11.6086 74.5729 11.6149C74.6832 11.6181 74.7683 11.6291 74.8282 11.648C74.8912 11.6638 74.9354 11.689 74.9606 11.7237C74.989 11.7584 75.0126 11.8056 75.0315 11.8655L76.9229 17.289ZM74.1142 12.8017H74.1095L73.2442 15.4023H74.9795L74.1142 12.8017Z" fill="black"/>
<path d="M82.7624 17.5916C82.7624 17.6231 82.7513 17.6515 82.7293 17.6767C82.7104 17.6987 82.6773 17.7177 82.63 17.7334C82.5827 17.7492 82.5181 17.7602 82.4361 17.7665C82.3573 17.776 82.258 17.7807 82.1382 17.7807C82.0184 17.7807 81.9176 17.776 81.8356 17.7665C81.7568 17.7602 81.6938 17.7492 81.6465 17.7334C81.6024 17.7177 81.5708 17.6987 81.5519 17.6767C81.533 17.6515 81.5235 17.6231 81.5235 17.5916V14.3668C81.5235 14.2439 81.5251 14.1241 81.5283 14.0075C81.5314 13.8877 81.5362 13.7821 81.5425 13.6907H81.533C81.5078 13.7348 81.4778 13.7868 81.4432 13.8467C81.4085 13.9034 81.3707 13.9649 81.3297 14.0311C81.2919 14.0942 81.2509 14.1604 81.2067 14.2297C81.1626 14.2959 81.1185 14.3605 81.0744 14.4236L78.9466 17.5963C78.9214 17.631 78.8946 17.6609 78.8662 17.6861C78.841 17.7114 78.8063 17.7318 78.7622 17.7476C78.7212 17.7602 78.6692 17.7681 78.6062 17.7712C78.5463 17.7775 78.4675 17.7807 78.3697 17.7807C78.2468 17.7807 78.1475 17.776 78.0718 17.7665C77.9962 17.7602 77.9363 17.7492 77.8922 17.7334C77.8512 17.7177 77.8228 17.6972 77.8071 17.6719C77.7913 17.6467 77.7834 17.6168 77.7834 17.5821V11.7946C77.7834 11.7631 77.7929 11.7363 77.8118 11.7142C77.8339 11.689 77.8685 11.6685 77.9158 11.6528C77.9662 11.637 78.0309 11.626 78.1097 11.6197C78.1885 11.6102 78.2878 11.6055 78.4076 11.6055C78.5305 11.6055 78.6314 11.6102 78.7102 11.6197C78.789 11.626 78.852 11.637 78.8993 11.6528C78.9466 11.6685 78.9797 11.689 78.9986 11.7142C79.0175 11.7363 79.027 11.7631 79.027 11.7946V15.0383C79.027 15.1391 79.0254 15.2463 79.0222 15.3598C79.0191 15.4733 79.0144 15.5836 79.0081 15.6908H79.0175C79.0711 15.5962 79.1389 15.4827 79.2208 15.3503C79.3028 15.2179 79.3879 15.0887 79.4762 14.9626L81.6039 11.7899C81.626 11.7584 81.6496 11.7316 81.6749 11.7095C81.7001 11.6843 81.7332 11.6638 81.7742 11.648C81.8183 11.6323 81.8719 11.6212 81.9349 11.6149C81.998 11.6086 82.0783 11.6055 82.1761 11.6055C82.2958 11.6055 82.392 11.6102 82.4645 11.6197C82.5401 11.626 82.6 11.637 82.6442 11.6528C82.6883 11.6685 82.7182 11.689 82.734 11.7142C82.7529 11.7363 82.7624 11.7647 82.7624 11.7993V17.5916ZM82.0389 9.9931C82.0389 10.1665 82.009 10.3335 81.9491 10.4943C81.8892 10.6519 81.7915 10.7922 81.6559 10.9151C81.5235 11.0349 81.347 11.1311 81.1264 11.2036C80.9089 11.2761 80.6409 11.3123 80.3225 11.3123C80.0136 11.3123 79.7504 11.2792 79.5329 11.213C79.3154 11.1468 79.1373 11.057 78.9986 10.9435C78.8631 10.8269 78.7638 10.6882 78.7007 10.5274C78.6377 10.3635 78.6062 10.1854 78.6062 9.9931C78.6062 9.94582 78.614 9.90799 78.6298 9.87962C78.6487 9.8481 78.6787 9.82288 78.7196 9.80397C78.7606 9.78505 78.8158 9.77244 78.8851 9.76614C78.9576 9.75668 79.0475 9.75195 79.1546 9.75195C79.2555 9.75195 79.339 9.75668 79.4052 9.76614C79.4714 9.77559 79.5219 9.78978 79.5566 9.80869C79.5912 9.82761 79.6149 9.85282 79.6275 9.88435C79.6432 9.91272 79.6511 9.94739 79.6511 9.98837C79.6511 10.064 79.6653 10.1349 79.6937 10.2011C79.7252 10.2673 79.7693 10.3257 79.8261 10.3761C79.886 10.4234 79.9585 10.4628 80.0436 10.4943C80.1287 10.5258 80.2233 10.5416 80.3273 10.5416C80.4281 10.5416 80.5196 10.5274 80.6015 10.499C80.6835 10.4675 80.7528 10.4281 80.8096 10.3808C80.8695 10.3304 80.9136 10.2721 80.942 10.2059C80.9735 10.1365 80.9892 10.0609 80.9892 9.97891C80.9892 9.94109 80.9955 9.90799 81.0082 9.87962C81.0208 9.85125 81.0444 9.82761 81.0791 9.80869C81.1169 9.78978 81.1658 9.77559 81.2257 9.76614C81.2887 9.75668 81.3675 9.75195 81.4621 9.75195C81.5756 9.75195 81.6686 9.75668 81.7411 9.76614C81.8167 9.77244 81.8766 9.78505 81.9207 9.80397C81.9649 9.82288 81.9948 9.8481 82.0106 9.87962C82.0295 9.90799 82.0389 9.94582 82.0389 9.9931Z" fill="black"/>
<path d="M38.645 26.5256C38.645 26.5603 38.6355 26.5902 38.6166 26.6155C38.5977 26.6375 38.563 26.6564 38.5126 26.6722C38.4653 26.688 38.4007 26.699 38.3187 26.7053C38.2368 26.7147 38.1312 26.7195 38.0019 26.7195C37.8664 26.7195 37.7561 26.7147 37.671 26.7053C37.589 26.699 37.5228 26.688 37.4724 26.6722C37.4219 26.6533 37.3841 26.6296 37.3589 26.6013C37.3337 26.5697 37.3148 26.5319 37.3021 26.4878L36.8104 25.126C36.741 24.9274 36.6685 24.7619 36.5929 24.6295C36.5172 24.494 36.4337 24.3852 36.3423 24.3033C36.2509 24.2182 36.1469 24.1583 36.0302 24.1236C35.9136 24.0889 35.7828 24.0716 35.6378 24.0716H35.3588V26.5209C35.3588 26.5556 35.3493 26.5855 35.3304 26.6107C35.3115 26.6328 35.2784 26.6533 35.2311 26.6722C35.1838 26.688 35.1208 26.699 35.042 26.7053C34.9632 26.7147 34.8623 26.7195 34.7394 26.7195C34.6196 26.7195 34.5187 26.7147 34.4368 26.7053C34.358 26.699 34.2949 26.688 34.2476 26.6722C34.2003 26.6533 34.1657 26.6328 34.1436 26.6107C34.1247 26.5855 34.1152 26.5556 34.1152 26.5209V20.7381C34.1152 20.7034 34.1247 20.6751 34.1436 20.653C34.1657 20.6278 34.2003 20.6073 34.2476 20.5915C34.2949 20.5758 34.358 20.5647 34.4368 20.5584C34.5187 20.549 34.6196 20.5442 34.7394 20.5442C34.8623 20.5442 34.9632 20.549 35.042 20.5584C35.1208 20.5647 35.1838 20.5758 35.2311 20.5915C35.2784 20.6073 35.3115 20.6278 35.3304 20.653C35.3493 20.6751 35.3588 20.7034 35.3588 20.7381V23.0361H35.6378C35.7796 23.0361 35.9041 23.0172 36.0113 22.9793C36.1185 22.9415 36.2146 22.8816 36.2997 22.7997C36.388 22.7177 36.4668 22.6121 36.5362 22.4829C36.6087 22.3505 36.678 22.1881 36.7442 21.9958L37.1556 20.7759C37.1713 20.7318 37.1902 20.6956 37.2123 20.6672C37.2344 20.6357 37.269 20.612 37.3163 20.5963C37.3668 20.5773 37.4314 20.5647 37.5102 20.5584C37.5922 20.549 37.7009 20.5442 37.8365 20.5442C37.9594 20.5442 38.0603 20.549 38.1391 20.5584C38.221 20.5647 38.2841 20.5758 38.3282 20.5915C38.3755 20.6041 38.407 20.623 38.4228 20.6483C38.4385 20.6703 38.4464 20.6987 38.4464 20.7334C38.4464 20.7744 38.4385 20.8248 38.4228 20.8847C38.4102 20.9446 38.3865 21.0234 38.3518 21.1211L37.9405 22.2086C37.8648 22.4104 37.7892 22.5822 37.7135 22.724C37.6379 22.8659 37.5575 22.9872 37.4724 23.0881C37.3904 23.1858 37.3021 23.2662 37.2076 23.3292C37.1162 23.3923 37.0137 23.4443 36.9002 23.4853V23.49C37.0263 23.5436 37.1398 23.6051 37.2407 23.6744C37.3447 23.7406 37.4408 23.8257 37.5291 23.9297C37.6205 24.0338 37.7072 24.1614 37.7892 24.3127C37.8711 24.4641 37.9547 24.65 38.0398 24.8707L38.541 26.1379C38.5914 26.2671 38.6214 26.357 38.6308 26.4074C38.6403 26.4547 38.645 26.4941 38.645 26.5256Z" fill="black"/>
<path d="M44.5838 26.2277C44.6216 26.3412 44.6453 26.431 44.6547 26.4972C44.6642 26.5634 44.6516 26.6139 44.6169 26.6486C44.5822 26.6801 44.5208 26.699 44.4325 26.7053C44.3442 26.7147 44.2229 26.7195 44.0684 26.7195C43.9077 26.7195 43.7816 26.7163 43.6902 26.71C43.6019 26.7069 43.5341 26.699 43.4868 26.6864C43.4396 26.6706 43.4065 26.6501 43.3875 26.6249C43.3686 26.5997 43.3529 26.5666 43.3403 26.5256L42.9289 25.2962H40.6309L40.2432 26.4925C40.2306 26.5366 40.2132 26.5745 40.1912 26.606C40.1723 26.6344 40.1392 26.658 40.0919 26.6769C40.0477 26.6927 39.9831 26.7037 39.898 26.71C39.8161 26.7163 39.7073 26.7195 39.5718 26.7195C39.4268 26.7195 39.3133 26.7147 39.2313 26.7053C39.1494 26.6958 39.0926 26.6738 39.0611 26.6391C39.0296 26.6013 39.0185 26.5493 39.028 26.4831C39.0375 26.4169 39.0611 26.3286 39.0989 26.2183L40.9855 20.7901C41.0044 20.7365 41.0265 20.694 41.0517 20.6625C41.077 20.6278 41.1164 20.6026 41.1699 20.5868C41.2267 20.5679 41.3039 20.5569 41.4016 20.5537C41.4994 20.5474 41.6286 20.5442 41.7894 20.5442C41.9753 20.5442 42.1235 20.5474 42.2338 20.5537C42.3441 20.5569 42.4293 20.5679 42.4892 20.5868C42.5522 20.6026 42.5963 20.6278 42.6215 20.6625C42.6499 20.6971 42.6736 20.7444 42.6925 20.8043L44.5838 26.2277ZM41.7752 21.7405H41.7704L40.9052 24.3411H42.6405L41.7752 21.7405Z" fill="black"/>
<path d="M50.2106 26.5303C50.2106 26.5619 50.2011 26.5902 50.1822 26.6155C50.1633 26.6375 50.1302 26.6564 50.0829 26.6722C50.0356 26.688 49.971 26.699 49.889 26.7053C49.8102 26.7147 49.7109 26.7195 49.5911 26.7195C49.4714 26.7195 49.3705 26.7147 49.2885 26.7053C49.2097 26.699 49.1467 26.688 49.0994 26.6722C49.0521 26.6564 49.0174 26.6375 48.9954 26.6155C48.9765 26.5902 48.967 26.5619 48.967 26.5303V21.6081H46.6879V26.5303C46.6879 26.5619 46.6769 26.5902 46.6548 26.6155C46.6359 26.6375 46.6028 26.6564 46.5555 26.6722C46.5083 26.688 46.4452 26.699 46.3664 26.7053C46.2876 26.7147 46.1867 26.7195 46.0638 26.7195C45.944 26.7195 45.8431 26.7147 45.7612 26.7053C45.6824 26.699 45.6193 26.688 45.572 26.6722C45.5248 26.6564 45.4917 26.6375 45.4727 26.6155C45.4538 26.5902 45.4444 26.5619 45.4444 26.5303V20.9651C45.4444 20.8327 45.4775 20.735 45.5437 20.6719C45.6099 20.6057 45.6981 20.5726 45.8085 20.5726H49.8512C49.9647 20.5726 50.0529 20.6057 50.116 20.6719C50.179 20.735 50.2106 20.8327 50.2106 20.9651V26.5303Z" fill="black"/>
<path d="M55.7238 26.5256C55.7238 26.5571 55.7128 26.5855 55.6907 26.6107C55.6718 26.6328 55.6387 26.6517 55.5914 26.6675C55.5473 26.6832 55.4858 26.6958 55.407 26.7053C55.3314 26.7147 55.2336 26.7195 55.1139 26.7195C54.9972 26.7195 54.8979 26.7147 54.816 26.7053C54.7372 26.6958 54.6726 26.6832 54.6221 26.6675C54.5717 26.6517 54.5354 26.6328 54.5134 26.6107C54.4913 26.5855 54.4803 26.5571 54.4803 26.5256V24.4357C54.3132 24.4514 54.1493 24.4656 53.9885 24.4782C53.8277 24.4877 53.6654 24.4924 53.5015 24.4924C53.1642 24.4924 52.8569 24.4625 52.5795 24.4026C52.3052 24.3427 52.0672 24.2387 51.8655 24.0905C51.6669 23.9392 51.5124 23.7343 51.4021 23.4758C51.2949 23.2142 51.2413 22.8848 51.2413 22.4876V20.7381C51.2413 20.7066 51.2508 20.6798 51.2697 20.6577C51.2886 20.6325 51.3201 20.612 51.3643 20.5963C51.4116 20.5805 51.473 20.5679 51.5487 20.5584C51.6275 20.549 51.7252 20.5442 51.8418 20.5442C51.9616 20.5442 52.0609 20.549 52.1397 20.5584C52.2217 20.5679 52.2879 20.5805 52.3383 20.5963C52.3888 20.612 52.425 20.6325 52.4471 20.6577C52.4691 20.6798 52.4802 20.7066 52.4802 20.7381V22.3647C52.4802 22.5538 52.4991 22.7177 52.5369 22.8564C52.5779 22.9951 52.6441 23.1102 52.7355 23.2016C52.8269 23.293 52.9467 23.3623 53.0949 23.4096C53.2462 23.4569 53.4337 23.4806 53.6575 23.4806C53.7994 23.4806 53.9381 23.4758 54.0736 23.4664C54.2092 23.4538 54.3447 23.4396 54.4803 23.4238V20.7381C54.4803 20.7066 54.4913 20.6798 54.5134 20.6577C54.5354 20.6325 54.5717 20.612 54.6221 20.5963C54.6726 20.5805 54.7372 20.5679 54.816 20.5584C54.8979 20.549 54.9972 20.5442 55.1139 20.5442C55.2336 20.5442 55.3314 20.549 55.407 20.5584C55.4858 20.5679 55.5473 20.5805 55.5914 20.5963C55.6387 20.612 55.6718 20.6325 55.6907 20.6577C55.7128 20.6798 55.7238 20.7066 55.7238 20.7381V26.5256Z" fill="black"/>
<path d="M62.0693 26.2277C62.1071 26.3412 62.1307 26.431 62.1402 26.4972C62.1497 26.5634 62.137 26.6139 62.1024 26.6486C62.0677 26.6801 62.0062 26.699 61.918 26.7053C61.8297 26.7147 61.7083 26.7195 61.5539 26.7195C61.3931 26.7195 61.267 26.7163 61.1756 26.71C61.0874 26.7069 61.0196 26.699 60.9723 26.6864C60.925 26.6706 60.8919 26.6501 60.873 26.6249C60.8541 26.5997 60.8383 26.5666 60.8257 26.5256L60.4143 25.2962H58.1164L57.7286 26.4925C57.716 26.5366 57.6987 26.5745 57.6766 26.606C57.6577 26.6344 57.6246 26.658 57.5773 26.6769C57.5332 26.6927 57.4686 26.7037 57.3835 26.71C57.3015 26.7163 57.1928 26.7195 57.0572 26.7195C56.9122 26.7195 56.7987 26.7147 56.7168 26.7053C56.6348 26.6958 56.5781 26.6738 56.5466 26.6391C56.515 26.6013 56.504 26.5493 56.5135 26.4831C56.5229 26.4169 56.5466 26.3286 56.5844 26.2183L58.471 20.7901C58.4899 20.7365 58.512 20.694 58.5372 20.6625C58.5624 20.6278 58.6018 20.6026 58.6554 20.5868C58.7121 20.5679 58.7894 20.5569 58.8871 20.5537C58.9848 20.5474 59.1141 20.5442 59.2748 20.5442C59.4608 20.5442 59.609 20.5474 59.7193 20.5537C59.8296 20.5569 59.9147 20.5679 59.9746 20.5868C60.0377 20.6026 60.0818 20.6278 60.107 20.6625C60.1354 20.6971 60.159 20.7444 60.1779 20.8043L62.0693 26.2277ZM59.2606 21.7405H59.2559L58.3906 24.3411H60.1259L59.2606 21.7405Z" fill="black"/>
<path d="M66.3957 21.088C66.3957 21.1826 66.391 21.263 66.3815 21.3292C66.3752 21.3922 66.3642 21.4442 66.3484 21.4852C66.3327 21.523 66.3122 21.5514 66.287 21.5703C66.2649 21.5861 66.2381 21.5939 66.2066 21.5939H64.1781V26.5303C64.1781 26.5619 64.1671 26.5902 64.145 26.6155C64.1261 26.6375 64.093 26.6564 64.0457 26.6722C63.9984 26.688 63.9354 26.699 63.8566 26.7053C63.7778 26.7147 63.6769 26.7195 63.554 26.7195C63.4342 26.7195 63.3333 26.7147 63.2514 26.7053C63.1726 26.699 63.1095 26.688 63.0622 26.6722C63.0149 26.6564 62.9803 26.6375 62.9582 26.6155C62.9393 26.5902 62.9298 26.5619 62.9298 26.5303V20.9651C62.9298 20.8327 62.9629 20.735 63.0291 20.6719C63.0985 20.6057 63.1883 20.5726 63.2986 20.5726H66.2066C66.2696 20.5726 66.3169 20.612 66.3484 20.6908C66.38 20.7696 66.3957 20.902 66.3957 21.088Z" fill="black"/>
<path d="M71.3747 26.2277C71.4125 26.3412 71.4361 26.431 71.4456 26.4972C71.4551 26.5634 71.4425 26.6139 71.4078 26.6486C71.3731 26.6801 71.3116 26.699 71.2234 26.7053C71.1351 26.7147 71.0137 26.7195 70.8593 26.7195C70.6985 26.7195 70.5724 26.7163 70.481 26.71C70.3928 26.7069 70.325 26.699 70.2777 26.6864C70.2304 26.6706 70.1973 26.6501 70.1784 26.6249C70.1595 26.5997 70.1437 26.5666 70.1311 26.5256L69.7198 25.2962H67.4218L67.034 26.4925C67.0214 26.5366 67.0041 26.5745 66.982 26.606C66.9631 26.6344 66.93 26.658 66.8827 26.6769C66.8386 26.6927 66.774 26.7037 66.6889 26.71C66.6069 26.7163 66.4982 26.7195 66.3626 26.7195C66.2176 26.7195 66.1041 26.7147 66.0222 26.7053C65.9402 26.6958 65.8835 26.6738 65.852 26.6391C65.8204 26.6013 65.8094 26.5493 65.8189 26.4831C65.8283 26.4169 65.852 26.3286 65.8898 26.2183L67.7764 20.7901C67.7953 20.7365 67.8174 20.694 67.8426 20.6625C67.8678 20.6278 67.9072 20.6026 67.9608 20.5868C68.0175 20.5679 68.0948 20.5569 68.1925 20.5537C68.2902 20.5474 68.4195 20.5442 68.5802 20.5442C68.7662 20.5442 68.9144 20.5474 69.0247 20.5537C69.135 20.5569 69.2201 20.5679 69.28 20.5868C69.3431 20.6026 69.3872 20.6278 69.4124 20.6625C69.4408 20.6971 69.4644 20.7444 69.4833 20.8043L71.3747 26.2277ZM68.566 21.7405H68.5613L67.696 24.3411H69.4313L68.566 21.7405Z" fill="black"/>
<path d="M77.2142 26.5303C77.2142 26.5619 77.2032 26.5902 77.1811 26.6155C77.1622 26.6375 77.1291 26.6564 77.0818 26.6722C77.0345 26.688 76.9699 26.699 76.8879 26.7053C76.8091 26.7147 76.7098 26.7195 76.5901 26.7195C76.4703 26.7195 76.3694 26.7147 76.2874 26.7053C76.2086 26.699 76.1456 26.688 76.0983 26.6722C76.0542 26.6564 76.0227 26.6375 76.0037 26.6155C75.9848 26.5902 75.9754 26.5619 75.9754 26.5303V23.3056C75.9754 23.1827 75.9769 23.0629 75.9801 22.9462C75.9832 22.8265 75.988 22.7209 75.9943 22.6294H75.9848C75.9596 22.6736 75.9297 22.7256 75.895 22.7855C75.8603 22.8422 75.8225 22.9037 75.7815 22.9699C75.7437 23.0329 75.7027 23.0991 75.6586 23.1685C75.6144 23.2347 75.5703 23.2993 75.5262 23.3623L73.3984 26.5351C73.3732 26.5697 73.3464 26.5997 73.318 26.6249C73.2928 26.6501 73.2581 26.6706 73.214 26.6864C73.173 26.699 73.121 26.7069 73.058 26.71C72.9981 26.7163 72.9193 26.7195 72.8216 26.7195C72.6986 26.7195 72.5993 26.7147 72.5237 26.7053C72.448 26.699 72.3881 26.688 72.344 26.6722C72.303 26.6564 72.2746 26.6359 72.2589 26.6107C72.2431 26.5855 72.2352 26.5556 72.2352 26.5209V20.7334C72.2352 20.7019 72.2447 20.6751 72.2636 20.653C72.2857 20.6278 72.3204 20.6073 72.3676 20.5915C72.4181 20.5758 72.4827 20.5647 72.5615 20.5584C72.6403 20.549 72.7396 20.5442 72.8594 20.5442C72.9823 20.5442 73.0832 20.549 73.162 20.5584C73.2408 20.5647 73.3038 20.5758 73.3511 20.5915C73.3984 20.6073 73.4315 20.6278 73.4504 20.653C73.4693 20.6751 73.4788 20.7019 73.4788 20.7334V23.977C73.4788 24.0779 73.4772 24.1851 73.4741 24.2986C73.4709 24.412 73.4662 24.5224 73.4599 24.6295H73.4693C73.5229 24.535 73.5907 24.4215 73.6727 24.2891C73.7546 24.1567 73.8397 24.0275 73.928 23.9014L76.0558 20.7286C76.0778 20.6971 76.1015 20.6703 76.1267 20.6483C76.1519 20.623 76.185 20.6026 76.226 20.5868C76.2701 20.571 76.3237 20.56 76.3867 20.5537C76.4498 20.5474 76.5302 20.5442 76.6279 20.5442C76.7477 20.5442 76.8438 20.549 76.9163 20.5584C76.992 20.5647 77.0519 20.5758 77.096 20.5915C77.1401 20.6073 77.1701 20.6278 77.1858 20.653C77.2047 20.6751 77.2142 20.7034 77.2142 20.7381V26.5303ZM76.4908 18.9319C76.4908 19.1052 76.4608 19.2723 76.4009 19.4331C76.341 19.5907 76.2433 19.731 76.1078 19.8539C75.9754 19.9737 75.7988 20.0698 75.5782 20.1423C75.3607 20.2148 75.0927 20.2511 74.7744 20.2511C74.4654 20.2511 74.2022 20.218 73.9847 20.1518C73.7672 20.0856 73.5891 19.9958 73.4504 19.8823C73.3149 19.7656 73.2156 19.6269 73.1525 19.4662C73.0895 19.3023 73.058 19.1242 73.058 18.9319C73.058 18.8846 73.0659 18.8468 73.0816 18.8184C73.1005 18.7869 73.1305 18.7617 73.1715 18.7427C73.2124 18.7238 73.2676 18.7112 73.3369 18.7049C73.4094 18.6955 73.4993 18.6907 73.6065 18.6907C73.7073 18.6907 73.7909 18.6955 73.8571 18.7049C73.9233 18.7144 73.9737 18.7286 74.0084 18.7475C74.043 18.7664 74.0667 18.7916 74.0793 18.8231C74.0951 18.8515 74.1029 18.8862 74.1029 18.9271C74.1029 19.0028 74.1171 19.0737 74.1455 19.1399C74.177 19.2061 74.2211 19.2644 74.2779 19.3149C74.3378 19.3622 74.4103 19.4016 74.4954 19.4331C74.5805 19.4646 74.6751 19.4804 74.7791 19.4804C74.88 19.4804 74.9714 19.4662 75.0533 19.4378C75.1353 19.4063 75.2046 19.3669 75.2614 19.3196C75.3213 19.2692 75.3654 19.2108 75.3938 19.1447C75.4253 19.0753 75.4411 18.9996 75.4411 18.9177C75.4411 18.8799 75.4474 18.8468 75.46 18.8184C75.4726 18.79 75.4962 18.7664 75.5309 18.7475C75.5687 18.7286 75.6176 18.7144 75.6775 18.7049C75.7405 18.6955 75.8193 18.6907 75.9139 18.6907C76.0274 18.6907 76.1204 18.6955 76.1929 18.7049C76.2685 18.7112 76.3284 18.7238 76.3726 18.7427C76.4167 18.7617 76.4466 18.7869 76.4624 18.8184C76.4813 18.8468 76.4908 18.8846 76.4908 18.9319Z" fill="black"/>
<path d="M122.802 38.9077C122.802 39.3566 122.746 39.7582 122.634 40.1123C122.523 40.4665 122.357 40.7676 122.137 41.0158C121.916 41.2612 121.643 41.4494 121.317 41.5805C120.993 41.7088 120.618 41.7729 120.192 41.7729C119.771 41.7729 119.402 41.7185 119.087 41.6098C118.775 41.4982 118.514 41.3295 118.305 41.1036C118.096 40.8778 117.938 40.5906 117.832 40.242C117.729 39.8934 117.678 39.4807 117.678 39.0039C117.678 38.5661 117.734 38.1729 117.845 37.8243C117.957 37.473 118.123 37.1746 118.343 36.9292C118.563 36.6838 118.835 36.4956 119.158 36.3646C119.485 36.2335 119.863 36.168 120.292 36.168C120.702 36.168 121.063 36.2223 121.375 36.3311C121.69 36.4398 121.953 36.6072 122.162 36.833C122.374 37.0589 122.533 37.3447 122.639 37.6905C122.747 38.0335 122.802 38.4392 122.802 38.9077ZM121.647 38.9662C121.647 38.6818 121.625 38.4239 121.58 38.1924C121.536 37.9582 121.459 37.7588 121.35 37.5943C121.244 37.427 121.102 37.2987 120.924 37.2095C120.745 37.1175 120.522 37.0714 120.254 37.0714C119.984 37.0714 119.758 37.123 119.577 37.2262C119.395 37.3266 119.249 37.4618 119.138 37.6319C119.026 37.802 118.947 38.0014 118.899 38.2301C118.854 38.4559 118.832 38.6958 118.832 38.9495C118.832 39.2451 118.854 39.5114 118.899 39.7484C118.944 39.9827 119.019 40.1834 119.125 40.3507C119.231 40.5181 119.373 40.6463 119.552 40.7356C119.73 40.822 119.955 40.8652 120.225 40.8652C120.496 40.8652 120.721 40.815 120.903 40.7146C121.084 40.6143 121.23 40.4776 121.342 40.3047C121.453 40.1318 121.531 39.9311 121.576 39.7024C121.623 39.471 121.647 39.2256 121.647 38.9662Z" fill="black"/>
<path d="M127.436 37.908C127.436 38.212 127.389 38.481 127.294 38.7153C127.199 38.9495 127.061 39.1475 126.88 39.3092C126.699 39.4682 126.476 39.5895 126.211 39.6731C125.948 39.7568 125.639 39.7986 125.282 39.7986H124.83V41.5261C124.83 41.554 124.821 41.5791 124.801 41.6014C124.784 41.6237 124.755 41.6418 124.713 41.6558C124.671 41.6697 124.616 41.6809 124.546 41.6892C124.476 41.6976 124.387 41.7018 124.278 41.7018C124.172 41.7018 124.083 41.6976 124.01 41.6892C123.941 41.6809 123.885 41.6697 123.843 41.6558C123.801 41.6418 123.772 41.6237 123.755 41.6014C123.739 41.5791 123.73 41.554 123.73 41.5261V36.6574C123.73 36.5263 123.764 36.4287 123.831 36.3646C123.9 36.2976 123.991 36.2642 124.102 36.2642H125.378C125.506 36.2642 125.628 36.2697 125.742 36.2809C125.859 36.2893 125.999 36.3102 126.16 36.3436C126.322 36.3743 126.485 36.4329 126.65 36.5193C126.817 36.6058 126.959 36.7159 127.076 36.8498C127.194 36.9808 127.283 37.1356 127.344 37.314C127.405 37.4897 127.436 37.6877 127.436 37.908ZM126.286 37.9875C126.286 37.7979 126.252 37.6417 126.186 37.519C126.119 37.3963 126.036 37.3057 125.939 37.2471C125.841 37.1886 125.738 37.1523 125.629 37.1384C125.523 37.1216 125.413 37.1133 125.299 37.1133H124.83V38.9495H125.324C125.5 38.9495 125.646 38.9258 125.763 38.8784C125.883 38.831 125.981 38.7655 126.056 38.6818C126.131 38.5954 126.188 38.4936 126.227 38.3765C126.266 38.2566 126.286 38.1269 126.286 37.9875Z" fill="black"/>
<path d="M131.849 36.7159C131.849 36.7968 131.845 36.8665 131.836 36.9251C131.831 36.9808 131.821 37.0268 131.807 37.0631C131.793 37.0965 131.775 37.1216 131.753 37.1384C131.733 37.1551 131.711 37.1635 131.686 37.1635H130.331V41.5261C130.331 41.554 130.321 41.5791 130.301 41.6014C130.285 41.6237 130.255 41.6418 130.214 41.6558C130.172 41.6697 130.115 41.6809 130.042 41.6892C129.972 41.6976 129.884 41.7018 129.779 41.7018C129.673 41.7018 129.583 41.6976 129.511 41.6892C129.441 41.6809 129.385 41.6697 129.343 41.6558C129.302 41.6418 129.271 41.6237 129.251 41.6014C129.235 41.5791 129.226 41.554 129.226 41.5261V37.1635H127.871C127.843 37.1635 127.82 37.1551 127.8 37.1384C127.781 37.1216 127.764 37.0965 127.75 37.0631C127.736 37.0268 127.725 36.9808 127.716 36.9251C127.711 36.8665 127.708 36.7968 127.708 36.7159C127.708 36.6323 127.711 36.5611 127.716 36.5026C127.725 36.444 127.736 36.398 127.75 36.3646C127.764 36.3283 127.781 36.3032 127.8 36.2893C127.82 36.2725 127.843 36.2642 127.871 36.2642H131.686C131.711 36.2642 131.733 36.2725 131.753 36.2893C131.775 36.3032 131.793 36.3283 131.807 36.3646C131.821 36.398 131.831 36.444 131.836 36.5026C131.845 36.5611 131.849 36.6323 131.849 36.7159Z" fill="black"/>
<path d="M136.337 41.2668C136.371 41.3672 136.391 41.4466 136.4 41.5052C136.408 41.5638 136.397 41.6084 136.366 41.639C136.336 41.6669 136.281 41.6837 136.203 41.6892C136.125 41.6976 136.018 41.7018 135.881 41.7018C135.739 41.7018 135.627 41.699 135.547 41.6934C135.468 41.6906 135.409 41.6837 135.367 41.6725C135.325 41.6586 135.296 41.6404 135.279 41.6181C135.262 41.5958 135.248 41.5665 135.237 41.5303L134.873 40.4428H132.84L132.497 41.501C132.486 41.54 132.471 41.5735 132.451 41.6014C132.435 41.6265 132.405 41.6474 132.363 41.6641C132.324 41.6781 132.267 41.6878 132.192 41.6934C132.119 41.699 132.023 41.7018 131.903 41.7018C131.775 41.7018 131.675 41.6976 131.602 41.6892C131.53 41.6809 131.48 41.6613 131.452 41.6307C131.424 41.5972 131.414 41.5512 131.422 41.4926C131.431 41.4341 131.452 41.356 131.485 41.2584L133.154 36.4566C133.171 36.4092 133.19 36.3715 133.213 36.3436C133.235 36.313 133.27 36.2907 133.317 36.2767C133.367 36.26 133.436 36.2502 133.522 36.2474C133.609 36.2419 133.723 36.2391 133.865 36.2391C134.03 36.2391 134.161 36.2419 134.258 36.2474C134.356 36.2502 134.431 36.26 134.484 36.2767C134.54 36.2907 134.579 36.313 134.601 36.3436C134.626 36.3743 134.647 36.4161 134.664 36.4691L136.337 41.2668ZM133.853 37.2973H133.848L133.083 39.5978H134.618L133.853 37.2973Z" fill="black"/>
<path d="M141.302 41.5345C141.302 41.5624 141.294 41.5875 141.277 41.6098C141.26 41.6293 141.231 41.646 141.189 41.66C141.147 41.6739 141.09 41.6837 141.018 41.6892C140.948 41.6976 140.86 41.7018 140.754 41.7018C140.645 41.7018 140.556 41.6976 140.486 41.6892C140.417 41.6837 140.361 41.6739 140.319 41.66C140.277 41.646 140.248 41.6293 140.231 41.6098C140.215 41.5875 140.206 41.5624 140.206 41.5345V37.1677H139.043C138.965 37.8062 138.886 38.3639 138.805 38.8408C138.724 39.3176 138.638 39.7261 138.546 40.0663C138.454 40.4065 138.352 40.6854 138.24 40.9029C138.132 41.1204 138.006 41.2933 137.864 41.4215C137.724 41.547 137.565 41.6335 137.387 41.6809C137.211 41.7283 137.011 41.752 136.785 41.752C136.743 41.752 136.707 41.7464 136.676 41.7352C136.645 41.7241 136.62 41.7032 136.601 41.6725C136.584 41.6418 136.571 41.5986 136.563 41.5428C136.555 41.4871 136.55 41.416 136.55 41.3295C136.55 41.2096 136.553 41.1134 136.559 41.0409C136.564 40.9656 136.574 40.9084 136.588 40.8694C136.602 40.8276 136.62 40.7997 136.642 40.7858C136.665 40.7718 136.691 40.7648 136.722 40.7648C136.808 40.7648 136.891 40.7481 136.969 40.7146C137.05 40.6784 137.126 40.6087 137.199 40.5055C137.274 40.4023 137.345 40.2573 137.412 40.0705C137.482 39.8837 137.549 39.6383 137.613 39.3343C137.68 39.0276 137.745 38.6553 137.809 38.2175C137.876 37.7769 137.943 37.2541 138.01 36.649C138.027 36.5068 138.06 36.4078 138.111 36.352C138.161 36.2935 138.235 36.2642 138.332 36.2642H140.988C141.089 36.2642 141.165 36.2935 141.218 36.352C141.274 36.4078 141.302 36.4942 141.302 36.6113V41.5345Z" fill="black"/>
<path d="M148.145 41.5345C148.145 41.5624 148.135 41.5875 148.116 41.6098C148.099 41.6293 148.07 41.646 148.028 41.66C147.986 41.6739 147.929 41.6837 147.856 41.6892C147.787 41.6976 147.699 41.7018 147.593 41.7018C147.487 41.7018 147.399 41.6976 147.329 41.6892C147.26 41.6837 147.203 41.6739 147.158 41.66C147.116 41.646 147.085 41.6293 147.066 41.6098C147.049 41.5875 147.041 41.5624 147.041 41.5345V36.4064C147.041 36.3785 147.049 36.3548 147.066 36.3353C147.085 36.313 147.116 36.2948 147.158 36.2809C147.203 36.267 147.26 36.2572 147.329 36.2516C147.402 36.2433 147.49 36.2391 147.593 36.2391C147.699 36.2391 147.787 36.2433 147.856 36.2516C147.929 36.2572 147.986 36.267 148.028 36.2809C148.07 36.2948 148.099 36.313 148.116 36.3353C148.135 36.3548 148.145 36.3785 148.145 36.4064V41.5345ZM146.384 39.8906C146.384 40.1472 146.344 40.3828 146.263 40.5975C146.185 40.8095 146.061 40.9949 145.891 41.1538C145.72 41.3128 145.497 41.4397 145.221 41.5345C144.948 41.6293 144.574 41.6767 144.1 41.6767H142.825C142.777 41.6767 142.733 41.6711 142.691 41.66C142.652 41.646 142.617 41.6251 142.586 41.5972C142.555 41.5665 142.53 41.5303 142.511 41.4885C142.494 41.4438 142.486 41.3909 142.486 41.3295V36.4064C142.486 36.3785 142.494 36.3548 142.511 36.3353C142.53 36.313 142.561 36.2948 142.603 36.2809C142.648 36.267 142.705 36.2572 142.774 36.2516C142.847 36.2433 142.935 36.2391 143.038 36.2391C143.147 36.2391 143.236 36.2433 143.306 36.2516C143.375 36.2572 143.431 36.267 143.473 36.2809C143.515 36.2948 143.544 36.313 143.561 36.3353C143.577 36.3548 143.586 36.3785 143.586 36.4064V38.2761H144.268C144.672 38.2761 144.994 38.3109 145.234 38.3807C145.476 38.4504 145.681 38.5535 145.849 38.6902C146.019 38.8268 146.15 38.9969 146.242 39.2005C146.337 39.404 146.384 39.6341 146.384 39.8906ZM145.255 39.9827C145.255 39.8488 145.235 39.7289 145.196 39.6229C145.157 39.517 145.097 39.4264 145.016 39.3511C144.935 39.2758 144.832 39.2172 144.707 39.1754C144.581 39.1336 144.396 39.1126 144.151 39.1126H143.586V40.8318H144.167C144.424 40.8318 144.616 40.8067 144.744 40.7565C144.876 40.7035 144.977 40.6366 145.05 40.5557C145.122 40.472 145.174 40.38 145.205 40.2796C145.238 40.1793 145.255 40.0803 145.255 39.9827Z" fill="black"/>
<path d="M153.64 36.3581L151.704 38.9131L153.03 40.7083H154.221V43.2261H153.134V41.6767H152.464L150.534 38.9802V41.6767H149.409V36.3581H150.534V38.9355L152.441 36.3581H153.64Z" fill="black"/>
<path d="M122.793 51.1463C122.793 51.1742 122.786 51.1979 122.772 51.2174C122.758 51.2369 122.733 51.2523 122.697 51.2634C122.664 51.2774 122.615 51.2871 122.551 51.2927C122.489 51.3011 122.411 51.3053 122.316 51.3053C122.222 51.3053 122.144 51.3011 122.082 51.2927C122.021 51.2871 121.971 51.2774 121.932 51.2634C121.895 51.2523 121.869 51.2369 121.852 51.2174C121.838 51.1979 121.831 51.1742 121.831 51.1463V49.8706H118.251C118.153 49.8706 118.075 49.8427 118.017 49.7869C117.961 49.7283 117.933 49.6405 117.933 49.5234V44.6003C117.933 44.5724 117.941 44.5487 117.958 44.5292C117.978 44.5068 118.008 44.4887 118.05 44.4748C118.092 44.4608 118.148 44.4511 118.217 44.4455C118.29 44.4371 118.379 44.433 118.485 44.433C118.594 44.433 118.683 44.4371 118.753 44.4455C118.822 44.4511 118.878 44.4608 118.92 44.4748C118.962 44.4887 118.991 44.5068 119.008 44.5292C119.025 44.5487 119.033 44.5724 119.033 44.6003V48.9587H121.032V44.6003C121.032 44.5724 121.041 44.5487 121.057 44.5292C121.077 44.5068 121.108 44.4887 121.149 44.4748C121.191 44.4608 121.247 44.4511 121.317 44.4455C121.389 44.4371 121.478 44.433 121.584 44.433C121.693 44.433 121.782 44.4371 121.852 44.4455C121.922 44.4511 121.978 44.4608 122.019 44.4748C122.061 44.4887 122.091 44.5068 122.107 44.5292C122.124 44.5487 122.132 44.5724 122.132 44.6003V48.9587H122.609C122.679 48.9587 122.726 48.9754 122.751 49.0089C122.779 49.0396 122.793 49.0981 122.793 49.1846V51.1463Z" fill="black"/>
<path d="M126.779 49.4397C126.779 49.5206 126.775 49.5889 126.767 49.6447C126.761 49.6977 126.752 49.7409 126.738 49.7744C126.724 49.8078 126.706 49.8329 126.683 49.8496C126.664 49.8636 126.641 49.8706 126.616 49.8706H123.898C123.806 49.8706 123.727 49.8441 123.663 49.7911C123.602 49.7353 123.571 49.6461 123.571 49.5234V44.8052C123.571 44.6825 123.602 44.5947 123.663 44.5417C123.727 44.4859 123.806 44.458 123.898 44.458H126.6C126.625 44.458 126.647 44.465 126.667 44.479C126.686 44.4929 126.703 44.518 126.717 44.5543C126.731 44.5877 126.74 44.6323 126.746 44.6881C126.754 44.7411 126.759 44.8094 126.759 44.8931C126.759 44.9711 126.754 45.0381 126.746 45.0938C126.74 45.1468 126.731 45.19 126.717 45.2235C126.703 45.257 126.686 45.2821 126.667 45.2988C126.647 45.3127 126.625 45.3197 126.6 45.3197H124.667V46.6415H126.303C126.328 46.6415 126.35 46.6498 126.37 46.6666C126.392 46.6805 126.41 46.7042 126.424 46.7377C126.438 46.7683 126.448 46.8116 126.453 46.8673C126.462 46.9203 126.466 46.9858 126.466 47.0639C126.466 47.1448 126.462 47.2117 126.453 47.2647C126.448 47.3177 126.438 47.3609 126.424 47.3944C126.41 47.425 126.392 47.4473 126.37 47.4613C126.35 47.4752 126.328 47.4822 126.303 47.4822H124.667V49.0089H126.616C126.641 49.0089 126.664 49.0173 126.683 49.034C126.706 49.048 126.724 49.0717 126.738 49.1051C126.752 49.1386 126.761 49.1832 126.767 49.239C126.775 49.2919 126.779 49.3589 126.779 49.4397Z" fill="black"/>
<path d="M131.979 49.72C131.979 49.7479 131.969 49.773 131.949 49.7953C131.933 49.8176 131.903 49.8357 131.862 49.8496C131.82 49.8636 131.764 49.8747 131.694 49.8831C131.625 49.8915 131.537 49.8957 131.431 49.8957C131.322 49.8957 131.231 49.8915 131.159 49.8831C131.089 49.8747 131.033 49.8636 130.992 49.8496C130.952 49.8357 130.923 49.8176 130.904 49.7953C130.887 49.773 130.879 49.7479 130.879 49.72V47.5324H128.854V49.72C128.854 49.7479 128.846 49.773 128.829 49.7953C128.812 49.8176 128.783 49.8357 128.741 49.8496C128.699 49.8636 128.644 49.8747 128.574 49.8831C128.504 49.8915 128.415 49.8957 128.306 49.8957C128.2 49.8957 128.111 49.8915 128.038 49.8831C127.969 49.8747 127.913 49.8636 127.871 49.8496C127.829 49.8357 127.799 49.8176 127.779 49.7953C127.762 49.773 127.754 49.7479 127.754 49.72V44.6086C127.754 44.5807 127.762 44.5556 127.779 44.5333C127.799 44.511 127.829 44.4929 127.871 44.479C127.913 44.465 127.969 44.4539 128.038 44.4455C128.111 44.4371 128.2 44.433 128.306 44.433C128.415 44.433 128.504 44.4371 128.574 44.4455C128.644 44.4539 128.699 44.465 128.741 44.479C128.783 44.4929 128.812 44.511 128.829 44.5333C128.846 44.5556 128.854 44.5807 128.854 44.6086V46.5954H130.879V44.6086C130.879 44.5807 130.887 44.5556 130.904 44.5333C130.923 44.511 130.952 44.4929 130.992 44.479C131.033 44.465 131.089 44.4539 131.159 44.4455C131.231 44.4371 131.322 44.433 131.431 44.433C131.537 44.433 131.625 44.4371 131.694 44.4455C131.764 44.4539 131.82 44.465 131.862 44.479C131.903 44.4929 131.933 44.511 131.949 44.5333C131.969 44.5556 131.979 44.5807 131.979 44.6086V49.72Z" fill="black"/>
<path d="M136.76 44.9098C136.76 44.9907 136.755 45.0604 136.747 45.1189C136.741 45.1747 136.732 45.2207 136.718 45.257C136.704 45.2904 136.686 45.3155 136.663 45.3323C136.644 45.349 136.622 45.3573 136.596 45.3573H135.241V49.72C135.241 49.7479 135.231 49.773 135.212 49.7953C135.195 49.8176 135.166 49.8357 135.124 49.8496C135.082 49.8636 135.025 49.8747 134.953 49.8831C134.883 49.8915 134.795 49.8957 134.689 49.8957C134.583 49.8957 134.494 49.8915 134.421 49.8831C134.352 49.8747 134.296 49.8636 134.254 49.8496C134.212 49.8357 134.182 49.8176 134.162 49.7953C134.145 49.773 134.137 49.7479 134.137 49.72V45.3573H132.782C132.754 45.3573 132.73 45.349 132.711 45.3323C132.691 45.3155 132.674 45.2904 132.66 45.257C132.646 45.2207 132.635 45.1747 132.627 45.1189C132.621 45.0604 132.619 44.9907 132.619 44.9098C132.619 44.8261 132.621 44.755 132.627 44.6965C132.635 44.6379 132.646 44.5919 132.66 44.5584C132.674 44.5222 132.691 44.4971 132.711 44.4831C132.73 44.4664 132.754 44.458 132.782 44.458H136.596C136.622 44.458 136.644 44.4664 136.663 44.4831C136.686 44.4971 136.704 44.5222 136.718 44.5584C136.732 44.5919 136.741 44.6379 136.747 44.6965C136.755 44.755 136.76 44.8261 136.76 44.9098Z" fill="black"/>
<path d="M141.105 46.1019C141.105 46.4058 141.058 46.6749 140.963 46.9092C140.868 47.1434 140.73 47.3414 140.549 47.5031C140.368 47.6621 140.145 47.7834 139.88 47.867C139.618 47.9507 139.308 47.9925 138.951 47.9925H138.5V49.72C138.5 49.7479 138.49 49.773 138.47 49.7953C138.454 49.8176 138.424 49.8357 138.382 49.8496C138.341 49.8636 138.285 49.8747 138.215 49.8831C138.145 49.8915 138.056 49.8957 137.947 49.8957C137.842 49.8957 137.752 49.8915 137.68 49.8831C137.61 49.8747 137.554 49.8636 137.512 49.8496C137.471 49.8357 137.441 49.8176 137.425 49.7953C137.408 49.773 137.4 49.7479 137.4 49.72V44.8512C137.4 44.7202 137.433 44.6226 137.5 44.5584C137.57 44.4915 137.66 44.458 137.772 44.458H139.048C139.176 44.458 139.297 44.4636 139.411 44.4748C139.529 44.4831 139.668 44.5041 139.83 44.5375C139.991 44.5682 140.155 44.6268 140.319 44.7132C140.486 44.7996 140.629 44.9098 140.746 45.0436C140.863 45.1747 140.952 45.3295 141.013 45.5079C141.075 45.6836 141.105 45.8816 141.105 46.1019ZM139.955 46.1814C139.955 45.9917 139.922 45.8356 139.855 45.7129C139.788 45.5902 139.706 45.4996 139.608 45.441C139.51 45.3824 139.407 45.3462 139.299 45.3323C139.193 45.3155 139.082 45.3072 138.968 45.3072H138.5V47.1434H138.993C139.169 47.1434 139.315 47.1197 139.432 47.0723C139.552 47.0249 139.65 46.9594 139.725 46.8757C139.8 46.7893 139.858 46.6875 139.897 46.5704C139.936 46.4504 139.955 46.3208 139.955 46.1814Z" fill="black"/>
<path fill-rule="evenodd" clip-rule="evenodd" d="M23.4043 37.3276C23.4043 36.6343 23.9624 36.0762 24.6557 36.0762H100.993C101.686 36.0762 102.244 36.6343 102.244 37.3276V52.3447C102.244 53.038 101.686 53.5962 100.993 53.5962H24.6557C23.9624 53.5962 23.4043 53.038 23.4043 52.3447V37.3276ZM28.7219 38.1203L30.7907 38.0548L35.6064 43.8452L39.8793 43.8249C40.4322 43.8219 40.8919 44.2788 40.8934 44.8316C40.8963 45.383 40.4438 45.8413 39.891 45.8457H39.8793L35.6064 45.8268L30.7907 51.6172L28.7219 51.5517L32.1365 45.8108L30.3426 45.8035L29.3125 47.0416L27.4619 47.2118L28.7626 44.836L27.4619 42.4616L29.3125 42.6304L30.3426 43.8685L32.1365 43.8612L28.7219 38.1203Z" fill="#0D69E1"/>
<path d="M49.9598 45.6512C49.9598 45.9286 49.9125 46.1823 49.8179 46.4124C49.7233 46.6426 49.5799 46.8427 49.3876 47.0129C49.1985 47.18 48.9574 47.3108 48.6642 47.4054C48.371 47.5 47.9912 47.5473 47.5247 47.5473H45.9123C45.7988 47.5473 45.7058 47.5173 45.6333 47.4574C45.564 47.3944 45.5293 47.2888 45.5293 47.1406V41.8212C45.5293 41.6825 45.564 41.5832 45.6333 41.5233C45.7058 41.4603 45.7941 41.4288 45.8981 41.4288H49.3593C49.3908 41.4288 49.4176 41.4366 49.4396 41.4524C49.4649 41.4682 49.4854 41.4965 49.5011 41.5375C49.52 41.5753 49.5326 41.6258 49.5389 41.6888C49.5484 41.7487 49.5531 41.8259 49.5531 41.9205C49.5531 42.0088 49.5484 42.0844 49.5389 42.1475C49.5326 42.2074 49.52 42.2578 49.5011 42.2988C49.4854 42.3366 49.4649 42.365 49.4396 42.3839C49.4176 42.3996 49.3924 42.4075 49.364 42.4075H46.7729V43.9301H47.7895C48.1835 43.9301 48.5082 43.9679 48.7635 44.0435C49.0188 44.1192 49.2348 44.2311 49.4113 44.3793C49.5878 44.5274 49.7233 44.7087 49.8179 44.923C49.9125 45.1374 49.9598 45.3801 49.9598 45.6512ZM48.6973 45.7316C48.6973 45.596 48.6752 45.4747 48.6311 45.3675C48.587 45.2572 48.5223 45.1642 48.4372 45.0885C48.3521 45.0097 48.2418 44.9498 48.1063 44.9088C47.9739 44.8679 47.7958 44.8474 47.5719 44.8474H46.7729V46.611H47.5861C47.7879 46.611 47.9534 46.5921 48.0826 46.5543C48.215 46.5165 48.3253 46.4597 48.4136 46.3841C48.5019 46.3084 48.5712 46.2154 48.6216 46.1051C48.6721 45.9948 48.6973 45.8703 48.6973 45.7316Z" fill="white"/>
<path d="M56.4092 44.4171C56.4092 44.9246 56.3462 45.3785 56.2201 45.7788C56.094 46.1792 55.9065 46.5196 55.6574 46.8002C55.4084 47.0776 55.0995 47.2903 54.7307 47.4385C54.365 47.5835 53.941 47.656 53.4587 47.656C52.9828 47.656 52.5667 47.5945 52.2105 47.4716C51.8574 47.3455 51.5627 47.1548 51.3263 46.8995C51.0898 46.6441 50.9117 46.3195 50.792 45.9254C50.6753 45.5314 50.617 45.0649 50.617 44.5258C50.617 44.0309 50.6801 43.5865 50.8061 43.1924C50.9322 42.7953 51.1198 42.458 51.3688 42.1806C51.6178 41.9032 51.9252 41.6904 52.2908 41.5422C52.6597 41.3941 53.0868 41.32 53.5722 41.32C54.0356 41.32 54.4438 41.3815 54.7969 41.5044C55.1531 41.6274 55.4494 41.8165 55.6858 42.0718C55.9254 42.3271 56.1051 42.6503 56.2248 43.0411C56.3478 43.4289 56.4092 43.8875 56.4092 44.4171ZM55.1042 44.4833C55.1042 44.1618 55.079 43.8702 55.0286 43.6085C54.9781 43.3437 54.8914 43.1184 54.7685 42.9324C54.6487 42.7432 54.488 42.5982 54.2862 42.4974C54.0845 42.3933 53.8323 42.3413 53.5297 42.3413C53.2239 42.3413 52.9686 42.3996 52.7637 42.5163C52.5588 42.6298 52.3933 42.7826 52.2672 42.9749C52.1411 43.1672 52.0513 43.3926 51.9977 43.6511C51.9473 43.9064 51.922 44.1775 51.922 44.4644C51.922 44.7985 51.9473 45.0995 51.9977 45.3675C52.0481 45.6323 52.1332 45.8592 52.253 46.0484C52.3728 46.2375 52.5336 46.3825 52.7353 46.4834C52.9371 46.5811 53.1908 46.63 53.4966 46.63C53.8023 46.63 54.0577 46.5732 54.2626 46.4597C54.4675 46.3463 54.633 46.1918 54.759 45.9964C54.8851 45.8009 54.9734 45.574 55.0238 45.3155C55.0774 45.0538 55.1042 44.7764 55.1042 44.4833Z" fill="white"/>
<path d="M61.6483 43.287C61.6483 43.6306 61.5947 43.9348 61.4875 44.1996C61.3803 44.4644 61.2243 44.6882 61.0194 44.871C60.8145 45.0507 60.5623 45.1878 60.2629 45.2824C59.9665 45.3769 59.6166 45.4242 59.2132 45.4242H58.7025V47.377C58.7025 47.4086 58.6915 47.4369 58.6694 47.4621C58.6505 47.4874 58.6174 47.5079 58.5701 47.5236C58.5228 47.5394 58.4598 47.552 58.381 47.5614C58.3022 47.5709 58.2013 47.5756 58.0784 47.5756C57.9586 47.5756 57.8577 47.5709 57.7757 47.5614C57.6969 47.552 57.6339 47.5394 57.5866 47.5236C57.5393 47.5079 57.5062 47.4874 57.4873 47.4621C57.4684 47.4369 57.4589 47.4086 57.4589 47.377V41.8732C57.4589 41.7251 57.4968 41.6147 57.5724 41.5422C57.6512 41.4666 57.7537 41.4288 57.8798 41.4288H59.3219C59.4669 41.4288 59.604 41.4351 59.7333 41.4477C59.8657 41.4571 60.0233 41.4808 60.2061 41.5186C60.3889 41.5533 60.5733 41.6195 60.7593 41.7172C60.9485 41.8149 61.1092 41.9394 61.2416 42.0907C61.374 42.2389 61.4749 42.4138 61.5442 42.6156C61.6136 42.8142 61.6483 43.038 61.6483 43.287ZM60.348 43.3768C60.348 43.1625 60.3101 42.986 60.2345 42.8473C60.1588 42.7086 60.0658 42.6061 59.9555 42.5399C59.8452 42.4737 59.7285 42.4327 59.6056 42.417C59.4858 42.3981 59.3613 42.3886 59.2321 42.3886H58.7025V44.4644H59.2604C59.459 44.4644 59.6245 44.4376 59.7569 44.384C59.8925 44.3304 60.0028 44.2563 60.0879 44.1618C60.173 44.064 60.2376 43.949 60.2818 43.8166C60.3259 43.681 60.348 43.5345 60.348 43.3768Z" fill="white"/>
<path d="M67.0859 47.0839C67.1237 47.1974 67.1473 47.2872 67.1568 47.3534C67.1663 47.4196 67.1536 47.47 67.119 47.5047C67.0843 47.5362 67.0228 47.5551 66.9346 47.5614C66.8463 47.5709 66.7249 47.5756 66.5705 47.5756C66.4097 47.5756 66.2836 47.5725 66.1922 47.5662C66.1039 47.563 66.0362 47.5551 65.9889 47.5425C65.9416 47.5268 65.9085 47.5063 65.8896 47.4811C65.8707 47.4558 65.8549 47.4227 65.8423 47.3818L65.4309 46.1524H63.133L62.7452 47.3487C62.7326 47.3928 62.7153 47.4306 62.6932 47.4621C62.6743 47.4905 62.6412 47.5142 62.5939 47.5331C62.5498 47.5488 62.4852 47.5599 62.4001 47.5662C62.3181 47.5725 62.2094 47.5756 62.0738 47.5756C61.9288 47.5756 61.8153 47.5709 61.7334 47.5614C61.6514 47.552 61.5947 47.5299 61.5632 47.4952C61.5316 47.4574 61.5206 47.4054 61.5301 47.3392C61.5395 47.273 61.5632 47.1847 61.601 47.0744L63.4876 41.6463C63.5065 41.5927 63.5286 41.5501 63.5538 41.5186C63.579 41.4839 63.6184 41.4587 63.672 41.4429C63.7287 41.424 63.806 41.413 63.9037 41.4098C64.0014 41.4035 64.1306 41.4004 64.2914 41.4004C64.4774 41.4004 64.6255 41.4035 64.7359 41.4098C64.8462 41.413 64.9313 41.424 64.9912 41.4429C65.0543 41.4587 65.0984 41.4839 65.1236 41.5186C65.152 41.5533 65.1756 41.6006 65.1945 41.6604L67.0859 47.0839ZM64.2772 42.5967H64.2725L63.4072 45.1973H65.1425L64.2772 42.5967Z" fill="white"/>
<path d="M72.6984 47.3865C72.6984 47.418 72.689 47.4464 72.6701 47.4716C72.6511 47.4937 72.618 47.5126 72.5708 47.5283C72.5235 47.5441 72.4589 47.5551 72.3769 47.5614C72.2981 47.5709 72.1988 47.5756 72.079 47.5756C71.9561 47.5756 71.8552 47.5709 71.7764 47.5614C71.6976 47.5551 71.6346 47.5441 71.5873 47.5283C71.54 47.5126 71.5069 47.4937 71.488 47.4716C71.4691 47.4464 71.4596 47.418 71.4596 47.3865V42.4501H70.1451C70.0569 43.1719 69.967 43.8024 69.8756 44.3414C69.7842 44.8805 69.6865 45.3423 69.5824 45.7268C69.4784 46.1114 69.3634 46.4266 69.2373 46.6725C69.1143 46.9184 68.9725 47.1138 68.8117 47.2588C68.6541 47.4007 68.4744 47.4984 68.2727 47.552C68.0741 47.6056 67.8471 47.6324 67.5918 47.6324C67.5445 47.6324 67.5035 47.6261 67.4689 47.6135C67.4342 47.6008 67.4058 47.5772 67.3838 47.5425C67.3648 47.5079 67.3507 47.459 67.3412 47.3959C67.3317 47.3329 67.327 47.2525 67.327 47.1548C67.327 47.0193 67.3302 46.9105 67.3365 46.8285C67.3428 46.7434 67.3538 46.6788 67.3696 46.6347C67.3853 46.5874 67.4058 46.5559 67.431 46.5401C67.4563 46.5244 67.4862 46.5165 67.5209 46.5165C67.6186 46.5165 67.7116 46.4976 67.7999 46.4597C67.8913 46.4188 67.978 46.3399 68.0599 46.2233C68.145 46.1067 68.2254 45.9428 68.3011 45.7316C68.3799 45.5204 68.4555 45.243 68.528 44.8994C68.6037 44.5526 68.6778 44.1318 68.7503 43.6369C68.8259 43.1388 68.9016 42.5478 68.9772 41.8638C68.9961 41.703 69.034 41.5911 69.0907 41.5281C69.1474 41.4619 69.231 41.4288 69.3413 41.4288H72.3438C72.4573 41.4288 72.544 41.4619 72.6039 41.5281C72.6669 41.5911 72.6984 41.6888 72.6984 41.8212V47.3865Z" fill="white"/>
<path d="M79.6775 48.9894C79.6775 49.0209 79.6696 49.0477 79.6538 49.0698C79.6381 49.0918 79.6097 49.1092 79.5687 49.1218C79.5278 49.1376 79.4726 49.1486 79.4032 49.1549C79.3339 49.1644 79.244 49.1691 79.1337 49.1691C79.0265 49.1691 78.9383 49.1644 78.8689 49.1549C78.8027 49.1486 78.7476 49.1376 78.7034 49.1218C78.6625 49.1092 78.6325 49.0918 78.6136 49.0698C78.5978 49.0477 78.59 49.0209 78.59 48.9894V47.5473H74.5188V48.9894C74.5188 49.0209 74.5094 49.0477 74.4905 49.0698C74.4747 49.0918 74.4448 49.1092 74.4006 49.1218C74.3597 49.1376 74.3045 49.1486 74.2351 49.1549C74.1658 49.1644 74.0775 49.1691 73.9704 49.1691C73.8632 49.1691 73.7749 49.1644 73.7056 49.1549C73.6362 49.1486 73.5795 49.1376 73.5353 49.1218C73.4944 49.1092 73.466 49.0918 73.4502 49.0698C73.4345 49.0477 73.4266 49.0209 73.4266 48.9894V46.7907C73.4203 46.6993 73.4361 46.6347 73.4739 46.5969C73.5149 46.5559 73.5748 46.5354 73.6536 46.5354H73.9373C74.0129 46.4282 74.0838 46.3179 74.15 46.2044C74.2194 46.0909 74.2856 45.9569 74.3486 45.8025C74.4117 45.6449 74.4731 45.4589 74.533 45.2445C74.5961 45.027 74.6575 44.7623 74.7174 44.4502C74.7773 44.1381 74.8372 43.7693 74.8971 43.3437C74.9602 42.915 75.0248 42.4123 75.091 41.8354C75.1099 41.6935 75.1461 41.5911 75.1997 41.5281C75.2533 41.4619 75.3353 41.4288 75.4456 41.4288H78.571C78.6814 41.4288 78.7681 41.4619 78.8311 41.5281C78.8941 41.5911 78.9257 41.6888 78.9257 41.8212V46.5354H79.4458C79.5309 46.5354 79.5908 46.559 79.6255 46.6063C79.6601 46.6504 79.6775 46.7135 79.6775 46.7954V48.9894ZM77.6868 42.4312H76.2589C76.2021 42.9103 76.1454 43.3327 76.0887 43.6984C76.0351 44.0609 75.9799 44.3793 75.9232 44.6535C75.8696 44.9277 75.8144 45.1642 75.7577 45.3628C75.7009 45.5613 75.6426 45.7331 75.5827 45.8781C75.526 46.0231 75.4661 46.1477 75.403 46.2517C75.34 46.3557 75.2754 46.4503 75.2092 46.5354H77.6868V42.4312Z" fill="white"/>
<path d="M85.5643 47.0839C85.6021 47.1974 85.6258 47.2872 85.6352 47.3534C85.6447 47.4196 85.6321 47.47 85.5974 47.5047C85.5627 47.5362 85.5012 47.5551 85.413 47.5614C85.3247 47.5709 85.2034 47.5756 85.0489 47.5756C84.8881 47.5756 84.762 47.5725 84.6706 47.5662C84.5824 47.563 84.5146 47.5551 84.4673 47.5425C84.42 47.5268 84.3869 47.5063 84.368 47.4811C84.3491 47.4558 84.3333 47.4227 84.3207 47.3818L83.9094 46.1524H81.6114L81.2237 47.3487C81.211 47.3928 81.1937 47.4306 81.1716 47.4621C81.1527 47.4905 81.1196 47.5142 81.0723 47.5331C81.0282 47.5488 80.9636 47.5599 80.8785 47.5662C80.7965 47.5725 80.6878 47.5756 80.5522 47.5756C80.4072 47.5756 80.2937 47.5709 80.2118 47.5614C80.1298 47.552 80.0731 47.5299 80.0416 47.4952C80.01 47.4574 79.999 47.4054 80.0085 47.3392C80.0179 47.273 80.0416 47.1847 80.0794 47.0744L81.966 41.6463C81.9849 41.5927 82.007 41.5501 82.0322 41.5186C82.0574 41.4839 82.0968 41.4587 82.1504 41.4429C82.2072 41.424 82.2844 41.413 82.3821 41.4098C82.4798 41.4035 82.6091 41.4004 82.7698 41.4004C82.9558 41.4004 83.104 41.4035 83.2143 41.4098C83.3246 41.413 83.4097 41.424 83.4696 41.4429C83.5327 41.4587 83.5768 41.4839 83.602 41.5186C83.6304 41.5533 83.654 41.6006 83.6729 41.6604L85.5643 47.0839ZM82.7556 42.5967H82.7509L81.8856 45.1973H83.6209L82.7556 42.5967Z" fill="white"/>
<path d="M91.4038 47.3865C91.4038 47.418 91.3928 47.4464 91.3707 47.4716C91.3518 47.4937 91.3187 47.5126 91.2714 47.5283C91.2241 47.5441 91.1595 47.5551 91.0775 47.5614C90.9987 47.5709 90.8994 47.5756 90.7797 47.5756C90.6599 47.5756 90.559 47.5709 90.477 47.5614C90.3982 47.5551 90.3352 47.5441 90.2879 47.5283C90.2438 47.5126 90.2123 47.4937 90.1933 47.4716C90.1744 47.4464 90.165 47.418 90.165 47.3865V44.1618C90.165 44.0388 90.1666 43.919 90.1697 43.8024C90.1729 43.6826 90.1776 43.577 90.1839 43.4856H90.1744C90.1492 43.5297 90.1193 43.5817 90.0846 43.6416C90.0499 43.6984 90.0121 43.7598 89.9711 43.826C89.9333 43.8891 89.8923 43.9553 89.8482 44.0246C89.804 44.0908 89.7599 44.1554 89.7158 44.2185L87.588 47.3912C87.5628 47.4259 87.536 47.4558 87.5076 47.4811C87.4824 47.5063 87.4477 47.5268 87.4036 47.5425C87.3626 47.5551 87.3106 47.563 87.2476 47.5662C87.1877 47.5725 87.1089 47.5756 87.0112 47.5756C86.8882 47.5756 86.7889 47.5709 86.7133 47.5614C86.6376 47.5551 86.5777 47.5441 86.5336 47.5283C86.4926 47.5126 86.4642 47.4921 86.4485 47.4669C86.4327 47.4417 86.4248 47.4117 86.4248 47.377V41.5895C86.4248 41.558 86.4343 41.5312 86.4532 41.5091C86.4753 41.4839 86.51 41.4634 86.5572 41.4477C86.6077 41.4319 86.6723 41.4209 86.7511 41.4146C86.8299 41.4051 86.9292 41.4004 87.049 41.4004C87.1719 41.4004 87.2728 41.4051 87.3516 41.4146C87.4304 41.4209 87.4935 41.4319 87.5407 41.4477C87.588 41.4634 87.6211 41.4839 87.64 41.5091C87.6589 41.5312 87.6684 41.558 87.6684 41.5895V44.8332C87.6684 44.934 87.6668 45.0412 87.6637 45.1547C87.6605 45.2682 87.6558 45.3785 87.6495 45.4857H87.6589C87.7125 45.3911 87.7803 45.2776 87.8623 45.1452C87.9442 45.0129 88.0293 44.8836 88.1176 44.7575L90.2454 41.5848C90.2674 41.5533 90.2911 41.5265 90.3163 41.5044C90.3415 41.4792 90.3746 41.4587 90.4156 41.4429C90.4597 41.4272 90.5133 41.4162 90.5763 41.4098C90.6394 41.4035 90.7198 41.4004 90.8175 41.4004C90.9373 41.4004 91.0334 41.4051 91.1059 41.4146C91.1816 41.4209 91.2415 41.4319 91.2856 41.4477C91.3297 41.4634 91.3597 41.4839 91.3754 41.5091C91.3943 41.5312 91.4038 41.5596 91.4038 41.5943V47.3865ZM90.6804 39.788C90.6804 39.9614 90.6504 40.1285 90.5905 40.2892C90.5306 40.4468 90.4329 40.5871 90.2974 40.7101C90.165 40.8298 89.9884 40.926 89.7678 40.9985C89.5503 41.071 89.2823 41.1072 88.964 41.1072C88.6551 41.1072 88.3918 41.0741 88.1743 41.0079C87.9568 40.9417 87.7787 40.8519 87.64 40.7384C87.5045 40.6218 87.4052 40.4831 87.3421 40.3223C87.2791 40.1584 87.2476 39.9803 87.2476 39.788C87.2476 39.7407 87.2555 39.7029 87.2712 39.6745C87.2901 39.643 87.3201 39.6178 87.3611 39.5989C87.402 39.58 87.4572 39.5674 87.5266 39.5611C87.5991 39.5516 87.6889 39.5469 87.7961 39.5469C87.8969 39.5469 87.9805 39.5516 88.0467 39.5611C88.1129 39.5705 88.1633 39.5847 88.198 39.6036C88.2327 39.6225 88.2563 39.6477 88.2689 39.6793C88.2847 39.7076 88.2925 39.7423 88.2925 39.7833C88.2925 39.8589 88.3067 39.9299 88.3351 39.9961C88.3666 40.0623 88.4108 40.1206 88.4675 40.171C88.5274 40.2183 88.5999 40.2577 88.685 40.2892C88.7701 40.3207 88.8647 40.3365 88.9687 40.3365C89.0696 40.3365 89.161 40.3223 89.2429 40.294C89.3249 40.2624 89.3943 40.223 89.451 40.1757C89.5109 40.1253 89.555 40.067 89.5834 40.0008C89.6149 39.9314 89.6307 39.8558 89.6307 39.7738C89.6307 39.736 89.637 39.7029 89.6496 39.6745C89.6622 39.6462 89.6858 39.6225 89.7205 39.6036C89.7583 39.5847 89.8072 39.5705 89.8671 39.5611C89.9301 39.5516 90.0089 39.5469 90.1035 39.5469C90.217 39.5469 90.31 39.5516 90.3825 39.5611C90.4581 39.5674 90.518 39.58 90.5622 39.5989C90.6063 39.6178 90.6362 39.643 90.652 39.6745C90.6709 39.7029 90.6804 39.7407 90.6804 39.788Z" fill="white"/>
<path d="M18.8156 1.61914C17.2904 1.61914 16.0625 2.84704 16.0625 4.37228V80.2923C16.0625 81.8175 17.2904 83.0454 18.8156 83.0454H157.307C158.832 83.0454 160.06 81.8175 160.06 80.2923V4.37228C160.06 2.84704 158.832 1.61914 157.307 1.61914H18.8156ZM18.8156 2.11971H157.307C158.555 2.11971 159.56 3.12436 159.56 4.37228V80.2923C159.56 81.5402 158.555 82.5448 157.307 82.5448H111.38V69.7803C111.38 67.2921 113.397 65.2751 115.885 65.2751H129.776V69.2797L140.614 63.0226L129.776 56.7654V60.77H115.885C114.243 60.77 112.705 61.2101 111.38 61.9771V31.4813H115.384L109.127 20.6461L102.87 31.4813H106.874V61.9771C105.549 61.2101 104.011 60.77 102.369 60.77H45.9299V56.7654L35.092 63.0226L45.9299 69.2797V65.2751H102.369C104.857 65.2751 106.874 67.2921 106.874 69.7803V82.5448H18.8156C17.5677 82.5448 16.5631 81.5402 16.5631 80.2923V4.37228C16.5631 3.12436 17.5677 2.11971 18.8156 2.11971Z" fill="black"/>
<path d="M157.307 0.701172H18.8154C16.788 0.701172 15.1445 2.34467 15.1445 4.37203V80.292C15.1445 82.3194 16.788 83.9629 18.8154 83.9629H157.307C159.334 83.9629 160.978 82.3194 160.978 80.292V4.37203C160.978 2.34467 159.334 0.701172 157.307 0.701172Z" stroke="black" stroke-width="2"/>
</g>
<defs>
<clipPath id="clip0_355_31298">
<rect width="146" height="83.4286" fill="white" transform="translate(15.0625 0.619141)"/>
</clipPath>
</defs>
</svg>
