<svg width="193" height="99" viewBox="0 0 193 99" fill="none" xmlns="http://www.w3.org/2000/svg">
<rect x="13.4941" y="5.17383" width="3.6" height="79.44" fill="#AEAEAE"/>
<path d="M12.7734 84.4141C12.7734 83.8618 13.2212 83.4141 13.7734 83.4141H16.8134C17.3657 83.4141 17.8134 83.8618 17.8134 84.4141V98.7748H12.7734V84.4141Z" fill="#9F9B9B"/>
<rect x="48.4941" y="5.17383" width="3.6" height="79.44" fill="#AEAEAE"/>
<path d="M47.7734 84.4141C47.7734 83.8618 48.2212 83.4141 48.7734 83.4141H51.8134C52.3657 83.4141 52.8134 83.8618 52.8134 84.4141V98.7748H47.7734V84.4141Z" fill="#9F9B9B"/>
<path d="M3.61725 1.74219C2.1673 1.74219 1 3.86961 1 6.51219V28.7722C1 31.4148 2.1673 33.5422 3.61725 33.5422H68.4761L83.5889 17.6422L68.4761 1.74219H3.61725Z" fill="white"/>
<path d="M3.61769 1.84766C2.19995 1.84766 1.05859 3.9278 1.05859 6.51166V28.7717C1.05859 31.3555 2.19995 33.4357 3.61769 33.4357H68.4602L83.4712 17.6417L68.4602 1.84766H3.61769Z" stroke="black" stroke-width="2"/>
<path fill-rule="evenodd" clip-rule="evenodd" d="M1.52344 6.51327C1.52344 4.3992 2.45727 2.69727 3.61724 2.69727H68.1616L76.3624 17.6433L68.1616 32.5893H3.61724C2.45727 32.5893 1.52344 30.8873 1.52344 28.7733V6.51327Z" fill="#0D69E1"/>
<path d="M19.2818 15.045C19.325 15.1746 19.352 15.2772 19.3628 15.3528C19.3736 15.4285 19.3592 15.4861 19.3196 15.5257C19.28 15.5617 19.2098 15.5833 19.109 15.5905C19.0081 15.6013 18.8695 15.6067 18.6931 15.6067C18.5094 15.6067 18.3654 15.6031 18.261 15.5959C18.1601 15.5923 18.0827 15.5833 18.0287 15.5689C17.9747 15.5509 17.9369 15.5275 17.9153 15.4987C17.8937 15.4699 17.8757 15.4321 17.8613 15.3853L17.3914 13.9809H14.7664L14.3235 15.3474C14.3091 15.3979 14.2893 15.4411 14.2641 15.4771C14.2425 15.5095 14.2047 15.5365 14.1507 15.5581C14.1002 15.5761 14.0264 15.5887 13.9292 15.5959C13.8356 15.6031 13.7114 15.6067 13.5565 15.6067C13.3909 15.6067 13.2613 15.6013 13.1676 15.5905C13.074 15.5797 13.0092 15.5545 12.9732 15.5149C12.9372 15.4717 12.9246 15.4123 12.9354 15.3366C12.9462 15.261 12.9732 15.1602 13.0164 15.0342L15.1715 8.8336C15.1931 8.77238 15.2183 8.72377 15.2471 8.68776C15.2759 8.64816 15.3209 8.61935 15.3821 8.60135C15.4469 8.57974 15.5352 8.56714 15.6468 8.56354C15.7584 8.55634 15.906 8.55273 16.0897 8.55273C16.3021 8.55273 16.4714 8.55634 16.5974 8.56354C16.7234 8.56714 16.8206 8.57974 16.8891 8.60135C16.9611 8.61935 17.0115 8.64816 17.0403 8.68776C17.0727 8.72737 17.0997 8.78139 17.1213 8.8498L19.2818 15.045ZM16.0735 9.91924H16.0681L15.0797 12.8899H17.0619L16.0735 9.91924Z" fill="white"/>
<path d="M26.1355 15.3907C26.1355 15.4267 26.1247 15.4591 26.1031 15.4879C26.0815 15.5131 26.0437 15.5347 25.9897 15.5527C25.9356 15.5707 25.8618 15.5833 25.7682 15.5905C25.6782 15.6013 25.5648 15.6067 25.4279 15.6067C25.2875 15.6067 25.1723 15.6013 25.0823 15.5905C24.9922 15.5833 24.9202 15.5707 24.8662 15.5527C24.8122 15.5347 24.7744 15.5131 24.7528 15.4879C24.7312 15.4591 24.7204 15.4267 24.7204 15.3907V9.7518H23.2188C23.118 10.5764 23.0154 11.2965 22.911 11.9123C22.8065 12.528 22.6949 13.0555 22.5761 13.4948C22.4573 13.9341 22.3258 14.2942 22.1818 14.5751C22.0414 14.8559 21.8793 15.0792 21.6957 15.2448C21.5157 15.4069 21.3104 15.5185 21.08 15.5797C20.8531 15.6409 20.5939 15.6715 20.3022 15.6715C20.2482 15.6715 20.2014 15.6643 20.1618 15.6499C20.1221 15.6355 20.0897 15.6085 20.0645 15.5689C20.0429 15.5293 20.0267 15.4735 20.0159 15.4015C20.0051 15.3294 19.9997 15.2376 19.9997 15.126C19.9997 14.9712 20.0033 14.8469 20.0105 14.7533C20.0177 14.6561 20.0303 14.5823 20.0483 14.5319C20.0663 14.4779 20.0897 14.4418 20.1185 14.4238C20.1474 14.4058 20.1816 14.3968 20.2212 14.3968C20.3328 14.3968 20.439 14.3752 20.5398 14.332C20.6443 14.2852 20.7433 14.1952 20.8369 14.062C20.9341 13.9287 21.026 13.7415 21.1124 13.5002C21.2024 13.259 21.2888 12.9421 21.3716 12.5496C21.458 12.1535 21.5427 11.6728 21.6255 11.1075C21.7119 10.5386 21.7983 9.86343 21.8847 9.08205C21.9063 8.89841 21.9496 8.77058 22.0144 8.69857C22.0792 8.62295 22.1746 8.58514 22.3006 8.58514H25.7304C25.86 8.58514 25.9591 8.62295 26.0275 8.69857C26.0995 8.77058 26.1355 8.88221 26.1355 9.03344V15.3907Z" fill="white"/>
<path d="M32.5619 8.66352V9.86371H29.6776V11.5575H31.5746V12.7577H29.6776V15.5743H28.216V12.7577H27.5675V11.5575H28.216V8.66352H32.5619Z" fill="white"/>
<path d="M39.6255 15.045C39.6687 15.1746 39.6958 15.2772 39.7066 15.3528C39.7174 15.4285 39.703 15.4861 39.6633 15.5257C39.6237 15.5617 39.5535 15.5833 39.4527 15.5905C39.3519 15.6013 39.2132 15.6067 39.0368 15.6067C38.8532 15.6067 38.7091 15.6031 38.6047 15.5959C38.5039 15.5923 38.4265 15.5833 38.3725 15.5689C38.3184 15.5509 38.2806 15.5275 38.259 15.4987C38.2374 15.4699 38.2194 15.4321 38.205 15.3853L37.7351 13.9809H35.1101L34.6672 15.3474C34.6528 15.3979 34.633 15.4411 34.6078 15.4771C34.5862 15.5095 34.5484 15.5365 34.4944 15.5581C34.444 15.5761 34.3702 15.5887 34.2729 15.5959C34.1793 15.6031 34.0551 15.6067 33.9003 15.6067C33.7346 15.6067 33.605 15.6013 33.5114 15.5905C33.4178 15.5797 33.3529 15.5545 33.3169 15.5149C33.2809 15.4717 33.2683 15.4123 33.2791 15.3366C33.2899 15.261 33.3169 15.1602 33.3601 15.0342L35.5152 8.8336C35.5368 8.77238 35.562 8.72377 35.5908 8.68776C35.6196 8.64816 35.6647 8.61935 35.7259 8.60135C35.7907 8.57974 35.8789 8.56714 35.9905 8.56354C36.1021 8.55634 36.2498 8.55273 36.4334 8.55273C36.6459 8.55273 36.8151 8.55634 36.9411 8.56354C37.0672 8.56714 37.1644 8.57974 37.2328 8.60135C37.3048 8.61935 37.3552 8.64816 37.384 8.68776C37.4164 8.72737 37.4434 8.78139 37.4651 8.8498L39.6255 15.045ZM36.4172 9.91924H36.4118L35.4234 12.8899H37.4056L36.4172 9.91924Z" fill="white"/>
<path d="M19.2818 26.1066C19.325 26.2363 19.352 26.3389 19.3628 26.4145C19.3736 26.4901 19.3592 26.5477 19.3196 26.5874C19.28 26.6234 19.2098 26.645 19.109 26.6522C19.0081 26.663 18.8695 26.6684 18.6931 26.6684C18.5094 26.6684 18.3654 26.6648 18.261 26.6576C18.1601 26.654 18.0827 26.645 18.0287 26.6306C17.9747 26.6126 17.9369 26.5892 17.9153 26.5603C17.8937 26.5315 17.8757 26.4937 17.8613 26.4469L17.3914 25.0426H14.7664L14.3235 26.4091C14.3091 26.4595 14.2893 26.5027 14.2641 26.5387C14.2425 26.5711 14.2047 26.5982 14.1507 26.6198C14.1002 26.6378 14.0264 26.6504 13.9292 26.6576C13.8356 26.6648 13.7114 26.6684 13.5565 26.6684C13.3909 26.6684 13.2613 26.663 13.1676 26.6522C13.074 26.6414 13.0092 26.6162 12.9732 26.5765C12.9372 26.5333 12.9246 26.4739 12.9354 26.3983C12.9462 26.3227 12.9732 26.2219 13.0164 26.0958L15.1715 19.8953C15.1931 19.834 15.2183 19.7854 15.2471 19.7494C15.2759 19.7098 15.3209 19.681 15.3821 19.663C15.4469 19.6414 15.5352 19.6288 15.6468 19.6252C15.7584 19.618 15.906 19.6144 16.0897 19.6144C16.3021 19.6144 16.4714 19.618 16.5974 19.6252C16.7234 19.6288 16.8206 19.6414 16.8891 19.663C16.9611 19.681 17.0115 19.7098 17.0403 19.7494C17.0727 19.789 17.0997 19.8431 17.1213 19.9115L19.2818 26.1066ZM16.0735 20.9809H16.0681L15.0797 23.9516H17.0619L16.0735 20.9809Z" fill="white"/>
<path d="M26.1355 26.4523C26.1355 26.4883 26.1247 26.5207 26.1031 26.5495C26.0815 26.5747 26.0437 26.5964 25.9897 26.6144C25.9356 26.6324 25.8618 26.645 25.7682 26.6522C25.6782 26.663 25.5648 26.6684 25.4279 26.6684C25.2875 26.6684 25.1723 26.663 25.0823 26.6522C24.9922 26.645 24.9202 26.6324 24.8662 26.6144C24.8122 26.5964 24.7744 26.5747 24.7528 26.5495C24.7312 26.5207 24.7204 26.4883 24.7204 26.4523V20.8135H23.2188C23.118 21.6381 23.0154 22.3582 22.911 22.9739C22.8065 23.5897 22.6949 24.1172 22.5761 24.5565C22.4573 24.9958 22.3258 25.3559 22.1818 25.6367C22.0414 25.9176 21.8793 26.1409 21.6957 26.3065C21.5157 26.4685 21.3104 26.5802 21.08 26.6414C20.8531 26.7026 20.5939 26.7332 20.3022 26.7332C20.2482 26.7332 20.2014 26.726 20.1618 26.7116C20.1221 26.6972 20.0897 26.6702 20.0645 26.6306C20.0429 26.591 20.0267 26.5351 20.0159 26.4631C20.0051 26.3911 19.9997 26.2993 19.9997 26.1877C19.9997 26.0328 20.0033 25.9086 20.0105 25.815C20.0177 25.7178 20.0303 25.6439 20.0483 25.5935C20.0663 25.5395 20.0897 25.5035 20.1185 25.4855C20.1474 25.4675 20.1816 25.4585 20.2212 25.4585C20.3328 25.4585 20.439 25.4369 20.5398 25.3937C20.6443 25.3469 20.7433 25.2569 20.8369 25.1236C20.9341 24.9904 21.026 24.8032 21.1124 24.5619C21.2024 24.3206 21.2888 24.0038 21.3716 23.6113C21.458 23.2152 21.5427 22.7345 21.6255 22.1692C21.7119 21.6002 21.7983 20.9251 21.8847 20.1437C21.9063 19.9601 21.9496 19.8322 22.0144 19.7602C22.0792 19.6846 22.1746 19.6468 22.3006 19.6468H25.7304C25.86 19.6468 25.9591 19.6846 26.0275 19.7602C26.0995 19.8322 26.1355 19.9439 26.1355 20.0951V26.4523Z" fill="white"/>
<path d="M32.0656 20.2355C32.0656 20.3436 32.0602 20.4354 32.0494 20.511C32.0422 20.583 32.0296 20.6424 32.0116 20.6892C31.9936 20.7324 31.9702 20.7649 31.9414 20.7865C31.9161 20.8045 31.8855 20.8135 31.8495 20.8135H29.5324V26.4523C29.5324 26.4883 29.5198 26.5207 29.4946 26.5495C29.473 26.5747 29.4352 26.5964 29.3812 26.6144C29.3272 26.6324 29.2552 26.645 29.1651 26.6522C29.0751 26.663 28.9599 26.6684 28.8195 26.6684C28.6826 26.6684 28.5674 26.663 28.4738 26.6522C28.3838 26.645 28.3117 26.6324 28.2577 26.6144C28.2037 26.5964 28.1641 26.5747 28.1389 26.5495C28.1173 26.5207 28.1065 26.4883 28.1065 26.4523V20.0951C28.1065 19.9439 28.1443 19.8322 28.2199 19.7602C28.2991 19.6846 28.4018 19.6468 28.5278 19.6468H31.8495C31.9215 19.6468 31.9756 19.6918 32.0116 19.7818C32.0476 19.8719 32.0656 20.0231 32.0656 20.2355Z" fill="white"/>
<path d="M38.1955 26.1066C38.2387 26.2363 38.2657 26.3389 38.2765 26.4145C38.2873 26.4901 38.2729 26.5477 38.2333 26.5874C38.1937 26.6234 38.1235 26.645 38.0227 26.6522C37.9219 26.663 37.7832 26.6684 37.6068 26.6684C37.4231 26.6684 37.2791 26.6648 37.1747 26.6576C37.0739 26.654 36.9964 26.645 36.9424 26.6306C36.8884 26.6126 36.8506 26.5892 36.829 26.5603C36.8074 26.5315 36.7894 26.4937 36.775 26.4469L36.3051 25.0426H33.6801L33.2372 26.4091C33.2228 26.4595 33.203 26.5027 33.1778 26.5387C33.1562 26.5711 33.1184 26.5982 33.0644 26.6198C33.014 26.6378 32.9401 26.6504 32.8429 26.6576C32.7493 26.6648 32.6251 26.6684 32.4702 26.6684C32.3046 26.6684 32.175 26.663 32.0814 26.6522C31.9877 26.6414 31.9229 26.6162 31.8869 26.5765C31.8509 26.5333 31.8383 26.4739 31.8491 26.3983C31.8599 26.3227 31.8869 26.2219 31.9301 26.0958L34.0852 19.8953C34.1068 19.834 34.132 19.7854 34.1608 19.7494C34.1896 19.7098 34.2346 19.681 34.2958 19.663C34.3607 19.6414 34.4489 19.6288 34.5605 19.6252C34.6721 19.618 34.8198 19.6144 35.0034 19.6144C35.2159 19.6144 35.3851 19.618 35.5111 19.6252C35.6371 19.6288 35.7344 19.6414 35.8028 19.663C35.8748 19.681 35.9252 19.7098 35.954 19.7494C35.9864 19.789 36.0134 19.8431 36.035 19.9115L38.1955 26.1066ZM34.9872 20.9809H34.9818L33.9934 23.9516H35.9756L34.9872 20.9809Z" fill="white"/>
<path d="M54.7837 20.5601C54.7837 20.661 54.7783 20.7474 54.7675 20.8194C54.7567 20.8878 54.7405 20.9436 54.7189 20.9868C54.7009 21.0264 54.6793 21.0553 54.6541 21.0733C54.6289 21.0913 54.6001 21.1003 54.5677 21.1003H50.7112C50.6824 21.1003 50.6554 21.0913 50.6302 21.0733C50.605 21.0553 50.5816 21.0264 50.56 20.9868C50.542 20.9436 50.5276 20.8878 50.5168 20.8194C50.506 20.7474 50.5006 20.661 50.5006 20.5601C50.5006 20.4557 50.5042 20.3693 50.5114 20.3009C50.5222 20.2289 50.5366 20.1713 50.5546 20.1281C50.5762 20.0848 50.5996 20.0542 50.6248 20.0362C50.65 20.0146 50.6788 20.0038 50.7112 20.0038H52.0129V15.456L50.8895 16.0771C50.8066 16.1168 50.7382 16.142 50.6842 16.1528C50.6338 16.16 50.5924 16.1492 50.56 16.1204C50.5312 16.088 50.5114 16.0339 50.5006 15.9583C50.4898 15.8827 50.4844 15.7765 50.4844 15.6397C50.4844 15.5532 50.4862 15.483 50.4898 15.429C50.4934 15.3714 50.5024 15.3228 50.5168 15.2832C50.5312 15.2436 50.551 15.2112 50.5762 15.186C50.6014 15.1607 50.6356 15.1337 50.6788 15.1049L52.1804 14.1327C52.1984 14.1183 52.22 14.1075 52.2452 14.1003C52.274 14.0895 52.31 14.0823 52.3532 14.0787C52.3964 14.0715 52.4522 14.0679 52.5206 14.0679C52.5926 14.0643 52.6845 14.0625 52.7961 14.0625C52.9329 14.0625 53.0427 14.0661 53.1256 14.0733C53.212 14.0769 53.2768 14.0859 53.32 14.1003C53.3632 14.1111 53.392 14.1273 53.4064 14.1489C53.4208 14.1705 53.428 14.1975 53.428 14.2299V20.0038H54.5677C54.6001 20.0038 54.6289 20.0146 54.6541 20.0362C54.6829 20.0542 54.7063 20.0848 54.7243 20.1281C54.7459 20.1713 54.7603 20.2289 54.7675 20.3009C54.7783 20.3693 54.7837 20.4557 54.7837 20.5601Z" fill="white"/>
<path d="M60.8326 18.8318C60.8326 19.2098 60.766 19.5483 60.6328 19.8472C60.5032 20.1425 60.3177 20.3927 60.0765 20.598C59.8388 20.7996 59.5508 20.9544 59.2123 21.0625C58.8774 21.1705 58.5047 21.2245 58.0942 21.2245C57.8782 21.2245 57.6729 21.2101 57.4785 21.1813C57.2841 21.1561 57.1094 21.1237 56.9546 21.0841C56.7998 21.0409 56.6719 20.9994 56.5711 20.9598C56.4739 20.9166 56.4091 20.8824 56.3767 20.8572C56.3478 20.8284 56.3262 20.7978 56.3118 20.7654C56.2974 20.733 56.2848 20.6952 56.274 20.652C56.2668 20.6052 56.2614 20.5475 56.2578 20.4791C56.2542 20.4107 56.2524 20.3297 56.2524 20.2361C56.2524 20.1353 56.256 20.0506 56.2632 19.9822C56.2704 19.9102 56.2812 19.8526 56.2956 19.8094C56.3136 19.7662 56.3334 19.7356 56.3551 19.7176C56.3767 19.6996 56.4019 19.6906 56.4307 19.6906C56.4667 19.6906 56.5207 19.7122 56.5927 19.7554C56.6683 19.795 56.7655 19.84 56.8844 19.8904C57.0068 19.9408 57.1544 19.9876 57.3273 20.0308C57.5001 20.0704 57.7072 20.0902 57.9484 20.0902C58.1573 20.0902 58.3463 20.0686 58.5155 20.0254C58.6884 19.9822 58.8342 19.9138 58.953 19.8202C59.0719 19.723 59.1637 19.6023 59.2285 19.4583C59.2933 19.3143 59.3257 19.1414 59.3257 18.9398C59.3257 18.7669 59.2987 18.6139 59.2447 18.4807C59.1907 18.3439 59.1061 18.2286 58.9908 18.135C58.8756 18.0414 58.7262 17.9712 58.5425 17.9244C58.3589 17.8775 58.1356 17.8541 57.8728 17.8541C57.6639 17.8541 57.4731 17.8649 57.3003 17.8866C57.131 17.9082 56.9708 17.919 56.8196 17.919C56.7151 17.919 56.6395 17.8938 56.5927 17.8433C56.5495 17.7893 56.5279 17.6921 56.5279 17.5517V14.5162C56.5279 14.3722 56.5549 14.2695 56.6089 14.2083C56.6665 14.1435 56.7565 14.1111 56.879 14.1111H60.1899C60.2223 14.1111 60.2529 14.1219 60.2817 14.1435C60.3105 14.1651 60.3339 14.1993 60.3519 14.2461C60.3735 14.293 60.3879 14.356 60.3952 14.4352C60.406 14.5108 60.4114 14.6026 60.4114 14.7106C60.4114 14.9267 60.3916 15.0833 60.3519 15.1805C60.3159 15.2778 60.2619 15.3264 60.1899 15.3264H57.7054V16.8225C57.8314 16.8081 57.9556 16.7991 58.078 16.7955C58.2041 16.7919 58.3355 16.7901 58.4723 16.7901C58.8504 16.7901 59.1853 16.8351 59.4769 16.9251C59.7722 17.0116 60.0189 17.1412 60.2169 17.314C60.4186 17.4833 60.5716 17.6957 60.676 17.9514C60.7804 18.2034 60.8326 18.4969 60.8326 18.8318Z" fill="white"/>
<path d="M7.20963 2.09375C3.89176 2.09375 1.2207 4.13217 1.2207 6.66419V27.9929C1.2207 30.525 3.89176 32.5634 7.20963 32.5634H155.623L190.205 17.3286L155.623 2.09375H7.20963Z" fill="white"/>
<path d="M7.20936 2.19531C3.96522 2.19531 1.35352 4.18843 1.35352 6.66419V27.9929C1.35352 30.4687 3.96522 32.4618 7.20936 32.4618H155.585L189.934 17.3286L155.585 2.19531H7.20936Z" stroke="black" stroke-width="2"/>
<path fill-rule="evenodd" clip-rule="evenodd" d="M2.41797 6.66417C2.41797 4.63855 4.55482 3.00781 7.20911 3.00781H154.903L173.668 17.3285L154.903 31.6493H7.20911C4.55482 31.6493 2.41797 30.0185 2.41797 27.9929V6.66417Z" fill="#6E5C31"/>
<path d="M32.4727 15.2308C32.4727 15.3085 32.4696 15.3754 32.4633 15.4315C32.4602 15.4844 32.454 15.531 32.4447 15.5715C32.4353 15.6088 32.4229 15.6415 32.4073 15.6695C32.3918 15.6975 32.3669 15.7302 32.3326 15.7675C32.2984 15.8017 32.2315 15.8469 32.1319 15.9029C32.0355 15.9589 31.9157 16.0133 31.7725 16.0662C31.6325 16.116 31.4707 16.158 31.2871 16.1923C31.1066 16.2265 30.9106 16.2436 30.699 16.2436C30.2852 16.2436 29.9118 16.1798 29.5788 16.0522C29.2459 15.9247 28.9627 15.7348 28.7293 15.4828C28.4959 15.2276 28.317 14.9103 28.1926 14.5306C28.0681 14.151 28.0059 13.7091 28.0059 13.2051C28.0059 12.6916 28.0743 12.2358 28.2112 11.8375C28.3481 11.4392 28.5395 11.1047 28.7853 10.834C29.0312 10.5632 29.3252 10.3579 29.6675 10.2179C30.0129 10.0778 30.3925 10.0078 30.8064 10.0078C30.9744 10.0078 31.1362 10.0218 31.2918 10.0498C31.4474 10.0778 31.5905 10.1152 31.7212 10.1618C31.855 10.2054 31.9748 10.2567 32.0806 10.3159C32.1864 10.375 32.2595 10.4263 32.3 10.4699C32.3435 10.5103 32.3731 10.5446 32.3887 10.5726C32.4042 10.6006 32.4167 10.6364 32.426 10.6799C32.4353 10.7235 32.4415 10.7748 32.4447 10.834C32.4509 10.8931 32.454 10.9662 32.454 11.0533C32.454 11.1467 32.4509 11.226 32.4447 11.2914C32.4384 11.3567 32.4275 11.4096 32.412 11.4501C32.3964 11.4905 32.3778 11.5201 32.356 11.5388C32.3342 11.5574 32.3093 11.5668 32.2813 11.5668C32.2346 11.5668 32.1755 11.5403 32.1039 11.4874C32.0324 11.4314 31.939 11.3707 31.8239 11.3054C31.7119 11.2369 31.5765 11.1762 31.4178 11.1233C31.2622 11.0673 31.0755 11.0393 30.8577 11.0393C30.6181 11.0393 30.4034 11.0891 30.2136 11.1887C30.0269 11.2852 29.8666 11.4252 29.7328 11.6088C29.6021 11.7892 29.5026 12.0086 29.4341 12.2669C29.3657 12.5252 29.3314 12.8161 29.3314 13.1397C29.3314 13.4944 29.3672 13.8025 29.4388 14.0639C29.5135 14.3221 29.6177 14.5353 29.7515 14.7033C29.8884 14.8714 30.0518 14.9974 30.2416 15.0814C30.4345 15.1623 30.6508 15.2028 30.8904 15.2028C31.1082 15.2028 31.2965 15.1779 31.4551 15.1281C31.6138 15.0752 31.7492 15.0176 31.8612 14.9554C31.9764 14.8931 32.0697 14.8371 32.1413 14.7873C32.216 14.7376 32.2735 14.7127 32.314 14.7127C32.3451 14.7127 32.37 14.7189 32.3887 14.7313C32.4073 14.7438 32.4229 14.7687 32.4353 14.806C32.4478 14.8434 32.4571 14.8963 32.4633 14.9647C32.4696 15.0301 32.4727 15.1187 32.4727 15.2308Z" fill="white"/>
<path d="M36.4247 11.1354C36.079 11.1354 35.75 11.1745 35.4378 11.2525C35.1255 11.325 34.8495 11.4143 34.6097 11.5202C34.3699 11.6206 34.1859 11.7126 34.0577 11.7962V10.7005C34.225 10.6001 34.4145 10.5026 34.6264 10.4078C34.8439 10.313 35.1004 10.2349 35.3959 10.1736C35.6915 10.1122 36.0372 10.0816 36.4331 10.0816C36.9182 10.0816 37.3476 10.154 37.7212 10.299C38.0948 10.444 38.4071 10.6531 38.658 10.9263C38.9145 11.1996 39.1069 11.5258 39.2351 11.9049C39.3634 12.2841 39.4275 12.7051 39.4275 13.1679C39.4275 13.6419 39.3661 14.0685 39.2435 14.4477C39.1208 14.8213 38.9368 15.1419 38.6914 15.4095C38.4517 15.6716 38.1561 15.8751 37.8048 16.0201C37.4535 16.1595 37.0465 16.2292 36.5837 16.2292C35.9034 16.2292 35.3541 16.0982 34.9359 15.8361C34.5233 15.5685 34.2222 15.1949 34.0326 14.7153C33.843 14.2358 33.7482 13.6754 33.7482 13.0341V12.7414H38.1059C38.0836 12.4068 38.0084 12.1196 37.8801 11.8799C37.7519 11.6401 37.5651 11.4561 37.3197 11.3278C37.0799 11.1996 36.7816 11.1354 36.4247 11.1354ZM36.5837 15.1753C36.868 15.1753 37.119 15.1224 37.3364 15.0164C37.5539 14.9105 37.7268 14.7543 37.855 14.548C37.9888 14.3417 38.0669 14.0908 38.0892 13.7953H35.0614C35.0614 14.0852 35.1088 14.3334 35.2036 14.5397C35.2984 14.746 35.4573 14.9049 35.6803 15.0164C35.9034 15.1224 36.2045 15.1753 36.5837 15.1753Z" fill="white"/>
<path d="M43.779 14.4793C43.6421 14.8278 43.5067 15.1156 43.3729 15.3428C43.2422 15.5699 43.1007 15.7504 42.9482 15.8842C42.7988 16.0149 42.6339 16.1051 42.4534 16.1549C42.2761 16.2078 42.0723 16.2343 41.842 16.2343C41.758 16.2343 41.6755 16.228 41.5946 16.2156C41.5137 16.2063 41.4375 16.1923 41.3659 16.1736C41.2943 16.1549 41.2321 16.1331 41.1792 16.1082C41.1263 16.0834 41.0874 16.06 41.0625 16.0382C41.0376 16.0165 41.0174 15.9931 41.0018 15.9682C40.9894 15.9402 40.9785 15.9044 40.9692 15.8609C40.9598 15.8173 40.9521 15.7629 40.9458 15.6975C40.9427 15.6291 40.9412 15.545 40.9412 15.4455C40.9412 15.265 40.9536 15.1374 40.9785 15.0627C41.0065 14.9849 41.0485 14.946 41.1045 14.946C41.1325 14.946 41.1636 14.9569 41.1979 14.9787C41.2321 15.0005 41.2726 15.0238 41.3192 15.0487C41.369 15.0736 41.425 15.097 41.4873 15.1187C41.5526 15.1374 41.6288 15.1467 41.716 15.1467C41.7813 15.1467 41.842 15.1405 41.898 15.1281C41.954 15.1125 42.0069 15.0845 42.0567 15.0441C42.1065 15.0036 42.1563 14.9476 42.2061 14.876C42.2558 14.8013 42.3087 14.7049 42.3648 14.5866L40.3764 10.5399C40.3328 10.4434 40.3064 10.3657 40.297 10.3065C40.2908 10.2443 40.3064 10.1961 40.3437 10.1618C40.3811 10.1276 40.4433 10.1058 40.5304 10.0965C40.6207 10.084 40.7405 10.0778 40.8898 10.0778C41.0361 10.0778 41.1528 10.0809 41.2399 10.0872C41.327 10.0934 41.397 10.1074 41.4499 10.1292C41.5028 10.1478 41.5433 10.1774 41.5713 10.2179C41.5993 10.2552 41.6273 10.305 41.6553 10.3672L42.5048 12.1969C42.5981 12.3929 42.6868 12.5889 42.7708 12.785C42.8548 12.9779 42.9357 13.1739 43.0135 13.3731H43.0275C43.0898 13.1646 43.1551 12.9623 43.2236 12.7663C43.2951 12.5672 43.3729 12.3587 43.457 12.1409L44.1524 10.2832C44.168 10.2396 44.1882 10.2054 44.2131 10.1805C44.238 10.1525 44.2753 10.1307 44.3251 10.1152C44.3749 10.0996 44.4434 10.0903 44.5305 10.0872C44.6176 10.0809 44.7312 10.0778 44.8712 10.0778C45.0143 10.0778 45.1279 10.0825 45.2119 10.0918C45.2959 10.1012 45.3566 10.1198 45.394 10.1478C45.4313 10.1727 45.4484 10.2085 45.4453 10.2552C45.4422 10.3019 45.4266 10.3625 45.3986 10.4372L43.779 14.4793Z" fill="white"/>
<path d="M50.4905 15.9869C50.4905 16.018 50.4812 16.046 50.4625 16.0709C50.4438 16.0927 50.4112 16.1114 50.3645 16.1269C50.3178 16.1425 50.254 16.1534 50.1731 16.1596C50.0953 16.1689 49.9973 16.1736 49.8791 16.1736C49.7577 16.1736 49.6581 16.1689 49.5803 16.1596C49.5026 16.1534 49.4403 16.1425 49.3937 16.1269C49.347 16.1114 49.3143 16.0927 49.2956 16.0709C49.277 16.046 49.2676 16.018 49.2676 15.9869V11.114H47.9701C47.8829 11.8266 47.7942 12.4489 47.704 12.981C47.6138 13.5131 47.5173 13.969 47.4146 14.3486C47.3119 14.7282 47.1984 15.0394 47.0739 15.2821C46.9525 15.5248 46.8125 15.7177 46.6538 15.8609C46.4982 16.0009 46.3209 16.0974 46.1217 16.1503C45.9257 16.2032 45.7016 16.2296 45.4496 16.2296C45.4029 16.2296 45.3625 16.2234 45.3282 16.2109C45.294 16.1985 45.266 16.1751 45.2442 16.1409C45.2256 16.1067 45.2116 16.0585 45.2022 15.9962C45.1929 15.934 45.1882 15.8546 45.1882 15.7582C45.1882 15.6244 45.1913 15.517 45.1976 15.4361C45.2038 15.3521 45.2147 15.2883 45.2302 15.2448C45.2458 15.1981 45.266 15.167 45.2909 15.1514C45.3158 15.1359 45.3454 15.1281 45.3796 15.1281C45.4761 15.1281 45.5678 15.1094 45.655 15.0721C45.7452 15.0316 45.8308 14.9538 45.9117 14.8387C45.9957 14.7236 46.0751 14.5617 46.1497 14.3533C46.2275 14.1448 46.3022 13.871 46.3738 13.5318C46.4485 13.1895 46.5216 12.7741 46.5931 12.2856C46.6678 11.7939 46.7425 11.2105 46.8172 10.5352C46.8359 10.3765 46.8732 10.2661 46.9292 10.2038C46.9852 10.1385 47.0677 10.1058 47.1766 10.1058H50.1405C50.2525 10.1058 50.338 10.1385 50.3972 10.2038C50.4594 10.2661 50.4905 10.3625 50.4905 10.4932V15.9869Z" fill="white"/>
<path d="M55.7738 15.6648C55.7738 15.7551 55.7691 15.8313 55.7598 15.8935C55.7535 15.9527 55.7426 16.0009 55.7271 16.0382C55.7115 16.0756 55.6913 16.1036 55.6664 16.1223C55.6446 16.1378 55.6197 16.1456 55.5917 16.1456H52.5578C52.4552 16.1456 52.368 16.116 52.2965 16.0569C52.228 15.9947 52.1938 15.8951 52.1938 15.7582V10.4932C52.1938 10.3563 52.228 10.2583 52.2965 10.1992C52.368 10.1369 52.4552 10.1058 52.5578 10.1058H55.5731C55.6011 10.1058 55.626 10.1136 55.6477 10.1292C55.6695 10.1447 55.6882 10.1727 55.7038 10.2132C55.7193 10.2505 55.7302 10.3003 55.7364 10.3625C55.7458 10.4217 55.7504 10.4979 55.7504 10.5913C55.7504 10.6784 55.7458 10.7531 55.7364 10.8153C55.7302 10.8744 55.7193 10.9226 55.7038 10.96C55.6882 10.9973 55.6695 11.0253 55.6477 11.044C55.626 11.0596 55.6011 11.0673 55.5731 11.0673H53.4167V12.5423H55.2417C55.2697 12.5423 55.2946 12.5516 55.3163 12.5703C55.3412 12.5858 55.3615 12.6123 55.377 12.6496C55.3926 12.6839 55.4035 12.7321 55.4097 12.7943C55.419 12.8534 55.4237 12.9266 55.4237 13.0137C55.4237 13.1039 55.419 13.1786 55.4097 13.2377C55.4035 13.2969 55.3926 13.3451 55.377 13.3824C55.3615 13.4167 55.3412 13.4415 55.3163 13.4571C55.2946 13.4727 55.2697 13.4804 55.2417 13.4804H53.4167V15.1841H55.5917C55.6197 15.1841 55.6446 15.1934 55.6664 15.2121C55.6913 15.2276 55.7115 15.2541 55.7271 15.2914C55.7426 15.3288 55.7535 15.3786 55.7598 15.4408C55.7691 15.4999 55.7738 15.5746 55.7738 15.6648Z" fill="white"/>
<path d="M61.225 10.6099C61.225 10.7002 61.2204 10.778 61.211 10.8433C61.2048 10.9055 61.1939 10.9569 61.1784 10.9973C61.1628 11.0347 61.1426 11.0627 61.1177 11.0813C61.0959 11.1 61.071 11.1093 61.043 11.1093H59.5307V15.9776C59.5307 16.0087 59.5198 16.0367 59.4981 16.0616C59.4794 16.0865 59.4467 16.1067 59.4 16.1223C59.3534 16.1378 59.2896 16.1503 59.2087 16.1596C59.1309 16.1689 59.0329 16.1736 58.9146 16.1736C58.7964 16.1736 58.6968 16.1689 58.6159 16.1596C58.5381 16.1503 58.4759 16.1378 58.4292 16.1223C58.3825 16.1067 58.3483 16.0865 58.3265 16.0616C58.3078 16.0367 58.2985 16.0087 58.2985 15.9776V11.1093H56.7862C56.7551 11.1093 56.7287 11.1 56.7069 11.0813C56.6851 11.0627 56.6664 11.0347 56.6509 10.9973C56.6353 10.9569 56.6229 10.9055 56.6135 10.8433C56.6073 10.778 56.6042 10.7002 56.6042 10.6099C56.6042 10.5166 56.6073 10.4372 56.6135 10.3719C56.6229 10.3065 56.6353 10.2552 56.6509 10.2179C56.6664 10.1774 56.6851 10.1494 56.7069 10.1338C56.7287 10.1152 56.7551 10.1058 56.7862 10.1058H61.043C61.071 10.1058 61.0959 10.1152 61.1177 10.1338C61.1426 10.1494 61.1628 10.1774 61.1784 10.2179C61.1939 10.2552 61.2048 10.3065 61.211 10.3719C61.2204 10.4372 61.225 10.5166 61.225 10.6099Z" fill="white"/>
<path d="M66.3403 10.6099C66.3403 10.7002 66.3356 10.778 66.3263 10.8433C66.32 10.9055 66.3091 10.9569 66.2936 10.9973C66.278 11.0347 66.2578 11.0627 66.2329 11.0813C66.2111 11.1 66.1862 11.1093 66.1582 11.1093H64.646V15.9776C64.646 16.0087 64.6351 16.0367 64.6133 16.0616C64.5946 16.0865 64.5619 16.1067 64.5153 16.1223C64.4686 16.1378 64.4048 16.1503 64.3239 16.1596C64.2461 16.1689 64.1481 16.1736 64.0298 16.1736C63.9116 16.1736 63.812 16.1689 63.7311 16.1596C63.6533 16.1503 63.5911 16.1378 63.5444 16.1223C63.4977 16.1067 63.4635 16.0865 63.4417 16.0616C63.4231 16.0367 63.4137 16.0087 63.4137 15.9776V11.1093H61.9015C61.8703 11.1093 61.8439 11.1 61.8221 11.0813C61.8003 11.0627 61.7817 11.0347 61.7661 10.9973C61.7505 10.9569 61.7381 10.9055 61.7288 10.8433C61.7225 10.778 61.7194 10.7002 61.7194 10.6099C61.7194 10.5166 61.7225 10.4372 61.7288 10.3719C61.7381 10.3065 61.7505 10.2552 61.7661 10.2179C61.7817 10.1774 61.8003 10.1494 61.8221 10.1338C61.8439 10.1152 61.8703 10.1058 61.9015 10.1058H66.1582C66.1862 10.1058 66.2111 10.1152 66.2329 10.1338C66.2578 10.1494 66.278 10.1774 66.2936 10.2179C66.3091 10.2552 66.32 10.3065 66.3263 10.3719C66.3356 10.4372 66.3403 10.5166 66.3403 10.6099Z" fill="white"/>
<path d="M68.669 15.9776C68.669 16.0087 68.6581 16.0367 68.6363 16.0616C68.6176 16.0865 68.585 16.1067 68.5383 16.1223C68.4916 16.1378 68.4294 16.1503 68.3516 16.1596C68.2738 16.1689 68.1742 16.1736 68.0529 16.1736C67.9346 16.1736 67.835 16.1689 67.7541 16.1596C67.6763 16.1503 67.6141 16.1378 67.5674 16.1223C67.5208 16.1067 67.4865 16.0865 67.4648 16.0616C67.4461 16.0367 67.4367 16.0087 67.4367 15.9776V10.2739C67.4367 10.2427 67.4461 10.2147 67.4648 10.1898C67.4865 10.165 67.5208 10.1447 67.5674 10.1292C67.6172 10.1136 67.681 10.1012 67.7588 10.0918C67.8366 10.0825 67.9346 10.0778 68.0529 10.0778C68.1742 10.0778 68.2738 10.0825 68.3516 10.0918C68.4294 10.1012 68.4916 10.1136 68.5383 10.1292C68.585 10.1447 68.6176 10.165 68.6363 10.1898C68.6581 10.2147 68.669 10.2427 68.669 10.2739V15.9776Z" fill="white"/>
<path d="M74.839 15.9822C74.839 16.0165 74.8297 16.046 74.811 16.0709C74.7924 16.0927 74.7581 16.1114 74.7084 16.1269C74.6617 16.1425 74.5979 16.1534 74.517 16.1596C74.4361 16.1689 74.3318 16.1736 74.2043 16.1736C74.0705 16.1736 73.9616 16.1689 73.8775 16.1596C73.7966 16.1534 73.7313 16.1425 73.6815 16.1269C73.6317 16.1082 73.5944 16.0849 73.5695 16.0569C73.5446 16.0258 73.5259 15.9884 73.5135 15.9449L73.0281 14.6006C72.9596 14.4046 72.888 14.2412 72.8133 14.1106C72.7387 13.9768 72.6562 13.8694 72.566 13.7885C72.4757 13.7045 72.373 13.6454 72.2579 13.6111C72.1428 13.5769 72.0136 13.5598 71.8705 13.5598H71.5951V15.9776C71.5951 16.0118 71.5858 16.0413 71.5671 16.0662C71.5485 16.088 71.5158 16.1082 71.4691 16.1269C71.4224 16.1425 71.3602 16.1534 71.2824 16.1596C71.2046 16.1689 71.105 16.1736 70.9837 16.1736C70.8654 16.1736 70.7659 16.1689 70.685 16.1596C70.6072 16.1534 70.5449 16.1425 70.4983 16.1269C70.4516 16.1082 70.4174 16.088 70.3956 16.0662C70.3769 16.0413 70.3676 16.0118 70.3676 15.9776V10.2692C70.3676 10.235 70.3769 10.207 70.3956 10.1852C70.4174 10.1603 70.4516 10.1401 70.4983 10.1245C70.5449 10.1089 70.6072 10.0981 70.685 10.0918C70.7659 10.0825 70.8654 10.0778 70.9837 10.0778C71.105 10.0778 71.2046 10.0825 71.2824 10.0918C71.3602 10.0981 71.4224 10.1089 71.4691 10.1245C71.5158 10.1401 71.5485 10.1603 71.5671 10.1852C71.5858 10.207 71.5951 10.235 71.5951 10.2692V12.5376H71.8705C72.0105 12.5376 72.1334 12.5189 72.2392 12.4816C72.345 12.4443 72.4399 12.3851 72.524 12.3042C72.6111 12.2233 72.6889 12.1191 72.7573 11.9915C72.8289 11.8608 72.8974 11.7006 72.9627 11.5108L73.3688 10.3065C73.3843 10.263 73.403 10.2272 73.4248 10.1992C73.4466 10.1681 73.4808 10.1447 73.5275 10.1292C73.5773 10.1105 73.6411 10.0981 73.7188 10.0918C73.7997 10.0825 73.9071 10.0778 74.0409 10.0778C74.1623 10.0778 74.2618 10.0825 74.3396 10.0918C74.4205 10.0981 74.4828 10.1089 74.5263 10.1245C74.573 10.1369 74.6041 10.1556 74.6197 10.1805C74.6352 10.2023 74.643 10.2303 74.643 10.2645C74.643 10.305 74.6352 10.3548 74.6197 10.4139C74.6072 10.473 74.5839 10.5508 74.5497 10.6473L74.1436 11.7208C74.0689 11.9199 73.9942 12.0895 73.9195 12.2295C73.8449 12.3696 73.7655 12.4894 73.6815 12.5889C73.6006 12.6854 73.5135 12.7648 73.4201 12.827C73.3299 12.8892 73.2288 12.9406 73.1167 12.981V12.9857C73.2412 13.0386 73.3532 13.0993 73.4528 13.1677C73.5555 13.2331 73.6504 13.3171 73.7375 13.4198C73.8278 13.5224 73.9133 13.6485 73.9942 13.7978C74.0751 13.9472 74.1576 14.1308 74.2416 14.3486L74.7364 15.5995C74.7861 15.7271 74.8157 15.8158 74.825 15.8655C74.8344 15.9122 74.839 15.9511 74.839 15.9822Z" fill="white"/>
<path d="M82.2643 15.6648C82.2643 15.7551 82.2596 15.8313 82.2503 15.8935C82.2441 15.9527 82.2332 16.0009 82.2176 16.0382C82.2021 16.0756 82.1819 16.1036 82.157 16.1223C82.1352 16.1378 82.1103 16.1456 82.0823 16.1456H79.0484C78.9457 16.1456 78.8586 16.116 78.787 16.0569C78.7186 15.9947 78.6843 15.8951 78.6843 15.7582V10.4932C78.6843 10.3563 78.7186 10.2583 78.787 10.1992C78.8586 10.1369 78.9457 10.1058 79.0484 10.1058H82.0636C82.0916 10.1058 82.1165 10.1136 82.1383 10.1292C82.1601 10.1447 82.1787 10.1727 82.1943 10.2132C82.2099 10.2505 82.2207 10.3003 82.227 10.3625C82.2363 10.4217 82.241 10.4979 82.241 10.5913C82.241 10.6784 82.2363 10.7531 82.227 10.8153C82.2207 10.8744 82.2099 10.9226 82.1943 10.96C82.1787 10.9973 82.1601 11.0253 82.1383 11.044C82.1165 11.0596 82.0916 11.0673 82.0636 11.0673H79.9072V12.5423H81.7322C81.7602 12.5423 81.7851 12.5516 81.8069 12.5703C81.8318 12.5858 81.852 12.6123 81.8676 12.6496C81.8831 12.6839 81.894 12.7321 81.9002 12.7943C81.9096 12.8534 81.9142 12.9266 81.9142 13.0137C81.9142 13.1039 81.9096 13.1786 81.9002 13.2377C81.894 13.2969 81.8831 13.3451 81.8676 13.3824C81.852 13.4167 81.8318 13.4415 81.8069 13.4571C81.7851 13.4727 81.7602 13.4804 81.7322 13.4804H79.9072V15.1841H82.0823C82.1103 15.1841 82.1352 15.1934 82.157 15.2121C82.1819 15.2276 82.2021 15.2541 82.2176 15.2914C82.2332 15.3288 82.2441 15.3786 82.2503 15.4408C82.2596 15.4999 82.2643 15.5746 82.2643 15.6648Z" fill="white"/>
<path d="M87.6969 15.2308C87.6969 15.3085 87.6938 15.3754 87.6876 15.4315C87.6845 15.4844 87.6782 15.531 87.6689 15.5715C87.6596 15.6088 87.6471 15.6415 87.6316 15.6695C87.616 15.6975 87.5911 15.7302 87.5569 15.7675C87.5227 15.8017 87.4558 15.8469 87.3562 15.9029C87.2597 15.9589 87.1399 16.0133 86.9968 16.0662C86.8568 16.116 86.695 16.158 86.5114 16.1923C86.3309 16.2265 86.1349 16.2436 85.9233 16.2436C85.5094 16.2436 85.136 16.1798 84.8031 16.0522C84.4701 15.9247 84.187 15.7348 83.9536 15.4828C83.7202 15.2276 83.5413 14.9103 83.4168 14.5306C83.2923 14.151 83.2301 13.7091 83.2301 13.2051C83.2301 12.6916 83.2986 12.2358 83.4355 11.8375C83.5724 11.4392 83.7638 11.1047 84.0096 10.834C84.2554 10.5632 84.5495 10.3579 84.8917 10.2179C85.2371 10.0778 85.6168 10.0078 86.0306 10.0078C86.1986 10.0078 86.3605 10.0218 86.516 10.0498C86.6716 10.0778 86.8148 10.1152 86.9454 10.1618C87.0793 10.2054 87.1991 10.2567 87.3048 10.3159C87.4106 10.375 87.4838 10.4263 87.5242 10.4699C87.5678 10.5103 87.5973 10.5446 87.6129 10.5726C87.6285 10.6006 87.6409 10.6364 87.6502 10.6799C87.6596 10.7235 87.6658 10.7748 87.6689 10.834C87.6751 10.8931 87.6782 10.9662 87.6782 11.0533C87.6782 11.1467 87.6751 11.226 87.6689 11.2914C87.6627 11.3567 87.6518 11.4096 87.6362 11.4501C87.6207 11.4905 87.602 11.5201 87.5802 11.5388C87.5584 11.5574 87.5336 11.5668 87.5056 11.5668C87.4589 11.5668 87.3998 11.5403 87.3282 11.4874C87.2566 11.4314 87.1633 11.3707 87.0481 11.3054C86.9361 11.2369 86.8008 11.1762 86.6421 11.1233C86.4865 11.0673 86.2998 11.0393 86.082 11.0393C85.8424 11.0393 85.6277 11.0891 85.4378 11.1887C85.2511 11.2852 85.0909 11.4252 84.9571 11.6088C84.8264 11.7892 84.7268 12.0086 84.6584 12.2669C84.5899 12.5252 84.5557 12.8161 84.5557 13.1397C84.5557 13.4944 84.5915 13.8025 84.663 14.0639C84.7377 14.3221 84.842 14.5353 84.9758 14.7033C85.1127 14.8714 85.276 14.9974 85.4658 15.0814C85.6588 15.1623 85.875 15.2028 86.1146 15.2028C86.3325 15.2028 86.5207 15.1779 86.6794 15.1281C86.8381 15.0752 86.9735 15.0176 87.0855 14.9554C87.2006 14.8931 87.294 14.8371 87.3655 14.7873C87.4402 14.7376 87.4978 14.7127 87.5382 14.7127C87.5693 14.7127 87.5942 14.7189 87.6129 14.7313C87.6316 14.7438 87.6471 14.7687 87.6596 14.806C87.672 14.8434 87.6814 14.8963 87.6876 14.9647C87.6938 15.0301 87.6969 15.1187 87.6969 15.2308Z" fill="white"/>
<path d="M93.4329 15.9822C93.4329 16.0165 93.4236 16.046 93.4049 16.0709C93.3862 16.0927 93.352 16.1114 93.3022 16.1269C93.2555 16.1425 93.1918 16.1534 93.1109 16.1596C93.0299 16.1689 92.9257 16.1736 92.7981 16.1736C92.6643 16.1736 92.5554 16.1689 92.4714 16.1596C92.3905 16.1534 92.3252 16.1425 92.2754 16.1269C92.2256 16.1082 92.1882 16.0849 92.1633 16.0569C92.1385 16.0258 92.1198 15.9884 92.1073 15.9449L91.6219 14.6006C91.5535 14.4046 91.4819 14.2412 91.4072 14.1106C91.3325 13.9768 91.2501 13.8694 91.1598 13.7885C91.0696 13.7045 90.9669 13.6454 90.8518 13.6111C90.7366 13.5769 90.6075 13.5598 90.4644 13.5598H90.189V15.9776C90.189 16.0118 90.1797 16.0413 90.161 16.0662C90.1423 16.088 90.1096 16.1082 90.063 16.1269C90.0163 16.1425 89.9541 16.1534 89.8763 16.1596C89.7985 16.1689 89.6989 16.1736 89.5775 16.1736C89.4593 16.1736 89.3597 16.1689 89.2788 16.1596C89.201 16.1534 89.1388 16.1425 89.0921 16.1269C89.0455 16.1082 89.0112 16.088 88.9894 16.0662C88.9708 16.0413 88.9614 16.0118 88.9614 15.9776V10.2692C88.9614 10.235 88.9708 10.207 88.9894 10.1852C89.0112 10.1603 89.0455 10.1401 89.0921 10.1245C89.1388 10.1089 89.201 10.0981 89.2788 10.0918C89.3597 10.0825 89.4593 10.0778 89.5775 10.0778C89.6989 10.0778 89.7985 10.0825 89.8763 10.0918C89.9541 10.0981 90.0163 10.1089 90.063 10.1245C90.1096 10.1401 90.1423 10.1603 90.161 10.1852C90.1797 10.207 90.189 10.235 90.189 10.2692V12.5376H90.4644C90.6044 12.5376 90.7273 12.5189 90.8331 12.4816C90.9389 12.4443 91.0338 12.3851 91.1178 12.3042C91.205 12.2233 91.2827 12.1191 91.3512 11.9915C91.4228 11.8608 91.4912 11.7006 91.5566 11.5108L91.9626 10.3065C91.9782 10.263 91.9969 10.2272 92.0187 10.1992C92.0404 10.1681 92.0747 10.1447 92.1213 10.1292C92.1711 10.1105 92.2349 10.0981 92.3127 10.0918C92.3936 10.0825 92.501 10.0778 92.6348 10.0778C92.7561 10.0778 92.8557 10.0825 92.9335 10.0918C93.0144 10.0981 93.0766 10.1089 93.1202 10.1245C93.1669 10.1369 93.198 10.1556 93.2135 10.1805C93.2291 10.2023 93.2369 10.2303 93.2369 10.2645C93.2369 10.305 93.2291 10.3548 93.2135 10.4139C93.2011 10.473 93.1778 10.5508 93.1435 10.6473L92.7374 11.7208C92.6628 11.9199 92.5881 12.0895 92.5134 12.2295C92.4387 12.3696 92.3594 12.4894 92.2754 12.5889C92.1945 12.6854 92.1073 12.7648 92.014 12.827C91.9237 12.8892 91.8226 12.9406 91.7106 12.981V12.9857C91.8351 13.0386 91.9471 13.0993 92.0467 13.1677C92.1493 13.2331 92.2443 13.3171 92.3314 13.4198C92.4216 13.5224 92.5072 13.6485 92.5881 13.7978C92.669 13.9472 92.7515 14.1308 92.8355 14.3486L93.3302 15.5995C93.38 15.7271 93.4096 15.8158 93.4189 15.8655C93.4282 15.9122 93.4329 15.9511 93.4329 15.9822Z" fill="white"/>
<path d="M98.3101 15.6648C98.3101 15.7551 98.3054 15.8313 98.2961 15.8935C98.2899 15.9527 98.279 16.0009 98.2634 16.0382C98.2479 16.0756 98.2276 16.1036 98.2027 16.1223C98.181 16.1378 98.1561 16.1456 98.1281 16.1456H95.0942C94.9915 16.1456 94.9044 16.116 94.8328 16.0569C94.7643 15.9947 94.7301 15.8951 94.7301 15.7582V10.4932C94.7301 10.3563 94.7643 10.2583 94.8328 10.1992C94.9044 10.1369 94.9915 10.1058 95.0942 10.1058H98.1094C98.1374 10.1058 98.1623 10.1136 98.1841 10.1292C98.2058 10.1447 98.2245 10.1727 98.2401 10.2132C98.2556 10.2505 98.2665 10.3003 98.2728 10.3625C98.2821 10.4217 98.2868 10.4979 98.2868 10.5913C98.2868 10.6784 98.2821 10.7531 98.2728 10.8153C98.2665 10.8744 98.2556 10.9226 98.2401 10.96C98.2245 10.9973 98.2058 11.0253 98.1841 11.044C98.1623 11.0596 98.1374 11.0673 98.1094 11.0673H95.953V12.5423H97.778C97.806 12.5423 97.8309 12.5516 97.8527 12.5703C97.8776 12.5858 97.8978 12.6123 97.9134 12.6496C97.9289 12.6839 97.9398 12.7321 97.946 12.7943C97.9554 12.8534 97.96 12.9266 97.96 13.0137C97.96 13.1039 97.9554 13.1786 97.946 13.2377C97.9398 13.2969 97.9289 13.3451 97.9134 13.3824C97.8978 13.4167 97.8776 13.4415 97.8527 13.4571C97.8309 13.4727 97.806 13.4804 97.778 13.4804H95.953V15.1841H98.1281C98.1561 15.1841 98.181 15.1934 98.2027 15.2121C98.2276 15.2276 98.2479 15.2541 98.2634 15.2914C98.279 15.3288 98.2899 15.3786 98.2961 15.4408C98.3054 15.4999 98.3101 15.5746 98.3101 15.6648Z" fill="white"/>
<path d="M103.915 11.9402C103.915 12.2793 103.862 12.5796 103.757 12.841C103.651 13.1024 103.497 13.3233 103.295 13.5038C103.092 13.6811 102.843 13.8165 102.548 13.9099C102.255 14.0032 101.91 14.0499 101.512 14.0499H101.008V15.9776C101.008 16.0087 100.997 16.0367 100.975 16.0616C100.956 16.0865 100.924 16.1067 100.877 16.1223C100.83 16.1378 100.768 16.1503 100.69 16.1596C100.612 16.1689 100.513 16.1736 100.391 16.1736C100.273 16.1736 100.174 16.1689 100.093 16.1596C100.015 16.1503 99.9527 16.1378 99.906 16.1223C99.8593 16.1067 99.8267 16.0865 99.808 16.0616C99.7893 16.0367 99.78 16.0087 99.78 15.9776V10.5446C99.78 10.3983 99.8173 10.2894 99.892 10.2179C99.9698 10.1432 100.071 10.1058 100.195 10.1058H101.619C101.762 10.1058 101.897 10.1121 102.025 10.1245C102.156 10.1338 102.311 10.1572 102.492 10.1945C102.672 10.2287 102.854 10.2941 103.038 10.3905C103.225 10.487 103.383 10.6099 103.514 10.7593C103.645 10.9055 103.744 11.0782 103.813 11.2774C103.881 11.4734 103.915 11.6943 103.915 11.9402ZM102.632 12.0288C102.632 11.8173 102.594 11.643 102.52 11.5061C102.445 11.3692 102.353 11.268 102.244 11.2027C102.136 11.1373 102.02 11.0969 101.899 11.0813C101.781 11.0627 101.658 11.0533 101.53 11.0533H101.008V13.1024H101.558C101.754 13.1024 101.918 13.0759 102.048 13.023C102.182 12.9701 102.291 12.897 102.375 12.8037C102.459 12.7072 102.523 12.5936 102.566 12.4629C102.61 12.3291 102.632 12.1844 102.632 12.0288Z" fill="white"/>
<path d="M109.222 10.6099C109.222 10.7002 109.217 10.778 109.208 10.8433C109.202 10.9055 109.191 10.9569 109.175 10.9973C109.16 11.0347 109.14 11.0627 109.115 11.0813C109.093 11.1 109.068 11.1093 109.04 11.1093H107.528V15.9776C107.528 16.0087 107.517 16.0367 107.495 16.0616C107.476 16.0865 107.444 16.1067 107.397 16.1223C107.35 16.1378 107.287 16.1503 107.206 16.1596C107.128 16.1689 107.03 16.1736 106.912 16.1736C106.793 16.1736 106.694 16.1689 106.613 16.1596C106.535 16.1503 106.473 16.1378 106.426 16.1223C106.379 16.1067 106.345 16.0865 106.323 16.0616C106.305 16.0367 106.295 16.0087 106.295 15.9776V11.1093H104.783C104.752 11.1093 104.726 11.1 104.704 11.0813C104.682 11.0627 104.663 11.0347 104.648 10.9973C104.632 10.9569 104.62 10.9055 104.61 10.8433C104.604 10.778 104.601 10.7002 104.601 10.6099C104.601 10.5166 104.604 10.4372 104.61 10.3719C104.62 10.3065 104.632 10.2552 104.648 10.2179C104.663 10.1774 104.682 10.1494 104.704 10.1338C104.726 10.1152 104.752 10.1058 104.783 10.1058H109.04C109.068 10.1058 109.093 10.1152 109.115 10.1338C109.14 10.1494 109.16 10.1774 109.175 10.2179C109.191 10.2552 109.202 10.3065 109.208 10.3719C109.217 10.4372 109.222 10.5166 109.222 10.6099Z" fill="white"/>
<path d="M114.79 15.9822C114.79 16.0165 114.781 16.046 114.762 16.0709C114.743 16.0927 114.709 16.1114 114.659 16.1269C114.613 16.1425 114.549 16.1534 114.468 16.1596C114.387 16.1689 114.283 16.1736 114.155 16.1736C114.021 16.1736 113.912 16.1689 113.828 16.1596C113.748 16.1534 113.682 16.1425 113.632 16.1269C113.583 16.1082 113.545 16.0849 113.52 16.0569C113.495 16.0258 113.477 15.9884 113.464 15.9449L112.979 14.6006C112.91 14.4046 112.839 14.2412 112.764 14.1106C112.69 13.9768 112.607 13.8694 112.517 13.7885C112.427 13.7045 112.324 13.6454 112.209 13.6111C112.094 13.5769 111.965 13.5598 111.821 13.5598H111.546V15.9776C111.546 16.0118 111.537 16.0413 111.518 16.0662C111.499 16.088 111.467 16.1082 111.42 16.1269C111.373 16.1425 111.311 16.1534 111.233 16.1596C111.156 16.1689 111.056 16.1736 110.935 16.1736C110.816 16.1736 110.717 16.1689 110.636 16.1596C110.558 16.1534 110.496 16.1425 110.449 16.1269C110.402 16.1082 110.368 16.088 110.346 16.0662C110.328 16.0413 110.318 16.0118 110.318 15.9776V10.2692C110.318 10.235 110.328 10.207 110.346 10.1852C110.368 10.1603 110.402 10.1401 110.449 10.1245C110.496 10.1089 110.558 10.0981 110.636 10.0918C110.717 10.0825 110.816 10.0778 110.935 10.0778C111.056 10.0778 111.156 10.0825 111.233 10.0918C111.311 10.0981 111.373 10.1089 111.42 10.1245C111.467 10.1401 111.499 10.1603 111.518 10.1852C111.537 10.207 111.546 10.235 111.546 10.2692V12.5376H111.821C111.961 12.5376 112.084 12.5189 112.19 12.4816C112.296 12.4443 112.391 12.3851 112.475 12.3042C112.562 12.2233 112.64 12.1191 112.708 11.9915C112.78 11.8608 112.848 11.7006 112.914 11.5108L113.32 10.3065C113.335 10.263 113.354 10.2272 113.376 10.1992C113.397 10.1681 113.432 10.1447 113.478 10.1292C113.528 10.1105 113.592 10.0981 113.67 10.0918C113.751 10.0825 113.858 10.0778 113.992 10.0778C114.113 10.0778 114.213 10.0825 114.291 10.0918C114.371 10.0981 114.434 10.1089 114.477 10.1245C114.524 10.1369 114.555 10.1556 114.571 10.1805C114.586 10.2023 114.594 10.2303 114.594 10.2645C114.594 10.305 114.586 10.3548 114.571 10.4139C114.558 10.473 114.535 10.5508 114.501 10.6473L114.094 11.7208C114.02 11.9199 113.945 12.0895 113.87 12.2295C113.796 12.3696 113.716 12.4894 113.632 12.5889C113.551 12.6854 113.464 12.7648 113.371 12.827C113.281 12.8892 113.18 12.9406 113.068 12.981V12.9857C113.192 13.0386 113.304 13.0993 113.404 13.1677C113.506 13.2331 113.601 13.3171 113.688 13.4198C113.779 13.5224 113.864 13.6485 113.945 13.7978C114.026 13.9472 114.108 14.1308 114.193 14.3486L114.687 15.5995C114.737 15.7271 114.767 15.8158 114.776 15.8655C114.785 15.9122 114.79 15.9511 114.79 15.9822Z" fill="white"/>
<path d="M117.319 15.9776C117.319 16.0087 117.308 16.0367 117.287 16.0616C117.268 16.0865 117.235 16.1067 117.189 16.1223C117.142 16.1378 117.08 16.1503 117.002 16.1596C116.924 16.1689 116.825 16.1736 116.703 16.1736C116.585 16.1736 116.485 16.1689 116.405 16.1596C116.327 16.1503 116.265 16.1378 116.218 16.1223C116.171 16.1067 116.137 16.0865 116.115 16.0616C116.096 16.0367 116.087 16.0087 116.087 15.9776V10.2739C116.087 10.2427 116.096 10.2147 116.115 10.1898C116.137 10.165 116.171 10.1447 116.218 10.1292C116.268 10.1136 116.331 10.1012 116.409 10.0918C116.487 10.0825 116.585 10.0778 116.703 10.0778C116.825 10.0778 116.924 10.0825 117.002 10.0918C117.08 10.1012 117.142 10.1136 117.189 10.1292C117.235 10.1447 117.268 10.165 117.287 10.1898C117.308 10.2147 117.319 10.2427 117.319 10.2739V15.9776Z" fill="white"/>
<path d="M126.276 15.7582C126.276 15.8889 126.245 15.9869 126.183 16.0522C126.12 16.1145 126.033 16.1456 125.921 16.1456H119.382C119.273 16.1456 119.184 16.1145 119.116 16.0522C119.051 15.9869 119.018 15.8889 119.018 15.7582V10.2552C119.018 10.2241 119.027 10.1976 119.046 10.1758C119.068 10.1541 119.102 10.1369 119.149 10.1245C119.195 10.1089 119.258 10.0981 119.335 10.0918C119.413 10.0825 119.508 10.0778 119.62 10.0778C119.735 10.0778 119.83 10.0825 119.905 10.0918C119.983 10.0981 120.045 10.1089 120.091 10.1245C120.138 10.1369 120.171 10.1541 120.19 10.1758C120.211 10.1976 120.222 10.2241 120.222 10.2552V15.1467H122.047V10.2552C122.047 10.2241 122.057 10.1976 122.075 10.1758C122.097 10.1541 122.13 10.1369 122.173 10.1245C122.22 10.1089 122.282 10.0981 122.36 10.0918C122.438 10.0825 122.533 10.0778 122.645 10.0778C122.757 10.0778 122.85 10.0825 122.925 10.0918C123.002 10.0981 123.065 10.1089 123.111 10.1245C123.158 10.1369 123.191 10.1541 123.209 10.1758C123.231 10.1976 123.242 10.2241 123.242 10.2552V15.1467H125.072V10.2552C125.072 10.2241 125.081 10.1976 125.1 10.1758C125.122 10.1541 125.156 10.1369 125.202 10.1245C125.249 10.1089 125.31 10.0981 125.384 10.0918C125.462 10.0825 125.559 10.0778 125.674 10.0778C125.786 10.0778 125.879 10.0825 125.954 10.0918C126.032 10.0981 126.094 10.1089 126.141 10.1245C126.187 10.1369 126.221 10.1541 126.243 10.1758C126.265 10.1976 126.276 10.2241 126.276 10.2552V15.7582Z" fill="white"/>
<path d="M33.0001 25.546C33.0001 25.5771 32.9908 25.6051 32.9721 25.63C32.9534 25.6518 32.9207 25.6704 32.8741 25.686C32.8274 25.7015 32.7636 25.7124 32.6827 25.7187C32.6049 25.728 32.5069 25.7327 32.3887 25.7327C32.2704 25.7327 32.1708 25.728 32.0899 25.7187C32.0121 25.7124 31.9499 25.7015 31.9032 25.686C31.8566 25.6704 31.8223 25.6518 31.8005 25.63C31.7819 25.6051 31.7725 25.5771 31.7725 25.546V20.6871H29.5228V25.546C29.5228 25.5771 29.5119 25.6051 29.4901 25.63C29.4715 25.6518 29.4388 25.6704 29.3921 25.686C29.3454 25.7015 29.2832 25.7124 29.2054 25.7187C29.1276 25.728 29.028 25.7327 28.9067 25.7327C28.7884 25.7327 28.6889 25.728 28.608 25.7187C28.5302 25.7124 28.4679 25.7015 28.4213 25.686C28.3746 25.6704 28.3419 25.6518 28.3233 25.63C28.3046 25.6051 28.2952 25.5771 28.2952 25.546V20.0523C28.2952 19.9216 28.3279 19.8251 28.3933 19.7629C28.4586 19.6976 28.5457 19.6649 28.6546 19.6649H32.6454C32.7574 19.6649 32.8445 19.6976 32.9067 19.7629C32.969 19.8251 33.0001 19.9216 33.0001 20.0523V25.546Z" fill="white"/>
<path d="M39.6463 25.2472C39.6836 25.3593 39.7069 25.4479 39.7163 25.5133C39.7256 25.5786 39.7132 25.6284 39.6789 25.6626C39.6447 25.6938 39.584 25.7124 39.4969 25.7187C39.4098 25.728 39.29 25.7327 39.1375 25.7327C38.9788 25.7327 38.8543 25.7295 38.7641 25.7233C38.677 25.7202 38.6101 25.7124 38.5634 25.7C38.5167 25.6844 38.484 25.6642 38.4654 25.6393C38.4467 25.6144 38.4311 25.5817 38.4187 25.5413L38.0126 24.3277H35.7442L35.3615 25.5086C35.349 25.5522 35.3319 25.5895 35.3101 25.6206C35.2915 25.6486 35.2588 25.672 35.2121 25.6906C35.1686 25.7062 35.1048 25.7171 35.0208 25.7233C34.9398 25.7295 34.8325 25.7327 34.6987 25.7327C34.5556 25.7327 34.4435 25.728 34.3626 25.7187C34.2817 25.7093 34.2257 25.6875 34.1946 25.6533C34.1635 25.616 34.1526 25.5646 34.1619 25.4993C34.1713 25.4339 34.1946 25.3468 34.2319 25.2379L36.0943 19.8796C36.113 19.8267 36.1347 19.7847 36.1596 19.7536C36.1845 19.7193 36.2234 19.6945 36.2763 19.6789C36.3323 19.6602 36.4086 19.6493 36.505 19.6462C36.6015 19.64 36.7291 19.6369 36.8878 19.6369C37.0713 19.6369 37.2176 19.64 37.3265 19.6462C37.4354 19.6493 37.5194 19.6602 37.5785 19.6789C37.6408 19.6945 37.6843 19.7193 37.7092 19.7536C37.7372 19.7878 37.7606 19.8345 37.7793 19.8936L39.6463 25.2472ZM36.8738 20.8178H36.8691L36.0149 23.3849H37.7279L36.8738 20.8178Z" fill="white"/>
<path d="M47.9167 25.5366C47.9167 25.5677 47.9074 25.5957 47.8887 25.6206C47.8731 25.6455 47.842 25.6658 47.7954 25.6813C47.7518 25.6969 47.6927 25.7093 47.618 25.7187C47.5433 25.728 47.4484 25.7327 47.3333 25.7327C47.2213 25.7327 47.1279 25.728 47.0532 25.7187C46.9785 25.7093 46.9194 25.6969 46.8759 25.6813C46.8323 25.6658 46.8012 25.6455 46.7825 25.6206C46.7638 25.5957 46.7545 25.5677 46.7545 25.5366V20.6217H46.7452L44.9948 25.532C44.9824 25.5724 44.9622 25.6066 44.9342 25.6346C44.9062 25.6595 44.8673 25.6798 44.8175 25.6953C44.7708 25.7109 44.7101 25.7202 44.6355 25.7233C44.5608 25.7295 44.4705 25.7327 44.3647 25.7327C44.2589 25.7327 44.1687 25.728 44.094 25.7187C44.0193 25.7124 43.9571 25.7015 43.9073 25.686C43.8606 25.6673 43.8233 25.6455 43.7953 25.6206C43.7673 25.5957 43.7486 25.5662 43.7393 25.532L42.0496 20.6217H42.0403V25.5366C42.0403 25.5677 42.031 25.5957 42.0123 25.6206C41.9968 25.6455 41.9656 25.6658 41.919 25.6813C41.8723 25.6969 41.8116 25.7093 41.7369 25.7187C41.6654 25.728 41.572 25.7327 41.4569 25.7327C41.3449 25.7327 41.2515 25.728 41.1768 25.7187C41.1021 25.7093 41.0415 25.6969 40.9948 25.6813C40.9512 25.6658 40.9201 25.6455 40.9014 25.6206C40.8859 25.5957 40.8781 25.5677 40.8781 25.5366V20.155C40.8781 19.9963 40.9201 19.8749 41.0041 19.7909C41.0881 19.7069 41.2002 19.6649 41.3402 19.6649H42.143C42.2861 19.6649 42.409 19.6773 42.5117 19.7022C42.6144 19.724 42.7031 19.7629 42.7778 19.8189C42.8525 19.8718 42.9147 19.9434 42.9645 20.0336C43.0143 20.1208 43.0578 20.2297 43.0952 20.3604L44.4021 23.959H44.4207L45.7743 20.3697C45.8148 20.239 45.8583 20.1285 45.905 20.0383C45.9548 19.9481 46.0108 19.8749 46.073 19.8189C46.1384 19.7629 46.2146 19.724 46.3018 19.7022C46.3889 19.6773 46.49 19.6649 46.6051 19.6649H47.4313C47.5153 19.6649 47.5869 19.6758 47.646 19.6976C47.7082 19.7193 47.758 19.752 47.7954 19.7956C47.8358 19.836 47.8654 19.8874 47.884 19.9496C47.9058 20.0087 47.9167 20.0772 47.9167 20.155V25.5366Z" fill="white"/>
<path d="M53.7834 25.546C53.7834 25.5771 53.7741 25.6051 53.7554 25.63C53.7367 25.6518 53.7041 25.6704 53.6574 25.686C53.6138 25.7015 53.5516 25.7124 53.4707 25.7187C53.3929 25.728 53.2949 25.7327 53.1766 25.7327C53.0553 25.7327 52.9557 25.728 52.8779 25.7187C52.8001 25.7124 52.7363 25.7015 52.6865 25.686C52.6399 25.6704 52.6072 25.6518 52.5885 25.63C52.5698 25.6051 52.5605 25.5771 52.5605 25.546V23.2869H52.1078C51.9211 23.2869 51.7779 23.3055 51.6784 23.3429C51.5819 23.3802 51.4948 23.4378 51.417 23.5156C51.3423 23.5934 51.2754 23.6914 51.2163 23.8096C51.1571 23.9248 51.0996 24.0617 51.0436 24.2204L50.5862 25.5273C50.5706 25.5646 50.5504 25.5973 50.5255 25.6253C50.5006 25.6502 50.4617 25.672 50.4088 25.6906C50.359 25.7062 50.2921 25.7171 50.2081 25.7233C50.1241 25.7295 50.0167 25.7327 49.886 25.7327C49.7429 25.7327 49.6293 25.728 49.5453 25.7187C49.4644 25.7093 49.4022 25.6969 49.3586 25.6813C49.315 25.6626 49.287 25.6424 49.2746 25.6206C49.2621 25.5989 49.2559 25.5755 49.2559 25.5506C49.2559 25.5195 49.2606 25.4822 49.2699 25.4386C49.2824 25.3919 49.3057 25.3235 49.3399 25.2332L49.7927 24.0477C49.8518 23.8921 49.9125 23.7567 49.9747 23.6416C50.0369 23.5265 50.1054 23.4238 50.1801 23.3336C50.2579 23.2402 50.3388 23.1624 50.4228 23.1002C50.5099 23.0379 50.6048 22.9882 50.7075 22.9508C50.5146 22.8979 50.3434 22.8295 50.1941 22.7454C50.0478 22.6583 49.9234 22.5541 49.8207 22.4327C49.7211 22.3083 49.6449 22.1667 49.592 22.008C49.5422 21.8462 49.5173 21.6657 49.5173 21.4665C49.5173 21.1927 49.564 20.9453 49.6573 20.7244C49.7538 20.5004 49.8954 20.3106 50.0821 20.155C50.2688 19.9994 50.5006 19.8796 50.7775 19.7956C51.0576 19.7085 51.4465 19.6649 51.9444 19.6649H53.424C53.5236 19.6649 53.6076 19.696 53.676 19.7582C53.7476 19.8174 53.7834 19.9154 53.7834 20.0523V25.546ZM52.5605 20.6124H51.9304C51.6659 20.6124 51.4683 20.6326 51.3376 20.6731C51.2069 20.7135 51.0996 20.7726 51.0156 20.8504C50.9347 20.9251 50.8755 21.0169 50.8382 21.1258C50.8009 21.2316 50.7822 21.3499 50.7822 21.4806C50.7822 21.6081 50.8024 21.7264 50.8429 21.8353C50.8833 21.9411 50.9456 22.0344 51.0296 22.1153C51.1136 22.1931 51.2209 22.2538 51.3516 22.2974C51.4823 22.3409 51.669 22.3627 51.9117 22.3627H52.5605V20.6124Z" fill="white"/>
<path d="M59.5054 20.169C59.5054 20.2592 59.5007 20.337 59.4914 20.4024C59.4852 20.4646 59.4743 20.5159 59.4587 20.5564C59.4432 20.5937 59.4229 20.6217 59.398 20.6404C59.3763 20.6591 59.3514 20.6684 59.3234 20.6684H57.8111V25.5366C57.8111 25.5677 57.8002 25.5957 57.7784 25.6206C57.7597 25.6455 57.7271 25.6658 57.6804 25.6813C57.6337 25.6969 57.5699 25.7093 57.489 25.7187C57.4112 25.728 57.3132 25.7327 57.195 25.7327C57.0767 25.7327 56.9772 25.728 56.8963 25.7187C56.8185 25.7093 56.7562 25.6969 56.7096 25.6813C56.6629 25.6658 56.6286 25.6455 56.6069 25.6206C56.5882 25.5957 56.5789 25.5677 56.5789 25.5366V20.6684H55.0666C55.0355 20.6684 55.009 20.6591 54.9872 20.6404C54.9655 20.6217 54.9468 20.5937 54.9312 20.5564C54.9157 20.5159 54.9032 20.4646 54.8939 20.4024C54.8877 20.337 54.8846 20.2592 54.8846 20.169C54.8846 20.0756 54.8877 19.9963 54.8939 19.9309C54.9032 19.8656 54.9157 19.8143 54.9312 19.7769C54.9468 19.7365 54.9655 19.7085 54.9872 19.6929C55.009 19.6742 55.0355 19.6649 55.0666 19.6649H59.3234C59.3514 19.6649 59.3763 19.6742 59.398 19.6929C59.4229 19.7085 59.4432 19.7365 59.4587 19.7769C59.4743 19.8143 59.4852 19.8656 59.4914 19.9309C59.5007 19.9963 59.5054 20.0756 59.5054 20.169Z" fill="white"/>
<path d="M65.3161 25.5366C65.3161 25.5677 65.3052 25.5957 65.2834 25.6206C65.2647 25.6455 65.2321 25.6658 65.1854 25.6813C65.1387 25.6969 65.0765 25.7093 64.9987 25.7187C64.9209 25.728 64.8229 25.7327 64.7046 25.7327C64.5833 25.7327 64.4821 25.728 64.4012 25.7187C64.3234 25.7093 64.2612 25.6969 64.2145 25.6813C64.171 25.6658 64.1383 25.6455 64.1165 25.6206C64.0978 25.5957 64.0885 25.5677 64.0885 25.5366V23.0955H61.8294V25.5366C61.8294 25.5677 61.8201 25.5957 61.8014 25.6206C61.7828 25.6455 61.7501 25.6658 61.7034 25.6813C61.6567 25.6969 61.5945 25.7093 61.5167 25.7187C61.4389 25.728 61.3393 25.7327 61.218 25.7327C61.0998 25.7327 61.0002 25.728 60.9193 25.7187C60.8415 25.7093 60.7792 25.6969 60.7326 25.6813C60.6859 25.6658 60.6517 25.6455 60.6299 25.6206C60.6112 25.5957 60.6019 25.5677 60.6019 25.5366V19.8329C60.6019 19.8018 60.6112 19.7738 60.6299 19.7489C60.6517 19.724 60.6859 19.7038 60.7326 19.6882C60.7792 19.6727 60.8415 19.6602 60.9193 19.6509C61.0002 19.6416 61.0998 19.6369 61.218 19.6369C61.3393 19.6369 61.4389 19.6416 61.5167 19.6509C61.5945 19.6602 61.6567 19.6727 61.7034 19.6882C61.7501 19.7038 61.7828 19.724 61.8014 19.7489C61.8201 19.7738 61.8294 19.8018 61.8294 19.8329V22.05H64.0885V19.8329C64.0885 19.8018 64.0978 19.7738 64.1165 19.7489C64.1383 19.724 64.171 19.7038 64.2145 19.6882C64.2612 19.6727 64.3234 19.6602 64.4012 19.6509C64.4821 19.6416 64.5833 19.6369 64.7046 19.6369C64.8229 19.6369 64.9209 19.6416 64.9987 19.6509C65.0765 19.6602 65.1387 19.6727 65.1854 19.6882C65.2321 19.7038 65.2647 19.724 65.2834 19.7489C65.3052 19.7738 65.3161 19.8018 65.3161 19.8329V25.5366Z" fill="white"/>
<path d="M71.9296 25.546C71.9296 25.5771 71.9187 25.6051 71.8969 25.63C71.8782 25.6518 71.8455 25.6704 71.7989 25.686C71.7522 25.7015 71.6884 25.7124 71.6075 25.7187C71.5297 25.728 71.4317 25.7327 71.3134 25.7327C71.1952 25.7327 71.0956 25.728 71.0147 25.7187C70.9369 25.7124 70.8747 25.7015 70.828 25.686C70.7845 25.6704 70.7533 25.6518 70.7347 25.63C70.716 25.6051 70.7067 25.5771 70.7067 25.546V22.3627C70.7067 22.2414 70.7082 22.1231 70.7113 22.008C70.7144 21.8897 70.7191 21.7855 70.7253 21.6953H70.716C70.6911 21.7388 70.6615 21.7902 70.6273 21.8493C70.5931 21.9053 70.5558 21.966 70.5153 22.0313C70.478 22.0936 70.4375 22.1589 70.3939 22.2274C70.3504 22.2927 70.3068 22.3565 70.2633 22.4187L68.1629 25.5506C68.138 25.5849 68.1115 25.6144 68.0835 25.6393C68.0586 25.6642 68.0244 25.6844 67.9808 25.7C67.9404 25.7124 67.889 25.7202 67.8268 25.7233C67.7677 25.7295 67.6899 25.7327 67.5934 25.7327C67.4721 25.7327 67.3741 25.728 67.2994 25.7187C67.2247 25.7124 67.1656 25.7015 67.122 25.686C67.0816 25.6704 67.0536 25.6502 67.038 25.6253C67.0224 25.6004 67.0147 25.5708 67.0147 25.5366V19.8236C67.0147 19.7925 67.024 19.766 67.0427 19.7442C67.0645 19.7193 67.0987 19.6991 67.1454 19.6836C67.1951 19.668 67.2589 19.6571 67.3367 19.6509C67.4145 19.6416 67.5125 19.6369 67.6308 19.6369C67.7521 19.6369 67.8517 19.6416 67.9295 19.6509C68.0073 19.6571 68.0695 19.668 68.1162 19.6836C68.1629 19.6991 68.1955 19.7193 68.2142 19.7442C68.2329 19.766 68.2422 19.7925 68.2422 19.8236V23.0255C68.2422 23.1251 68.2407 23.2309 68.2376 23.3429C68.2344 23.4549 68.2298 23.5638 68.2236 23.6696H68.2329C68.2858 23.5763 68.3527 23.4642 68.4336 23.3336C68.5145 23.2029 68.5985 23.0753 68.6856 22.9508L70.786 19.8189C70.8078 19.7878 70.8311 19.7614 70.856 19.7396C70.8809 19.7147 70.9136 19.6945 70.954 19.6789C70.9976 19.6633 71.0505 19.6524 71.1127 19.6462C71.175 19.64 71.2543 19.6369 71.3508 19.6369C71.469 19.6369 71.5639 19.6416 71.6355 19.6509C71.7102 19.6571 71.7693 19.668 71.8129 19.6836C71.8564 19.6991 71.886 19.7193 71.9016 19.7442C71.9202 19.766 71.9296 19.794 71.9296 19.8283V25.546Z" fill="white"/>
<path d="M78.1043 25.5413C78.1043 25.5755 78.095 25.6051 78.0763 25.63C78.0576 25.6518 78.0234 25.6704 77.9736 25.686C77.9269 25.7015 77.8631 25.7124 77.7822 25.7187C77.7013 25.728 77.5971 25.7327 77.4695 25.7327C77.3357 25.7327 77.2268 25.728 77.1428 25.7187C77.0619 25.7124 76.9965 25.7015 76.9468 25.686C76.897 25.6673 76.8596 25.644 76.8347 25.616C76.8098 25.5849 76.7912 25.5475 76.7787 25.5039L76.2933 24.1597C76.2248 23.9637 76.1533 23.8003 76.0786 23.6696C76.0039 23.5358 75.9215 23.4285 75.8312 23.3476C75.741 23.2635 75.6383 23.2044 75.5232 23.1702C75.408 23.136 75.2789 23.1188 75.1358 23.1188H74.8604V25.5366C74.8604 25.5708 74.851 25.6004 74.8324 25.6253C74.8137 25.6471 74.781 25.6673 74.7344 25.686C74.6877 25.7015 74.6254 25.7124 74.5477 25.7187C74.4699 25.728 74.3703 25.7327 74.2489 25.7327C74.1307 25.7327 74.0311 25.728 73.9502 25.7187C73.8724 25.7124 73.8102 25.7015 73.7635 25.686C73.7168 25.6673 73.6826 25.6471 73.6608 25.6253C73.6422 25.6004 73.6328 25.5708 73.6328 25.5366V19.8283C73.6328 19.794 73.6422 19.766 73.6608 19.7442C73.6826 19.7193 73.7168 19.6991 73.7635 19.6836C73.8102 19.668 73.8724 19.6571 73.9502 19.6509C74.0311 19.6416 74.1307 19.6369 74.2489 19.6369C74.3703 19.6369 74.4699 19.6416 74.5477 19.6509C74.6254 19.6571 74.6877 19.668 74.7344 19.6836C74.781 19.6991 74.8137 19.7193 74.8324 19.7442C74.851 19.766 74.8604 19.794 74.8604 19.8283V22.0967H75.1358C75.2758 22.0967 75.3987 22.078 75.5045 22.0407C75.6103 22.0033 75.7052 21.9442 75.7892 21.8633C75.8763 21.7824 75.9541 21.6781 76.0226 21.5506C76.0942 21.4199 76.1626 21.2596 76.228 21.0698L76.634 19.8656C76.6496 19.822 76.6683 19.7862 76.69 19.7582C76.7118 19.7271 76.7461 19.7038 76.7927 19.6882C76.8425 19.6696 76.9063 19.6571 76.9841 19.6509C77.065 19.6416 77.1724 19.6369 77.3062 19.6369C77.4275 19.6369 77.5271 19.6416 77.6049 19.6509C77.6858 19.6571 77.748 19.668 77.7916 19.6836C77.8382 19.696 77.8694 19.7147 77.8849 19.7396C77.9005 19.7614 77.9083 19.7894 77.9083 19.8236C77.9083 19.864 77.9005 19.9138 77.8849 19.9729C77.8725 20.0321 77.8491 20.1099 77.8149 20.2063L77.4088 21.2799C77.3342 21.479 77.2595 21.6486 77.1848 21.7886C77.1101 21.9286 77.0308 22.0484 76.9468 22.148C76.8659 22.2445 76.7787 22.3238 76.6854 22.3861C76.5951 22.4483 76.494 22.4996 76.382 22.5401V22.5447C76.5065 22.5976 76.6185 22.6583 76.718 22.7268C76.8207 22.7921 76.9156 22.8761 77.0028 22.9788C77.093 23.0815 77.1786 23.2075 77.2595 23.3569C77.3404 23.5063 77.4228 23.6898 77.5069 23.9077L78.0016 25.1586C78.0514 25.2861 78.081 25.3748 78.0903 25.4246C78.0996 25.4713 78.1043 25.5102 78.1043 25.5413Z" fill="white"/>
<path d="M86.8971 25.2472C86.9345 25.3593 86.9578 25.4479 86.9672 25.5133C86.9765 25.5786 86.964 25.6284 86.9298 25.6626C86.8956 25.6938 86.8349 25.7124 86.7478 25.7187C86.6607 25.728 86.5409 25.7327 86.3884 25.7327C86.2297 25.7327 86.1052 25.7295 86.015 25.7233C85.9279 25.7202 85.861 25.7124 85.8143 25.7C85.7676 25.6844 85.7349 25.6642 85.7163 25.6393C85.6976 25.6144 85.682 25.5817 85.6696 25.5413L85.2635 24.3277H82.9951L82.6124 25.5086C82.5999 25.5522 82.5828 25.5895 82.561 25.6206C82.5424 25.6486 82.5097 25.672 82.463 25.6906C82.4194 25.7062 82.3557 25.7171 82.2716 25.7233C82.1907 25.7295 82.0834 25.7327 81.9496 25.7327C81.8064 25.7327 81.6944 25.728 81.6135 25.7187C81.5326 25.7093 81.4766 25.6875 81.4455 25.6533C81.4144 25.616 81.4035 25.5646 81.4128 25.4993C81.4221 25.4339 81.4455 25.3468 81.4828 25.2379L83.3452 19.8796C83.3638 19.8267 83.3856 19.7847 83.4105 19.7536C83.4354 19.7193 83.4743 19.6945 83.5272 19.6789C83.5832 19.6602 83.6594 19.6493 83.7559 19.6462C83.8524 19.64 83.9799 19.6369 84.1386 19.6369C84.3222 19.6369 84.4685 19.64 84.5774 19.6462C84.6863 19.6493 84.7703 19.6602 84.8294 19.6789C84.8917 19.6945 84.9352 19.7193 84.9601 19.7536C84.9881 19.7878 85.0115 19.8345 85.0301 19.8936L86.8971 25.2472ZM84.1246 20.8178H84.12L83.2658 23.3849H84.9788L84.1246 20.8178Z" fill="white"/>
<path d="M92.2644 21.4992C92.2644 21.8384 92.2115 22.1387 92.1057 22.4001C91.9999 22.6614 91.8459 22.8824 91.6436 23.0628C91.4414 23.2402 91.1924 23.3756 90.8968 23.4689C90.6043 23.5623 90.2589 23.6089 89.8606 23.6089H89.3565V25.5366C89.3565 25.5677 89.3457 25.5957 89.3239 25.6206C89.3052 25.6455 89.2725 25.6658 89.2259 25.6813C89.1792 25.6969 89.1169 25.7093 89.0392 25.7187C88.9614 25.728 88.8618 25.7327 88.7404 25.7327C88.6222 25.7327 88.5226 25.728 88.4417 25.7187C88.3639 25.7093 88.3017 25.6969 88.255 25.6813C88.2083 25.6658 88.1757 25.6455 88.157 25.6206C88.1383 25.5957 88.129 25.5677 88.129 25.5366V20.1036C88.129 19.9574 88.1663 19.8485 88.241 19.7769C88.3188 19.7022 88.4199 19.6649 88.5444 19.6649H89.968C90.1111 19.6649 90.2465 19.6711 90.3741 19.6836C90.5048 19.6929 90.6603 19.7162 90.8408 19.7536C91.0213 19.7878 91.2033 19.8531 91.3869 19.9496C91.5736 20.0461 91.7323 20.169 91.863 20.3183C91.9937 20.4646 92.0933 20.6373 92.1617 20.8364C92.2302 21.0325 92.2644 21.2534 92.2644 21.4992ZM90.9808 21.5879C90.9808 21.3763 90.9435 21.2021 90.8688 21.0651C90.7941 20.9282 90.7023 20.8271 90.5934 20.7618C90.4845 20.6964 90.3694 20.656 90.248 20.6404C90.1298 20.6217 90.0069 20.6124 89.8793 20.6124H89.3565V22.6614H89.9073C90.1033 22.6614 90.2667 22.635 90.3974 22.5821C90.5312 22.5292 90.6401 22.4561 90.7241 22.3627C90.8081 22.2663 90.8719 22.1527 90.9155 22.022C90.9591 21.8882 90.9808 21.7435 90.9808 21.5879Z" fill="white"/>
<path d="M97.7063 25.2426C97.7624 25.3515 97.7981 25.4386 97.8137 25.5039C97.8324 25.5693 97.823 25.6191 97.7857 25.6533C97.7484 25.6875 97.6799 25.7093 97.5803 25.7187C97.4839 25.728 97.3485 25.7327 97.1742 25.7327C97.028 25.7327 96.9129 25.7295 96.8288 25.7233C96.7448 25.7171 96.6779 25.7078 96.6282 25.6953C96.5815 25.6798 96.5472 25.6595 96.5255 25.6346C96.5037 25.6097 96.485 25.5786 96.4695 25.5413L95.3353 23.3616L94.2057 25.5413C94.187 25.5786 94.1668 25.6097 94.145 25.6346C94.1233 25.6595 94.0875 25.6798 94.0377 25.6953C93.991 25.7078 93.9241 25.7171 93.837 25.7233C93.753 25.7295 93.6409 25.7327 93.5009 25.7327C93.3391 25.7327 93.2131 25.728 93.1228 25.7187C93.0357 25.7093 92.9766 25.6875 92.9455 25.6533C92.9144 25.6191 92.9081 25.5693 92.9268 25.5039C92.9455 25.4386 92.9844 25.3515 93.0435 25.2426L94.4904 22.6054L93.1462 20.127C93.0902 20.015 93.0513 19.9263 93.0295 19.8609C93.0108 19.7925 93.0186 19.7427 93.0528 19.7116C93.0902 19.6773 93.1571 19.6571 93.2535 19.6509C93.35 19.6416 93.4869 19.6369 93.6643 19.6369C93.8105 19.6369 93.9257 19.64 94.0097 19.6462C94.0968 19.6524 94.1653 19.6633 94.215 19.6789C94.2648 19.6913 94.2991 19.71 94.3177 19.7349C94.3395 19.7598 94.3597 19.7909 94.3784 19.8283L95.4379 21.8259L96.4695 19.8283C96.4881 19.7909 96.5068 19.7598 96.5255 19.7349C96.5472 19.71 96.5799 19.6913 96.6235 19.6789C96.6702 19.6633 96.7324 19.6524 96.8102 19.6462C96.8911 19.64 97.0015 19.6369 97.1416 19.6369C97.2972 19.6369 97.4201 19.6416 97.5103 19.6509C97.6005 19.6571 97.6628 19.6773 97.697 19.7116C97.7312 19.7458 97.739 19.7956 97.7203 19.8609C97.7048 19.9263 97.6706 20.015 97.6177 20.127L96.2734 22.5914L97.7063 25.2426Z" fill="white"/>
<path d="M103.965 25.546C103.965 25.5771 103.954 25.6051 103.932 25.63C103.914 25.6518 103.881 25.6704 103.834 25.686C103.788 25.7015 103.724 25.7124 103.643 25.7187C103.565 25.728 103.467 25.7327 103.349 25.7327C103.231 25.7327 103.131 25.728 103.05 25.7187C102.972 25.7124 102.91 25.7015 102.864 25.686C102.82 25.6704 102.789 25.6518 102.77 25.63C102.752 25.6051 102.742 25.5771 102.742 25.546V22.3627C102.742 22.2414 102.744 22.1231 102.747 22.008C102.75 21.8897 102.755 21.7855 102.761 21.6953H102.752C102.727 21.7388 102.697 21.7902 102.663 21.8493C102.629 21.9053 102.591 21.966 102.551 22.0313C102.514 22.0936 102.473 22.1589 102.429 22.2274C102.386 22.2927 102.342 22.3565 102.299 22.4187L100.198 25.5506C100.174 25.5849 100.147 25.6144 100.119 25.6393C100.094 25.6642 100.06 25.6844 100.016 25.7C99.9759 25.7124 99.9246 25.7202 99.8624 25.7233C99.8032 25.7295 99.7254 25.7327 99.629 25.7327C99.5076 25.7327 99.4096 25.728 99.3349 25.7187C99.2603 25.7124 99.2011 25.7015 99.1576 25.686C99.1171 25.6704 99.0891 25.6502 99.0736 25.6253C99.058 25.6004 99.0502 25.5708 99.0502 25.5366V19.8236C99.0502 19.7925 99.0596 19.766 99.0782 19.7442C99.1 19.7193 99.1342 19.6991 99.1809 19.6836C99.2307 19.668 99.2945 19.6571 99.3723 19.6509C99.4501 19.6416 99.5481 19.6369 99.6663 19.6369C99.7877 19.6369 99.8873 19.6416 99.965 19.6509C100.043 19.6571 100.105 19.668 100.152 19.6836C100.198 19.6991 100.231 19.7193 100.25 19.7442C100.268 19.766 100.278 19.7925 100.278 19.8236V23.0255C100.278 23.1251 100.276 23.2309 100.273 23.3429C100.27 23.4549 100.265 23.5638 100.259 23.6696H100.268C100.321 23.5763 100.388 23.4642 100.469 23.3336C100.55 23.2029 100.634 23.0753 100.721 22.9508L102.822 19.8189C102.843 19.7878 102.867 19.7614 102.892 19.7396C102.916 19.7147 102.949 19.6945 102.99 19.6789C103.033 19.6633 103.086 19.6524 103.148 19.6462C103.211 19.64 103.29 19.6369 103.386 19.6369C103.505 19.6369 103.599 19.6416 103.671 19.6509C103.746 19.6571 103.805 19.668 103.848 19.6836C103.892 19.6991 103.922 19.7193 103.937 19.7442C103.956 19.766 103.965 19.794 103.965 19.8283V25.546Z" fill="white"/>
<path d="M109.687 20.169C109.687 20.2592 109.682 20.337 109.673 20.4024C109.667 20.4646 109.656 20.5159 109.64 20.5564C109.625 20.5937 109.605 20.6217 109.58 20.6404C109.558 20.6591 109.533 20.6684 109.505 20.6684H107.993V25.5366C107.993 25.5677 107.982 25.5957 107.96 25.6206C107.941 25.6455 107.909 25.6658 107.862 25.6813C107.815 25.6969 107.752 25.7093 107.671 25.7187C107.593 25.728 107.495 25.7327 107.377 25.7327C107.258 25.7327 107.159 25.728 107.078 25.7187C107 25.7093 106.938 25.6969 106.891 25.6813C106.845 25.6658 106.81 25.6455 106.789 25.6206C106.77 25.5957 106.761 25.5677 106.761 25.5366V20.6684H105.248C105.217 20.6684 105.191 20.6591 105.169 20.6404C105.147 20.6217 105.128 20.5937 105.113 20.5564C105.097 20.5159 105.085 20.4646 105.076 20.4024C105.069 20.337 105.066 20.2592 105.066 20.169C105.066 20.0756 105.069 19.9963 105.076 19.9309C105.085 19.8656 105.097 19.8143 105.113 19.7769C105.128 19.7365 105.147 19.7085 105.169 19.6929C105.191 19.6742 105.217 19.6649 105.248 19.6649H109.505C109.533 19.6649 109.558 19.6742 109.58 19.6929C109.605 19.7085 109.625 19.7365 109.64 19.7769C109.656 19.8143 109.667 19.8656 109.673 19.9309C109.682 19.9963 109.687 20.0756 109.687 20.169Z" fill="white"/>
<path d="M114.364 25.2239C114.364 25.3141 114.359 25.3904 114.35 25.4526C114.343 25.5117 114.332 25.56 114.317 25.5973C114.301 25.6346 114.281 25.6626 114.256 25.6813C114.234 25.6969 114.21 25.7046 114.182 25.7046H111.148C111.045 25.7046 110.958 25.6751 110.886 25.616C110.818 25.5537 110.784 25.4542 110.784 25.3172V20.0523C110.784 19.9154 110.818 19.8174 110.886 19.7582C110.958 19.696 111.045 19.6649 111.148 19.6649H114.163C114.191 19.6649 114.216 19.6727 114.238 19.6882C114.259 19.7038 114.278 19.7318 114.294 19.7722C114.309 19.8096 114.32 19.8594 114.326 19.9216C114.336 19.9807 114.34 20.057 114.34 20.1503C114.34 20.2374 114.336 20.3121 114.326 20.3744C114.32 20.4335 114.309 20.4817 114.294 20.519C114.278 20.5564 114.259 20.5844 114.238 20.6031C114.216 20.6186 114.191 20.6264 114.163 20.6264H112.006V22.1013H113.831C113.859 22.1013 113.884 22.1107 113.906 22.1293C113.931 22.1449 113.951 22.1713 113.967 22.2087C113.982 22.2429 113.993 22.2911 114 22.3534C114.009 22.4125 114.014 22.4856 114.014 22.5728C114.014 22.663 114.009 22.7377 114 22.7968C113.993 22.8559 113.982 22.9041 113.967 22.9415C113.951 22.9757 113.931 23.0006 113.906 23.0162C113.884 23.0317 113.859 23.0395 113.831 23.0395H112.006V24.7431H114.182C114.21 24.7431 114.234 24.7525 114.256 24.7711C114.281 24.7867 114.301 24.8132 114.317 24.8505C114.332 24.8878 114.343 24.9376 114.35 24.9999C114.359 25.059 114.364 25.1337 114.364 25.2239Z" fill="white"/>
<path d="M120.305 25.5413C120.305 25.5755 120.296 25.6051 120.277 25.63C120.258 25.6518 120.224 25.6704 120.174 25.686C120.128 25.7015 120.064 25.7124 119.983 25.7187C119.902 25.728 119.798 25.7327 119.67 25.7327C119.536 25.7327 119.427 25.728 119.343 25.7187C119.263 25.7124 119.197 25.7015 119.147 25.686C119.098 25.6673 119.06 25.644 119.035 25.616C119.01 25.5849 118.992 25.5475 118.979 25.5039L118.494 24.1597C118.425 23.9637 118.354 23.8003 118.279 23.6696C118.205 23.5358 118.122 23.4285 118.032 23.3476C117.942 23.2635 117.839 23.2044 117.724 23.1702C117.609 23.136 117.48 23.1188 117.336 23.1188H117.061V25.5366C117.061 25.5708 117.052 25.6004 117.033 25.6253C117.014 25.6471 116.982 25.6673 116.935 25.686C116.888 25.7015 116.826 25.7124 116.748 25.7187C116.671 25.728 116.571 25.7327 116.45 25.7327C116.331 25.7327 116.232 25.728 116.151 25.7187C116.073 25.7124 116.011 25.7015 115.964 25.686C115.917 25.6673 115.883 25.6471 115.861 25.6253C115.843 25.6004 115.833 25.5708 115.833 25.5366V19.8283C115.833 19.794 115.843 19.766 115.861 19.7442C115.883 19.7193 115.917 19.6991 115.964 19.6836C116.011 19.668 116.073 19.6571 116.151 19.6509C116.232 19.6416 116.331 19.6369 116.45 19.6369C116.571 19.6369 116.671 19.6416 116.748 19.6509C116.826 19.6571 116.888 19.668 116.935 19.6836C116.982 19.6991 117.014 19.7193 117.033 19.7442C117.052 19.766 117.061 19.794 117.061 19.8283V22.0967H117.336C117.476 22.0967 117.599 22.078 117.705 22.0407C117.811 22.0033 117.906 21.9442 117.99 21.8633C118.077 21.7824 118.155 21.6781 118.223 21.5506C118.295 21.4199 118.363 21.2596 118.429 21.0698L118.835 19.8656C118.85 19.822 118.869 19.7862 118.891 19.7582C118.912 19.7271 118.947 19.7038 118.993 19.6882C119.043 19.6696 119.107 19.6571 119.185 19.6509C119.266 19.6416 119.373 19.6369 119.507 19.6369C119.628 19.6369 119.728 19.6416 119.806 19.6509C119.886 19.6571 119.949 19.668 119.992 19.6836C120.039 19.696 120.07 19.7147 120.086 19.7396C120.101 19.7614 120.109 19.7894 120.109 19.8236C120.109 19.864 120.101 19.9138 120.086 19.9729C120.073 20.0321 120.05 20.1099 120.016 20.2063L119.609 21.2799C119.535 21.479 119.46 21.6486 119.385 21.7886C119.311 21.9286 119.231 22.0484 119.147 22.148C119.066 22.2445 118.979 22.3238 118.886 22.3861C118.796 22.4483 118.695 22.4996 118.583 22.5401V22.5447C118.707 22.5976 118.819 22.6583 118.919 22.7268C119.021 22.7921 119.116 22.8761 119.203 22.9788C119.294 23.0815 119.379 23.2075 119.46 23.3569C119.541 23.5063 119.623 23.6898 119.707 23.9077L120.202 25.1586C120.252 25.2861 120.282 25.3748 120.291 25.4246C120.3 25.4713 120.305 25.5102 120.305 25.5413Z" fill="white"/>
<path d="M125.546 20.169C125.546 20.2592 125.542 20.337 125.532 20.4024C125.526 20.4646 125.515 20.5159 125.499 20.5564C125.484 20.5937 125.464 20.6217 125.439 20.6404C125.417 20.6591 125.392 20.6684 125.364 20.6684H123.852V25.5366C123.852 25.5677 123.841 25.5957 123.819 25.6206C123.801 25.6455 123.768 25.6658 123.721 25.6813C123.675 25.6969 123.611 25.7093 123.53 25.7187C123.452 25.728 123.354 25.7327 123.236 25.7327C123.118 25.7327 123.018 25.728 122.937 25.7187C122.859 25.7093 122.797 25.6969 122.75 25.6813C122.704 25.6658 122.669 25.6455 122.648 25.6206C122.629 25.5957 122.62 25.5677 122.62 25.5366V20.6684H121.107C121.076 20.6684 121.05 20.6591 121.028 20.6404C121.006 20.6217 120.988 20.5937 120.972 20.5564C120.956 20.5159 120.944 20.4646 120.935 20.4024C120.928 20.337 120.925 20.2592 120.925 20.169C120.925 20.0756 120.928 19.9963 120.935 19.9309C120.944 19.8656 120.956 19.8143 120.972 19.7769C120.988 19.7365 121.006 19.7085 121.028 19.6929C121.05 19.6742 121.076 19.6649 121.107 19.6649H125.364C125.392 19.6649 125.417 19.6742 125.439 19.6929C125.464 19.7085 125.484 19.7365 125.499 19.7769C125.515 19.8143 125.526 19.8656 125.532 19.9309C125.542 19.9963 125.546 20.0756 125.546 20.169Z" fill="white"/>
<path d="M129.616 24.0383C129.479 24.3869 129.344 24.6747 129.21 24.9018C129.079 25.129 128.938 25.3095 128.785 25.4433C128.636 25.574 128.471 25.6642 128.29 25.714C128.113 25.7669 127.909 25.7933 127.679 25.7933C127.595 25.7933 127.512 25.7871 127.431 25.7747C127.351 25.7653 127.274 25.7513 127.203 25.7327C127.131 25.714 127.069 25.6922 127.016 25.6673C126.963 25.6424 126.924 25.6191 126.899 25.5973C126.874 25.5755 126.854 25.5522 126.839 25.5273C126.826 25.4993 126.815 25.4635 126.806 25.4199C126.797 25.3764 126.789 25.3219 126.783 25.2566C126.78 25.1881 126.778 25.1041 126.778 25.0045C126.778 24.824 126.79 24.6965 126.815 24.6218C126.843 24.544 126.885 24.5051 126.941 24.5051C126.969 24.5051 127.001 24.516 127.035 24.5378C127.069 24.5596 127.109 24.5829 127.156 24.6078C127.206 24.6327 127.262 24.656 127.324 24.6778C127.389 24.6965 127.466 24.7058 127.553 24.7058C127.618 24.7058 127.679 24.6996 127.735 24.6871C127.791 24.6716 127.844 24.6436 127.894 24.6031C127.943 24.5627 127.993 24.5067 128.043 24.4351C128.093 24.3604 128.146 24.2639 128.202 24.1457L126.213 20.099C126.17 20.0025 126.143 19.9247 126.134 19.8656C126.128 19.8034 126.143 19.7551 126.181 19.7209C126.218 19.6867 126.28 19.6649 126.367 19.6556C126.458 19.6431 126.577 19.6369 126.727 19.6369C126.873 19.6369 126.99 19.64 127.077 19.6462C127.164 19.6524 127.234 19.6664 127.287 19.6882C127.34 19.7069 127.38 19.7365 127.408 19.7769C127.436 19.8143 127.464 19.864 127.492 19.9263L128.342 21.7559C128.435 21.952 128.524 22.148 128.608 22.344C128.692 22.537 128.773 22.733 128.85 22.9321H128.864C128.927 22.7237 128.992 22.5214 129.06 22.3254C129.132 22.1262 129.21 21.9177 129.294 21.6999L129.989 19.8423C130.005 19.7987 130.025 19.7645 130.05 19.7396C130.075 19.7116 130.112 19.6898 130.162 19.6742C130.212 19.6587 130.28 19.6493 130.367 19.6462C130.454 19.64 130.568 19.6369 130.708 19.6369C130.851 19.6369 130.965 19.6416 131.049 19.6509C131.133 19.6602 131.193 19.6789 131.231 19.7069C131.268 19.7318 131.285 19.7676 131.282 19.8143C131.279 19.8609 131.264 19.9216 131.235 19.9963L129.616 24.0383Z" fill="white"/>
<path d="M136.5 21.4992C136.5 21.8384 136.447 22.1387 136.341 22.4001C136.236 22.6614 136.082 22.8824 135.879 23.0628C135.677 23.2402 135.428 23.3756 135.132 23.4689C134.84 23.5623 134.495 23.6089 134.096 23.6089H133.592V25.5366C133.592 25.5677 133.581 25.5957 133.56 25.6206C133.541 25.6455 133.508 25.6658 133.462 25.6813C133.415 25.6969 133.353 25.7093 133.275 25.7187C133.197 25.728 133.097 25.7327 132.976 25.7327C132.858 25.7327 132.758 25.728 132.677 25.7187C132.6 25.7093 132.537 25.6969 132.491 25.6813C132.444 25.6658 132.411 25.6455 132.393 25.6206C132.374 25.5957 132.365 25.5677 132.365 25.5366V20.1036C132.365 19.9574 132.402 19.8485 132.477 19.7769C132.554 19.7022 132.656 19.6649 132.78 19.6649H134.204C134.347 19.6649 134.482 19.6711 134.61 19.6836C134.74 19.6929 134.896 19.7162 135.076 19.7536C135.257 19.7878 135.439 19.8531 135.623 19.9496C135.809 20.0461 135.968 20.169 136.099 20.3183C136.229 20.4646 136.329 20.6373 136.397 20.8364C136.466 21.0325 136.5 21.2534 136.5 21.4992ZM135.217 21.5879C135.217 21.3763 135.179 21.2021 135.104 21.0651C135.03 20.9282 134.938 20.8271 134.829 20.7618C134.72 20.6964 134.605 20.656 134.484 20.6404C134.365 20.6217 134.243 20.6124 134.115 20.6124H133.592V22.6614H134.143C134.339 22.6614 134.502 22.635 134.633 22.5821C134.767 22.5292 134.876 22.4561 134.96 22.3627C135.044 22.2663 135.108 22.1527 135.151 22.022C135.195 21.8882 135.217 21.7435 135.217 21.5879Z" fill="white"/>
<path d="M144.15 25.546C144.15 25.5771 144.139 25.6051 144.117 25.63C144.098 25.6518 144.066 25.6704 144.019 25.686C143.972 25.7015 143.909 25.7124 143.828 25.7187C143.75 25.728 143.652 25.7327 143.534 25.7327C143.415 25.7327 143.317 25.728 143.24 25.7187C143.162 25.7124 143.098 25.7015 143.048 25.686C143.002 25.6704 142.967 25.6518 142.946 25.63C142.927 25.6051 142.918 25.5771 142.918 25.546V19.8236C142.918 19.7925 142.927 19.766 142.946 19.7442C142.967 19.7193 143.002 19.6991 143.048 19.6836C143.098 19.668 143.162 19.6571 143.24 19.6509C143.32 19.6416 143.419 19.6369 143.534 19.6369C143.652 19.6369 143.75 19.6416 143.828 19.6509C143.909 19.6571 143.972 19.668 144.019 19.6836C144.066 19.6991 144.098 19.7193 144.117 19.7442C144.139 19.766 144.15 19.7925 144.15 19.8236V25.546ZM142.185 23.7116C142.185 23.9979 142.14 24.2608 142.049 24.5004C141.962 24.7369 141.824 24.9438 141.634 25.1212C141.444 25.2986 141.195 25.4402 140.887 25.546C140.582 25.6518 140.165 25.7046 139.636 25.7046H138.213C138.16 25.7046 138.11 25.6984 138.063 25.686C138.02 25.6704 137.981 25.6471 137.947 25.616C137.912 25.5817 137.884 25.5413 137.863 25.4946C137.844 25.4448 137.835 25.3857 137.835 25.3172V19.8236C137.835 19.7925 137.844 19.766 137.863 19.7442C137.884 19.7193 137.919 19.6991 137.965 19.6836C138.015 19.668 138.079 19.6571 138.157 19.6509C138.238 19.6416 138.336 19.6369 138.451 19.6369C138.572 19.6369 138.672 19.6416 138.749 19.6509C138.827 19.6571 138.889 19.668 138.936 19.6836C138.983 19.6991 139.015 19.7193 139.034 19.7442C139.053 19.766 139.062 19.7925 139.062 19.8236V21.91H139.823C140.274 21.91 140.634 21.9489 140.901 22.0267C141.172 22.1044 141.401 22.2196 141.587 22.372C141.777 22.5245 141.923 22.7143 142.026 22.9415C142.132 23.1686 142.185 23.4253 142.185 23.7116ZM140.924 23.8143C140.924 23.6649 140.903 23.5311 140.859 23.4129C140.816 23.2947 140.749 23.1935 140.658 23.1095C140.568 23.0255 140.453 22.9602 140.313 22.9135C140.173 22.8668 139.966 22.8435 139.692 22.8435H139.062V24.7618H139.711C139.997 24.7618 140.212 24.7338 140.355 24.6778C140.501 24.6187 140.615 24.544 140.696 24.4538C140.777 24.3604 140.834 24.2577 140.868 24.1457C140.906 24.0337 140.924 23.9232 140.924 23.8143Z" fill="white"/>
<path d="M151.478 16.2766C151.478 16.582 151.587 16.8162 151.804 16.9792C152.021 17.1353 152.276 17.2134 152.568 17.2134C152.873 17.2134 153.128 17.1353 153.331 16.9792C153.535 16.8162 153.637 16.582 153.637 16.2766C153.637 16.1815 153.623 16.0797 153.596 15.9711C153.569 15.8557 153.515 15.747 153.433 15.6452C153.359 15.5434 153.25 15.4585 153.107 15.3906C152.972 15.3227 152.792 15.2888 152.568 15.2888C152.425 15.2888 152.286 15.3126 152.15 15.3601C152.021 15.4008 151.906 15.4619 151.804 15.5434C151.702 15.6248 151.621 15.7267 151.56 15.8489C151.505 15.9711 151.478 16.1136 151.478 16.2766ZM150.164 16.1442C150.164 15.8251 150.236 15.5434 150.378 15.299C150.521 15.0546 150.704 14.8509 150.928 14.688C151.159 14.5251 151.417 14.4029 151.702 14.3214C151.987 14.24 152.276 14.1992 152.568 14.1992C153.009 14.1992 153.382 14.2671 153.688 14.4029C153.993 14.5387 154.238 14.705 154.421 14.9018C154.611 15.0919 154.747 15.299 154.828 15.523C154.91 15.7402 154.95 15.9371 154.95 16.1136C154.95 16.4666 154.862 16.7755 154.686 17.0403C154.516 17.305 154.258 17.4951 153.912 17.6105V17.6309C154.339 17.7259 154.669 17.9296 154.9 18.2419C155.13 18.5474 155.246 18.9241 155.246 19.3722C155.246 19.7523 155.168 20.0816 155.012 20.3599C154.862 20.6383 154.662 20.8691 154.411 21.0524C154.16 21.2357 153.874 21.3748 153.555 21.4699C153.236 21.5581 152.91 21.6023 152.578 21.6023C152.232 21.6023 151.896 21.5581 151.57 21.4699C151.251 21.3884 150.962 21.256 150.704 21.0727C150.453 20.8894 150.249 20.6586 150.093 20.3803C149.944 20.102 149.869 19.7693 149.869 19.3824C149.869 18.9275 149.985 18.5474 150.215 18.2419C150.453 17.9364 150.786 17.7327 151.213 17.6309V17.6105C150.867 17.5155 150.606 17.3356 150.429 17.0708C150.253 16.8061 150.164 16.4972 150.164 16.1442ZM151.315 19.3111C151.315 19.4944 151.349 19.6607 151.417 19.8101C151.485 19.9594 151.573 20.0884 151.682 20.197C151.797 20.2988 151.933 20.3803 152.089 20.4414C152.245 20.4957 152.408 20.5229 152.578 20.5229C152.754 20.5229 152.914 20.4957 153.056 20.4414C153.206 20.3803 153.335 20.2988 153.443 20.197C153.559 20.0884 153.647 19.9594 153.708 19.8101C153.769 19.6607 153.8 19.4978 153.8 19.3213C153.8 19.1515 153.766 18.9988 153.698 18.863C153.637 18.7205 153.549 18.5983 153.433 18.4964C153.325 18.3946 153.196 18.3165 153.046 18.2622C152.904 18.2079 152.748 18.1808 152.578 18.1808C152.225 18.1808 151.926 18.2792 151.682 18.4761C151.437 18.6662 151.315 18.9445 151.315 19.3111Z" fill="white"/>
<path d="M8.95703 11.2646C8.95703 10.6115 9.48647 10.082 10.1396 10.082H21.5066C22.1597 10.082 22.6891 10.6115 22.6891 11.2646V23.2604C22.6891 23.9135 22.1597 24.4429 21.5066 24.4429H10.1396C9.48647 24.4429 8.95703 23.9135 8.95703 23.2604V11.2646Z" fill="white"/>
<path fill-rule="evenodd" clip-rule="evenodd" d="M20.9785 22.6599C21.0529 22.6599 21.1131 22.6 21.1131 22.5253V21.8095C21.1131 21.7348 21.0529 21.6749 20.9785 21.6749H20.7229V20.9961C20.7229 20.9215 20.6626 20.8615 20.5882 20.8615H20.0599V16.4647H20.5795C20.654 16.4647 20.7142 16.4045 20.7142 16.3301V15.4092C20.7142 15.3816 20.7058 15.3561 20.6916 15.3348C20.6676 15.2985 20.6264 15.2745 20.5795 15.2745H20.1948C20.1919 15.2722 20.1909 15.2688 20.1877 15.2664L15.9064 11.8923C15.8577 11.8536 15.7886 11.8536 15.7399 11.8923L11.4583 15.2666C11.4554 15.269 11.4541 15.2722 11.4515 15.2748H11.0494C10.975 15.2748 10.9148 15.335 10.9148 15.4094V16.3301C10.9148 16.4045 10.975 16.4647 11.0494 16.4647H11.569V20.8615H11.0581C10.9839 20.8615 10.9234 20.9215 10.9234 20.9961V21.6749H10.6678C10.6026 21.6749 10.5482 21.7209 10.5358 21.7827H10.5332V22.5253C10.5329 22.5997 10.5934 22.6599 10.6676 22.6599H20.9785ZM15.1146 16.4647V20.8612H12.9491V16.4647H15.1146ZM16.4946 16.4647H18.6799V20.8612H16.4946V16.4647ZM15.823 12.1694L19.763 15.2745H11.8833L15.823 12.1694ZM11.184 15.5438H20.4449V16.1954H11.184V15.5438ZM11.1927 21.1305H20.4536V21.6746H11.1927V21.1305Z" fill="#6E5C31"/>
</svg>
