<svg width="64" height="99" viewBox="0 0 64 99" fill="none" xmlns="http://www.w3.org/2000/svg">
<rect x="5.55469" y="6.0957" width="3.57143" height="76.3839" fill="#AEAEAE"/>
<path d="M4.83984 82.2877C4.83984 81.7567 5.28401 81.3262 5.83191 81.3262H8.84778C9.39568 81.3262 9.83984 81.7567 9.83984 82.2877V96.0959H4.83984V82.2877Z" fill="#9F9B9B"/>
<path d="M5.04492 5.06808C5.04492 3.49012 6.32411 2.21094 7.90206 2.21094H57.2224C58.8004 2.21094 60.0796 3.49012 60.0796 5.06808V20.1769C60.0796 21.7549 58.8004 23.034 57.2224 23.034H7.90206C6.32411 23.034 5.04492 21.7549 5.04492 20.1769V5.06808Z" fill="#0D69E1"/>
<path fill-rule="evenodd" clip-rule="evenodd" d="M7.90234 0.0683594H57.2227C59.9841 0.0683594 62.2227 2.30694 62.2227 5.06836V20.1772C62.2227 22.9386 59.9841 25.1772 57.2227 25.1772H7.90234C5.14092 25.1772 2.90234 22.9386 2.90234 20.1772V5.06836C2.90234 2.30694 5.14092 0.0683594 7.90234 0.0683594ZM7.90234 2.21122C6.32439 2.21122 5.0452 3.4904 5.0452 5.06836V20.1772C5.0452 21.7551 6.32438 23.0343 7.90234 23.0343H57.2227C58.8007 23.0343 60.0799 21.7551 60.0799 20.1772V5.06836C60.0799 3.4904 58.8007 2.21122 57.2227 2.21122H7.90234Z" fill="black"/>
<path d="M5.04492 5.06808C5.04492 3.49012 6.32411 2.21094 7.90206 2.21094H57.2224C58.8004 2.21094 60.0796 3.49012 60.0796 5.06808V20.1769C60.0796 21.7549 58.8004 23.034 57.2224 23.034H7.90206C6.32411 23.034 5.04492 21.7549 5.04492 20.1769V5.06808Z" fill="#0D69E1"/>
<path fill-rule="evenodd" clip-rule="evenodd" d="M7.90095 0.783203H57.2213C59.5883 0.783203 61.507 2.70198 61.507 5.06892V20.1777C61.507 22.5447 59.5883 24.4634 57.2213 24.4634H7.90095C5.53401 24.4634 3.61523 22.5447 3.61523 20.1777V5.06892C3.61523 2.70198 5.53401 0.783203 7.90095 0.783203ZM7.90095 2.21177C6.32299 2.21177 5.04381 3.49096 5.04381 5.06892V20.1777C5.04381 21.7557 6.32299 23.0349 7.90095 23.0349H57.2213C58.7993 23.0349 60.0785 21.7557 60.0785 20.1777V5.06892C60.0785 3.49096 58.7993 2.21177 57.2213 2.21177H7.90095Z" fill="white"/>
<path d="M7.97123 13.315L16.5959 8.30077L16.5759 11.4762L23.203 11.4347L23.1806 15.0069L16.5536 15.0484L16.5344 18.223L7.97123 13.315Z" fill="white"/>
<path d="M26.6133 1.48438H28.357V24.4043H26.6133V1.48438Z" fill="white"/>
<path d="M39.0223 14.8358C39.0223 15.3729 38.9277 15.8537 38.7384 16.2783C38.5543 16.6978 38.2908 17.0533 37.9481 17.3449C37.6105 17.6313 37.2013 17.8513 36.7204 18.0047C36.2447 18.1582 35.7153 18.2349 35.1321 18.2349C34.8252 18.2349 34.5336 18.2145 34.2574 18.1735C33.9812 18.1377 33.7331 18.0917 33.5131 18.0354C33.2932 17.9741 33.1116 17.9152 32.9683 17.859C32.8302 17.7976 32.7381 17.749 32.6921 17.7132C32.6512 17.6722 32.6205 17.6288 32.6 17.5827C32.5796 17.5367 32.5617 17.483 32.5463 17.4216C32.5361 17.3551 32.5284 17.2733 32.5233 17.1761C32.5182 17.0789 32.5156 16.9638 32.5156 16.8308C32.5156 16.6875 32.5207 16.5673 32.531 16.4701C32.5412 16.3678 32.5565 16.286 32.577 16.2246C32.6026 16.1632 32.6307 16.1197 32.6614 16.0942C32.6921 16.0686 32.7279 16.0558 32.7688 16.0558C32.82 16.0558 32.8967 16.0865 32.999 16.1479C33.1064 16.2041 33.2446 16.2681 33.4134 16.3397C33.5873 16.4113 33.797 16.4778 34.0426 16.5392C34.2881 16.5955 34.5822 16.6236 34.9249 16.6236C35.2216 16.6236 35.4902 16.5929 35.7306 16.5315C35.9761 16.4701 36.1833 16.373 36.3521 16.24C36.5209 16.1018 36.6514 15.9305 36.7434 15.7259C36.8355 15.5213 36.8816 15.2757 36.8816 14.9893C36.8816 14.7437 36.8432 14.5263 36.7665 14.3371C36.6897 14.1427 36.5695 13.979 36.4058 13.846C36.2421 13.713 36.0299 13.6132 35.769 13.5467C35.5081 13.4802 35.1909 13.447 34.8175 13.447C34.5208 13.447 34.2497 13.4623 34.0042 13.493C33.7638 13.5237 33.5361 13.5391 33.3213 13.5391C33.1729 13.5391 33.0655 13.5033 32.999 13.4316C32.9376 13.3549 32.9069 13.2168 32.9069 13.0173V8.70508C32.9069 8.50047 32.9453 8.35468 33.022 8.26772C33.1039 8.17564 33.2318 8.1296 33.4057 8.1296H38.1092C38.1553 8.1296 38.1988 8.14495 38.2397 8.17564C38.2806 8.20633 38.3138 8.25493 38.3394 8.32143C38.3701 8.38793 38.3906 8.47745 38.4008 8.58998C38.4162 8.69741 38.4238 8.82785 38.4238 8.98131C38.4238 9.28823 38.3957 9.51074 38.3394 9.64886C38.2883 9.78697 38.2115 9.85603 38.1092 9.85603H34.5797V11.9814C34.7587 11.961 34.9352 11.9482 35.1091 11.9431C35.2881 11.938 35.4748 11.9354 35.6692 11.9354C36.2063 11.9354 36.6821 11.9993 37.0964 12.1272C37.5159 12.25 37.8663 12.4342 38.1476 12.6797C38.4341 12.9201 38.6515 13.2219 38.7998 13.5851C38.9481 13.9432 39.0223 14.3601 39.0223 14.8358Z" fill="white"/>
<path d="M47.3856 8.98131C47.3856 9.12965 47.3805 9.26009 47.3702 9.37263C47.36 9.48005 47.3447 9.58236 47.3242 9.67955C47.3088 9.77162 47.2858 9.86114 47.2551 9.9481C47.2244 10.0299 47.1886 10.1195 47.1477 10.2167L43.879 17.7899C43.8483 17.8564 43.8074 17.9101 43.7563 17.951C43.7102 17.992 43.6437 18.0252 43.5568 18.0508C43.4698 18.0712 43.3573 18.084 43.2191 18.0891C43.0861 18.0994 42.9199 18.1045 42.7204 18.1045C42.4493 18.1045 42.2344 18.0943 42.0759 18.0738C41.9173 18.0585 41.7996 18.0329 41.7229 17.9971C41.6513 17.9561 41.6129 17.9076 41.6078 17.8513C41.6027 17.7899 41.6206 17.7157 41.6615 17.6288L45.1758 9.87905H41.0016C40.8942 9.87905 40.8124 9.80999 40.7561 9.67188C40.705 9.52865 40.6794 9.30357 40.6794 8.99665C40.6794 8.84319 40.6871 8.71275 40.7024 8.60533C40.7177 8.49279 40.7382 8.40072 40.7638 8.3291C40.7945 8.25749 40.8277 8.20633 40.8635 8.17564C40.9045 8.14495 40.9505 8.1296 41.0016 8.1296H46.9022C46.9943 8.1296 47.071 8.13983 47.1324 8.1603C47.1938 8.17564 47.2423 8.21401 47.2782 8.27539C47.314 8.33677 47.3395 8.42374 47.3549 8.53627C47.3753 8.64881 47.3856 8.79715 47.3856 8.98131Z" fill="white"/>
<path d="M55.8256 15.3959C55.8256 15.8461 55.7463 16.2476 55.5877 16.6006C55.4342 16.9535 55.204 17.2528 54.8971 17.4983C54.5953 17.7387 54.2193 17.9229 53.7692 18.0508C53.319 18.1735 52.7998 18.2349 52.2116 18.2349C51.6489 18.2349 51.1553 18.1787 50.7307 18.0661C50.3061 17.9536 49.9506 17.7899 49.6641 17.5751C49.3777 17.3551 49.1628 17.0865 49.0196 16.7694C48.8764 16.4471 48.8048 16.0788 48.8048 15.6645C48.8048 15.3831 48.8457 15.1197 48.9275 14.8742C49.0145 14.6235 49.1398 14.3933 49.3035 14.1836C49.4723 13.9688 49.6795 13.7693 49.925 13.5851C50.1757 13.3958 50.4621 13.2168 50.7844 13.048C50.5235 12.9048 50.2882 12.7513 50.0785 12.5876C49.8688 12.4188 49.6897 12.2372 49.5414 12.0428C49.393 11.8433 49.2805 11.6259 49.2038 11.3906C49.127 11.1553 49.0887 10.8996 49.0887 10.6233C49.0887 10.2243 49.1577 9.8637 49.2958 9.54143C49.4391 9.21405 49.6488 8.93271 49.925 8.69741C50.2064 8.45698 50.5568 8.27283 50.9762 8.14495C51.3957 8.01707 51.8816 7.95312 52.4341 7.95312C52.9814 7.95312 53.4495 8.01195 53.8383 8.1296C54.2321 8.24726 54.5544 8.4135 54.805 8.62835C55.0557 8.84319 55.2399 9.10152 55.3575 9.40332C55.4803 9.70001 55.5417 10.0299 55.5417 10.3931C55.5417 10.6336 55.5007 10.8689 55.4189 11.0991C55.3422 11.3241 55.2322 11.539 55.089 11.7436C54.9457 11.9482 54.7692 12.1426 54.5595 12.3267C54.3498 12.5058 54.1119 12.6695 53.8459 12.8178C54.158 12.9815 54.4367 13.1554 54.6823 13.3396C54.9278 13.5237 55.135 13.7232 55.3038 13.9381C55.4726 14.1478 55.6005 14.3729 55.6874 14.6133C55.7795 14.8537 55.8256 15.1146 55.8256 15.3959ZM53.6004 10.5773C53.6004 10.3983 53.5748 10.2371 53.5237 10.0939C53.4725 9.95066 53.3907 9.83045 53.2781 9.73326C53.1707 9.63095 53.0351 9.55422 52.8715 9.50307C52.7129 9.45192 52.5236 9.42634 52.3037 9.42634C51.874 9.42634 51.5543 9.52609 51.3445 9.72559C51.1348 9.91997 51.0299 10.1911 51.0299 10.5389C51.0299 10.7026 51.0555 10.8535 51.1067 10.9916C51.1629 11.1297 51.2473 11.2602 51.3599 11.383C51.4724 11.5057 51.6182 11.6259 51.7972 11.7436C51.9763 11.8612 52.1886 11.9866 52.4341 12.1196C52.8075 11.8996 53.094 11.6643 53.2935 11.4136C53.4981 11.163 53.6004 10.8842 53.6004 10.5773ZM53.8306 15.534C53.8306 15.3448 53.7973 15.1734 53.7308 15.0199C53.6694 14.8614 53.5697 14.713 53.4316 14.5749C53.2986 14.4368 53.1298 14.3038 52.9252 14.1759C52.7206 14.048 52.4827 13.9176 52.2116 13.7846C51.9763 13.9125 51.7691 14.0404 51.5901 14.1682C51.411 14.2961 51.2627 14.4317 51.145 14.5749C51.0274 14.713 50.9379 14.8614 50.8765 15.0199C50.8202 15.1734 50.7921 15.3397 50.7921 15.5187C50.7921 15.9177 50.92 16.2221 51.1757 16.4318C51.4366 16.6415 51.8228 16.7464 52.3343 16.7464C52.8356 16.7464 53.2091 16.639 53.4546 16.4241C53.7053 16.2093 53.8306 15.9126 53.8306 15.534Z" fill="white"/>
</svg>
