<svg width="157" height="70" viewBox="0 0 157 70" fill="none" xmlns="http://www.w3.org/2000/svg">
<path d="M155.417 60.4286C154.533 60.4286 153.835 59.8117 153.835 59.0791L153.835 9.93764C153.835 9.18577 154.556 8.58813 155.417 8.58813C156.302 8.58813 157 9.20505 157 9.93764L157 59.0791C157 59.8309 156.279 60.4286 155.417 60.4286Z" fill="#40413C"/>
<path d="M150.367 17.1866C149.669 17.1866 149.11 16.7046 149.11 16.1069C149.11 15.5093 149.669 15.0273 150.367 15.0273L154.137 15.0273C154.836 15.0273 155.394 15.5093 155.394 16.1069C155.394 16.7046 154.836 17.1866 154.137 17.1866L150.367 17.1866Z" fill="#40413C"/>
<path d="M149.762 55.3968C149.064 55.3968 148.505 54.9148 148.505 54.3172C148.505 53.7195 149.064 53.2375 149.762 53.2375L153.532 53.2375C154.23 53.2375 154.789 53.7195 154.789 54.3172C154.789 54.9148 154.23 55.3968 153.532 55.3968L149.762 55.3968Z" fill="#40413C"/>
<path d="M149.622 31.1249C149.622 31.1249 151.647 11.8462 149.622 9.05083C147.597 6.27469 145.596 4.53961 141.314 4.32754C137.031 4.11548 22.5243 3.46 20.3831 4.32754C18.2419 5.19508 12.7493 5.83128 11.7253 11.8462C10.7012 17.8612 9.97976 57.0548 11.7253 60.6985C13.4708 64.3422 16.0077 65.8074 22.8036 65.9616C30.065 66.1158 30.065 65.6338 143.92 64.3614C147.365 64.3422 149.576 61.7588 150.53 59.561C151.461 57.3633 149.622 31.1249 149.622 31.1249Z" fill="#5C6644"/>
<path d="M105.146 8.58813L106.147 34.9421L105.146 61.2961L115.712 60.7178C115.712 60.7178 148.598 57.8645 149.948 57.4404C151.298 57.0163 151.717 57.3247 151.624 55.8595C151.182 49.4783 151.74 16.8973 151.624 14.4296C151.577 13.4271 151.787 12.2896 149.273 11.8655C146.76 11.4414 115.712 8.58813 115.712 8.58813L105.146 8.58813Z" fill="#6C7A51"/>
<path d="M18.9401 58.8286C17.311 58.8286 15.9844 57.6718 15.9844 56.2645L15.9844 13.62C15.9844 12.1934 17.311 11.0559 18.9401 11.0559L91.0422 11.0559C92.6713 11.0559 93.998 12.2126 93.998 13.62L93.998 56.2645C93.998 57.6911 92.6713 58.8286 91.0422 58.8286L18.9401 58.8286Z" fill="#6C7A51"/>
<path d="M115.736 51.2328L115.736 18.671C115.736 18.671 141.57 18.671 143.408 18.671C145.247 18.671 145.922 18.4204 145.922 20.5411C145.922 22.6617 146.085 48.0903 145.922 49.2278C145.759 50.3652 145.759 51.2328 143.734 51.2328C141.732 51.2328 115.736 51.2328 115.736 51.2328Z" fill="#929B6D"/>
<path d="M120.251 24.2233C119.785 24.2233 119.413 23.8955 119.413 23.5099C119.413 23.1244 119.785 22.7966 120.251 22.7966L143.059 22.7966C143.524 22.7966 143.897 23.1244 143.897 23.5099C143.897 23.8955 143.524 24.2233 143.059 24.2233L120.251 24.2233Z" fill="#6C7A51"/>
<path d="M120.251 29.9491C119.785 29.9491 119.413 29.6214 119.413 29.2358C119.413 28.8502 119.785 28.5225 120.251 28.5225L143.059 28.5225C143.524 28.5225 143.897 28.8502 143.897 29.2358C143.897 29.6214 143.524 29.9491 143.059 29.9491L120.251 29.9491Z" fill="#6C7A51"/>
<path d="M120.251 35.6556C119.785 35.6556 119.413 35.3279 119.413 34.9423C119.413 34.5568 119.785 34.229 120.251 34.229L143.059 34.229C143.524 34.229 143.897 34.5568 143.897 34.9423C143.897 35.3279 143.524 35.6556 143.059 35.6556L120.251 35.6556Z" fill="#6C7A51"/>
<path d="M120.251 41.3622C119.785 41.3622 119.413 41.0344 119.413 40.6488C119.413 40.2633 119.785 39.9355 120.251 39.9355L143.059 39.9355C143.524 39.9355 143.897 40.2633 143.897 40.6488C143.897 41.0344 143.524 41.3622 143.059 41.3622L120.251 41.3622Z" fill="#6C7A51"/>
<path d="M120.251 47.0878C119.785 47.0878 119.413 46.76 119.413 46.3744C119.413 45.9889 119.785 45.6611 120.251 45.6611L143.059 45.6611C143.524 45.6611 143.897 45.9889 143.897 46.3744C143.897 46.76 143.524 47.0878 143.059 47.0878L120.251 47.0878Z" fill="#6C7A51"/>
<path d="M103.447 11.1715C102.912 9.89912 97.652 11.2872 96.7676 11.8077C95.8832 12.3475 95.8831 58.0959 96.7676 58.1923C97.652 58.2887 102.563 59.9081 103.447 58.8285C104.308 57.7874 103.936 12.3668 103.447 11.1715Z" fill="#40413C"/>
<path d="M103.051 61.6238L98.5131 61.6238L99.2578 62.7998L98.5131 69.8751C98.5131 69.8751 100.654 70.5112 101.655 68.9111C102.656 67.311 102.167 63.4553 102.167 63.4553L103.051 61.6238Z" fill="#40413C"/>
<path d="M103.051 8.3761L98.5131 8.3761L99.2578 7.2001L98.5131 0.124826C98.5131 0.124826 100.654 -0.511371 101.655 1.08876C102.656 2.68889 102.167 6.54462 102.167 6.54462L103.051 8.3761Z" fill="#40413C"/>
<path d="M13.7035 54.7606C13.1217 54.7606 12.6562 54.3557 12.6562 53.8737L12.6562 16.0104C12.6562 15.5284 13.1217 15.1235 13.7035 15.1235C14.2854 15.1235 14.7509 15.5284 14.7509 16.0104L14.7509 53.8737C14.7509 54.3557 14.2854 54.7606 13.7035 54.7606Z" fill="#40413C"/>
<path d="M64.929 9.55199C63.8817 9.55199 63.0439 8.93508 63.0439 8.16394C63.0439 7.39279 63.8817 6.77588 64.929 6.77588L94.2074 6.77588C95.2547 6.77588 96.0926 7.39279 96.0926 8.16394C96.0926 8.93509 95.2547 9.55199 94.2074 9.55199L64.929 9.55199Z" fill="#40413C"/>
<path d="M24.9681 9.55199C23.7811 9.55199 22.8036 8.93508 22.8036 8.16393C22.8036 7.39279 23.7811 6.77588 24.9681 6.77588L58.3659 6.77588C59.5528 6.77588 60.5303 7.39279 60.5303 8.16394C60.5303 8.93508 59.5528 9.55199 58.3659 9.55199L24.9681 9.55199Z" fill="#40413C"/>
<path d="M64.9291 63.2241C63.8817 63.2241 63.0439 62.6072 63.0439 61.8361C63.0439 61.0649 63.8817 60.448 64.9291 60.448L94.2074 60.448C95.2547 60.448 96.0926 61.0649 96.0926 61.8361C96.0926 62.6072 95.2547 63.2241 94.2074 63.2241L64.9291 63.2241Z" fill="#40413C"/>
<path d="M24.9681 63.2241C23.7811 63.2241 22.8036 62.6072 22.8036 61.8361C22.8036 61.0649 23.7811 60.448 24.9681 60.448L58.3659 60.448C59.5528 60.448 60.5303 61.0649 60.5303 61.8361C60.5303 62.6072 59.5528 63.2241 58.3659 63.2241L24.9681 63.2241Z" fill="#40413C"/>
<path d="M3.46309 59.4455C1.78738 59.4455 0.437499 58.1345 0.437499 56.5151L0.4375 34.1518C0.4375 32.5324 1.78738 31.2214 3.46309 31.2214L8.14113 31.2214C9.81684 31.2214 11.1667 32.5324 11.1667 34.1518L11.1667 56.5151C11.1667 58.1345 9.81684 59.4455 8.14113 59.4455L3.46309 59.4455Z" fill="#40413C"/>
<path d="M8.83932 45.3141L8.83932 34.3252L2.62524 34.3252L2.62524 45.3141L8.83932 45.3141Z" fill="#585953"/>
<path d="M11.8184 12.4439L5.90683 14.6996L5.53445 26.4788L11.5856 29.0429L11.5856 27.5392L6.79124 25.6113L6.93088 15.4321L12.214 13.62L12.5864 12.1162L11.8184 12.4439Z" fill="#5C6644"/>
</svg>
