<svg width="157" height="70" viewBox="0 0 157 70" fill="none" xmlns="http://www.w3.org/2000/svg">
<g clip-path="url(#clip0_956_20313)">
<path d="M50.4404 19.9639C50.4404 18.195 52.1396 16.6787 54.0814 16.6787L115.978 16.6787C117.92 16.6787 119.619 18.195 119.619 19.9639L119.619 50.0361C119.619 51.8051 117.92 53.3213 115.978 53.3213L54.3241 53.3213C52.3823 53.3213 50.6832 51.8051 50.6832 50.0361L50.6832 19.9639L50.4404 19.9639Z" fill="#179AA1"/>
<path d="M119.619 44.9819L119.619 24.7653L50.4404 24.7653L50.4404 44.9819L119.619 44.9819Z" fill="#0A6469"/>
<path d="M119.619 24.2599L119.619 21.9855L50.4404 21.9855L50.4404 24.2599L119.619 24.2599Z" fill="#0A6469"/>
<path d="M50.4404 19.4585C50.4404 19.7112 50.4404 19.7112 50.4404 19.9639L50.4404 21.4802L119.619 21.4802L119.619 19.9639C119.619 19.7112 119.619 19.7112 119.619 19.4585L50.4404 19.4585Z" fill="#0A6469"/>
<path d="M119.376 18.7003C118.891 17.4368 117.435 16.426 115.978 16.426L54.3242 16.426C52.625 16.426 51.4114 17.4368 50.9259 18.7003L119.376 18.7003Z" fill="#0A6469"/>
<path d="M119.619 47.509L119.619 45.7401L50.4404 45.74L50.4404 47.509L119.619 47.509Z" fill="#0A6469"/>
<path d="M119.619 49.5307L119.619 48.0145L50.4404 48.0145L50.4404 49.5307L119.619 49.5307Z" fill="#0A6469"/>
<path d="M50.4404 50.2888C50.4404 52.0578 52.1396 53.574 54.0814 53.574L115.978 53.574C117.92 53.574 119.619 52.0578 119.619 50.2888L50.4404 50.2888Z" fill="#0A6469"/>
<path d="M50.4404 27.5451C50.4404 26.5343 52.1396 25.7762 54.0814 25.7762L115.978 25.7762C117.92 25.7762 119.619 26.5343 119.619 27.5451L119.619 42.4549C119.619 43.4657 117.92 44.2238 115.978 44.2238L54.3241 44.2238C52.3823 44.2238 50.6832 43.4657 50.6832 42.4549L50.6832 27.5451L50.4404 27.5451Z" fill="#179AA1"/>
<path d="M131.999 34.8736C131.999 32.852 133.698 31.083 135.64 31.083L153.359 31.083C155.301 31.083 157 32.852 157 34.8736L157 35.379C157 37.4007 155.301 39.1697 153.359 39.1697L135.64 39.1697C133.698 39.1697 131.999 37.4007 131.999 35.379L131.999 34.8736Z" fill="black"/>
<path d="M122.289 45.2347L135.154 45.2347C148.99 44.982 153.359 40.1805 153.359 38.4116L153.359 31.8412C153.359 30.0722 148.504 24.7654 137.096 25.0181L122.047 25.0181L122.047 45.2347L122.289 45.2347Z" fill="#10B0BB"/>
<path d="M110.395 58.8809C110.395 58.8809 135.64 53.574 140.009 39.4224C140.009 39.6751 147.291 12.6354 110.395 11.1191L110.395 58.8809Z" fill="#1BD9DB"/>
<path d="M110.395 58.8808C110.395 58.8808 124.474 53.574 126.901 39.4224C126.901 39.4224 130.785 12.6353 110.395 10.8664L110.395 58.8808Z" fill="#10B0BB"/>
<path d="M115.007 48.5199C115.007 48.5199 121.561 46.2455 122.775 39.9278C123.988 33.6101 122.289 23.7545 114.765 20.722L115.007 48.5199Z" fill="#148D95"/>
<path d="M120.105 46.4982C120.105 45.7401 119.619 44.9819 118.648 44.9819L115.007 44.9819C114.279 44.9819 113.551 45.7401 113.551 46.4982C113.551 47.2563 114.279 48.0144 115.007 48.0144L118.648 48.0144C119.619 47.7617 120.105 47.2563 120.105 46.4982Z" fill="#179AA1"/>
<path d="M120.105 49.7834C120.105 49.7834 124.959 48.7726 123.988 45.4874C123.503 43.7184 118.406 42.2022 116.706 43.213C115.978 43.7184 115.978 47.7617 116.464 49.278C116.949 50.0361 118.891 50.0361 120.105 49.7834Z" fill="#E95433"/>
<path d="M116.706 49.278C116.949 49.7834 117.92 50.0361 118.891 50.0361L118.891 42.9603C117.92 42.9603 117.192 42.9603 116.706 43.213C116.221 43.4657 115.978 47.7618 116.706 49.278Z" fill="#A8A7A1"/>
<path d="M123.988 47.0036C123.26 49.0253 120.105 49.7834 120.105 49.7834C118.648 50.0361 116.949 50.0361 116.464 49.278C116.221 48.7726 115.978 48.0144 115.978 47.0036L123.988 47.0036Z" fill="#E95433"/>
<path d="M120.105 23.5018C120.105 22.7437 119.619 21.9856 118.648 21.9856L115.007 21.9856C114.279 21.9856 113.551 22.7437 113.551 23.5018C113.551 24.26 114.279 25.0181 115.007 25.0181L118.648 25.0181C119.619 25.0181 120.105 24.26 120.105 23.5018Z" fill="#179AA1"/>
<path d="M120.105 27.0398C120.105 27.0398 124.959 26.0289 123.988 22.7437C123.503 20.9748 118.406 19.4585 116.706 20.4694C115.978 20.9748 115.978 25.0181 116.464 26.5343C116.949 27.2925 118.891 27.2925 120.105 27.0398Z" fill="#E95433"/>
<path d="M116.706 26.5343C116.949 27.0397 117.92 27.2925 118.891 27.2925L118.891 19.9639C117.92 19.9639 117.192 19.9639 116.706 20.2166C116.221 20.7221 115.978 25.0181 116.706 26.5343Z" fill="#A8A7A1"/>
<path d="M123.988 24.2599C123.26 26.2816 120.105 27.0397 120.105 27.0397C118.648 27.2924 116.949 27.2924 116.464 26.5343C116.221 26.0289 115.978 25.2708 115.978 24.2599L123.988 24.2599Z" fill="#E95433"/>
<path d="M115.735 34.3682C115.735 32.5993 116.949 30.0722 118.891 29.5668L126.901 28.556C128.6 28.556 130.057 30.0722 130.057 31.5885L130.057 38.1589C130.057 39.9278 128.6 41.1913 126.901 41.1913L118.891 40.4332C117.192 40.4332 115.735 37.4007 115.735 35.6318L115.735 34.3682Z" fill="#179AA1"/>
<path d="M125.93 41.1913L126.901 41.1913C128.6 41.1913 130.057 39.6751 130.057 38.1589L130.057 31.5885C130.057 29.8195 128.6 28.556 126.901 28.556L125.93 28.8087L125.93 41.1913Z" fill="#FFFCE6"/>
<path d="M125.93 41.1913L126.901 41.1913L127.144 41.1913L127.144 28.3032L126.901 28.3032L125.93 28.5559L125.93 41.1913Z" fill="#878888"/>
<path d="M106.269 35.3791L118.163 35.8845C118.163 35.8845 118.406 31.5884 116.706 26.5343C115.735 22.491 113.065 18.1949 110.881 13.3935L108.939 15.1624C108.939 15.1624 111.124 22.9964 109.667 24.7653C108.211 26.2816 105.783 32.3466 106.269 35.3791Z" fill="#10B0BB"/>
<path d="M116.949 5.81227C117.435 9.09747 118.406 11.3718 119.376 11.3718C120.347 11.3718 120.833 8.59206 120.347 5.55957C119.862 2.27437 118.891 -7.19859e-08 117.92 -1.14427e-07C116.949 -1.56867e-07 116.464 2.77978 116.949 5.81227Z" fill="#878888"/>
<path d="M116.949 5.81227C116.464 2.52708 116.949 -1.16712e-07 117.92 -7.42713e-08L118.163 -6.36611e-08C117.435 0.505415 117.192 3.03249 117.435 5.81227C117.92 8.84476 118.648 11.1191 119.619 11.3718L119.376 11.6245C118.406 11.6245 117.192 9.09747 116.949 5.81227Z" fill="#626362"/>
<path d="M120.105 5.55957C120.347 5.55957 120.59 5.55957 120.59 5.81228C120.833 6.06499 120.833 6.5704 120.833 6.82311C120.833 6.82311 120.833 7.32852 120.59 8.84477C120.347 11.8773 119.619 17.1841 119.619 17.9422C119.619 18.9531 118.891 18.9531 118.891 18.9531L109.91 21.2274L109.91 20.9747L118.891 18.7004C118.891 18.7004 119.376 18.7004 119.376 17.9422C119.376 17.1841 119.862 12.13 120.347 8.84477C120.59 7.83394 120.59 7.07582 120.59 6.82311C120.59 6.5704 120.59 6.31769 120.59 6.06499L120.347 5.81228L120.105 5.55957Z" fill="#797A79"/>
<path d="M106.026 5.05413C106.026 4.80142 106.026 4.296 106.512 4.296L107.968 3.79059C108.211 3.79059 108.696 3.79059 108.696 4.296L111.609 14.657C111.609 14.9097 111.609 15.4151 111.124 15.4151L109.667 15.9206C109.424 15.9206 108.939 15.9206 108.939 15.4151L106.026 5.05413Z" fill="#313030"/>
<path d="M108.453 15.9205C108.453 15.6678 108.453 15.6678 108.453 15.4151L111.852 14.4043C111.852 14.4043 112.094 14.4043 112.094 14.657C112.094 14.9097 112.094 14.9097 112.094 15.1624L108.696 16.1732C108.696 16.1732 108.453 16.1733 108.453 15.9205Z" fill="#0C2518"/>
<path d="M106.269 34.8737L118.163 35.8845C118.163 35.8845 118.406 38.917 116.949 43.213C115.735 47.0036 113.065 51.5524 110.638 56.3538L108.939 54.8376C108.939 54.8376 111.124 47.0036 109.667 45.2347C108.211 43.7184 105.783 38.1589 106.269 34.8737Z" fill="#10B0BB"/>
<path d="M116.949 64.1877C117.435 60.9025 118.406 58.6282 119.376 58.6282C120.347 58.6282 120.59 61.408 120.347 64.4404C119.862 67.7256 118.891 70 117.92 70C116.949 70 116.464 67.2202 116.949 64.1877Z" fill="#878888"/>
<path d="M116.949 64.1878C116.464 67.473 116.949 70 117.92 70L118.163 70C117.435 69.4946 117.192 66.9675 117.435 64.1878C117.92 61.1553 118.648 58.8809 119.619 58.6282L119.376 58.3755C118.406 58.3755 117.192 60.9026 116.949 64.1878Z" fill="#626362"/>
<path d="M110.153 47.7617L119.134 50.7942C119.134 50.7942 119.862 50.7942 119.862 51.805C119.862 52.3105 120.59 57.87 120.833 60.9025C121.076 62.4188 121.076 62.9242 121.076 62.9242C121.076 63.1769 121.076 63.6823 120.833 63.935C120.833 64.1877 120.59 64.1877 120.347 64.1877L120.347 63.935C120.59 63.935 120.59 63.935 120.59 63.6823C120.833 63.4296 120.833 62.9242 120.59 62.9242C120.59 62.9242 120.59 61.9133 120.347 60.9025C120.105 57.87 119.376 52.5632 119.376 51.805C119.376 51.0469 118.891 51.0469 118.891 51.0469L109.91 48.0144L110.153 47.7617Z" fill="#797A79"/>
<path d="M106.026 64.9459C106.026 65.1986 106.026 65.704 106.512 65.704L107.968 66.2094C108.211 66.2094 108.696 66.2094 108.696 65.704L111.609 55.5957C111.609 55.343 111.609 54.8376 111.124 54.8376L109.667 54.3322C109.424 54.3322 108.939 54.3322 108.939 54.8376L106.026 64.9459Z" fill="#313030"/>
<path d="M108.453 54.0794C108.453 54.3321 108.453 54.3321 108.453 54.5848L111.852 55.5957C111.852 55.5957 112.094 55.5957 112.094 55.343C112.094 55.0903 112.094 55.0903 112.094 54.8376L108.696 53.8267C108.696 53.8267 108.453 53.8267 108.453 54.0794Z" fill="#0C2518"/>
<path d="M106.512 35.8845C106.512 32.5993 108.211 30.0722 110.153 30.0722C112.337 30.0722 113.794 32.5993 113.794 35.8845C113.794 39.1697 112.094 41.6968 110.153 41.6968C108.211 41.6968 106.512 39.1697 106.512 35.8845Z" fill="#AEAEAE"/>
<path d="M106.512 35.8845C106.512 32.5993 108.211 30.0722 110.153 30.0722C112.337 30.0722 113.794 32.5993 113.794 35.8845C113.794 39.1697 112.094 41.6968 110.153 41.6968C108.211 41.6968 106.512 39.1697 106.512 35.8845Z" fill="#AEAEAE"/>
<path d="M106.512 35.8845C106.512 33.3574 107.725 31.3358 109.424 31.3358C110.881 31.3358 112.337 33.3574 112.337 35.8845C112.337 38.4116 111.124 40.4332 109.424 40.4332C107.968 40.4332 106.512 38.4116 106.512 35.8845Z" fill="white"/>
<path d="M139.766 33.6101C139.766 33.6101 138.31 47.2563 122.047 54.0794C122.289 54.0794 139.523 49.0253 139.766 33.6101Z" fill="white"/>
<path d="M152.631 35.8845C152.631 35.8845 150.932 42.2022 139.038 43.9711C139.038 43.9711 146.562 43.4657 150.689 40.9386C150.689 40.6859 152.874 38.6642 152.631 35.8845Z" fill="white"/>
<path d="M67.1889 45.9928C67.1889 44.2238 68.1599 42.7076 69.6163 42.7076C70.8299 42.7076 72.0436 44.2238 72.0436 45.9928L72.0436 53.574C72.0436 55.343 71.0726 56.8592 69.6163 56.8592C68.4026 56.8592 67.1889 55.343 67.1889 53.574L67.1889 45.9928Z" fill="#6A6B6A"/>
<path d="M67.1889 15.1625C67.1889 13.3935 68.1599 11.8773 69.6163 11.8773C70.8299 11.8773 72.0436 13.3935 72.0436 15.1625L72.0436 22.7437C72.0436 24.5126 71.0726 26.0289 69.6163 26.0289C68.4026 26.0289 67.1889 24.5126 67.1889 22.7437L67.1889 15.1625Z" fill="#6A6B6A"/>
<path d="M0.4375 25.7761C0.4375 23.7545 3.35029 21.9855 6.74854 21.9855L78.5974 21.9855C81.9956 21.9855 84.9084 23.7545 84.9084 25.7761L84.9084 43.213C84.9084 45.2346 81.9956 47.0036 78.5974 47.0036L6.74854 47.0036C3.35029 47.0036 0.437499 45.2346 0.437499 43.213L0.4375 25.7761Z" fill="#10B0BB"/>
<path d="M3.59301 23.2491C3.59301 23.2491 11.8459 12.6354 27.8663 12.13C43.8866 11.3718 58.4506 12.3827 58.4506 12.3827C58.4506 12.3827 79.3256 15.9206 84.6657 31.3357L3.59301 23.2491Z" fill="#10B0BB"/>
<path d="M3.59301 46.4982C3.59301 46.4982 11.8459 57.1119 27.8663 57.6173C43.8866 58.3755 58.4506 57.3646 58.4506 57.3646C58.4506 57.3646 79.3256 53.8267 84.6657 38.4116L3.59301 46.4982Z" fill="#10B0BB"/>
<path d="M11.6032 25.0181C11.6032 25.0181 18.157 16.6787 31.0218 16.1733C43.8866 15.6679 55.5378 16.426 55.5378 16.426C55.5378 16.426 72.2863 19.2058 76.6555 31.5885L11.6032 25.0181Z" fill="#179AA1"/>
<path d="M13.3023 44.7292C13.3023 44.7292 19.6134 52.8159 31.9927 53.3213C44.3721 53.8267 55.2951 53.0686 55.2951 53.0686C55.2951 53.0686 71.3154 50.2888 75.4419 38.6642L13.3023 44.7292Z" fill="#179AA1"/>
<path d="M33.9346 24.0072C33.9346 23.5018 34.6628 22.9964 35.6337 22.9964C36.6047 22.9964 37.3329 23.5018 37.3329 24.0072L37.3329 44.2238C37.3329 44.7292 36.6047 45.2347 35.6337 45.2347C34.6628 45.2347 33.9346 44.7292 33.9346 44.2238L33.9346 24.0072Z" fill="#10B0BB"/>
<path d="M27.1381 38.1588C27.1381 37.9061 27.6235 37.6534 28.109 37.6534C28.5945 37.6534 29.0799 37.9061 29.0799 38.1588L29.0799 45.74C29.0799 45.9927 28.5945 46.2454 28.109 46.2454C27.6235 46.2454 27.1381 45.9927 27.1381 45.74L27.1381 38.1588Z" fill="#7C140A"/>
<path d="M22.5261 45.4873C22.5261 44.7292 23.0116 43.9711 23.9825 43.9711L27.6235 43.9711C28.3517 43.9711 29.0799 44.7292 29.0799 45.4873C29.0799 46.2454 28.5945 47.0036 27.6235 47.0036L23.9825 47.0036C23.0116 46.7509 22.5261 46.2454 22.5261 45.4873Z" fill="#7C140A"/>
<path d="M22.5261 48.7725C22.5261 48.7725 17.6715 47.7617 18.6424 44.4765C19.1279 42.7076 24.2253 41.1913 25.9244 42.2021C26.6526 42.7076 26.6526 46.7509 26.1671 48.2671C25.6817 49.0253 23.9825 49.0252 22.5261 48.7725Z" fill="#E95433"/>
<path d="M26.1671 48.2672C25.9244 48.7726 24.9535 49.0253 23.9825 49.0253L23.9825 41.9495C24.9535 41.9495 25.6817 41.9495 26.1671 42.2022C26.6526 42.4549 26.6526 46.7509 26.1671 48.2672Z" fill="#A8A7A1"/>
<path d="M18.6424 45.9927C19.3706 48.0144 22.5261 48.7725 22.5261 48.7725C23.9825 49.0252 25.6817 49.0252 26.1671 48.2671C26.4099 47.7617 26.6526 47.0036 26.6526 45.9927L18.6424 45.9927Z" fill="#E95433"/>
<path d="M27.1381 31.3357C27.1381 31.5884 27.6236 31.8411 28.109 31.8411C28.5945 31.8411 29.08 31.5884 29.08 31.3357L29.08 23.7545C29.08 23.5018 28.5945 23.2491 28.109 23.2491C27.6236 23.2491 27.1381 23.5018 27.1381 23.7545L27.1381 31.3357Z" fill="#7C140A"/>
<path d="M22.5262 24.0072C22.5262 24.7653 23.0116 25.5234 23.9826 25.5234L27.6236 25.5234C28.3518 25.5234 29.08 25.018 29.08 24.0072C29.08 23.2491 28.3518 22.7437 27.6236 22.7437L23.9826 22.7437C23.0116 22.7437 22.5262 23.2491 22.5262 24.0072Z" fill="#7C140A"/>
<path d="M22.5262 20.722C22.5262 20.722 17.6715 21.7328 18.6425 25.018C19.1279 26.787 24.2253 28.3032 25.9245 27.2924C26.6527 26.787 26.6526 22.7437 26.1672 21.2274C25.6817 20.4693 23.9826 20.4693 22.5262 20.722Z" fill="#E95433"/>
<path d="M26.1672 21.2274C25.9244 20.722 24.9535 20.4693 23.9826 20.4693L23.9826 27.5451C24.9535 27.5451 25.6817 27.5451 26.1672 27.2924C26.6526 27.0397 26.6526 22.7437 26.1672 21.2274Z" fill="#A8A7A1"/>
<path d="M18.6425 23.5018C19.3707 21.4801 22.5262 20.722 22.5262 20.722C23.9826 20.4693 25.6817 20.4693 26.1672 21.2274C26.4099 21.7328 26.6526 22.491 26.6526 23.5018L18.6425 23.5018Z" fill="#E95433"/>
<path d="M32.2355 44.7292C32.2355 42.9603 33.6919 41.444 35.391 41.444C37.0901 41.444 38.5465 42.9603 38.5465 44.7292C38.5465 46.4982 37.0901 48.0144 35.391 48.0144C33.6919 47.7617 32.2355 46.4982 32.2355 44.7292Z" fill="#10B0BB"/>
<path d="M32.2355 25.2707C32.2355 23.5018 33.6919 21.9855 35.391 21.9855C37.0901 21.9855 38.5465 23.5018 38.5465 25.2707C38.5465 27.0397 37.0901 28.5559 35.391 28.5559C33.6919 28.5559 32.2355 27.0397 32.2355 25.2707Z" fill="#10B0BB"/>
<path d="M17.4288 40.1805L17.4288 29.8195L7.71948 29.8195L7.71948 40.1805L17.4288 40.1805Z" fill="#E95433"/>
<path d="M17.4288 40.1805L17.4288 29.8195L13.5451 29.8195L13.5451 40.1805L17.4288 40.1805Z" fill="#A8A7A1"/>
<path d="M17.4288 40.1805L17.4288 37.6534L7.71948 37.6534L7.71948 40.1805L17.4288 40.1805Z" fill="#E95433"/>
<path d="M13.0596 44.2238L31.2645 44.2238C32.7209 44.2238 33.9346 42.4548 33.9346 40.4332L33.9346 30.0722C33.9346 28.0505 32.7209 26.2816 31.2645 26.2816L13.0596 26.2816C11.6032 26.2816 10.3895 28.0505 10.3895 30.0722L10.3895 40.4332C10.3895 42.4548 11.6032 44.2238 13.0596 44.2238ZM12.5741 30.5776C12.5741 28.8086 13.545 27.2924 14.7587 27.2924L29.0799 27.2924C30.2936 27.2924 31.2645 28.8086 31.2645 30.5776L31.2645 39.4224C31.2645 41.1913 30.2936 42.7075 29.0799 42.7075L14.7587 42.7075C13.545 42.7075 12.5741 41.1913 12.5741 39.4224L12.5741 30.5776Z" fill="#C4C4C3"/>
<path d="M23.9825 26.787C23.9825 26.2816 24.2253 26.0289 24.7107 26.0289C25.1962 26.0289 25.4389 26.2816 25.4389 26.787L25.4389 42.9603C25.4389 43.4657 25.1962 43.7184 24.7107 43.7184C24.2253 43.7184 23.9825 43.4657 23.9825 42.9603L23.9825 26.787Z" fill="#C4C4C3"/>
<path d="M16.2151 26.787C16.2151 26.2816 16.4578 26.0289 16.9433 26.0289C17.4288 26.0289 17.6715 26.2816 17.6715 26.787L17.6715 42.9603C17.6715 43.4657 17.4288 43.7184 16.9433 43.7184C16.4578 43.7184 16.2151 43.4657 16.2151 42.9603L16.2151 26.787Z" fill="#C4C4C3"/>
<path d="M54.0814 49.5307C62.8197 44.4765 64.7616 44.2238 73.9854 42.4549C83.2093 40.4332 81.2674 34.8737 81.2674 34.8737C81.2674 34.8737 83.2093 29.3141 73.9854 27.2924C64.7616 25.2708 62.8197 25.0181 54.0814 19.9639C47.0421 15.9206 33.9346 14.6571 32.4782 29.8195L32.4782 30.3249L32.4782 39.1697L32.4782 39.6751C33.9346 54.5848 47.0421 53.574 54.0814 49.5307Z" fill="#543A22"/>
<path d="M56.5087 47.2563C63.7907 42.9603 65.4898 42.9603 73.5 41.1914C81.2674 39.6751 79.5683 34.8737 79.5683 34.8737C79.5683 34.8737 81.2674 30.0722 73.5 28.556C65.7325 27.0397 64.0334 26.787 56.5087 22.491C50.4404 18.9531 39.5174 17.9423 38.3038 30.8304L38.3038 31.3358L38.3038 38.6643L38.3038 39.1697C39.5174 51.8051 50.6831 50.7943 56.5087 47.2563Z" fill="#6E4C30"/>
<path d="M76.8983 47.7617C76.8983 47.7617 67.189 55.3429 53.5959 56.6065C53.5959 56.8592 67.9172 56.8592 76.8983 47.7617Z" fill="white"/>
<path d="M67.1889 15.9206C67.1889 15.9206 57.2369 12.6354 34.1773 12.3827C34.1773 12.1299 60.1497 11.8772 67.1889 15.9206Z" fill="white"/>
</g>
<defs>
<clipPath id="clip0_956_20313">
<rect width="70" height="156.562" fill="white" transform="translate(157) rotate(90)"/>
</clipPath>
</defs>
</svg>
