<svg width="157" height="70" viewBox="0 0 157 70" fill="none" xmlns="http://www.w3.org/2000/svg">
<path d="M20.3918 68.0575C16.2545 67.5661 13.0418 66.9342 11.4701 66.0682C5.52998 62.7917 5.87667 35.4564 5.87667 35.4564C5.78422 30.7523 5.5762 8.63589 10.7998 5.59342C12.4408 4.63388 15.9078 3.90836 20.3918 3.29986L20.3918 2.69141C13.3654 3.34671 7.63329 4.28286 5.3913 5.57005C0.167698 8.61252 0.37572 30.7288 0.468173 35.433C0.468173 35.433 0.0983479 62.7683 6.06158 66.0448C8.25734 67.2618 13.7121 68.0341 20.3918 68.549L20.3918 68.0575Z" fill="#385459"/>
<path d="M131.22 69.9297C139.448 69.9297 146.613 64.2661 150.497 61.0364C154.195 57.9471 153.732 36.9073 153.663 35.0116C153.709 33.1159 154.195 12.0761 150.497 8.98686C146.613 5.75717 139.448 0.0935052 131.22 0.0935049C122.992 0.0935045 64.4689 0.093502 64.4689 0.093502C64.4689 0.093502 15.2838 0.0935226 7.56398 4.68062C2.34038 7.76989 2.5484 30.3777 2.64085 35.1755C2.64085 35.1755 2.27104 63.1193 8.23427 66.466C15.515 70.5616 58.159 69.9297 64.492 69.8127L64.492 69.9063C64.4689 69.9297 122.992 69.9297 131.22 69.9297Z" fill="#B7B6A5" id="color-1"/>
<path d="M7.86441 66.3022C11.6781 68.4319 25.1994 69.2978 38.1197 69.6021C38.0735 67.6362 35.5772 66.349 35.6466 63.5406C35.6928 61.6917 36.9178 60.9662 37.1952 59.2812C37.4494 57.7599 36.7098 55.6536 36.4787 54.1089C35.947 50.5984 36.0857 46.807 36.0857 43.1093C36.0857 34.8244 36.5249 26.7034 36.5249 18.4185C36.5249 16.5462 37.5419 14.3229 37.5419 12.4506C37.5419 10.2975 36.0395 9.52519 35.4617 7.60609C34.8376 5.52318 35.2074 2.43388 36.7791 0.608398C24.0437 1.21689 10.8922 2.34027 7.21723 4.54021C1.99363 7.62947 2.20165 30.2373 2.2941 35.035C2.2941 35.0116 1.92429 62.9555 7.86441 66.3022Z" fill="#231F20" id="color-dark-1"/>
<path d="M153.779 60.9428C157.477 57.8536 157.014 36.8138 156.945 34.9181C156.991 33.0224 157.477 11.9826 153.779 8.89335C149.896 5.66366 142.73 -6.23742e-07 134.502 -9.83414e-07C133.393 -1.03191e-06 131.359 -1.12082e-06 128.678 -1.23801e-06C136.906 -8.78341e-07 144.071 5.66366 147.954 8.89335C151.652 11.9826 151.19 33.0224 151.121 34.9181C151.167 36.8138 151.652 57.8536 147.954 60.9428C144.071 64.1725 136.906 69.8362 128.678 69.8362C131.359 69.8362 133.393 69.8362 134.502 69.8362C142.73 69.8362 149.896 64.1725 153.779 60.9428Z" fill="#385459"/>
<path d="M154.495 35.0819C154.541 33.1862 155.027 12.1464 151.329 9.05717C147.446 5.82748 140.28 0.163818 132.052 0.163817C129.302 0.163817 120.911 0.163817 110.973 0.163816C115.318 5.38281 117.699 12.2634 118.415 19.1675C119.64 30.6352 119.779 39.1775 119.294 44.1625C118.623 51.2538 116.474 64.2193 111.828 70C121.374 70 129.371 70 132.029 70C140.257 70 147.422 64.3363 151.305 61.1067C155.027 58.0174 154.541 36.9776 154.495 35.0819Z" fill="#231F20" id="color-dark-2"/>
<path d="M99.8784 56.2622C102.282 53.7346 102.282 16.2655 99.8784 13.738C97.0586 10.7657 50.2542 12.3103 47.7348 14.5571C45.7471 16.3123 45.7471 53.7112 47.7348 55.4665C50.2542 57.7132 97.0586 59.2345 99.8784 56.2622Z" fill="white"/>
<path d="M139.749 57.128C149.664 54.3196 149.318 34.9883 149.318 34.9883C149.318 34.9883 149.664 15.657 139.749 12.8485C134.479 11.3507 116.173 9.59546 116.173 9.59546C116.173 9.59546 117.213 14.3464 118.623 23.1461C119.478 28.5523 119.478 41.4477 118.623 46.8305C117.213 55.6302 116.173 60.4045 116.173 60.4045C116.173 60.4045 134.479 58.6259 139.749 57.128Z" fill="#363D49"/>
<path d="M35.9008 58.7896C35.9008 58.7896 34.1211 51.4643 33.9131 47.6495C33.6126 42.0795 33.289 35.0818 33.289 35.0818C33.289 35.0818 33.6126 28.1076 33.9131 22.5141C34.1211 18.7227 35.9008 11.374 35.9008 11.374C35.9008 11.374 12.88 11.257 10.4762 12.4506C5.64557 14.8611 5.64556 35.0584 5.64556 35.0584C5.64556 35.0584 5.64557 55.2557 10.4762 57.6662C12.88 58.9066 35.9008 58.7896 35.9008 58.7896Z" fill="#363D49"/>
<path d="M114.139 9.71239C113.215 8.30818 102.19 13.0123 102.19 13.0123C102.19 13.0123 103.461 27.5693 103.461 34.0287C103.461 52.2834 101.242 55.7472 102.19 56.8471C103.114 57.9705 112.776 61.0832 113.654 60.5215C115.595 59.3045 117.213 47.2751 117.26 35.5733C117.329 21.8588 115.734 12.1464 114.139 9.71239Z" fill="#385459"/>
<path d="M46.2556 56.4027C46.2556 54.3665 45.5853 51.6283 45.1693 45.7306C44.7764 40.1138 44.6377 34.9416 44.6377 34.9416C44.6377 34.9416 44.7532 29.746 45.1693 24.1525C45.5853 18.2548 46.2556 15.5166 46.2556 13.4805C46.2556 11.3742 38.0504 8.77643 37.2645 10.0168C36.8947 10.5785 35.9009 15.6571 35.2306 21.1335C34.4216 27.6163 34.4909 34.9416 34.4909 34.9416C34.4909 34.9416 34.4216 42.2669 35.2306 48.7497C35.9009 54.2261 36.9178 59.3047 37.2645 59.8664C38.0504 61.1068 46.2556 58.509 46.2556 56.4027Z" fill="#385459"/>
<path d="M112.29 4.18926C111.782 3.06589 80.3477 3.83821 76.9732 3.83821C75.8406 3.83821 75.4015 9.64233 76.8114 9.89976C78.2213 10.1572 99.8553 10.9997 102.213 10.6487C108.523 9.66572 112.914 5.61688 112.29 4.18926Z" fill="#385459"/>
<path d="M73.6217 4.14252C74.7774 4.91484 74.3382 9.47855 73.6217 9.66578C72.9052 9.85301 48.1509 11.3274 46.6485 10.7189C45.1462 10.1104 36.4093 6.67008 37.4032 5.40629C38.4202 4.1425 71.9807 3.04255 73.6217 4.14252Z" fill="#385459"/>
<path d="M112.29 65.7173C111.782 66.8407 80.3477 66.0683 76.9731 66.0683C75.8406 66.0683 75.4014 60.2642 76.8114 60.0068C78.2213 59.7493 99.8553 58.9068 102.213 59.2579C108.523 60.2408 112.914 64.2897 112.29 65.7173Z" fill="#385459"/>
<path d="M73.6217 65.764C74.7774 64.9917 74.3382 60.4279 73.6217 60.2407C72.9052 60.0535 48.1509 58.5791 46.6485 59.1876C45.1462 59.7961 36.4093 63.2364 37.4032 64.5002C38.4202 65.7639 71.9807 66.8873 73.6217 65.764Z" fill="#385459"/>
<path d="M149.156 51.6749C149.942 51.7686 151.236 51.8154 151.629 52.7749C152.045 53.7812 151.791 55.5131 151.698 56.6131C151.467 59.164 149.965 60.9895 148.023 62.0427C147.145 62.5107 142.615 63.6107 142.962 61.4108L142.823 61.2704C143.285 60.5917 144.233 60.1704 144.834 59.5151C145.481 58.813 145.943 58.0407 146.336 57.1279C146.845 55.9343 147.261 54.9748 147.376 53.6642C147.492 52.1664 147.723 51.5111 149.156 51.6749Z" fill="#385459"/>
<path d="M148.393 51.2303C149.179 51.3239 150.473 51.3707 150.866 52.3302C151.282 53.3366 151.028 55.0685 150.936 56.1684C150.705 58.7194 149.202 60.5449 147.261 61.5981C146.382 62.0661 141.852 63.1661 142.199 60.9662L142.06 60.8257C142.522 60.147 143.47 59.7258 144.071 59.0705C144.718 58.3684 145.18 57.5961 145.573 56.6833C146.082 55.4897 146.498 54.5302 146.613 53.2196C146.729 51.6983 146.937 51.0664 148.393 51.2303Z" fill="#CECDB6"/>
<path opacity="0.5" d="M149.734 57.9705C149.433 58.1344 148.509 58.0641 148.255 57.6663C147.977 57.245 148.231 56.3089 148.301 55.8642C148.463 54.9047 148.255 53.0792 149.202 52.6579C150.589 52.0494 150.52 53.9685 150.427 54.9046C150.358 55.6536 150.219 57.4089 149.734 57.9237C149.641 58.0173 149.41 58.0407 149.456 58.0641L149.734 57.9705Z" fill="white"/>
<path d="M149.156 18.2313C149.942 18.1377 151.236 18.0909 151.629 17.1314C152.045 16.125 151.791 14.3932 151.698 13.2932C151.467 10.7422 149.965 8.91671 148.023 7.86355C147.145 7.39548 142.615 6.29556 142.962 8.4955L142.823 8.63588C143.285 9.31459 144.233 9.73585 144.834 10.3911C145.481 11.0933 145.943 11.8656 146.336 12.7783C146.845 13.9719 147.261 14.9314 147.376 16.242C147.492 17.7633 147.723 18.3952 149.156 18.2313Z" fill="#385459"/>
<path d="M148.393 18.6994C149.179 18.6057 150.473 18.5589 150.866 17.5994C151.282 16.5931 151.028 14.8612 150.936 13.7612C150.705 11.2103 149.202 9.38473 147.261 8.33157C146.382 7.8635 141.852 6.76358 142.199 8.96351L142.06 9.1039C142.522 9.7826 143.47 10.2039 144.071 10.8592C144.718 11.5613 145.18 12.3336 145.573 13.2463C146.082 14.4399 146.498 15.3995 146.613 16.7101C146.729 18.2079 146.937 18.8632 148.393 18.6994Z" fill="#CECDB6"/>
<path opacity="0.5" d="M149.734 11.9359C149.433 11.7721 148.509 11.8423 148.255 12.2402C147.977 12.6615 148.231 13.5976 148.301 14.0423C148.463 15.0018 148.255 16.8273 149.202 17.2485C150.589 17.857 150.52 15.9379 150.427 15.0018C150.358 14.2529 150.219 12.4976 149.734 11.9827C149.641 11.8891 149.41 11.8657 149.456 11.8423L149.734 11.9359Z" fill="white"/>
<path d="M5.25265 15.5868C6.80124 15.4464 6.93992 14.8379 7.37907 13.4337C7.772 12.1231 8.41917 10.836 8.8121 9.54877C9.11257 8.56582 9.87531 6.59989 9.25126 5.59354C8.92767 5.07866 8.18804 4.86803 7.4253 4.77441C5.36822 6.17863 4.16633 10.7189 3.49605 15.9145C4.12011 15.8443 4.83661 15.6337 5.25265 15.5868Z" fill="#F71E1E"/>
<path d="M5.7149 55.4664C7.26349 55.6068 7.40217 56.2153 7.84132 57.6195C8.23425 58.9301 8.88142 60.2173 9.27435 61.5045C9.57482 62.4874 10.3376 64.4533 9.71351 65.4597C9.38992 65.9745 8.65029 66.1852 7.88755 66.2788C5.83047 64.8746 4.62858 60.3343 3.9583 55.1387C4.60547 55.2089 5.29886 55.4195 5.7149 55.4664Z" fill="#F71E1E"/>
<path opacity="0.2" d="M116.982 25.0886L102.791 20.1973L103.045 24.0354L117.236 30.6586L116.982 25.0886Z" fill="#CECDB6"/>
<path opacity="0.2" d="M103.392 30.2842L117.283 39.552L116.89 45.3093L103.484 35.9478L103.392 30.2842Z" fill="#CECDB6"/>
<path opacity="0.2" d="M103.276 43.1562L116.335 50.9496L116.011 53.1028L103.137 45.3094L103.276 43.1562Z" fill="#CECDB6"/>
<path opacity="0.2" d="M116.474 19.6122L102.213 12.989L102.352 14.6741L116.728 21.9292L116.474 19.6122Z" fill="#CECDB6"/>
<path d="M85.2939 52.1196C84.3 52.1196 83.4911 51.3005 83.4911 50.2942L83.4911 19.9632C83.4911 18.9568 84.3 18.1377 85.2939 18.1377L89.8241 18.1377C90.818 18.1377 91.627 18.9568 91.627 19.9632L91.627 50.2942C91.627 51.3005 90.818 52.1196 89.8241 52.1196L85.2939 52.1196Z" fill="#4848CC"/>
<path d="M90.3788 50.8326L90.3788 19.6123L88.784 19.6123L88.784 50.8326L90.3788 50.8326Z" fill="#2974E2"/>
<path d="M91.627 50.2241L91.627 35.55L83.4911 35.55L83.4911 50.2241C83.4911 51.2304 84.3 52.0496 85.2939 52.0496L89.8241 52.0496C90.818 52.0496 91.627 51.2304 91.627 50.2241Z" fill="#F71E1E"/>
<path d="M90.3095 50.7623L90.3095 39.7393L88.6222 39.7393L88.6222 50.7623L90.3095 50.7623Z" fill="#F46F62"/>
<path d="M91.627 40.6519L91.627 29.6055L83.4911 29.6055L83.4911 40.6519L91.627 40.6519Z" fill="#B7B6A5"/>
<path d="M136.559 17.2251L136.559 20.5718C136.559 21.0867 136.374 21.508 135.981 21.8824C135.588 22.2569 135.08 22.4441 134.456 22.4441C134.433 22.4441 134.41 22.4441 134.386 22.4441C134.363 22.4441 134.34 22.4441 134.294 22.4441C134.178 22.4441 134.04 22.4441 133.878 22.4207C133.739 22.3973 133.578 22.3505 133.439 22.3037C133.115 22.1867 132.792 21.9994 132.537 21.742C132.26 21.4846 132.121 21.1101 132.121 20.642L132.121 18.1612L128.77 18.1612L128.77 17.2251L136.559 17.2251ZM132.953 18.1612L132.953 20.5718C132.953 20.5952 132.977 20.642 133.023 20.7356C133.069 20.8292 133.161 20.9229 133.254 21.0399C133.37 21.1803 133.531 21.2973 133.739 21.3909C133.947 21.4846 134.178 21.5314 134.433 21.508C134.756 21.4612 135.034 21.3441 135.242 21.1569C135.45 20.9697 135.542 20.7123 135.542 20.408L135.542 18.1612L132.953 18.1612Z" fill="white"/>
<path d="M133.323 23.3803C133.439 23.4037 133.578 23.4037 133.693 23.4505C134.433 23.5909 135.103 23.9654 135.727 24.5505C136.351 25.1356 136.652 25.9079 136.652 26.8908C136.652 27.0079 136.652 27.1249 136.628 27.2419C136.628 27.3589 136.605 27.4759 136.559 27.5929C136.42 28.2716 136.051 28.9035 135.45 29.4652C134.849 30.0503 133.901 30.3312 132.607 30.378C131.52 30.378 130.55 30.0738 129.741 29.4419C128.932 28.81 128.516 27.8738 128.516 26.6334C128.516 25.5569 128.932 24.7377 129.764 24.1761C130.596 23.6378 131.659 23.3569 132.977 23.3569C133.069 23.3569 133.208 23.3803 133.323 23.3803ZM131.867 24.3632C131.659 24.3866 131.451 24.4569 131.243 24.5271C130.827 24.6675 130.411 24.9016 130.064 25.2292C129.694 25.5569 129.486 26.0249 129.44 26.6334C129.44 26.6802 129.417 26.727 129.417 26.7738C129.417 26.8206 129.417 26.8675 129.417 26.9143C129.417 27.5696 129.718 28.1547 130.319 28.6695C130.919 29.1844 131.844 29.4184 133.046 29.3716C133.762 29.3248 134.386 29.0908 134.918 28.6461C135.45 28.2014 135.727 27.6164 135.727 26.8675C135.727 26.7739 135.727 26.7036 135.704 26.61C135.704 26.5164 135.681 26.4462 135.658 26.3525C135.542 25.8377 135.242 25.3696 134.71 24.9483C134.202 24.5271 133.439 24.3164 132.422 24.3164C132.26 24.3164 132.075 24.3398 131.867 24.3632Z" fill="white"/>
<path d="M136.559 31.3843L136.559 32.3906L129.671 32.3906L129.671 35.9012L128.747 35.9012L128.747 31.3843L136.559 31.3843Z" fill="white"/>
<path d="M136.559 37.1416L136.559 38.0777L128.747 38.0777L128.747 37.1416L136.559 37.1416Z" fill="white"/>
<path d="M132.977 39.365C133.138 39.3884 133.277 39.4118 133.439 39.4352C134.202 39.5756 134.918 39.8798 135.565 40.3479C136.212 40.816 136.582 41.5883 136.652 42.618C136.652 42.7819 136.628 42.9691 136.582 43.1798C136.536 43.3904 136.467 43.601 136.374 43.8351C136.212 44.1861 135.958 44.5138 135.588 44.818C135.219 45.1223 134.71 45.3563 134.04 45.4967L134.04 44.4903C134.618 44.3499 135.034 44.0925 135.311 43.7648C135.588 43.4138 135.727 43.0393 135.727 42.6415C135.727 42.6181 135.727 42.5946 135.727 42.5712C135.727 42.5478 135.727 42.5244 135.727 42.501C135.681 41.9861 135.403 41.4947 134.895 41.0734C134.386 40.6288 133.647 40.3947 132.699 40.3713C131.544 40.3713 130.735 40.582 130.226 41.0266C129.718 41.4713 129.463 41.9628 129.463 42.4776C129.463 42.4776 129.463 42.4776 129.463 42.501C129.463 42.501 129.463 42.501 129.463 42.5244C129.463 43.0393 129.671 43.5074 130.064 43.9521C130.457 44.3968 130.989 44.6308 131.636 44.6542L131.636 45.6605C131.544 45.6371 131.451 45.6371 131.359 45.6137C131.266 45.5903 131.174 45.5669 131.058 45.5435C130.434 45.3797 129.833 45.052 129.325 44.5605C128.793 44.0691 128.539 43.4606 128.539 42.7117C128.493 41.5883 128.886 40.7458 129.718 40.1841C130.527 39.6224 131.474 39.365 132.584 39.365C132.676 39.3416 132.838 39.3416 132.977 39.365Z" fill="white"/>
<path d="M136.559 47.0413L136.559 52.0262L135.727 52.0262L135.727 47.9774L133.208 47.9774L133.208 51.8624L132.283 51.8624L132.283 47.9774L129.671 47.9774L129.671 52.19L128.747 52.19L128.747 47.0413L136.559 47.0413Z" fill="white"/>
<path d="M18.5197 52.4005L18.5197 49.2177C18.5197 48.7262 18.7046 48.3283 19.0975 47.9773C19.4904 47.6262 19.9758 47.4624 20.623 47.4624C20.6461 47.4624 20.6692 47.4624 20.6923 47.4624C20.7154 47.4624 20.7385 47.4624 20.7848 47.4624C20.9003 47.4624 21.039 47.4624 21.1777 47.4858C21.3164 47.5092 21.4782 47.5326 21.6169 47.6028C21.9404 47.7198 22.2409 47.8836 22.5183 48.1411C22.7956 48.3985 22.9343 48.7261 22.9343 49.1708L22.9343 51.5346L26.2857 51.5346L26.2857 52.4239L18.5197 52.4239L18.5197 52.4005ZM22.1022 51.5112L22.1022 49.2177C22.1022 49.1943 22.0791 49.1474 22.0329 49.0538C21.9867 48.9602 21.8942 48.8666 21.8018 48.773C21.6862 48.6559 21.5244 48.539 21.3164 48.4453C21.1084 48.3517 20.8772 48.3049 20.623 48.3283C20.2994 48.3751 20.022 48.4687 19.8371 48.6559C19.6291 48.8432 19.5367 49.0772 19.5367 49.3815L19.5367 51.5346L22.1022 51.5346L22.1022 51.5112Z" fill="white"/>
<path d="M21.7324 46.5497C21.6169 46.5263 21.4782 46.5263 21.3626 46.5029C20.623 46.3625 19.9527 46.0115 19.3518 45.4498C18.7508 44.8881 18.4272 44.1626 18.4272 43.2264C18.4272 43.1094 18.4272 42.9924 18.4504 42.8988C18.4504 42.7818 18.4735 42.6647 18.5197 42.5711C18.6584 41.9158 19.0282 41.3308 19.6291 40.7925C20.2301 40.2542 21.1777 39.9499 22.449 39.9265C23.5353 39.9265 24.4829 40.2308 25.315 40.8159C26.124 41.4009 26.54 42.2903 26.54 43.4839C26.54 44.5137 26.124 45.286 25.2919 45.8243C24.4598 46.3391 23.3966 46.5965 22.1023 46.5965C21.9867 46.5731 21.8711 46.5497 21.7324 46.5497ZM23.1886 45.6136C23.3966 45.5902 23.6046 45.5434 23.8126 45.4732C24.2287 45.3328 24.6216 45.1221 24.9914 44.8179C25.3612 44.5136 25.5692 44.069 25.6155 43.4839C25.6155 43.4371 25.6386 43.3903 25.6386 43.3669C25.6386 43.3201 25.6386 43.2733 25.6386 43.2499C25.6386 42.618 25.3381 42.0797 24.7372 41.5882C24.1362 41.0967 23.2348 40.8627 22.0098 40.9095C21.2933 40.9563 20.6692 41.1669 20.1376 41.5882C19.606 42.0095 19.3287 42.5711 19.3287 43.2732C19.3287 43.3434 19.3286 43.4371 19.3518 43.5073C19.3518 43.5775 19.3749 43.6711 19.398 43.7413C19.5136 44.2328 19.814 44.6774 20.3225 45.0753C20.831 45.4732 21.5938 45.6838 22.5876 45.6838C22.7956 45.6604 22.9806 45.637 23.1886 45.6136Z" fill="white"/>
<path d="M18.5197 38.9434L18.5197 37.9839L25.3612 37.9839L25.3612 34.6372L26.2857 34.6372L26.2857 38.9434L18.5197 38.9434Z" fill="white"/>
<path d="M18.5197 33.467L18.5197 32.5776L26.2857 32.5776L26.2857 33.467L18.5197 33.467Z" fill="white"/>
<path d="M22.0792 31.3609C21.9174 31.3375 21.7787 31.3141 21.6169 31.2907C20.8542 31.1736 20.1607 30.8694 19.5136 30.4247C18.8664 29.9801 18.4966 29.2546 18.4272 28.2716C18.4272 28.1078 18.4504 27.944 18.4966 27.7333C18.5428 27.5227 18.6122 27.3355 18.7046 27.1014C18.8664 26.7738 19.1207 26.4696 19.4905 26.1653C19.8603 25.8611 20.3688 25.6504 21.0391 25.51L21.0391 26.4695C20.4843 26.6099 20.0452 26.844 19.7678 27.1716C19.4905 27.4993 19.3518 27.8503 19.3518 28.2248C19.3518 28.2482 19.3518 28.2716 19.3518 28.295C19.3518 28.3184 19.3518 28.3418 19.3518 28.3652C19.398 28.8567 19.6754 29.3248 20.1839 29.7226C20.6924 30.1439 21.4089 30.3545 22.3565 30.3779C23.4891 30.3779 24.3211 30.1673 24.8296 29.746C25.3381 29.3247 25.5924 28.8567 25.5924 28.3652C25.5924 28.3652 25.5924 28.3652 25.5924 28.3418C25.5924 28.3418 25.5924 28.3418 25.5924 28.3184C25.5924 27.8269 25.4075 27.3823 25.0145 26.961C24.6216 26.5397 24.09 26.3291 23.4428 26.2823L23.4428 25.3228C23.5353 25.3462 23.6277 25.3461 23.7202 25.3695C23.8126 25.393 23.9051 25.4164 24.0207 25.4398C24.6447 25.6036 25.2226 25.9078 25.7542 26.3759C26.2858 26.844 26.54 27.4291 26.54 28.1312C26.5862 29.2077 26.1933 30.0035 25.3844 30.5183C24.5754 31.0332 23.6277 31.3141 22.5414 31.3141C22.3796 31.3843 22.2409 31.3609 22.0792 31.3609Z" fill="white"/>
<path d="M18.5197 24.0589L18.5197 19.3313L19.3518 19.3313L19.3518 23.1695L21.8711 23.1695L21.8711 19.4717L22.7956 19.4717L22.7956 23.1695L25.3843 23.1695L25.3843 19.1675L26.3089 19.1675L26.3089 24.0589L18.5197 24.0589Z" fill="white"/>
</svg>
