<svg width="157" height="70" viewBox="0 0 157 70" fill="none" xmlns="http://www.w3.org/2000/svg">
<g clip-path="url(#clip0_956_12119)">
<path d="M0.486577 54.3428L0.486577 14.3552L-1.51972 14.3552C-1.93482 14.3552 -2.34991 14.7011 -2.34991 15.1854L-2.34991 53.5126C-2.34991 53.9969 -1.93482 54.3428 -1.51972 54.3428L0.486577 54.3428Z" fill="#333333"/>
<path d="M0.486577 54.3428L0.486577 14.3552L-1.51972 14.3552C-1.93482 14.3552 -2.34991 14.7011 -2.34991 15.1854L-2.34991 53.5126C-2.34991 53.9969 -1.93482 54.3428 -1.51972 54.3428L0.486577 54.3428Z" fill="url(#paint0_linear_956_12119)"/>
<path d="M83.2982 47.217V21.4811C83.2982 20.7201 83.9209 20.0974 84.6819 20.0974H86.2039C86.9649 20.0974 87.5876 20.7201 87.5876 21.4811V47.217C87.5876 47.9781 86.9649 48.6007 86.2039 48.6007H84.6819C83.9209 48.6699 83.2982 48.0472 83.2982 47.217Z" fill="#999999"/>
<path d="M143.072 64.651L12.2479 64.651C5.32958 64.651 -0.343399 59.0472 -0.343399 52.0597L-0.343399 16.7766C-0.343399 9.85829 5.2604 4.1853 12.2479 4.1853L143.142 4.1853C152.689 4.1853 160.437 11.9338 160.437 21.481L160.437 47.2861C160.368 56.9025 152.689 64.651 143.072 64.651Z" fill="#1E1E1E"/>
<path opacity="0.2" d="M148.815 64.651L8.09689 64.651C3.46165 64.651 -0.343399 60.9151 -0.343399 56.2107L-0.343399 12.6256C-0.343399 7.99035 3.39247 4.1853 8.09689 4.1853L148.815 4.1853C155.249 4.1853 160.437 9.37401 160.437 15.808L160.437 53.0283C160.368 59.4623 155.179 64.651 148.815 64.651Z" fill="url(#paint1_radial_956_12119)"/>
<path d="M148.815 64.651L8.09689 64.651C3.46165 64.651 -0.343399 60.9151 -0.343399 56.2107L-0.343399 12.6256C-0.343399 7.99035 3.39247 4.1853 8.09689 4.1853L148.815 4.1853C155.249 4.1853 160.437 9.37401 160.437 15.808L160.437 53.0283C160.368 59.4623 155.179 64.651 148.815 64.651Z" fill="url(#paint2_radial_956_12119)"/>
<path d="M157.808 17.5374L157.808 51.2294C157.808 55.3112 156.01 58.9779 153.104 61.3993C157.532 58.2861 160.437 53.0974 160.437 47.286L160.437 21.55C160.437 15.7387 157.532 10.55 153.104 7.43677C155.94 9.85816 157.808 13.5248 157.808 17.5374Z" fill="url(#paint3_linear_956_12119)"/>
<path opacity="0.4" d="M157.808 17.5374L157.808 51.2294C157.808 55.3112 156.01 58.9779 153.104 61.3993C157.532 58.2861 160.437 53.0974 160.437 47.286L160.437 21.55C160.437 15.7387 157.532 10.55 153.104 7.43677C155.94 9.85816 157.808 13.5248 157.808 17.5374Z" fill="url(#paint4_linear_956_12119)"/>
<path d="M10.0339 6.26074L145.286 6.26074C151.513 6.26074 156.494 11.3111 156.494 17.4683L156.494 51.2987C156.494 57.5251 151.443 62.5063 145.286 62.5063L10.0339 62.5063C6.43644 62.5063 3.53076 59.6006 3.53076 56.0031L3.53076 12.7639C3.53076 9.16642 6.43644 6.26074 10.0339 6.26074Z" fill="#282828"/>
<path d="M51.6819 14.0786L34.317 6.19175L34.317 4.25464L114.984 4.25464L93.3991 13.871L94.4368 37.8774L93.3299 54.4121L112.978 63.06L112.978 64.6512L32.8642 64.6512L32.8642 63.06L51.4743 53.9278C51.4743 53.9278 50.0907 38.846 50.2982 34.695C50.5058 30.4749 52.5813 15.1855 52.5813 15.1855L51.6819 14.0786Z" fill="#E0E0E0"/>
<path opacity="0.3" d="M7.88927 6.26074L149.022 6.26074C153.173 6.26074 156.563 9.65069 156.563 13.8017L156.563 55.0346C156.563 59.1855 153.173 62.5755 149.022 62.5755L7.88927 62.5755C5.46788 62.5755 3.53076 60.6384 3.53076 58.217L3.53076 10.6193C3.53076 8.26704 5.46788 6.26074 7.88927 6.26074Z" fill="url(#paint5_linear_956_12119)"/>
<path d="M3.53064 56.0723L3.53064 12.7639C3.53064 9.16642 6.43632 6.26074 10.0338 6.26074L8.85771 6.26074C5.26021 6.26074 2.35454 9.16642 2.35454 12.7639L2.35454 56.0723C2.35454 59.6698 5.26021 62.5755 8.85771 62.5755L10.0338 62.5755C6.43632 62.5755 3.53064 59.6698 3.53064 56.0723Z" fill="#333333"/>
<path d="M3.53064 56.0723L3.53064 12.7639C3.53064 9.16642 6.43632 6.26074 10.0338 6.26074L8.85771 6.26074C5.26021 6.26074 2.35454 9.16642 2.35454 12.7639L2.35454 56.0723C2.35454 59.6698 5.26021 62.5755 8.85771 62.5755L10.0338 62.5755C6.43632 62.5755 3.53064 59.6698 3.53064 56.0723Z" fill="url(#paint6_linear_956_12119)"/>
<path opacity="0.5" d="M3.94586 12.4873L3.94586 56.0724C3.94586 59.6699 6.85153 62.6447 10.449 62.6447L145.701 62.6447C148.676 62.6447 151.374 61.4686 153.45 59.5315C151.374 61.6762 148.538 63.0598 145.286 63.0598L10.0339 63.0598C6.43644 63.0598 3.53076 60.1542 3.53076 56.4875L3.53076 12.9024C3.53076 10.9652 4.36095 9.30486 5.67543 8.05957C4.63769 9.23568 3.94586 10.7577 3.94586 12.4873Z" fill="url(#paint7_radial_956_12119)"/>
<path opacity="0.3" d="M156.494 21.1353L114.361 21.1353L114.361 24.8019L156.494 24.8019L156.494 21.1353Z" fill="url(#paint8_linear_956_12119)"/>
<path opacity="0.3" d="M156.494 43.8269L156.563 47.4936L114.361 47.632L114.361 43.9653L156.494 43.8269Z" fill="url(#paint9_linear_956_12119)"/>
<path d="M157.808 51.368L157.808 17.5377C157.808 11.3112 152.758 6.33008 146.601 6.33008L145.355 6.33008C151.582 6.33008 156.563 11.3804 156.563 17.5377L156.563 51.368C156.563 57.5945 151.513 62.5756 145.355 62.5756L146.601 62.5756C152.758 62.5756 157.808 57.5253 157.808 51.368Z" fill="#666666"/>
<path d="M154.072 10.4809L155.318 10.4809C153.242 7.92113 150.129 6.26074 146.532 6.26074L145.286 6.26074C148.815 6.26074 151.997 7.92113 154.072 10.4809Z" fill="#FF6600"/>
<path d="M154.072 10.481C155.594 12.4181 156.563 14.8395 156.563 17.5376L156.563 24.8018L157.808 25.2861L157.808 17.5376C157.808 14.9087 156.909 12.4181 155.318 10.481L154.072 10.481Z" fill="#DCFFFE"/>
<path d="M154.072 58.3555L155.318 58.3555C153.242 60.9152 150.129 62.5756 146.532 62.5756L145.286 62.5756C148.815 62.5756 151.997 60.9152 154.072 58.3555Z" fill="#FF6600"/>
<path d="M154.072 58.3554C155.594 56.4183 156.563 53.9969 156.563 51.2988L156.563 44.0346L157.808 43.5503L157.808 51.2988C157.808 53.9277 156.909 56.4183 155.318 58.3554L154.072 58.3554Z" fill="#DCFFFE"/>
<path d="M156.632 43.827L156.632 25.0093L156.84 25.1476L156.84 43.7578L156.632 43.827Z" fill="#333333"/>
<path d="M157.186 35.6634C157.415 35.6634 157.601 35.1059 157.601 34.4181C157.601 33.7304 157.415 33.1729 157.186 33.1729C156.956 33.1729 156.771 33.7304 156.771 34.4181C156.771 35.1059 156.956 35.6634 157.186 35.6634Z" fill="#CCCCCC"/>
<path d="M92.0847 16.0158C92.984 21.9655 95.0595 39.1228 92.2922 52.1292C92.0155 53.4436 92.7073 54.6889 93.8834 55.2424L109.934 62.2298C111.179 62.7833 112.632 62.0915 113.047 60.8462C115.123 54.2046 119.827 34.3492 112.839 8.12894C112.494 6.81447 111.041 6.12265 109.795 6.60692L93.8142 13.0409C92.5689 13.5252 91.8771 14.7705 92.0847 16.0158Z" fill="#666666"/>
<path d="M92.0847 16.0158C92.984 21.9655 95.0595 39.1228 92.2922 52.1292C92.0155 53.4436 92.7073 54.6889 93.8834 55.2424L109.934 62.2298C111.179 62.7833 112.632 62.0915 113.047 60.8462C115.123 54.2046 119.827 34.3492 112.839 8.12894C112.494 6.81447 111.041 6.12265 109.795 6.60692L93.8142 13.0409C92.5689 13.5252 91.8771 14.7705 92.0847 16.0158Z" fill="url(#paint10_linear_956_12119)"/>
<path d="M93.1225 15.6005C93.1225 14.9087 93.5376 14.3553 94.1602 14.0785L110.141 7.64453C110.487 7.50616 110.833 7.50616 111.11 7.71371C111.387 7.85208 111.594 8.12881 111.663 8.40554C114.085 17.5377 115.33 26.6698 115.33 35.7327C115.33 47.7013 113.185 56.3492 111.94 60.5001C111.871 60.8461 111.594 61.0536 111.318 61.192C111.041 61.3303 110.695 61.3303 110.349 61.192L94.2986 54.2045C93.676 53.9278 93.33 53.3743 93.33 52.6825C93.33 52.5441 93.33 52.4749 93.3992 52.3366C94.3678 47.9089 94.7829 42.651 94.7829 36.6321C94.7829 27.9151 93.8143 19.8207 93.1917 15.8081C93.1225 15.7389 93.1225 15.6697 93.1225 15.6005Z" fill="black"/>
<path d="M93.6759 15.6006C93.6759 15.1855 93.9527 14.7704 94.3678 14.5629L110.349 8.12889C110.557 8.05971 110.764 8.12889 110.833 8.12889C110.972 8.19808 111.11 8.26726 111.11 8.47481C113.531 17.5377 114.777 26.6699 114.777 35.6636C114.777 47.563 112.632 56.1417 111.387 60.2235C111.318 60.431 111.179 60.5694 111.041 60.5694C110.972 60.6386 110.764 60.6386 110.557 60.5694L94.5061 53.5819C94.091 53.3744 93.8835 53.0285 93.8835 52.6134C93.8835 52.5442 93.8835 52.475 93.8835 52.4058C94.852 47.9781 95.3363 42.6511 95.3363 36.6322C95.3363 27.846 94.3678 19.7516 93.7451 15.739C93.7451 15.739 93.6759 15.6698 93.6759 15.6006Z" fill="#676B86"/>
<path opacity="0.2" d="M106.267 9.78916C107.858 16.2923 108.827 24.9402 108.827 34.4182C108.827 43.7579 107.858 52.3365 106.336 58.8397L110.557 60.7076C110.764 60.7768 110.972 60.7768 111.041 60.7076C111.11 60.6385 111.318 60.5693 111.387 60.3617C112.632 56.28 114.777 47.6321 114.777 35.8019C114.777 26.8081 113.531 17.676 111.11 8.61305C111.041 8.40551 110.902 8.33632 110.833 8.26714C110.764 8.19796 110.557 8.12878 110.349 8.26714L106.267 9.78916Z" fill="black"/>
<path d="M110.003 8.26699C111.733 15.2544 112.77 24.3866 112.77 34.4181C112.77 44.3804 111.733 53.4433 110.003 60.4308L110.556 60.6383C110.764 60.7075 110.972 60.7075 111.041 60.6383C111.11 60.5691 111.317 60.4999 111.387 60.2924C112.632 56.2106 114.777 47.5628 114.777 35.7325C114.777 26.7388 113.531 17.6067 111.11 8.54372C111.041 8.33617 110.902 8.26699 110.833 8.19781C110.764 8.12862 110.556 8.05944 110.349 8.19781L110.003 8.26699Z" fill="#333333"/>
<path d="M110.28 16.7766L111.802 24.11L111.456 24.11L110.142 16.7766L110.28 16.7766Z" fill="black"/>
<path d="M113.324 34.2799L111.525 24.3176L111.94 24.8019L113.67 34.2108L113.324 34.2799Z" fill="black"/>
<path d="M110.142 17.2609L113.255 34.6949L113.462 34.6258L110.211 16.7766L110.142 17.2609Z" fill="#333333"/>
<path d="M113.393 34.2109C113.67 34.1417 113.947 34.3493 114.016 34.626C114.085 34.9027 113.877 35.1795 113.601 35.2487C113.324 35.3178 113.047 35.1103 112.978 34.8336C112.909 34.5568 113.116 34.2801 113.393 34.2109Z" fill="black"/>
<path d="M113.324 34.2108C113.531 34.1417 113.739 34.3492 113.808 34.5567C113.877 34.7643 113.67 34.9718 113.462 35.041C113.255 35.1102 113.047 34.9027 112.978 34.6951C112.909 34.4876 113.047 34.28 113.324 34.2108Z" fill="#333333"/>
<path d="M111.11 32.9653L111.94 40.3679L111.525 40.4371L110.972 32.9653L111.11 32.9653Z" fill="black"/>
<path d="M112.355 50.6764L111.525 40.5757L111.94 41.1291L112.701 50.6764L112.355 50.6764Z" fill="black"/>
<path d="M110.903 33.3804L112.286 51.0912L112.494 51.0912L111.041 32.9653L110.903 33.3804Z" fill="#333333"/>
<path d="M112.424 50.6069C112.701 50.6069 112.978 50.8145 112.978 51.0912C112.978 51.3679 112.77 51.6447 112.494 51.6447C112.217 51.6447 111.94 51.4371 111.94 51.1604C111.94 50.8837 112.148 50.6761 112.424 50.6069Z" fill="black"/>
<path d="M112.355 50.6763C112.563 50.6763 112.77 50.8146 112.84 51.0914C112.84 51.2989 112.701 51.5065 112.424 51.5756C112.217 51.5756 112.009 51.4373 111.94 51.1606C111.94 50.8838 112.148 50.6763 112.355 50.6763Z" fill="#333333"/>
<path opacity="0.5" d="M93.6759 15.6006C93.6759 15.1855 93.9527 14.7704 94.3678 14.5629L110.349 8.12889C110.557 8.05971 110.764 8.12889 110.833 8.12889C110.972 8.19808 111.11 8.26726 111.11 8.47481C113.531 17.5377 114.777 26.6699 114.777 35.6636C114.777 47.563 112.632 56.1417 111.387 60.2235C111.318 60.431 111.179 60.5694 111.041 60.5694C110.972 60.6386 110.764 60.6386 110.557 60.5694L94.5061 53.5819C94.091 53.3744 93.8835 53.0285 93.8835 52.6134C93.8835 52.5442 93.8835 52.475 93.8835 52.4058C94.852 47.9781 95.3363 42.6511 95.3363 36.6322C95.3363 27.846 94.3678 19.7516 93.7451 15.739C93.7451 15.739 93.6759 15.6698 93.6759 15.6006Z" fill="url(#paint11_radial_956_12119)"/>
<path opacity="0.3" d="M93.6759 15.6006C93.6759 15.1855 93.9527 14.7704 94.3678 14.5629L110.349 8.12889C110.557 8.05971 110.764 8.12889 110.833 8.12889C110.972 8.19808 111.11 8.26726 111.11 8.47481C113.531 17.5377 114.777 26.6699 114.777 35.6636C114.777 47.563 112.632 56.1417 111.387 60.2235C111.318 60.431 111.179 60.5694 111.041 60.5694C110.972 60.6386 110.764 60.6386 110.557 60.5694L94.5061 53.5819C94.091 53.3744 93.8835 53.0285 93.8835 52.6134C93.8835 52.5442 93.8835 52.475 93.8835 52.4058C94.852 47.9781 95.3363 42.6511 95.3363 36.6322C95.3363 27.846 94.3678 19.7516 93.7451 15.739C93.7451 15.739 93.6759 15.6698 93.6759 15.6006Z" fill="url(#paint12_radial_956_12119)"/>
<path d="M52.5814 16.0158C51.682 21.9655 49.6065 39.1228 52.3738 52.1292C52.6506 53.4436 51.9587 54.6889 50.7826 55.2424L34.7322 62.2298C33.487 62.7833 32.0341 62.0915 31.619 60.8462C29.5435 54.2046 24.8391 34.3492 31.8266 8.12894C32.1725 6.81447 33.6253 6.12265 34.8706 6.60692L50.8518 13.0409C52.0971 13.5252 52.7889 14.7705 52.5814 16.0158Z" fill="#666666"/>
<path d="M52.5814 16.0158C51.682 21.9655 49.6065 39.1228 52.3738 52.1292C52.6506 53.4436 51.9587 54.6889 50.7826 55.2424L34.7322 62.2298C33.487 62.7833 32.0341 62.0915 31.619 60.8462C29.5435 54.2046 24.8391 34.3492 31.8266 8.12894C32.1725 6.81447 33.6253 6.12265 34.8706 6.60692L50.8518 13.0409C52.0971 13.5252 52.7889 14.7705 52.5814 16.0158Z" fill="url(#paint13_linear_956_12119)"/>
<path d="M51.4744 15.6005C51.4744 14.9087 51.0593 14.3553 50.4367 14.0785L34.4555 7.64453C34.1096 7.50616 33.7637 7.50616 33.4869 7.71371C33.2102 7.85208 33.0027 8.12881 32.9335 8.40554C30.5121 17.5377 29.2668 26.6698 29.2668 35.7327C29.2668 47.7013 31.4114 56.3492 32.6567 60.5001C32.7259 60.8461 33.0027 61.0536 33.2794 61.192C33.5561 61.3303 33.902 61.3303 34.2479 61.192L50.2983 54.2045C50.921 53.9278 51.2669 53.3743 51.2669 52.6825C51.2669 52.5441 51.2669 52.4749 51.1977 52.3366C50.2292 47.9089 49.8141 42.651 49.8141 36.6321C49.8141 27.9151 50.7826 19.8207 51.4053 15.8081C51.4744 15.7389 51.4744 15.6697 51.4744 15.6005Z" fill="black"/>
<path d="M50.9208 15.6006C50.9208 15.1855 50.6441 14.7704 50.229 14.5629L34.2478 8.12889C34.0403 8.05971 33.8327 8.12889 33.7635 8.12889C33.6252 8.19808 33.4868 8.26726 33.4868 8.47481C31.0654 17.6069 29.8893 26.739 29.8893 35.7328C29.8893 47.6322 32.034 56.2109 33.2793 60.2927C33.3484 60.5002 33.4868 60.6386 33.6252 60.6386C33.6943 60.7078 33.9019 60.7078 34.1094 60.6386L50.1598 53.6511C50.5749 53.4436 50.7825 53.0977 50.7825 52.6826C50.7825 52.6134 50.7825 52.5442 50.7825 52.475C49.8139 48.0473 49.3296 42.7203 49.3296 36.7014C49.3296 27.9152 50.2982 19.8208 50.9208 15.8082C50.9208 15.739 50.9208 15.6698 50.9208 15.6006Z" fill="#676B86"/>
<path opacity="0.4" d="M34.317 8.19798C34.1094 8.1288 33.9019 8.19798 33.8327 8.19798C33.6943 8.26717 33.556 8.33635 33.556 8.5439C31.0654 17.6068 29.8893 26.739 29.8893 35.7327C29.8893 47.6321 32.034 56.2108 33.2793 60.2926C33.3484 60.5001 33.4868 60.6385 33.6252 60.6385C33.6943 60.7077 33.9019 60.7077 34.1094 60.6385L38.7447 58.6322L38.7447 9.92755L34.317 8.19798Z" fill="black"/>
<path d="M34.5937 8.26699C32.8642 15.2544 31.8264 24.3866 31.8264 34.4181C31.8264 44.3804 32.8642 53.4433 34.5937 60.4308L34.0403 60.7075C33.8327 60.7767 33.6252 60.7767 33.556 60.7075C33.4868 60.6383 33.2793 60.5691 33.2101 60.3616C31.9648 56.2106 29.8893 47.632 29.8893 35.7325C29.8893 26.7388 31.1346 17.6067 33.556 8.54372C33.6252 8.33617 33.7635 8.26699 33.8327 8.19781C33.9019 8.12862 34.1094 8.05944 34.317 8.19781L34.5937 8.26699Z" fill="black"/>
<path opacity="0.5" d="M50.9208 15.6006C50.9208 15.1855 50.6441 14.7704 50.229 14.5629L34.2478 8.12889C34.0403 8.05971 33.8327 8.12889 33.7635 8.12889C33.6252 8.19808 33.4868 8.26726 33.4868 8.47481C31.0654 17.6069 29.8893 26.739 29.8893 35.7328C29.8893 47.6322 32.034 56.2109 33.2793 60.2927C33.3484 60.5002 33.4868 60.6386 33.6252 60.6386C33.6943 60.7078 33.9019 60.7078 34.1094 60.6386L50.1598 53.6511C50.5749 53.4436 50.7825 53.0977 50.7825 52.6826C50.7825 52.6134 50.7825 52.5442 50.7825 52.475C49.8139 48.0473 49.3296 42.7203 49.3296 36.7014C49.3296 27.9152 50.2982 19.8208 50.9208 15.8082C50.9208 15.739 50.9208 15.6698 50.9208 15.6006Z" fill="url(#paint14_radial_956_12119)"/>
<path opacity="0.3" d="M50.9208 15.6006C50.9208 15.1855 50.6441 14.7704 50.229 14.5629L34.2478 8.12889C34.0403 8.05971 33.8327 8.12889 33.7635 8.12889C33.6252 8.19808 33.4868 8.26726 33.4868 8.47481C31.0654 17.6069 29.8893 26.739 29.8893 35.7328C29.8893 47.6322 32.034 56.2109 33.2793 60.2927C33.3484 60.5002 33.4868 60.6386 33.6252 60.6386C33.6943 60.7078 33.9019 60.7078 34.1094 60.6386L50.1598 53.6511C50.5749 53.4436 50.7825 53.0977 50.7825 52.6826C50.7825 52.6134 50.7825 52.5442 50.7825 52.475C49.8139 48.0473 49.3296 42.7203 49.3296 36.7014C49.3296 27.9152 50.2982 19.8208 50.9208 15.8082C50.9208 15.739 50.9208 15.6698 50.9208 15.6006Z" fill="url(#paint15_radial_956_12119)"/>
<path d="M77.2795 61.6764C77.2795 61.6072 77.2795 61.538 77.2795 61.4689L78.3173 54.2047C78.3864 53.5128 79.0091 53.0286 79.7009 53.0286L88.2104 53.0286C88.4179 53.0286 88.5563 53.0978 88.7639 53.1669L108.688 61.6072C108.965 61.7456 109.173 62.0223 109.173 62.2991C109.173 62.7141 108.827 63.0601 108.412 63.0601L78.6632 63.0601C78.3173 63.0601 77.9714 62.9217 77.6946 62.645C77.4179 62.4374 77.2795 62.0915 77.2795 61.6764Z" fill="#666666"/>
<path d="M77.2795 61.6764C77.2795 61.6072 77.2795 61.538 77.2795 61.4689L78.3173 54.2047C78.3864 53.5128 79.0091 53.0286 79.7009 53.0286L88.2104 53.0286C88.4179 53.0286 88.5563 53.0978 88.7639 53.1669L108.688 61.6072C108.965 61.7456 109.173 62.0223 109.173 62.2991C109.173 62.7141 108.827 63.0601 108.412 63.0601L78.6632 63.0601C78.3173 63.0601 77.9714 62.9217 77.6946 62.645C77.4179 62.4374 77.2795 62.0915 77.2795 61.6764Z" fill="url(#paint16_linear_956_12119)"/>
<path d="M108.481 62.0915L88.5563 53.6512C88.4179 53.582 88.3487 53.582 88.2103 53.582L79.7009 53.582C79.2858 53.582 78.9399 53.9279 78.8707 54.343L77.8329 61.6072C77.7638 62.1607 78.1788 62.5758 78.6631 62.5758L108.412 62.5758C108.688 62.5758 108.758 62.1607 108.481 62.0915Z" fill="black"/>
<path d="M78.3173 61.6764L79.355 54.4122C79.355 54.2739 79.4934 54.1355 79.7009 54.1355L88.2104 54.1355C88.2796 54.1355 88.2796 54.1355 88.3488 54.1355L107.097 62.0915L78.594 62.0915C78.5248 62.0915 78.3865 62.0223 78.3173 62.0223C78.3865 61.884 78.3173 61.8148 78.3173 61.6764Z" fill="#676B86"/>
<path opacity="0.2" d="M78.6632 59.5316L78.3173 61.6762L78.3173 61.7454C78.3173 61.8146 78.3865 61.953 78.3865 61.953C78.4557 62.0222 78.5248 62.0222 78.6632 62.0222L107.166 62.0222L101.148 59.4624L78.6632 59.4624L78.6632 59.5316Z" fill="black"/>
<path opacity="0.5" d="M78.3173 61.6764L79.355 54.4122C79.355 54.2739 79.4934 54.1355 79.7009 54.1355L88.2104 54.1355C88.2796 54.1355 88.2796 54.1355 88.3488 54.1355L107.097 62.0915L78.594 62.0915C78.5248 62.0915 78.3865 62.0223 78.3173 62.0223C78.3865 61.884 78.3173 61.8148 78.3173 61.6764Z" fill="url(#paint17_linear_956_12119)"/>
<path opacity="0.3" d="M78.3173 61.6764L79.355 54.4122C79.355 54.2739 79.4934 54.1355 79.7009 54.1355L88.2104 54.1355C88.2796 54.1355 88.2796 54.1355 88.3488 54.1355L107.097 62.0915L78.594 62.0915C78.5248 62.0915 78.3865 62.0223 78.3173 62.0223C78.3865 61.884 78.3173 61.8148 78.3173 61.6764Z" fill="url(#paint18_linear_956_12119)"/>
<path d="M57.7701 62.0222C57.7701 61.953 57.7701 61.8147 57.8393 61.7455L59.9148 53.9279C60.0531 53.4436 60.4682 53.0977 60.9525 53.0977L77.0721 53.0977C77.6947 53.0977 78.179 53.5819 78.179 54.2046L78.179 54.3429L76.9337 62.1606C76.8645 62.7141 76.3803 63.06 75.8268 63.06L58.877 63.06C58.2544 63.06 57.7701 62.5757 57.7701 62.0222Z" fill="#666666"/>
<path d="M57.7701 62.0222C57.7701 61.953 57.7701 61.8147 57.8393 61.7455L59.9148 53.9279C60.0531 53.4436 60.4682 53.0977 60.9525 53.0977L77.0721 53.0977C77.6947 53.0977 78.179 53.5819 78.179 54.2046L78.179 54.3429L76.9337 62.1606C76.8645 62.7141 76.3803 63.06 75.8268 63.06L58.877 63.06C58.2544 63.06 57.7701 62.5757 57.7701 62.0222Z" fill="url(#paint19_linear_956_12119)"/>
<path d="M77.6256 54.2047L76.3803 62.0223C76.3111 62.2991 76.1036 62.5066 75.8268 62.5066L58.8771 62.5066C58.5312 62.5066 58.2544 62.1607 58.3236 61.8148L60.3991 53.9971C60.4683 53.7204 60.6758 53.582 60.9526 53.582L77.0721 53.582C77.418 53.582 77.6256 53.8588 77.6256 54.2047Z" fill="black"/>
<path d="M60.8832 54.1353L77.0719 54.0662L75.8958 61.953L58.8769 62.0222L58.8077 61.953L60.8832 54.1353Z" fill="#676B86"/>
<path opacity="0.2" d="M76.2419 59.5317L59.4305 59.5317C59.0846 60.9154 58.7387 62.0223 58.7387 62.0223L58.8078 62.0915L75.8268 62.0223L76.2419 59.5317Z" fill="black"/>
<path opacity="0.5" d="M60.8832 54.1353L77.0719 54.0662L75.8958 61.953L58.8769 62.0222L58.8077 61.953L60.8832 54.1353Z" fill="url(#paint20_linear_956_12119)"/>
<path opacity="0.3" d="M60.8832 54.1353L77.0719 54.0662L75.8958 61.953L58.8769 62.0222L58.8077 61.953L60.8832 54.1353Z" fill="url(#paint21_linear_956_12119)"/>
<path d="M38.3297 62.0915C38.3297 61.6764 38.5372 61.3997 38.8831 61.1921L56.5939 53.0977C56.7323 53.0286 56.8706 53.0286 57.009 53.0286L58.6002 53.0286C59.1537 53.0286 59.5688 53.4437 59.5688 53.9971C59.5688 54.0663 59.5688 54.2047 59.4996 54.2739L57.0782 62.3682C56.9398 62.7833 56.5939 63.0601 56.1788 63.0601L39.2982 63.0601C38.7448 63.0601 38.3297 62.645 38.3297 62.0915Z" fill="#666666"/>
<path d="M38.3297 62.0915C38.3297 61.6764 38.5372 61.3997 38.8831 61.1921L56.5939 53.0977C56.7323 53.0286 56.8706 53.0286 57.009 53.0286L58.6002 53.0286C59.1537 53.0286 59.5688 53.4437 59.5688 53.9971C59.5688 54.0663 59.5688 54.2047 59.4996 54.2739L57.0782 62.3682C56.9398 62.7833 56.5939 63.0601 56.1788 63.0601L39.2982 63.0601C38.7448 63.0601 38.3297 62.645 38.3297 62.0915Z" fill="url(#paint22_linear_956_12119)"/>
<path d="M59.0844 54.1353L56.663 62.2297C56.5938 62.4373 56.4554 62.5756 56.2479 62.5756L39.2981 62.5756C38.8138 62.5756 38.6755 61.8838 39.0906 61.6763L56.8013 53.5819C56.8705 53.5819 56.9397 53.5127 57.0089 53.5127L58.6001 53.5127C58.946 53.5819 59.1535 53.8586 59.0844 54.1353Z" fill="black"/>
<path d="M57.009 54.0662L58.6002 54.0662L56.1097 62.0914L39.575 62.0222L57.009 54.0662Z" fill="#676B86"/>
<path opacity="0.2" d="M45.1788 59.5315L39.575 62.0221L56.1097 62.0913L56.9399 59.5315L45.1788 59.5315Z" fill="black"/>
<path opacity="0.5" d="M57.009 54.0662L58.6002 54.0662L56.1097 62.0914L39.575 62.0222L57.009 54.0662Z" fill="url(#paint23_linear_956_12119)"/>
<path opacity="0.3" d="M57.009 54.0662L58.6002 54.0662L56.1097 62.0914L39.575 62.0222L57.009 54.0662Z" fill="url(#paint24_linear_956_12119)"/>
<path d="M77.2795 7.02184C77.2795 7.09102 77.2795 7.1602 77.2795 7.22939L78.3173 14.4936C78.3864 15.1854 79.0091 15.6697 79.7009 15.6697L88.2104 15.6697C88.4179 15.6697 88.5563 15.6005 88.7639 15.5313L108.688 7.09102C108.965 6.95265 109.173 6.67592 109.173 6.39919C109.173 5.9841 108.827 5.63818 108.412 5.63818L78.6632 5.63818C78.3173 5.63818 77.9714 5.77655 77.6946 6.05328C77.4179 6.33001 77.2795 6.67592 77.2795 7.02184Z" fill="#666666"/>
<path d="M77.2795 7.02184C77.2795 7.09102 77.2795 7.1602 77.2795 7.22939L78.3173 14.4936C78.3864 15.1854 79.0091 15.6697 79.7009 15.6697L88.2104 15.6697C88.4179 15.6697 88.5563 15.6005 88.7639 15.5313L108.688 7.09102C108.965 6.95265 109.173 6.67592 109.173 6.39919C109.173 5.9841 108.827 5.63818 108.412 5.63818L78.6632 5.63818C78.3173 5.63818 77.9714 5.77655 77.6946 6.05328C77.4179 6.33001 77.2795 6.67592 77.2795 7.02184Z" fill="url(#paint25_linear_956_12119)"/>
<path d="M108.481 6.67593L88.5563 15.1162C88.4179 15.1854 88.3487 15.1854 88.2103 15.1854L79.7009 15.1854C79.2858 15.1854 78.9399 14.8395 78.8707 14.4244L77.8329 7.16021C77.7638 6.60675 78.1788 6.19165 78.6631 6.19165L108.412 6.19165C108.688 6.19165 108.758 6.53756 108.481 6.67593Z" fill="black"/>
<path d="M78.3173 7.09088L79.355 14.3551C79.355 14.4934 79.4934 14.6318 79.7009 14.6318L88.2104 14.6318C88.2796 14.6318 88.2796 14.6318 88.3488 14.6318L107.097 6.67578L78.594 6.67578C78.5248 6.67578 78.3865 6.74496 78.3173 6.74496C78.3865 6.81415 78.3173 6.95251 78.3173 7.09088Z" fill="#676B86"/>
<path opacity="0.2" d="M78.6632 9.2357L78.3173 7.09103L78.3173 7.02185C78.3173 6.95267 78.3865 6.8143 78.3865 6.8143C78.4557 6.74512 78.5248 6.74512 78.6632 6.74512L107.166 6.74512L101.148 9.30488L78.6632 9.30488L78.6632 9.2357Z" fill="black"/>
<path opacity="0.5" d="M78.3173 7.09088L79.355 14.3551C79.355 14.4934 79.4934 14.6318 79.7009 14.6318L88.2104 14.6318C88.2796 14.6318 88.2796 14.6318 88.3488 14.6318L107.097 6.67578L78.594 6.67578C78.5248 6.67578 78.3865 6.74496 78.3173 6.74496C78.3865 6.81415 78.3173 6.95251 78.3173 7.09088Z" fill="url(#paint26_linear_956_12119)"/>
<path opacity="0.3" d="M78.3173 7.09088L79.355 14.3551C79.355 14.4934 79.4934 14.6318 79.7009 14.6318L88.2104 14.6318C88.2796 14.6318 88.2796 14.6318 88.3488 14.6318L107.097 6.67578L78.594 6.67578C78.5248 6.67578 78.3865 6.74496 78.3173 6.74496C78.3865 6.81415 78.3173 6.95251 78.3173 7.09088Z" fill="url(#paint27_linear_956_12119)"/>
<path d="M57.7701 6.74502C57.7701 6.8142 57.7701 6.95256 57.8393 7.02175L59.9148 14.8394C60.0531 15.3237 60.4682 15.6696 60.9525 15.6696L77.0721 15.6696C77.6947 15.6696 78.179 15.1853 78.179 14.5627L78.179 14.4243L76.9337 6.60665C76.8645 6.05319 76.3803 5.70727 75.8268 5.70727L58.877 5.70727C58.2544 5.63809 57.7701 6.12237 57.7701 6.74502Z" fill="#666666"/>
<path d="M57.7701 6.74502C57.7701 6.8142 57.7701 6.95256 57.8393 7.02175L59.9148 14.8394C60.0531 15.3237 60.4682 15.6696 60.9525 15.6696L77.0721 15.6696C77.6947 15.6696 78.179 15.1853 78.179 14.5627L78.179 14.4243L76.9337 6.60665C76.8645 6.05319 76.3803 5.70727 75.8268 5.70727L58.877 5.70727C58.2544 5.63809 57.7701 6.12237 57.7701 6.74502Z" fill="url(#paint28_linear_956_12119)"/>
<path d="M77.6256 14.4936L76.3803 6.67593C76.3111 6.3992 76.1036 6.19165 75.8268 6.19165L58.8771 6.19165C58.5312 6.19165 58.2544 6.53756 58.3236 6.88348L60.3991 14.7011C60.4683 14.9779 60.6758 15.1162 60.9526 15.1162L77.0721 15.1162C77.418 15.1854 77.6256 14.8395 77.6256 14.4936Z" fill="black"/>
<path d="M60.8832 14.5626L77.0719 14.6318L75.8958 6.74496L58.8769 6.67578L58.8077 6.74496L60.8832 14.5626Z" fill="#676B86"/>
<path opacity="0.2" d="M76.2419 9.23554L59.4305 9.23554C59.0846 7.85189 58.7387 6.74496 58.7387 6.74496L58.8078 6.67578L75.8268 6.74496L76.2419 9.23554Z" fill="black"/>
<path opacity="0.5" d="M60.8832 14.5626L77.0719 14.6318L75.8958 6.74496L58.8769 6.67578L58.8077 6.74496L60.8832 14.5626Z" fill="url(#paint29_linear_956_12119)"/>
<path opacity="0.3" d="M60.8832 14.5626L77.0719 14.6318L75.8958 6.74496L58.8769 6.67578L58.8077 6.74496L60.8832 14.5626Z" fill="url(#paint30_linear_956_12119)"/>
<path d="M38.3297 6.60674C38.3297 7.02184 38.5372 7.29857 38.8831 7.50612L56.5939 15.6005C56.7323 15.6697 56.8706 15.6697 57.009 15.6697L58.6002 15.6697C59.1537 15.6697 59.5688 15.2546 59.5688 14.7011C59.5688 14.6319 59.5688 14.4936 59.4996 14.4244L57.1474 6.33001C57.009 5.91491 56.6631 5.63818 56.248 5.63818L39.2982 5.63818C38.7448 5.63818 38.3297 6.05328 38.3297 6.60674Z" fill="#666666"/>
<path d="M38.3297 6.60674C38.3297 7.02184 38.5372 7.29857 38.8831 7.50612L56.5939 15.6005C56.7323 15.6697 56.8706 15.6697 57.009 15.6697L58.6002 15.6697C59.1537 15.6697 59.5688 15.2546 59.5688 14.7011C59.5688 14.6319 59.5688 14.4936 59.4996 14.4244L57.1474 6.33001C57.009 5.91491 56.6631 5.63818 56.248 5.63818L39.2982 5.63818C38.7448 5.63818 38.3297 6.05328 38.3297 6.60674Z" fill="url(#paint31_linear_956_12119)"/>
<path d="M59.0844 14.5626L56.5938 6.46823C56.5246 6.26068 56.3862 6.12231 56.1787 6.12231L39.2981 6.12231C38.8138 6.12231 38.6755 6.81414 39.0906 7.02169L56.8013 15.1161C56.8705 15.1161 56.9397 15.1853 57.0089 15.1853L58.6001 15.1853C58.946 15.1853 59.1535 14.8393 59.0844 14.5626Z" fill="black"/>
<path d="M57.009 14.6319L58.6002 14.6319L56.1097 6.60669L39.575 6.67587L57.009 14.6319Z" fill="#676B86"/>
<path opacity="0.2" d="M45.1788 9.23563L39.575 6.67587L56.1097 6.60669L56.9399 9.23563L45.1788 9.23563Z" fill="black"/>
<path opacity="0.5" d="M57.009 14.6319L58.6002 14.6319L56.1097 6.60669L39.575 6.67587L57.009 14.6319Z" fill="url(#paint32_linear_956_12119)"/>
<path opacity="0.3" d="M57.009 14.6319L58.6002 14.6319L56.1097 6.60669L39.575 6.67587L57.009 14.6319Z" fill="url(#paint33_linear_956_12119)"/>
<path d="M114.984 57.3175C114.984 57.0408 115.192 56.8333 115.468 56.8333L117.751 56.8333C118.028 56.8333 118.236 57.0408 118.236 57.3175C118.236 57.5943 118.028 57.8018 117.751 57.8018L115.468 57.8018C115.192 57.8018 114.984 57.5943 114.984 57.3175Z" fill="#666666"/>
<path d="M118.097 57.2484C118.028 57.11 117.89 56.9717 117.682 56.9717L115.538 56.9717C115.33 56.9717 115.192 57.11 115.123 57.2484C115.192 57.3868 115.33 57.5251 115.538 57.5251L117.682 57.5251C117.89 57.5251 118.028 57.3868 118.097 57.2484Z" fill="url(#paint34_linear_956_12119)"/>
<path d="M115.399 55.4494C115.399 55.1726 115.607 54.9651 115.884 54.9651L118.167 54.9651C118.443 54.9651 118.651 55.1726 118.651 55.4494C118.651 55.7261 118.443 55.9336 118.167 55.9336L115.884 55.9336C115.676 55.9336 115.399 55.7261 115.399 55.4494Z" fill="#666666"/>
<path d="M118.582 55.3802C118.512 55.2419 118.374 55.1035 118.167 55.1035L116.022 55.1035C115.814 55.1035 115.676 55.2419 115.607 55.3802C115.676 55.5186 115.814 55.657 116.022 55.657L118.167 55.657C118.305 55.657 118.512 55.5186 118.582 55.3802Z" fill="url(#paint35_linear_956_12119)"/>
<path d="M115.953 53.5817C115.953 53.305 116.16 53.0974 116.437 53.0974L118.72 53.0974C118.997 53.0974 119.204 53.305 119.204 53.5817C119.204 53.8584 118.997 54.066 118.72 54.066L116.437 54.066C116.16 54.066 115.953 53.8584 115.953 53.5817Z" fill="#666666"/>
<path d="M119.066 53.5123C118.997 53.374 118.858 53.2356 118.651 53.2356L116.506 53.2356C116.298 53.2356 116.16 53.374 116.091 53.5123C116.16 53.6507 116.298 53.7891 116.506 53.7891L118.651 53.7891C118.858 53.7891 118.997 53.6507 119.066 53.5123Z" fill="url(#paint36_linear_956_12119)"/>
<path d="M119.204 15.808C119.204 15.5313 118.997 15.3237 118.72 15.3237L116.437 15.3237C116.16 15.3237 115.953 15.5313 115.953 15.808C115.953 16.0847 116.16 16.2923 116.437 16.2923L118.72 16.2923C118.997 16.2923 119.204 16.0847 119.204 15.808Z" fill="#666666"/>
<path d="M116.091 15.7389C116.16 15.6005 116.299 15.4622 116.506 15.4622L118.651 15.4622C118.858 15.4622 118.997 15.6005 119.066 15.7389C118.997 15.8773 118.858 16.0156 118.651 16.0156L116.506 16.0156C116.299 16.0156 116.16 15.8773 116.091 15.7389Z" fill="url(#paint37_linear_956_12119)"/>
<path d="M118.789 13.9401C118.789 13.6634 118.582 13.4558 118.305 13.4558L116.022 13.4558C115.745 13.4558 115.537 13.6634 115.537 13.9401C115.537 14.2168 115.745 14.4244 116.022 14.4244L118.305 14.4244C118.582 14.4244 118.789 14.2168 118.789 13.9401Z" fill="#666666"/>
<path d="M115.676 13.8707C115.745 13.7324 115.883 13.594 116.091 13.594L118.236 13.594C118.443 13.594 118.582 13.7324 118.651 13.8707C118.582 14.0091 118.443 14.1475 118.236 14.1475L116.091 14.1475C115.883 14.1475 115.745 14.0091 115.676 13.8707Z" fill="url(#paint38_linear_956_12119)"/>
<path d="M118.305 12.0722C118.305 11.7954 118.097 11.5879 117.821 11.5879L115.538 11.5879C115.261 11.5879 115.053 11.7954 115.053 12.0722C115.053 12.3489 115.261 12.5564 115.538 12.5564L117.821 12.5564C118.028 12.5564 118.305 12.3489 118.305 12.0722Z" fill="#666666"/>
<path d="M115.123 12.003C115.192 11.8647 115.33 11.7263 115.538 11.7263L117.682 11.7263C117.89 11.7263 118.028 11.8647 118.098 12.003C118.028 12.1414 117.89 12.2798 117.682 12.2798L115.538 12.2798C115.399 12.2798 115.192 12.1414 115.123 12.003Z" fill="url(#paint39_linear_956_12119)"/>
<path d="M3.32314 9.44322L4.49924 9.44322C5.60617 7.57529 7.68165 6.33 10.0339 6.33L8.85775 6.33C6.50554 6.26082 4.43006 7.57529 3.32314 9.44322Z" fill="#FF6600"/>
<path d="M10.0339 6.26099L9.68794 6.26099C7.33572 6.26099 5.26024 7.50628 4.15332 9.37421L4.49923 9.37421C5.60616 7.57546 7.68164 6.26099 10.0339 6.26099Z" fill="url(#paint40_radial_956_12119)"/>
<path d="M3.32316 9.44336C2.70051 10.4119 2.3546 11.588 2.3546 12.8333L2.3546 16.9151L3.53071 17.1918L3.53071 12.8333C3.53071 11.588 3.87662 10.4811 4.49926 9.44336L3.32316 9.44336Z" fill="#CC0000"/>
<path d="M3.25409 17.1226L3.53082 17.1918L3.53082 12.8333C3.53082 11.588 3.87673 10.4811 4.49938 9.44336L4.22265 9.44336C3.6 10.4119 3.25409 11.588 3.25409 12.8333L3.25409 17.1226Z" fill="url(#paint41_radial_956_12119)"/>
<path opacity="0.3" d="M3.8075 10.1353C3.87669 9.99692 4.01505 9.78937 3.94587 9.651C3.87669 9.51264 3.66914 9.51264 3.53077 9.58182C3.39241 9.651 3.32322 9.78937 3.25404 9.99692C2.83894 10.9655 2.70058 12.0724 2.6314 13.1793C2.6314 13.802 2.6314 14.4246 2.6314 15.0473C2.6314 15.3932 2.49303 16.2234 2.83894 16.5001C2.97731 16.5693 3.25404 16.5693 3.39241 16.6385C3.39241 15.6007 3.39241 14.563 3.39241 13.5252C3.39241 12.6259 3.39241 11.7265 3.59995 10.8963C3.66914 10.6196 3.73832 10.3428 3.8075 10.1353Z" fill="#660000"/>
<path opacity="0.5" d="M7.68163 6.5376C6.98981 6.81433 6.36716 7.16024 5.74452 7.57534C5.12187 7.99043 4.6376 8.5439 4.36087 9.23572C4.15332 9.30491 3.94577 9.23572 3.73822 9.16654C4.6376 7.78289 6.09043 6.81433 7.68163 6.5376Z" fill="#FF3300"/>
<path d="M3.32314 59.9465L4.49924 59.9465C5.60617 61.8145 7.68165 63.0598 10.0339 63.0598L8.85775 63.0598C6.50554 63.0598 4.43006 61.8145 3.32314 59.9465Z" fill="#FF6600"/>
<path d="M10.0339 63.0598L9.68794 63.0598C7.33572 63.0598 5.26024 61.8145 4.15332 59.9465L4.49923 59.9465C5.60616 61.8145 7.68164 63.0598 10.0339 63.0598Z" fill="url(#paint42_radial_956_12119)"/>
<path d="M3.32316 59.9469C2.70051 58.9783 2.3546 57.8022 2.3546 56.6261L2.3546 52.5443L3.53071 52.2676L3.53071 56.6261C3.53071 57.8714 3.87662 58.9783 4.49926 59.9469L3.32316 59.9469Z" fill="#CC0000"/>
<path d="M3.25409 52.2674L3.53082 52.1982L3.53082 56.5568C3.53082 57.802 3.87673 58.909 4.49938 59.8775L4.22265 59.8775C3.6 58.909 3.25409 57.7329 3.25409 56.5568L3.25409 52.2674Z" fill="url(#paint43_radial_956_12119)"/>
<path opacity="0.3" d="M3.8075 59.1856C3.87669 59.3239 4.01505 59.5315 3.94587 59.6698C3.87669 59.8082 3.66914 59.8082 3.53077 59.739C3.39241 59.6698 3.32322 59.5315 3.25404 59.3239C2.83894 58.3554 2.70058 57.2484 2.6314 56.1415C2.6314 55.5189 2.6314 54.8962 2.6314 54.2736C2.6314 53.9277 2.49303 53.0975 2.83894 52.8207C2.97731 52.7516 3.25404 52.7516 3.39241 52.6824C3.39241 53.7201 3.39241 54.7579 3.39241 55.7956C3.39241 56.695 3.39241 57.5943 3.59995 58.4245C3.66914 58.7705 3.73832 58.978 3.8075 59.1856Z" fill="#660000"/>
<path opacity="0.5" d="M7.68165 62.8525C6.98982 62.5758 6.36718 62.2299 5.74453 61.8148C5.12189 61.3997 4.63761 60.8462 4.36088 60.1544C4.15333 60.0852 3.94578 60.1544 3.73824 60.2236C4.63761 61.6072 6.09045 62.5758 7.68165 62.8525Z" fill="#FF3300"/>
<path d="M2.90812 37.1162C2.70058 37.1162 2.56221 36.6319 2.56221 36.0785L2.56221 31.0973C2.56221 30.5438 2.70058 30.0596 2.90812 30.0596C3.11567 30.0596 3.25404 30.5438 3.25404 31.0973L3.25404 36.0785C3.25404 36.6319 3.11567 37.1162 2.90812 37.1162Z" fill="#666666"/>
<path d="M2.83879 30.4055C2.70042 30.5439 2.63124 30.8898 2.63124 31.3049L2.63124 35.9401C2.63124 36.3552 2.70042 36.7011 2.83879 36.8395C2.97715 36.7011 3.04634 36.3552 3.04634 35.9401L3.04634 31.3049C3.04634 30.8898 2.97715 30.5439 2.83879 30.4055Z" fill="url(#paint44_linear_956_12119)"/>
<path opacity="0.5" d="M-0.343399 52.0601C-0.343399 58.9784 5.2604 64.6513 12.2479 64.6513L143.142 64.6513C152.689 64.6513 160.437 56.9029 160.437 47.3557L160.437 34.4185C160.437 34.4185 159.054 36.1481 157.808 34.4185L157.808 43.5506L156.701 43.8273L156.701 36.0097C156.701 36.0097 138.506 37.7393 116.506 36.7015C116.506 36.7015 116.506 53.9972 111.802 62.2299L111.11 60.7079C111.11 60.7079 115.538 46.8714 114.707 31.2361C114.707 31.2361 107.651 33.5191 95.1979 31.2361C95.1979 31.2361 96.0281 44.1041 93.8835 52.7519L94.7828 36.3556C94.7828 36.3556 74.4431 37.6009 51.0594 36.3556C51.0594 36.3556 51.5436 51.4374 52.443 53.3054L50.8518 52.6827C50.8518 52.6827 48.4304 40.9217 49.4682 32.7581C49.4682 32.7581 39.7826 35.0411 29.4052 32.7581C29.4052 32.7581 28.6442 45.5569 31.8958 57.2488C31.8958 57.2488 27.8832 47.9091 28.2291 36.0097C28.2291 36.0097 21.1724 37.255 3.32329 36.0097C3.32329 36.0097 3.46165 54.3431 4.36103 59.4626C4.36103 59.4626 0.832707 54.7582 2.42391 39.6072C2.42391 39.6072 1.04026 40.9909 -0.274216 39.6072L-0.274216 52.0601L-0.343399 52.0601Z" fill="url(#paint45_linear_956_12119)"/>
<path opacity="0.5" d="M94.7136 36.8395L94.7136 36.3552C94.7136 36.3552 74.3739 37.6005 50.9901 36.3552C50.9901 36.3552 50.9901 36.5628 50.9901 36.8395C74.0971 38.0848 94.1601 36.8395 94.7136 36.8395Z" fill="url(#paint46_linear_956_12119)"/>
<path opacity="0.5" d="M156.632 36.4936L156.632 36.0093C156.632 36.0093 138.437 37.7388 116.437 36.7011L116.437 37.1854C138.506 38.2231 156.632 36.4936 156.632 36.4936Z" fill="url(#paint47_linear_956_12119)"/>
<path opacity="0.5" d="M93.8834 53.1664C95.1286 48.1853 95.3362 41.8205 95.3362 37.2544C95.3362 41.6821 95.0595 47.701 93.8834 52.5438L93.8834 53.1664Z" fill="url(#paint48_linear_956_12119)"/>
<path opacity="0.5" d="M4.22259 59.393C3.80749 58.7012 2.00874 55.3804 1.93956 47.3552C1.93956 56.8333 4.29177 60.0157 4.29177 60.0157C4.29177 59.8081 4.22259 59.6006 4.22259 59.393Z" fill="url(#paint49_linear_956_12119)"/>
<path opacity="0.5" d="M156.632 44.3111L157.808 44.0343L157.808 43.55L156.632 43.8268L156.632 44.3111Z" fill="url(#paint50_linear_956_12119)"/>
<path opacity="0.5" d="M2.28565 40.1603C2.28565 39.9528 2.28565 39.8144 2.35483 39.676C2.35483 39.676 0.971179 41.0597 -0.343292 39.676L-0.343292 40.1603C0.832814 41.3364 2.0781 40.3679 2.28565 40.1603Z" fill="url(#paint51_linear_956_12119)"/>
<path opacity="0.5" d="M29.2669 36.4937C29.2669 34.4874 29.3361 33.2421 29.3361 33.2421C39.3676 35.4559 48.7072 33.3805 49.3299 33.2421C49.3299 33.1037 49.399 32.8962 49.399 32.7578C49.399 32.7578 39.7135 35.0408 29.3361 32.7578C29.4052 32.827 29.2669 34.2107 29.2669 36.4937Z" fill="url(#paint52_linear_956_12119)"/>
<path opacity="0.5" d="M3.25414 36.5629C20.9649 37.8082 28.0907 36.5629 28.1599 36.5629C28.1599 36.4245 28.1599 36.217 28.1599 36.0786C28.1599 36.0786 21.1033 37.3239 3.25414 36.0786C3.25414 36.0786 3.25414 36.2862 3.25414 36.5629Z" fill="url(#paint53_linear_956_12119)"/>
<path opacity="0.5" d="M95.1979 31.6508C107.651 33.9338 114.707 31.6508 114.707 31.6508C114.777 33.0344 114.777 34.3489 114.777 35.6634C114.777 34.2105 114.777 32.6885 114.707 31.1665C114.707 31.1665 107.651 33.4495 95.1979 31.1665C95.1979 31.1665 95.1979 31.3741 95.1979 31.6508Z" fill="url(#paint54_linear_956_12119)"/>
<path d="M105.99 6.67593L103.292 -0.311523L104.607 -0.311523C105.229 -0.311523 105.783 0.0343902 105.99 0.657035L108.342 6.67593L105.99 6.67593Z" fill="black"/>
<path opacity="0.4" d="M105.783 6.67593L103.154 -0.311523L104.468 -0.311523C105.091 -0.311523 105.644 0.0343902 105.852 0.657035L108.204 6.67593L105.783 6.67593Z" fill="url(#paint55_linear_956_12119)"/>
<path d="M104.122 4.66963L102.67 0.241938C102.6 -0.0347925 102.808 -0.311523 103.085 -0.311523L104.676 -0.311523L106.405 4.94636L104.538 4.94636C104.399 4.94636 104.192 4.87718 104.122 4.66963Z" fill="#333333"/>
<path d="M104.122 4.66963L102.67 0.241938C102.6 -0.0347925 102.808 -0.311523 103.085 -0.311523L104.676 -0.311523L106.405 4.94636L104.538 4.94636C104.399 4.94636 104.192 4.87718 104.122 4.66963Z" fill="url(#paint56_linear_956_12119)"/>
<path d="M105.99 62.022L103.292 69.0094L104.607 69.0094C105.229 69.0094 105.783 68.6635 105.99 68.0409L108.342 62.022L105.99 62.022Z" fill="black"/>
<path opacity="0.4" d="M105.783 62.022L103.085 69.0094L104.399 69.0094C105.022 69.0094 105.575 68.6635 105.783 68.0409L108.135 62.022L105.783 62.022Z" fill="url(#paint57_linear_956_12119)"/>
<path d="M104.122 64.0284L102.67 68.4561C102.6 68.7329 102.808 69.0096 103.085 69.0096L104.676 69.0096L106.405 63.7517L104.537 63.7517C104.399 63.7517 104.192 63.8901 104.122 64.0284Z" fill="#333333"/>
<path d="M104.122 64.0284L102.67 68.4561C102.6 68.7329 102.808 69.0096 103.085 69.0096L104.676 69.0096L106.405 63.7517L104.537 63.7517C104.399 63.7517 104.192 63.8901 104.122 64.0284Z" fill="url(#paint58_linear_956_12119)"/>
<path opacity="0.7" d="M82.2605 47.6321L82.2605 19.5439L85.7197 20.5817L85.7197 48.6699L82.2605 47.6321Z" fill="url(#paint59_linear_956_12119)"/>
<path d="M83.16 48.1163L83.16 20.5816C83.16 19.7514 83.8518 19.0596 84.682 19.0596L86.2732 19.0596C87.1034 19.0596 87.7953 19.7514 87.7953 20.5816L87.7953 48.1163C87.7953 48.9465 87.1034 49.6383 86.2732 49.6383L84.682 49.6383C83.7827 49.6383 83.16 48.9465 83.16 48.1163Z" fill="#999999"/>
<path d="M87.7954 48.1164L87.7954 37.739L83.1601 37.739L83.1601 48.1164C83.1601 48.9466 83.8519 49.6384 84.6821 49.6384L86.2733 49.6384C87.1035 49.6384 87.7954 48.9466 87.7954 48.1164Z" fill="#3399FF"/>
<path opacity="0.5" d="M84.267 38.8459L86.6884 38.8459L86.6884 48.1164C86.6884 48.324 86.4809 48.5315 86.2733 48.5315L84.6821 48.5315C84.4746 48.5315 84.267 48.324 84.267 48.1164L84.267 38.8459Z" fill="#0D69B5"/>
<path d="M87.7953 20.5816L87.7953 30.959L83.16 30.959L83.16 20.5816C83.16 19.7514 83.8518 19.0596 84.682 19.0596L86.2732 19.0596C87.1034 19.0596 87.7953 19.7514 87.7953 20.5816Z" fill="#CC0000"/>
<path opacity="0.3" d="M84.267 20.5818C84.267 20.3743 84.4746 20.1667 84.6821 20.1667L86.2733 20.1667C86.4809 20.1667 86.6884 20.3743 86.6884 20.5818L86.6884 29.8523L84.267 29.8523L84.267 20.5818Z" fill="#660000"/>
<path opacity="0.5" d="M83.16 48.1163L83.16 20.5816C83.16 19.7514 83.8518 19.0596 84.682 19.0596L86.2732 19.0596C87.1034 19.0596 87.7953 19.7514 87.7953 20.5816L87.7953 48.1163C87.7953 48.9465 87.1034 49.6383 86.2732 49.6383L84.682 49.6383C83.7827 49.6383 83.16 48.9465 83.16 48.1163Z" fill="url(#paint60_radial_956_12119)"/>
<path opacity="0.5" d="M83.16 48.1163L83.16 20.5816C83.16 19.7514 83.8518 19.0596 84.682 19.0596L86.2732 19.0596C87.1034 19.0596 87.7953 19.7514 87.7953 20.5816L87.7953 48.1163C87.7953 48.9465 87.1034 49.6383 86.2732 49.6383L84.682 49.6383C83.7827 49.6383 83.16 48.9465 83.16 48.1163Z" fill="url(#paint61_linear_956_12119)"/>
<path d="M87.3803 47.563L87.3803 21.1352C87.3803 20.305 86.7577 19.6824 86.0659 19.6824L85.4432 19.6824C86.2042 19.6824 86.7577 20.305 86.7577 21.1352L86.7577 47.563C86.7577 48.3932 86.1351 49.0158 85.4432 49.0158L86.0659 49.0158C86.8269 49.0158 87.3803 48.3932 87.3803 47.563Z" fill="url(#paint62_linear_956_12119)"/>
<path d="M83.5061 47.563L83.5061 21.1352C83.5061 20.305 84.1288 19.6824 84.8206 19.6824L85.4433 19.6824C84.6823 19.6824 84.1288 20.305 84.1288 21.1352L84.1288 47.563C84.1288 48.3932 84.7514 49.0158 85.4433 49.0158L84.8206 49.0158C84.1288 49.0158 83.5061 48.3932 83.5061 47.563Z" fill="url(#paint63_linear_956_12119)"/>
<path opacity="0.4" d="M87.5188 19.7515L87.0345 20.1666C86.8961 20.3049 86.5502 20.3741 86.2735 20.3741L84.6131 20.3741C84.2672 20.3741 83.9904 20.3049 83.8521 20.1666L83.3678 19.7515C83.2986 19.8898 83.2294 19.959 83.2294 20.0974L83.5062 20.3741C83.6445 20.5125 83.9904 20.5817 84.3363 20.5817L86.5502 20.5817C86.8961 20.5817 87.1728 20.5125 87.3804 20.3741L87.7263 20.0974C87.6571 19.959 87.5879 19.8206 87.5188 19.7515Z" fill="white"/>
<path opacity="0.4" d="M87.5188 48.9466L87.0345 48.5316C86.8962 48.3932 86.5503 48.324 86.2735 48.324L84.6132 48.324C84.2672 48.324 83.9905 48.3932 83.8521 48.5316L83.3679 48.9466C83.2987 48.8083 83.2295 48.7391 83.2295 48.6007L83.5062 48.324C83.6446 48.1856 83.9905 48.1165 84.3364 48.1165L86.5503 48.1165C86.8962 48.1165 87.1729 48.1856 87.3805 48.324L87.7264 48.6007C87.6572 48.7391 87.588 48.8775 87.5188 48.9466Z" fill="white"/>
<path opacity="0.4" d="M85.5815 21.2734L85.3739 21.2734L85.3739 47.4245L85.5815 47.4245L85.5815 21.2734Z" fill="black"/>
</g>
<defs>
<linearGradient id="paint0_linear_956_12119" x1="0.40757" y1="34.3625" x2="-1.81098" y2="34.3625" gradientUnits="userSpaceOnUse">
<stop offset="0.00510204"/>
<stop offset="1" stop-opacity="0"/>
</linearGradient>
<radialGradient id="paint1_radial_956_12119" cx="0" cy="0" r="1" gradientUnits="userSpaceOnUse" gradientTransform="translate(80.0231 34.4274) rotate(90.0434) scale(92.7826 72.8993)">
<stop offset="0.5342" stop-opacity="0"/>
<stop offset="0.9949"/>
</radialGradient>
<radialGradient id="paint2_radial_956_12119" cx="0" cy="0" r="1" gradientUnits="userSpaceOnUse" gradientTransform="translate(2.32994 32.9542) rotate(90) scale(27.2966 1.84989)">
<stop offset="0.00510204"/>
<stop offset="1" stop-opacity="0"/>
</radialGradient>
<linearGradient id="paint3_linear_956_12119" x1="158.769" y1="34.4276" x2="157.779" y2="34.4276" gradientUnits="userSpaceOnUse">
<stop stop-opacity="0"/>
<stop offset="0.9898"/>
</linearGradient>
<linearGradient id="paint4_linear_956_12119" x1="158.054" y1="34.4276" x2="160.379" y2="34.4276" gradientUnits="userSpaceOnUse">
<stop offset="0.4222" stop-color="white" stop-opacity="0"/>
<stop offset="1" stop-color="white"/>
</linearGradient>
<linearGradient id="paint5_linear_956_12119" x1="80.0362" y1="6.29215" x2="80.0362" y2="62.5634" gradientUnits="userSpaceOnUse">
<stop offset="0.4222" stop-color="white" stop-opacity="0"/>
<stop offset="1" stop-color="white"/>
</linearGradient>
<linearGradient id="paint6_linear_956_12119" x1="2.30832" y1="34.4278" x2="3.66354" y2="34.4278" gradientUnits="userSpaceOnUse">
<stop offset="0.00510204"/>
<stop offset="1" stop-opacity="0"/>
</linearGradient>
<radialGradient id="paint7_radial_956_12119" cx="0" cy="0" r="1" gradientUnits="userSpaceOnUse" gradientTransform="translate(78.4918 35.5432) rotate(-90) scale(56.7696 56.3973)">
<stop stop-color="white" stop-opacity="0"/>
<stop offset="1" stop-color="white"/>
</radialGradient>
<linearGradient id="paint8_linear_956_12119" x1="135.448" y1="24.8621" x2="135.447" y2="22.7301" gradientUnits="userSpaceOnUse">
<stop offset="0.00510204"/>
<stop offset="1" stop-opacity="0"/>
</linearGradient>
<linearGradient id="paint9_linear_956_12119" x1="135.458" y1="47.5516" x2="135.448" y2="43.8974" gradientUnits="userSpaceOnUse">
<stop offset="0.4222" stop-color="white" stop-opacity="0"/>
<stop offset="1" stop-color="white"/>
</linearGradient>
<linearGradient id="paint10_linear_956_12119" x1="116.529" y1="34.4268" x2="114.882" y2="34.4268" gradientUnits="userSpaceOnUse">
<stop offset="0.00510204"/>
<stop offset="1" stop-opacity="0"/>
</linearGradient>
<radialGradient id="paint11_radial_956_12119" cx="0" cy="0" r="1" gradientUnits="userSpaceOnUse" gradientTransform="translate(105.122 8.26442) rotate(90) scale(45.6936 45.6936)">
<stop stop-color="white" stop-opacity="0"/>
<stop offset="1" stop-color="white"/>
</radialGradient>
<radialGradient id="paint12_radial_956_12119" cx="0" cy="0" r="1" gradientUnits="userSpaceOnUse" gradientTransform="translate(102.515 13.5197) rotate(90) scale(43.9863 43.9863)">
<stop offset="0.0102041"/>
<stop offset="1" stop-opacity="0"/>
</radialGradient>
<linearGradient id="paint13_linear_956_12119" x1="28.2608" y1="34.4268" x2="29.9046" y2="34.4268" gradientUnits="userSpaceOnUse">
<stop offset="0.00510204"/>
<stop offset="1" stop-opacity="0"/>
</linearGradient>
<radialGradient id="paint14_radial_956_12119" cx="0" cy="0" r="1" gradientUnits="userSpaceOnUse" gradientTransform="translate(39.5316 8.26442) rotate(90) scale(45.6936 45.6936)">
<stop stop-color="white" stop-opacity="0"/>
<stop offset="1" stop-color="white"/>
</radialGradient>
<radialGradient id="paint15_radial_956_12119" cx="0" cy="0" r="1" gradientUnits="userSpaceOnUse" gradientTransform="translate(47.5339 18.5102) rotate(90) scale(60.3173 60.3173)">
<stop offset="0.0102041"/>
<stop offset="1" stop-opacity="0"/>
</radialGradient>
<linearGradient id="paint16_linear_956_12119" x1="93.2349" y1="63.155" x2="93.2349" y2="62.542" gradientUnits="userSpaceOnUse">
<stop offset="0.00510204"/>
<stop offset="1" stop-opacity="0"/>
</linearGradient>
<linearGradient id="paint17_linear_956_12119" x1="92.7367" y1="62.0043" x2="92.7367" y2="59.4226" gradientUnits="userSpaceOnUse">
<stop stop-color="white"/>
<stop offset="1" stop-color="white" stop-opacity="0"/>
</linearGradient>
<linearGradient id="paint18_linear_956_12119" x1="92.7367" y1="57.7022" x2="92.7367" y2="54.2162" gradientUnits="userSpaceOnUse">
<stop stop-opacity="0"/>
<stop offset="0.9898"/>
</linearGradient>
<linearGradient id="paint19_linear_956_12119" x1="67.9418" y1="63.0582" x2="67.9418" y2="62.5419" gradientUnits="userSpaceOnUse">
<stop offset="0.00510204"/>
<stop offset="1" stop-opacity="0"/>
</linearGradient>
<linearGradient id="paint20_linear_956_12119" x1="67.9133" y1="62.0041" x2="67.9133" y2="59.4225" gradientUnits="userSpaceOnUse">
<stop stop-color="white"/>
<stop offset="1" stop-color="white" stop-opacity="0"/>
</linearGradient>
<linearGradient id="paint21_linear_956_12119" x1="67.9133" y1="57.7021" x2="67.9133" y2="54.216" gradientUnits="userSpaceOnUse">
<stop stop-opacity="0"/>
<stop offset="0.9898"/>
</linearGradient>
<linearGradient id="paint22_linear_956_12119" x1="48.9696" y1="63.0583" x2="48.9696" y2="62.542" gradientUnits="userSpaceOnUse">
<stop offset="0.00510204"/>
<stop offset="1" stop-opacity="0"/>
</linearGradient>
<linearGradient id="paint23_linear_956_12119" x1="49.1001" y1="62.0041" x2="49.1001" y2="59.4225" gradientUnits="userSpaceOnUse">
<stop stop-color="white"/>
<stop offset="1" stop-color="white" stop-opacity="0"/>
</linearGradient>
<linearGradient id="paint24_linear_956_12119" x1="49.1001" y1="57.7021" x2="49.1001" y2="54.216" gradientUnits="userSpaceOnUse">
<stop stop-opacity="0"/>
<stop offset="0.9898"/>
</linearGradient>
<linearGradient id="paint25_linear_956_12119" x1="93.2349" y1="5.57018" x2="93.2349" y2="6.18321" gradientUnits="userSpaceOnUse">
<stop offset="0.00510204"/>
<stop offset="1" stop-opacity="0"/>
</linearGradient>
<linearGradient id="paint26_linear_956_12119" x1="92.7367" y1="6.72082" x2="92.7367" y2="9.30244" gradientUnits="userSpaceOnUse">
<stop stop-color="white"/>
<stop offset="1" stop-color="white" stop-opacity="0"/>
</linearGradient>
<linearGradient id="paint27_linear_956_12119" x1="92.7367" y1="11.0229" x2="92.7367" y2="14.5089" gradientUnits="userSpaceOnUse">
<stop stop-opacity="0"/>
<stop offset="0.9898"/>
</linearGradient>
<linearGradient id="paint28_linear_956_12119" x1="67.9418" y1="5.66687" x2="67.9418" y2="6.18311" gradientUnits="userSpaceOnUse">
<stop offset="0.00510204"/>
<stop offset="1" stop-opacity="0"/>
</linearGradient>
<linearGradient id="paint29_linear_956_12119" x1="67.9133" y1="6.72082" x2="67.9133" y2="9.30244" gradientUnits="userSpaceOnUse">
<stop stop-color="white"/>
<stop offset="1" stop-color="white" stop-opacity="0"/>
</linearGradient>
<linearGradient id="paint30_linear_956_12119" x1="67.9133" y1="11.0229" x2="67.9133" y2="14.5089" gradientUnits="userSpaceOnUse">
<stop stop-opacity="0"/>
<stop offset="0.9898"/>
</linearGradient>
<linearGradient id="paint31_linear_956_12119" x1="48.9696" y1="5.66696" x2="48.9696" y2="6.18321" gradientUnits="userSpaceOnUse">
<stop offset="0.00510204"/>
<stop offset="1" stop-opacity="0"/>
</linearGradient>
<linearGradient id="paint32_linear_956_12119" x1="49.1001" y1="6.72091" x2="49.1001" y2="9.30253" gradientUnits="userSpaceOnUse">
<stop stop-color="white"/>
<stop offset="1" stop-color="white" stop-opacity="0"/>
</linearGradient>
<linearGradient id="paint33_linear_956_12119" x1="49.1001" y1="11.023" x2="49.1001" y2="14.5089" gradientUnits="userSpaceOnUse">
<stop stop-opacity="0"/>
<stop offset="0.9898"/>
</linearGradient>
<linearGradient id="paint34_linear_956_12119" x1="116.639" y1="56.9759" x2="116.639" y2="57.5326" gradientUnits="userSpaceOnUse">
<stop offset="0.00510204"/>
<stop offset="1" stop-opacity="0"/>
</linearGradient>
<linearGradient id="paint35_linear_956_12119" x1="117.063" y1="55.1043" x2="117.063" y2="55.6609" gradientUnits="userSpaceOnUse">
<stop offset="0.00510204"/>
<stop offset="1" stop-opacity="0"/>
</linearGradient>
<linearGradient id="paint36_linear_956_12119" x1="117.569" y1="53.233" x2="117.569" y2="53.7895" gradientUnits="userSpaceOnUse">
<stop offset="0.00510204"/>
<stop offset="1" stop-opacity="0"/>
</linearGradient>
<linearGradient id="paint37_linear_956_12119" x1="117.569" y1="15.4542" x2="117.569" y2="16.0108" gradientUnits="userSpaceOnUse">
<stop offset="0.00510204"/>
<stop offset="1" stop-opacity="0"/>
</linearGradient>
<linearGradient id="paint38_linear_956_12119" x1="117.144" y1="13.5826" x2="117.144" y2="14.1392" gradientUnits="userSpaceOnUse">
<stop offset="0.00510204"/>
<stop offset="1" stop-opacity="0"/>
</linearGradient>
<linearGradient id="paint39_linear_956_12119" x1="116.639" y1="11.7114" x2="116.639" y2="12.2681" gradientUnits="userSpaceOnUse">
<stop offset="0.00510204"/>
<stop offset="1" stop-opacity="0"/>
</linearGradient>
<radialGradient id="paint40_radial_956_12119" cx="0" cy="0" r="1" gradientUnits="userSpaceOnUse" gradientTransform="translate(7.10286 7.86264) rotate(90) scale(2.35581)">
<stop stop-color="white" stop-opacity="0"/>
<stop offset="1" stop-color="white"/>
</radialGradient>
<radialGradient id="paint41_radial_956_12119" cx="0" cy="0" r="1" gradientUnits="userSpaceOnUse" gradientTransform="translate(3.87929 13.2939) rotate(90) scale(2.76385)">
<stop stop-color="white" stop-opacity="0"/>
<stop offset="1" stop-color="white"/>
</radialGradient>
<radialGradient id="paint42_radial_956_12119" cx="0" cy="0" r="1" gradientUnits="userSpaceOnUse" gradientTransform="translate(7.10286 61.5095) rotate(-90) scale(2.35581)">
<stop stop-color="white" stop-opacity="0"/>
<stop offset="1" stop-color="white"/>
</radialGradient>
<radialGradient id="paint43_radial_956_12119" cx="0" cy="0" r="1" gradientUnits="userSpaceOnUse" gradientTransform="translate(3.87929 56.0784) rotate(-90) scale(2.76385)">
<stop stop-color="white" stop-opacity="0"/>
<stop offset="1" stop-color="white"/>
</radialGradient>
<linearGradient id="paint44_linear_956_12119" x1="2.67905" y1="33.5946" x2="3.0664" y2="33.5946" gradientUnits="userSpaceOnUse">
<stop offset="0.00510204"/>
<stop offset="1" stop-opacity="0"/>
</linearGradient>
<linearGradient id="paint45_linear_956_12119" x1="80.0364" y1="66.2634" x2="80.0364" y2="31.8399" gradientUnits="userSpaceOnUse">
<stop offset="0.4222" stop-color="white" stop-opacity="0"/>
<stop offset="1" stop-color="white"/>
</linearGradient>
<linearGradient id="paint46_linear_956_12119" x1="72.8875" y1="37.4306" x2="72.8875" y2="36.3629" gradientUnits="userSpaceOnUse">
<stop offset="0.4222" stop-color="white" stop-opacity="0"/>
<stop offset="1" stop-color="white"/>
</linearGradient>
<linearGradient id="paint47_linear_956_12119" x1="136.558" y1="37.5965" x2="136.558" y2="36.049" gradientUnits="userSpaceOnUse">
<stop offset="0.4222" stop-color="white" stop-opacity="0"/>
<stop offset="1" stop-color="white"/>
</linearGradient>
<linearGradient id="paint48_linear_956_12119" x1="94.6" y1="53.9665" x2="94.6" y2="37.6256" gradientUnits="userSpaceOnUse">
<stop offset="0.4222" stop-color="white" stop-opacity="0"/>
<stop offset="1" stop-color="white"/>
</linearGradient>
<linearGradient id="paint49_linear_956_12119" x1="3.11241" y1="60.6019" x2="3.11241" y2="47.5482" gradientUnits="userSpaceOnUse">
<stop offset="0.4222" stop-color="white" stop-opacity="0"/>
<stop offset="1" stop-color="white"/>
</linearGradient>
<linearGradient id="paint50_linear_956_12119" x1="157.215" y1="44.3479" x2="157.215" y2="43.579" gradientUnits="userSpaceOnUse">
<stop offset="0.4222" stop-color="white" stop-opacity="0"/>
<stop offset="1" stop-color="white"/>
</linearGradient>
<linearGradient id="paint51_linear_956_12119" x1="1.01283" y1="40.7621" x2="1.01283" y2="39.6544" gradientUnits="userSpaceOnUse">
<stop offset="0.4222" stop-color="white" stop-opacity="0"/>
<stop offset="1" stop-color="white"/>
</linearGradient>
<linearGradient id="paint52_linear_956_12119" x1="39.3505" y1="36.6846" x2="39.3505" y2="32.8689" gradientUnits="userSpaceOnUse">
<stop offset="0.4222" stop-color="white" stop-opacity="0"/>
<stop offset="1" stop-color="white"/>
</linearGradient>
<linearGradient id="paint53_linear_956_12119" x1="15.7268" y1="37.1721" x2="15.7268" y2="36.1046" gradientUnits="userSpaceOnUse">
<stop offset="0.4222" stop-color="white" stop-opacity="0"/>
<stop offset="1" stop-color="white"/>
</linearGradient>
<linearGradient id="paint54_linear_956_12119" x1="104.988" y1="35.8734" x2="104.988" y2="31.2689" gradientUnits="userSpaceOnUse">
<stop offset="0.4222" stop-color="white" stop-opacity="0"/>
<stop offset="1" stop-color="white"/>
</linearGradient>
<linearGradient id="paint55_linear_956_12119" x1="106.658" y1="2.80966" x2="106.126" y2="3.00323" gradientUnits="userSpaceOnUse">
<stop stop-color="white"/>
<stop offset="1" stop-color="white" stop-opacity="0"/>
</linearGradient>
<linearGradient id="paint56_linear_956_12119" x1="105.879" y1="4.75466" x2="103.927" y2="1.26999" gradientUnits="userSpaceOnUse">
<stop offset="0.00510204"/>
<stop offset="1" stop-opacity="0"/>
</linearGradient>
<linearGradient id="paint57_linear_956_12119" x1="106.658" y1="65.9153" x2="106.126" y2="65.7217" gradientUnits="userSpaceOnUse">
<stop stop-color="white"/>
<stop offset="1" stop-color="white" stop-opacity="0"/>
</linearGradient>
<linearGradient id="paint58_linear_956_12119" x1="105.879" y1="63.9704" x2="103.927" y2="67.4551" gradientUnits="userSpaceOnUse">
<stop offset="0.00510204"/>
<stop offset="1" stop-opacity="0"/>
</linearGradient>
<linearGradient id="paint59_linear_956_12119" x1="82.2774" y1="34.1044" x2="83.4851" y2="34.1044" gradientUnits="userSpaceOnUse">
<stop stop-opacity="0"/>
<stop offset="0.9898"/>
</linearGradient>
<radialGradient id="paint60_radial_956_12119" cx="0" cy="0" r="1" gradientUnits="userSpaceOnUse" gradientTransform="translate(85.4569 34.3624) rotate(90) scale(10.9283 10.9283)">
<stop stop-color="white" stop-opacity="0"/>
<stop offset="1" stop-color="white"/>
</radialGradient>
<linearGradient id="paint61_linear_956_12119" x1="84.1567" y1="34.3624" x2="83.1666" y2="34.3624" gradientUnits="userSpaceOnUse">
<stop stop-opacity="0"/>
<stop offset="0.9898"/>
</linearGradient>
<linearGradient id="paint62_linear_956_12119" x1="86.4231" y1="19.6997" x2="86.4231" y2="49.0256" gradientUnits="userSpaceOnUse">
<stop stop-color="white" stop-opacity="0"/>
<stop offset="1" stop-color="white"/>
</linearGradient>
<linearGradient id="paint63_linear_956_12119" x1="84.491" y1="39.21" x2="84.491" y2="21.2099" gradientUnits="userSpaceOnUse">
<stop stop-color="white" stop-opacity="0"/>
<stop offset="1" stop-color="white"/>
</linearGradient>
<clipPath id="clip0_956_12119">
<rect width="70" height="156.562" fill="white" transform="translate(157) rotate(90)"/>
</clipPath>
</defs>
</svg>
