<svg width="43" height="107" viewBox="0 0 43 107" fill="none" xmlns="http://www.w3.org/2000/svg">
<rect x="19.502" y="12.3672" width="3.6" height="79.44" fill="#AEAEAE"/>
<path d="M18.7812 91.6074C18.7812 91.0551 19.229 90.6074 19.7812 90.6074H22.8212C23.3735 90.6074 23.8212 91.0551 23.8212 91.6074V105.968H18.7812V91.6074Z" fill="#9F9B9B"/>
<path d="M20.0644 42.0365C20.2398 42.2119 20.4481 42.3511 20.6773 42.446C20.9066 42.541 21.1523 42.5898 21.4004 42.5898C21.6485 42.5898 21.8942 42.541 22.1234 42.446C22.3527 42.3511 22.561 42.2119 22.7364 42.0365L40.847 23.9259C41.0224 23.7504 41.1616 23.5421 41.2566 23.3129C41.3515 23.0837 41.4004 22.838 41.4004 22.5898C41.4004 22.3417 41.3515 22.096 41.2566 21.8668C41.1616 21.6376 41.0224 21.4293 40.847 21.2538L22.7364 3.14323C22.561 2.96778 22.3527 2.82861 22.1234 2.73366C21.8942 2.63871 21.6485 2.58984 21.4004 2.58984C21.1523 2.58984 20.9066 2.63871 20.6773 2.73366C20.4481 2.82861 20.2398 2.96778 20.0644 3.14323L1.95378 21.2538C1.77833 21.4293 1.63916 21.6376 1.54421 21.8668C1.44926 22.096 1.40039 22.3417 1.40039 22.5898C1.40039 22.838 1.44926 23.0837 1.54421 23.3129C1.63916 23.5421 1.77833 23.7504 1.95378 23.9259L20.0644 42.0365Z" fill="white"/>
<path fill-rule="evenodd" clip-rule="evenodd" d="M22.677 3.20203C21.972 2.49697 20.8288 2.49697 20.1238 3.20203L2.01337 21.3124C1.3083 22.0175 1.3083 23.1606 2.01337 23.8657L20.1238 41.9761C20.8288 42.6811 21.972 42.6811 22.677 41.9761L40.7874 23.8657C41.4925 23.1606 41.4925 22.0175 40.7874 21.3124L22.677 3.20203ZM20.0644 3.14265C20.8022 2.40479 21.9985 2.40479 22.7364 3.14265L40.8468 21.253C41.5847 21.9909 41.5847 23.1872 40.8468 23.9251L22.7364 42.0355C21.9985 42.7733 20.8022 42.7733 20.0644 42.0355L1.95399 23.9251C1.21613 23.1872 1.21613 21.9909 1.95399 21.253L20.0644 3.14265Z" fill="black"/>
<path fill-rule="evenodd" clip-rule="evenodd" d="M22.1426 3.7364C21.7327 3.32648 21.0681 3.32648 20.6582 3.7364L2.54777 21.8468C2.13785 22.2567 2.13785 22.9213 2.54777 23.3312L20.6582 41.4416C21.0681 41.8516 21.7327 41.8516 22.1426 41.4416L40.253 23.3312C40.6629 22.9213 40.6629 22.2567 40.253 21.8468L22.1426 3.7364ZM20.3613 3.43951C20.9352 2.86562 21.8656 2.86562 22.4395 3.43951L40.5499 21.5499C41.1238 22.1238 41.1238 23.0543 40.5499 23.6281L22.4395 41.7385C21.8656 42.3124 20.9352 42.3124 20.3613 41.7385L2.25088 23.6281C1.67699 23.0543 1.67699 22.1238 2.25088 21.5499L20.3613 3.43951Z" fill="black"/>
<path d="M33.0534 21.2546L22.7364 10.9376C21.9985 10.1997 20.8022 10.1997 20.0644 10.9376L9.74739 21.2546C9.00954 21.9924 9.00954 23.1887 9.74739 23.9266L20.0644 34.2436C20.8022 34.9814 21.9985 34.9814 22.7364 34.2436L33.0534 23.9266C33.7912 23.1887 33.7912 21.9924 33.0534 21.2546Z" fill="#FFCC00"/>
<path fill-rule="evenodd" clip-rule="evenodd" d="M22.588 11.086C21.9321 10.4302 20.8687 10.4302 20.2128 11.086L9.89584 21.403C9.23996 22.0589 9.23996 23.1223 9.89584 23.7782L20.2128 34.0951C20.8687 34.751 21.9321 34.751 22.588 34.0951L32.9049 23.7782C33.5608 23.1223 33.5608 22.0589 32.9049 21.403L22.588 11.086ZM19.9159 10.7891C20.7358 9.9693 22.065 9.9693 22.8848 10.7891L33.2018 21.1061C34.0217 21.926 34.0217 23.2552 33.2018 24.075L22.8849 34.392C22.065 35.2119 20.7358 35.2119 19.9159 34.392L9.59895 24.075C8.7791 23.2552 8.7791 21.926 9.59895 21.1061L19.9159 10.7891Z" fill="black"/>
</svg>
