<svg width="44" height="107" viewBox="0 0 44 107" fill="none" xmlns="http://www.w3.org/2000/svg">
<rect x="20.1016" y="12.3672" width="3.6" height="79.44" fill="#AEAEAE"/>
<path d="M19.3809 91.6074C19.3809 91.0551 19.8286 90.6074 20.3809 90.6074H23.4209C23.9731 90.6074 24.4209 91.0551 24.4209 91.6074V105.968H19.3809V91.6074Z" fill="#9F9B9B"/>
<path d="M20.664 42.0365C20.8394 42.2119 21.0477 42.3511 21.277 42.446C21.5062 42.541 21.7519 42.5898 22 42.5898C22.2481 42.5898 22.4938 42.541 22.723 42.446C22.9523 42.3511 23.1606 42.2119 23.336 42.0365L41.4466 23.9259C41.6221 23.7504 41.7612 23.5421 41.8562 23.3129C41.9511 23.0837 42 22.838 42 22.5898C42 22.3417 41.9511 22.096 41.8562 21.8668C41.7612 21.6376 41.6221 21.4293 41.4466 21.2538L23.336 3.14323C23.1606 2.96778 22.9523 2.82861 22.723 2.73366C22.4938 2.63871 22.2481 2.58984 22 2.58984C21.7519 2.58984 21.5062 2.63871 21.277 2.73366C21.0477 2.82861 20.8394 2.96778 20.664 3.14323L2.55339 21.2538C2.37794 21.4293 2.23877 21.6376 2.14382 21.8668C2.04887 22.096 2 22.3417 2 22.5898C2 22.838 2.04887 23.0837 2.14382 23.3129C2.23877 23.5421 2.37794 23.7504 2.55339 23.9259L20.664 42.0365Z" fill="white"/>
<path fill-rule="evenodd" clip-rule="evenodd" d="M23.2766 3.20203C22.5716 2.49697 21.4284 2.49697 20.7234 3.20203L2.61298 21.3124C1.90791 22.0175 1.90791 23.1606 2.61298 23.8657L20.7234 41.9761C21.4284 42.6811 22.5716 42.6811 23.2766 41.9761L41.387 23.8657C42.0921 23.1606 42.0921 22.0175 41.387 21.3124L23.2766 3.20203ZM20.664 3.14265C21.4018 2.40479 22.5982 2.40479 23.336 3.14265L41.4464 21.253C42.1843 21.9909 42.1843 23.1872 41.4464 23.9251L23.336 42.0355C22.5982 42.7733 21.4018 42.7733 20.664 42.0355L2.5536 23.9251C1.81574 23.1872 1.81574 21.9909 2.5536 21.253L20.664 3.14265Z" fill="black"/>
<path fill-rule="evenodd" clip-rule="evenodd" d="M22.7422 3.7364C22.3323 3.32648 21.6677 3.32648 21.2578 3.7364L3.14738 21.8468C2.73746 22.2567 2.73746 22.9213 3.14738 23.3312L21.2578 41.4416C21.6677 41.8516 22.3323 41.8516 22.7422 41.4416L40.8526 23.3312C41.2625 22.9213 41.2625 22.2567 40.8526 21.8468L22.7422 3.7364ZM20.9609 3.43951C21.5348 2.86562 22.4652 2.86562 23.0391 3.43951L41.1495 21.5499C41.7234 22.1238 41.7234 23.0543 41.1495 23.6281L23.0391 41.7385C22.4652 42.3124 21.5348 42.3124 20.9609 41.7385L2.85049 23.6281C2.2766 23.0543 2.2766 22.1238 2.85049 21.5499L20.9609 3.43951Z" fill="black"/>
<path d="M33.653 21.2546L23.336 10.9376C22.5982 10.1997 21.4018 10.1997 20.664 10.9376L10.347 21.2546C9.60915 21.9924 9.60914 23.1887 10.347 23.9266L20.664 34.2436C21.4018 34.9814 22.5982 34.9814 23.336 34.2436L33.653 23.9266C34.3909 23.1887 34.3909 21.9924 33.653 21.2546Z" fill="#FFCC00"/>
<path fill-rule="evenodd" clip-rule="evenodd" d="M23.1876 11.086C22.5317 10.4302 21.4683 10.4302 20.8124 11.086L10.4954 21.403C9.83957 22.0589 9.83957 23.1223 10.4954 23.7782L20.8124 34.0951C21.4683 34.751 22.5317 34.751 23.1876 34.0951L33.5046 23.7782C34.1604 23.1223 34.1604 22.0589 33.5046 21.403L23.1876 11.086ZM20.5155 10.7891C21.3354 9.9693 22.6646 9.9693 23.4845 10.7891L33.8014 21.1061C34.6213 21.926 34.6213 23.2552 33.8014 24.075L23.4845 34.392C22.6646 35.2119 21.3354 35.2119 20.5155 34.392L10.1986 24.075C9.37871 23.2552 9.37871 21.926 10.1986 21.1061L20.5155 10.7891Z" fill="black"/>
<path d="M10.7559 31.2374L30.6475 11.3457L10.7559 31.2374Z" fill="black"/>
<path fill-rule="evenodd" clip-rule="evenodd" d="M30.796 11.4942L10.9043 31.3858L10.6074 31.0889L30.4991 11.1973L30.796 11.4942Z" fill="black"/>
<path d="M11.4043 31.8858L31.296 11.9941L11.4043 31.8858Z" fill="black"/>
<path fill-rule="evenodd" clip-rule="evenodd" d="M31.4444 12.1426L11.5528 32.0343L11.2559 31.7374L31.1475 11.8457L31.4444 12.1426Z" fill="black"/>
<path d="M12.0547 32.5362L31.9464 12.6445L12.0547 32.5362Z" fill="black"/>
<path fill-rule="evenodd" clip-rule="evenodd" d="M32.0948 12.793L12.2031 32.6847L11.9062 32.3878L31.7979 12.4961L32.0948 12.793Z" fill="black"/>
<path d="M12.7031 33.1846L32.5948 13.293L12.7031 33.1846Z" fill="black"/>
<path fill-rule="evenodd" clip-rule="evenodd" d="M32.7433 13.4414L12.8516 33.3331L12.5547 33.0362L32.4464 13.1445L32.7433 13.4414Z" fill="black"/>
<path d="M13.3535 33.835L33.2452 13.9434L13.3535 33.835Z" fill="black"/>
<path fill-rule="evenodd" clip-rule="evenodd" d="M33.3936 14.0918L13.502 33.9835L13.2051 33.6866L33.0968 13.7949L33.3936 14.0918Z" fill="black"/>
</svg>
