<svg width="300" height="150" viewBox="0 0 300 150" fill="none" xmlns="http://www.w3.org/2000/svg">
<g clip-path="url(#clip0_75_3138)">
<path d="M299.469 0H3.05176e-05V150H299.469V0Z" fill="#777777"/>
<path d="M110.683 93.3619C110.683 98.1828 110.304 102.413 109.546 106.052C108.788 109.692 107.76 112.74 106.464 115.198C105.167 117.608 103.65 119.428 101.915 120.657C100.179 121.886 98.3233 122.5 96.348 122.5C95.0113 122.5 93.7643 122.24 92.6071 121.72C91.4698 121.2 90.4623 120.586 89.5844 119.877C88.7065 119.121 87.9683 118.341 87.3698 117.537C86.7912 116.734 86.3722 116.025 86.1128 115.41C85.8534 114.796 85.6639 113.922 85.5442 112.787C85.4444 111.606 85.3945 109.928 85.3945 107.754C85.3945 106.289 85.4145 105.06 85.4544 104.067C85.4943 103.075 85.5541 102.271 85.634 101.657C85.7337 101.042 85.8534 100.617 85.9931 100.381C86.1527 100.097 86.3323 99.9552 86.5318 99.9552C86.8111 99.9552 87.2002 100.357 87.699 101.16C88.2177 101.917 88.8761 102.767 89.6742 103.713C90.4723 104.658 91.42 105.532 92.5173 106.336C93.6346 107.092 94.9215 107.47 96.378 107.47C97.3357 107.47 98.1936 107.21 98.9517 106.69C99.7099 106.123 100.348 105.343 100.867 104.351C101.406 103.358 101.815 102.129 102.094 100.664C102.373 99.199 102.513 97.5684 102.513 95.7724C102.513 93.6928 102.274 91.9204 101.795 90.4552C101.316 88.9428 100.688 87.6194 99.9094 86.4851C99.1513 85.3035 98.2834 84.2164 97.3057 83.2239C96.3281 82.1841 95.3205 81.097 94.283 79.9627C93.2455 78.8284 92.238 77.5522 91.2603 76.1343C90.2827 74.6692 89.4048 72.944 88.6267 70.959C87.8685 68.9266 87.25 66.5398 86.7712 63.7985C86.2924 61.0572 86.0529 57.7724 86.0529 53.944C86.0529 49.5485 86.3921 45.6965 87.0705 42.3881C87.7688 39.0323 88.6965 36.2674 89.8537 34.0933C91.0309 31.8719 92.4076 30.2177 93.9838 29.1306C95.5799 28.0435 97.2658 27.5 99.0415 27.5C99.9593 27.5 100.877 27.6654 101.795 27.9963C102.713 28.3271 103.571 28.7761 104.369 29.3433C105.167 29.9104 105.875 30.5485 106.494 31.2575C107.112 31.9664 107.521 32.5572 107.721 33.0299C107.92 33.5025 108.05 33.9042 108.11 34.2351C108.189 34.5659 108.249 35.0149 108.289 35.5821C108.349 36.102 108.389 36.7873 108.409 37.6381C108.429 38.4415 108.439 39.4577 108.439 40.6866C108.439 42.0572 108.419 43.2152 108.379 44.1604C108.359 45.1057 108.309 45.8856 108.229 46.5C108.169 47.1144 108.07 47.5634 107.93 47.847C107.81 48.1306 107.641 48.2724 107.421 48.2724C107.202 48.2724 106.853 47.9415 106.374 47.2799C105.895 46.6182 105.306 45.9092 104.608 45.153C103.91 44.3495 103.102 43.6405 102.184 43.0261C101.266 42.3644 100.259 42.0336 99.1612 42.0336C98.3033 42.0336 97.5551 42.2935 96.9167 42.8134C96.2782 43.2861 95.7395 43.9714 95.3006 44.8694C94.8816 45.7201 94.5624 46.7599 94.3429 47.9888C94.1434 49.2177 94.0436 50.5174 94.0436 51.8881C94.0436 53.9204 94.2731 55.6928 94.732 57.2052C95.2108 58.6704 95.8393 59.9938 96.6174 61.1754C97.4155 62.3097 98.3133 63.3968 99.3109 64.4366C100.308 65.4291 101.326 66.4925 102.363 67.6269C103.401 68.7612 104.419 70.0609 105.416 71.5261C106.414 72.944 107.302 74.6692 108.08 76.7015C108.858 78.6866 109.486 81.0498 109.965 83.791C110.444 86.4851 110.683 89.6754 110.683 93.3619Z" fill="white"/>
<path d="M142.481 36.7873C142.481 38.158 142.451 39.3396 142.391 40.3321C142.351 41.2774 142.281 42.0572 142.182 42.6716C142.082 43.2388 141.952 43.6642 141.793 43.9478C141.653 44.2313 141.493 44.3731 141.314 44.3731H131.617V118.317C131.617 118.79 131.547 119.215 131.408 119.593C131.288 119.971 131.078 120.279 130.779 120.515C130.48 120.751 130.071 120.94 129.552 121.082C129.053 121.224 128.425 121.295 127.667 121.295C126.909 121.295 126.27 121.224 125.751 121.082C125.253 120.94 124.854 120.751 124.554 120.515C124.255 120.279 124.035 119.971 123.896 119.593C123.776 119.215 123.716 118.79 123.716 118.317V44.3731H114.02C113.82 44.3731 113.651 44.2313 113.511 43.9478C113.371 43.6642 113.252 43.2388 113.152 42.6716C113.052 42.0572 112.972 41.2774 112.912 40.3321C112.872 39.3396 112.853 38.158 112.853 36.7873C112.853 35.3694 112.872 34.1642 112.912 33.1716C112.972 32.1791 113.052 31.3993 113.152 30.8321C113.252 30.2177 113.371 29.7923 113.511 29.556C113.651 29.2724 113.82 29.1306 114.02 29.1306H141.314C141.493 29.1306 141.653 29.2724 141.793 29.556C141.952 29.7923 142.082 30.2177 142.182 30.8321C142.281 31.3993 142.351 32.1791 142.391 33.1716C142.451 34.1642 142.481 35.3694 142.481 36.7873Z" fill="white"/>
<path d="M180.833 73.9366C180.833 81.546 180.434 88.352 179.635 94.3545C178.837 100.357 177.65 105.461 176.074 109.668C174.498 113.827 172.543 117.017 170.208 119.239C167.894 121.413 165.21 122.5 162.158 122.5C159.145 122.5 156.511 121.578 154.257 119.735C152.022 117.845 150.157 114.985 148.66 111.157C147.164 107.328 146.037 102.46 145.279 96.5522C144.54 90.6443 144.171 83.6493 144.171 75.5672C144.171 68.1468 144.57 61.4826 145.368 55.5746C146.166 49.6194 147.354 44.5622 148.93 40.403C150.506 36.2438 152.451 33.0535 154.766 30.8321C157.1 28.6107 159.803 27.5 162.876 27.5C165.809 27.5 168.393 28.4216 170.627 30.2649C172.882 32.1082 174.757 34.944 176.254 38.7724C177.77 42.6007 178.907 47.4453 179.665 53.306C180.443 59.1194 180.833 65.9963 180.833 73.9366ZM172.573 74.9291C172.573 70.1082 172.413 65.7363 172.094 61.8134C171.774 57.8433 171.226 54.4639 170.448 51.6754C169.689 48.8396 168.672 46.6654 167.395 45.153C166.118 43.5933 164.522 42.8134 162.607 42.8134C160.671 42.8134 159.055 43.6878 157.758 45.4366C156.461 47.1381 155.414 49.4303 154.616 52.3134C153.818 55.1965 153.249 58.5759 152.91 62.4515C152.591 66.2798 152.431 70.3445 152.431 74.6455C152.431 79.6555 152.591 84.1692 152.91 88.1866C153.229 92.1567 153.768 95.5597 154.526 98.3955C155.284 101.231 156.302 103.405 157.579 104.918C158.856 106.383 160.462 107.116 162.397 107.116C164.332 107.116 165.949 106.265 167.245 104.563C168.542 102.862 169.59 100.546 170.388 97.6157C171.186 94.6853 171.745 91.2823 172.064 87.4067C172.403 83.4838 172.573 79.3246 172.573 74.9291Z" fill="white"/>
<path d="M214.605 56.9925C214.605 62.1443 214.266 66.7052 213.588 70.6754C212.909 74.6455 211.922 78.0012 210.625 80.7425C209.328 83.4366 207.732 85.4925 205.836 86.9104C203.961 88.3284 201.746 89.0373 199.193 89.0373H195.96V118.317C195.96 118.79 195.891 119.215 195.751 119.593C195.631 119.971 195.422 120.279 195.122 120.515C194.823 120.751 194.424 120.94 193.925 121.082C193.426 121.224 192.788 121.295 192.01 121.295C191.252 121.295 190.613 121.224 190.095 121.082C189.596 120.94 189.197 120.751 188.897 120.515C188.598 120.279 188.389 119.971 188.269 119.593C188.149 119.215 188.089 118.79 188.089 118.317V35.7948C188.089 33.5734 188.329 31.9192 188.808 30.8321C189.306 29.6978 189.955 29.1306 190.753 29.1306H199.881C200.799 29.1306 201.667 29.2251 202.485 29.4142C203.323 29.556 204.32 29.9104 205.477 30.4776C206.635 30.9975 207.802 31.99 208.979 33.4552C210.176 34.9204 211.194 36.7873 212.031 39.056C212.869 41.2774 213.508 43.9005 213.947 46.9254C214.386 49.903 214.605 53.2587 214.605 56.9925ZM206.375 58.3396C206.375 55.1256 206.136 52.4789 205.657 50.3993C205.178 48.3197 204.589 46.7836 203.891 45.791C203.193 44.7985 202.455 44.1841 201.677 43.9478C200.918 43.6642 200.13 43.5224 199.312 43.5224H195.96V74.6455H199.492C200.749 74.6455 201.796 74.2438 202.634 73.4403C203.492 72.6368 204.19 71.5261 204.729 70.1082C205.268 68.643 205.677 66.9179 205.956 64.9328C206.236 62.9005 206.375 60.7027 206.375 58.3396Z" fill="white"/>
</g>
<defs>
<clipPath id="clip0_75_3138">
<rect width="300" height="150" fill="white" transform="matrix(-1 0 0 1 300 0)"/>
</clipPath>
</defs>
</svg>
