<svg width="300" height="150" viewBox="0 0 300 150" fill="none" xmlns="http://www.w3.org/2000/svg">
<path d="M0.53125 0H300V150H0.53125V0Z" fill="#777777"/>
<path d="M67.3805 16.1172H42.4247V23.6172H67.3805V16.1172Z" fill="white"/>
<path d="M89.8406 23.6172V16.1172H114.796V23.6172H89.8406Z" fill="white"/>
<path d="M137.256 23.6172H162.212V16.1172H137.256V23.6172Z" fill="white"/>
<path d="M184.672 16.1172V23.6172H209.628V16.1172H184.672Z" fill="white"/>
<path d="M232.088 16.1172V23.6172H252.053V16.1172H232.088Z" fill="white"/>
<path d="M274.513 16.1172V23.6172H300.01V16.1172H274.513Z" fill="white"/>
<path d="M19.9646 23.6172V16.1172H0V23.6172H19.9646Z" fill="white"/>
<path d="M67.3805 126.117H42.4247V133.617H67.3805V126.117Z" fill="white"/>
<path d="M89.8406 133.617V126.117H114.796V133.617H89.8406Z" fill="white"/>
<path d="M137.256 133.617H162.212V126.117H137.256V133.617Z" fill="white"/>
<path d="M184.672 126.117V133.617H209.628V126.117H184.672Z" fill="white"/>
<path d="M232.088 126.117V133.617H252.053V126.117H232.088Z" fill="white"/>
<path d="M274.513 126.117V133.617H300.01V126.117H274.513Z" fill="white"/>
<path d="M19.9646 133.617V126.117H0V133.617H19.9646Z" fill="white"/>
</svg>
