<svg width="150" height="300" viewBox="0 0 150 300" fill="none" xmlns="http://www.w3.org/2000/svg">
<g clip-path="url(#clip0_75_3039)">
<path d="M150 299.469L150 3.05176e-05L3.57113e-06 2.87288e-05L0 299.469L150 299.469Z" fill="#777777"/>
<path d="M83.751 32.5C66.4921 32.5 52.501 46.4911 52.501 63.75V147.128H33.6777L58.1699 219.277L79.4394 146.487L62.5107 147.128V131.777H62.501V63.75C62.501 52.0139 72.0149 42.5 83.751 42.5C95.487 42.5 105.001 52.014 105.001 63.75V267.5H115.001V63.75C115.001 46.4911 101.01 32.5 83.751 32.5Z" fill="white"/>
</g>
<defs>
<clipPath id="clip0_75_3039">
<rect width="300" height="150" fill="white" transform="matrix(1.19249e-08 -1 -1 -1.19249e-08 150 300)"/>
</clipPath>
</defs>
</svg>
