<svg width="150" height="300" viewBox="0 0 150 300" fill="none" xmlns="http://www.w3.org/2000/svg">
<g clip-path="url(#clip0_75_3060)">
<path d="M150 299.469L150 3.05176e-05L3.57113e-06 2.87288e-05L0 299.469L150 299.469Z" fill="#777777"/>
<path d="M109.21 180.188C109.21 178.911 133.75 221.071 133.75 221.071L108.722 261.794L108.885 234.645L82.232 255.246V268.105H81.9315V270H69.1825V255.848L40.9526 234.166L41.1152 261.794L16.25 220.911C16.25 220.911 40.7901 178.751 40.7901 180.028L40.9526 210.211L69.1825 232.036L69.1825 102.562L52.29 102.241L76.5132 30L97.7084 103.043L81.9315 102.883V231.571L109.047 210.691L109.21 180.188Z" fill="white"/>
</g>
<defs>
<clipPath id="clip0_75_3060">
<rect width="300" height="150" fill="white" transform="matrix(1.19249e-08 -1 -1 -1.19249e-08 150 300)"/>
</clipPath>
</defs>
</svg>
