<svg width="300" height="150" viewBox="0 0 300 150" fill="none" xmlns="http://www.w3.org/2000/svg">
<g clip-path="url(#clip0_75_3133)">
<path d="M299.469 0H3.05176e-05V150H299.469V0Z" fill="#777777"/>
<path d="M110.264 106.974C110.264 108.155 110.244 109.172 110.204 110.022C110.184 110.826 110.144 111.535 110.084 112.149C110.024 112.716 109.945 113.213 109.845 113.638C109.745 114.063 109.585 114.56 109.366 115.127C109.146 115.647 108.718 116.332 108.079 117.183C107.461 118.034 106.692 118.861 105.775 119.664C104.877 120.42 103.839 121.058 102.662 121.578C101.505 122.098 100.248 122.358 98.8913 122.358C96.2377 122.358 93.8435 121.389 91.7087 119.451C89.5738 117.514 87.7582 114.631 86.2618 110.802C84.7654 106.927 83.6182 102.106 82.8202 96.3396C82.0221 90.5734 81.623 83.8619 81.623 76.2052C81.623 68.4067 82.062 61.4826 82.9399 55.4328C83.8177 49.3831 85.0448 44.3022 86.621 40.1903C88.1971 36.0784 90.0826 32.959 92.2773 30.8321C94.4919 28.7052 96.926 27.6418 99.5796 27.6418C100.657 27.6418 101.695 27.8545 102.692 28.2799C103.69 28.7052 104.607 29.2724 105.445 29.9813C106.303 30.643 107.072 31.4229 107.75 32.3209C108.428 33.2189 108.897 33.9988 109.156 34.6604C109.436 35.2749 109.625 35.7948 109.725 36.2201C109.825 36.6455 109.905 37.1891 109.965 37.8507C110.024 38.5124 110.064 39.2923 110.084 40.1903C110.124 41.0883 110.144 42.199 110.144 43.5224C110.144 44.9403 110.124 46.1455 110.084 47.1381C110.044 48.1306 109.974 48.9341 109.875 49.5485C109.775 50.1629 109.655 50.6119 109.516 50.8955C109.376 51.1791 109.216 51.3209 109.037 51.3209C108.737 51.3209 108.358 50.9192 107.9 50.1157C107.441 49.2649 106.842 48.3433 106.104 47.3507C105.386 46.3109 104.518 45.3893 103.5 44.5858C102.503 43.7351 101.305 43.3097 99.9088 43.3097C98.3725 43.3097 96.9959 44.0659 95.7788 45.5784C94.5817 47.0435 93.5542 49.1704 92.6963 51.959C91.8583 54.7002 91.2198 58.0323 90.7809 61.9552C90.342 65.8781 90.1225 70.2973 90.1225 75.2127C90.1225 80.6007 90.3519 85.2799 90.8108 89.25C91.2897 93.1729 91.9581 96.4104 92.816 98.9627C93.6939 101.515 94.7413 103.429 95.9584 104.705C97.1954 105.934 98.582 106.549 100.118 106.549C101.515 106.549 102.722 106.17 103.74 105.414C104.757 104.611 105.625 103.736 106.343 102.791C107.081 101.846 107.68 100.995 108.139 100.239C108.618 99.4826 108.987 99.1045 109.246 99.1045C109.446 99.1045 109.605 99.199 109.725 99.3881C109.845 99.5771 109.945 99.9552 110.024 100.522C110.104 101.09 110.164 101.893 110.204 102.933C110.244 103.925 110.264 105.272 110.264 106.974Z" fill="white"/>
<path d="M142.301 36.7873C142.301 38.158 142.271 39.3396 142.211 40.3321C142.171 41.2774 142.101 42.0572 142.001 42.6716C141.902 43.2388 141.772 43.6642 141.612 43.9478C141.473 44.2313 141.313 44.3731 141.134 44.3731H131.437V118.317C131.437 118.79 131.367 119.215 131.227 119.593C131.108 119.971 130.898 120.279 130.599 120.515C130.3 120.751 129.891 120.94 129.372 121.082C128.873 121.224 128.245 121.295 127.487 121.295C126.728 121.295 126.09 121.224 125.571 121.082C125.072 120.94 124.673 120.751 124.374 120.515C124.075 120.279 123.855 119.971 123.716 119.593C123.596 119.215 123.536 118.79 123.536 118.317V44.3731H113.84C113.64 44.3731 113.47 44.2313 113.331 43.9478C113.191 43.6642 113.071 43.2388 112.972 42.6716C112.872 42.0572 112.792 41.2774 112.732 40.3321C112.692 39.3396 112.672 38.158 112.672 36.7873C112.672 35.3694 112.692 34.1642 112.732 33.1716C112.792 32.1791 112.872 31.3993 112.972 30.8321C113.071 30.2177 113.191 29.7923 113.331 29.556C113.47 29.2724 113.64 29.1306 113.84 29.1306H141.134C141.313 29.1306 141.473 29.2724 141.612 29.556C141.772 29.7923 141.902 30.2177 142.001 30.8321C142.101 31.3993 142.171 32.1791 142.211 33.1716C142.271 34.1642 142.301 35.3694 142.301 36.7873Z" fill="white"/>
<path d="M180.952 73.9366C180.952 81.546 180.553 88.352 179.755 94.3545C178.956 100.357 177.769 105.461 176.193 109.668C174.617 113.827 172.662 117.017 170.327 119.239C168.013 121.413 165.329 122.5 162.277 122.5C159.264 122.5 156.63 121.578 154.376 119.735C152.141 117.845 150.276 114.985 148.779 111.157C147.283 107.328 146.156 102.46 145.398 96.5522C144.659 90.6443 144.29 83.6493 144.29 75.5672C144.29 68.1468 144.689 61.4826 145.487 55.5746C146.285 49.6194 147.473 44.5622 149.049 40.403C150.625 36.2438 152.57 33.0535 154.885 30.8321C157.219 28.6107 159.922 27.5 162.995 27.5C165.928 27.5 168.512 28.4216 170.746 30.2649C173.001 32.1082 174.876 34.944 176.373 38.7724C177.889 42.6007 179.026 47.4453 179.784 53.306C180.563 59.1194 180.952 65.9963 180.952 73.9366ZM172.692 74.9291C172.692 70.1082 172.532 65.7363 172.213 61.8134C171.894 57.8433 171.345 54.4639 170.567 51.6754C169.809 48.8396 168.791 46.6654 167.514 45.153C166.237 43.5933 164.641 42.8134 162.726 42.8134C160.79 42.8134 159.174 43.6878 157.877 45.4366C156.581 47.1381 155.533 49.4303 154.735 52.3134C153.937 55.1965 153.368 58.5759 153.029 62.4515C152.71 66.2799 152.55 70.3445 152.55 74.6455C152.55 79.6555 152.71 84.1692 153.029 88.1866C153.348 92.1567 153.887 95.5597 154.645 98.3955C155.403 101.231 156.421 103.405 157.698 104.918C158.975 106.383 160.581 107.116 162.516 107.116C164.452 107.116 166.068 106.265 167.364 104.563C168.661 102.862 169.709 100.546 170.507 97.6157C171.305 94.6853 171.864 91.2823 172.183 87.4067C172.522 83.4838 172.692 79.3246 172.692 74.9291Z" fill="white"/>
<path d="M218.376 118.459C218.376 118.932 218.316 119.357 218.196 119.735C218.076 120.066 217.867 120.35 217.567 120.586C217.268 120.822 216.859 120.988 216.34 121.082C215.842 121.224 215.213 121.295 214.455 121.295C213.697 121.295 213.058 121.224 212.54 121.082C212.041 120.988 211.642 120.822 211.343 120.586C211.043 120.35 210.824 120.066 210.684 119.735C210.564 119.357 210.505 118.932 210.505 118.459V44.6567H196.079V118.459C196.079 118.932 196.01 119.357 195.87 119.735C195.75 120.066 195.541 120.35 195.241 120.586C194.942 120.822 194.543 120.988 194.044 121.082C193.546 121.224 192.907 121.295 192.129 121.295C191.371 121.295 190.732 121.224 190.214 121.082C189.715 120.988 189.316 120.822 189.017 120.586C188.717 120.35 188.508 120.066 188.388 119.735C188.268 119.357 188.208 118.932 188.208 118.459V35.0149C188.208 33.0299 188.418 31.5647 188.837 30.6194C189.256 29.6269 189.815 29.1306 190.513 29.1306H216.101C216.819 29.1306 217.378 29.6269 217.777 30.6194C218.176 31.5647 218.376 33.0299 218.376 35.0149V118.459Z" fill="white"/>
</g>
<defs>
<clipPath id="clip0_75_3133">
<rect width="300" height="150" fill="white" transform="matrix(-1 0 0 1 300 0)"/>
</clipPath>
</defs>
</svg>
