<svg width="300" height="150" viewBox="0 0 300 150" fill="none" xmlns="http://www.w3.org/2000/svg">
<g clip-path="url(#clip0_75_3159)">
<path d="M299.469 0H3.05176e-05V150H299.469V0Z" fill="#777777"/>
<path d="M143.663 102.459C143.663 103.028 143.615 103.533 143.52 103.976C143.457 104.418 143.347 104.797 143.189 105.113C143.062 105.397 142.873 105.618 142.62 105.776C142.399 105.903 142.146 105.966 141.862 105.966H107.982C107.54 105.966 107.145 105.918 106.798 105.824C106.482 105.697 106.197 105.508 105.945 105.255C105.724 105.002 105.55 104.639 105.423 104.165C105.329 103.691 105.281 103.107 105.281 102.412C105.281 101.78 105.297 101.227 105.329 100.753C105.392 100.28 105.502 99.8689 105.66 99.5214C105.818 99.1423 106.008 98.7791 106.229 98.4316C106.482 98.0525 106.798 97.6576 107.177 97.247L119.07 84.6427C121.818 81.7365 124.014 79.1303 125.657 76.8243C127.331 74.5183 128.61 72.4175 129.495 70.5222C130.411 68.6268 131.011 66.9052 131.295 65.3573C131.58 63.8094 131.722 62.3563 131.722 60.9979C131.722 59.6396 131.501 58.3602 131.058 57.1598C130.616 55.9278 129.969 54.8537 129.116 53.9376C128.294 53.0215 127.252 52.295 125.988 51.758C124.725 51.2209 123.272 50.9524 121.629 50.9524C119.702 50.9524 117.964 51.2209 116.417 51.758C114.9 52.295 113.558 52.8794 112.389 53.5112C111.252 54.143 110.288 54.7274 109.498 55.2644C108.74 55.8014 108.172 56.0699 107.793 56.0699C107.571 56.0699 107.366 56.0068 107.177 55.8804C107.019 55.754 106.877 55.5487 106.75 55.2644C106.655 54.9801 106.576 54.601 106.513 54.1272C106.45 53.6533 106.418 53.0847 106.418 52.4213C106.418 51.9475 106.434 51.5368 106.466 51.1893C106.497 50.8419 106.545 50.5418 106.608 50.289C106.703 50.0363 106.813 49.7994 106.94 49.5783C107.066 49.3572 107.319 49.0886 107.698 48.7727C108.077 48.4253 108.725 47.9672 109.641 47.3986C110.588 46.83 111.757 46.2772 113.147 45.7401C114.569 45.1715 116.116 44.6977 117.791 44.3186C119.497 43.9395 121.281 43.75 123.145 43.75C126.115 43.75 128.705 44.1765 130.916 45.0294C133.159 45.8507 135.007 46.9879 136.46 48.4411C137.945 49.8942 139.051 51.5842 139.777 53.5112C140.504 55.4381 140.867 57.4915 140.867 59.6712C140.867 61.6297 140.693 63.5883 140.346 65.5468C139.998 67.4738 139.256 69.5745 138.119 71.8489C137.013 74.0918 135.402 76.6032 133.285 79.3831C131.169 82.1313 128.357 85.3061 124.851 88.9073L115.137 99.0476H141.815C142.067 99.0476 142.304 99.1265 142.525 99.2845C142.778 99.4109 142.983 99.6162 143.141 99.9005C143.331 100.185 143.457 100.548 143.52 100.99C143.615 101.401 143.663 101.891 143.663 102.459Z" fill="white"/>
<path d="M194.718 48.1567C194.718 48.7254 194.687 49.2466 194.624 49.7204C194.592 50.1627 194.529 50.6049 194.434 51.0472C194.371 51.4579 194.26 51.8685 194.102 52.2792C193.976 52.6583 193.818 53.0689 193.628 53.5112L171.547 104.402C171.389 104.781 171.184 105.097 170.931 105.35C170.71 105.571 170.41 105.76 170.031 105.918C169.684 106.045 169.226 106.124 168.657 106.155C168.088 106.218 167.393 106.25 166.572 106.25C165.498 106.25 164.661 106.203 164.061 106.108C163.46 106.013 163.018 105.871 162.734 105.681C162.481 105.46 162.371 105.208 162.402 104.923C162.434 104.607 162.544 104.244 162.734 103.833L185.952 51.8053H156.527C155.926 51.8053 155.468 51.4894 155.152 50.8577C154.868 50.2259 154.726 49.3414 154.726 48.2041C154.726 47.6039 154.757 47.0827 154.821 46.6404C154.915 46.1982 155.042 45.8349 155.2 45.5506C155.358 45.2347 155.547 45.0136 155.768 44.8872C155.989 44.7293 156.242 44.6503 156.527 44.6503H192.254C192.697 44.6503 193.076 44.6977 193.392 44.7925C193.739 44.8872 193.992 45.0768 194.15 45.3611C194.339 45.6454 194.481 46.0087 194.576 46.4509C194.671 46.8932 194.718 47.4618 194.718 48.1567Z" fill="white"/>
</g>
<defs>
<clipPath id="clip0_75_3159">
<rect width="300" height="150" fill="white" transform="matrix(-1 0 0 1 300 0)"/>
</clipPath>
</defs>
</svg>
