<svg width="300" height="150" viewBox="0 0 300 150" fill="none" xmlns="http://www.w3.org/2000/svg">
<rect x="0.53125" width="299.469" height="150" fill="#777777"/>
<path fill-rule="evenodd" clip-rule="evenodd" d="M20.0003 12.5H34.773V71.5909H20.0003V12.5ZM76.1353 12.5H61.3626V71.5909H76.1353V12.5ZM102.5 12.5H117.273V71.5909H102.5V12.5ZM157.273 12.5H142.5V71.5909H157.273V12.5ZM182.5 12.5H197.273V71.5909H182.5V12.5ZM232.221 23.464L232.265 28.0502L215.001 20.8126L232.115 12.5L232.166 17.7312L256.365 17.7312V23.464L232.221 23.464ZM232.166 61.2719L232.115 56.0407L215.001 64.3532L232.265 71.5909L232.221 67.0047H256.365V61.2719L232.166 61.2719ZM226.257 39.5015L226.206 34.2703L209.092 42.5829L226.356 49.8206L226.312 45.2343H250.456V39.5015L226.257 39.5015ZM279.773 12.5H265V71.5909H279.773V12.5ZM67.8348 90.7692L67.8851 96.0003L84.9994 87.6878L67.7354 80.4501L67.7796 85.0363H43.6358V90.7692H67.8348ZM67.7796 128.577L67.7354 123.991L84.9994 131.228L67.8851 139.541L67.8348 134.31H43.6357V128.577H67.7796ZM73.7439 112.539L73.7942 117.771L90.9085 109.458L73.6445 102.22L73.6887 106.807H49.5448V112.539H73.7439ZM34.7708 139.541H19.998L19.9981 80.4501H34.7708L34.7708 139.541ZM102.728 139.541H117.5L117.5 80.4501H102.728L102.728 139.541ZM157.5 139.541H142.728L142.728 80.4501H157.5V139.541ZM182.498 139.541H197.271L197.271 80.4501H182.498V139.541ZM238.638 139.541H223.865V80.4501H238.638V139.541ZM265.228 139.541H280V80.4501H265.228V139.541Z" fill="white"/>
</svg>
