<svg width="150" height="300" viewBox="0 0 150 300" fill="none" xmlns="http://www.w3.org/2000/svg">
<g clip-path="url(#clip0_74_2988)">
<path d="M150 299.469L150 3.05176e-05L3.57113e-06 2.87288e-05L0 299.469L150 299.469Z" fill="#777777"/>
<path d="M117.5 82.1481L93.0078 10L71.7383 82.7894L87.5293 82.6291V152.052L59.4922 130.087L59.3311 99.3033C59.3311 98.0207 35 140.348 35 140.348L59.6533 181.392L59.4922 154.136L86.8848 175.62L87.3682 174.979V237.988H74.4775V213.939H55.1416V270.054H74.4775V249.211H87.3682V292.5H100.259V249.532V238.309V82.1481H117.5Z" fill="white"/>
</g>
<defs>
<clipPath id="clip0_74_2988">
<rect width="300" height="150" fill="white" transform="matrix(1.19249e-08 -1 -1 -1.19249e-08 150 300)"/>
</clipPath>
</defs>
</svg>
