<svg width="150" height="300" viewBox="0 0 150 300" fill="none" xmlns="http://www.w3.org/2000/svg">
<g clip-path="url(#clip0_74_3017)">
<path d="M150 299.469L150 3.05176e-05L3.57113e-06 2.87288e-05L0 299.469L150 299.469Z" fill="#777777"/>
<path d="M42.5 93.8526V92.7348H43.447L81.0101 63.1906L81.1679 32.5285C81.1679 31.2509 105 73.4112 105 73.4112L80.8522 114.294L81.0101 87.305L54.1793 108.545L53.7058 107.906V183.763H67.9104V159.808H85.2715V217.3H67.9104V194.942H53.7058V270H42.6578V195.261V184.082L42.5 93.8526Z" fill="white"/>
</g>
<defs>
<clipPath id="clip0_74_3017">
<rect width="300" height="150" fill="white" transform="matrix(1.19249e-08 -1 -1 -1.19249e-08 150 300)"/>
</clipPath>
</defs>
</svg>
