<svg width="300" height="150" viewBox="0 0 300 150" fill="none" xmlns="http://www.w3.org/2000/svg">
<g clip-path="url(#clip0_75_3151)">
<path d="M299.469 0H3.05176e-05V150H299.469V0Z" fill="#777777"/>
<path d="M137.917 102.459C138.17 103.154 138.296 103.723 138.296 104.165C138.328 104.576 138.217 104.892 137.964 105.113C137.712 105.334 137.285 105.476 136.685 105.539C136.116 105.602 135.342 105.634 134.363 105.634C133.384 105.634 132.594 105.602 131.994 105.539C131.425 105.508 130.983 105.444 130.667 105.35C130.383 105.223 130.162 105.065 130.004 104.876C129.877 104.686 129.751 104.449 129.625 104.165L124.365 89.239H98.8722L93.8494 103.976C93.7546 104.26 93.6283 104.513 93.4703 104.734C93.3124 104.923 93.0755 105.097 92.7596 105.255C92.4753 105.381 92.0488 105.476 91.4802 105.539C90.9432 105.602 90.2324 105.634 89.3479 105.634C88.4318 105.634 87.6737 105.587 87.0735 105.492C86.5048 105.429 86.0942 105.287 85.8415 105.065C85.6203 104.844 85.5098 104.528 85.5098 104.118C85.5414 103.675 85.6835 103.107 85.9362 102.412L106.501 45.4558C106.627 45.1084 106.785 44.824 106.975 44.6029C107.196 44.3818 107.496 44.208 107.875 44.0817C108.286 43.9553 108.791 43.8764 109.391 43.8448C110.023 43.7816 110.813 43.75 111.761 43.75C112.772 43.75 113.609 43.7816 114.272 43.8448C114.935 43.8764 115.472 43.9553 115.883 44.0817C116.294 44.208 116.61 44.3976 116.831 44.6503C117.052 44.8714 117.226 45.1557 117.352 45.5032L137.917 102.459ZM111.524 52.1844H111.476L100.91 82.7473H122.233L111.524 52.1844Z" fill="white"/>
<path d="M166.702 81.4206C166.702 82.6526 166.56 83.5055 166.276 83.9793C165.991 84.4532 165.581 84.6901 165.044 84.6901H145.237C144.668 84.6901 144.242 84.4532 143.957 83.9793C143.673 83.4739 143.531 82.621 143.531 81.4206C143.531 80.2202 143.673 79.3831 143.957 78.9092C144.242 78.4354 144.668 78.1984 145.237 78.1984H165.044C165.296 78.1984 165.517 78.2458 165.707 78.3406C165.928 78.4354 166.102 78.6249 166.228 78.9092C166.386 79.1619 166.497 79.4936 166.56 79.9043C166.655 80.3149 166.702 80.8204 166.702 81.4206Z" fill="white"/>
<path d="M214.488 85.6378C214.488 88.9231 213.935 91.8451 212.83 94.4039C211.724 96.9627 210.16 99.1265 208.139 100.896C206.117 102.633 203.7 103.96 200.889 104.876C198.109 105.792 195.013 106.25 191.602 106.25C189.706 106.25 187.906 106.108 186.2 105.824C184.494 105.571 182.978 105.255 181.651 104.876C180.324 104.465 179.234 104.07 178.381 103.691C177.528 103.312 176.976 103.012 176.723 102.791C176.502 102.57 176.344 102.364 176.249 102.175C176.154 101.985 176.059 101.764 175.965 101.512C175.901 101.227 175.854 100.88 175.823 100.469C175.791 100.058 175.775 99.5688 175.775 99.0002C175.775 98.4632 175.791 97.9893 175.823 97.5787C175.886 97.1364 175.98 96.7889 176.107 96.5362C176.233 96.2519 176.375 96.0466 176.533 95.9202C176.723 95.7938 176.928 95.7307 177.149 95.7307C177.465 95.7307 177.955 95.936 178.618 96.3467C179.282 96.7257 180.166 97.1522 181.272 97.626C182.409 98.0683 183.799 98.4948 185.442 98.9054C187.116 99.3161 189.09 99.5214 191.365 99.5214C193.481 99.5214 195.424 99.2687 197.193 98.7633C198.962 98.2578 200.478 97.4681 201.742 96.394C203.037 95.32 204.048 93.9774 204.774 92.3664C205.501 90.7237 205.864 88.7336 205.864 86.3959C205.864 84.4374 205.548 82.7158 204.917 81.231C204.316 79.7147 203.369 78.467 202.073 77.4877C200.81 76.4768 199.199 75.7345 197.24 75.2606C195.282 74.7552 192.944 74.5025 190.227 74.5025C188.3 74.5025 186.642 74.5972 185.252 74.7868C183.862 74.9763 182.567 75.0711 181.366 75.0711C180.482 75.0711 179.85 74.8657 179.471 74.4551C179.092 74.0444 178.902 73.2547 178.902 72.0859V47.1143C178.902 46.0718 179.139 45.2979 179.613 44.7925C180.119 44.287 180.829 44.0343 181.746 44.0343H208.897C209.15 44.0343 209.386 44.1133 209.608 44.2712C209.86 44.3976 210.066 44.6029 210.224 44.8872C210.382 45.1715 210.492 45.5348 210.555 45.9771C210.65 46.4193 210.697 46.9405 210.697 47.5408C210.697 48.678 210.539 49.5625 210.224 50.1943C209.908 50.8261 209.465 51.142 208.897 51.142H186.01V68.3425C187.116 68.1845 188.237 68.0898 189.374 68.0582C190.543 68.0266 191.886 68.0108 193.402 68.0108C196.909 68.0108 199.973 68.4373 202.595 69.2902C205.217 70.1115 207.396 71.2961 209.134 72.844C210.903 74.3603 212.23 76.2083 213.114 78.388C214.03 80.5677 214.488 82.9843 214.488 85.6378Z" fill="white"/>
</g>
<defs>
<clipPath id="clip0_75_3151">
<rect width="300" height="150" fill="white" transform="matrix(-1 0 0 1 300 0)"/>
</clipPath>
</defs>
</svg>
