<svg width="120" height="115" viewBox="0 0 120 115" fill="none" xmlns="http://www.w3.org/2000/svg">
<path fill-rule="evenodd" clip-rule="evenodd" d="M0 7.35155e-05L2.38419e-06 56.0001L16 56.0001C6.5 73.0001 3 86.5835 3 106.5C3 109.361 3 109.5 3 115L59 115C68.5 69.5001 86.5 60.5 120 56V2.9823e-05L119.5 3.8147e-06L0 7.35155e-05Z" fill="#B2B3B7"/>
<path fill-rule="evenodd" clip-rule="evenodd" d="M111.196 25.0932C112.287 25.0544 113.389 25.0277 114.5 25.0132V27.0134C113.412 27.0278 112.335 27.054 111.267 27.092L111.196 25.0932ZM114.283 67.1679C114.355 67.1406 114.428 67.1134 114.5 67.0863V67.7404L114.283 67.1679ZM90.1205 27.5825C93.4956 26.8686 96.994 26.3009 100.614 25.8817L100.844 27.8685C97.2827 28.2808 93.8457 28.8388 90.5344 29.5392L90.1205 27.5825ZM69.9405 34.2606C73.0838 32.7761 76.3838 31.4658 79.8381 30.333L80.4614 32.2334C77.0826 33.3415 73.8599 34.6213 70.7947 36.0691L69.9405 34.2606ZM52.1622 45.956C54.8006 43.5998 57.6249 41.434 60.6323 39.4629L61.7287 41.1357C58.8031 43.0531 56.0578 45.1585 53.4944 47.4477L52.1622 45.956ZM38.5831 62.3476C40.4533 59.2683 42.5136 56.3665 44.7617 53.6471L46.3031 54.9214C44.1181 57.5646 42.1137 60.3872 40.2925 63.3858L38.5831 62.3476ZM29.993 81.7923C31.0541 78.3174 32.2829 74.9876 33.6781 71.8066L35.5096 72.61C34.1472 75.7163 32.9451 78.9727 31.9058 82.3764L29.993 81.7923ZM25.8268 102.617C26.2188 99.0025 26.7497 95.5005 27.4186 92.1141L29.3807 92.5017C28.7236 95.8284 28.2012 99.2729 27.8151 102.833L25.8268 102.617Z" fill="#D9D9D9"/>
<path d="M26 22.5L12 22.5L12 19.5L26 19.5L26 22.5Z" fill="#D9D9D9"/>
<path d="M54.5 12.6604C64.768 6.68411 76.1062 2.34479 88.1572 0H109C106.995 0 105.003 0.0554066 103.025 0.164772C99.0039 0.387152 95.042 0.832629 91.1518 1.48903C87.191 2.15735 83.3044 3.04432 79.505 4.13711C75.6537 5.24482 71.8919 6.564 68.2331 8.08128C64.5376 9.61373 60.9471 11.3483 57.4753 13.2711C56.4736 13.8259 55.4817 14.3964 54.5 14.9823V12.6604Z" fill="white"/>
<path d="M47.3673 19.6353L46.2086 18.0051C42.8965 20.3594 39.7224 22.8949 36.7006 25.5971L38.0338 27.088C41.0002 24.4352 44.1161 21.9463 47.3673 19.6353Z" fill="white"/>
<path d="M28.0971 34.2006L29.5879 35.5338C26.9352 38.5002 24.4463 41.6161 22.1353 44.8673L20.5051 43.7086C22.8594 40.3965 25.3949 37.2224 28.0971 34.2006Z" fill="white"/>
</svg>
