<svg width="300" height="150" viewBox="0 0 300 150" fill="none" xmlns="http://www.w3.org/2000/svg">
<g clip-path="url(#clip0_75_3154)">
<path d="M299.469 0H3.05176e-05V150H299.469V0Z" fill="#777777"/>
<path d="M105.529 62.4249C105.529 65.4592 105.029 68.1963 104.028 70.6363C103.027 73.0762 101.588 75.1564 99.7112 76.8769C97.8656 78.5973 95.582 79.9268 92.8606 80.8652C90.1704 81.8037 86.9484 82.2729 83.1947 82.2729H76.2971V104.139C76.2971 104.389 76.2189 104.608 76.0625 104.795C75.9374 104.983 75.7184 105.14 75.4056 105.265C75.1241 105.358 74.7174 105.437 74.1856 105.499C73.6851 105.593 73.0439 105.64 72.2618 105.64C71.4798 105.64 70.8229 105.593 70.2911 105.499C69.7906 105.437 69.384 105.358 69.0712 105.265C68.7583 105.14 68.5394 104.983 68.4143 104.795C68.2891 104.608 68.2266 104.389 68.2266 104.139V48.1137C68.2266 46.8625 68.555 45.971 69.2119 45.4392C69.8688 44.9074 70.6039 44.6415 71.4173 44.6415H84.4146C85.7284 44.6415 86.9797 44.7041 88.1684 44.8292C89.3883 44.923 90.8116 45.1577 92.4383 45.533C94.0962 45.8771 95.7697 46.5497 97.4589 47.5507C99.1794 48.5204 100.634 49.7247 101.823 51.1637C103.011 52.6026 103.918 54.2762 104.544 56.1843C105.201 58.0612 105.529 60.1414 105.529 62.4249ZM97.0366 63.0818C97.0366 60.6106 96.5674 58.546 95.629 56.8881C94.7218 55.2302 93.58 53.9946 92.2037 53.1813C90.8586 52.368 89.4509 51.8519 87.9807 51.6329C86.5417 51.4139 85.1341 51.3044 83.7577 51.3044H76.2971V75.6569H83.57C86.01 75.6569 88.0276 75.3441 89.623 74.7185C91.2496 74.0928 92.6103 73.2326 93.7052 72.1378C94.8 71.0116 95.629 69.6822 96.192 68.1494C96.7551 66.5853 97.0366 64.8961 97.0366 63.0818Z" fill="white"/>
<path d="M134.034 81.6629C134.034 82.8829 133.893 83.7275 133.611 84.1967C133.33 84.6659 132.923 84.9005 132.391 84.9005H112.778C112.215 84.9005 111.793 84.6659 111.511 84.1967C111.23 83.6962 111.089 82.8516 111.089 81.6629C111.089 80.4742 111.23 79.6453 111.511 79.1761C111.793 78.7068 112.215 78.4722 112.778 78.4722H132.391C132.642 78.4722 132.861 78.5191 133.048 78.613C133.267 78.7068 133.439 78.8945 133.564 79.1761C133.721 79.4263 133.83 79.7548 133.893 80.1614C133.987 80.5681 134.034 81.0686 134.034 81.6629Z" fill="white"/>
<path d="M181.635 101.886C181.635 102.449 181.588 102.95 181.494 103.388C181.432 103.826 181.322 104.201 181.166 104.514C181.041 104.795 180.853 105.014 180.603 105.171C180.384 105.296 180.133 105.358 179.852 105.358H146.303C145.865 105.358 145.474 105.312 145.13 105.218C144.817 105.093 144.535 104.905 144.285 104.655C144.066 104.404 143.894 104.045 143.769 103.575C143.675 103.106 143.628 102.528 143.628 101.839C143.628 101.214 143.644 100.666 143.675 100.197C143.738 99.7279 143.847 99.3212 144.004 98.9771C144.16 98.6017 144.348 98.242 144.567 97.8979C144.817 97.5225 145.13 97.1315 145.505 96.7248L157.282 84.2436C160.004 81.3657 162.178 78.785 163.805 76.5015C165.463 74.218 166.729 72.1378 167.605 70.2609C168.512 68.384 169.107 66.6792 169.388 65.1464C169.67 63.6136 169.811 62.1747 169.811 60.8296C169.811 59.4845 169.592 58.2176 169.154 57.0289C168.716 55.8089 168.075 54.7454 167.23 53.8382C166.417 52.9311 165.384 52.2116 164.133 51.6798C162.882 51.148 161.443 50.8821 159.816 50.8821C157.908 50.8821 156.188 51.148 154.655 51.6798C153.153 52.2116 151.824 52.7903 150.666 53.4159C149.54 54.0415 148.586 54.6202 147.804 55.152C147.054 55.6838 146.49 55.9497 146.115 55.9497C145.896 55.9497 145.693 55.8871 145.505 55.762C145.349 55.6369 145.208 55.4336 145.083 55.152C144.989 54.8705 144.911 54.4951 144.848 54.0259C144.786 53.5567 144.754 52.9936 144.754 52.3367C144.754 51.8675 144.77 51.4608 144.801 51.1167C144.833 50.7726 144.879 50.4755 144.942 50.2252C145.036 49.975 145.145 49.7404 145.27 49.5214C145.396 49.3024 145.646 49.0365 146.021 48.7237C146.397 48.3796 147.038 47.9261 147.945 47.363C148.883 46.7999 150.041 46.2525 151.417 45.7207C152.825 45.1577 154.358 44.6884 156.016 44.3131C157.705 43.9377 159.472 43.75 161.318 43.75C164.258 43.75 166.823 44.1723 169.013 45.0169C171.234 45.8302 173.064 46.9563 174.503 48.3953C175.973 49.8342 177.068 51.5078 177.787 53.4159C178.507 55.3241 178.867 57.3574 178.867 59.5158C178.867 61.4552 178.695 63.3946 178.35 65.3341C178.006 67.2422 177.271 69.3224 176.145 71.5747C175.05 73.7957 173.455 76.2825 171.359 79.0353C169.263 81.7568 166.479 84.9005 163.007 88.4666L153.388 98.5079H179.805C180.055 98.5079 180.29 98.5861 180.509 98.7425C180.759 98.8676 180.962 99.0709 181.119 99.3525C181.307 99.634 181.432 99.9937 181.494 100.432C181.588 100.838 181.635 101.323 181.635 101.886Z" fill="white"/>
<path d="M231.77 72.607C231.77 75.2346 231.614 77.8935 231.301 80.5837C230.988 83.2739 230.456 85.8702 229.706 88.3727C228.955 90.844 227.938 93.1744 226.656 95.3641C225.404 97.5225 223.809 99.415 221.87 101.042C219.961 102.668 217.678 103.951 215.019 104.889C212.391 105.796 209.326 106.25 205.822 106.25C204.477 106.25 203.163 106.156 201.881 105.968C200.63 105.812 199.488 105.609 198.456 105.358C197.455 105.108 196.61 104.842 195.922 104.561C195.234 104.279 194.733 103.998 194.42 103.716C194.107 103.435 193.873 103.059 193.716 102.59C193.591 102.09 193.529 101.433 193.529 100.619C193.529 99.9312 193.544 99.3838 193.576 98.9771C193.638 98.5704 193.716 98.2576 193.81 98.0387C193.904 97.8197 194.029 97.6789 194.186 97.6164C194.373 97.5225 194.592 97.4756 194.843 97.4756C195.187 97.4756 195.671 97.6007 196.297 97.851C196.923 98.0699 197.705 98.3202 198.643 98.6017C199.613 98.8833 200.739 99.1491 202.022 99.3994C203.304 99.6184 204.743 99.7279 206.338 99.7279C209.373 99.7279 211.969 99.1491 214.127 97.9917C216.317 96.8031 218.1 95.2233 219.477 93.2526C220.853 91.2819 221.885 88.9984 222.573 86.402C223.262 83.8057 223.637 81.0686 223.7 78.1907C222.042 79.1604 220.055 80.0206 217.74 80.7714C215.426 81.5221 212.767 81.8975 209.764 81.8975C206.385 81.8975 203.539 81.4439 201.224 80.5368C198.94 79.5983 197.095 78.3315 195.687 76.7361C194.311 75.1408 193.31 73.2482 192.684 71.0586C192.09 68.8689 191.793 66.4759 191.793 63.8795C191.793 61.1893 192.184 58.6399 192.966 56.2312C193.748 53.7913 194.968 51.6485 196.626 49.8029C198.283 47.9573 200.395 46.4871 202.96 45.3923C205.525 44.2974 208.591 43.75 212.157 43.75C214.691 43.75 216.927 44.0785 218.867 44.7354C220.837 45.361 222.542 46.2838 223.981 47.5038C225.42 48.6924 226.64 50.147 227.641 51.8675C228.642 53.5567 229.44 55.4805 230.034 57.6389C230.66 59.7973 231.098 62.1434 231.348 64.6772C231.629 67.1797 231.77 69.8229 231.77 72.607ZM223.559 71.7155C223.559 67.7115 223.293 64.3487 222.761 61.6273C222.229 58.8745 221.447 56.6535 220.415 54.9643C219.383 53.2752 218.116 52.0552 216.614 51.3044C215.113 50.5537 213.377 50.1783 211.406 50.1783C209.373 50.1783 207.637 50.5537 206.198 51.3044C204.759 52.0239 203.57 53.0093 202.632 54.2605C201.724 55.4805 201.052 56.8725 200.614 58.4366C200.176 60.0006 199.957 61.6116 199.957 63.2695C199.957 65.1151 200.145 66.8043 200.52 68.3371C200.927 69.8699 201.568 71.168 202.444 72.2316C203.32 73.2952 204.462 74.1241 205.869 74.7185C207.277 75.2815 209.013 75.5631 211.078 75.5631C213.424 75.5631 215.692 75.219 217.881 74.5308C220.071 73.8113 221.963 72.8729 223.559 71.7155Z" fill="white"/>
</g>
<defs>
<clipPath id="clip0_75_3154">
<rect width="300" height="150" fill="white" transform="matrix(-1 0 0 1 300 0)"/>
</clipPath>
</defs>
</svg>
