<svg width="150" height="300" viewBox="0 0 150 300" fill="none" xmlns="http://www.w3.org/2000/svg">
<g clip-path="url(#clip0_75_3046)">
<path d="M150 299.469L150 3.05176e-05L3.57113e-06 2.87288e-05L0 299.469L150 299.469Z" fill="#777777"/>
<path fill-rule="evenodd" clip-rule="evenodd" d="M114.998 103.043L93.8028 30L69.5797 102.241L86.4722 102.562L86.4722 120.001C86.398 120 86.3239 120 86.2496 120C68.9907 120 45.4941 133.991 45.4941 151.25L45.4941 180.824L26.6708 180.824L51.163 252.972L72.4325 180.183L55.5038 180.824L55.5038 165.473L55.4941 165.473L55.4941 151.25C55.4941 139.514 74.5135 130 86.2496 130C86.3239 130 86.3981 130 86.4722 130.001L86.4722 174.642L86.4287 174.608L86.4287 198.606L86.4722 198.562L86.4722 270L99.2212 270L99.2212 102.883L114.998 103.043Z" fill="white"/>
</g>
<defs>
<clipPath id="clip0_75_3046">
<rect width="300" height="150" fill="white" transform="matrix(1.19249e-08 -1 -1 -1.19249e-08 150 300)"/>
</clipPath>
</defs>
</svg>
