<svg width="300" height="150" viewBox="0 0 300 150" fill="none" xmlns="http://www.w3.org/2000/svg">
<g clip-path="url(#clip0_74_2921)">
<path d="M299.469 0H3.05176e-05V150H299.469V0Z" fill="#777777"/>
<path fill-rule="evenodd" clip-rule="evenodd" d="M74.0059 23.3328L28.3438 0.864197L31.6551 -5.86523L90.9931 23.3328L38.4931 49.1662L90.9931 74.9995L38.4931 100.833L90.9931 126.666L31.6551 155.864L28.3438 149.135L74.0059 126.666L21.5059 100.833L74.0059 74.9995L21.5059 49.1662L74.0059 23.3328Z" fill="#E9E860"/>
<path fill-rule="evenodd" clip-rule="evenodd" d="M289.008 23.3348L243.346 0.86615L246.657 -5.86328L305.995 23.3348L253.495 49.1681L305.995 75.0014L253.495 100.835L305.995 126.668L246.657 155.866L243.346 149.137L289.008 126.668L236.508 100.835L289.008 75.0014L236.508 49.1681L289.008 23.3348Z" fill="#E9E860"/>
</g>
<defs>
<clipPath id="clip0_74_2921">
<rect width="300" height="150" fill="white" transform="matrix(-1 0 0 1 300 0)"/>
</clipPath>
</defs>
</svg>
