<svg width="300" height="150" viewBox="0 0 300 150" fill="none" xmlns="http://www.w3.org/2000/svg">
<g clip-path="url(#clip0_74_2731)">
<path d="M0.53125 0H300V150H0.53125V0Z" fill="#777777"/>
<path d="M0 15H15V135H0V15Z" fill="#E9E860"/>
<path fill-rule="evenodd" clip-rule="evenodd" d="M17.5 135H15V15H17.5V135ZM0 15V135H-2.5V15H0Z" fill="#222316"/>
<path d="M17.5 15H32.5V135H17.5V15Z" fill="white"/>
<path fill-rule="evenodd" clip-rule="evenodd" d="M35 135H32.5V15H35V135ZM17.5 15V135H15V15H17.5Z" fill="#222316"/>
<path d="M35 15H50V135H35V15Z" fill="#E9E860"/>
<path fill-rule="evenodd" clip-rule="evenodd" d="M52.5 135H50V15H52.5V135ZM35 15V135H32.5V15H35Z" fill="#222316"/>
<path d="M52.5 15H67.5V135H52.5V15Z" fill="white"/>
<path fill-rule="evenodd" clip-rule="evenodd" d="M70 135H67.5V15H70V135ZM52.5 15V135H50V15H52.5Z" fill="#222316"/>
<path d="M70 15H85V135H70V15Z" fill="#E9E860"/>
<path fill-rule="evenodd" clip-rule="evenodd" d="M87.5 135H85V15H87.5V135ZM70 15V135H67.5V15H70Z" fill="#222316"/>
<path d="M87.5 15H102.5V135H87.5V15Z" fill="white"/>
<path fill-rule="evenodd" clip-rule="evenodd" d="M105 135H102.5V15H105V135ZM87.5 15V135H85V15H87.5Z" fill="#222316"/>
<path d="M105 15H120V135H105V15Z" fill="#E9E860"/>
<path fill-rule="evenodd" clip-rule="evenodd" d="M122.5 135H120V15H122.5V135ZM105 15V135H102.5V15H105Z" fill="#222316"/>
<path d="M122.5 15H137.5V135H122.5V15Z" fill="white"/>
<path fill-rule="evenodd" clip-rule="evenodd" d="M140 135H137.5V15H140V135ZM122.5 15V135H120V15H122.5Z" fill="#222316"/>
<path d="M140 15H155V135H140V15Z" fill="#E9E860"/>
<path fill-rule="evenodd" clip-rule="evenodd" d="M157.5 135H155V15H157.5V135ZM140 15V135H137.5V15H140Z" fill="#222316"/>
<path d="M157.5 15H172.5V135H157.5V15Z" fill="white"/>
<path fill-rule="evenodd" clip-rule="evenodd" d="M175 135H172.5V15H175V135ZM157.5 15V135H155V15H157.5Z" fill="#222316"/>
<path d="M175 15H190V135H175V15Z" fill="#E9E860"/>
<path fill-rule="evenodd" clip-rule="evenodd" d="M192.5 135H190V15H192.5V135ZM175 15V135H172.5V15H175Z" fill="#222316"/>
<path d="M192.5 15H207.5V135H192.5V15Z" fill="white"/>
<path fill-rule="evenodd" clip-rule="evenodd" d="M210 135H207.5V15H210V135ZM192.5 15V135H190V15H192.5Z" fill="#222316"/>
<path d="M210 15H225V135H210V15Z" fill="#E9E860"/>
<path fill-rule="evenodd" clip-rule="evenodd" d="M227.5 135H225V15H227.5V135ZM210 15V135H207.5V15H210Z" fill="#222316"/>
<path d="M227.5 15H242.5V135H227.5V15Z" fill="white"/>
<path fill-rule="evenodd" clip-rule="evenodd" d="M245 135H242.5V15H245V135ZM227.5 15V135H225V15H227.5Z" fill="#222316"/>
<path d="M245 15H260V135H245V15Z" fill="#E9E860"/>
<path fill-rule="evenodd" clip-rule="evenodd" d="M262.5 135H260V15H262.5V135ZM245 15V135H242.5V15H245Z" fill="#222316"/>
<path d="M262.5 15H277.5V135H262.5V15Z" fill="white"/>
<path fill-rule="evenodd" clip-rule="evenodd" d="M280 135H277.5V15H280V135ZM262.5 15V135H260V15H262.5Z" fill="#222316"/>
<path d="M280 15H295V135H280V15Z" fill="#E9E860"/>
<path fill-rule="evenodd" clip-rule="evenodd" d="M297.5 135H295V15H297.5V135ZM280 15V135H277.5V15H280Z" fill="#222316"/>
<path d="M297.5 15H312.5V135H297.5V15Z" fill="white"/>
<path fill-rule="evenodd" clip-rule="evenodd" d="M315 135H312.5V15H315V135ZM297.5 15V135H295V15H297.5Z" fill="#222316"/>
</g>
<defs>
<clipPath id="clip0_74_2731">
<rect width="300" height="150" fill="white"/>
</clipPath>
</defs>
</svg>
