<svg width="118" height="119" viewBox="0 0 118 119" fill="none" xmlns="http://www.w3.org/2000/svg">
<path d="M15 0H43V119H15V0Z" fill="#B2B3B7"/>
<path fill-rule="evenodd" clip-rule="evenodd" d="M43 119H41V0H43V119ZM17 0V119H15V0H17Z" fill="white"/>
<path d="M108.5 4H118V60C84.5 64.5 66.5 66 58 119H2.00001C2 116 2 113.361 2 110.5C2 51.6817 49.6817 4 108.5 4Z" fill="#B2B3B7"/>
<path fill-rule="evenodd" clip-rule="evenodd" d="M45.7086 22.0051L46.8673 23.6353C43.6161 25.9463 40.5002 28.4352 37.5338 31.0879L36.2006 29.5971C39.2224 26.8949 42.3965 24.3594 45.7086 22.0051ZM27.5971 38.2006L29.0879 39.5338C26.4352 42.5002 23.9463 45.6161 21.6353 48.8673L20.0051 47.7086C22.3594 44.3965 24.8949 41.2224 27.5971 38.2006ZM13.5215 58.0063L15.2711 58.9753C13.3483 62.4471 11.6137 66.0376 10.0813 69.7331L8.23383 68.967C9.79525 65.2016 11.5625 61.5434 13.5215 58.0063ZM4.21503 80.4522L6.13711 81.005C5.04432 84.8044 4.15735 88.691 3.48903 92.6518L1.51691 92.319C2.19782 88.2836 3.10155 84.3236 4.21503 80.4522ZM0.167823 104.415L2.16477 104.525C2.05541 106.503 2 108.495 2 110.5C2 111.211 2.00696 111.92 2.02082 112.627L0.0212021 112.666C0.0070889 111.946 0 111.224 0 110.5C0 108.458 0.0564251 106.429 0.167823 104.415Z" fill="white"/>
<path d="M103 32.5001C80.5001 31.6668 27.5001 59.5012 27.5001 113.001" stroke="#D9D9D9" stroke-width="4" stroke-dasharray="16 12"/>
</svg>
