<svg width="116" height="115" viewBox="0 0 116 115" fill="none" xmlns="http://www.w3.org/2000/svg">
<path d="M106.5 0H116V56C79.8348 56 59.3526 67.0546 56 115L2.3894e-05 115C4.89568e-06 112 0 109.499 0 106.637C0 47.8191 37.1419 7.03446 106.5 0Z" fill="#B2B3B7"/>
<path fill-rule="evenodd" clip-rule="evenodd" d="M84.7882 33.2444C89.5277 32.2388 94.6467 31.5074 100.175 31.096L99.8782 27.1071C94.1822 27.5309 88.8844 28.2862 83.958 29.3315L84.7882 33.2444ZM29.6917 107.5C29.6917 105.103 29.7848 102.511 30.0099 99.7778L26.0234 99.4495C25.7888 102.298 25.6917 105 25.6917 107.5L29.6917 107.5ZM31.6873 88.3118C32.712 83.5097 34.2012 78.5419 36.3084 73.624L32.6317 72.0486C30.4097 77.2344 28.8472 82.4541 27.7754 87.477L31.6873 88.3118ZM41.6883 63.4534C44.3419 59.3223 47.5476 55.34 51.4096 51.6472L48.6453 48.7561C44.542 52.6795 41.1375 56.9096 38.3228 61.2916L41.6883 63.4534ZM60.3865 44.4557C64.3824 41.7805 68.8886 39.3647 73.9686 37.2931L72.4582 33.5892C67.1355 35.7598 62.389 38.3015 58.1613 41.1318L60.3865 44.4557Z" fill="#D9D9D9"/>
</svg>
