<svg width="102" height="104" viewBox="0 0 102 104" fill="none" xmlns="http://www.w3.org/2000/svg">
<path fill-rule="evenodd" clip-rule="evenodd" d="M102 2H101.5C46.5476 2 2.93958 45.5477 2.93958 100.5C2.93958 101.672 2.95982 102.838 2.99998 104H27C26.9456 102.84 27 101.673 27 100.5C27 59.9071 60.907 26 101.5 26H102V2Z" fill="#B2B3B7"/>
<path fill-rule="evenodd" clip-rule="evenodd" d="M102 28H101.5C62.0116 28 29 61.0116 29 100.5C29 100.962 28.9932 101.386 28.9868 101.789C28.975 102.524 28.9643 103.192 28.9978 103.906L29.0022 104H27C26.9688 103.336 26.9734 102.669 26.9829 102L26.9879 101.673L26.9879 101.673C26.9939 101.283 27 100.892 27 100.5C27 59.9071 60.907 26 101.5 26H102V2H101.5C100.999 2 100.499 2.00362 100 2.01083C45.7562 2.79492 2.93958 46.0486 2.93958 100.5C2.93958 101.672 2.95982 102.838 2.99998 104H0.998811C0.959425 102.838 0.939575 101.671 0.939575 100.5C0.939575 44.4415 45.4447 0 101.5 0H102V28Z" fill="white"/>
</svg>
