<svg width="296" height="176" viewBox="0 0 296 176" fill="none" xmlns="http://www.w3.org/2000/svg">
<g clip-path="url(#clip0_858_26666)">
<path d="M0 120V176H296V120H0Z" fill="#B2B3B7"/>
<path d="M6.54919 161.853L46.1472 201.451L255.451 -7.85309L215.853 -47.4511L6.54919 161.853Z" fill="#B2B3B7"/>
<path d="M90.6949 113.062L104.837 98.9199L107.665 101.748L93.5233 115.89L90.6949 113.062Z" fill="#D9D9D9"/>
<path d="M110.494 93.263L124.636 79.1209L127.464 81.9493L113.322 96.0914L110.494 93.263Z" fill="#D9D9D9"/>
<path d="M130.293 73.464L144.435 59.3219L147.263 62.1503L133.121 76.2925L130.293 73.464Z" fill="#D9D9D9"/>
<path d="M150.092 53.665L164.234 39.5229L167.062 42.3513L152.92 56.4935L150.092 53.665Z" fill="#D9D9D9"/>
<path d="M169.891 33.8661L184.033 19.7239L186.861 22.5523L172.719 36.6945L169.891 33.8661Z" fill="#D9D9D9"/>
<path d="M189.69 14.0671L203.832 -0.0750713L206.66 2.75336L192.518 16.8955L189.69 14.0671Z" fill="#D9D9D9"/>
<path d="M209.489 -5.73193L223.631 -19.8741L226.459 -17.0456L212.317 -2.9035L209.489 -5.73193Z" fill="#D9D9D9"/>
<path d="M10 145H30V149H10V145Z" fill="#D9D9D9"/>
<path d="M38 145H58V149H38V145Z" fill="#D9D9D9"/>
<path d="M66 145H86V149H66V145Z" fill="#D9D9D9"/>
<path d="M94 145H114V149H94V145Z" fill="#D9D9D9"/>
<path d="M122 145H142V149H122V145Z" fill="#D9D9D9"/>
<path d="M150 145H170V149H150V145Z" fill="#D9D9D9"/>
<path d="M178 145H198V149H178V145Z" fill="#D9D9D9"/>
<path d="M206 145H226V149H206V145Z" fill="#D9D9D9"/>
<path d="M234 145H254V149H234V145Z" fill="#D9D9D9"/>
<path d="M262 145H282V149H262V145Z" fill="#D9D9D9"/>
</g>
<defs>
<clipPath id="clip0_858_26666">
<rect width="296" height="176" fill="white"/>
</clipPath>
</defs>
</svg>
