<svg width="181" height="120" viewBox="0 0 181 120" fill="none" xmlns="http://www.w3.org/2000/svg">
<path d="M181 120L0 120L3.39968e-05 64H54C58.4183 64 62 60.9386 62 56.5203L62 7.62939e-06H118L118 56.5203C118 60.9386 122.993 64 127.411 64L181 64V120Z" fill="#B2B3B7"/>
<path d="M8.00003 94L25 94L25 90L8.00003 90L8.00003 94Z" fill="#D9D9D9"/>
<path d="M37 94L54 94L54 90L37 90L37 94Z" fill="#D9D9D9"/>
<path d="M66 94.0001L83 94.0001L83 90.0001L66 90.0001L66 94.0001Z" fill="#D9D9D9"/>
<path d="M88.5 42L88.5 59L92.5 59L92.5 42L88.5 42Z" fill="#D9D9D9"/>
<path d="M88.5 13L88.5 30L92.5 30L92.5 13L88.5 13Z" fill="#D9D9D9"/>
<path d="M95 94.0001L112 94.0001L112 90.0001L95 90.0001L95 94.0001Z" fill="#D9D9D9"/>
<path d="M124 94.0001L141 94.0001L141 90.0001L124 90.0001L124 94.0001Z" fill="#D9D9D9"/>
<path d="M153 94.0001L170 94.0001L170 90.0001L153 90.0001L153 94.0001Z" fill="#D9D9D9"/>
</svg>
