<svg width="157" height="70" viewBox="0 0 157 70" fill="none" xmlns="http://www.w3.org/2000/svg">
<g clip-path="url(#clip0_956_11266)">
<path d="M141.043 64.1235H13.2952C6.47203 64.1235 1 58.5839 1 51.8283V17.3748C1 10.6192 6.47203 5.07959 13.2952 5.07959H141.111C150.434 5.07959 158 12.6459 158 21.9686V47.1669C157.932 56.5572 150.366 64.1235 141.043 64.1235Z" fill="#FFBC00"/>
<path opacity="0.5" d="M146.651 64.1236H9.24182C4.64802 64.1236 1 60.408 1 55.8817V13.3215C1 8.79524 4.64802 5.14722 9.24182 5.14722H146.651C152.933 5.14722 158 10.2139 158 16.4966V52.8417C157.932 59.0569 152.866 64.1236 146.651 64.1236Z" fill="url(#paint0_radial_956_11266)"/>
<path opacity="0.4" d="M146.651 64.1236H9.24182C4.64802 64.1236 1 60.408 1 55.8817V13.3215C1 8.79524 4.64802 5.14722 9.24182 5.14722H146.651C152.933 5.14722 158 10.2139 158 16.4966V52.8417C157.932 59.0569 152.866 64.1236 146.651 64.1236Z" fill="url(#paint1_radial_956_11266)"/>
<path opacity="0.6" d="M155.365 18.1178V51.0175C155.365 55.0033 153.609 58.5838 150.771 60.9483C155.095 57.9082 157.932 52.8416 157.932 47.1669V22.036C157.932 16.3614 155.095 11.2947 150.771 8.25464C153.609 10.6191 155.365 14.1996 155.365 18.1178Z" fill="url(#paint2_linear_956_11266)"/>
<path opacity="0.4" d="M155.365 18.1178V51.0175C155.365 55.0033 153.609 58.5838 150.771 60.9483C155.095 57.9082 157.932 52.8416 157.932 47.1669V22.036C157.932 16.3614 155.095 11.2947 150.771 8.25464C153.609 10.6191 155.365 14.1996 155.365 18.1178Z" fill="url(#paint3_linear_956_11266)"/>
<path opacity="0.4" d="M155.365 18.1178V51.0175C155.365 55.0033 153.609 58.5838 150.771 60.9483C155.095 57.9082 157.932 52.8416 157.932 47.1669V22.036C157.932 16.3614 155.095 11.2947 150.771 8.25464C153.609 10.6191 155.365 14.1996 155.365 18.1178Z" fill="url(#paint4_linear_956_11266)"/>
<path d="M11.1335 7.1062H143.205C149.285 7.1062 154.149 12.0378 154.149 18.0503V51.0851C154.149 57.1652 149.218 62.0292 143.205 62.0292H11.1335C7.62055 62.0292 4.7832 59.1918 4.7832 55.6789V13.4565C4.7832 9.94355 7.62055 7.1062 11.1335 7.1062Z" fill="#FFAA00"/>
<path opacity="0.3" d="M9.03923 7.1062H146.853C150.907 7.1062 154.217 10.4164 154.217 14.4698V54.7331C154.217 58.7865 150.907 62.0967 146.853 62.0967H9.03923C6.67477 62.0967 4.7832 60.2052 4.7832 57.8407V11.3622C4.7832 9.06532 6.67477 7.1062 9.03923 7.1062Z" fill="url(#paint5_linear_956_11266)"/>
<path d="M4.78306 55.7465V13.4565C4.78306 9.94355 7.62041 7.1062 11.1333 7.1062H9.98487C6.47196 7.1062 3.63461 9.94355 3.63461 13.4565V55.7465C3.63461 59.2594 6.47196 62.0967 9.98487 62.0967H11.1333C7.62041 62.0967 4.78306 59.2594 4.78306 55.7465Z" fill="#FFAA00"/>
<path d="M4.78306 55.7465V13.4565C4.78306 9.94355 7.62041 7.1062 11.1333 7.1062H9.98487C6.47196 7.1062 3.63461 9.94355 3.63461 13.4565V55.7465C3.63461 59.2594 6.47196 62.0967 9.98487 62.0967H11.1333C7.62041 62.0967 4.78306 59.2594 4.78306 55.7465Z" fill="url(#paint6_linear_956_11266)"/>
<path opacity="0.5" d="M5.18854 13.1864L5.18854 55.7466C5.18854 59.2595 8.02589 62.1644 11.5388 62.1644L143.611 62.1644C146.516 62.1644 149.15 61.016 151.177 59.1244C149.15 61.2186 146.38 62.5698 143.205 62.5698L11.1335 62.5698C7.62055 62.5698 4.7832 59.7324 4.7832 56.152L4.7832 13.5917C4.7832 11.7001 5.59387 10.0788 6.87744 8.86279C5.79654 10.0112 5.18854 11.4975 5.18854 13.1864Z" fill="url(#paint7_radial_956_11266)"/>
<path opacity="0.3" d="M154.149 25.2112L154.42 21.6308L113.346 18.5232L113.143 22.1037L154.149 25.2112Z" fill="url(#paint8_linear_956_11266)"/>
<path opacity="0.3" d="M154.149 43.7893L154.555 47.3698L113.616 51.6258L113.21 48.1129L154.149 43.7893Z" fill="url(#paint9_linear_956_11266)"/>
<path d="M155.365 51.1527V18.1179C155.365 12.0379 150.434 7.17383 144.421 7.17383H143.205C149.285 7.17383 154.149 12.1054 154.149 18.1179V51.1527C154.149 57.2328 149.218 62.0968 143.205 62.0968H144.421C150.501 62.0968 155.365 57.1652 155.365 51.1527Z" fill="#666666"/>
<path d="M151.717 11.2271L152.933 11.2271C150.907 8.72754 147.867 7.1062 144.354 7.1062L143.138 7.1062C146.651 7.1062 149.758 8.72754 151.717 11.2271Z" fill="#FF6600"/>
<path d="M151.717 11.2273C153.203 13.1189 154.149 15.4833 154.149 18.118L154.149 25.2114L155.365 25.6843L155.365 18.118C155.365 15.5509 154.487 13.1189 152.933 11.2273L151.717 11.2273Z" fill="#DCFFFE"/>
<path d="M151.717 57.9758L152.933 57.9758C150.907 60.4754 147.866 62.0967 144.354 62.0967L143.138 62.0967C146.65 62.0967 149.758 60.4754 151.717 57.9758Z" fill="#FF6600"/>
<path d="M151.717 57.976C153.203 56.0844 154.149 53.72 154.149 51.0853L154.149 43.9919L155.365 43.519L155.365 51.0853C155.365 53.6524 154.487 56.0844 152.933 57.976L151.717 57.976Z" fill="#DCFFFE"/>
<path d="M155.095 43.4514V25.7517L155.298 25.8868V43.3163L155.095 43.4514Z" fill="#333333"/>
<path d="M154.69 43.5864V25.6841L154.892 25.7516V43.4513L154.69 43.5864Z" fill="#333333"/>
<path d="M154.284 43.7893V25.4141L154.487 25.5492V43.7217L154.284 43.7893Z" fill="#333333"/>
<path d="M154.757 35.8175C154.981 35.8175 155.163 35.2731 155.163 34.6015C155.163 33.9299 154.981 33.3855 154.757 33.3855C154.533 33.3855 154.352 33.9299 154.352 34.6015C154.352 35.2731 154.533 35.8175 154.757 35.8175Z" fill="#CCCCCC"/>
<path d="M91.1871 16.6317C92.0653 22.4415 94.092 39.1954 91.3898 51.8959C91.1196 53.1795 91.7951 54.3955 92.9436 54.9359L108.617 61.7591C109.833 62.2995 111.251 61.624 111.657 60.408C113.683 53.9226 118.277 34.534 111.454 8.93034C111.116 7.64677 109.697 6.97121 108.481 7.44411L92.876 13.7268C91.7276 14.1997 91.052 15.4157 91.1871 16.6317Z" fill="#FFBC00"/>
<path d="M91.1871 16.6317C92.0653 22.4415 94.092 39.1954 91.3898 51.8959C91.1196 53.1795 91.7951 54.3955 92.9436 54.9359L108.617 61.7591C109.833 62.2995 111.251 61.624 111.657 60.408C113.683 53.9226 118.277 34.534 111.454 8.93034C111.116 7.64677 109.697 6.97121 108.481 7.44411L92.876 13.7268C91.7276 14.1997 91.052 15.4157 91.1871 16.6317Z" fill="url(#paint10_linear_956_11266)"/>
<path d="M92.2681 16.2264C92.2681 15.5508 92.6734 15.0104 93.2814 14.7401L108.887 8.45745C109.225 8.32233 109.562 8.32233 109.833 8.525C110.103 8.66011 110.306 8.93034 110.373 9.20056C112.738 18.1179 113.954 27.0353 113.954 35.8852C113.954 47.5723 111.859 56.0168 110.643 60.0702C110.576 60.408 110.306 60.6106 110.035 60.7457C109.765 60.8809 109.427 60.8809 109.09 60.7457L93.4165 53.9226C92.8085 53.6524 92.4707 53.1119 92.4707 52.4364C92.4707 52.3013 92.4707 52.2337 92.5383 52.0986C93.4841 47.775 93.8894 42.6408 93.8894 36.7634C93.8894 28.2513 92.9436 20.3473 92.3356 16.429C92.2681 16.3615 92.2681 16.2939 92.2681 16.2264Z" fill="black"/>
<path d="M92.8086 16.2265C92.8086 15.8211 93.0788 15.4158 93.4841 15.2131L109.09 8.93042C109.292 8.86286 109.495 8.93042 109.562 8.93042C109.698 8.99797 109.833 9.06553 109.833 9.2682C112.197 18.118 113.413 27.0354 113.413 35.8177C113.413 47.4373 111.319 55.8142 110.103 59.8C110.035 60.0027 109.9 60.1378 109.765 60.1378C109.698 60.2054 109.495 60.2054 109.292 60.1378L93.6192 53.3147C93.2139 53.112 93.0112 52.7742 93.0112 52.3689C93.0112 52.3013 93.0112 52.2338 93.0112 52.1662C93.957 47.8426 94.4299 42.6408 94.4299 36.7635C94.4299 28.1839 93.4841 20.2798 92.8761 16.3616C92.8086 16.3616 92.8086 16.294 92.8086 16.2265Z" fill="#676B86"/>
<path opacity="0.2" d="M105.104 10.5518C106.657 16.902 107.603 25.3465 107.603 34.6017C107.603 43.7218 106.657 52.0987 105.171 58.4489L109.292 60.273C109.495 60.3405 109.698 60.3405 109.765 60.273C109.833 60.2054 110.035 60.1378 110.103 59.9352C111.319 55.9494 113.413 47.5049 113.413 35.9528C113.413 27.1705 112.197 18.2532 109.833 9.40334C109.765 9.20067 109.63 9.13311 109.562 9.06556C109.495 8.998 109.292 8.93044 109.09 9.06556L105.104 10.5518Z" fill="black"/>
<path d="M108.752 9.06548C110.441 15.8886 111.454 24.806 111.454 34.6016C111.454 44.3297 110.441 53.1795 108.752 60.0027L109.292 60.2053C109.495 60.2729 109.698 60.2729 109.765 60.2053C109.833 60.1378 110.035 60.0702 110.103 59.8675C111.319 55.8817 113.413 47.4373 113.413 35.8852C113.413 27.1029 112.197 18.1855 109.833 9.33571C109.765 9.13304 109.63 9.06548 109.563 8.99793C109.495 8.93037 109.292 8.86282 109.09 8.99793L108.752 9.06548Z" fill="#333333"/>
<path d="M109.022 17.3748L110.508 24.5357L110.171 24.5357L108.887 17.3748L109.022 17.3748Z" fill="black"/>
<path d="M111.995 34.4663L110.17 24.7383L110.643 25.2112L112.332 34.3988L111.995 34.4663Z" fill="black"/>
<path d="M108.819 17.8476L111.927 34.8717L112.13 34.8042L108.954 17.3748L108.819 17.8476Z" fill="#333333"/>
<path d="M112.062 34.3988C112.332 34.3313 112.603 34.5339 112.67 34.8042C112.738 35.0744 112.535 35.3446 112.265 35.4122C111.995 35.4797 111.724 35.2771 111.657 35.0068C111.589 34.7366 111.792 34.4664 112.062 34.3988Z" fill="black"/>
<path d="M111.927 34.399C112.13 34.3314 112.332 34.5341 112.4 34.7368C112.467 34.9394 112.265 35.1421 112.062 35.2097C111.859 35.2772 111.657 35.0746 111.589 34.8719C111.589 34.6692 111.724 34.4665 111.927 34.399Z" fill="#333333"/>
<path d="M109.833 33.1829L110.576 40.4113L110.238 40.4789L109.63 33.1829L109.833 33.1829Z" fill="black"/>
<path d="M111.049 50.4772L110.238 40.614L110.643 41.1545L111.387 50.4772L111.049 50.4772Z" fill="black"/>
<path d="M109.562 33.5882L110.981 50.8825L111.184 50.8825L109.765 33.1829L109.562 33.5882Z" fill="#333333"/>
<path d="M111.116 50.4097C111.387 50.4097 111.657 50.6123 111.657 50.8826C111.657 51.1528 111.454 51.423 111.184 51.423C110.914 51.423 110.644 51.2203 110.644 50.9501C110.644 50.6799 110.846 50.4772 111.116 50.4097Z" fill="black"/>
<path d="M111.049 50.4773C111.252 50.4773 111.454 50.6124 111.522 50.8826C111.522 51.0853 111.387 51.288 111.116 51.3555C110.914 51.3555 110.711 51.2204 110.644 50.9502C110.644 50.68 110.779 50.4773 111.049 50.4773Z" fill="#333333"/>
<path opacity="0.5" d="M92.8086 16.2265C92.8086 15.8211 93.0788 15.4158 93.4841 15.2131L109.09 8.93042C109.292 8.86286 109.495 8.93042 109.562 8.93042C109.698 8.99797 109.833 9.06553 109.833 9.2682C112.197 18.118 113.413 27.0354 113.413 35.8177C113.413 47.4373 111.319 55.8142 110.103 59.8C110.035 60.0027 109.9 60.1378 109.765 60.1378C109.698 60.2054 109.495 60.2054 109.292 60.1378L93.6192 53.3147C93.2139 53.112 93.0112 52.7742 93.0112 52.3689C93.0112 52.3013 93.0112 52.2338 93.0112 52.1662C93.957 47.8426 94.4299 42.6408 94.4299 36.7635C94.4299 28.1839 93.4841 20.2798 92.8761 16.3616C92.8086 16.3616 92.8086 16.294 92.8086 16.2265Z" fill="url(#paint11_radial_956_11266)"/>
<path opacity="0.3" d="M92.8086 16.2265C92.8086 15.8211 93.0788 15.4158 93.4841 15.2131L109.09 8.93042C109.292 8.86286 109.495 8.93042 109.562 8.93042C109.698 8.99797 109.833 9.06553 109.833 9.2682C112.197 18.118 113.413 27.0354 113.413 35.8177C113.413 47.4373 111.319 55.8142 110.103 59.8C110.035 60.0027 109.9 60.1378 109.765 60.1378C109.698 60.2054 109.495 60.2054 109.292 60.1378L93.6192 53.3147C93.2139 53.112 93.0112 52.7742 93.0112 52.3689C93.0112 52.3013 93.0112 52.2338 93.0112 52.1662C93.957 47.8426 94.4299 42.6408 94.4299 36.7635C94.4299 28.1839 93.4841 20.2798 92.8761 16.3616C92.8086 16.3616 92.8086 16.294 92.8086 16.2265Z" fill="url(#paint12_radial_956_11266)"/>
<path d="M52.6803 16.6317C51.8021 22.4415 49.7754 39.1954 52.4777 51.8959C52.7479 53.1795 52.0723 54.3955 50.9239 54.9359L35.2509 61.7591C34.0349 62.2995 32.6162 61.624 32.2109 60.408C30.1842 53.9226 25.5904 34.534 32.4136 8.93034C32.7513 7.64677 34.17 6.97121 35.386 7.44411L50.9914 13.7268C52.1399 14.1997 52.883 15.4157 52.6803 16.6317Z" fill="#FFBC00"/>
<path d="M52.6803 16.6317C51.8021 22.4415 49.7754 39.1954 52.4777 51.8959C52.7479 53.1795 52.0723 54.3955 50.9239 54.9359L35.2509 61.7591C34.0349 62.2995 32.6162 61.624 32.2109 60.408C30.1842 53.9226 25.5904 34.534 32.4136 8.93034C32.7513 7.64677 34.17 6.97121 35.386 7.44411L50.9914 13.7268C52.1399 14.1997 52.883 15.4157 52.6803 16.6317Z" fill="url(#paint13_linear_956_11266)"/>
<path d="M51.5994 16.2264C51.5994 15.5508 51.194 15.0104 50.586 14.7401L34.9806 8.45745C34.6428 8.32233 34.3051 8.32233 34.0348 8.525C33.7646 8.66011 33.5619 8.93034 33.4944 9.20056C31.1299 18.1179 29.9139 27.0353 29.9139 35.8852C29.9139 47.5723 32.0082 56.0168 33.2242 60.0702C33.2917 60.408 33.5619 60.6106 33.8322 60.7457C34.1024 60.8809 34.4402 60.8809 34.778 60.7457L50.4509 53.9226C51.0589 53.6524 51.3967 53.1119 51.3967 52.4364C51.3967 52.3013 51.3967 52.2337 51.3292 52.0986C50.3834 47.775 49.978 42.6408 49.978 36.7634C49.978 28.2513 50.9238 20.3473 51.5318 16.429C51.5994 16.3615 51.5994 16.2939 51.5994 16.2264Z" fill="black"/>
<path d="M51.059 16.2265C51.059 15.8211 50.7887 15.4158 50.3834 15.2131L34.778 8.93042C34.5753 8.86286 34.3727 8.93042 34.3051 8.93042C34.17 8.99797 34.0349 9.06553 34.0349 9.2682C31.6704 18.118 30.4544 27.0354 30.4544 35.8177C30.4544 47.4373 32.5486 55.8142 33.7646 59.8C33.8322 60.0027 33.9673 60.1378 34.1024 60.1378C34.17 60.2054 34.3727 60.2054 34.5753 60.1378L50.2483 53.3147C50.6536 53.112 50.8563 52.7742 50.8563 52.3689C50.8563 52.3013 50.8563 52.2338 50.8563 52.1662C49.9105 47.8426 49.4376 42.6408 49.4376 36.7635C49.4376 28.1839 50.3834 20.2798 50.9914 16.3616C51.059 16.3616 51.059 16.294 51.059 16.2265Z" fill="#676B86"/>
<path opacity="0.4" d="M34.8454 8.9978C34.6428 8.93024 34.4401 8.9978 34.3726 8.9978C34.2374 9.06535 34.1023 9.13291 34.1023 9.33558C31.7379 18.1854 30.5219 27.1028 30.5219 35.8851C30.5219 47.5047 32.6161 55.8816 33.8321 59.8674C33.8997 60.0701 34.0348 60.2052 34.1699 60.2052C34.2374 60.2728 34.4401 60.2728 34.6428 60.2052L39.169 58.2461L39.169 10.6867L34.8454 8.9978Z" fill="black"/>
<path d="M35.1158 9.06548C33.4269 15.8886 32.4135 24.806 32.4135 34.6016C32.4135 44.3297 33.4269 53.1795 35.1158 60.0027L34.5753 60.2053C34.3727 60.2729 34.17 60.2729 34.1024 60.2053C34.0349 60.1378 33.8322 60.0702 33.7646 59.8675C32.5486 55.8817 30.4544 47.4373 30.4544 35.8852C30.4544 27.1029 31.6704 18.1855 34.0349 9.33571C34.1024 9.13304 34.2375 9.06548 34.3051 8.99793C34.3727 8.93037 34.5753 8.86282 34.778 8.99793L35.1158 9.06548Z" fill="black"/>
<path opacity="0.5" d="M51.059 16.2265C51.059 15.8211 50.7887 15.4158 50.3834 15.2131L34.778 8.93042C34.5753 8.86286 34.3727 8.93042 34.3051 8.93042C34.17 8.99797 34.0349 9.06553 34.0349 9.2682C31.6704 18.118 30.4544 27.0354 30.4544 35.8177C30.4544 47.4373 32.5486 55.8142 33.7646 59.8C33.8322 60.0027 33.9673 60.1378 34.1024 60.1378C34.17 60.2054 34.3727 60.2054 34.5753 60.1378L50.2483 53.3147C50.6536 53.112 50.8563 52.7742 50.8563 52.3689C50.8563 52.3013 50.8563 52.2338 50.8563 52.1662C49.9105 47.8426 49.4376 42.6408 49.4376 36.7635C49.4376 28.1839 50.3834 20.2798 50.9914 16.3616C51.059 16.3616 51.059 16.294 51.059 16.2265Z" fill="url(#paint14_radial_956_11266)"/>
<path opacity="0.3" d="M51.059 16.2265C51.059 15.8211 50.7887 15.4158 50.3834 15.2131L34.778 8.93042C34.5753 8.86286 34.3727 8.93042 34.3051 8.93042C34.17 8.99797 34.0349 9.06553 34.0349 9.2682C31.6704 18.118 30.4544 27.0354 30.4544 35.8177C30.4544 47.4373 32.5486 55.8142 33.7646 59.8C33.8322 60.0027 33.9673 60.1378 34.1024 60.1378C34.17 60.2054 34.3727 60.2054 34.5753 60.1378L50.2483 53.3147C50.6536 53.112 50.8563 52.7742 50.8563 52.3689C50.8563 52.3013 50.8563 52.2338 50.8563 52.1662C49.9105 47.8426 49.4376 42.6408 49.4376 36.7635C49.4376 28.1839 50.3834 20.2798 50.9914 16.3616C51.059 16.3616 51.059 16.294 51.059 16.2265Z" fill="url(#paint15_radial_956_11266)"/>
<path d="M76.7978 61.2187C76.7978 61.1511 76.7978 61.0836 76.7978 61.016L77.8111 53.9226C77.8787 53.2471 78.4867 52.7742 79.1622 52.7742L87.4716 52.7742C87.6743 52.7742 87.8094 52.8417 88.0121 52.9093L107.468 61.1511C107.738 61.2862 107.941 61.5564 107.941 61.8267C107.941 62.232 107.603 62.5698 107.198 62.5698L78.1489 62.5698C77.8111 62.5698 77.4733 62.4347 77.2031 62.1644C76.9329 61.9618 76.7978 61.624 76.7978 61.2187Z" fill="#FFBC00"/>
<path d="M76.7978 61.2187C76.7978 61.1511 76.7978 61.0836 76.7978 61.016L77.8111 53.9226C77.8787 53.2471 78.4867 52.7742 79.1622 52.7742L87.4716 52.7742C87.6743 52.7742 87.8094 52.8417 88.0121 52.9093L107.468 61.1511C107.738 61.2862 107.941 61.5564 107.941 61.8267C107.941 62.232 107.603 62.5698 107.198 62.5698L78.1489 62.5698C77.8111 62.5698 77.4733 62.4347 77.2031 62.1644C76.9329 61.9618 76.7978 61.624 76.7978 61.2187Z" fill="url(#paint16_linear_956_11266)"/>
<path d="M107.265 61.6241L87.8093 53.3823C87.6742 53.3147 87.6066 53.3147 87.4715 53.3147L79.1621 53.3147C78.7568 53.3147 78.419 53.6525 78.3514 54.0578L77.3381 61.1512C77.2705 61.6916 77.6759 62.097 78.1488 62.097L107.198 62.097C107.468 62.097 107.536 61.6916 107.265 61.6241Z" fill="black"/>
<path d="M77.811 61.2188L78.8243 54.1254C78.8243 53.9903 78.9594 53.8552 79.1621 53.8552L87.4715 53.8552C87.539 53.8552 87.539 53.8552 87.6066 53.8552L105.914 61.6242L78.0812 61.6242C78.0137 61.6242 77.8785 61.5566 77.811 61.5566C77.811 61.4215 77.811 61.3539 77.811 61.2188Z" fill="#676B86"/>
<path opacity="0.2" d="M78.0811 59.1244L77.7434 61.2187L77.7434 61.2862C77.7434 61.3538 77.8109 61.4889 77.8109 61.4889C77.8785 61.5565 77.946 61.5565 78.0811 61.5565L105.914 61.5565L100.037 59.0569L78.0811 59.0569L78.0811 59.1244Z" fill="black"/>
<path opacity="0.5" d="M77.811 61.2188L78.8243 54.1254C78.8243 53.9903 78.9594 53.8552 79.1621 53.8552L87.4715 53.8552C87.539 53.8552 87.539 53.8552 87.6066 53.8552L105.914 61.6242L78.0812 61.6242C78.0137 61.6242 77.8785 61.5566 77.811 61.5566C77.811 61.4215 77.811 61.3539 77.811 61.2188Z" fill="url(#paint17_linear_956_11266)"/>
<path opacity="0.3" d="M77.811 61.2188L78.8243 54.1254C78.8243 53.9903 78.9594 53.8552 79.1621 53.8552L87.4715 53.8552C87.539 53.8552 87.539 53.8552 87.6066 53.8552L105.914 61.6242L78.0812 61.6242C78.0137 61.6242 77.8785 61.5566 77.811 61.5566C77.811 61.4215 77.811 61.3539 77.811 61.2188Z" fill="url(#paint18_linear_956_11266)"/>
<path d="M57.747 61.5565C57.747 61.489 57.747 61.3538 57.8146 61.2863L59.8412 53.6525C59.9764 53.1796 60.3817 52.8418 60.8546 52.8418L76.5951 52.8418C77.2031 52.8418 77.676 53.3147 77.676 53.9227L77.676 54.0578L76.46 61.6916C76.3925 62.2321 75.9196 62.5699 75.3791 62.5699L58.7604 62.5699C58.2199 62.5699 57.747 62.097 57.747 61.5565Z" fill="#FFBC00"/>
<path d="M57.747 61.5565C57.747 61.489 57.747 61.3538 57.8146 61.2863L59.8412 53.6525C59.9764 53.1796 60.3817 52.8418 60.8546 52.8418L76.5951 52.8418C77.2031 52.8418 77.676 53.3147 77.676 53.9227L77.676 54.0578L76.46 61.6916C76.3925 62.2321 75.9196 62.5699 75.3791 62.5699L58.7604 62.5699C58.2199 62.5699 57.747 62.097 57.747 61.5565Z" fill="url(#paint19_linear_956_11266)"/>
<path d="M77.0679 53.9227L75.8519 61.5565C75.7844 61.8267 75.5817 62.0294 75.3115 62.0294L58.7603 62.0294C58.4225 62.0294 58.1523 61.6916 58.2198 61.3539L60.2465 53.72C60.3141 53.4498 60.5167 53.3147 60.787 53.3147L76.5275 53.3147C76.8653 53.3147 77.1355 53.5849 77.0679 53.9227Z" fill="black"/>
<path d="M60.7869 53.8552L76.595 53.7876L75.4465 61.489L58.8278 61.5565L58.7602 61.489C58.6927 61.489 60.7869 53.8552 60.7869 53.8552Z" fill="#676B86"/>
<path opacity="0.2" d="M75.7843 59.1245L59.3682 59.1245C59.0304 60.4756 58.6927 61.5565 58.6927 61.5565L58.7602 61.6241L75.379 61.5565L75.7843 59.1245Z" fill="black"/>
<path opacity="0.5" d="M60.7869 53.8552L76.595 53.7876L75.4465 61.489L58.8278 61.5565L58.7602 61.489C58.6927 61.489 60.7869 53.8552 60.7869 53.8552Z" fill="url(#paint20_linear_956_11266)"/>
<path opacity="0.3" d="M60.7869 53.8552L76.595 53.7876L75.4465 61.489L58.8278 61.5565L58.7602 61.489C58.6927 61.489 60.7869 53.8552 60.7869 53.8552Z" fill="url(#paint21_linear_956_11266)"/>
<path d="M38.7637 61.624C38.7637 61.2187 38.9664 60.9484 39.3041 60.7458L56.5985 52.8417C56.7336 52.7742 56.8687 52.7742 57.0038 52.7742L58.5576 52.7742C59.098 52.7742 59.5034 53.1795 59.5034 53.72C59.5034 53.7875 59.5034 53.9226 59.4358 53.9902L57.0714 61.8942C56.9362 62.2996 56.5985 62.5698 56.1931 62.5698L39.7095 62.5698C39.169 62.5698 38.7637 62.1644 38.7637 61.624Z" fill="#FFBC00"/>
<path d="M38.7637 61.624C38.7637 61.2187 38.9664 60.9484 39.3041 60.7458L56.5985 52.8417C56.7336 52.7742 56.8687 52.7742 57.0038 52.7742L58.5576 52.7742C59.098 52.7742 59.5034 53.1795 59.5034 53.72C59.5034 53.7875 59.5034 53.9226 59.4358 53.9902L57.0714 61.8942C56.9362 62.2996 56.5985 62.5698 56.1931 62.5698L39.7095 62.5698C39.169 62.5698 38.7637 62.1644 38.7637 61.624Z" fill="url(#paint22_linear_956_11266)"/>
<path d="M58.9629 53.8551L56.5984 61.7591C56.5309 61.9618 56.3958 62.0969 56.1931 62.0969L39.7094 62.0969C39.2366 62.0969 39.1014 61.4213 39.5068 61.2187L56.8011 53.3146C56.8687 53.3146 56.9362 53.2471 57.0038 53.2471L58.5575 53.2471C58.8278 53.3146 59.098 53.5848 58.9629 53.8551Z" fill="black"/>
<path d="M57.0039 53.7876L58.5576 53.7876L56.1256 61.6241L39.9798 61.5565L57.0039 53.7876Z" fill="#676B86"/>
<path opacity="0.2" d="M45.3842 59.1243L39.9798 61.5563L56.1256 61.6238L56.9363 59.1243L45.3842 59.1243Z" fill="black"/>
<path opacity="0.5" d="M57.0039 53.7876L58.5576 53.7876L56.1256 61.6241L39.9798 61.5565L57.0039 53.7876Z" fill="url(#paint23_linear_956_11266)"/>
<path opacity="0.3" d="M57.0039 53.7876L58.5576 53.7876L56.1256 61.6241L39.9798 61.5565L57.0039 53.7876Z" fill="url(#paint24_linear_956_11266)"/>
<path d="M76.7978 7.84941C76.7978 7.91697 76.7978 7.98452 76.7978 8.05208L77.8111 15.1455C77.8787 15.821 78.4867 16.2939 79.1622 16.2939L87.4716 16.2939C87.6743 16.2939 87.8094 16.2263 88.0121 16.1588L107.468 7.91697C107.738 7.78185 107.941 7.51163 107.941 7.24141C107.941 6.83607 107.603 6.49829 107.198 6.49829L78.1489 6.49829C77.8111 6.49829 77.4733 6.6334 77.2031 6.90363C76.9329 7.17385 76.7978 7.51163 76.7978 7.84941Z" fill="#FFBC00"/>
<path d="M76.7978 7.84941C76.7978 7.91697 76.7978 7.98452 76.7978 8.05208L77.8111 15.1455C77.8787 15.821 78.4867 16.2939 79.1622 16.2939L87.4716 16.2939C87.6743 16.2939 87.8094 16.2263 88.0121 16.1588L107.468 7.91697C107.738 7.78185 107.941 7.51163 107.941 7.24141C107.941 6.83607 107.603 6.49829 107.198 6.49829L78.1489 6.49829C77.8111 6.49829 77.4733 6.6334 77.2031 6.90363C76.9329 7.17385 76.7978 7.51163 76.7978 7.84941Z" fill="url(#paint25_linear_956_11266)"/>
<path d="M107.265 7.51171L87.8093 15.7535C87.6741 15.8211 87.6066 15.8211 87.4715 15.8211L79.1621 15.8211C78.7568 15.8211 78.419 15.4833 78.3514 15.078L77.3381 7.9846C77.2705 7.44415 77.6759 7.03882 78.1488 7.03882L107.198 7.03882C107.468 7.03882 107.536 7.3766 107.265 7.51171Z" fill="black"/>
<path d="M77.811 7.91705L78.8243 15.0104C78.8243 15.1455 78.9594 15.2807 79.1621 15.2807L87.4715 15.2807C87.539 15.2807 87.539 15.2807 87.6066 15.2807L105.914 7.51172L78.0812 7.51172C78.0137 7.51172 77.8785 7.57927 77.811 7.57927C77.811 7.64683 77.811 7.78194 77.811 7.91705Z" fill="#676B86"/>
<path opacity="0.2" d="M78.0811 10.0114L77.7434 7.91713L77.7434 7.84957C77.7434 7.78201 77.8109 7.6469 77.8109 7.6469C77.8785 7.57935 77.946 7.57935 78.0811 7.57935L105.914 7.57935L100.037 10.0789L78.0811 10.0789L78.0811 10.0114Z" fill="black"/>
<path opacity="0.5" d="M77.811 7.91705L78.8243 15.0104C78.8243 15.1455 78.9594 15.2807 79.1621 15.2807L87.4715 15.2807C87.539 15.2807 87.539 15.2807 87.6066 15.2807L105.914 7.51172L78.0812 7.51172C78.0137 7.51172 77.8785 7.57927 77.811 7.57927C77.811 7.64683 77.811 7.78194 77.811 7.91705Z" fill="url(#paint26_linear_956_11266)"/>
<path opacity="0.3" d="M77.811 7.91705L78.8243 15.0104C78.8243 15.1455 78.9594 15.2807 79.1621 15.2807L87.4715 15.2807C87.539 15.2807 87.539 15.2807 87.6066 15.2807L105.914 7.51172L78.0812 7.51172C78.0137 7.51172 77.8785 7.57927 77.811 7.57927C77.811 7.64683 77.811 7.78194 77.811 7.91705Z" fill="url(#paint27_linear_956_11266)"/>
<path d="M57.747 7.57935C57.747 7.6469 57.747 7.78201 57.8146 7.84957L59.8412 15.4834C59.9764 15.9563 60.3817 16.2941 60.8546 16.2941L76.5951 16.2941C77.2031 16.2941 77.676 15.8212 77.676 15.2132L77.676 15.0781L76.46 7.44423C76.3925 6.90379 75.9196 6.56601 75.3791 6.56601L58.7604 6.56601C58.2199 6.49845 57.747 6.97134 57.747 7.57935Z" fill="#FFBC00"/>
<path d="M57.747 7.57935C57.747 7.6469 57.747 7.78201 57.8146 7.84957L59.8412 15.4834C59.9764 15.9563 60.3817 16.2941 60.8546 16.2941L76.5951 16.2941C77.2031 16.2941 77.676 15.8212 77.676 15.2132L77.676 15.0781L76.46 7.44423C76.3925 6.90379 75.9196 6.56601 75.3791 6.56601L58.7604 6.56601C58.2199 6.49845 57.747 6.97134 57.747 7.57935Z" fill="url(#paint28_linear_956_11266)"/>
<path d="M77.0679 15.1455L75.8519 7.51171C75.7844 7.24149 75.5817 7.03882 75.3115 7.03882L58.7603 7.03882C58.4225 7.03882 58.1523 7.3766 58.2198 7.71438L60.2465 15.3482C60.3141 15.6184 60.5167 15.7535 60.787 15.7535L76.5275 15.7535C76.8653 15.8211 77.1355 15.4833 77.0679 15.1455Z" fill="black"/>
<path d="M60.7869 15.2131L76.595 15.2807L75.4465 7.57927L58.8278 7.51172L58.7602 7.57927C58.6927 7.57927 60.7869 15.2131 60.7869 15.2131Z" fill="#676B86"/>
<path opacity="0.2" d="M75.7843 10.0113L59.3682 10.0113C59.0304 8.66017 58.6926 7.57927 58.6926 7.57927L58.7602 7.51172L75.379 7.57927L75.7843 10.0113Z" fill="black"/>
<path opacity="0.5" d="M60.7869 15.2131L76.595 15.2807L75.4465 7.57927L58.8278 7.51172L58.7602 7.57927C58.6927 7.57927 60.7869 15.2131 60.7869 15.2131Z" fill="url(#paint29_linear_956_11266)"/>
<path opacity="0.3" d="M60.7869 15.2131L76.595 15.2807L75.4465 7.57927L58.8278 7.51172L58.7602 7.57927C58.6927 7.57927 60.7869 15.2131 60.7869 15.2131Z" fill="url(#paint30_linear_956_11266)"/>
<path d="M38.7637 7.44407C38.7637 7.84941 38.9664 8.11963 39.3041 8.3223L56.5985 16.2263C56.7336 16.2939 56.8687 16.2939 57.0038 16.2939L58.5576 16.2939C59.098 16.2939 59.5034 15.8886 59.5034 15.3481C59.5034 15.2806 59.5034 15.1455 59.4358 15.0779L57.0714 7.17385C56.9362 6.76851 56.5985 6.49829 56.1931 6.49829L39.7095 6.49829C39.169 6.49829 38.7637 6.90363 38.7637 7.44407Z" fill="#FFBC00"/>
<path d="M38.7637 7.44407C38.7637 7.84941 38.9664 8.11963 39.3041 8.3223L56.5985 16.2263C56.7336 16.2939 56.8687 16.2939 57.0038 16.2939L58.5576 16.2939C59.098 16.2939 59.5034 15.8886 59.5034 15.3481C59.5034 15.2806 59.5034 15.1455 59.4358 15.0779L57.0714 7.17385C56.9362 6.76851 56.5985 6.49829 56.1931 6.49829L39.7095 6.49829C39.169 6.49829 38.7637 6.90363 38.7637 7.44407Z" fill="url(#paint31_linear_956_11266)"/>
<path d="M58.9629 15.213L56.5984 7.30897C56.5309 7.1063 56.3958 6.97119 56.1931 6.97119L39.7094 6.97119C39.2366 6.97119 39.1014 7.64675 39.5068 7.84942L56.8011 15.7535C56.8687 15.7535 56.9362 15.821 57.0038 15.821L58.5575 15.821C58.8278 15.821 59.098 15.4832 58.9629 15.213Z" fill="black"/>
<path d="M57.0039 15.2806L58.5576 15.2806L56.1256 7.44409L39.9798 7.51165L57.0039 15.2806Z" fill="#676B86"/>
<path opacity="0.2" d="M45.3842 10.0112L39.9798 7.51165L56.1256 7.44409L56.9363 10.0112L45.3842 10.0112Z" fill="black"/>
<path opacity="0.5" d="M57.0039 15.2806L58.5576 15.2806L56.1256 7.44409L39.9798 7.51165L57.0039 15.2806Z" fill="url(#paint32_linear_956_11266)"/>
<path opacity="0.3" d="M57.0039 15.2806L58.5576 15.2806L56.1256 7.44409L39.9798 7.51165L57.0039 15.2806Z" fill="url(#paint33_linear_956_11266)"/>
<path d="M113.616 56.9626C113.616 56.6924 113.818 56.4897 114.089 56.4897L116.318 56.4897C116.588 56.4897 116.791 56.6924 116.791 56.9626C116.791 57.2329 116.588 57.4355 116.318 57.4355L114.089 57.4355C113.818 57.4355 113.616 57.2329 113.616 56.9626Z" fill="#FFBC00"/>
<path d="M116.656 56.8952C116.588 56.7601 116.453 56.625 116.25 56.625L114.156 56.625C113.953 56.625 113.818 56.7601 113.751 56.8952C113.818 57.0303 113.953 57.1654 114.156 57.1654L116.25 57.1654C116.453 57.1654 116.588 57.0303 116.656 56.8952Z" fill="url(#paint34_linear_956_11266)"/>
<path d="M114.021 55.1387C114.021 54.8684 114.224 54.6658 114.494 54.6658L116.723 54.6658C116.994 54.6658 117.196 54.8684 117.196 55.1387C117.196 55.4089 116.994 55.6116 116.723 55.6116L114.494 55.6116C114.224 55.6116 114.021 55.4089 114.021 55.1387Z" fill="#FFBC00"/>
<path d="M117.061 55.0713C116.993 54.9361 116.858 54.801 116.656 54.801L114.561 54.801C114.359 54.801 114.224 54.9361 114.156 55.0713C114.224 55.2064 114.359 55.3415 114.561 55.3415L116.656 55.3415C116.858 55.3415 116.993 55.2064 117.061 55.0713Z" fill="url(#paint35_linear_956_11266)"/>
<path d="M114.494 53.3147C114.494 53.0445 114.697 52.8418 114.967 52.8418L117.196 52.8418C117.466 52.8418 117.669 53.0445 117.669 53.3147C117.669 53.5849 117.466 53.7876 117.196 53.7876L114.967 53.7876C114.764 53.7876 114.494 53.5849 114.494 53.3147Z" fill="#FFBC00"/>
<path d="M117.602 53.2473C117.534 53.1122 117.399 52.9771 117.196 52.9771L115.102 52.9771C114.899 52.9771 114.764 53.1122 114.697 53.2473C114.764 53.3824 114.899 53.5175 115.102 53.5175L117.196 53.5175C117.331 53.5175 117.534 53.3824 117.602 53.2473Z" fill="url(#paint36_linear_956_11266)"/>
<path d="M117.737 16.4289C117.737 16.1587 117.534 15.9561 117.264 15.9561L115.034 15.9561C114.764 15.9561 114.561 16.1587 114.561 16.4289C114.561 16.6992 114.764 16.9018 115.034 16.9018L117.264 16.9018C117.534 16.9018 117.737 16.6992 117.737 16.4289Z" fill="#FFBC00"/>
<path d="M114.696 16.3613C114.764 16.2262 114.899 16.0911 115.102 16.0911L117.196 16.0911C117.399 16.0911 117.534 16.2262 117.601 16.3613C117.534 16.4964 117.399 16.6315 117.196 16.6315L115.102 16.6315C114.899 16.6315 114.764 16.4964 114.696 16.3613Z" fill="url(#paint37_linear_956_11266)"/>
<path d="M117.331 14.605C117.331 14.3347 117.129 14.1321 116.858 14.1321L114.629 14.1321C114.359 14.1321 114.156 14.3347 114.156 14.605C114.156 14.8752 114.359 15.0779 114.629 15.0779L116.858 15.0779C117.061 15.0779 117.331 14.8752 117.331 14.605Z" fill="#FFBC00"/>
<path d="M114.224 14.5373C114.291 14.4022 114.426 14.2671 114.629 14.2671L116.723 14.2671C116.926 14.2671 117.061 14.4022 117.129 14.5373C117.061 14.6724 116.926 14.8075 116.723 14.8075L114.629 14.8075C114.494 14.8075 114.291 14.6724 114.224 14.5373Z" fill="url(#paint38_linear_956_11266)"/>
<path d="M116.791 12.781C116.791 12.5108 116.588 12.3081 116.318 12.3081L114.089 12.3081C113.818 12.3081 113.616 12.5108 113.616 12.781C113.616 13.0512 113.818 13.2539 114.089 13.2539L116.318 13.2539C116.588 13.2539 116.791 13.0512 116.791 12.781Z" fill="#FFBC00"/>
<path d="M113.751 12.7133C113.818 12.5782 113.953 12.4431 114.156 12.4431L116.25 12.4431C116.453 12.4431 116.588 12.5782 116.656 12.7133C116.588 12.8485 116.453 12.9836 116.25 12.9836L114.156 12.9836C113.953 12.9836 113.818 12.8485 113.751 12.7133Z" fill="url(#paint39_linear_956_11266)"/>
<path d="M4.51289 10.214L5.7289 10.214C6.8098 8.38994 8.83647 7.17393 11.1334 7.17393L9.98493 7.17393C7.68802 7.10638 5.66134 8.38994 4.51289 10.214Z" fill="#FF6600"/>
<path d="M11.1334 7.10645L10.7956 7.10645C8.49873 7.10645 6.47205 8.32245 5.39116 10.1465L5.72894 10.1465C6.80983 8.39001 8.83651 7.10645 11.1334 7.10645Z" fill="url(#paint40_radial_956_11266)"/>
<path d="M4.51297 10.2141C3.90496 11.1599 3.56718 12.3083 3.56718 13.4568L3.56718 17.4426L4.71564 17.7128L4.71564 13.4568C4.71564 12.2408 5.05342 11.1599 5.66142 10.2141L4.51297 10.2141Z" fill="#CC0000"/>
<path d="M4.51289 17.7126L4.78312 17.7802L4.78312 13.5242C4.78312 12.3082 5.1209 11.2273 5.7289 10.2815L5.45868 10.2815C4.85067 11.2273 4.51289 12.3757 4.51289 13.5242L4.51289 17.7126Z" fill="url(#paint41_radial_956_11266)"/>
<path opacity="0.3" d="M5.05337 10.8895C5.12093 10.7544 5.25604 10.5517 5.18849 10.4166C5.12093 10.2815 4.91826 10.2815 4.78315 10.3491C4.64804 10.4166 4.58048 10.5517 4.51293 10.7544C4.10759 11.7002 3.97248 12.7811 3.90492 13.862C3.90492 14.47 3.90492 15.078 3.90492 15.686C3.90492 16.0238 3.76981 16.8344 4.10759 17.1047C4.2427 17.1722 4.51293 17.1722 4.64804 17.2398C4.64804 16.2264 4.64804 15.2131 4.64804 14.1998C4.64804 13.3215 4.64804 12.4433 4.85071 11.6326C4.85071 11.3624 4.91826 11.0922 5.05337 10.8895Z" fill="#660000"/>
<path opacity="0.5" d="M8.76899 7.37671C8.09343 7.64693 7.48543 7.98471 6.87743 8.39005C6.26942 8.79538 5.79653 9.33583 5.52631 10.0114C5.32364 10.0789 5.12097 10.0114 4.9183 9.94383C5.79653 8.59272 7.21521 7.64693 8.76899 7.37671Z" fill="#FF3300"/>
<path d="M4.51289 59.5295L5.7289 59.5295C6.8098 61.3536 8.83647 62.5696 11.1334 62.5696L9.98493 62.5696C7.68802 62.5696 5.66134 61.3536 4.51289 59.5295Z" fill="#FF6600"/>
<path d="M11.1334 62.5696L10.7956 62.5696C8.49873 62.5696 6.47205 61.3536 5.39116 59.5295L5.72894 59.5295C6.80983 61.3536 8.83651 62.5696 11.1334 62.5696Z" fill="url(#paint42_radial_956_11266)"/>
<path d="M4.51297 59.5297C3.90496 58.5839 3.56718 57.4355 3.56718 56.287L3.56718 52.3012L4.71564 52.031L4.71564 56.287C4.71564 57.503 5.05342 58.5839 5.66142 59.5297L4.51297 59.5297Z" fill="#CC0000"/>
<path d="M4.51289 52.0309L4.78312 51.9634L4.78312 56.2194C4.78312 57.4354 5.1209 58.5163 5.7289 59.4621L5.45868 59.4621C4.85067 58.5163 4.51289 57.3679 4.51289 56.2194L4.51289 52.0309Z" fill="url(#paint43_radial_956_11266)"/>
<path opacity="0.3" d="M5.05337 58.7866C5.12093 58.9217 5.25604 59.1244 5.18849 59.2595C5.12093 59.4622 4.91826 59.4622 4.78315 59.3946C4.64804 59.3271 4.58048 59.1919 4.51293 58.9893C4.10759 58.0435 3.97248 56.9626 3.90492 55.8817C3.90492 55.2737 3.90492 54.6657 3.90492 54.0577C3.90492 53.7199 3.76981 52.9092 4.10759 52.639C4.2427 52.5715 4.51293 52.5715 4.64804 52.5039C4.64804 53.5172 4.64804 54.5306 4.64804 55.5439C4.64804 56.4222 4.64804 57.3004 4.85071 58.1111C4.85071 58.3813 4.91826 58.5839 5.05337 58.7866Z" fill="#660000"/>
<path opacity="0.5" d="M8.76899 62.367C8.09343 62.0968 7.48543 61.759 6.87743 61.3537C6.26942 60.9483 5.79653 60.4079 5.52631 59.7323C5.32364 59.6648 5.12097 59.7323 4.9183 59.7999C5.79653 61.151 7.21521 62.0968 8.76899 62.367Z" fill="#FF3300"/>
<path d="M4.17509 37.2362C3.97242 37.2362 3.83731 36.7633 3.83731 36.2228L3.83731 31.3588C3.83731 30.8184 3.97242 30.3455 4.17509 30.3455C4.37776 30.3455 4.51287 30.8184 4.51287 31.3588L4.51287 36.2228C4.51287 36.7633 4.37776 37.2362 4.17509 37.2362Z" fill="#FFBC00"/>
<path d="M4.10753 30.6833C3.97242 30.8185 3.90486 31.1562 3.90486 31.5616L3.90486 36.0878C3.90486 36.4932 3.97242 36.8309 4.10753 36.9661C4.24264 36.8309 4.3102 36.4932 4.3102 36.0878L4.3102 31.5616C4.3102 31.1562 4.24264 30.8185 4.10753 30.6833Z" fill="url(#paint44_linear_956_11266)"/>
<path d="M57.3417 38.5198L56.3959 28.7917L87.2689 28.7917L87.4041 36.966L57.3417 38.5198Z" fill="url(#paint45_linear_956_11266)"/>
<path d="M86.3639 37.0121L86.3639 32.2832L58.1931 32.2832L58.1931 37.0121L86.3639 37.0121Z" fill="#CCCCCC"/>
<path d="M85.7829 33.8584L58.8281 33.8584L58.8281 35.4122L85.7829 35.4122L85.7829 33.8584Z" fill="#DBDAD9"/>
<path d="M85.7828 35.4124L87.4041 36.9661L87.4041 38.5199L57.2066 38.5199L57.2066 36.9661L58.828 35.4124L85.7828 35.4124Z" fill="white"/>
<g opacity="0.3">
<path d="M85.7828 35.4124L87.4041 36.9661L87.4041 38.5199L57.2066 38.5199L57.2066 36.9661L58.828 35.4124L85.7828 35.4124Z" fill="url(#paint46_linear_956_11266)"/>
</g>
<path d="M85.7828 33.7909L87.4041 32.2371L87.4041 30.6833L57.2066 30.6833L57.2066 32.2371L58.828 33.7909L85.7828 33.7909Z" fill="#CCCCCC"/>
<g opacity="0.4">
<path d="M85.7828 33.7909L87.4041 32.2371L87.4041 30.6833L57.2066 30.6833L57.2066 32.2371L58.828 33.7909L85.7828 33.7909Z" fill="url(#paint47_linear_956_11266)"/>
</g>
<path opacity="0.5" d="M58.8302 34.9314L58.8302 35.2017L85.7851 35.2017L85.7851 34.9314L58.8302 34.9314Z" fill="white"/>
<path d="M141.688 64.1324L141.688 63.7271L137.702 63.7271L137.702 64.1324L141.688 64.1324Z" fill="black"/>
<path d="M137.697 64.1375L137.697 63.7322L133.711 63.7322L133.711 64.1375L137.697 64.1375Z" fill="#CCCCCC"/>
<path d="M133.706 64.075L133.706 63.6697L129.72 63.6697L129.72 64.075L133.706 64.075Z" fill="black"/>
<path d="M129.715 64.0801L129.715 63.6748L125.729 63.6748L125.729 64.0801L129.715 64.0801Z" fill="#CCCCCC"/>
<path d="M125.724 64.085L125.724 63.6797L121.738 63.6797L121.738 64.085L125.724 64.085Z" fill="black"/>
<path d="M121.733 64.0904L121.733 63.6851L117.748 63.6851L117.748 64.0904L121.733 64.0904Z" fill="#CCCCCC"/>
<path d="M117.743 64.0953L117.743 63.6899L113.757 63.6899L113.757 64.0953L117.743 64.0953Z" fill="black"/>
<path d="M113.752 64.1004L113.752 63.6951L109.766 63.6951L109.766 64.1004L113.752 64.1004Z" fill="#CCCCCC"/>
<path d="M109.761 64.1055L109.761 63.7002L105.775 63.7002L105.775 64.1055L109.761 64.1055Z" fill="black"/>
<path d="M105.77 64.1104L105.77 63.7051L101.784 63.7051L101.784 64.1104L105.77 64.1104Z" fill="#CCCCCC"/>
<path d="M101.779 64.1155L101.779 63.7102L97.7932 63.7102L97.7932 64.1155L101.779 64.1155Z" fill="black"/>
<path d="M97.7882 64.1207L97.7882 63.7153L93.8024 63.7153L93.8024 64.1207L97.7882 64.1207Z" fill="#CCCCCC"/>
<path d="M93.7973 64.1258L93.7973 63.7205L89.8115 63.7205L89.8115 64.1258L93.7973 64.1258Z" fill="black"/>
<path d="M89.8065 64.1307L89.8065 63.7253L85.8207 63.7253L85.8207 64.1307L89.8065 64.1307Z" fill="#CCCCCC"/>
<path d="M85.8155 64.1358L85.8155 63.7305L81.8297 63.7305L81.8297 64.1358L85.8155 64.1358Z" fill="black"/>
<path d="M81.8246 64.1409L81.8246 63.7356L77.8388 63.7356L77.8388 64.1409L81.8246 64.1409Z" fill="#CCCCCC"/>
<path d="M77.8338 64.0784L77.8338 63.6731L73.848 63.6731L73.848 64.0784L77.8338 64.0784Z" fill="black"/>
<path d="M73.8429 64.0836L73.8429 63.6782L69.8571 63.6782L69.8571 64.0836L73.8429 64.0836Z" fill="#CCCCCC"/>
<path d="M69.8521 64.0884L69.8521 63.6831L65.8663 63.6831L65.8663 64.0884L69.8521 64.0884Z" fill="black"/>
<path d="M65.8612 64.0936L65.8612 63.6882L61.8754 63.6882L61.8754 64.0936L65.8612 64.0936Z" fill="#CCCCCC"/>
<path d="M61.8704 64.0987L61.8704 63.6934L57.8846 63.6934L57.8846 64.0987L61.8704 64.0987Z" fill="black"/>
<path d="M57.8795 64.1038L57.8795 63.6985L53.8937 63.6985L53.8937 64.1038L57.8795 64.1038Z" fill="#CCCCCC"/>
<path d="M53.8885 64.1087L53.8885 63.7034L49.9027 63.7034L49.9027 64.1087L53.8885 64.1087Z" fill="black"/>
<path d="M49.8977 64.1138L49.8977 63.7085L45.9119 63.7085L45.9119 64.1138L49.8977 64.1138Z" fill="#CCCCCC"/>
<path d="M45.9068 64.119L45.9068 63.7136L41.921 63.7136L41.921 64.119L45.9068 64.119Z" fill="black"/>
<path d="M41.916 64.1241L41.916 63.7188L37.9302 63.7188L37.9302 64.1241L41.916 64.1241Z" fill="#CCCCCC"/>
<path d="M37.9251 64.1292L37.9251 63.7239L33.9393 63.7239L33.9393 64.1292L37.9251 64.1292Z" fill="black"/>
<path d="M33.9343 64.1343L33.9343 63.729L29.9485 63.729L29.9485 64.1343L33.9343 64.1343Z" fill="#CCCCCC"/>
<path d="M29.9433 64.1392L29.9433 63.7339L25.9575 63.7339L25.9575 64.1392L29.9433 64.1392Z" fill="black"/>
<path d="M25.9526 64.0767L25.9526 63.6714L21.9668 63.6714L21.9668 64.0767L25.9526 64.0767Z" fill="#CCCCCC"/>
<path d="M21.9617 64.0818L21.9617 63.6765L17.9759 63.6765L17.9759 64.0818L21.9617 64.0818Z" fill="black"/>
<path d="M17.9707 64.087L17.9707 63.6816L13.9849 63.6816L13.9849 64.087L17.9707 64.087Z" fill="#CCCCCC"/>
<path d="M141.677 5.5506L141.677 5.14526L137.691 5.14526L137.691 5.5506L141.677 5.5506Z" fill="black"/>
<path d="M137.686 5.55572L137.686 5.15039L133.7 5.15039L133.7 5.55572L137.686 5.55572Z" fill="#CCCCCC"/>
<path d="M133.695 5.49322L133.695 5.08789L129.71 5.08789L129.71 5.49322L133.695 5.49322Z" fill="black"/>
<path d="M129.705 5.49836L129.705 5.09302L125.719 5.09302L125.719 5.49836L129.705 5.49836Z" fill="#CCCCCC"/>
<path d="M125.713 5.50323L125.713 5.0979L121.728 5.0979L121.728 5.50323L125.713 5.50323Z" fill="black"/>
<path d="M121.723 5.50861L121.723 5.10327L117.737 5.10327L117.737 5.50861L121.723 5.50861Z" fill="#CCCCCC"/>
<path d="M117.732 5.51349L117.732 5.10815L113.746 5.10815L113.746 5.51349L117.732 5.51349Z" fill="black"/>
<path d="M113.741 5.51861L113.741 5.11328L109.755 5.11328L109.755 5.51861L113.741 5.51861Z" fill="#CCCCCC"/>
<path d="M109.75 5.52375L109.75 5.11841L105.764 5.11841L105.764 5.52375L109.75 5.52375Z" fill="black"/>
<path d="M105.759 5.52862L105.759 5.12329L101.773 5.12329L101.773 5.52862L105.759 5.52862Z" fill="#CCCCCC"/>
<path d="M101.768 5.53376L101.768 5.12842L97.7824 5.12842L97.7824 5.53376L101.768 5.53376Z" fill="black"/>
<path d="M97.7774 5.53888L97.7774 5.13354L93.7916 5.13354L93.7916 5.53888L97.7774 5.53888Z" fill="#CCCCCC"/>
<path d="M93.7866 5.544L93.7866 5.13867L89.8008 5.13867L89.8008 5.544L93.7866 5.544Z" fill="black"/>
<path d="M89.7957 5.54889L89.7957 5.14355L85.8099 5.14355L85.8099 5.54889L89.7957 5.54889Z" fill="#CCCCCC"/>
<path d="M85.8049 5.55402L85.8049 5.14868L81.8191 5.14868L81.8191 5.55402L85.8049 5.55402Z" fill="black"/>
<path d="M81.814 5.55914L81.814 5.15381L77.8282 5.15381L77.8282 5.55914L81.814 5.55914Z" fill="#CCCCCC"/>
<path d="M77.8232 5.49664L77.8232 5.09131L73.8374 5.09131L73.8374 5.49664L77.8232 5.49664Z" fill="black"/>
<path d="M73.8322 5.50177L73.8322 5.09644L69.8464 5.09644L69.8464 5.50177L73.8322 5.50177Z" fill="#CCCCCC"/>
<path d="M69.8413 5.50665L69.8413 5.10132L65.8555 5.10132L65.8555 5.50665L69.8413 5.50665Z" fill="black"/>
<path d="M65.8505 5.51179L65.8505 5.10645L61.8647 5.10645L61.8647 5.51179L65.8505 5.51179Z" fill="#CCCCCC"/>
<path d="M61.8596 5.51691L61.8596 5.11157L57.8738 5.11157L57.8738 5.51691L61.8596 5.51691Z" fill="black"/>
<path d="M57.8688 5.52203L57.8688 5.1167L53.883 5.1167L53.883 5.52203L57.8688 5.52203Z" fill="#CCCCCC"/>
<path d="M53.8778 5.52716L53.8778 5.12183L49.892 5.12183L49.892 5.52716L53.8778 5.52716Z" fill="black"/>
<path d="M49.8869 5.53204L49.8869 5.12671L45.9011 5.12671L45.9011 5.53204L49.8869 5.53204Z" fill="#CCCCCC"/>
<path d="M45.8961 5.53717L45.8961 5.13184L41.9103 5.13184L41.9103 5.53717L45.8961 5.53717Z" fill="black"/>
<path d="M41.9052 5.5423L41.9052 5.13696L37.9194 5.13696L37.9194 5.5423L41.9052 5.5423Z" fill="#CCCCCC"/>
<path d="M37.9144 5.54742L37.9144 5.14209L33.9286 5.14209L33.9286 5.54742L37.9144 5.54742Z" fill="black"/>
<path d="M33.9235 5.55255L33.9235 5.14722L29.9377 5.14722L29.9377 5.55255L33.9235 5.55255Z" fill="#CCCCCC"/>
<path d="M29.9327 5.55744L29.9327 5.1521L25.9469 5.1521L25.9469 5.55744L29.9327 5.55744Z" fill="black"/>
<path d="M25.9418 5.49494L25.9418 5.0896L21.956 5.0896L21.956 5.49494L25.9418 5.49494Z" fill="#CCCCCC"/>
<path d="M21.951 5.50006L21.951 5.09473L17.9652 5.09473L17.9652 5.50006L21.951 5.50006Z" fill="black"/>
<path d="M17.96 5.50519L17.96 5.09985L13.9742 5.09985L13.9742 5.50519L17.96 5.50519Z" fill="#CCCCCC"/>
<path opacity="0.5" d="M1 51.8285C1 58.5841 6.47203 64.1237 13.2952 64.1237H141.111C150.434 64.1237 158 56.5574 158 47.2347V34.6017C158 34.6017 156.649 36.2906 155.433 34.6017V43.5191L154.352 43.7893V36.1555C154.352 36.1555 136.585 37.8444 115.102 36.8311C115.102 36.8311 115.102 53.72 110.508 61.7592L109.833 60.273C109.833 60.273 114.156 46.7618 113.346 31.4941C113.346 31.4941 106.455 33.7235 94.2948 31.4941C94.2948 31.4941 95.1054 44.0595 93.0112 52.504L93.8894 36.4933C93.8894 36.4933 74.028 37.7093 51.1941 36.4933C51.1941 36.4933 51.667 51.2205 52.5452 53.0445L50.9914 52.4365C50.9914 52.4365 48.6269 40.952 49.6403 32.9804C49.6403 32.9804 40.1824 35.2097 30.0491 32.9804C30.0491 32.9804 29.3059 45.4782 32.4811 56.8952C32.4811 56.8952 28.5628 47.7751 28.9006 36.1555C28.9006 36.1555 22.0099 37.3715 4.58046 36.1555C4.58046 36.1555 4.71558 54.0578 5.5938 59.057C5.5938 59.057 2.14845 54.4632 3.70224 39.6684C3.70224 39.6684 2.35112 41.0195 1.06756 39.6684V51.8285H1Z" fill="url(#paint48_linear_956_11266)"/>
<path opacity="0.5" d="M93.8218 36.9658L93.8218 36.4929C93.8218 36.4929 73.9604 37.7089 51.1265 36.4929C51.1265 36.4929 51.1265 36.6956 51.1265 36.9658C73.6226 38.1818 93.2814 36.9658 93.8218 36.9658Z" fill="url(#paint49_linear_956_11266)"/>
<path opacity="0.5" d="M154.284 36.6282L154.284 36.1553C154.284 36.1553 136.517 37.8442 115.034 36.8308L115.034 37.3037C136.517 38.3171 154.284 36.6282 154.284 36.6282Z" fill="url(#paint50_linear_956_11266)"/>
<path opacity="0.5" d="M92.9437 52.9092C94.1597 48.0452 94.3624 41.83 94.3624 37.3713C94.3624 41.6949 94.0922 47.5723 92.9437 52.3012L92.9437 52.9092Z" fill="url(#paint51_linear_956_11266)"/>
<path opacity="0.5" d="M5.3911 58.9891C4.98577 58.3135 3.22931 55.0709 3.16176 47.2344C3.16176 56.4895 5.45866 59.5971 5.45866 59.5971C5.45866 59.3944 5.45866 59.1918 5.3911 58.9891Z" fill="url(#paint52_linear_956_11266)"/>
<path opacity="0.5" d="M154.284 44.2619L155.365 43.9917L155.365 43.5188L154.284 43.789L154.284 44.2619Z" fill="url(#paint53_linear_956_11266)"/>
<path opacity="0.5" d="M3.56713 40.2085C3.56713 40.0058 3.56713 39.8707 3.63468 39.7356C3.63468 39.7356 2.28356 41.0867 1 39.7356L1 40.2085C2.0809 41.3569 3.2969 40.4112 3.56713 40.2085Z" fill="url(#paint54_linear_956_11266)"/>
<path opacity="0.5" d="M29.914 36.628C29.914 34.6689 29.9815 33.4529 29.9815 33.4529C39.7771 35.6147 48.8972 33.588 49.5052 33.4529C49.5052 33.3178 49.5728 33.1151 49.5728 32.98C49.5728 32.98 40.1149 35.2093 29.9815 32.98C29.9815 33.0475 29.914 34.3987 29.914 36.628Z" fill="url(#paint55_linear_956_11266)"/>
<path opacity="0.5" d="M4.51288 36.6958C21.8072 37.9118 28.7655 36.6958 28.833 36.6958C28.833 36.5607 28.833 36.358 28.833 36.2229C28.833 36.2229 21.9423 37.4389 4.51288 36.2229C4.51288 36.2229 4.51288 36.4256 4.51288 36.6958Z" fill="url(#paint56_linear_956_11266)"/>
<path opacity="0.5" d="M155.365 34.6013L155.365 35.0742C156.581 36.7631 157.932 35.0742 157.932 35.0742L157.932 34.6013C157.932 34.6013 156.649 36.2902 155.365 34.6013Z" fill="url(#paint57_linear_956_11266)"/>
<path opacity="0.5" d="M94.2948 31.8992C106.455 34.1285 113.278 31.8992 113.278 31.8992C113.346 33.2503 113.346 34.5338 113.346 35.8174C113.346 34.3987 113.346 32.9125 113.278 31.4263C113.278 31.4263 106.387 33.6556 94.2272 31.4263C94.2948 31.4263 94.2948 31.6289 94.2948 31.8992Z" fill="url(#paint58_linear_956_11266)"/>
<path d="M104.834 7.51163L102.199 0.688477L103.482 0.688477C104.09 0.688477 104.631 1.02626 104.834 1.63426L107.13 7.51163L104.834 7.51163Z" fill="black"/>
<path opacity="0.4" d="M104.631 7.51163L101.996 0.688477L103.28 0.688477C103.888 0.688477 104.428 1.02626 104.631 1.63426L106.928 7.51163L104.631 7.51163Z" fill="url(#paint59_linear_956_11266)"/>
<path d="M103.009 5.5525L101.591 1.22892C101.523 0.9587 101.726 0.688477 101.996 0.688477L103.55 0.688477L105.239 5.82273L103.415 5.82273C103.212 5.82273 103.077 5.75517 103.009 5.5525Z" fill="#FFBC00"/>
<path d="M103.009 5.5525L101.591 1.22892C101.523 0.9587 101.726 0.688477 101.996 0.688477L103.55 0.688477L105.239 5.82273L103.415 5.82273C103.212 5.82273 103.077 5.75517 103.009 5.5525Z" fill="url(#paint60_linear_956_11266)"/>
<path d="M104.834 61.5564L102.199 68.3795L103.482 68.3795C104.09 68.3795 104.631 68.0418 104.834 67.4338L107.13 61.5564L104.834 61.5564Z" fill="black"/>
<path opacity="0.4" d="M104.631 61.5564L101.996 68.3795L103.28 68.3795C103.888 68.3795 104.428 68.0418 104.631 67.4338L106.928 61.5564L104.631 61.5564Z" fill="url(#paint61_linear_956_11266)"/>
<path d="M103.01 63.5156L101.591 67.8392C101.523 68.1094 101.726 68.3796 101.996 68.3796L103.55 68.3796L105.239 63.2454L103.415 63.2454C103.212 63.2454 103.077 63.3805 103.01 63.5156Z" fill="#FFBC00"/>
<path d="M103.01 63.5156L101.591 67.8392C101.523 68.1094 101.726 68.3796 101.996 68.3796L103.55 68.3796L105.239 63.2454L103.415 63.2454C103.212 63.2454 103.077 63.3805 103.01 63.5156Z" fill="url(#paint62_linear_956_11266)"/>
</g>
<defs>
<radialGradient id="paint0_radial_956_11266" cx="0" cy="0" r="1" gradientUnits="userSpaceOnUse" gradientTransform="translate(79.4601 34.6106) rotate(90.0434) scale(90.6009 71.1851)">
<stop offset="0.5342" stop-color="#B87604" stop-opacity="0"/>
<stop offset="0.9949" stop-color="#B87704"/>
</radialGradient>
<radialGradient id="paint1_radial_956_11266" cx="0" cy="0" r="1" gradientUnits="userSpaceOnUse" gradientTransform="translate(3.59399 33.1721) rotate(90) scale(26.6547 1.80639)">
<stop offset="0.00510204"/>
<stop offset="1" stop-opacity="0"/>
</radialGradient>
<linearGradient id="paint2_linear_956_11266" x1="155.405" y1="34.6108" x2="156.455" y2="34.6108" gradientUnits="userSpaceOnUse">
<stop offset="0.00510204" stop-color="#B87704"/>
<stop offset="1" stop-color="#B87604" stop-opacity="0"/>
</linearGradient>
<linearGradient id="paint3_linear_956_11266" x1="155.657" y1="34.6108" x2="157.927" y2="34.6108" gradientUnits="userSpaceOnUse">
<stop offset="0.4222" stop-color="white" stop-opacity="0"/>
<stop offset="1" stop-color="white"/>
</linearGradient>
<linearGradient id="paint4_linear_956_11266" x1="155.657" y1="34.6108" x2="157.927" y2="34.6108" gradientUnits="userSpaceOnUse">
<stop offset="0.4222" stop-color="white" stop-opacity="0"/>
<stop offset="1" stop-color="white"/>
</linearGradient>
<linearGradient id="paint5_linear_956_11266" x1="79.4732" y1="7.13694" x2="79.4732" y2="62.0849" gradientUnits="userSpaceOnUse">
<stop offset="0.4222" stop-color="white" stop-opacity="0"/>
<stop offset="1" stop-color="white"/>
</linearGradient>
<linearGradient id="paint6_linear_956_11266" x1="3.57307" y1="34.611" x2="4.89629" y2="34.611" gradientUnits="userSpaceOnUse">
<stop offset="0.00510204" stop-color="#B87704"/>
<stop offset="1" stop-color="#B87604" stop-opacity="0"/>
</linearGradient>
<radialGradient id="paint7_radial_956_11266" cx="0" cy="0" r="1" gradientUnits="userSpaceOnUse" gradientTransform="translate(77.9651 35.7001) rotate(-90) scale(55.4347 55.0712)">
<stop stop-color="white" stop-opacity="0"/>
<stop offset="1" stop-color="white"/>
</radialGradient>
<linearGradient id="paint8_linear_956_11266" x1="133.633" y1="23.7281" x2="133.788" y2="21.6514" gradientUnits="userSpaceOnUse">
<stop offset="0.00510204" stop-color="#B87704"/>
<stop offset="1" stop-color="#B87604" stop-opacity="0"/>
</linearGradient>
<linearGradient id="paint9_linear_956_11266" x1="134.068" y1="49.5027" x2="133.695" y2="45.9553" gradientUnits="userSpaceOnUse">
<stop offset="0.4222" stop-color="white" stop-opacity="0"/>
<stop offset="1" stop-color="white"/>
</linearGradient>
<linearGradient id="paint10_linear_956_11266" x1="115.107" y1="34.6098" x2="113.499" y2="34.6098" gradientUnits="userSpaceOnUse">
<stop offset="0.00510204" stop-color="#B87704"/>
<stop offset="1" stop-color="#B87604" stop-opacity="0"/>
</linearGradient>
<radialGradient id="paint11_radial_956_11266" cx="0" cy="0" r="1" gradientUnits="userSpaceOnUse" gradientTransform="translate(103.969 9.06283) rotate(90) scale(44.6191 44.6191)">
<stop stop-color="white" stop-opacity="0"/>
<stop offset="1" stop-color="white"/>
</radialGradient>
<radialGradient id="paint12_radial_956_11266" cx="0" cy="0" r="1" gradientUnits="userSpaceOnUse" gradientTransform="translate(101.423 14.1946) rotate(90) scale(42.9519 42.9519)">
<stop offset="0.0102041"/>
<stop offset="1" stop-opacity="0"/>
</radialGradient>
<linearGradient id="paint13_linear_956_11266" x1="28.9152" y1="34.6098" x2="30.5202" y2="34.6098" gradientUnits="userSpaceOnUse">
<stop offset="0.00510204" stop-color="#B87704"/>
<stop offset="1" stop-color="#B87604" stop-opacity="0"/>
</linearGradient>
<radialGradient id="paint14_radial_956_11266" cx="0" cy="0" r="1" gradientUnits="userSpaceOnUse" gradientTransform="translate(39.921 9.06283) rotate(90) scale(44.6191 44.6191)">
<stop stop-color="white" stop-opacity="0"/>
<stop offset="1" stop-color="white"/>
</radialGradient>
<radialGradient id="paint15_radial_956_11266" cx="0" cy="0" r="1" gradientUnits="userSpaceOnUse" gradientTransform="translate(47.7352 19.0676) rotate(90) scale(58.899 58.899)">
<stop offset="0.0102041"/>
<stop offset="1" stop-opacity="0"/>
</radialGradient>
<linearGradient id="paint16_linear_956_11266" x1="92.3614" y1="62.6625" x2="92.3614" y2="62.0639" gradientUnits="userSpaceOnUse">
<stop offset="0.00510204" stop-color="#B87704"/>
<stop offset="1" stop-color="#B87604" stop-opacity="0"/>
</linearGradient>
<linearGradient id="paint17_linear_956_11266" x1="91.8749" y1="61.539" x2="91.8749" y2="59.0181" gradientUnits="userSpaceOnUse">
<stop stop-color="white"/>
<stop offset="1" stop-color="white" stop-opacity="0"/>
</linearGradient>
<linearGradient id="paint18_linear_956_11266" x1="91.8749" y1="57.338" x2="91.8749" y2="53.934" gradientUnits="userSpaceOnUse">
<stop stop-opacity="0"/>
<stop offset="0.9898"/>
</linearGradient>
<linearGradient id="paint19_linear_956_11266" x1="67.6631" y1="62.5681" x2="67.6631" y2="62.064" gradientUnits="userSpaceOnUse">
<stop offset="0.00510204" stop-color="#B87704"/>
<stop offset="1" stop-color="#B87604" stop-opacity="0"/>
</linearGradient>
<linearGradient id="paint20_linear_956_11266" x1="67.6352" y1="61.5389" x2="67.6352" y2="59.018" gradientUnits="userSpaceOnUse">
<stop stop-color="white"/>
<stop offset="1" stop-color="white" stop-opacity="0"/>
</linearGradient>
<linearGradient id="paint21_linear_956_11266" x1="67.6352" y1="57.3379" x2="67.6352" y2="53.9339" gradientUnits="userSpaceOnUse">
<stop stop-opacity="0"/>
<stop offset="0.9898"/>
</linearGradient>
<linearGradient id="paint22_linear_956_11266" x1="49.1368" y1="62.568" x2="49.1368" y2="62.0639" gradientUnits="userSpaceOnUse">
<stop offset="0.00510204" stop-color="#B87704"/>
<stop offset="1" stop-color="#B87604" stop-opacity="0"/>
</linearGradient>
<linearGradient id="paint23_linear_956_11266" x1="49.2644" y1="61.5389" x2="49.2644" y2="59.018" gradientUnits="userSpaceOnUse">
<stop stop-color="white"/>
<stop offset="1" stop-color="white" stop-opacity="0"/>
</linearGradient>
<linearGradient id="paint24_linear_956_11266" x1="49.2644" y1="57.3379" x2="49.2644" y2="53.9339" gradientUnits="userSpaceOnUse">
<stop stop-opacity="0"/>
<stop offset="0.9898"/>
</linearGradient>
<linearGradient id="paint25_linear_956_11266" x1="92.3614" y1="6.43188" x2="92.3614" y2="7.0305" gradientUnits="userSpaceOnUse">
<stop offset="0.00510204" stop-color="#B87704"/>
<stop offset="1" stop-color="#B87604" stop-opacity="0"/>
</linearGradient>
<linearGradient id="paint26_linear_956_11266" x1="91.8749" y1="7.55577" x2="91.8749" y2="10.0766" gradientUnits="userSpaceOnUse">
<stop stop-color="white"/>
<stop offset="1" stop-color="white" stop-opacity="0"/>
</linearGradient>
<linearGradient id="paint27_linear_956_11266" x1="91.8749" y1="11.7567" x2="91.8749" y2="15.1607" gradientUnits="userSpaceOnUse">
<stop stop-opacity="0"/>
<stop offset="0.9898"/>
</linearGradient>
<linearGradient id="paint28_linear_956_11266" x1="67.6631" y1="6.52655" x2="67.6631" y2="7.03066" gradientUnits="userSpaceOnUse">
<stop offset="0.00510204" stop-color="#B87704"/>
<stop offset="1" stop-color="#B87604" stop-opacity="0"/>
</linearGradient>
<linearGradient id="paint29_linear_956_11266" x1="67.6352" y1="7.55577" x2="67.6352" y2="10.0766" gradientUnits="userSpaceOnUse">
<stop stop-color="white"/>
<stop offset="1" stop-color="white" stop-opacity="0"/>
</linearGradient>
<linearGradient id="paint30_linear_956_11266" x1="67.6352" y1="11.7567" x2="67.6352" y2="15.1607" gradientUnits="userSpaceOnUse">
<stop stop-opacity="0"/>
<stop offset="0.9898"/>
</linearGradient>
<linearGradient id="paint31_linear_956_11266" x1="49.1368" y1="6.52639" x2="49.1368" y2="7.0305" gradientUnits="userSpaceOnUse">
<stop offset="0.00510204" stop-color="#B87704"/>
<stop offset="1" stop-color="#B87604" stop-opacity="0"/>
</linearGradient>
<linearGradient id="paint32_linear_956_11266" x1="49.2644" y1="7.55569" x2="49.2644" y2="10.0765" gradientUnits="userSpaceOnUse">
<stop stop-color="white"/>
<stop offset="1" stop-color="white" stop-opacity="0"/>
</linearGradient>
<linearGradient id="paint33_linear_956_11266" x1="49.2644" y1="11.7567" x2="49.2644" y2="15.1607" gradientUnits="userSpaceOnUse">
<stop stop-opacity="0"/>
<stop offset="0.9898"/>
</linearGradient>
<linearGradient id="paint34_linear_956_11266" x1="115.215" y1="56.6291" x2="115.215" y2="57.1727" gradientUnits="userSpaceOnUse">
<stop offset="0.00510204" stop-color="#B87704"/>
<stop offset="1" stop-color="#B87604" stop-opacity="0"/>
</linearGradient>
<linearGradient id="paint35_linear_956_11266" x1="115.63" y1="54.8018" x2="115.63" y2="55.3453" gradientUnits="userSpaceOnUse">
<stop offset="0.00510204" stop-color="#B87704"/>
<stop offset="1" stop-color="#B87604" stop-opacity="0"/>
</linearGradient>
<linearGradient id="paint36_linear_956_11266" x1="116.123" y1="52.9744" x2="116.123" y2="53.5179" gradientUnits="userSpaceOnUse">
<stop offset="0.00510204" stop-color="#B87704"/>
<stop offset="1" stop-color="#B87604" stop-opacity="0"/>
</linearGradient>
<linearGradient id="paint37_linear_956_11266" x1="116.123" y1="16.0833" x2="116.123" y2="16.6269" gradientUnits="userSpaceOnUse">
<stop offset="0.00510204" stop-color="#B87704"/>
<stop offset="1" stop-color="#B87604" stop-opacity="0"/>
</linearGradient>
<linearGradient id="paint38_linear_956_11266" x1="115.709" y1="14.2559" x2="115.709" y2="14.7995" gradientUnits="userSpaceOnUse">
<stop offset="0.00510204" stop-color="#B87704"/>
<stop offset="1" stop-color="#B87604" stop-opacity="0"/>
</linearGradient>
<linearGradient id="paint39_linear_956_11266" x1="115.215" y1="12.4286" x2="115.215" y2="12.9721" gradientUnits="userSpaceOnUse">
<stop offset="0.00510204" stop-color="#B87704"/>
<stop offset="1" stop-color="#B87604" stop-opacity="0"/>
</linearGradient>
<radialGradient id="paint40_radial_956_11266" cx="0" cy="0" r="1" gradientUnits="userSpaceOnUse" gradientTransform="translate(8.25479 8.67043) rotate(90) scale(2.30041)">
<stop stop-color="white" stop-opacity="0"/>
<stop offset="1" stop-color="white"/>
</radialGradient>
<radialGradient id="paint41_radial_956_11266" cx="0" cy="0" r="1" gradientUnits="userSpaceOnUse" gradientTransform="translate(5.10698 13.9739) rotate(90) scale(2.69886)">
<stop stop-color="white" stop-opacity="0"/>
<stop offset="1" stop-color="white"/>
</radialGradient>
<radialGradient id="paint42_radial_956_11266" cx="0" cy="0" r="1" gradientUnits="userSpaceOnUse" gradientTransform="translate(8.25479 61.0558) rotate(-90) scale(2.30041)">
<stop stop-color="white" stop-opacity="0"/>
<stop offset="1" stop-color="white"/>
</radialGradient>
<radialGradient id="paint43_radial_956_11266" cx="0" cy="0" r="1" gradientUnits="userSpaceOnUse" gradientTransform="translate(5.10698 55.7523) rotate(-90) scale(2.69886)">
<stop stop-color="white" stop-opacity="0"/>
<stop offset="1" stop-color="white"/>
</radialGradient>
<linearGradient id="paint44_linear_956_11266" x1="3.93506" y1="33.7975" x2="4.31324" y2="33.7975" gradientUnits="userSpaceOnUse">
<stop offset="0.00510204" stop-color="#B87704"/>
<stop offset="1" stop-color="#B87604" stop-opacity="0"/>
</linearGradient>
<linearGradient id="paint45_linear_956_11266" x1="71.8839" y1="28.8136" x2="71.8839" y2="38.5179" gradientUnits="userSpaceOnUse">
<stop offset="0.00510204" stop-color="#B87704"/>
<stop offset="1" stop-color="#B87604" stop-opacity="0"/>
</linearGradient>
<linearGradient id="paint46_linear_956_11266" x1="72.3026" y1="35.3884" x2="72.3026" y2="38.518" gradientUnits="userSpaceOnUse">
<stop stop-opacity="0"/>
<stop offset="0.9898"/>
</linearGradient>
<linearGradient id="paint47_linear_956_11266" x1="72.3026" y1="33.7707" x2="72.3026" y2="30.7138" gradientUnits="userSpaceOnUse">
<stop stop-opacity="0"/>
<stop offset="0.9898"/>
</linearGradient>
<linearGradient id="paint48_linear_956_11266" x1="79.4732" y1="65.6978" x2="79.4732" y2="32.0837" gradientUnits="userSpaceOnUse">
<stop offset="0.4222" stop-color="white" stop-opacity="0"/>
<stop offset="1" stop-color="white"/>
</linearGradient>
<linearGradient id="paint49_linear_956_11266" x1="72.4925" y1="37.543" x2="72.4925" y2="36.5005" gradientUnits="userSpaceOnUse">
<stop offset="0.4222" stop-color="white" stop-opacity="0"/>
<stop offset="1" stop-color="white"/>
</linearGradient>
<linearGradient id="paint50_linear_956_11266" x1="134.666" y1="37.7051" x2="134.666" y2="36.1941" gradientUnits="userSpaceOnUse">
<stop offset="0.4222" stop-color="white" stop-opacity="0"/>
<stop offset="1" stop-color="white"/>
</linearGradient>
<linearGradient id="paint51_linear_956_11266" x1="93.6947" y1="53.6904" x2="93.6947" y2="37.7337" gradientUnits="userSpaceOnUse">
<stop offset="0.4222" stop-color="white" stop-opacity="0"/>
<stop offset="1" stop-color="white"/>
</linearGradient>
<linearGradient id="paint52_linear_956_11266" x1="4.35811" y1="60.1695" x2="4.35811" y2="47.4228" gradientUnits="userSpaceOnUse">
<stop offset="0.4222" stop-color="white" stop-opacity="0"/>
<stop offset="1" stop-color="white"/>
</linearGradient>
<linearGradient id="paint53_linear_956_11266" x1="154.837" y1="44.2979" x2="154.837" y2="43.5471" gradientUnits="userSpaceOnUse">
<stop offset="0.4222" stop-color="white" stop-opacity="0"/>
<stop offset="1" stop-color="white"/>
</linearGradient>
<linearGradient id="paint54_linear_956_11266" x1="2.30775" y1="40.796" x2="2.30775" y2="39.7144" gradientUnits="userSpaceOnUse">
<stop offset="0.4222" stop-color="white" stop-opacity="0"/>
<stop offset="1" stop-color="white"/>
</linearGradient>
<linearGradient id="paint55_linear_956_11266" x1="39.744" y1="36.8144" x2="39.744" y2="33.0883" gradientUnits="userSpaceOnUse">
<stop offset="0.4222" stop-color="white" stop-opacity="0"/>
<stop offset="1" stop-color="white"/>
</linearGradient>
<linearGradient id="paint56_linear_956_11266" x1="16.6757" y1="37.2907" x2="16.6757" y2="36.2481" gradientUnits="userSpaceOnUse">
<stop offset="0.4222" stop-color="white" stop-opacity="0"/>
<stop offset="1" stop-color="white"/>
</linearGradient>
<linearGradient id="paint57_linear_956_11266" x1="156.67" y1="35.8689" x2="156.67" y2="34.6342" gradientUnits="userSpaceOnUse">
<stop offset="0.4222" stop-color="white" stop-opacity="0"/>
<stop offset="1" stop-color="white"/>
</linearGradient>
<linearGradient id="paint58_linear_956_11266" x1="103.838" y1="36.0224" x2="103.838" y2="31.5263" gradientUnits="userSpaceOnUse">
<stop offset="0.4222" stop-color="white" stop-opacity="0"/>
<stop offset="1" stop-color="white"/>
</linearGradient>
<linearGradient id="paint59_linear_956_11266" x1="105.469" y1="3.7362" x2="104.949" y2="3.92522" gradientUnits="userSpaceOnUse">
<stop stop-color="white"/>
<stop offset="1" stop-color="white" stop-opacity="0"/>
</linearGradient>
<linearGradient id="paint60_linear_956_11266" x1="104.708" y1="5.63546" x2="102.802" y2="2.2328" gradientUnits="userSpaceOnUse">
<stop offset="0.00510204" stop-color="#B87704"/>
<stop offset="1" stop-color="#B87604" stop-opacity="0"/>
</linearGradient>
<linearGradient id="paint61_linear_956_11266" x1="105.469" y1="65.3582" x2="104.949" y2="65.1692" gradientUnits="userSpaceOnUse">
<stop stop-color="white"/>
<stop offset="1" stop-color="white" stop-opacity="0"/>
</linearGradient>
<linearGradient id="paint62_linear_956_11266" x1="104.708" y1="63.4589" x2="102.802" y2="66.8617" gradientUnits="userSpaceOnUse">
<stop offset="0.00510204" stop-color="#B87704"/>
<stop offset="1" stop-color="#B87604" stop-opacity="0"/>
</linearGradient>
<clipPath id="clip0_956_11266">
<rect width="70" height="156.562" fill="white" transform="translate(157) rotate(90)"/>
</clipPath>
</defs>
</svg>
