<svg width="107" height="173" viewBox="0 0 107 173" fill="none" xmlns="http://www.w3.org/2000/svg">
<path d="M107 58.9999L7.62939e-06 58.9999L2.47145e-06 -5.93103e-05L107 -6.86646e-05L107 58.9999Z" fill="#B2B3B7"/>
<path d="M107 118L7.62939e-06 118L2.47145e-06 58.9999L107 58.9999L107 118Z" fill="#B2B3B7"/>
<path d="M107 173L0 173L-4.80825e-06 118L107 118L107 173Z" fill="#B2B3B7"/>
<path d="M91 54.9999L74 54.9999L74 58.9999L91 58.9999L91 54.9999Z" fill="#D9D9D9"/>
<path d="M62 54.9999L45 54.9999L45 58.9999L62 58.9999L62 54.9999Z" fill="#D9D9D9"/>
<path d="M33 54.9999L16 54.9999L16 58.9999L33 58.9999L33 54.9999Z" fill="#D9D9D9"/>
<path d="M91 114L74 114L74 118L91 118L91 114Z" fill="#D9D9D9"/>
<path d="M62 114L45 114L45 118L62 118L62 114Z" fill="#D9D9D9"/>
<path d="M33 114L16 114L16 118L33 118L33 114Z" fill="#D9D9D9"/>
</svg>
