<svg width="116" height="40" viewBox="0 0 116 40" fill="none" xmlns="http://www.w3.org/2000/svg">
<path d="M7.5 38C4.73857 38 2.5 35.7614 2.5 33L2.5 7C2.5 4.23857 4.73857 2 7.5 2L108.5 2C111.261 2 113.5 4.23857 113.5 7L113.5 33C113.5 35.7614 111.261 38 108.5 38L7.5 38Z" fill="white"/>
<path fill-rule="evenodd" clip-rule="evenodd" d="M0.5 33L0.499999 7C0.499998 3.13401 3.634 -1.36992e-07 7.5 -3.0598e-07L108.5 -4.72083e-06C112.366 -4.88982e-06 115.5 3.13401 115.5 6.99999L115.5 33C115.5 36.866 112.366 40 108.5 40L7.5 40C3.634 40 0.5 36.866 0.5 33ZM2.5 33C2.5 35.7614 4.73857 38 7.5 38L108.5 38C111.261 38 113.5 35.7614 113.5 33L113.5 7C113.5 4.23857 111.261 2 108.5 2L7.5 2C4.73857 2 2.5 4.23857 2.5 7L2.5 33Z" fill="black"/>
<path d="M38.5 19.5C38.5 21.9853 36.6974 24 34.4737 24C32.25 24 30.4474 21.9853 30.4474 19.5C30.4474 17.0147 32.25 15 34.4737 15C36.6974 15 38.5 17.0147 38.5 19.5Z" fill="white"/>
<path d="M12.5526 19.5C12.5526 21.9853 10.75 24 8.52632 24C6.30264 24 4.5 21.9853 4.5 19.5C4.5 17.0147 6.30264 15 8.52632 15C10.75 15 12.5526 17.0147 12.5526 19.5Z" fill="white"/>
<path fill-rule="evenodd" clip-rule="evenodd" d="M39.5 19.5C39.5 22.5376 37.2838 25 34.55 25C31.8162 25 29.6 22.5376 29.6 19.5C29.6 16.4624 31.8162 14 34.55 14C37.2838 14 39.5 16.4624 39.5 19.5ZM13.4 19.5C13.4 22.5376 11.1838 25 8.45 25C5.71619 25 3.5 22.5376 3.5 19.5C3.5 16.4624 5.71619 14 8.45 14C11.1838 14 13.4 16.4624 13.4 19.5ZM8.45 24C10.6868 24 12.5 21.9853 12.5 19.5C12.5 17.0147 10.6868 15 8.45 15C6.21325 15 4.4 17.0147 4.4 19.5C4.4 21.9853 6.21325 24 8.45 24ZM34.55 24C36.7868 24 38.6 21.9853 38.6 19.5C38.6 17.0147 36.7868 15 34.55 15C32.3132 15 30.5 17.0147 30.5 19.5C30.5 21.9853 32.3132 24 34.55 24Z" fill="black"/>
<path d="M36.5 20C36.5 28.2843 29.7843 35 21.5 35C13.2157 35 6.5 28.2843 6.5 20C6.5 11.7157 13.2157 5 21.5 5C29.7843 5 36.5 11.7157 36.5 20Z" fill="white"/>
<mask id="mask0_534_190" style="mask-type:alpha" maskUnits="userSpaceOnUse" x="6" y="5" width="31" height="30">
<circle cx="21.5" cy="20" r="15" fill="white"/>
</mask>
<g mask="url(#mask0_534_190)">
<path d="M36.5 13.5C36.5 18.1944 29.2843 9 21 9C12.7157 9 6.5 18.1944 6.5 13.5C6.5 8.80558 12.7157 3 21 3C29.2843 3 36.5 8.80558 36.5 13.5Z" fill="white"/>
<path fill-rule="evenodd" clip-rule="evenodd" d="M31.3403 13.8668C28.4612 12.1311 24.8203 10 21 10C17.1968 10 13.8069 12.1179 11.1949 13.8446C11.0962 13.9099 10.9982 13.9748 10.9011 14.0391C10.373 14.3891 9.87116 14.7216 9.42251 14.994C8.90531 15.3079 8.36944 15.5988 7.87331 15.7394C7.38163 15.8788 6.62434 15.9449 6.05491 15.3397C5.58592 14.8411 5.5 14.1195 5.5 13.5C5.5 10.7351 7.29801 7.85017 10.0249 5.70381C12.7836 3.53237 16.6247 2 21 2C25.3683 2 29.4446 3.52727 32.4397 5.67722C35.3846 7.7911 37.5 10.6773 37.5 13.5C37.5 14.1461 37.3898 14.8908 36.8535 15.3879C36.2637 15.9346 35.5136 15.876 35.0002 15.7474C34.4669 15.6138 33.882 15.3333 33.3018 15.0174C32.7485 14.7161 32.1297 14.3429 31.4786 13.9502C31.4326 13.9225 31.3865 13.8947 31.3403 13.8668ZM31.9884 13.0899C34.7518 14.7564 36.5 15.8107 36.5 13.5C36.5 8.80558 29.2843 3 21 3C12.7157 3 6.5 8.80558 6.5 13.5C6.5 15.7555 7.93489 14.8048 10.3447 13.2082C12.9504 11.4817 16.696 9 21 9C25.2066 9 29.1377 11.3707 31.9884 13.0899Z" fill="black"/>
</g>
<path fill-rule="evenodd" clip-rule="evenodd" d="M21.5 34C29.232 34 35.5 27.732 35.5 20C35.5 12.268 29.232 6 21.5 6C13.768 6 7.5 12.268 7.5 20C7.5 27.732 13.768 34 21.5 34ZM21.5 35C29.7843 35 36.5 28.2843 36.5 20C36.5 11.7157 29.7843 5 21.5 5C13.2157 5 6.5 11.7157 6.5 20C6.5 28.2843 13.2157 35 21.5 35Z" fill="black"/>
<path d="M75.5 19.5C75.5 21.9853 73.6974 24 71.4737 24C69.25 24 67.4474 21.9853 67.4474 19.5C67.4474 17.0147 69.25 15 71.4737 15C73.6974 15 75.5 17.0147 75.5 19.5Z" fill="white"/>
<path d="M49.5526 19.5C49.5526 21.9853 47.75 24 45.5263 24C43.3026 24 41.5 21.9853 41.5 19.5C41.5 17.0147 43.3026 15 45.5263 15C47.75 15 49.5526 17.0147 49.5526 19.5Z" fill="white"/>
<path fill-rule="evenodd" clip-rule="evenodd" d="M76.5 19.5C76.5 22.5376 74.2838 25 71.55 25C68.8162 25 66.6 22.5376 66.6 19.5C66.6 16.4624 68.8162 14 71.55 14C74.2838 14 76.5 16.4624 76.5 19.5ZM50.4 19.5C50.4 22.5376 48.1838 25 45.45 25C42.7162 25 40.5 22.5376 40.5 19.5C40.5 16.4624 42.7162 14 45.45 14C48.1838 14 50.4 16.4624 50.4 19.5ZM45.45 24C47.6868 24 49.5 21.9853 49.5 19.5C49.5 17.0147 47.6868 15 45.45 15C43.2132 15 41.4 17.0147 41.4 19.5C41.4 21.9853 43.2132 24 45.45 24ZM71.55 24C73.7868 24 75.6 21.9853 75.6 19.5C75.6 17.0147 73.7868 15 71.55 15C69.3132 15 67.5 17.0147 67.5 19.5C67.5 21.9853 69.3132 24 71.55 24Z" fill="black"/>
<path d="M73.5 20C73.5 28.2843 66.7843 35 58.5 35C50.2157 35 43.5 28.2843 43.5 20C43.5 11.7157 50.2157 5 58.5 5C66.7843 5 73.5 11.7157 73.5 20Z" fill="white"/>
<mask id="mask1_534_190" style="mask-type:alpha" maskUnits="userSpaceOnUse" x="43" y="5" width="31" height="30">
<circle cx="58.5" cy="20" r="15" fill="white"/>
</mask>
<g mask="url(#mask1_534_190)">
<path d="M73.5 13.5C73.5 18.1944 66.2843 9 58 9C49.7157 9 43.5 18.1944 43.5 13.5C43.5 8.80558 49.7157 3 58 3C66.2843 3 73.5 8.80558 73.5 13.5Z" fill="white"/>
<path fill-rule="evenodd" clip-rule="evenodd" d="M68.3403 13.8668C65.4612 12.1311 61.8203 10 58 10C54.1968 10 50.8069 12.1179 48.1949 13.8446C48.0962 13.9099 47.9982 13.9748 47.9011 14.0391C47.373 14.3891 46.8712 14.7216 46.4225 14.994C45.9053 15.3079 45.3694 15.5988 44.8733 15.7394C44.3816 15.8788 43.6243 15.9449 43.0549 15.3397C42.5859 14.8411 42.5 14.1195 42.5 13.5C42.5 10.7351 44.298 7.85017 47.0249 5.70381C49.7836 3.53237 53.6247 2 58 2C62.3683 2 66.4446 3.52727 69.4397 5.67722C72.3846 7.7911 74.5 10.6773 74.5 13.5C74.5 14.1461 74.3898 14.8908 73.8535 15.3879C73.2637 15.9346 72.5136 15.876 72.0002 15.7474C71.4669 15.6138 70.882 15.3333 70.3018 15.0174C69.7485 14.7161 69.1297 14.3429 68.4786 13.9502C68.4326 13.9225 68.3865 13.8947 68.3403 13.8668ZM68.9884 13.0899C71.7518 14.7564 73.5 15.8107 73.5 13.5C73.5 8.80558 66.2843 3 58 3C49.7157 3 43.5 8.80558 43.5 13.5C43.5 15.7555 44.9349 14.8048 47.3447 13.2082C49.9504 11.4817 53.696 9 58 9C62.2066 9 66.1377 11.3707 68.9884 13.0899Z" fill="black"/>
</g>
<path fill-rule="evenodd" clip-rule="evenodd" d="M58.5 34C66.232 34 72.5 27.732 72.5 20C72.5 12.268 66.232 6 58.5 6C50.768 6 44.5 12.268 44.5 20C44.5 27.732 50.768 34 58.5 34ZM58.5 35C66.7843 35 73.5 28.2843 73.5 20C73.5 11.7157 66.7843 5 58.5 5C50.2157 5 43.5 11.7157 43.5 20C43.5 28.2843 50.2157 35 58.5 35Z" fill="black"/>
<path d="M112.5 19.5C112.5 21.9853 110.697 24 108.474 24C106.25 24 104.447 21.9853 104.447 19.5C104.447 17.0147 106.25 15 108.474 15C110.697 15 112.5 17.0147 112.5 19.5Z" fill="white"/>
<path d="M86.5526 19.5C86.5526 21.9853 84.75 24 82.5263 24C80.3026 24 78.5 21.9853 78.5 19.5C78.5 17.0147 80.3026 15 82.5263 15C84.75 15 86.5526 17.0147 86.5526 19.5Z" fill="white"/>
<path fill-rule="evenodd" clip-rule="evenodd" d="M113.5 19.5C113.5 22.5376 111.284 25 108.55 25C105.816 25 103.6 22.5376 103.6 19.5C103.6 16.4624 105.816 14 108.55 14C111.284 14 113.5 16.4624 113.5 19.5ZM87.4 19.5C87.4 22.5376 85.1838 25 82.45 25C79.7162 25 77.5 22.5376 77.5 19.5C77.5 16.4624 79.7162 14 82.45 14C85.1838 14 87.4 16.4624 87.4 19.5ZM82.45 24C84.6868 24 86.5 21.9853 86.5 19.5C86.5 17.0147 84.6868 15 82.45 15C80.2132 15 78.4 17.0147 78.4 19.5C78.4 21.9853 80.2132 24 82.45 24ZM108.55 24C110.787 24 112.6 21.9853 112.6 19.5C112.6 17.0147 110.787 15 108.55 15C106.313 15 104.5 17.0147 104.5 19.5C104.5 21.9853 106.313 24 108.55 24Z" fill="black"/>
<path d="M110.5 20C110.5 28.2843 103.784 35 95.5 35C87.2157 35 80.5 28.2843 80.5 20C80.5 11.7157 87.2157 5 95.5 5C103.784 5 110.5 11.7157 110.5 20Z" fill="white"/>
<mask id="mask2_534_190" style="mask-type:alpha" maskUnits="userSpaceOnUse" x="80" y="5" width="31" height="30">
<circle cx="95.5" cy="20" r="15" fill="white"/>
</mask>
<g mask="url(#mask2_534_190)">
<path d="M110.5 13.5C110.5 18.1944 103.284 9 95 9C86.7157 9 80.5 18.1944 80.5 13.5C80.5 8.80558 86.7157 3 95 3C103.284 3 110.5 8.80558 110.5 13.5Z" fill="white"/>
<path fill-rule="evenodd" clip-rule="evenodd" d="M105.34 13.8668C102.461 12.1311 98.8203 10 95 10C91.1968 10 87.8069 12.1179 85.1949 13.8446C85.0962 13.9099 84.9982 13.9748 84.9011 14.0391C84.373 14.3891 83.8712 14.7216 83.4225 14.994C82.9053 15.3079 82.3694 15.5988 81.8733 15.7394C81.3816 15.8788 80.6243 15.9449 80.0549 15.3397C79.5859 14.8411 79.5 14.1195 79.5 13.5C79.5 10.7351 81.298 7.85017 84.0249 5.70381C86.7836 3.53237 90.6247 2 95 2C99.3683 2 103.445 3.52727 106.44 5.67722C109.385 7.7911 111.5 10.6773 111.5 13.5C111.5 14.1461 111.39 14.8908 110.854 15.3879C110.264 15.9346 109.514 15.876 109 15.7474C108.467 15.6138 107.882 15.3333 107.302 15.0174C106.749 14.7161 106.13 14.3429 105.479 13.9502C105.433 13.9225 105.387 13.8947 105.34 13.8668ZM105.988 13.0899C108.752 14.7564 110.5 15.8107 110.5 13.5C110.5 8.80558 103.284 3 95 3C86.7157 3 80.5 8.80558 80.5 13.5C80.5 15.7555 81.9349 14.8048 84.3447 13.2082C86.9504 11.4817 90.696 9 95 9C99.2066 9 103.138 11.3707 105.988 13.0899Z" fill="black"/>
</g>
<path fill-rule="evenodd" clip-rule="evenodd" d="M95.5 34C103.232 34 109.5 27.732 109.5 20C109.5 12.268 103.232 6 95.5 6C87.768 6 81.5 12.268 81.5 20C81.5 27.732 87.768 34 95.5 34ZM95.5 35C103.784 35 110.5 28.2843 110.5 20C110.5 11.7157 103.784 5 95.5 5C87.2157 5 80.5 11.7157 80.5 20C80.5 28.2843 87.2157 35 95.5 35Z" fill="black"/>
</svg>
