<svg width="50" height="94" viewBox="0 0 50 94" fill="none" xmlns="http://www.w3.org/2000/svg">
<path d="M41.3409 2.36621C44.6065 2.36621 47.2538 5.01356 47.2538 8.27924L47.2539 86.058C47.2539 89.3237 44.6066 91.971 41.3409 91.971L8.5985 91.971C5.33285 91.971 2.6855 89.3237 2.68551 86.058L2.68546 8.27923C2.68546 5.01356 5.33281 2.36621 8.59846 2.36621L41.3409 2.36621Z" fill="white"/>
<path fill-rule="evenodd" clip-rule="evenodd" d="M49.6191 8.27823L49.6191 85.0419C49.6191 89.6138 45.9128 93.3201 41.3409 93.3201L8.59832 93.3201C4.02639 93.3201 0.320084 89.6138 0.320084 85.0419L0.320087 8.27823C0.320087 3.70629 4.02639 -1.99292e-06 8.59833 -1.79308e-06L41.3409 -3.61853e-07C45.9129 -1.62007e-07 49.6191 3.70629 49.6191 8.27823ZM47.2539 8.27823C47.2539 5.01256 44.6066 2.36521 41.3409 2.36521L8.59833 2.36521C5.33265 2.36521 2.6853 5.01256 2.6853 8.27823L2.6853 85.0419C2.6853 88.3075 5.33265 90.9549 8.59832 90.9549L41.3409 90.9549C44.6066 90.9549 47.2539 88.3075 47.2539 85.0419L47.2539 8.27823Z" fill="black"/>
<path d="M44.1871 24.8295C44.1871 27.7686 42.0553 30.1513 39.4255 30.1513C36.7958 30.1513 34.664 27.7686 34.664 24.8295C34.664 21.8904 36.7958 19.5078 39.4255 19.5078C42.0553 19.5078 44.1871 21.8904 44.1871 24.8295Z" fill="white"/>
<path d="M13.5016 24.8295C13.5016 27.7686 11.3698 30.1513 8.74006 30.1513C6.11033 30.1513 3.97852 27.7686 3.97852 24.8295C3.97852 21.8904 6.11033 19.5078 8.74006 19.5078C11.3698 19.5078 13.5016 21.8904 13.5016 24.8295Z" fill="white"/>
<path fill-rule="evenodd" clip-rule="evenodd" d="M45.3707 24.8295C45.3707 28.4218 42.7498 31.3338 39.5168 31.3338C36.2837 31.3338 33.6629 28.4218 33.6629 24.8295C33.6629 21.2373 36.2837 18.3252 39.5168 18.3252C42.7498 18.3252 45.3707 21.2373 45.3707 24.8295ZM14.5047 24.8295C14.5047 28.4218 11.8838 31.3338 8.65077 31.3338C5.41775 31.3338 2.79688 28.4218 2.79688 24.8295C2.79688 21.2373 5.41775 18.3252 8.65077 18.3252C11.8838 18.3252 14.5047 21.2373 14.5047 24.8295ZM8.65077 30.1512C11.296 30.1512 13.4403 27.7686 13.4403 24.8295C13.4403 21.8904 11.296 19.5078 8.65077 19.5078C6.00557 19.5078 3.86122 21.8904 3.86122 24.8295C3.86122 27.7686 6.00557 30.1512 8.65077 30.1512ZM39.5168 30.1512C42.162 30.1512 44.3063 27.7686 44.3063 24.8295C44.3063 21.8904 42.162 19.5078 39.5168 19.5078C36.8716 19.5078 34.7272 21.8904 34.7272 24.8295C34.7272 27.7686 36.8716 30.1512 39.5168 30.1512Z" fill="black"/>
<path d="M41.8238 25.4207C41.8238 35.2177 33.8818 43.1598 24.0848 43.1598C14.2878 43.1598 6.3457 35.2177 6.3457 25.4207C6.3457 15.6237 14.2878 7.68164 24.0848 7.68164C33.8818 7.68164 41.8238 15.6237 41.8238 25.4207Z" fill="white" id="red"/>
<mask id="mask0_534_590" style="mask-type:alpha" maskUnits="userSpaceOnUse" x="6" y="7" width="36" height="37">
<circle cx="24.0848" cy="25.4207" r="17.7391" fill="white"/>
</mask>
<g mask="url(#mask0_534_590)">
<path d="M41.8238 17.7338C41.8238 23.2854 33.2905 12.412 23.4935 12.412C13.6965 12.412 6.3457 23.2854 6.3457 17.7338C6.3457 12.1821 13.6965 5.31641 23.4935 5.31641C33.2905 5.31641 41.8238 12.1821 41.8238 17.7338Z" fill="white"/>
<path fill-rule="evenodd" clip-rule="evenodd" d="M35.7229 18.1675C32.3181 16.1149 28.0124 13.5946 23.4944 13.5946C18.9967 13.5946 14.9879 16.0992 11.8988 18.1413C11.7821 18.2184 11.6662 18.2952 11.5514 18.3713C10.9269 18.7852 10.3334 19.1784 9.80285 19.5005C9.1912 19.8718 8.55748 20.2158 7.97075 20.3821C7.38929 20.5469 6.49371 20.6251 5.82031 19.9093C5.26567 19.3198 5.16406 18.4664 5.16406 17.7337C5.16406 14.4639 7.2904 11.0522 10.5152 8.51393C13.7777 5.94598 18.3202 4.13379 23.4944 4.13379C28.6604 4.13379 33.4811 5.93995 37.0231 8.48248C40.5058 10.9824 43.0074 14.3956 43.0074 17.7337C43.0074 18.4978 42.8772 19.3785 42.2429 19.9664C41.5453 20.6129 40.6583 20.5436 40.0511 20.3915C39.4205 20.2336 38.7287 19.9018 38.0426 19.5282C37.3883 19.1719 36.6564 18.7305 35.8864 18.2661C35.8321 18.2334 35.7776 18.2005 35.7229 18.1675ZM36.4894 17.2487C39.7574 19.2196 41.8248 20.4664 41.8248 17.7337C41.8248 12.1821 33.2915 5.31639 23.4944 5.31639C13.6974 5.31639 6.34667 12.1821 6.34667 17.7337C6.34667 20.4011 8.04358 19.2768 10.8934 17.3886C13.975 15.3469 18.4046 12.412 23.4944 12.412C28.4692 12.412 33.1181 15.2156 36.4894 17.2487Z" fill="black"/>
</g>
<path fill-rule="evenodd" clip-rule="evenodd" d="M24.0848 41.9772C33.2287 41.9772 40.6412 34.5646 40.6412 25.4207C40.6412 16.2768 33.2287 8.86425 24.0848 8.86425C14.9409 8.86425 7.52831 16.2768 7.52831 25.4207C7.52831 34.5646 14.9409 41.9772 24.0848 41.9772ZM24.0848 43.1598C33.8818 43.1598 41.8238 35.2177 41.8238 25.4207C41.8238 15.6237 33.8818 7.68164 24.0848 7.68164C14.2878 7.68164 6.3457 15.6237 6.3457 25.4207C6.3457 35.2177 14.2878 43.1598 24.0848 43.1598Z" fill="black"/>
<path d="M44.191 67.308C44.191 70.2472 42.0592 72.6298 39.4294 72.6298C36.7997 72.6298 34.6679 70.2472 34.6679 67.308C34.6679 64.3689 36.7997 61.9863 39.4294 61.9863C42.0592 61.9863 44.191 64.3689 44.191 67.308Z" fill="white"/>
<path d="M13.5055 67.308C13.5055 70.2472 11.3737 72.6298 8.74396 72.6298C6.11424 72.6298 3.98242 70.2472 3.98242 67.308C3.98242 64.3689 6.11424 61.9863 8.74396 61.9863C11.3737 61.9863 13.5055 64.3689 13.5055 67.308Z" fill="white"/>
<path fill-rule="evenodd" clip-rule="evenodd" d="M45.3746 67.308C45.3746 70.9003 42.7537 73.8124 39.5207 73.8124C36.2876 73.8124 33.6668 70.9003 33.6668 67.308C33.6668 63.7158 36.2876 60.8037 39.5207 60.8037C42.7537 60.8037 45.3746 63.7158 45.3746 67.308ZM14.5086 67.308C14.5086 70.9003 11.8877 73.8124 8.65468 73.8124C5.42166 73.8124 2.80078 70.9003 2.80078 67.308C2.80078 63.7158 5.42166 60.8037 8.65468 60.8037C11.8877 60.8037 14.5086 63.7158 14.5086 67.308ZM8.65468 72.6298C11.2999 72.6298 13.4442 70.2471 13.4442 67.308C13.4442 64.3689 11.2999 61.9863 8.65468 61.9863C6.00948 61.9863 3.86513 64.3689 3.86513 67.308C3.86513 70.2471 6.00948 72.6298 8.65468 72.6298ZM39.5207 72.6298C42.1659 72.6298 44.3102 70.2471 44.3102 67.308C44.3102 64.3689 42.1659 61.9863 39.5207 61.9863C36.8755 61.9863 34.7311 64.3689 34.7311 67.308C34.7311 70.2471 36.8755 72.6298 39.5207 72.6298Z" fill="black"/>
<path d="M41.8278 67.8992C41.8278 77.6962 33.8857 85.6383 24.0887 85.6383C14.2917 85.6383 6.34961 77.6962 6.34961 67.8992C6.34961 58.1022 14.2917 50.1602 24.0887 50.1602C33.8857 50.1602 41.8278 58.1022 41.8278 67.8992Z" fill="white" id="green"/>
<mask id="mask1_534_590" style="mask-type:alpha" maskUnits="userSpaceOnUse" x="6" y="50" width="36" height="36">
<circle cx="24.0887" cy="67.8992" r="17.7391" fill="white"/>
</mask>
<g mask="url(#mask1_534_590)">
<path d="M41.8278 60.2123C41.8278 65.7639 33.2944 54.8906 23.4974 54.8906C13.7004 54.8906 6.34961 65.7639 6.34961 60.2123C6.34961 54.6606 13.7004 47.7949 23.4974 47.7949C33.2944 47.7949 41.8278 54.6606 41.8278 60.2123Z" fill="white"/>
<path fill-rule="evenodd" clip-rule="evenodd" d="M35.7268 60.6461C32.322 58.5934 28.0163 56.0731 23.4983 56.0731C19.0007 56.0731 14.9918 58.5777 11.9027 60.6198C11.786 60.697 11.6701 60.7737 11.5553 60.8498C10.9308 61.2637 10.3373 61.6569 9.80675 61.979C9.19511 62.3503 8.56139 62.6944 7.97465 62.8606C7.39319 63.0254 6.49762 63.1037 5.82421 62.3879C5.26958 61.7983 5.16797 60.9449 5.16797 60.2123C5.16797 56.9424 7.29431 53.5307 10.5191 50.9924C13.7816 48.4245 18.3241 46.6123 23.4983 46.6123C28.6643 46.6123 33.485 48.4185 37.027 50.961C40.5097 53.4609 43.0113 56.8741 43.0113 60.2123C43.0113 60.9763 42.8811 61.8571 42.2468 62.4449C41.5492 63.0914 40.6622 63.0221 40.055 62.87C39.4244 62.7121 38.7326 62.3803 38.0465 62.0067C37.3922 61.6504 36.6603 61.209 35.8903 60.7447C35.836 60.7119 35.7815 60.679 35.7268 60.6461ZM36.4933 59.7273C39.7613 61.6981 41.8287 62.9449 41.8287 60.2123C41.8287 54.6606 33.2954 47.7949 23.4983 47.7949C13.7013 47.7949 6.35057 54.6606 6.35057 60.2123C6.35057 62.8796 8.04748 61.7553 10.8973 59.8671C13.9789 57.8254 18.4085 54.8905 23.4983 54.8905C28.4731 54.8905 33.122 57.6941 36.4933 59.7273Z" fill="black"/>
</g>
<path fill-rule="evenodd" clip-rule="evenodd" d="M24.0887 84.4557C33.2326 84.4557 40.6452 77.0431 40.6452 67.8992C40.6452 58.7553 33.2326 51.3428 24.0887 51.3428C14.9448 51.3428 7.53221 58.7553 7.53221 67.8992C7.53221 77.0431 14.9448 84.4557 24.0887 84.4557ZM24.0887 85.6383C33.8857 85.6383 41.8278 77.6962 41.8278 67.8992C41.8278 58.1022 33.8857 50.1602 24.0887 50.1602C14.2917 50.1602 6.34961 58.1022 6.34961 67.8992C6.34961 77.6962 14.2917 85.6383 24.0887 85.6383Z" fill="black"/>
</svg>
