<svg width="157" height="70" viewBox="0 0 157 70" fill="none" xmlns="http://www.w3.org/2000/svg">
<g clip-path="url(#clip0_956_11085)">
<path d="M38.2406 58.9037C38.2406 57.982 37.5615 57.2544 36.6883 57.2544H23.1057C22.2325 57.2544 21.5534 57.982 21.5534 58.9037V59.6314C21.5534 60.553 22.2325 61.2807 23.1057 61.2807H36.6883C37.5615 61.2807 38.2406 60.553 38.2406 59.6314V58.9037Z" fill="#040505"/>
<path d="M38.5796 60.1165H21.2133C20.5826 60.1165 20.0005 59.8739 19.661 59.4858H40.1804C39.7923 59.8739 39.2587 60.1165 38.5796 60.1165Z" fill="#989695"/>
<path d="M140.547 58.9037C140.547 57.982 139.868 57.2544 138.995 57.2544H125.412C124.539 57.2544 123.86 57.982 123.86 58.9037V59.6314C123.86 60.553 124.539 61.2807 125.412 61.2807H138.995C139.868 61.2807 140.547 60.553 140.547 59.6314V58.9037Z" fill="#040505"/>
<path d="M140.886 60.1165H123.471C122.84 60.1165 122.258 59.8739 121.919 59.4858H142.486C142.098 59.8739 141.565 60.1165 140.886 60.1165Z" fill="#989695"/>
<path d="M38.2406 10.5399C38.2406 11.4616 37.5615 12.1892 36.6883 12.1892H23.1057C22.2325 12.1892 21.5534 11.4616 21.5534 10.5399V9.81228C21.5534 8.8906 22.2325 8.16296 23.1057 8.16296H36.6883C37.5615 8.16296 38.2406 8.8906 38.2406 9.81228V10.5399Z" fill="#040505"/>
<path d="M38.5796 9.27875H21.2133C20.5826 9.27875 20.0005 9.52129 19.661 9.90937H40.1804C39.7923 9.5698 39.2587 9.27875 38.5796 9.27875Z" fill="#989695"/>
<path d="M140.547 10.5399C140.547 11.4616 139.868 12.1892 138.995 12.1892H125.412C124.539 12.1892 123.86 11.4616 123.86 10.5399V9.81228C123.86 8.8906 124.539 8.16296 125.412 8.16296H138.995C139.868 8.16296 140.547 8.8906 140.547 9.81228V10.5399Z" fill="#040505"/>
<path d="M140.886 9.27875H123.471C122.84 9.27875 122.258 9.52129 121.919 9.90937H142.486C142.098 9.5698 141.565 9.27875 140.886 9.27875Z" fill="#989695"/>
<path d="M154.906 18.9804L154.566 17.9617C153.839 15.7302 152.432 13.7413 150.637 12.2861C148.163 10.2972 144.864 9.8606 141.711 9.8606H133.61H129.778H-1.14878C-3.81679 9.8606 -5.9512 11.995 -5.9512 14.663V34.6004V54.5377C-5.9512 57.2057 -3.81679 59.3401 -1.14878 59.3401H129.778H133.61H141.711C144.864 59.3401 148.163 58.9035 150.637 56.9147C152.48 55.4594 153.839 53.519 154.566 51.2391L154.906 50.2204C155.876 47.1643 156.41 44.0112 156.41 40.8096V34.6489V28.3912C156.41 25.1895 155.876 22.0364 154.906 18.9804Z" fill="#CBC8C6"/>
<path d="M-1.29431 54.5863V34.649V14.7117C-1.29431 12.0437 0.840102 9.90924 3.50811 9.90924H-1.14878C-3.81679 9.90924 -5.9512 12.0437 -5.9512 14.7117V34.649V54.5863C-5.9512 57.2544 -3.81679 59.3888 -1.14878 59.3888H3.50811C0.888611 59.3888 -1.29431 57.2544 -1.29431 54.5863Z" fill="#333232"/>
<path d="M62.2042 10.4913C62.2042 10.2487 62.3982 10.0062 62.6893 10.0062L78.0668 10.0062C78.3093 10.0062 78.5518 10.2002 78.5518 10.4913L78.5518 11.1219C78.5518 11.3644 78.3578 11.607 78.0668 11.607L62.6893 11.607C62.4468 11.607 62.2042 11.4129 62.2042 11.1219L62.2042 10.4913Z" fill="#546472"/>
<path d="M82.0448 10.4913C82.0448 10.2487 82.2388 10.0062 82.5299 10.0062L97.9073 10.0062C98.1499 10.0062 98.3924 10.2002 98.3924 10.4913L98.3924 11.1219C98.3924 11.3644 98.1984 11.607 97.9073 11.607L82.5299 11.607C82.2873 11.607 82.0448 11.4129 82.0448 11.1219L82.0448 10.4913Z" fill="#546472"/>
<path d="M5.44846 10.4913C5.44846 10.2487 6.1761 10.0062 7.04926 10.0062L57.8385 10.0062C58.7117 10.0062 59.4393 10.2002 59.4393 10.4913L59.4393 11.1219C59.4393 11.3644 58.7117 11.607 57.8385 11.607L7.04926 11.607C6.1761 11.607 5.44846 11.4129 5.44846 11.1219L5.44846 10.4913Z" fill="#546472"/>
<path d="M2.53778 19.6595C2.53778 21.1148 3.702 22.279 5.15728 22.279H118.912C120.367 22.279 121.531 21.1148 121.531 19.6595C121.531 18.2043 120.367 17.04 118.912 17.04H5.15728C3.702 17.04 2.53778 18.2043 2.53778 19.6595Z" fill="#989695"/>
<path d="M5.15728 17.6708H118.912C120.27 17.6708 121.337 18.6895 121.483 19.9508C121.483 19.8538 121.531 19.7567 121.531 19.6112C121.531 18.1559 120.367 16.9917 118.912 16.9917H5.15728C3.702 16.9917 2.53778 18.1559 2.53778 19.6112C2.53778 19.7082 2.53778 19.8052 2.58629 19.9508C2.73182 18.6895 3.84753 17.6708 5.15728 17.6708Z" fill="#ADABAA"/>
<path d="M5.15728 27.6636H118.912C120.27 27.6636 121.337 28.6823 121.483 29.9436C121.483 29.8465 121.531 29.7495 121.531 29.604C121.531 28.1487 120.367 26.9845 118.912 26.9845H5.15728C3.702 26.9845 2.53778 28.1487 2.53778 29.604C2.53778 29.701 2.53778 29.798 2.58629 29.9436C2.73182 28.6823 3.84753 27.6636 5.15728 27.6636Z" fill="#ADABAA"/>
<path d="M2.53778 29.6525C2.53778 31.1078 3.702 32.272 5.15728 32.272H118.912C120.367 32.272 121.531 31.1078 121.531 29.6525C121.531 28.1972 120.367 27.033 118.912 27.033H5.15728C3.702 27.033 2.53778 28.1972 2.53778 29.6525Z" fill="#989695"/>
<path d="M129.681 10.9281C128.42 10.6856 123.326 11.6557 123.229 11.6557H107.852C107.609 11.6557 107.367 11.4617 107.367 11.1706V10.54C107.367 10.2975 107.561 10.0549 107.852 10.0549H122.065H123.229H129.632C129.875 10.0549 130.02 10.249 130.02 10.443C130.069 10.6856 129.923 10.9281 129.681 10.9281Z" fill="#546472"/>
<path d="M5.15728 27.6636H118.912C120.27 27.6636 121.337 28.6823 121.483 29.9436C121.483 29.8465 121.531 29.7495 121.531 29.604C121.531 28.1487 120.367 26.9845 118.912 26.9845H5.15728C3.702 26.9845 2.53778 28.1487 2.53778 29.604C2.53778 29.701 2.53778 29.798 2.58629 29.9436C2.73182 28.6823 3.84753 27.6636 5.15728 27.6636Z" fill="#ADABAA"/>
<path d="M132.882 10.5397C132.252 10.5397 131.718 10.5882 131.185 10.6853C130.02 10.7823 127.207 11.704 126.14 12.0435C125.897 12.1405 125.897 12.3831 126.043 12.5771C127.158 14.2264 128.371 18.7378 128.371 18.7378C129.244 23.0066 130.457 28.5852 130.7 34.6489C130.457 40.7125 129.244 46.2911 128.371 50.5599C128.371 50.5599 127.158 55.1198 126.043 56.7206C125.897 56.9147 125.946 57.2057 126.14 57.2542C127.255 57.6423 130.02 58.5155 131.185 58.6125C131.67 58.7095 132.252 58.758 132.882 58.758C142.972 58.758 145.689 48.0375 145.786 34.6489C145.737 21.2603 142.972 10.5397 132.882 10.5397Z" fill="#546472"/>
<path d="M62.2042 58.8552C62.2042 59.0978 62.3983 59.3403 62.6893 59.3403L78.0668 59.3403C78.3093 59.3403 78.5519 59.1463 78.5519 58.8552L78.5519 58.2246C78.5519 57.982 78.3578 57.7395 78.0668 57.7395L62.6893 57.7395C62.4468 57.7395 62.2042 57.9335 62.2042 58.2246L62.2042 58.8552Z" fill="#546472"/>
<path d="M82.0448 58.8552C82.0448 59.0978 82.2388 59.3403 82.5299 59.3403L97.9074 59.3403C98.1499 59.3403 98.3924 59.1463 98.3924 58.8552L98.3924 58.2246C98.3924 57.982 98.1984 57.7395 97.9074 57.7395L82.5299 57.7395C82.2873 57.7395 82.0448 57.9335 82.0448 58.2246L82.0448 58.8552Z" fill="#546472"/>
<path d="M5.44846 58.8552C5.44846 59.0978 6.1761 59.3403 7.04926 59.3403L57.8385 59.3403C58.7117 59.3403 59.4393 59.1463 59.4393 58.8552L59.4393 58.2246C59.4393 57.982 58.7117 57.7395 57.8385 57.7395L7.04926 57.7395C6.1761 57.7395 5.44846 57.9335 5.44846 58.2246L5.44846 58.8552Z" fill="#546472"/>
<path d="M2.53778 49.6385C2.53778 48.1833 3.702 47.019 5.15728 47.019H118.912C120.367 47.019 121.531 48.1833 121.531 49.6385C121.531 51.0938 120.367 52.258 118.912 52.258H5.15728C3.702 52.258 2.53778 51.0938 2.53778 49.6385Z" fill="#989695"/>
<path d="M5.15728 51.6274H118.912C120.27 51.6274 121.337 50.6087 121.483 49.3474C121.483 49.4444 121.531 49.5415 121.531 49.687C121.531 51.1423 120.367 52.3065 118.912 52.3065H5.15728C3.702 52.3065 2.53778 51.1423 2.53778 49.687C2.53778 49.59 2.53778 49.4929 2.58629 49.3474C2.73182 50.6087 3.84753 51.6274 5.15728 51.6274Z" fill="#ADABAA"/>
<path d="M5.15728 41.6344H118.912C120.27 41.6344 121.337 40.6157 121.483 39.3544C121.483 39.4514 121.531 39.5485 121.531 39.694C121.531 41.1493 120.367 42.3135 118.912 42.3135H5.15728C3.702 42.3135 2.53778 41.1493 2.53778 39.694C2.53778 39.597 2.53778 39.5 2.58629 39.3544C2.73182 40.6157 3.84753 41.6344 5.15728 41.6344Z" fill="#ADABAA"/>
<path d="M2.53778 39.6454C2.53778 38.1901 3.702 37.0259 5.15728 37.0259H118.912C120.367 37.0259 121.531 38.1901 121.531 39.6454C121.531 41.1007 120.367 42.2649 118.912 42.2649H5.15728C3.702 42.2649 2.53778 41.1007 2.53778 39.6454Z" fill="#989695"/>
<path d="M129.681 58.3701C128.42 58.6126 123.326 57.6425 123.229 57.6425H107.852C107.609 57.6425 107.367 57.8365 107.367 58.1275V58.7582C107.367 59.0007 107.561 59.2433 107.852 59.2433H122.065H123.229H129.632C129.875 59.2433 130.02 59.0492 130.02 58.8552C130.069 58.6126 129.923 58.3701 129.681 58.3701Z" fill="#546472"/>
<path d="M124.102 56.9148C124.199 56.5752 124.539 56.3326 124.878 56.3326C124.975 56.3326 125.024 56.3326 125.121 56.3812L133.61 58.8551C133.95 58.9521 133.61 59.0977 133.61 59.3887H129.778L124.636 57.8849C124.199 57.7394 123.957 57.3028 124.102 56.9148Z" fill="#CBC8C6"/>
<path d="M12.433 56.4782C12.433 56.1387 12.724 55.8476 13.0636 55.8476H123.713C124.247 55.8476 124.781 56.0901 125.12 56.4782C125.314 56.7208 125.169 57.1088 124.829 57.1088H13.1121C12.724 57.1088 12.433 56.8178 12.433 56.4782Z" fill="#989695"/>
<path d="M13.1126 56.8177H124.878C125.072 56.8177 125.169 56.7207 125.218 56.5752C125.315 56.8177 125.121 57.1088 124.878 57.1088H13.1126C12.7731 57.1088 12.482 56.8177 12.482 56.4782C12.482 56.4297 12.482 56.3812 12.5305 56.3326C12.5305 56.6237 12.7731 56.8177 13.1126 56.8177Z" fill="#ADABAA"/>
<path d="M155.487 24.4621C155.148 21.9396 152.819 20.2903 150.297 20.2903H149.472C147.338 20.2903 145.834 22.3277 146.174 24.4621C146.368 25.7233 146.465 26.9846 146.465 28.2458V34.649V41.0523C146.465 42.3135 146.368 43.5748 146.174 44.836C145.883 46.9704 147.338 49.0078 149.472 49.0078H150.297C152.819 49.0078 155.148 47.3585 155.487 44.836C155.681 43.5748 155.778 42.3135 155.778 41.0523V34.649V28.2458C155.778 26.9846 155.681 25.7233 155.487 24.4621Z" fill="#E0DEDD"/>
<path d="M149.86 48.6197C147.726 48.6197 146.222 46.5823 146.562 44.4479C146.756 43.1866 146.853 41.9254 146.853 40.6641V34.649V28.6338C146.853 27.3726 146.756 26.1113 146.562 24.8501C146.271 22.7157 147.726 20.6783 149.86 20.6783H150.685C152.092 20.6783 153.401 21.1634 154.372 22.0365C153.401 20.9208 151.898 20.2417 150.297 20.2417H149.472C147.338 20.2417 145.834 22.2791 146.174 24.4135C146.368 25.6747 146.465 26.936 146.465 28.1972V34.6005V41.0037C146.465 42.2649 146.368 43.5262 146.174 44.7874C145.883 46.9218 147.338 48.9592 149.472 48.9592H150.297C151.898 48.9592 153.401 48.2801 154.372 47.1644C153.401 48.0375 152.092 48.5226 150.685 48.5226H149.86V48.6197Z" fill="#ADABAA"/>
<path d="M130.699 63.5121C130.699 63.2211 130.457 62.9785 130.166 62.9785C129.875 62.9785 129.584 63.2211 129.584 63.5121L129.584 63.9972C129.584 64.2883 129.826 64.5308 130.117 64.5308C130.408 64.5308 130.699 64.2883 130.699 63.9972L130.699 63.5121Z" fill="#2D2D2D"/>
<path d="M129.584 59.34C129.584 59.049 129.826 58.7579 130.166 58.7579C130.457 58.7579 130.748 59.0005 130.748 59.34L130.748 63.2208C130.748 63.5118 130.505 63.8029 130.166 63.8029C129.875 63.8029 129.584 63.5604 129.584 63.2208L129.584 59.34Z" fill="#2D2D2D"/>
<path d="M127.739 61.232L127.739 66.1799L128.66 66.1799L129.582 65.2098L129.582 62.2022L128.66 61.232L127.739 61.232Z" fill="#CBC8C6"/>
<path d="M128.905 61.3777C128.905 61.0866 128.662 60.8441 128.371 60.8441L127.352 60.8441C127.061 60.8441 126.819 61.0866 126.819 61.3777L126.819 65.986C126.819 66.2771 127.061 66.5196 127.352 66.5196L128.371 66.5196C128.662 66.5196 128.905 66.2771 128.905 65.986L128.905 61.3777Z" fill="#989695"/>
<path d="M5.15728 41.6344H118.912C120.27 41.6344 121.337 40.6157 121.483 39.3544C121.483 39.4514 121.531 39.5485 121.531 39.694C121.531 41.1493 120.367 42.3135 118.912 42.3135H5.15728C3.702 42.3135 2.53778 41.1493 2.53778 39.694C2.53778 39.597 2.53778 39.5 2.58629 39.3544C2.73182 40.6157 3.84753 41.6344 5.15728 41.6344Z" fill="#ADABAA"/>
<path d="M124.102 12.4318C124.199 12.7714 124.539 13.0139 124.878 13.0139C124.975 13.0139 125.024 13.0139 125.121 12.9654L133.61 10.4914C133.95 10.3944 133.61 10.2489 133.61 9.95782H129.778L124.636 11.4616C124.199 11.5586 123.957 11.9952 124.102 12.4318Z" fill="#CBC8C6"/>
<path d="M130.699 5.78603C130.699 6.07709 130.457 6.31963 130.166 6.31963C129.875 6.31963 129.584 6.07709 129.584 5.78603L129.584 5.30094C129.584 5.00988 129.826 4.76733 130.117 4.76733C130.408 4.76733 130.699 5.00988 130.699 5.30094L130.699 5.78603Z" fill="#2D2D2D"/>
<path d="M129.584 9.95785C129.584 10.2489 129.826 10.54 130.166 10.54C130.457 10.54 130.748 10.2974 130.748 9.95785L130.748 6.07711C130.748 5.78605 130.505 5.495 130.166 5.495C129.875 5.495 129.584 5.73754 129.584 6.07711L129.584 9.95785Z" fill="#2D2D2D"/>
<path d="M127.739 8.06581L127.739 3.11786L128.66 3.11786L129.582 4.08805L129.582 7.09562L128.66 8.06581L127.739 8.06581Z" fill="#CBC8C6"/>
<path d="M128.905 7.92036C128.905 8.21141 128.662 8.45396 128.371 8.45396L127.353 8.45396C127.062 8.45396 126.819 8.21141 126.819 7.92036L126.819 3.26346C126.819 2.97241 127.062 2.72986 127.353 2.72986L128.371 2.72986C128.662 2.72986 128.905 2.97241 128.905 3.26346L128.905 7.92036Z" fill="#989695"/>
<path d="M12.433 12.8197C12.433 13.1593 12.724 13.4503 13.0636 13.4503H123.713C124.247 13.4503 124.781 13.2078 125.12 12.8197C125.314 12.5772 125.169 12.1891 124.829 12.1891H13.1121C12.724 12.1891 12.433 12.4801 12.433 12.8197Z" fill="#989695"/>
<path d="M13.1126 12.4801H124.878C125.072 12.4801 125.169 12.5772 125.218 12.7227C125.315 12.4801 125.121 12.1891 124.878 12.1891H13.1126C12.7731 12.1891 12.482 12.4801 12.482 12.8197C12.482 12.8682 12.482 12.9167 12.5305 12.9652C12.5305 12.6742 12.7731 12.4801 13.1126 12.4801Z" fill="#ADABAA"/>
<path d="M154.081 18.5924C154.178 18.8835 153.839 19.126 153.596 18.9805C151.995 18.1558 148.309 15.8274 146.417 11.5585C146.271 11.2675 146.562 10.9279 146.902 11.0734C148.503 11.6556 152.141 13.5959 154.081 18.5924Z" fill="#BFD8E3"/>
<path d="M154.081 50.8027C154.178 50.5116 153.839 50.2691 153.596 50.4146C151.995 51.2393 148.309 53.5677 146.417 57.8365C146.271 58.1276 146.562 58.4671 146.902 58.3216C148.503 57.7395 152.141 55.7991 154.081 50.8027Z" fill="#BFD8E3"/>
<path d="M145.106 41.6828L142.535 48.4741L142.972 48.7167L145.591 41.7798L145.106 41.6828Z" fill="#2E2F2E"/>
<path d="M141.953 54.3923C141.808 54.3438 141.759 54.2468 141.759 54.1013L143.506 39.8395C143.506 39.694 143.651 39.597 143.797 39.597C143.942 39.597 144.039 39.7425 144.039 39.888L142.293 54.1498C142.293 54.3438 142.147 54.4408 141.953 54.3923C142.002 54.4408 142.002 54.3923 141.953 54.3923Z" fill="#2E2F2E"/>
<path d="M142.099 54.1983L143.845 39.9365C143.845 39.8395 143.942 39.7425 143.991 39.7425C143.942 39.694 143.894 39.6455 143.797 39.597C143.651 39.597 143.506 39.694 143.506 39.8395L141.759 54.1013C141.759 54.2468 141.808 54.3438 141.953 54.3923L142.002 54.3923C142.05 54.3923 142.099 54.3923 142.147 54.3438C142.147 54.3438 142.099 54.2953 142.099 54.1983Z" fill="#8B8C8B"/>
<path d="M144.476 22.9097L143.748 30.7682L144.185 31.0108L144.961 22.9097L144.476 22.9097Z" fill="#2E2F2E"/>
<path d="M144.185 36.6864C144.039 36.6864 143.942 36.5409 143.942 36.4438L143.166 22.1336C143.166 21.9881 143.263 21.8425 143.409 21.8425C143.554 21.8425 143.7 21.9395 143.7 22.0851L144.427 36.3953C144.476 36.5409 144.379 36.6864 144.185 36.6864Z" fill="#2E2F2E"/>
<path d="M144.282 36.4923L143.554 22.1335C143.554 22.0365 143.603 21.9395 143.7 21.891C143.651 21.8425 143.554 21.7939 143.457 21.7939C143.311 21.7939 143.166 21.9395 143.214 22.085L143.942 36.3953C143.942 36.5408 144.039 36.6378 144.185 36.6378L144.233 36.6378C144.282 36.6378 144.33 36.5893 144.379 36.5893C144.33 36.5893 144.282 36.5408 144.282 36.4923Z" fill="#8B8C8B"/>
</g>
<defs>
<clipPath id="clip0_956_11085">
<rect width="70" height="156.562" fill="white" transform="translate(157) rotate(90)"/>
</clipPath>
</defs>
</svg>
