<svg width="157" height="70" viewBox="0 0 157 70" fill="none" xmlns="http://www.w3.org/2000/svg">
<path d="M155.267 52.6786C154.315 52.6786 153.533 51.6349 153.533 50.3349L153.533 20.6173C153.533 19.3173 154.315 18.2736 155.267 18.2736C156.219 18.2736 157 19.3173 157 20.6173L157 50.3349C157 51.6349 156.231 52.6786 155.267 52.6786Z" fill="#385459"/>
<path d="M148.688 58.7576C150.824 57.3111 155.572 52.3673 155.877 49.7489C156.109 47.8081 155.999 39.8431 155.926 35.8698C155.999 31.75 156.109 23.4737 155.877 21.4413C155.572 18.7131 150.836 13.5862 148.688 12.0665C146.551 10.5467 127.278 9.64953 127.278 9.64953L127.278 33.5993L127.278 38.2318L127.278 61.083C127.278 61.083 146.551 60.2041 148.688 58.7576Z" fill="#6EAAF2"/>
<path d="M154.449 35.3754C154.449 35.3754 154.803 24.9935 153.875 22.9977C152.948 21.0019 140.033 13.3665 140.033 13.3665L139.46 35.3571L154.449 35.3571L154.449 35.3754Z" fill="#7FB8EF"/>
<path d="M154.449 35.3754C154.449 35.3754 154.803 45.7572 153.875 47.7531C152.948 49.7489 140.021 57.3843 140.021 57.3843L139.447 35.3936L154.449 35.3936L154.449 35.3754Z" fill="#7FB8EF"/>
<path d="M127.583 57.549C126.57 57.549 125.752 56.0842 125.752 54.2898L125.752 16.4609C125.752 14.6665 126.57 13.2017 127.583 13.2017L139.423 13.2017C140.436 13.2017 141.254 14.6665 141.254 16.4609L141.254 54.2898C141.254 56.0842 140.436 57.549 139.423 57.549L127.583 57.549Z" fill="#40413C"/>
<path d="M126.106 55.6448C125.093 55.6448 124.275 54.2898 124.275 52.6053L124.275 17.4863C124.275 15.8201 125.093 14.4468 126.106 14.4468L137.946 14.4468C138.959 14.4468 139.777 15.8018 139.777 17.4863L139.777 52.6053C139.777 54.2715 138.959 55.6448 137.946 55.6448L126.106 55.6448Z" fill="#385459"/>
<path d="M129.988 61.0646C133.918 60.6252 137.067 49.2911 137.067 35.357C137.067 21.423 133.918 10.0889 129.988 9.64949L129.988 9.63116L105.807 9.63116L105.807 61.0646L129.988 61.0646Z" fill="#6EAAF2"/>
<path d="M126.509 17.5961C129.939 17.9806 132.685 27.8132 132.685 39.898C132.685 47.0939 131.709 53.4842 130.195 57.5674C133.296 56.0293 135.676 46.746 135.676 35.4852C135.676 23.4004 132.929 13.5679 129.499 13.1834L129.499 13.165L108.419 13.165L108.419 17.5778L126.509 17.5778L126.509 17.5961Z" fill="#7FB8EF"/>
<path d="M116.573 49.8405C115.56 49.8405 114.742 48.3756 114.742 46.5812L114.742 28.0879C114.742 26.2935 115.56 24.8287 116.573 24.8287L122.688 24.8287C123.701 24.8287 124.519 26.2935 124.519 28.0879L124.519 46.5812C124.519 48.3756 123.701 49.8405 122.688 49.8405L116.573 49.8405Z" fill="#158BED"/>
<path d="M117.415 49.8405C116.402 49.8405 115.584 48.3756 115.584 46.5812L115.584 28.0879C115.584 26.2935 116.402 24.8287 117.415 24.8287L123.531 24.8287C124.544 24.8287 125.361 26.2935 125.361 28.0879L125.361 46.5812C125.361 48.3756 124.544 49.8405 123.531 49.8405L117.415 49.8405Z" fill="#7FB8EF"/>
<path d="M105.386 67.1015L105.386 2.58081L0.437515 2.58081L0.437512 67.1015L105.386 67.1015Z" fill="#E2E0C9"/>
<path d="M91.8066 67.0887L91.8066 3.02118L90.0122 3.02118L90.0122 67.0887L91.8066 67.0887Z" fill="#CECDB6"/>
<path d="M73.5461 67.0887L73.5461 3.02118L71.7518 3.02118L71.7518 67.0887L73.5461 67.0887Z" fill="#CECDB6"/>
<path d="M55.2856 67.0887L55.2856 3.02118L53.4912 3.02118L53.4912 67.0887L55.2856 67.0887Z" fill="#CECDB6"/>
<path d="M37.0372 67.0887L37.0372 3.02118L35.2429 3.02118L35.2429 67.0887L37.0372 67.0887Z" fill="#CECDB6"/>
<path d="M18.7767 67.0887L18.7767 3.02118L16.9824 3.02118L16.9824 67.0887L18.7767 67.0887Z" fill="#CECDB6"/>
<path d="M139.582 14.3552L141.205 9.15514L140.973 -1.01373e-08L140.131 0.219736L140.509 8.67905L138.349 13.3116L139.582 14.3552Z" fill="#40413C"/>
<path d="M139.582 55.6448L141.205 60.8449L140.973 70L140.131 69.7803L140.509 61.3209L138.349 56.6884L139.582 55.6448Z" fill="#40413C"/>
</svg>
