<svg width="157" height="70" viewBox="0 0 157 70" fill="none" xmlns="http://www.w3.org/2000/svg">
<path d="M100.676 50.3568L100.676 19.5911L87.3171 19.5911L87.3171 50.3568L100.676 50.3568Z" fill="#385459"/>
<path d="M147.313 59.3198C147.313 59.3198 150.768 58.7735 152.293 57.6937C158.67 53.1797 158.467 17.7569 152.293 12.2412C150.952 11.0444 147.313 10.6151 147.313 10.6151L108.633 10.6802C108.633 10.6802 102.661 10.1208 101.264 12.2282C99.8677 14.3486 100.658 34.9545 100.658 34.9545C100.658 34.9545 99.8677 55.5603 101.264 57.6807C102.661 59.8012 108.633 59.2288 108.633 59.2288L147.313 59.3198Z" fill="#40413C"/>
<path d="M143.436 59.3198C143.436 59.3198 146.891 58.7735 148.416 57.6937C154.792 53.1797 154.59 17.7569 148.416 12.2412C147.074 11.0444 143.436 10.6151 143.436 10.6151L104.756 10.6802C104.756 10.6802 98.7834 10.1208 97.3869 12.2282C95.9904 14.3486 96.7805 34.9545 96.7805 34.9545C96.7805 34.9545 95.9904 55.5603 97.3869 57.6807C98.7834 59.8012 104.756 59.2288 104.756 59.2288L143.436 59.3198Z" fill="#E2E0C9"/>
<path d="M129.379 52.5423C129.985 52.2431 132.631 41.8491 132.631 34.9675C132.631 27.7867 129.967 17.7049 129.379 17.3927C128.772 17.0935 103.469 16.6251 101.871 17.3927C100.272 18.1602 100.272 51.7748 101.871 52.5293C103.469 53.3098 128.791 52.8545 129.379 52.5423Z" fill="white"/>
<path d="M146.983 53.8302C147.148 53.3748 148.195 49.134 148.636 44.646C149.059 40.2881 148.894 36.0602 148.857 35.0325L148.93 35.0325C148.93 35.0325 149.022 30.1933 148.324 25.1979C147.699 20.7359 146.486 16.5211 146.303 16.0658C145.898 15.1292 132.65 17.5488 132.65 17.5488C132.65 17.5488 134.083 21.5295 135.167 26.5248C136.012 30.4925 136.251 39.0002 135.443 43.6443C134.579 48.6657 133.293 52.6724 133.293 52.6724C133.293 52.6724 146.615 54.7798 146.983 53.8302Z" fill="#385459"/>
<path d="M144.833 13.0608L130.573 16.0268L102.459 16.0268L101.558 13.0608C101.558 13.0608 115.616 13.0738 120.797 13.0608C126.512 13.0608 144.833 13.0608 144.833 13.0608Z" fill="#385459"/>
<path d="M144.833 56.8742L130.573 53.9082L102.459 53.9082L101.558 56.8742C101.558 56.8742 115.616 56.8612 120.797 56.8742C126.512 56.8872 144.833 56.8742 144.833 56.8742Z" fill="#385459"/>
<path d="M98.3242 47.0396C97.9751 47.0396 97.6811 46.8965 97.6811 46.7274L97.6811 23.2076C97.6811 23.0385 97.9751 22.8954 98.3242 22.8954C98.6734 22.8954 98.9674 23.0385 98.9674 23.2076L98.9674 46.7274C98.9674 46.8965 98.6917 47.0396 98.3242 47.0396Z" fill="#385459"/>
<path d="M104.756 20.7099C104.425 20.7099 104.149 20.5928 104.149 20.4367C104.149 20.2806 104.425 20.1635 104.756 20.1635L127.578 20.1635C127.909 20.1635 128.185 20.2806 128.185 20.4367C128.185 20.5928 127.909 20.7099 127.578 20.7099L104.756 20.7099Z" fill="#D1CFBD"/>
<path d="M104.756 24.8597C104.425 24.8597 104.149 24.7426 104.149 24.5865C104.149 24.4304 104.425 24.3133 104.756 24.3133L127.578 24.3133C127.909 24.3133 128.185 24.4304 128.185 24.5865C128.185 24.7426 127.909 24.8597 127.578 24.8597L104.756 24.8597Z" fill="#D1CFBD"/>
<path d="M104.756 29.0095C104.425 29.0095 104.149 28.8924 104.149 28.7363C104.149 28.5802 104.425 28.4631 104.756 28.4631L127.578 28.4631C127.909 28.4631 128.185 28.5802 128.185 28.7363C128.185 28.8924 127.909 29.0095 127.578 29.0095L104.756 29.0095Z" fill="#D1CFBD"/>
<path d="M104.756 33.1723C104.425 33.1723 104.149 33.0552 104.149 32.8991C104.149 32.743 104.425 32.6259 104.756 32.6259L127.578 32.6259C127.909 32.6259 128.185 32.743 128.185 32.8991C128.185 33.0552 127.909 33.1723 127.578 33.1723L104.756 33.1723Z" fill="#D1CFBD"/>
<path d="M104.756 37.3221C104.425 37.3221 104.149 37.205 104.149 37.0489C104.149 36.8928 104.425 36.7757 104.756 36.7757L127.578 36.7757C127.909 36.7757 128.185 36.8928 128.185 37.0489C128.185 37.205 127.909 37.3221 127.578 37.3221L104.756 37.3221Z" fill="#D1CFBD"/>
<path d="M104.756 41.4718C104.425 41.4718 104.149 41.3548 104.149 41.1987C104.149 41.0426 104.425 40.9255 104.756 40.9255L127.578 40.9255C127.909 40.9255 128.185 41.0426 128.185 41.1987C128.185 41.3548 127.909 41.4718 127.578 41.4718L104.756 41.4718Z" fill="#D1CFBD"/>
<path d="M104.756 45.6216C104.425 45.6216 104.149 45.5045 104.149 45.3484C104.149 45.1923 104.425 45.0753 104.756 45.0753L127.578 45.0753C127.909 45.0753 128.185 45.1923 128.185 45.3484C128.185 45.5045 127.909 45.6216 127.578 45.6216L104.756 45.6216Z" fill="#D1CFBD"/>
<path d="M104.756 49.7714C104.425 49.7714 104.149 49.6543 104.149 49.4982C104.149 49.3421 104.425 49.225 104.756 49.225L127.578 49.225C127.909 49.225 128.185 49.3421 128.185 49.4982C128.185 49.6543 127.909 49.7714 127.578 49.7714L104.756 49.7714Z" fill="#D1CFBD"/>
<path d="M144.465 13.0608L147.589 8.32559L147.13 -2.00805e-08L145.494 0.20814L146.248 7.8963L140.79 13.9063L144.465 13.0608Z" fill="#40413C"/>
<path d="M144.465 56.9392L147.589 61.6874L147.13 70L145.494 69.7919L146.248 62.1037L140.79 56.1067L144.465 56.9392Z" fill="#40413C"/>
<path d="M94.4653 59.1898L94.4653 10.446L0.437531 10.446L0.437528 59.1898L94.4653 59.1898Z" fill="#E2E0C9"/>
<path d="M89.5407 54.2334L89.5407 15.3763L4.57203 15.3763L4.57203 54.2334L89.5407 54.2334Z" fill="white"/>
<path opacity="0.2" d="M148.6 27.6695L134.469 23.6368L134.965 25.6532L148.82 30.7006L148.6 27.6695Z" fill="#CECDB6"/>
<path opacity="0.2" d="M148.82 37.322L135.755 31.338L135.902 34.33L148.82 42.1353L148.82 37.322Z" fill="#CECDB6"/>
<path opacity="0.2" d="M148.526 45.6216L135.847 39.5856L135.847 40.5742L148.195 48.0673L148.526 45.6216Z" fill="#CECDB6"/>
<path d="M0.437531 10.446L4.57204 15.3763L89.5407 15.3764L89.5407 54.2465L94.4653 59.1768L94.4653 10.446L0.437531 10.446Z" fill="#B7B6A5"/>
<path d="M89.5407 17.848L89.5407 17.1455L4.57203 17.1455L4.57203 17.848L89.5407 17.848Z" fill="#E2E0C9"/>
<path d="M89.5407 20.7229L89.5407 20.0204L4.57203 20.0204L4.57203 20.7229L89.5407 20.7229Z" fill="#E2E0C9"/>
<path d="M89.5407 23.5979L89.5407 22.8954L4.57203 22.8954L4.57203 23.5979L89.5407 23.5979Z" fill="#E2E0C9"/>
<path d="M89.5407 26.4728L89.5407 25.7703L4.57203 25.7703L4.57203 26.4728L89.5407 26.4728Z" fill="#E2E0C9"/>
<path d="M89.5407 29.3477L89.5407 28.6452L4.57203 28.6452L4.57203 29.3477L89.5407 29.3477Z" fill="#E2E0C9"/>
<path d="M89.5407 32.2096L89.5407 31.5071L4.57203 31.5071L4.57203 32.2096L89.5407 32.2096Z" fill="#E2E0C9"/>
<path d="M89.5407 35.0845L89.5407 34.3821L4.57203 34.3821L4.57203 35.0845L89.5407 35.0845Z" fill="#E2E0C9"/>
<path d="M89.5407 37.9595L89.5407 37.257L4.57204 37.257L4.57204 37.9595L89.5407 37.9595Z" fill="#E2E0C9"/>
<path d="M89.5407 40.8344L89.5407 40.132L4.57204 40.132L4.57204 40.8344L89.5407 40.8344Z" fill="#E2E0C9"/>
<path d="M89.5407 43.7094L89.5407 43.0069L4.57204 43.0069L4.57204 43.7094L89.5407 43.7094Z" fill="#E2E0C9"/>
<path d="M89.5407 46.5712L89.5407 45.8688L4.57204 45.8688L4.57204 46.5712L89.5407 46.5712Z" fill="#E2E0C9"/>
<path d="M89.5407 49.4462L89.5407 48.7437L4.57204 48.7437L4.57204 49.4462L89.5407 49.4462Z" fill="#E2E0C9"/>
<path d="M89.5407 52.3211L89.5407 51.6187L4.57204 51.6186L4.57204 52.3211L89.5407 52.3211Z" fill="#E2E0C9"/>
</svg>
