<svg width="181" height="115" viewBox="0 0 181 115" fill="none" xmlns="http://www.w3.org/2000/svg">
<path fill-rule="evenodd" clip-rule="evenodd" d="M0 0L181 0V56L118 56H112C106.477 56 104 59.4772 104 65V115H76V65C76 59.4772 73.5229 56 68 56H62L0 56L0 0Z" fill="#B2B3B7"/>
<path d="M8 26H25V30H8V26Z" fill="#D9D9D9"/>
<path d="M37 26H54V30H37V26Z" fill="#D9D9D9"/>
<path d="M66 26H83V30H66V26Z" fill="#D9D9D9"/>
<path d="M95 26H112V30H95V26Z" fill="#D9D9D9"/>
<path d="M124 26H141V30H124V26Z" fill="#D9D9D9"/>
<path d="M153 26H170V30H153V26Z" fill="#D9D9D9"/>
</svg>
