<svg width="65" height="99" viewBox="0 0 65 99" fill="none" xmlns="http://www.w3.org/2000/svg">
<rect x="6.56055" y="5.36719" width="3.6" height="79.44" fill="#AEAEAE"/>
<path d="M5.83984 84.6074C5.83984 84.0551 6.28756 83.6074 6.83984 83.6074H9.87984C10.4321 83.6074 10.8798 84.0551 10.8798 84.6074V98.9681H5.83984V84.6074Z" fill="#9F9B9B"/>
<g clip-path="url(#clip0_355_39323)">
<path d="M4.94922 0.449219H64.9492V13.7826H4.94922V0.449219Z" fill="white" stroke="black" stroke-width="3"/>
<path d="M5.88281 7.11537L10.7495 1.58203H5.88281V12.6487H10.7495M15.5495 12.6487L10.6828 7.11537L15.5495 1.58203H25.2828L20.4161 7.11537L25.2828 12.6487M30.0828 12.6487L25.2161 7.11537L30.0828 1.58203H39.8161L44.6828 7.11537L39.8161 12.6487M44.6161 12.6487L49.4828 7.11537L44.6161 1.58203H54.3495L59.2161 7.11537L54.3495 12.6487M59.1495 12.6487L64.0161 7.11537L59.1495 1.58203H63.9495V12.6487" fill="#FF0000"/>
</g>
<defs>
<clipPath id="clip0_355_39323">
<rect width="60" height="13.3333" fill="white" transform="translate(4.94922 0.449219)"/>
</clipPath>
</defs>
</svg>
