<svg width="64" height="99" viewBox="0 0 64 99" fill="none" xmlns="http://www.w3.org/2000/svg">
<rect x="5.56055" y="5.36719" width="3.6" height="79.44" fill="#AEAEAE"/>
<path d="M4.83984 84.6074C4.83984 84.0551 5.28756 83.6074 5.83984 83.6074H8.87984C9.43213 83.6074 9.87984 84.0551 9.87984 84.6074V98.9681H4.83984V84.6074Z" fill="#9F9B9B"/>
<g clip-path="url(#clip0_355_39344)">
<path d="M64 0.339844H4V13.6732H64V0.339844Z" fill="white"/>
<path d="M63.0329 1.45117V12.5623H58.1942L53.3555 7.00673L58.1942 1.45117H63.0329Z" fill="#FF0000"/>
<path d="M53.354 1.45117L48.5153 7.00673L53.354 12.5623H43.6766L38.8379 7.00673L43.6766 1.45117H53.354Z" fill="#FF0000"/>
<path d="M38.8384 1.45117L33.9997 7.00673L38.8384 12.5623H29.161L24.3223 7.00673L29.161 1.45117H38.8384Z" fill="#FF0000"/>
<path d="M24.3228 1.45117L19.4841 7.00673L24.3228 12.5623H14.6453L9.80664 7.00673L14.6453 1.45117H24.3228Z" fill="#FF0000"/>
<path d="M9.80551 1.45117L4.9668 7.00673L9.80551 12.5623H4.9668V1.45117H9.80551Z" fill="#FF0000"/>
<path d="M63.974 0.367188H4.02734V13.6472H63.974V0.367188Z" stroke="black" stroke-width="2"/>
</g>
<defs>
<clipPath id="clip0_355_39344">
<rect width="60" height="13.3333" fill="white" transform="translate(4 0.339844)"/>
</clipPath>
</defs>
</svg>
