<svg width="119" height="161" viewBox="0 0 119 161" fill="none" xmlns="http://www.w3.org/2000/svg">
<rect x="4.94922" y="11.0078" width="83.0504" height="2.64341" fill="#9F9B9B"/>
<rect x="4.94922" y="16.5371" width="83.0504" height="2.64341" fill="#9F9B9B"/>
<rect x="4.94922" y="52.582" width="83.0504" height="2.64341" fill="#9F9B9B"/>
<rect x="4.94922" y="58.1094" width="83.0504" height="2.64341" fill="#9F9B9B"/>
<rect x="2" y="5" width="4.07972" height="155" fill="#AEAEAE"/>
<rect x="2" y="5" width="4.07972" height="6.24806" fill="#AEAEAE"/>
<g clip-path="url(#clip0_355_31250)">
<path d="M90.8994 0.619141H16.9532C15.909 0.619141 15.0625 1.76677 15.0625 3.18243V88.0558C15.0625 89.4715 15.909 90.6191 16.9532 90.6191H90.8994C91.9436 90.6191 92.79 89.4715 92.79 88.0558V3.18243C92.79 1.76677 91.9436 0.619141 90.8994 0.619141Z" fill="white"/>
<path fill-rule="evenodd" clip-rule="evenodd" d="M16.4412 3.18251C16.4412 2.33047 17.1247 1.64453 17.9737 1.64453H90.2353C91.0843 1.64453 91.7677 2.33047 91.7677 3.18251V88.0559C91.7677 88.908 91.0843 89.5939 90.2353 89.5939H73.8557V16.7964H78.0326L71.5056 5.45031L64.9786 16.7964H69.1555V25.7252L54.7074 33.1143C54.1489 32.8137 53.5107 32.6426 52.8326 32.6426C50.6384 32.6426 48.8597 34.4277 48.8597 36.6299C48.8597 37.9842 49.5339 39.1792 50.5624 39.8999V62.3233C49.5339 63.044 48.8597 64.239 48.8597 65.5933C48.8597 67.7954 50.6384 69.5806 52.8326 69.5806C53.5113 69.5806 54.1503 69.41 54.7092 69.1089L69.1555 76.4962V89.5939H17.9737C17.1247 89.5939 16.4412 88.908 16.4412 88.0559V3.18251ZM56.7666 37.1746L69.1555 30.8393V71.3821L56.7666 65.0486C56.613 63.9216 55.9909 62.9456 55.1029 62.3233V39.8999C55.9909 39.2776 56.613 38.3016 56.7666 37.1746ZM50.4205 36.6299C50.4205 35.2929 51.5004 34.209 52.8326 34.209C54.1648 34.209 55.2448 35.2929 55.2448 36.6299C55.2448 37.7031 54.5483 38.6124 53.5847 38.9297L52.1941 38.9636C51.172 38.6825 50.4205 37.7449 50.4205 36.6299ZM50.4205 65.5933C50.4205 64.2563 51.5004 63.1724 52.8326 63.1724C54.1648 63.1724 55.2448 64.2563 55.2448 65.5933C55.2448 66.9303 54.1648 68.0142 52.8326 68.0142C51.5004 68.0142 50.4205 66.9303 50.4205 65.5933Z" fill="#0D69E1"/>
<path d="M84.2749 50.7461C84.2749 57.8245 78.5575 63.5626 71.5046 63.5626C64.4518 63.5626 58.7344 57.8245 58.7344 50.7461C58.7344 43.6678 64.4518 37.9297 71.5046 37.9297C78.5575 37.9297 84.2749 43.6678 84.2749 50.7461Z" fill="white"/>
<path d="M71.5046 37.9297C64.4518 37.9297 58.7344 43.6678 58.7344 50.7461C58.7344 57.8245 64.4518 63.5626 71.5046 63.5626C78.5575 63.5626 84.2749 57.8245 84.2749 50.7461C84.2749 43.6678 78.5575 37.9297 71.5046 37.9297ZM71.5046 40.0966C77.365 40.0966 82.1158 44.8646 82.1158 50.7461C82.1158 56.6277 77.365 61.3957 71.5046 61.3957C65.6443 61.3957 60.8935 56.6277 60.8935 50.7461C60.8935 44.8646 65.6443 40.0966 71.5046 40.0966Z" fill="#FF0000"/>
<path d="M68.9492 40.9082L71.5061 43.4743L74.063 40.9082H68.9492Z" fill="black"/>
<path d="M68.9492 60.5818L71.5061 58.0156L74.063 60.5818H68.9492Z" fill="black"/>
<path d="M65.6426 44.3582L66.1212 45.4358C66.3692 45.2167 66.6106 45.0576 66.8457 44.9586C67.0807 44.8596 67.3739 44.811 67.7254 44.8126C67.9612 44.8183 68.1687 44.8978 68.3479 45.0511C68.5272 45.2045 68.6215 45.3977 68.6309 45.6305C68.6196 45.9146 68.4611 46.1872 68.1555 46.4485C67.8499 46.7098 67.465 46.8916 67.0009 46.9938V47.9935C67.0928 47.95 67.1936 47.9235 67.3033 47.914C67.413 47.9045 67.5235 47.9007 67.6348 47.9026C68.2032 47.9275 68.5638 48.066 68.7166 48.3181C68.8694 48.5702 68.9357 48.7866 68.9155 48.9673C68.8961 49.3868 68.7377 49.6935 68.4401 49.8875C68.1426 50.0814 67.7836 50.1772 67.3631 50.1747C67.0543 50.1766 66.7309 50.1469 66.3929 50.0855C66.0549 50.0241 65.7703 49.9197 65.5391 49.7723L65.6943 51.0446C65.7261 51.0576 65.9439 51.1096 66.3476 51.2004C66.7513 51.2913 67.1502 51.3433 67.5442 51.3562C68.408 51.3259 69.0673 51.0684 69.5219 50.5837C69.9766 50.099 70.2057 49.5689 70.2092 48.9932C70.1959 48.6005 70.0774 48.2752 69.8537 48.0171C69.63 47.759 69.3812 47.5615 69.1072 47.4247C68.8332 47.2878 68.6141 47.2047 68.4498 47.1756C68.8271 47.1226 69.1592 46.9332 69.4459 46.6075C69.7327 46.2819 69.8836 45.8653 69.8987 45.3579C69.8745 44.8518 69.6642 44.452 69.2681 44.1585C68.8719 43.8651 68.4353 43.7152 67.9582 43.709C67.5731 43.719 67.1532 43.7931 66.6985 43.9313C66.2438 44.0696 65.8919 44.2118 65.6426 44.3582Z" fill="black"/>
<path d="M71.8092 49.6543C71.5856 49.66 71.3996 49.7373 71.2511 49.8863C71.1027 50.0353 71.0257 50.2219 71.02 50.4463C71.0244 50.651 71.0898 50.8253 71.2165 50.9692C71.3431 51.113 71.5048 51.2003 71.7016 51.231L70.9941 52.3549H71.5892C71.6799 52.2225 71.8414 51.9647 72.0735 51.5814C72.3057 51.1981 72.4526 50.9383 72.5142 50.8021C72.5361 50.7462 72.5554 50.6889 72.572 50.6302C72.5887 50.5714 72.5974 50.5101 72.5983 50.4463C72.5926 50.2219 72.5156 50.0353 72.3672 49.8863C72.2187 49.7373 72.0327 49.66 71.8092 49.6543Z" fill="black"/>
<path d="M77.2814 45.0858L77.6436 43.9043H73.478V47.4488L74.293 47.9032C74.3836 47.8407 74.5194 47.7385 74.7005 47.5965C74.8816 47.4545 75.108 47.3749 75.3797 47.3579C75.7891 47.3749 76.1022 47.5226 76.3192 47.801C76.5362 48.0793 76.6456 48.386 76.6475 48.7212C76.6248 49.1756 76.4437 49.5164 76.1041 49.7436C75.7645 49.9708 75.4023 50.0844 75.0175 50.0844C74.7129 50.0879 74.4067 50.0647 74.0989 50.0146C73.7912 49.9646 73.5238 49.8667 73.2969 49.7209L73.478 50.9024C73.4987 50.9175 73.6836 50.9781 74.0326 51.0841C74.3817 51.1902 74.7703 51.2508 75.1986 51.2659C76.0683 51.247 76.7512 50.9895 77.2474 50.4934C77.7436 49.9973 77.9964 49.3763 78.0058 48.6303C77.9775 47.8994 77.7398 47.339 77.2927 46.9489C76.8456 46.5589 76.3588 46.362 75.8325 46.3582C75.6193 46.3544 75.4053 46.3847 75.1905 46.4491C74.9757 46.5134 74.7973 46.6346 74.6552 46.8126V45.0858H77.2814Z" fill="black"/>
<path d="M69.3594 56.7767H70.1904L70.3981 54.0663L71.5061 56.2903L72.6141 54.0663L72.8218 56.7767H73.6528L73.3066 52.8848H72.4756L71.5061 54.8308L70.5366 52.8848H69.7056L69.3594 56.7767Z" fill="black"/>
<path d="M90.8843 0.675781H16.9118C15.8905 0.675781 15.0625 1.7979 15.0625 3.18211V88.0555C15.0625 89.4397 15.8905 90.5619 16.9118 90.5619H90.8843C91.9057 90.5619 92.7336 89.4397 92.7336 88.0555V3.18211C92.7336 1.7979 91.9057 0.675781 90.8843 0.675781Z" stroke="black" stroke-width="2"/>
<path d="M28.5828 24.9354C28.5828 25.3534 28.5309 25.7272 28.427 26.0569C28.3232 26.3866 28.1687 26.667 27.9636 26.898C27.7585 27.1265 27.5041 27.3017 27.2004 27.4237C26.8992 27.5432 26.5501 27.6029 26.1529 27.6029C25.7609 27.6029 25.4182 27.5523 25.1248 27.451C24.8341 27.3472 24.5913 27.1901 24.3966 26.9798C24.2019 26.7695 24.0552 26.5021 23.9566 26.1776C23.8605 25.8531 23.8125 25.4689 23.8125 25.025C23.8125 24.6174 23.8644 24.2513 23.9683 23.9268C24.0721 23.5997 24.2266 23.3219 24.4317 23.0935C24.6368 22.865 24.8899 22.6898 25.191 22.5678C25.4948 22.4458 25.8465 22.3848 26.2463 22.3848C26.6279 22.3848 26.9641 22.4354 27.2549 22.5366C27.5482 22.6379 27.7923 22.7936 27.987 23.0039C28.1843 23.2142 28.3323 23.4803 28.4309 23.8022C28.5322 24.1215 28.5828 24.4993 28.5828 24.9354ZM27.508 24.9899C27.508 24.7251 27.4872 24.485 27.4457 24.2695C27.4042 24.0514 27.3328 23.8658 27.2315 23.7127C27.1329 23.5569 27.0005 23.4375 26.8343 23.3544C26.6682 23.2687 26.4605 23.2259 26.2113 23.2259C25.9595 23.2259 25.7492 23.2739 25.5804 23.37C25.4117 23.4634 25.2754 23.5893 25.1715 23.7477C25.0677 23.9061 24.9937 24.0917 24.9496 24.3046C24.908 24.5148 24.8873 24.7381 24.8873 24.9743C24.8873 25.2495 24.908 25.4975 24.9496 25.7181C24.9911 25.9362 25.0612 26.1231 25.1599 26.2789C25.2585 26.4346 25.3909 26.5541 25.5571 26.6371C25.7232 26.7176 25.9322 26.7579 26.184 26.7579C26.4358 26.7579 26.6461 26.7111 26.8149 26.6177C26.9836 26.5242 27.1199 26.397 27.2237 26.236C27.3276 26.0751 27.4003 25.8882 27.4418 25.6753C27.4859 25.4598 27.508 25.2314 27.508 24.9899Z" fill="white"/>
<path d="M32.8975 24.0047C32.8975 24.2877 32.8533 24.5382 32.7651 24.7563C32.6768 24.9743 32.5483 25.1587 32.3795 25.3092C32.2108 25.4572 32.0031 25.5701 31.7565 25.648C31.5125 25.7259 31.2243 25.7649 30.892 25.7649H30.4714V27.3731C30.4714 27.3991 30.4623 27.4224 30.4442 27.4432C30.4286 27.464 30.4013 27.4809 30.3624 27.4938C30.3235 27.5068 30.2715 27.5172 30.2066 27.525C30.1417 27.5328 30.0587 27.5367 29.9574 27.5367C29.8588 27.5367 29.7757 27.5328 29.7082 27.525C29.6433 27.5172 29.5914 27.5068 29.5524 27.4938C29.5135 27.4809 29.4862 27.464 29.4706 27.4432C29.4551 27.4224 29.4473 27.3991 29.4473 27.3731V22.8404C29.4473 22.7184 29.4784 22.6275 29.5407 22.5678C29.6056 22.5055 29.69 22.4743 29.7939 22.4743H30.9816C31.101 22.4743 31.2139 22.4795 31.3203 22.4899C31.4294 22.4977 31.5592 22.5172 31.7098 22.5483C31.8603 22.5769 32.0122 22.6314 32.1654 22.7119C32.3211 22.7923 32.4535 22.8949 32.5626 23.0195C32.6716 23.1415 32.7547 23.2856 32.8118 23.4518C32.8689 23.6153 32.8975 23.7996 32.8975 24.0047ZM31.8266 24.0787C31.8266 23.9022 31.7954 23.7568 31.7331 23.6426C31.6708 23.5283 31.5942 23.444 31.5034 23.3894C31.4125 23.3349 31.3165 23.3012 31.2152 23.2882C31.1166 23.2726 31.014 23.2648 30.9076 23.2648H30.4714V24.9743H30.9309C31.0945 24.9743 31.2308 24.9523 31.3398 24.9081C31.4514 24.864 31.5423 24.803 31.6124 24.7251C31.6825 24.6446 31.7357 24.5499 31.7721 24.4409C31.8084 24.3292 31.8266 24.2085 31.8266 24.0787Z" fill="white"/>
<path d="M37.0057 22.8949C37.0057 22.9702 37.0019 23.0351 36.9941 23.0896C36.9889 23.1415 36.9798 23.1844 36.9668 23.2181C36.9538 23.2493 36.937 23.2726 36.9162 23.2882C36.898 23.3038 36.8772 23.3116 36.8539 23.3116H35.5922V27.3731C35.5922 27.3991 35.5831 27.4224 35.5649 27.4432C35.5493 27.464 35.5221 27.4809 35.4831 27.4938C35.4442 27.5068 35.391 27.5172 35.3235 27.525C35.2586 27.5328 35.1768 27.5367 35.0782 27.5367C34.9795 27.5367 34.8964 27.5328 34.8289 27.525C34.764 27.5172 34.7121 27.5068 34.6732 27.4938C34.6342 27.4809 34.6057 27.464 34.5875 27.4432C34.5719 27.4224 34.5641 27.3991 34.5641 27.3731V23.3116H33.3024C33.2765 23.3116 33.2544 23.3038 33.2362 23.2882C33.2181 23.2726 33.2025 23.2493 33.1895 23.2181C33.1765 23.1844 33.1662 23.1415 33.1584 23.0896C33.1532 23.0351 33.1506 22.9702 33.1506 22.8949C33.1506 22.817 33.1532 22.7508 33.1584 22.6963C33.1662 22.6418 33.1765 22.5989 33.1895 22.5678C33.2025 22.534 33.2181 22.5107 33.2362 22.4977C33.2544 22.4821 33.2765 22.4743 33.3024 22.4743H36.8539C36.8772 22.4743 36.898 22.4821 36.9162 22.4977C36.937 22.5107 36.9538 22.534 36.9668 22.5678C36.9798 22.5989 36.9889 22.6418 36.9941 22.6963C37.0019 22.7508 37.0057 22.817 37.0057 22.8949Z" fill="white"/>
<path d="M41.1841 27.1317C41.2153 27.2251 41.2348 27.2991 41.2425 27.3537C41.2503 27.4082 41.2399 27.4497 41.2114 27.4783C41.1828 27.5042 41.1322 27.5198 41.0595 27.525C40.9868 27.5328 40.8869 27.5367 40.7597 27.5367C40.6273 27.5367 40.5234 27.5341 40.4481 27.5289C40.3755 27.5263 40.3196 27.5198 40.2807 27.5094C40.2418 27.4964 40.2145 27.4796 40.1989 27.4588C40.1833 27.438 40.1704 27.4108 40.16 27.377L39.8212 26.3645H37.9287L37.6093 27.3498C37.5989 27.3861 37.5847 27.4173 37.5665 27.4432C37.5509 27.4666 37.5237 27.4861 37.4847 27.5016C37.4484 27.5146 37.3952 27.5237 37.3251 27.5289C37.2576 27.5341 37.168 27.5367 37.0564 27.5367C36.937 27.5367 36.8435 27.5328 36.776 27.525C36.7085 27.5172 36.6618 27.499 36.6358 27.4705C36.6098 27.4393 36.6008 27.3965 36.6085 27.342C36.6163 27.2875 36.6358 27.2148 36.667 27.1239L38.2207 22.6535C38.2363 22.6093 38.2545 22.5743 38.2752 22.5483C38.296 22.5198 38.3284 22.499 38.3726 22.486C38.4193 22.4704 38.4829 22.4613 38.5634 22.4588C38.6439 22.4536 38.7503 22.451 38.8827 22.451C39.0359 22.451 39.1579 22.4536 39.2488 22.4588C39.3396 22.4613 39.4097 22.4704 39.459 22.486C39.511 22.499 39.5473 22.5198 39.5681 22.5483C39.5914 22.5769 39.6109 22.6158 39.6265 22.6651L41.1841 27.1317ZM38.871 23.4362H38.8671L38.1545 25.5779H39.5836L38.871 23.4362Z" fill="white"/>
<path d="M45.8064 27.3809C45.8064 27.4069 45.7986 27.4302 45.7831 27.451C45.7675 27.4692 45.7402 27.4848 45.7013 27.4977C45.6624 27.5107 45.6091 27.5198 45.5416 27.525C45.4767 27.5328 45.395 27.5367 45.2963 27.5367C45.1951 27.5367 45.112 27.5328 45.0471 27.525C44.9822 27.5198 44.9303 27.5107 44.8913 27.4977C44.8524 27.4848 44.8251 27.4692 44.8095 27.451C44.794 27.4302 44.7862 27.4069 44.7862 27.3809V23.3155H43.7036C43.6309 23.91 43.5569 24.4292 43.4817 24.8731C43.4064 25.317 43.3259 25.6974 43.2402 26.0141C43.1545 26.3308 43.0598 26.5904 42.9559 26.7929C42.8547 26.9954 42.7379 27.1563 42.6055 27.2758C42.4757 27.3926 42.3277 27.4731 42.1615 27.5172C41.998 27.5613 41.8111 27.5834 41.6008 27.5834C41.5619 27.5834 41.5281 27.5782 41.4995 27.5678C41.471 27.5574 41.4476 27.538 41.4295 27.5094C41.4139 27.4809 41.4022 27.4406 41.3944 27.3887C41.3866 27.3368 41.3827 27.2706 41.3827 27.1901C41.3827 27.0785 41.3853 26.9889 41.3905 26.9214C41.3957 26.8513 41.4048 26.7981 41.4178 26.7617C41.4308 26.7228 41.4476 26.6968 41.4684 26.6839C41.4892 26.6709 41.5138 26.6644 41.5424 26.6644C41.6229 26.6644 41.6994 26.6488 41.7721 26.6177C41.8474 26.5839 41.9188 26.519 41.9863 26.423C42.0564 26.3269 42.1226 26.1919 42.1849 26.018C42.2498 25.844 42.3121 25.6156 42.3718 25.3326C42.4341 25.047 42.4951 24.7005 42.5549 24.2929C42.6172 23.8827 42.6795 23.3959 42.7418 22.8326C42.7573 22.7002 42.7885 22.608 42.8352 22.5561C42.882 22.5016 42.9508 22.4743 43.0416 22.4743H45.5144C45.6078 22.4743 45.6792 22.5016 45.7286 22.5561C45.7805 22.608 45.8064 22.6885 45.8064 22.7975V27.3809Z" fill="white"/>
<path d="M52.1772 27.3809C52.1772 27.4069 52.1681 27.4302 52.1499 27.451C52.1344 27.4692 52.1071 27.4848 52.0682 27.4977C52.0292 27.5107 51.976 27.5198 51.9085 27.525C51.8436 27.5328 51.7618 27.5367 51.6632 27.5367C51.5645 27.5367 51.4828 27.5328 51.4178 27.525C51.3529 27.5198 51.2997 27.5107 51.2582 27.4977C51.2192 27.4848 51.1907 27.4692 51.1725 27.451C51.1569 27.4302 51.1492 27.4069 51.1492 27.3809V22.6067C51.1492 22.5808 51.1569 22.5587 51.1725 22.5405C51.1907 22.5198 51.2192 22.5029 51.2582 22.4899C51.2997 22.4769 51.3529 22.4678 51.4178 22.4626C51.4853 22.4549 51.5671 22.451 51.6632 22.451C51.7618 22.451 51.8436 22.4549 51.9085 22.4626C51.976 22.4678 52.0292 22.4769 52.0682 22.4899C52.1071 22.5029 52.1344 22.5198 52.1499 22.5405C52.1681 22.5587 52.1772 22.5808 52.1772 22.6067V27.3809ZM50.5378 25.8505C50.5378 26.0894 50.5001 26.3087 50.4249 26.5086C50.3522 26.7059 50.2366 26.8786 50.0783 27.0265C49.9199 27.1745 49.7122 27.2926 49.4552 27.3809C49.2008 27.4692 48.8529 27.5133 48.4116 27.5133H47.2239C47.1798 27.5133 47.1382 27.5081 47.0993 27.4977C47.0629 27.4848 47.0305 27.4653 47.0019 27.4393C46.9734 27.4108 46.95 27.377 46.9318 27.3381C46.9163 27.2965 46.9085 27.2472 46.9085 27.1901V22.6067C46.9085 22.5808 46.9163 22.5587 46.9318 22.5405C46.95 22.5198 46.9786 22.5029 47.0175 22.4899C47.059 22.4769 47.1123 22.4678 47.1772 22.4626C47.2447 22.4549 47.3264 22.451 47.4225 22.451C47.5237 22.451 47.6068 22.4549 47.6717 22.4626C47.7366 22.4678 47.7885 22.4769 47.8275 22.4899C47.8664 22.5029 47.8937 22.5198 47.9093 22.5405C47.9248 22.5587 47.9326 22.5808 47.9326 22.6067V24.3474H48.5674C48.9438 24.3474 49.2436 24.3798 49.4669 24.4448C49.6928 24.5097 49.8836 24.6057 50.0393 24.7329C50.1977 24.8601 50.3197 25.0185 50.4054 25.208C50.4936 25.3975 50.5378 25.6117 50.5378 25.8505ZM49.4864 25.9362C49.4864 25.8116 49.4682 25.7 49.4319 25.6013C49.3955 25.5027 49.3397 25.4183 49.2644 25.3482C49.1891 25.2781 49.0931 25.2236 48.9762 25.1846C48.8594 25.1457 48.6868 25.1262 48.4583 25.1262H47.9326V26.7267H48.4739C48.7127 26.7267 48.8919 26.7033 49.0113 26.6566C49.1333 26.6073 49.2281 26.545 49.2956 26.4697C49.3631 26.3918 49.4111 26.3061 49.4396 26.2127C49.4708 26.1192 49.4864 26.0271 49.4864 25.9362Z" fill="white"/>
<path d="M57.2281 22.6325L55.4508 24.9772L56.6676 26.6247H57.7613V28.9352H56.7633V27.5133H56.1481L54.3776 25.0387V27.5133H53.3454V22.6325H54.3776V24.9977L56.1276 22.6325H57.2281Z" fill="white"/>
<path d="M28.575 36.6762C28.575 36.7021 28.5685 36.7242 28.5555 36.7424C28.5425 36.7605 28.5192 36.7748 28.4854 36.7852C28.4543 36.7982 28.4088 36.8073 28.3491 36.8124C28.292 36.8202 28.2193 36.8241 28.1311 36.8241C28.0428 36.8241 27.9701 36.8202 27.913 36.8124C27.8559 36.8073 27.8092 36.7982 27.7728 36.7852C27.7391 36.7748 27.7144 36.7605 27.6988 36.7424C27.6858 36.7242 27.6794 36.7021 27.6794 36.6762V35.4884H24.346C24.2551 35.4884 24.1824 35.4625 24.1279 35.4106C24.076 35.356 24.05 35.2743 24.05 35.1652V30.5819C24.05 30.5559 24.0578 30.5338 24.0734 30.5157C24.0916 30.4949 24.1201 30.478 24.1591 30.465C24.198 30.4521 24.2499 30.443 24.3148 30.4378C24.3823 30.43 24.4654 30.4261 24.5641 30.4261C24.6653 30.4261 24.7484 30.43 24.8133 30.4378C24.8782 30.443 24.9301 30.4521 24.9691 30.465C25.008 30.478 25.0353 30.4949 25.0508 30.5157C25.0664 30.5338 25.0742 30.5559 25.0742 30.5819V34.6395H26.9356V30.5819C26.9356 30.5559 26.9434 30.5338 26.9589 30.5157C26.9771 30.4949 27.0057 30.478 27.0446 30.465C27.0836 30.4521 27.1355 30.443 27.2004 30.4378C27.2679 30.43 27.3509 30.4261 27.4496 30.4261C27.5508 30.4261 27.6339 30.43 27.6988 30.4378C27.7637 30.443 27.8156 30.4521 27.8546 30.465C27.8935 30.478 27.9208 30.4949 27.9364 30.5157C27.9519 30.5338 27.9597 30.5559 27.9597 30.5819V34.6395H28.4037C28.4686 34.6395 28.5127 34.6551 28.5361 34.6863C28.562 34.7148 28.575 34.7693 28.575 34.8498V36.6762Z" fill="white"/>
<path d="M32.2861 35.0874C32.2861 35.1626 32.2822 35.2262 32.2744 35.2782C32.2692 35.3275 32.2601 35.3677 32.2471 35.3989C32.2342 35.43 32.2173 35.4534 32.1965 35.469C32.1783 35.482 32.1576 35.4884 32.1342 35.4884H29.603C29.5174 35.4884 29.4447 35.4638 29.385 35.4145C29.3279 35.3625 29.2993 35.2795 29.2993 35.1652V30.7727C29.2993 30.6585 29.3279 30.5767 29.385 30.5274C29.4447 30.4754 29.5174 30.4495 29.603 30.4495H32.1186C32.142 30.4495 32.1628 30.456 32.1809 30.4689C32.1991 30.4819 32.2147 30.5053 32.2277 30.539C32.2407 30.5702 32.2497 30.6117 32.2549 30.6636C32.2627 30.713 32.2666 30.7766 32.2666 30.8545C32.2666 30.9271 32.2627 30.9895 32.2549 31.0414C32.2497 31.0907 32.2407 31.1309 32.2277 31.1621C32.2147 31.1932 32.1991 31.2166 32.1809 31.2322C32.1628 31.2452 32.142 31.2517 32.1186 31.2517H30.3196V32.4822H31.8422C31.8655 32.4822 31.8863 32.49 31.9045 32.5056C31.9252 32.5185 31.9421 32.5406 31.9551 32.5718C31.9681 32.6003 31.9772 32.6406 31.9823 32.6925C31.9901 32.7418 31.994 32.8028 31.994 32.8755C31.994 32.9508 31.9901 33.0131 31.9823 33.0624C31.9772 33.1117 31.9681 33.152 31.9551 33.1831C31.9421 33.2117 31.9252 33.2325 31.9045 33.2454C31.8863 33.2584 31.8655 33.2649 31.8422 33.2649H30.3196V34.6863H32.1342C32.1576 34.6863 32.1783 34.694 32.1965 34.7096C32.2173 34.7226 32.2342 34.7447 32.2471 34.7758C32.2601 34.807 32.2692 34.8485 32.2744 34.9004C32.2822 34.9498 32.2861 35.0121 32.2861 35.0874Z" fill="white"/>
<path d="M37.1265 35.3483C37.1265 35.3742 37.1174 35.3976 37.0992 35.4184C37.0836 35.4391 37.0564 35.456 37.0174 35.469C36.9785 35.482 36.9266 35.4923 36.8617 35.5001C36.7968 35.5079 36.715 35.5118 36.6163 35.5118C36.5151 35.5118 36.4307 35.5079 36.3632 35.5001C36.2983 35.4923 36.2464 35.482 36.2075 35.469C36.1711 35.456 36.1439 35.4391 36.1257 35.4184C36.1101 35.3976 36.1023 35.3742 36.1023 35.3483V33.3116H34.2176V35.3483C34.2176 35.3742 34.2098 35.3976 34.1942 35.4184C34.1786 35.4391 34.1514 35.456 34.1124 35.469C34.0735 35.482 34.0216 35.4923 33.9567 35.5001C33.8918 35.5079 33.8087 35.5118 33.7074 35.5118C33.6088 35.5118 33.5257 35.5079 33.4582 35.5001C33.3933 35.4923 33.3414 35.482 33.3024 35.469C33.2635 35.456 33.2349 35.4391 33.2168 35.4184C33.2012 35.3976 33.1934 35.3742 33.1934 35.3483V30.5897C33.1934 30.5637 33.2012 30.5403 33.2168 30.5196C33.2349 30.4988 33.2635 30.4819 33.3024 30.4689C33.3414 30.456 33.3933 30.4456 33.4582 30.4378C33.5257 30.43 33.6088 30.4261 33.7074 30.4261C33.8087 30.4261 33.8918 30.43 33.9567 30.4378C34.0216 30.4456 34.0735 30.456 34.1124 30.4689C34.1514 30.4819 34.1786 30.4988 34.1942 30.5196C34.2098 30.5403 34.2176 30.5637 34.2176 30.5897V32.4394H36.1023V30.5897C36.1023 30.5637 36.1101 30.5403 36.1257 30.5196C36.1439 30.4988 36.1711 30.4819 36.2075 30.4689C36.2464 30.456 36.2983 30.4456 36.3632 30.4378C36.4307 30.43 36.5151 30.4261 36.6163 30.4261C36.715 30.4261 36.7968 30.43 36.8617 30.4378C36.9266 30.4456 36.9785 30.456 37.0174 30.4689C37.0564 30.4819 37.0836 30.4988 37.0992 30.5196C37.1174 30.5403 37.1265 30.5637 37.1265 30.5897V35.3483Z" fill="white"/>
<path d="M41.5774 30.87C41.5774 30.9453 41.5735 31.0102 41.5658 31.0647C41.5606 31.1167 41.5515 31.1595 41.5385 31.1932C41.5255 31.2244 41.5086 31.2478 41.4879 31.2633C41.4697 31.2789 41.4489 31.2867 41.4256 31.2867H40.1639V35.3483C40.1639 35.3742 40.1548 35.3976 40.1366 35.4184C40.121 35.4391 40.0938 35.456 40.0548 35.469C40.0159 35.482 39.9627 35.4923 39.8952 35.5001C39.8303 35.5079 39.7485 35.5118 39.6498 35.5118C39.5512 35.5118 39.4681 35.5079 39.4006 35.5001C39.3357 35.4923 39.2838 35.482 39.2449 35.469C39.2059 35.456 39.1774 35.4391 39.1592 35.4184C39.1436 35.3976 39.1358 35.3742 39.1358 35.3483V31.2867H37.8741C37.8482 31.2867 37.8261 31.2789 37.8079 31.2633C37.7898 31.2478 37.7742 31.2244 37.7612 31.1932C37.7482 31.1595 37.7378 31.1167 37.7301 31.0647C37.7249 31.0102 37.7223 30.9453 37.7223 30.87C37.7223 30.7922 37.7249 30.726 37.7301 30.6714C37.7378 30.6169 37.7482 30.5741 37.7612 30.5429C37.7742 30.5092 37.7898 30.4858 37.8079 30.4728C37.8261 30.4573 37.8482 30.4495 37.8741 30.4495H41.4256C41.4489 30.4495 41.4697 30.4573 41.4879 30.4728C41.5086 30.4858 41.5255 30.5092 41.5385 30.5429C41.5515 30.5741 41.5606 30.6169 41.5658 30.6714C41.5735 30.726 41.5774 30.7922 41.5774 30.87Z" fill="white"/>
<path d="M45.6234 31.9799C45.6234 32.2628 45.5793 32.5133 45.491 32.7314C45.4027 32.9495 45.2742 33.1338 45.1055 33.2844C44.9368 33.4324 44.7291 33.5453 44.4824 33.6232C44.2384 33.7011 43.9502 33.74 43.6179 33.74H43.1974V35.3483C43.1974 35.3742 43.1883 35.3976 43.1701 35.4184C43.1545 35.4391 43.1273 35.456 43.0883 35.469C43.0494 35.482 42.9975 35.4923 42.9326 35.5001C42.8677 35.5079 42.7846 35.5118 42.6834 35.5118C42.5847 35.5118 42.5016 35.5079 42.4341 35.5001C42.3692 35.4923 42.3173 35.482 42.2784 35.469C42.2394 35.456 42.2122 35.4391 42.1966 35.4184C42.181 35.3976 42.1732 35.3742 42.1732 35.3483V30.8155C42.1732 30.6935 42.2044 30.6026 42.2667 30.5429C42.3316 30.4806 42.416 30.4495 42.5198 30.4495H43.7075C43.8269 30.4495 43.9399 30.4547 44.0463 30.465C44.1553 30.4728 44.2851 30.4923 44.4357 30.5235C44.5863 30.552 44.7382 30.6065 44.8913 30.687C45.0471 30.7675 45.1795 30.87 45.2885 30.9946C45.3976 31.1167 45.4806 31.2607 45.5377 31.4269C45.5949 31.5904 45.6234 31.7748 45.6234 31.9799ZM44.5525 32.0538C44.5525 31.8773 44.5214 31.7319 44.4591 31.6177C44.3968 31.5035 44.3202 31.4191 44.2293 31.3646C44.1385 31.3101 44.0424 31.2763 43.9412 31.2633C43.8425 31.2478 43.74 31.24 43.6335 31.24H43.1974V32.9495H43.6569C43.8204 32.9495 43.9567 32.9274 44.0658 32.8833C44.1774 32.8392 44.2683 32.7781 44.3384 32.7003C44.4085 32.6198 44.4617 32.525 44.498 32.416C44.5344 32.3044 44.5525 32.1836 44.5525 32.0538Z" fill="white"/>
<path d="M24.6238 74.5487C24.6238 74.9667 24.5719 75.3405 24.468 75.6702C24.3642 75.9999 24.2097 76.2803 24.0046 76.5113C23.7995 76.7398 23.5451 76.915 23.2414 77.037C22.9402 77.1564 22.5911 77.2162 22.1939 77.2162C21.8019 77.2162 21.4592 77.1655 21.1658 77.0643C20.8751 76.9604 20.6323 76.8034 20.4376 76.5931C20.2429 76.3828 20.0962 76.1154 19.9976 75.7909C19.9015 75.4664 19.8535 75.0822 19.8535 74.6383C19.8535 74.2307 19.9054 73.8646 20.0093 73.5401C20.1131 73.213 20.2676 72.9352 20.4727 72.7068C20.6778 72.4783 20.9309 72.3031 21.232 72.1811C21.5358 72.0591 21.8875 71.998 22.2873 71.998C22.669 71.998 23.0051 72.0487 23.2959 72.1499C23.5893 72.2512 23.8333 72.4069 24.028 72.6172C24.2253 72.8275 24.3733 73.0936 24.4719 73.4155C24.5732 73.7348 24.6238 74.1125 24.6238 74.5487ZM23.549 74.6032C23.549 74.3384 23.5283 74.0983 23.4867 73.8828C23.4452 73.6647 23.3738 73.4791 23.2725 73.3259C23.1739 73.1702 23.0415 73.0508 22.8753 72.9677C22.7092 72.882 22.5015 72.8392 22.2523 72.8392C22.0005 72.8392 21.7902 72.8872 21.6214 72.9833C21.4527 73.0767 21.3164 73.2026 21.2126 73.361C21.1087 73.5193 21.0347 73.705 20.9906 73.9178C20.9491 74.1281 20.9283 74.3514 20.9283 74.5876C20.9283 74.8628 20.9491 75.1107 20.9906 75.3314C21.0321 75.5495 21.1022 75.7364 21.2009 75.8922C21.2995 76.0479 21.4319 76.1673 21.5981 76.2504C21.7642 76.3309 21.9732 76.3711 22.225 76.3711C22.4768 76.3711 22.6871 76.3244 22.8559 76.2309C23.0246 76.1375 23.1609 76.0103 23.2648 75.8493C23.3686 75.6884 23.4413 75.5014 23.4828 75.2886C23.527 75.0731 23.549 74.8446 23.549 74.6032Z" fill="white"/>
<path d="M28.9385 73.618C28.9385 73.901 28.8943 74.1515 28.8061 74.3696C28.7178 74.5876 28.5893 74.772 28.4206 74.9225C28.2518 75.0705 28.0441 75.1834 27.7975 75.2613C27.5535 75.3392 27.2653 75.3781 26.933 75.3781H26.5124V76.9864C26.5124 77.0124 26.5034 77.0357 26.4852 77.0565C26.4696 77.0773 26.4424 77.0941 26.4034 77.1071C26.3645 77.1201 26.3125 77.1305 26.2476 77.1383C26.1827 77.1461 26.0997 77.15 25.9984 77.15C25.8998 77.15 25.8167 77.1461 25.7492 77.1383C25.6843 77.1305 25.6324 77.1201 25.5934 77.1071C25.5545 77.0941 25.5272 77.0773 25.5117 77.0565C25.4961 77.0357 25.4883 77.0124 25.4883 76.9864V72.4537C25.4883 72.3316 25.5194 72.2408 25.5818 72.1811C25.6467 72.1188 25.731 72.0876 25.8349 72.0876H27.0226C27.142 72.0876 27.2549 72.0928 27.3614 72.1032C27.4704 72.111 27.6002 72.1304 27.7508 72.1616C27.9013 72.1902 28.0532 72.2447 28.2064 72.3252C28.3621 72.4056 28.4945 72.5082 28.6036 72.6328C28.7126 72.7548 28.7957 72.8989 28.8528 73.065C28.9099 73.2286 28.9385 73.4129 28.9385 73.618ZM27.8676 73.692C27.8676 73.5155 27.8364 73.3701 27.7741 73.2558C27.7118 73.1416 27.6352 73.0572 27.5444 73.0027C27.4535 72.9482 27.3575 72.9145 27.2562 72.9015C27.1576 72.8859 27.055 72.8781 26.9486 72.8781H26.5124V74.5876H26.9719C27.1355 74.5876 27.2718 74.5656 27.3808 74.5214C27.4925 74.4773 27.5833 74.4163 27.6534 74.3384C27.7235 74.2579 27.7767 74.1632 27.8131 74.0541C27.8494 73.9425 27.8676 73.8218 27.8676 73.692Z" fill="white"/>
<path d="M33.0468 72.5082C33.0468 72.5835 33.0429 72.6484 33.0351 72.7029C33.0299 72.7548 33.0208 72.7976 33.0078 72.8314C32.9948 72.8625 32.978 72.8859 32.9572 72.9015C32.939 72.9171 32.9183 72.9248 32.8949 72.9248H31.6332V76.9864C31.6332 77.0124 31.6241 77.0357 31.6059 77.0565C31.5904 77.0773 31.5631 77.0941 31.5242 77.1071C31.4852 77.1201 31.432 77.1305 31.3645 77.1383C31.2996 77.1461 31.2178 77.15 31.1192 77.15C31.0205 77.15 30.9375 77.1461 30.87 77.1383C30.8051 77.1305 30.7531 77.1201 30.7142 77.1071C30.6752 77.0941 30.6467 77.0773 30.6285 77.0565C30.6129 77.0357 30.6052 77.0124 30.6052 76.9864V72.9248H29.3435C29.3175 72.9248 29.2954 72.9171 29.2773 72.9015C29.2591 72.8859 29.2435 72.8625 29.2305 72.8314C29.2176 72.7976 29.2072 72.7548 29.1994 72.7029C29.1942 72.6484 29.1916 72.5835 29.1916 72.5082C29.1916 72.4303 29.1942 72.3641 29.1994 72.3096C29.2072 72.2551 29.2176 72.2122 29.2305 72.1811C29.2435 72.1473 29.2591 72.124 29.2773 72.111C29.2954 72.0954 29.3175 72.0876 29.3435 72.0876H32.8949C32.9183 72.0876 32.939 72.0954 32.9572 72.111C32.978 72.124 32.9948 72.1473 33.0078 72.1811C33.0208 72.2122 33.0299 72.2551 33.0351 72.3096C33.0429 72.3641 33.0468 72.4303 33.0468 72.5082Z" fill="white"/>
<path d="M37.2251 76.745C37.2563 76.8384 37.2758 76.9124 37.2836 76.9669C37.2913 77.0214 37.281 77.063 37.2524 77.0915C37.2238 77.1175 37.1732 77.1331 37.1005 77.1383C37.0278 77.1461 36.9279 77.15 36.8007 77.15C36.6683 77.15 36.5644 77.1474 36.4892 77.1422C36.4165 77.1396 36.3606 77.1331 36.3217 77.1227C36.2828 77.1097 36.2555 77.0928 36.2399 77.0721C36.2244 77.0513 36.2114 77.024 36.201 76.9903L35.8622 75.9778H33.9697L33.6503 76.963C33.64 76.9994 33.6257 77.0305 33.6075 77.0565C33.5919 77.0799 33.5647 77.0993 33.5257 77.1149C33.4894 77.1279 33.4362 77.137 33.3661 77.1422C33.2986 77.1474 33.209 77.15 33.0974 77.15C32.978 77.15 32.8845 77.1461 32.817 77.1383C32.7495 77.1305 32.7028 77.1123 32.6768 77.0838C32.6509 77.0526 32.6418 77.0098 32.6496 76.9552C32.6574 76.9007 32.6768 76.828 32.708 76.7372L34.2617 72.2667C34.2773 72.2226 34.2955 72.1876 34.3162 72.1616C34.337 72.133 34.3695 72.1123 34.4136 72.0993C34.4603 72.0837 34.5239 72.0746 34.6044 72.072C34.6849 72.0668 34.7913 72.0642 34.9237 72.0642C35.0769 72.0642 35.1989 72.0668 35.2898 72.072C35.3806 72.0746 35.4507 72.0837 35.5001 72.0993C35.552 72.1123 35.5883 72.133 35.6091 72.1616C35.6325 72.1902 35.6519 72.2291 35.6675 72.2784L37.2251 76.745ZM34.912 73.0495H34.9081L34.1955 75.1912H35.6247L34.912 73.0495Z" fill="white"/>
<path d="M41.8475 76.9942C41.8475 77.0202 41.8397 77.0435 41.8241 77.0643C41.8085 77.0825 41.7813 77.098 41.7423 77.111C41.7034 77.124 41.6502 77.1331 41.5827 77.1383C41.5177 77.1461 41.436 77.15 41.3373 77.15C41.2361 77.15 41.153 77.1461 41.0881 77.1383C41.0232 77.1331 40.9713 77.124 40.9323 77.111C40.8934 77.098 40.8661 77.0825 40.8506 77.0643C40.835 77.0435 40.8272 77.0202 40.8272 76.9942V72.9287H39.7446C39.6719 73.5232 39.598 74.0425 39.5227 74.4864C39.4474 74.9303 39.3669 75.3106 39.2812 75.6274C39.1956 75.9441 39.1008 76.2037 38.997 76.4062C38.8957 76.6087 38.7789 76.7696 38.6465 76.889C38.5167 77.0059 38.3687 77.0864 38.2026 77.1305C38.039 77.1746 37.8521 77.1967 37.6418 77.1967C37.6029 77.1967 37.5691 77.1915 37.5406 77.1811C37.512 77.1707 37.4886 77.1513 37.4705 77.1227C37.4549 77.0941 37.4432 77.0539 37.4354 77.002C37.4276 76.9501 37.4237 76.8839 37.4237 76.8034C37.4237 76.6917 37.4263 76.6022 37.4315 76.5347C37.4367 76.4646 37.4458 76.4114 37.4588 76.375C37.4718 76.3361 37.4886 76.3101 37.5094 76.2971C37.5302 76.2842 37.5548 76.2777 37.5834 76.2777C37.6639 76.2777 37.7405 76.2621 37.8132 76.2309C37.8884 76.1972 37.9598 76.1323 38.0273 76.0362C38.0974 75.9402 38.1636 75.8052 38.2259 75.6313C38.2908 75.4573 38.3531 75.2289 38.4128 74.9459C38.4752 74.6603 38.5362 74.3137 38.5959 73.9062C38.6582 73.496 38.7205 73.0092 38.7828 72.4459C38.7984 72.3135 38.8295 72.2213 38.8762 72.1694C38.923 72.1149 38.9918 72.0876 39.0826 72.0876H41.5554C41.6489 72.0876 41.7202 72.1149 41.7696 72.1694C41.8215 72.2213 41.8475 72.3018 41.8475 72.4108V76.9942Z" fill="white"/>
<path d="M48.2182 76.9942C48.2182 77.0202 48.2091 77.0435 48.191 77.0643C48.1754 77.0825 48.1481 77.098 48.1092 77.111C48.0702 77.124 48.017 77.1331 47.9495 77.1383C47.8846 77.1461 47.8028 77.15 47.7042 77.15C47.6055 77.15 47.5238 77.1461 47.4589 77.1383C47.394 77.1331 47.3407 77.124 47.2992 77.111C47.2603 77.098 47.2317 77.0825 47.2135 77.0643C47.198 77.0435 47.1902 77.0202 47.1902 76.9942V72.22C47.1902 72.1941 47.198 72.172 47.2135 72.1538C47.2317 72.133 47.2603 72.1162 47.2992 72.1032C47.3407 72.0902 47.394 72.0811 47.4589 72.0759C47.5264 72.0681 47.6081 72.0642 47.7042 72.0642C47.8028 72.0642 47.8846 72.0681 47.9495 72.0759C48.017 72.0811 48.0702 72.0902 48.1092 72.1032C48.1481 72.1162 48.1754 72.133 48.191 72.1538C48.2091 72.172 48.2182 72.1941 48.2182 72.22V76.9942ZM46.5788 75.4638C46.5788 75.7026 46.5412 75.922 46.4659 76.1219C46.3932 76.3192 46.2777 76.4919 46.1193 76.6398C45.9609 76.7878 45.7532 76.9059 45.4962 76.9942C45.2418 77.0825 44.8939 77.1266 44.4526 77.1266H43.2649C43.2208 77.1266 43.1792 77.1214 43.1403 77.111C43.104 77.098 43.0715 77.0786 43.0429 77.0526C43.0144 77.024 42.991 76.9903 42.9728 76.9514C42.9573 76.9098 42.9495 76.8605 42.9495 76.8034V72.22C42.9495 72.1941 42.9573 72.172 42.9728 72.1538C42.991 72.133 43.0196 72.1162 43.0585 72.1032C43.1001 72.0902 43.1533 72.0811 43.2182 72.0759C43.2857 72.0681 43.3675 72.0642 43.4635 72.0642C43.5648 72.0642 43.6478 72.0681 43.7127 72.0759C43.7776 72.0811 43.8296 72.0902 43.8685 72.1032C43.9074 72.1162 43.9347 72.133 43.9503 72.1538C43.9658 72.172 43.9736 72.1941 43.9736 72.22V73.9607H44.6084C44.9848 73.9607 45.2847 73.9931 45.5079 74.058C45.7338 74.1229 45.9246 74.219 46.0803 74.3462C46.2387 74.4734 46.3607 74.6318 46.4464 74.8213C46.5347 75.0108 46.5788 75.225 46.5788 75.4638ZM45.5274 75.5495C45.5274 75.4249 45.5092 75.3132 45.4729 75.2146C45.4365 75.1159 45.3807 75.0316 45.3054 74.9615C45.2301 74.8914 45.1341 74.8369 45.0173 74.7979C44.9004 74.759 44.7278 74.7395 44.4993 74.7395H43.9736V76.34H44.5149C44.7538 76.34 44.9329 76.3166 45.0523 76.2699C45.1743 76.2206 45.2691 76.1583 45.3366 76.083C45.4041 76.0051 45.4521 75.9194 45.4807 75.826C45.5118 75.7325 45.5274 75.6403 45.5274 75.5495Z" fill="white"/>
<path d="M53.2692 72.2458L51.4918 74.5905L52.7086 76.2379H53.8024V78.5484H52.8043V77.1266H52.1891L50.4186 74.652V77.1266H49.3864V72.2458H50.4186V74.611L52.1686 72.2458H53.2692Z" fill="white"/>
<path d="M24.616 86.2894C24.616 86.3154 24.6095 86.3375 24.5965 86.3556C24.5836 86.3738 24.5602 86.3881 24.5264 86.3985C24.4953 86.4114 24.4499 86.4205 24.3902 86.4257C24.333 86.4335 24.2604 86.4374 24.1721 86.4374C24.0838 86.4374 24.0111 86.4335 23.954 86.4257C23.8969 86.4205 23.8502 86.4114 23.8138 86.3985C23.7801 86.3881 23.7554 86.3738 23.7398 86.3556C23.7269 86.3375 23.7204 86.3154 23.7204 86.2894V85.1017H20.387C20.2961 85.1017 20.2235 85.0758 20.1689 85.0238C20.117 84.9693 20.0911 84.8876 20.0911 84.7785V80.1951C20.0911 80.1692 20.0988 80.1471 20.1144 80.1289C20.1326 80.1082 20.1612 80.0913 20.2001 80.0783C20.239 80.0653 20.291 80.0563 20.3559 80.0511C20.4234 80.0433 20.5064 80.0394 20.6051 80.0394C20.7063 80.0394 20.7894 80.0433 20.8543 80.0511C20.9192 80.0563 20.9711 80.0653 21.0101 80.0783C21.049 80.0913 21.0763 80.1082 21.0918 80.1289C21.1074 80.1471 21.1152 80.1692 21.1152 80.1951V84.2528H22.9766V80.1951C22.9766 80.1692 22.9844 80.1471 23 80.1289C23.0181 80.1082 23.0467 80.0913 23.0856 80.0783C23.1246 80.0653 23.1765 80.0563 23.2414 80.0511C23.3089 80.0433 23.392 80.0394 23.4906 80.0394C23.5919 80.0394 23.6749 80.0433 23.7398 80.0511C23.8047 80.0563 23.8567 80.0653 23.8956 80.0783C23.9345 80.0913 23.9618 80.1082 23.9774 80.1289C23.993 80.1471 24.0007 80.1692 24.0007 80.1951V84.2528H24.4447C24.5096 84.2528 24.5537 84.2684 24.5771 84.2995C24.603 84.3281 24.616 84.3826 24.616 84.4631V86.2894Z" fill="white"/>
<path d="M28.3271 84.7006C28.3271 84.7759 28.3232 84.8395 28.3154 84.8914C28.3102 84.9408 28.3011 84.981 28.2882 85.0122C28.2752 85.0433 28.2583 85.0667 28.2375 85.0823C28.2194 85.0952 28.1986 85.1017 28.1752 85.1017H25.6441C25.5584 85.1017 25.4857 85.0771 25.426 85.0277C25.3689 84.9758 25.3403 84.8927 25.3403 84.7785V80.386C25.3403 80.2717 25.3689 80.19 25.426 80.1406C25.4857 80.0887 25.5584 80.0627 25.6441 80.0627H28.1597C28.183 80.0627 28.2038 80.0692 28.222 80.0822C28.2401 80.0952 28.2557 80.1186 28.2687 80.1523C28.2817 80.1835 28.2908 80.225 28.2959 80.2769C28.3037 80.3263 28.3076 80.3899 28.3076 80.4677C28.3076 80.5404 28.3037 80.6027 28.2959 80.6547C28.2908 80.704 28.2817 80.7442 28.2687 80.7754C28.2557 80.8065 28.2401 80.8299 28.222 80.8455C28.2038 80.8584 28.183 80.8649 28.1597 80.8649H26.3606V82.0955H27.8832C27.9065 82.0955 27.9273 82.1033 27.9455 82.1188C27.9662 82.1318 27.9831 82.1539 27.9961 82.185C28.0091 82.2136 28.0182 82.2538 28.0234 82.3058C28.0311 82.3551 28.035 82.4161 28.035 82.4888C28.035 82.5641 28.0311 82.6264 28.0234 82.6757C28.0182 82.725 28.0091 82.7653 27.9961 82.7964C27.9831 82.825 27.9662 82.8457 27.9455 82.8587C27.9273 82.8717 27.9065 82.8782 27.8832 82.8782H26.3606V84.2995H28.1752C28.1986 84.2995 28.2194 84.3073 28.2375 84.3229C28.2583 84.3359 28.2752 84.358 28.2882 84.3891C28.3011 84.4203 28.3102 84.4618 28.3154 84.5137C28.3232 84.563 28.3271 84.6253 28.3271 84.7006Z" fill="white"/>
<path d="M33.1675 84.9615C33.1675 84.9875 33.1584 85.0109 33.1402 85.0316C33.1246 85.0524 33.0974 85.0693 33.0584 85.0823C33.0195 85.0952 32.9676 85.1056 32.9027 85.1134C32.8378 85.1212 32.756 85.1251 32.6574 85.1251C32.5561 85.1251 32.4717 85.1212 32.4042 85.1134C32.3393 85.1056 32.2874 85.0952 32.2485 85.0823C32.2121 85.0693 32.1849 85.0524 32.1667 85.0316C32.1511 85.0109 32.1433 84.9875 32.1433 84.9615V82.9249H30.2586V84.9615C30.2586 84.9875 30.2508 85.0109 30.2352 85.0316C30.2196 85.0524 30.1924 85.0693 30.1534 85.0823C30.1145 85.0952 30.0626 85.1056 29.9977 85.1134C29.9328 85.1212 29.8497 85.1251 29.7485 85.1251C29.6498 85.1251 29.5667 85.1212 29.4992 85.1134C29.4343 85.1056 29.3824 85.0952 29.3435 85.0823C29.3045 85.0693 29.276 85.0524 29.2578 85.0316C29.2422 85.0109 29.2344 84.9875 29.2344 84.9615V80.2029C29.2344 80.177 29.2422 80.1536 29.2578 80.1328C29.276 80.1121 29.3045 80.0952 29.3435 80.0822C29.3824 80.0692 29.4343 80.0589 29.4992 80.0511C29.5667 80.0433 29.6498 80.0394 29.7485 80.0394C29.8497 80.0394 29.9328 80.0433 29.9977 80.0511C30.0626 80.0589 30.1145 80.0692 30.1534 80.0822C30.1924 80.0952 30.2196 80.1121 30.2352 80.1328C30.2508 80.1536 30.2586 80.177 30.2586 80.2029V82.0526H32.1433V80.2029C32.1433 80.177 32.1511 80.1536 32.1667 80.1328C32.1849 80.1121 32.2121 80.0952 32.2485 80.0822C32.2874 80.0692 32.3393 80.0589 32.4042 80.0511C32.4717 80.0433 32.5561 80.0394 32.6574 80.0394C32.756 80.0394 32.8378 80.0433 32.9027 80.0511C32.9676 80.0589 33.0195 80.0692 33.0584 80.0822C33.0974 80.0952 33.1246 80.1121 33.1402 80.1328C33.1584 80.1536 33.1675 80.177 33.1675 80.2029V84.9615Z" fill="white"/>
<path d="M37.6184 80.4833C37.6184 80.5586 37.6146 80.6235 37.6068 80.678C37.6016 80.7299 37.5925 80.7728 37.5795 80.8065C37.5665 80.8377 37.5497 80.861 37.5289 80.8766C37.5107 80.8922 37.4899 80.9 37.4666 80.9H36.2049V84.9615C36.2049 84.9875 36.1958 85.0109 36.1776 85.0316C36.1621 85.0524 36.1348 85.0693 36.0958 85.0823C36.0569 85.0952 36.0037 85.1056 35.9362 85.1134C35.8713 85.1212 35.7895 85.1251 35.6909 85.1251C35.5922 85.1251 35.5091 85.1212 35.4416 85.1134C35.3767 85.1056 35.3248 85.0952 35.2859 85.0823C35.2469 85.0693 35.2184 85.0524 35.2002 85.0316C35.1846 85.0109 35.1768 84.9875 35.1768 84.9615V80.9H33.9151C33.8892 80.9 33.8671 80.8922 33.8489 80.8766C33.8308 80.861 33.8152 80.8377 33.8022 80.8065C33.7892 80.7728 33.7789 80.7299 33.7711 80.678C33.7659 80.6235 33.7633 80.5586 33.7633 80.4833C33.7633 80.4054 33.7659 80.3392 33.7711 80.2847C33.7789 80.2302 33.7892 80.1874 33.8022 80.1562C33.8152 80.1225 33.8308 80.0991 33.8489 80.0861C33.8671 80.0705 33.8892 80.0627 33.9151 80.0627H37.4666C37.4899 80.0627 37.5107 80.0705 37.5289 80.0861C37.5497 80.0991 37.5665 80.1225 37.5795 80.1562C37.5925 80.1874 37.6016 80.2302 37.6068 80.2847C37.6146 80.3392 37.6184 80.4054 37.6184 80.4833Z" fill="white"/>
<path d="M41.6644 81.5931C41.6644 81.8761 41.6203 82.1266 41.532 82.3447C41.4438 82.5628 41.3153 82.7471 41.1465 82.8977C40.9778 83.0456 40.7701 83.1586 40.5235 83.2365C40.2794 83.3143 39.9913 83.3533 39.659 83.3533H39.2384V84.9615C39.2384 84.9875 39.2293 85.0109 39.2111 85.0316C39.1956 85.0524 39.1683 85.0693 39.1294 85.0823C39.0904 85.0952 39.0385 85.1056 38.9736 85.1134C38.9087 85.1212 38.8256 85.1251 38.7244 85.1251C38.6257 85.1251 38.5427 85.1212 38.4752 85.1134C38.4102 85.1056 38.3583 85.0952 38.3194 85.0823C38.2804 85.0693 38.2532 85.0524 38.2376 85.0316C38.222 85.0109 38.2142 84.9875 38.2142 84.9615V80.4288C38.2142 80.3068 38.2454 80.2159 38.3077 80.1562C38.3726 80.0939 38.457 80.0627 38.5608 80.0627H39.7485C39.8679 80.0627 39.9809 80.0679 40.0873 80.0783C40.1963 80.0861 40.3262 80.1056 40.4767 80.1367C40.6273 80.1653 40.7792 80.2198 40.9323 80.3003C41.0881 80.3808 41.2205 80.4833 41.3295 80.6079C41.4386 80.7299 41.5216 80.874 41.5788 81.0402C41.6359 81.2037 41.6644 81.388 41.6644 81.5931ZM40.5935 81.6671C40.5935 81.4906 40.5624 81.3452 40.5001 81.231C40.4378 81.1168 40.3612 81.0324 40.2703 80.9779C40.1795 80.9233 40.0834 80.8896 39.9822 80.8766C39.8835 80.861 39.781 80.8533 39.6745 80.8533H39.2384V82.5628H39.6979C39.8615 82.5628 39.9977 82.5407 40.1068 82.4966C40.2184 82.4524 40.3093 82.3914 40.3794 82.3135C40.4495 82.2331 40.5027 82.1383 40.539 82.0293C40.5754 81.9176 40.5935 81.7969 40.5935 81.6671Z" fill="white"/>
<path d="M43.1413 13.9696C43.1413 14.0786 43.1153 14.1604 43.0634 14.2149C43.0115 14.2669 42.9388 14.2928 42.8453 14.2928H37.3897C37.2988 14.2928 37.2248 14.2669 37.1677 14.2149C37.1132 14.1604 37.0859 14.0786 37.0859 13.9696V9.37844C37.0859 9.35248 37.0937 9.33042 37.1093 9.31225C37.1275 9.29407 37.156 9.27979 37.195 9.26941C37.2339 9.25643 37.2858 9.24734 37.3507 9.24215C37.4156 9.23436 37.4948 9.23047 37.5883 9.23047C37.6843 9.23047 37.7635 9.23436 37.8258 9.24215C37.8907 9.24734 37.9426 9.25643 37.9816 9.26941C38.0205 9.27979 38.0478 9.29407 38.0634 9.31225C38.0815 9.33042 38.0906 9.35248 38.0906 9.37844V13.4595H39.6132V9.37844C39.6132 9.35248 39.621 9.33042 39.6366 9.31225C39.6548 9.29407 39.682 9.27979 39.7184 9.26941C39.7573 9.25643 39.8092 9.24734 39.8741 9.24215C39.939 9.23436 40.0182 9.23047 40.1117 9.23047C40.2051 9.23047 40.283 9.23436 40.3453 9.24215C40.4102 9.24734 40.4621 9.25643 40.5011 9.26941C40.54 9.27979 40.5673 9.29407 40.5828 9.31225C40.601 9.33042 40.6101 9.35248 40.6101 9.37844V13.4595H42.1366V9.37844C42.1366 9.35248 42.1444 9.33042 42.16 9.31225C42.1781 9.29407 42.2067 9.27979 42.2456 9.26941C42.2846 9.25643 42.3352 9.24734 42.3975 9.24215C42.4624 9.23436 42.5429 9.23047 42.6389 9.23047C42.7324 9.23047 42.8103 9.23436 42.8726 9.24215C42.9375 9.24734 42.9894 9.25643 43.0283 9.26941C43.0673 9.27979 43.0958 9.29407 43.114 9.31225C43.1322 9.33042 43.1413 9.35248 43.1413 9.37844V13.9696Z" fill="white"/>
<path d="M47.2301 13.8917C47.2301 13.967 47.2262 14.0306 47.2184 14.0825C47.2132 14.1319 47.2041 14.1721 47.1912 14.2032C47.1782 14.2344 47.1613 14.2578 47.1405 14.2733C47.1224 14.2863 47.1016 14.2928 47.0782 14.2928H44.5471C44.4614 14.2928 44.3887 14.2681 44.329 14.2188C44.2719 14.1669 44.2433 14.0838 44.2433 13.9696V9.57704C44.2433 9.46282 44.2719 9.38104 44.329 9.33172C44.3887 9.27979 44.4614 9.25383 44.5471 9.25383H47.0626C47.086 9.25383 47.1068 9.26032 47.125 9.2733C47.1431 9.28628 47.1587 9.30965 47.1717 9.3434C47.1847 9.37455 47.1937 9.41609 47.1989 9.46801C47.2067 9.51733 47.2106 9.58094 47.2106 9.65882C47.2106 9.73151 47.2067 9.79382 47.1989 9.84574C47.1937 9.89506 47.1847 9.9353 47.1717 9.96646C47.1587 9.99761 47.1431 10.021 47.125 10.0365C47.1068 10.0495 47.086 10.056 47.0626 10.056H45.2636V11.2866H46.7862C46.8095 11.2866 46.8303 11.2943 46.8485 11.3099C46.8692 11.3229 46.8861 11.345 46.8991 11.3761C46.9121 11.4047 46.9212 11.4449 46.9264 11.4968C46.9341 11.5462 46.938 11.6072 46.938 11.6799C46.938 11.7552 46.9341 11.8175 46.9264 11.8668C46.9212 11.9161 46.9121 11.9563 46.8991 11.9875C46.8861 12.0161 46.8692 12.0368 46.8485 12.0498C46.8303 12.0628 46.8095 12.0693 46.7862 12.0693H45.2636V13.4906H47.0782C47.1016 13.4906 47.1224 13.4984 47.1405 13.514C47.1613 13.527 47.1782 13.549 47.1912 13.5802C47.2041 13.6113 47.2132 13.6529 47.2184 13.7048C47.2262 13.7541 47.2301 13.8164 47.2301 13.8917Z" fill="white"/>
<path d="M51.9575 14.1604C51.9575 14.1864 51.9498 14.2097 51.9342 14.2305C51.9186 14.2487 51.8913 14.2643 51.8524 14.2772C51.8135 14.2902 51.7602 14.2993 51.6927 14.3045C51.6278 14.3123 51.5461 14.3162 51.4474 14.3162C51.3462 14.3162 51.2631 14.3123 51.1982 14.3045C51.1333 14.2993 51.0814 14.2902 51.0424 14.2772C51.0035 14.2643 50.9762 14.2487 50.9607 14.2305C50.9451 14.2097 50.9373 14.1864 50.9373 14.1604V10.095H49.8547C49.782 10.6895 49.708 11.2087 49.6328 11.6526C49.5575 12.0965 49.477 12.4769 49.3913 12.7936C49.3057 13.1103 49.2109 13.3699 49.1071 13.5724C49.0058 13.7749 48.889 13.9359 48.7566 14.0553C48.6268 14.1721 48.4788 14.2526 48.3127 14.2967C48.1491 14.3408 47.9622 14.3629 47.7519 14.3629C47.713 14.3629 47.6792 14.3577 47.6507 14.3473C47.6221 14.3369 47.5987 14.3175 47.5806 14.2889C47.565 14.2604 47.5533 14.2201 47.5455 14.1682C47.5377 14.1163 47.5338 14.0501 47.5338 13.9696C47.5338 13.858 47.5364 13.7684 47.5416 13.7009C47.5468 13.6308 47.5559 13.5776 47.5689 13.5412C47.5819 13.5023 47.5987 13.4763 47.6195 13.4634C47.6403 13.4504 47.6649 13.4439 47.6935 13.4439C47.774 13.4439 47.8506 13.4283 47.9232 13.3972C47.9985 13.3634 48.0699 13.2985 48.1374 13.2025C48.2075 13.1064 48.2737 12.9714 48.336 12.7975C48.4009 12.6235 48.4632 12.3951 48.5229 12.1121C48.5852 11.8265 48.6463 11.48 48.706 11.0724C48.7683 10.6622 48.8306 10.1754 48.8929 9.61209C48.9085 9.47969 48.9396 9.38753 48.9863 9.33561C49.0331 9.28109 49.1019 9.25383 49.1927 9.25383H51.6655C51.7589 9.25383 51.8303 9.28109 51.8797 9.33561C51.9316 9.38753 51.9575 9.46801 51.9575 9.57704V14.1604Z" fill="white"/>
<path d="M56.0464 13.8917C56.0464 13.967 56.0425 14.0306 56.0347 14.0825C56.0295 14.1319 56.0204 14.1721 56.0074 14.2032C55.9944 14.2344 55.9776 14.2578 55.9568 14.2733C55.9386 14.2863 55.9179 14.2928 55.8945 14.2928H53.3633C53.2776 14.2928 53.205 14.2681 53.1452 14.2188C53.0881 14.1669 53.0596 14.0838 53.0596 13.9696V9.57704C53.0596 9.46282 53.0881 9.38104 53.1452 9.33172C53.205 9.27979 53.2776 9.25383 53.3633 9.25383H55.8789C55.9023 9.25383 55.923 9.26032 55.9412 9.2733C55.9594 9.28628 55.975 9.30965 55.9879 9.3434C56.0009 9.37455 56.01 9.41609 56.0152 9.46801C56.023 9.51733 56.0269 9.58094 56.0269 9.65882C56.0269 9.73151 56.023 9.79382 56.0152 9.84574C56.01 9.89506 56.0009 9.9353 55.9879 9.96646C55.975 9.99761 55.9594 10.021 55.9412 10.0365C55.923 10.0495 55.9023 10.056 55.8789 10.056H54.0798V11.2866H55.6024C55.6258 11.2866 55.6466 11.2943 55.6647 11.3099C55.6855 11.3229 55.7024 11.345 55.7154 11.3761C55.7283 11.4047 55.7374 11.4449 55.7426 11.4968C55.7504 11.5462 55.7543 11.6072 55.7543 11.6799C55.7543 11.7552 55.7504 11.8175 55.7426 11.8668C55.7374 11.9161 55.7283 11.9563 55.7154 11.9875C55.7024 12.0161 55.6855 12.0368 55.6647 12.0498C55.6466 12.0628 55.6258 12.0693 55.6024 12.0693H54.0798V13.4906H55.8945C55.9179 13.4906 55.9386 13.4984 55.9568 13.514C55.9776 13.527 55.9944 13.549 56.0074 13.5802C56.0204 13.6113 56.0295 13.6529 56.0347 13.7048C56.0425 13.7541 56.0464 13.8164 56.0464 13.8917Z" fill="white"/>
<path d="M60.6842 14.1565C60.6842 14.1851 60.6765 14.2097 60.6609 14.2305C60.6453 14.2487 60.6167 14.2643 60.5752 14.2772C60.5363 14.2902 60.483 14.2993 60.4156 14.3045C60.3481 14.3123 60.2611 14.3162 60.1546 14.3162C60.043 14.3162 59.9522 14.3123 59.8821 14.3045C59.8146 14.2993 59.76 14.2902 59.7185 14.2772C59.677 14.2617 59.6458 14.2422 59.625 14.2188C59.6043 14.1929 59.5887 14.1617 59.5783 14.1254L59.1733 13.0039C59.1162 12.8403 59.0565 12.704 58.9942 12.595C58.9319 12.4833 58.8631 12.3938 58.7878 12.3263C58.7125 12.2562 58.6269 12.2069 58.5308 12.1783C58.4347 12.1498 58.327 12.1355 58.2076 12.1355H57.9778V14.1526C57.9778 14.1812 57.9701 14.2058 57.9545 14.2266C57.9389 14.2448 57.9116 14.2617 57.8727 14.2772C57.8338 14.2902 57.7818 14.2993 57.7169 14.3045C57.652 14.3123 57.569 14.3162 57.4677 14.3162C57.3691 14.3162 57.286 14.3123 57.2185 14.3045C57.1536 14.2993 57.1017 14.2902 57.0627 14.2772C57.0238 14.2617 56.9952 14.2448 56.9771 14.2266C56.9615 14.2058 56.9537 14.1812 56.9537 14.1526V9.39013C56.9537 9.36157 56.9615 9.33821 56.9771 9.32003C56.9952 9.29926 57.0238 9.28239 57.0627 9.26941C57.1017 9.25643 57.1536 9.24734 57.2185 9.24215C57.286 9.23436 57.3691 9.23047 57.4677 9.23047C57.569 9.23047 57.652 9.23436 57.7169 9.24215C57.7818 9.24734 57.8338 9.25643 57.8727 9.26941C57.9116 9.28239 57.9389 9.29926 57.9545 9.32003C57.9701 9.33821 57.9778 9.36157 57.9778 9.39013V11.2827H58.2076C58.3244 11.2827 58.427 11.2671 58.5152 11.2359C58.6035 11.2048 58.6827 11.1555 58.7528 11.088C58.8255 11.0205 58.8904 10.9335 58.9475 10.8271C59.0072 10.718 59.0643 10.5843 59.1188 10.426L59.4576 9.42128C59.4706 9.38494 59.4862 9.35508 59.5043 9.33172C59.5225 9.30575 59.5511 9.28628 59.59 9.2733C59.6315 9.25773 59.6848 9.24734 59.7497 9.24215C59.8172 9.23436 59.9067 9.23047 60.0184 9.23047C60.1196 9.23047 60.2027 9.23436 60.2676 9.24215C60.3351 9.24734 60.387 9.25643 60.4233 9.26941C60.4623 9.27979 60.4882 9.29537 60.5012 9.31614C60.5142 9.33431 60.5207 9.35768 60.5207 9.38623C60.5207 9.41998 60.5142 9.46152 60.5012 9.51084C60.4908 9.56017 60.4714 9.62507 60.4428 9.70555L60.104 10.6012C60.0417 10.7673 59.9794 10.9088 59.9171 11.0257C59.8548 11.1425 59.7886 11.2424 59.7185 11.3255C59.651 11.406 59.5783 11.4722 59.5004 11.5241C59.4251 11.576 59.3408 11.6189 59.2473 11.6526V11.6565C59.3512 11.7006 59.4446 11.7513 59.5277 11.8084C59.6134 11.8629 59.6925 11.933 59.7652 12.0187C59.8405 12.1043 59.9119 12.2095 59.9794 12.3341C60.0469 12.4587 60.1157 12.6119 60.1858 12.7936L60.5986 13.8372C60.6401 13.9436 60.6648 14.0176 60.6726 14.0592C60.6804 14.0981 60.6842 14.1306 60.6842 14.1565Z" fill="white"/>
</g>
<defs>
<clipPath id="clip0_355_31250">
<rect x="15.0625" y="0.619141" width="77.25" height="90" rx="4" fill="white"/>
</clipPath>
</defs>
</svg>
