<svg width="34" height="99" viewBox="0 0 34 99" fill="none" xmlns="http://www.w3.org/2000/svg">
<rect x="4.83398" y="4.47656" width="3.57143" height="76.3839" fill="#AEAEAE"/>
<path d="M4.11914 80.6686C4.11914 80.1375 4.5633 79.707 5.1112 79.707H8.12708C8.67498 79.707 9.11914 80.1375 9.11914 80.6686V94.4768H4.11914V80.6686Z" fill="#9F9B9B"/>
<path d="M4.00977 5.44894C4.00977 3.87098 5.28895 2.5918 6.86691 2.5918H28.3384C29.9164 2.5918 31.1956 3.87098 31.1956 5.44894V20.5578C31.1956 22.1357 29.9164 23.4149 28.3384 23.4149H6.86691C5.28896 23.4149 4.00977 22.1357 4.00977 20.5578V5.44894Z" fill="#0D69E1"/>
<path fill-rule="evenodd" clip-rule="evenodd" d="M6.86719 0.449219H28.3387C31.1001 0.449219 33.3387 2.68779 33.3387 5.44922V20.558C33.3387 23.3195 31.1001 25.558 28.3387 25.558H6.86719C4.10577 25.558 1.86719 23.3195 1.86719 20.558V5.44922C1.86719 2.6878 4.10576 0.449219 6.86719 0.449219ZM6.86719 2.59208C5.28923 2.59208 4.01004 3.87126 4.01004 5.44922V20.558C4.01004 22.136 5.28924 23.4152 6.86719 23.4152H28.3387C29.9167 23.4152 31.1958 22.136 31.1958 20.558V5.44922C31.1958 3.87126 29.9167 2.59208 28.3387 2.59208H6.86719Z" fill="black"/>
<path d="M4.00977 5.44894C4.00977 3.87098 5.28895 2.5918 6.86691 2.5918H28.3384C29.9164 2.5918 31.1956 3.87098 31.1956 5.44894V20.5578C31.1956 22.1357 29.9164 23.4149 28.3384 23.4149H6.86691C5.28896 23.4149 4.00977 22.1357 4.00977 20.5578V5.44894Z" fill="#0D69E1"/>
<path fill-rule="evenodd" clip-rule="evenodd" d="M6.86775 1.16406H28.3393C30.7062 1.16406 32.625 3.08284 32.625 5.44978V20.5586C32.625 22.9255 30.7062 24.8443 28.3393 24.8443H6.86775C4.50082 24.8443 2.58203 22.9255 2.58203 20.5586V5.44978C2.58203 3.08284 4.50081 1.16406 6.86775 1.16406ZM6.86775 2.59263C5.28979 2.59263 4.0106 3.87182 4.0106 5.44978V20.5586C4.0106 22.1366 5.28979 23.4157 6.86775 23.4157H28.3393C29.9172 23.4157 31.1964 22.1366 31.1964 20.5586V5.44978C31.1964 3.87182 29.9172 2.59263 28.3393 2.59263H6.86775Z" fill="white"/>
<path d="M17.3677 14.9919C17.3677 15.4932 17.291 15.9587 17.1376 16.3884C16.9841 16.813 16.759 17.1813 16.4623 17.4933C16.1656 17.8002 15.7999 18.0432 15.3651 18.2222C14.9303 18.3962 14.429 18.4831 13.8612 18.4831C13.4008 18.4831 12.9993 18.4294 12.6565 18.322C12.3138 18.2197 12.0171 18.0713 11.7665 17.877C11.5158 17.6775 11.3112 17.437 11.1526 17.1557C10.994 16.8743 10.8662 16.5572 10.769 16.2042C10.6769 15.8513 10.613 15.4676 10.5771 15.0533C10.5413 14.6389 10.5234 14.199 10.5234 13.7335C10.5234 13.3448 10.5413 12.9381 10.5771 12.5135C10.6181 12.089 10.6922 11.6721 10.7997 11.2628C10.9122 10.8536 11.0682 10.4648 11.2677 10.0965C11.4672 9.72312 11.723 9.3983 12.035 9.12207C12.3522 8.84073 12.7333 8.61821 13.1783 8.45452C13.6284 8.29083 14.1604 8.20898 14.7743 8.20898C14.9687 8.20898 15.163 8.22177 15.3574 8.24735C15.5569 8.26781 15.7411 8.29594 15.9099 8.33175C16.0787 8.36756 16.2219 8.40848 16.3396 8.45452C16.4572 8.50056 16.5339 8.54148 16.5698 8.57729C16.6107 8.60798 16.6414 8.64379 16.6618 8.68471C16.6823 8.72563 16.6976 8.77167 16.7079 8.82282C16.7232 8.86886 16.7334 8.92769 16.7386 8.9993C16.7437 9.07092 16.7462 9.15788 16.7462 9.26018C16.7462 9.41876 16.7411 9.55176 16.7309 9.65918C16.7258 9.76149 16.713 9.84333 16.6925 9.90472C16.6721 9.96098 16.6439 10.0019 16.6081 10.0275C16.5723 10.0531 16.5288 10.0658 16.4777 10.0658C16.4163 10.0658 16.337 10.0505 16.2398 10.0198C16.1426 9.984 16.025 9.94564 15.8869 9.90472C15.7487 9.86379 15.5851 9.82799 15.3958 9.79729C15.2116 9.7666 14.9968 9.75126 14.7513 9.75126C14.3369 9.75126 13.9865 9.82799 13.7001 9.98145C13.4136 10.1349 13.1809 10.3446 13.0018 10.6106C12.8228 10.8715 12.6923 11.1759 12.6105 11.5237C12.5286 11.8716 12.4852 12.2399 12.4801 12.6286C12.5926 12.557 12.7205 12.4854 12.8637 12.4138C13.012 12.3422 13.1706 12.2808 13.3394 12.2296C13.5133 12.1785 13.7001 12.1376 13.8996 12.1069C14.0991 12.0711 14.3113 12.0532 14.5364 12.0532C15.0377 12.0532 15.4674 12.1222 15.8255 12.2603C16.1835 12.3984 16.4751 12.5954 16.7002 12.8511C16.9304 13.1069 17.0992 13.4164 17.2066 13.7796C17.314 14.1428 17.3677 14.5469 17.3677 14.9919ZM15.3881 15.1837C15.3881 14.9229 15.3651 14.6952 15.3191 14.5008C15.273 14.3013 15.1988 14.1351 15.0965 14.0021C14.9942 13.864 14.8587 13.7617 14.6899 13.6952C14.5211 13.6236 14.3165 13.5878 14.076 13.5878C13.9328 13.5878 13.7921 13.6005 13.654 13.6261C13.5159 13.6517 13.3803 13.6875 13.2473 13.7335C13.1144 13.7796 12.9865 13.8358 12.8637 13.9023C12.7409 13.9637 12.6258 14.0302 12.5184 14.1018C12.5184 14.6492 12.5491 15.107 12.6105 15.4753C12.6719 15.8385 12.7614 16.1275 12.879 16.3424C13.0018 16.5572 13.1527 16.7107 13.3318 16.8027C13.5159 16.8897 13.7282 16.9332 13.9686 16.9332C14.2039 16.9332 14.4085 16.8897 14.5824 16.8027C14.7615 16.7158 14.9098 16.593 15.0275 16.4344C15.1451 16.2759 15.2347 16.0917 15.296 15.882C15.3574 15.6671 15.3881 15.4344 15.3881 15.1837Z" fill="white"/>
<path d="M25.4011 15.084C25.4011 15.6211 25.3064 16.1019 25.1172 16.5265C24.933 16.946 24.6696 17.3015 24.3268 17.5931C23.9892 17.8795 23.58 18.0995 23.0992 18.2529C22.6234 18.4064 22.094 18.4831 21.5109 18.4831C21.2039 18.4831 20.9124 18.4627 20.6361 18.4217C20.3599 18.3859 20.1118 18.3399 19.8919 18.2836C19.6719 18.2222 19.4903 18.1634 19.3471 18.1071C19.209 18.0458 19.1169 17.9972 19.0708 17.9614C19.0299 17.9204 18.9992 17.877 18.9788 17.8309C18.9583 17.7849 18.9404 17.7312 18.9251 17.6698C18.9148 17.6033 18.9072 17.5214 18.902 17.4242C18.8969 17.3271 18.8944 17.212 18.8944 17.079C18.8944 16.9357 18.8995 16.8155 18.9097 16.7183C18.9199 16.616 18.9353 16.5342 18.9557 16.4728C18.9813 16.4114 19.0095 16.3679 19.0402 16.3424C19.0708 16.3168 19.1066 16.304 19.1476 16.304C19.1987 16.304 19.2755 16.3347 19.3778 16.3961C19.4852 16.4523 19.6233 16.5163 19.7921 16.5879C19.966 16.6595 20.1758 16.726 20.4213 16.7874C20.6668 16.8437 20.961 16.8718 21.3037 16.8718C21.6004 16.8718 21.8689 16.8411 22.1093 16.7797C22.3549 16.7183 22.5621 16.6211 22.7309 16.4881C22.8997 16.35 23.0301 16.1787 23.1222 15.9741C23.2143 15.7694 23.2603 15.5239 23.2603 15.2374C23.2603 14.9919 23.2219 14.7745 23.1452 14.5852C23.0685 14.3909 22.9483 14.2272 22.7846 14.0942C22.6209 13.9612 22.4086 13.8614 22.1477 13.7949C21.8868 13.7284 21.5697 13.6952 21.1963 13.6952C20.8996 13.6952 20.6285 13.7105 20.3829 13.7412C20.1425 13.7719 19.9149 13.7872 19.7 13.7872C19.5517 13.7872 19.4443 13.7514 19.3778 13.6798C19.3164 13.6031 19.2857 13.465 19.2857 13.2655V8.95326C19.2857 8.74865 19.3241 8.60286 19.4008 8.5159C19.4826 8.42383 19.6105 8.37779 19.7844 8.37779H24.488C24.534 8.37779 24.5775 8.39314 24.6184 8.42383C24.6593 8.45452 24.6926 8.50312 24.7182 8.56961C24.7489 8.63611 24.7693 8.72563 24.7795 8.83817C24.7949 8.94559 24.8026 9.07603 24.8026 9.22949C24.8026 9.53641 24.7744 9.75893 24.7182 9.89704C24.667 10.0352 24.5903 10.1042 24.488 10.1042H20.9584V12.2296C21.1374 12.2092 21.3139 12.1964 21.4878 12.1913C21.6669 12.1862 21.8536 12.1836 22.048 12.1836C22.5851 12.1836 23.0608 12.2475 23.4751 12.3754C23.8946 12.4982 24.245 12.6823 24.5263 12.9279C24.8128 13.1683 25.0302 13.4701 25.1785 13.8333C25.3269 14.1914 25.4011 14.6083 25.4011 15.084Z" fill="white"/>
</svg>
