<svg width="57" height="99" viewBox="0 0 57 99" fill="none" xmlns="http://www.w3.org/2000/svg">
<rect x="5.55469" y="4.47656" width="3.57143" height="76.3839" fill="#AEAEAE"/>
<path d="M4.83984 80.6686C4.83984 80.1375 5.28401 79.707 5.83191 79.707H8.84778C9.39568 79.707 9.83984 80.1375 9.83984 80.6686V94.4768H4.83984V80.6686Z" fill="#9F9B9B"/>
<path d="M4.84766 5.44894C4.84766 3.87098 6.12684 2.5918 7.7048 2.5918H51.7206C53.2986 2.5918 54.5778 3.87098 54.5778 5.44894V20.5578C54.5778 22.1357 53.2986 23.4149 51.7206 23.4149H7.7048C6.12685 23.4149 4.84766 22.1357 4.84766 20.5578V5.44894Z" fill="#00A500"/>
<path fill-rule="evenodd" clip-rule="evenodd" d="M7.70508 0.449219H51.7209C54.4823 0.449219 56.7209 2.68779 56.7209 5.44922V20.558C56.7209 23.3195 54.4823 25.558 51.7209 25.558H7.70508C4.94366 25.558 2.70508 23.3195 2.70508 20.558V5.44922C2.70508 2.6878 4.94365 0.449219 7.70508 0.449219ZM7.70508 2.59208C6.12712 2.59208 4.84794 3.87126 4.84794 5.44922V20.558C4.84794 22.136 6.12713 23.4152 7.70508 23.4152H51.7209C53.2989 23.4152 54.5781 22.136 54.5781 20.558V5.44922C54.5781 3.87126 53.2989 2.59208 51.7209 2.59208H7.70508Z" fill="black"/>
<path d="M4.84766 5.44894C4.84766 3.87098 6.12684 2.5918 7.7048 2.5918H51.7206C53.2986 2.5918 54.5778 3.87098 54.5778 5.44894V20.5578C54.5778 22.1357 53.2986 23.4149 51.7206 23.4149H7.7048C6.12685 23.4149 4.84766 22.1357 4.84766 20.5578V5.44894Z" fill="#00A500"/>
<path fill-rule="evenodd" clip-rule="evenodd" d="M7.70368 1.16406H51.7195C54.0864 1.16406 56.0052 3.08284 56.0052 5.44978V20.5586C56.0052 22.9255 54.0865 24.8443 51.7195 24.8443H7.70369C5.33675 24.8443 3.41797 22.9255 3.41797 20.5586V5.44978C3.41797 3.08284 5.33675 1.16406 7.70368 1.16406ZM7.70368 2.59263C6.12573 2.59263 4.84654 3.87182 4.84654 5.44978V20.5586C4.84654 22.1366 6.12573 23.4157 7.70369 23.4157H51.7195C53.2975 23.4157 54.5767 22.1366 54.5767 20.5586V5.44978C54.5767 3.87182 53.2975 2.59263 51.7195 2.59263H7.70368Z" fill="white"/>
<path d="M20.4985 17.5162C20.4985 17.6645 20.4908 17.7899 20.4754 17.8922C20.4652 17.9894 20.4473 18.0686 20.4217 18.13C20.3962 18.1914 20.3629 18.2374 20.322 18.2681C20.2862 18.2937 20.2453 18.3065 20.1992 18.3065H15.2118C15.043 18.3065 14.8997 18.2579 14.7821 18.1607C14.6695 18.0584 14.6133 17.8947 14.6133 17.6696V9.01451C14.6133 8.78943 14.6695 8.6283 14.7821 8.53111C14.8997 8.4288 15.043 8.37765 15.2118 8.37765H20.1685C20.2146 8.37765 20.2555 8.39044 20.2913 8.41602C20.3271 8.44159 20.3578 8.48763 20.3834 8.55413C20.4089 8.61551 20.4269 8.69736 20.4371 8.79967C20.4524 8.89686 20.4601 9.02218 20.4601 9.17564C20.4601 9.31887 20.4524 9.44164 20.4371 9.54395C20.4269 9.64114 20.4089 9.72042 20.3834 9.78181C20.3578 9.84319 20.3271 9.88923 20.2913 9.91992C20.2555 9.9455 20.2146 9.95829 20.1685 9.95829H16.6236V12.383H19.6237C19.6698 12.383 19.7107 12.3983 19.7465 12.429C19.7874 12.4546 19.8207 12.498 19.8463 12.5594C19.8718 12.6157 19.8897 12.695 19.9 12.7973C19.9153 12.8945 19.923 13.0147 19.923 13.1579C19.923 13.3063 19.9153 13.429 19.9 13.5262C19.8897 13.6234 19.8718 13.7027 19.8463 13.7641C19.8207 13.8204 19.7874 13.8613 19.7465 13.8869C19.7107 13.9124 19.6698 13.9252 19.6237 13.9252H16.6236V16.7259H20.1992C20.2453 16.7259 20.2862 16.7412 20.322 16.7719C20.3629 16.7975 20.3962 16.841 20.4217 16.9023C20.4473 16.9637 20.4652 17.0456 20.4754 17.1479C20.4908 17.2451 20.4985 17.3678 20.4985 17.5162Z" fill="white"/>
<path d="M28.762 17.5392C28.762 17.6824 28.7543 17.8052 28.739 17.9075C28.7236 18.0047 28.7006 18.084 28.6699 18.1454C28.6443 18.2016 28.6136 18.2426 28.5778 18.2681C28.542 18.2937 28.5011 18.3065 28.4551 18.3065H22.9765C22.9356 18.3065 22.8972 18.2937 22.8614 18.2681C22.8256 18.2426 22.7924 18.2016 22.7617 18.1454C22.7361 18.084 22.7157 18.0047 22.7003 17.9075C22.685 17.8052 22.6773 17.6824 22.6773 17.5392C22.6773 17.3909 22.6824 17.2681 22.6926 17.1709C22.708 17.0686 22.7284 16.9867 22.754 16.9254C22.7847 16.864 22.818 16.8205 22.8538 16.7949C22.8896 16.7642 22.9305 16.7489 22.9765 16.7489H24.8257V10.2882L23.2297 11.1706C23.1121 11.2269 23.0149 11.2627 22.9382 11.278C22.8666 11.2883 22.8077 11.2729 22.7617 11.232C22.7208 11.186 22.6926 11.1092 22.6773 11.0018C22.6619 10.8944 22.6543 10.7435 22.6543 10.5491C22.6543 10.4263 22.6568 10.3266 22.6619 10.2499C22.6671 10.168 22.6798 10.099 22.7003 10.0427C22.7208 9.98642 22.7489 9.94038 22.7847 9.90458C22.8205 9.86877 22.8691 9.8304 22.9305 9.78948L25.0636 8.40834C25.0892 8.38788 25.1199 8.37254 25.1557 8.3623C25.1966 8.34696 25.2477 8.33673 25.3091 8.33161C25.3705 8.32138 25.4498 8.31627 25.547 8.31627C25.6493 8.31115 25.7797 8.30859 25.9383 8.30859C26.1327 8.30859 26.2887 8.31371 26.4064 8.32394C26.5291 8.32906 26.6212 8.34184 26.6826 8.3623C26.744 8.37765 26.7849 8.40067 26.8054 8.43136C26.8258 8.46205 26.836 8.50042 26.836 8.54646V16.7489H28.4551C28.5011 16.7489 28.542 16.7642 28.5778 16.7949C28.6187 16.8205 28.652 16.864 28.6776 16.9254C28.7083 16.9867 28.7287 17.0686 28.739 17.1709C28.7543 17.2681 28.762 17.3909 28.762 17.5392Z" fill="white"/>
<path d="M37.4398 15.4521C37.4398 15.713 37.4117 15.9125 37.3554 16.0506C37.3043 16.1836 37.2326 16.2501 37.1406 16.2501H36.2582V18.0456C36.2582 18.0968 36.2428 18.1428 36.2121 18.1837C36.1814 18.2195 36.1277 18.2502 36.051 18.2758C35.9743 18.3014 35.8745 18.3193 35.7518 18.3295C35.629 18.3449 35.4704 18.3525 35.276 18.3525C35.0919 18.3525 34.9359 18.3449 34.808 18.3295C34.6852 18.3193 34.5855 18.3014 34.5087 18.2758C34.4371 18.2502 34.386 18.2195 34.3553 18.1837C34.3297 18.1428 34.3169 18.0968 34.3169 18.0456V16.2501H30.5188C30.4472 16.2501 30.3832 16.2425 30.327 16.2271C30.2707 16.2067 30.2221 16.1657 30.1812 16.1044C30.1454 16.0379 30.1172 15.9458 30.0968 15.8281C30.0814 15.7054 30.0737 15.5442 30.0737 15.3447C30.0737 15.181 30.0763 15.0404 30.0814 14.9227C30.0916 14.7999 30.1044 14.69 30.1198 14.5928C30.1402 14.4956 30.1658 14.4035 30.1965 14.3165C30.2323 14.2296 30.2758 14.1375 30.327 14.0403L33.4115 8.60017C33.4371 8.55413 33.4806 8.51576 33.5419 8.48507C33.6033 8.44927 33.6877 8.42113 33.7951 8.40067C33.9077 8.37509 34.0484 8.35719 34.2172 8.34696C34.386 8.33673 34.5906 8.33161 34.831 8.33161C35.0919 8.33161 35.3144 8.33929 35.4986 8.35463C35.6827 8.36486 35.8285 8.38532 35.9359 8.41602C36.0484 8.44159 36.1303 8.47484 36.1814 8.51576C36.2326 8.55669 36.2582 8.60528 36.2582 8.66155V14.6388H37.1406C37.2224 14.6388 37.2915 14.7028 37.3477 14.8306C37.4091 14.9534 37.4398 15.1606 37.4398 15.4521ZM34.3169 10.0734H34.3016L31.6851 14.6388H34.3169V10.0734Z" fill="white"/>
<path d="M45.4041 9.22935C45.4041 9.3777 45.399 9.50814 45.3887 9.62068C45.3785 9.7281 45.3632 9.8304 45.3427 9.92759C45.3273 10.0197 45.3043 10.1092 45.2736 10.1961C45.2429 10.278 45.2071 10.3675 45.1662 10.4647L41.8975 18.0379C41.8668 18.1044 41.8259 18.1582 41.7748 18.1991C41.7287 18.24 41.6622 18.2733 41.5753 18.2988C41.4883 18.3193 41.3758 18.3321 41.2376 18.3372C41.1046 18.3474 40.9384 18.3525 40.7389 18.3525C40.4678 18.3525 40.2529 18.3423 40.0944 18.3218C39.9358 18.3065 39.8181 18.2809 39.7414 18.2451C39.6698 18.2042 39.6314 18.1556 39.6263 18.0993C39.6212 18.0379 39.6391 17.9638 39.68 17.8768L43.1943 10.1271H39.0201C38.9127 10.1271 38.8309 10.058 38.7746 9.91992C38.7235 9.77669 38.6979 9.55162 38.6979 9.2447C38.6979 9.09124 38.7056 8.9608 38.7209 8.85338C38.7362 8.74084 38.7567 8.64876 38.7823 8.57715C38.813 8.50553 38.8462 8.45438 38.882 8.42369C38.923 8.393 38.969 8.37765 39.0201 8.37765H44.9207C45.0128 8.37765 45.0895 8.38788 45.1509 8.40834C45.2123 8.42369 45.2608 8.46205 45.2967 8.52344C45.3325 8.58482 45.358 8.67178 45.3734 8.78432C45.3938 8.89686 45.4041 9.0452 45.4041 9.22935Z" fill="white"/>
</svg>
