<svg width="147" height="160" viewBox="0 0 147 160" fill="none" xmlns="http://www.w3.org/2000/svg">
<rect x="5.76172" y="10.1055" width="108.159" height="2.64341" fill="#9F9B9B"/>
<rect x="5.76172" y="15.6348" width="108.159" height="2.64341" fill="#9F9B9B"/>
<rect x="5.76172" y="51.6797" width="108.159" height="2.64341" fill="#9F9B9B"/>
<rect x="5.76172" y="57.207" width="108.159" height="2.64341" fill="#9F9B9B"/>
<rect x="1.91992" y="4.09766" width="5.31313" height="155" fill="#AEAEAE"/>
<rect x="1.91992" y="4.09766" width="5.31313" height="6.24806" fill="#AEAEAE"/>
<g clip-path="url(#clip0_355_31345)">
<path d="M140.16 0H19.84C17.7192 0 16 1.71689 16 3.83478V94.1652C16 96.2831 17.7192 98 19.84 98H140.16C142.281 98 144 96.2831 144 94.1652V3.83478C144 1.71689 142.281 0 140.16 0Z" fill="white"/>
<path d="M19.8394 1.02344C18.2794 1.02344 17.0234 2.27767 17.0234 3.83561V94.166C17.0234 95.724 18.2794 96.9782 19.8394 96.9782H140.159C141.719 96.9782 142.975 95.724 142.975 94.166V3.83561C142.975 2.27767 141.719 1.02344 140.159 1.02344H19.8394ZM19.8394 1.53474H140.159C141.436 1.53474 142.463 2.56093 142.463 3.83561V94.166C142.463 95.4407 141.436 96.4669 140.159 96.4669H32.8848V79.6551L101.082 43.443L103.005 47.0541L109.789 36.2156L96.9968 35.7682L98.9194 39.3792L32.8848 74.4435V22.1573H36.9808L30.5808 11.0871L24.1808 22.1573H28.2768V96.4669H19.8394C18.563 96.4669 17.5354 95.4407 17.5354 94.166V3.83561C17.5354 2.56093 18.563 1.53474 19.8394 1.53474Z" fill="black"/>
<path d="M60.342 68.1741C60.342 74.0402 55.5802 78.7956 49.7062 78.7956C43.8321 78.7956 39.0703 74.0402 39.0703 68.1741C39.0703 62.3081 43.8321 57.5527 49.7062 57.5527C55.5802 57.5527 60.342 62.3081 60.342 68.1741Z" fill="white"/>
<path d="M42.9308 65.1875C42.6468 65.1875 42.3808 65.3283 42.222 65.5634L40.8818 67.5469C40.7866 67.6878 40.7363 67.8541 40.7363 68.0241V70.6475C40.7363 71.1186 41.1188 71.5006 41.5906 71.5006H42.3621C42.4068 70.5509 43.1914 69.7944 44.1535 69.7944C45.1155 69.7944 45.9001 70.5509 45.9448 71.5006H52.6135C52.6456 70.8204 53.0566 70.2399 53.6413 69.965H46.2037V66.0406C46.2037 65.5695 45.8213 65.1875 45.3495 65.1875H42.9308ZM42.9761 65.6994H44.9223C45.1582 65.6994 45.3495 65.8903 45.3495 66.1259V67.3203C45.3495 67.5559 45.1582 67.7469 44.9223 67.7469H42.1686C41.9327 67.7469 41.7414 67.5559 41.7414 67.3203C41.7414 67.2353 41.7673 67.1522 41.8149 67.0817L42.6211 65.8873C42.7005 65.7698 42.8342 65.6994 42.9761 65.6994Z" fill="black"/>
<path d="M47.5711 62.6289C47.0978 62.6289 46.7168 63.0094 46.7168 63.482V69.4539H57.8225V63.482C57.8225 63.0094 57.4415 62.6289 56.9682 62.6289H47.5711Z" fill="black"/>
<path d="M54.4054 70.1367C53.6033 70.1367 52.9531 70.786 52.9531 71.587C52.9531 72.388 53.6033 73.0373 54.4054 73.0373C55.2075 73.0373 55.8577 72.388 55.8577 71.587C55.8577 70.786 55.2075 70.1367 54.4054 70.1367ZM54.4054 70.8192C54.83 70.8192 55.1743 71.163 55.1743 71.587C55.1743 72.0111 54.83 72.3548 54.4054 72.3548C53.9808 72.3548 53.6366 72.0111 53.6366 71.587C53.6366 71.163 53.9808 70.8192 54.4054 70.8192Z" fill="black"/>
<path d="M56.1958 71.5005C56.1638 70.8202 55.7527 70.2398 55.168 69.9648H57.8216V71.5005H56.1958Z" fill="black"/>
<path d="M44.1535 70.1367C43.3514 70.1367 42.7012 70.786 42.7012 71.587C42.7012 72.388 43.3514 73.0373 44.1535 73.0373C44.9555 73.0373 45.6057 72.388 45.6057 71.587C45.6057 70.786 44.9555 70.1367 44.1535 70.1367ZM44.1535 70.8192C44.5781 70.8192 44.9223 71.163 44.9223 71.587C44.9223 72.0111 44.5781 72.3548 44.1535 72.3548C43.7288 72.3548 43.3846 72.0111 43.3846 71.587C43.3846 71.163 43.7288 70.8192 44.1535 70.8192Z" fill="black"/>
<path d="M49.7062 55.3906C42.637 55.3906 36.9062 61.1136 36.9062 68.1732C36.9062 75.2329 42.637 80.9558 49.7062 80.9558C56.7755 80.9558 62.5062 75.2329 62.5062 68.1732C62.5062 61.1136 56.7755 55.3906 49.7062 55.3906ZM49.7062 57.5518C55.5802 57.5518 60.3421 62.3072 60.3421 68.1732C60.3421 74.0392 55.5802 78.7946 49.7062 78.7946C43.8323 78.7946 39.0704 74.0392 39.0704 68.1732C39.0704 62.3072 43.8323 57.5518 49.7062 57.5518Z" fill="#FF0000"/>
<path d="M140.161 0.0859375H19.8406C17.767 0.0859375 16.0859 1.76467 16.0859 3.8355V94.1659C16.0859 96.2368 17.767 97.9155 19.8406 97.9155H140.161C142.234 97.9155 143.915 96.2368 143.915 94.1659V3.8355C143.915 1.76467 142.234 0.0859375 140.161 0.0859375Z" stroke="black" stroke-width="2"/>
<path d="M48.3789 20.3802C48.3789 20.413 48.369 20.4425 48.3492 20.4687C48.3295 20.4916 48.2949 20.5113 48.2455 20.5276C48.1961 20.544 48.1285 20.5555 48.0429 20.562C47.9605 20.5719 47.8568 20.5768 47.7316 20.5768C47.6065 20.5768 47.501 20.5719 47.4154 20.562C47.3331 20.5555 47.2672 20.544 47.2178 20.5276C47.1684 20.5113 47.1321 20.4916 47.1091 20.4687C47.0893 20.4425 47.0794 20.413 47.0794 20.3802V15.2655H44.6979V20.3802C44.6979 20.413 44.6864 20.4425 44.6634 20.4687C44.6436 20.4916 44.609 20.5113 44.5596 20.5276C44.5102 20.544 44.4443 20.5555 44.362 20.562C44.2796 20.5719 44.1742 20.5768 44.0458 20.5768C43.9206 20.5768 43.8152 20.5719 43.7295 20.562C43.6472 20.5555 43.5813 20.544 43.5319 20.5276C43.4825 20.5113 43.4479 20.4916 43.4282 20.4687C43.4084 20.4425 43.3985 20.413 43.3985 20.3802V14.5973C43.3985 14.4597 43.4331 14.3581 43.5023 14.2926C43.5714 14.2238 43.6637 14.1895 43.779 14.1895H48.0034C48.1219 14.1895 48.2142 14.2238 48.2801 14.2926C48.3459 14.3581 48.3789 14.4597 48.3789 14.5973V20.3802Z" fill="black"/>
<path d="M52.8108 18.7932C52.6659 19.1601 52.5226 19.4631 52.381 19.7022C52.2426 19.9413 52.0927 20.1313 51.9313 20.2722C51.7732 20.4097 51.5987 20.5047 51.4076 20.5571C51.2199 20.6128 51.0041 20.6407 50.7604 20.6407C50.6714 20.6407 50.5841 20.6341 50.4985 20.621C50.4129 20.6112 50.3321 20.5964 50.2564 20.5768C50.1806 20.5571 50.1148 20.5342 50.0588 20.508C50.0028 20.4818 49.9616 20.4572 49.9352 20.4343C49.9089 20.4114 49.8875 20.3868 49.871 20.3606C49.8578 20.3311 49.8463 20.2934 49.8364 20.2476C49.8265 20.2017 49.8183 20.1444 49.8117 20.0756C49.8084 20.0036 49.8068 19.9151 49.8068 19.8103C49.8068 19.6203 49.82 19.486 49.8463 19.4074C49.8759 19.3255 49.9204 19.2846 49.9797 19.2846C50.0093 19.2846 50.0423 19.296 50.0785 19.319C50.1148 19.3419 50.1576 19.3665 50.207 19.3927C50.2597 19.4189 50.319 19.4434 50.3849 19.4664C50.454 19.486 50.5347 19.4958 50.627 19.4958C50.6961 19.4958 50.7604 19.4893 50.8196 19.4762C50.8789 19.4598 50.9349 19.4303 50.9876 19.3878C51.0403 19.3452 51.093 19.2862 51.1457 19.2109C51.1984 19.1323 51.2544 19.0307 51.3137 18.9062L49.2089 14.6464C49.1628 14.5449 49.1348 14.463 49.1249 14.4007C49.1184 14.3352 49.1348 14.2844 49.1743 14.2484C49.2139 14.2124 49.2798 14.1895 49.372 14.1796C49.4675 14.1665 49.5943 14.16 49.7524 14.16C49.9072 14.16 50.0308 14.1632 50.123 14.1698C50.2152 14.1764 50.2893 14.1911 50.3453 14.214C50.4013 14.2337 50.4441 14.2648 50.4738 14.3074C50.5034 14.3467 50.5331 14.3991 50.5627 14.4646L51.462 16.3906C51.5608 16.597 51.6546 16.8033 51.7436 17.0097C51.8325 17.2128 51.9182 17.4191 52.0005 17.6288H52.0153C52.0812 17.4093 52.1504 17.1964 52.2228 16.9901C52.2986 16.7804 52.381 16.561 52.4699 16.3317L53.2061 14.3762C53.2225 14.3303 53.244 14.2943 53.2703 14.2681C53.2967 14.2386 53.3362 14.2157 53.3889 14.1993C53.4416 14.1829 53.5141 14.1731 53.6063 14.1698C53.6985 14.1632 53.8187 14.16 53.967 14.16C54.1185 14.16 54.2387 14.1649 54.3276 14.1747C54.4166 14.1845 54.4808 14.2042 54.5203 14.2337C54.5599 14.2599 54.578 14.2975 54.5747 14.3467C54.5714 14.3958 54.5549 14.4597 54.5253 14.5383L52.8108 18.7932Z" fill="black"/>
<path d="M62.9988 20.1395C62.9988 20.2771 62.9659 20.3802 62.9 20.449C62.8341 20.5145 62.7419 20.5473 62.6233 20.5473H55.7012C55.5859 20.5473 55.492 20.5145 55.4196 20.449C55.3504 20.3802 55.3158 20.2771 55.3158 20.1395V14.3467C55.3158 14.3139 55.3257 14.2861 55.3455 14.2632C55.3685 14.2402 55.4047 14.2222 55.4542 14.2091C55.5036 14.1927 55.5694 14.1813 55.6518 14.1747C55.7341 14.1649 55.8346 14.16 55.9532 14.16C56.0751 14.16 56.1755 14.1649 56.2546 14.1747C56.3369 14.1813 56.4028 14.1927 56.4522 14.2091C56.5016 14.2222 56.5362 14.2402 56.556 14.2632C56.579 14.2861 56.5905 14.3139 56.5905 14.3467V19.4958H58.5224V14.3467C58.5224 14.3139 58.5323 14.2861 58.5521 14.2632C58.5751 14.2402 58.6097 14.2222 58.6558 14.2091C58.7052 14.1927 58.7711 14.1813 58.8534 14.1747C58.9358 14.1649 59.0363 14.16 59.1548 14.16C59.2734 14.16 59.3722 14.1649 59.4513 14.1747C59.5336 14.1813 59.5995 14.1927 59.6489 14.2091C59.6983 14.2222 59.7329 14.2402 59.7527 14.2632C59.7757 14.2861 59.7873 14.3139 59.7873 14.3467V19.4958H61.7241V14.3467C61.7241 14.3139 61.734 14.2861 61.7537 14.2632C61.7768 14.2402 61.813 14.2222 61.8624 14.2091C61.9118 14.1927 61.9761 14.1813 62.0551 14.1747C62.1375 14.1649 62.2396 14.16 62.3614 14.16C62.48 14.16 62.5788 14.1649 62.6579 14.1747C62.7402 14.1813 62.8061 14.1927 62.8555 14.2091C62.9049 14.2222 62.9412 14.2402 62.9642 14.2632C62.9873 14.2861 62.9988 14.3139 62.9988 14.3467V20.1395Z" fill="black"/>
<path d="M69.1304 20.3753C69.1304 20.4114 69.1205 20.4425 69.1007 20.4687C69.081 20.4916 69.0448 20.5113 68.9921 20.5276C68.9426 20.544 68.8751 20.5555 68.7895 20.562C68.7038 20.5719 68.5935 20.5768 68.4584 20.5768C68.3168 20.5768 68.2015 20.5719 68.1126 20.562C68.0269 20.5555 67.9578 20.544 67.9051 20.5276C67.8524 20.508 67.8128 20.4834 67.7865 20.4539C67.7601 20.4212 67.7404 20.3819 67.7272 20.336L67.2133 18.921C67.1409 18.7146 67.0651 18.5427 66.9861 18.4051C66.907 18.2642 66.8197 18.1512 66.7242 18.0661C66.6287 17.9776 66.52 17.9154 66.3981 17.8794C66.2762 17.8433 66.1395 17.8253 65.988 17.8253H65.6965V20.3704C65.6965 20.4065 65.6866 20.4376 65.6669 20.4638C65.6471 20.4867 65.6125 20.508 65.5631 20.5276C65.5137 20.544 65.4478 20.5555 65.3655 20.562C65.2831 20.5719 65.1777 20.5768 65.0493 20.5768C64.9241 20.5768 64.8187 20.5719 64.733 20.562C64.6507 20.5555 64.5848 20.544 64.5354 20.5276C64.486 20.508 64.4498 20.4867 64.4267 20.4638C64.407 20.4376 64.3971 20.4065 64.3971 20.3704V14.3614C64.3971 14.3254 64.407 14.2959 64.4267 14.273C64.4498 14.2468 64.486 14.2255 64.5354 14.2091C64.5848 14.1927 64.6507 14.1813 64.733 14.1747C64.8187 14.1649 64.9241 14.16 65.0493 14.16C65.1777 14.16 65.2831 14.1649 65.3655 14.1747C65.4478 14.1813 65.5137 14.1927 65.5631 14.2091C65.6125 14.2255 65.6471 14.2468 65.6669 14.273C65.6866 14.2959 65.6965 14.3254 65.6965 14.3614V16.7493H65.988C66.1362 16.7493 66.2664 16.7296 66.3783 16.6903C66.4903 16.651 66.5908 16.5888 66.6797 16.5036C66.772 16.4185 66.8543 16.3087 66.9268 16.1744C67.0025 16.0369 67.075 15.8682 67.1442 15.6684L67.574 14.4007C67.5905 14.3549 67.6103 14.3172 67.6333 14.2877C67.6564 14.255 67.6926 14.2304 67.742 14.214C67.7947 14.1944 67.8622 14.1813 67.9446 14.1747C68.0302 14.1649 68.1439 14.16 68.2855 14.16C68.414 14.16 68.5194 14.1649 68.6017 14.1747C68.6874 14.1813 68.7532 14.1927 68.7994 14.2091C68.8488 14.2222 68.8817 14.2419 68.8982 14.2681C68.9146 14.291 68.9229 14.3205 68.9229 14.3565C68.9229 14.3991 68.9146 14.4515 68.8982 14.5137C68.885 14.576 68.8603 14.6579 68.8241 14.7594L68.3942 15.8895C68.3152 16.0991 68.2361 16.2776 68.157 16.425C68.078 16.5724 67.994 16.6985 67.9051 16.8033C67.8194 16.9049 67.7272 16.9884 67.6284 17.0539C67.5329 17.1194 67.4258 17.1735 67.3072 17.2161V17.221C67.439 17.2767 67.5576 17.3405 67.663 17.4126C67.7717 17.4814 67.8721 17.5698 67.9644 17.6779C68.0599 17.786 68.1505 17.9187 68.2361 18.0759C68.3217 18.2331 68.409 18.4264 68.498 18.6557L69.0217 19.9724C69.0744 20.1067 69.1057 20.2001 69.1156 20.2525C69.1255 20.3016 69.1304 20.3426 69.1304 20.3753Z" fill="black"/>
<path d="M75.3015 20.3802C75.3015 20.413 75.29 20.4425 75.2669 20.4687C75.2472 20.4916 75.2126 20.5113 75.1632 20.5276C75.1138 20.544 75.0462 20.5555 74.9606 20.562C74.8782 20.5719 74.7745 20.5768 74.6493 20.5768C74.5241 20.5768 74.4187 20.5719 74.3331 20.562C74.2507 20.5555 74.1849 20.544 74.1355 20.5276C74.0893 20.5113 74.0564 20.4916 74.0366 20.4687C74.0169 20.4425 74.007 20.413 74.007 20.3802V17.0294C74.007 16.9016 74.0086 16.7771 74.0119 16.6559C74.0152 16.5315 74.0202 16.4217 74.0268 16.3268H74.0169C73.9905 16.3726 73.9592 16.4267 73.923 16.4889C73.8868 16.5479 73.8472 16.6117 73.8044 16.6805C73.7649 16.746 73.7221 16.8148 73.676 16.8869C73.6299 16.9557 73.5837 17.0228 73.5376 17.0883L71.3142 20.3852C71.2879 20.4212 71.2599 20.4523 71.2303 20.4785C71.2039 20.5047 71.1677 20.526 71.1216 20.5424C71.0787 20.5555 71.0244 20.5637 70.9585 20.567C70.8959 20.5735 70.8136 20.5768 70.7115 20.5768C70.583 20.5768 70.4792 20.5719 70.4002 20.562C70.3211 20.5555 70.2586 20.544 70.2124 20.5276C70.1696 20.5113 70.14 20.49 70.1235 20.4638C70.107 20.4376 70.0988 20.4065 70.0988 20.3704V14.3565C70.0988 14.3238 70.1087 14.2959 70.1284 14.273C70.1515 14.2468 70.1877 14.2255 70.2371 14.2091C70.2898 14.1927 70.3574 14.1813 70.4397 14.1747C70.5221 14.1649 70.6258 14.16 70.751 14.16C70.8795 14.16 70.9849 14.1649 71.0672 14.1747C71.1495 14.1813 71.2154 14.1927 71.2648 14.2091C71.3142 14.2255 71.3488 14.2468 71.3686 14.273C71.3884 14.2959 71.3982 14.3238 71.3982 14.3565V17.7271C71.3982 17.8319 71.3966 17.9432 71.3933 18.0612C71.39 18.1791 71.3851 18.2937 71.3785 18.4051H71.3884C71.4444 18.3068 71.5152 18.1889 71.6008 18.0513C71.6865 17.9138 71.7754 17.7795 71.8676 17.6484L74.091 14.3516C74.1141 14.3188 74.1388 14.291 74.1651 14.2681C74.1915 14.2419 74.226 14.2206 74.2689 14.2042C74.315 14.1878 74.371 14.1764 74.4369 14.1698C74.5027 14.1632 74.5867 14.16 74.6888 14.16C74.814 14.16 74.9145 14.1649 74.9902 14.1747C75.0693 14.1813 75.1319 14.1927 75.178 14.2091C75.2241 14.2255 75.2554 14.2468 75.2719 14.273C75.2916 14.2959 75.3015 14.3254 75.3015 14.3614V20.3802Z" fill="black"/>
<path d="M81.69 20.3704C81.69 20.4032 81.6785 20.4327 81.6554 20.4589C81.6357 20.4851 81.6011 20.5064 81.5517 20.5227C81.5023 20.5391 81.4364 20.5522 81.354 20.562C81.2717 20.5719 81.1679 20.5768 81.0428 20.5768C80.9143 20.5768 80.8072 20.5719 80.7216 20.562C80.6393 20.5522 80.5734 20.5391 80.524 20.5227C80.4779 20.5064 80.4433 20.4851 80.4202 20.4589C80.4004 20.4327 80.3906 20.4032 80.3906 20.3704V17.8008H77.9992V20.3704C77.9992 20.4032 77.9893 20.4327 77.9696 20.4589C77.9498 20.4851 77.9152 20.5064 77.8658 20.5227C77.8164 20.5391 77.7505 20.5522 77.6682 20.562C77.5858 20.5719 77.4804 20.5768 77.3519 20.5768C77.2268 20.5768 77.1214 20.5719 77.0357 20.562C76.9534 20.5522 76.8875 20.5391 76.8381 20.5227C76.7887 20.5064 76.7525 20.4851 76.7294 20.4589C76.7096 20.4327 76.6998 20.4032 76.6998 20.3704V14.3663C76.6998 14.3336 76.7096 14.3041 76.7294 14.2779C76.7525 14.2517 76.7887 14.2304 76.8381 14.214C76.8875 14.1976 76.9534 14.1845 77.0357 14.1747C77.1214 14.1649 77.2268 14.16 77.3519 14.16C77.4804 14.16 77.5858 14.1649 77.6682 14.1747C77.7505 14.1845 77.8164 14.1976 77.8658 14.214C77.9152 14.2304 77.9498 14.2517 77.9696 14.2779C77.9893 14.3041 77.9992 14.3336 77.9992 14.3663V16.7002H80.3906V14.3663C80.3906 14.3336 80.4004 14.3041 80.4202 14.2779C80.4433 14.2517 80.4779 14.2304 80.524 14.214C80.5734 14.1976 80.6393 14.1845 80.7216 14.1747C80.8072 14.1649 80.9143 14.16 81.0428 14.16C81.1679 14.16 81.2717 14.1649 81.354 14.1747C81.4364 14.1845 81.5023 14.1976 81.5517 14.214C81.6011 14.2304 81.6357 14.2517 81.6554 14.2779C81.6785 14.3041 81.69 14.3336 81.69 14.3663V20.3704Z" fill="black"/>
<path d="M89.4422 20.4294C89.4422 20.4556 89.4323 20.4785 89.4125 20.4982C89.3961 20.5145 89.3648 20.5293 89.3187 20.5424C89.2725 20.5522 89.2083 20.5604 89.126 20.567C89.0469 20.5735 88.9464 20.5768 88.8246 20.5768C88.6862 20.5768 88.5726 20.5735 88.4837 20.567C88.3947 20.5604 88.3239 20.5522 88.2712 20.5424C88.2185 20.5293 88.1806 20.5113 88.1576 20.4883C88.1345 20.4654 88.1164 20.4376 88.1032 20.4048L87.6931 19.3583C87.6437 19.2174 87.5894 19.0995 87.5301 19.0045C87.4741 18.9095 87.4115 18.8342 87.3423 18.7785C87.2732 18.7195 87.1941 18.6786 87.1052 18.6557C87.0162 18.6295 86.9141 18.6164 86.7988 18.6164H86.5468V20.4048C86.5468 20.4277 86.5353 20.4507 86.5123 20.4736C86.4892 20.4933 86.453 20.5113 86.4036 20.5276C86.3542 20.544 86.2899 20.5555 86.2109 20.562C86.1318 20.5719 86.0363 20.5768 85.9243 20.5768C85.809 20.5768 85.7118 20.5719 85.6328 20.562C85.5537 20.5555 85.4895 20.544 85.4401 20.5276C85.3907 20.5113 85.3545 20.4933 85.3314 20.4736C85.3116 20.4507 85.3018 20.4277 85.3018 20.4048V15.9681C85.3018 15.9451 85.3116 15.9239 85.3314 15.9042C85.3545 15.8813 85.3907 15.8633 85.4401 15.8502C85.4895 15.8338 85.5537 15.8223 85.6328 15.8158C85.7118 15.8059 85.809 15.801 85.9243 15.801C86.0363 15.801 86.1318 15.8059 86.2109 15.8158C86.2899 15.8223 86.3542 15.8338 86.4036 15.8502C86.453 15.8633 86.4892 15.8813 86.5123 15.9042C86.5353 15.9239 86.5468 15.9451 86.5468 15.9681V17.673H86.7988C86.9009 17.673 86.9932 17.6615 87.0755 17.6386C87.1579 17.6124 87.232 17.5715 87.2979 17.5158C87.367 17.4568 87.4296 17.3798 87.4856 17.2849C87.5449 17.1899 87.6009 17.0719 87.6536 16.9311L88.0242 15.9877C88.034 15.955 88.0505 15.9271 88.0736 15.9042C88.0966 15.878 88.1312 15.8583 88.1773 15.8452C88.2267 15.8289 88.2926 15.8174 88.375 15.8109C88.4606 15.8043 88.5726 15.801 88.7109 15.801C88.8328 15.801 88.9316 15.8043 89.0074 15.8109C89.0864 15.8174 89.1474 15.8272 89.1902 15.8403C89.2363 15.8534 89.2676 15.8698 89.2841 15.8895C89.3005 15.9058 89.3088 15.9271 89.3088 15.9533C89.3088 15.9861 89.3022 16.0254 89.289 16.0713C89.2758 16.1171 89.2528 16.1794 89.2198 16.258L88.869 17.0932C88.7999 17.2603 88.7258 17.4028 88.6467 17.5207C88.5709 17.6353 88.4919 17.7303 88.4095 17.8057C88.3305 17.881 88.2498 17.9416 88.1674 17.9875C88.0851 18.0333 88.006 18.0693 87.9303 18.0956V18.1054C88.0324 18.148 88.1279 18.1938 88.2169 18.243C88.3058 18.2921 88.3898 18.356 88.4688 18.4346C88.5512 18.5132 88.6286 18.6115 88.7011 18.7294C88.7768 18.844 88.8509 18.9832 88.9234 19.147L89.3532 20.1297C89.373 20.1723 89.3878 20.2099 89.3977 20.2427C89.4109 20.2722 89.4208 20.3 89.4274 20.3262C89.4339 20.3491 89.4372 20.3688 89.4372 20.3852C89.4405 20.4015 89.4422 20.4163 89.4422 20.4294Z" fill="black"/>
<path d="M92.4956 18.0759C92.4956 18.2659 92.4775 18.3985 92.4413 18.4739C92.405 18.5492 92.3474 18.5869 92.2683 18.5869H90.213C90.1306 18.5869 90.0713 18.5492 90.0351 18.4739C89.9988 18.3953 89.9807 18.2626 89.9807 18.0759C89.9807 17.8925 89.9988 17.7631 90.0351 17.6877C90.0713 17.6124 90.1306 17.5747 90.213 17.5747H92.2683C92.3079 17.5747 92.3408 17.5829 92.3672 17.5993C92.3968 17.6157 92.4215 17.6435 92.4413 17.6828C92.461 17.7221 92.4742 17.7745 92.4808 17.8401C92.4907 17.9056 92.4956 17.9842 92.4956 18.0759Z" fill="black"/>
<path d="M96.7497 19.6826C96.7497 19.7677 96.7464 19.8398 96.7398 19.8987C96.7365 19.9544 96.7299 20.0019 96.72 20.0412C96.7134 20.0805 96.7036 20.1133 96.6904 20.1395C96.6805 20.1624 96.6558 20.1935 96.6163 20.2328C96.5768 20.2689 96.5092 20.3147 96.4137 20.3704C96.3182 20.4228 96.2095 20.4703 96.0876 20.5129C95.9657 20.5555 95.8323 20.5899 95.6874 20.6161C95.5458 20.6423 95.3992 20.6554 95.2477 20.6554C94.9084 20.6554 94.607 20.603 94.3435 20.4982C94.0833 20.3934 93.8642 20.2394 93.6864 20.0363C93.5085 19.83 93.3734 19.5794 93.2812 19.2846C93.1923 18.9898 93.1478 18.6524 93.1478 18.2724C93.1478 17.8335 93.2022 17.4552 93.3109 17.1375C93.4229 16.8164 93.5777 16.5511 93.7753 16.3415C93.9729 16.1319 94.2068 15.9763 94.4769 15.8747C94.747 15.7732 95.0434 15.7224 95.3662 15.7224C95.498 15.7224 95.6265 15.7339 95.7516 15.7568C95.8801 15.7797 95.9987 15.8109 96.1074 15.8502C96.2194 15.8895 96.3182 15.9337 96.4038 15.9828C96.4928 16.032 96.5553 16.0745 96.5916 16.1106C96.6278 16.1466 96.6525 16.1777 96.6657 16.2039C96.6822 16.2268 96.6937 16.258 96.7003 16.2973C96.7102 16.3366 96.7167 16.3857 96.72 16.4447C96.7266 16.5004 96.7299 16.5691 96.7299 16.651C96.7299 16.841 96.7134 16.9753 96.6805 17.0539C96.6476 17.1293 96.6048 17.1669 96.552 17.1669C96.4961 17.1669 96.4368 17.144 96.3742 17.0981C96.3116 17.0523 96.2375 17.0015 96.1518 16.9458C96.0662 16.8901 95.9641 16.8394 95.8455 16.7935C95.7269 16.7477 95.5853 16.7247 95.4206 16.7247C95.0978 16.7247 94.8508 16.8492 94.6795 17.0981C94.5082 17.3438 94.4225 17.7058 94.4225 18.184C94.4225 18.4198 94.444 18.6278 94.4868 18.808C94.5296 18.9881 94.5922 19.1388 94.6745 19.26C94.7602 19.3812 94.8656 19.4729 94.9907 19.5352C95.1192 19.5941 95.2674 19.6236 95.4354 19.6236C95.6067 19.6236 95.7533 19.599 95.8752 19.5499C96.0003 19.4975 96.109 19.4402 96.2012 19.3779C96.2935 19.3157 96.3709 19.26 96.4335 19.2109C96.4961 19.1585 96.5488 19.1323 96.5916 19.1323C96.6212 19.1323 96.6459 19.1405 96.6657 19.1568C96.6855 19.1732 96.7003 19.2043 96.7102 19.2502C96.7233 19.2928 96.7332 19.3484 96.7398 19.4172C96.7464 19.486 96.7497 19.5745 96.7497 19.6826Z" fill="black"/>
<path d="M98.8989 20.3802C98.8989 20.413 98.8891 20.4425 98.8693 20.4687C98.8495 20.4916 98.815 20.5113 98.7655 20.5276C98.7194 20.544 98.6568 20.5555 98.5778 20.562C98.4987 20.5719 98.3983 20.5768 98.2764 20.5768C98.1545 20.5768 98.0541 20.5719 97.975 20.562C97.896 20.5555 97.8317 20.544 97.7823 20.5276C97.7362 20.5113 97.7033 20.4916 97.6835 20.4687C97.6637 20.4425 97.6539 20.413 97.6539 20.3802V16.0074C97.6539 15.9746 97.6637 15.9468 97.6835 15.9239C97.7033 15.8977 97.7362 15.8764 97.7823 15.86C97.8317 15.8403 97.896 15.8256 97.975 15.8158C98.0541 15.8059 98.1545 15.801 98.2764 15.801C98.3983 15.801 98.4987 15.8059 98.5778 15.8158C98.6568 15.8256 98.7194 15.8403 98.7655 15.86C98.815 15.8764 98.8495 15.8977 98.8693 15.9239C98.8891 15.9468 98.8989 15.9746 98.8989 16.0074V20.3802ZM98.9928 14.5137C98.9928 14.7627 98.9418 14.9346 98.8397 15.0296C98.7375 15.1246 98.5481 15.1721 98.2715 15.1721C97.9915 15.1721 97.8021 15.1263 97.7033 15.0345C97.6077 14.9428 97.56 14.7774 97.56 14.5383C97.56 14.2894 97.6094 14.1174 97.7082 14.0224C97.8103 13.9241 98.0014 13.875 98.2813 13.875C98.558 13.875 98.7458 13.9225 98.8446 14.0175C98.9434 14.1092 98.9928 14.2746 98.9928 14.5137Z" fill="black"/>
<path d="M45.8788 30.1723L45.3452 31.7249C45.3156 31.8068 45.2349 31.8658 45.1031 31.9018C44.9713 31.9378 44.7786 31.9558 44.525 31.9558C44.3933 31.9558 44.2879 31.9493 44.2088 31.9362C44.1298 31.9264 44.0705 31.9083 44.0309 31.8821C43.9914 31.8559 43.97 31.8232 43.9667 31.7839C43.9634 31.7446 43.9733 31.6971 43.9963 31.6414L44.5843 30.1723C44.5415 30.1526 44.502 30.1232 44.4657 30.0839C44.4328 30.0413 44.4081 29.9971 44.3916 29.9512L42.8748 25.9223C42.832 25.8076 42.8105 25.7208 42.8105 25.6619C42.8105 25.5996 42.8303 25.5521 42.8698 25.5194C42.9094 25.4833 42.9752 25.4588 43.0675 25.4457C43.163 25.4326 43.2882 25.426 43.443 25.426C43.5846 25.426 43.6966 25.4293 43.779 25.4359C43.8613 25.4391 43.9255 25.4506 43.9716 25.4702C44.0178 25.4899 44.0523 25.521 44.0754 25.5636C44.0985 25.6029 44.1215 25.6602 44.1446 25.7356L45.1821 28.6688H45.197L46.1456 25.6766C46.1654 25.5914 46.1901 25.5358 46.2197 25.5096C46.2527 25.4801 46.3054 25.4588 46.3778 25.4457C46.4503 25.4326 46.5771 25.426 46.7583 25.426C46.8999 25.426 47.0168 25.4326 47.1091 25.4457C47.2046 25.4588 47.2738 25.4833 47.3166 25.5194C47.3627 25.5554 47.3858 25.6045 47.3858 25.6668C47.3858 25.7257 47.3726 25.7962 47.3462 25.8781L45.8788 30.1723Z" fill="black"/>
<path d="M51.8375 30.0052C51.8375 30.038 51.8276 30.0675 51.8078 30.0937C51.7881 30.1166 51.7551 30.1363 51.709 30.1526C51.6629 30.169 51.5987 30.1805 51.5163 30.187C51.4373 30.1969 51.3384 30.2018 51.2199 30.2018C51.098 30.2018 50.9959 30.1969 50.9135 30.187C50.8345 30.1805 50.7702 30.169 50.7208 30.1526C50.6747 30.1363 50.6418 30.1166 50.622 30.0937C50.6055 30.0675 50.5973 30.038 50.5973 30.0052V26.4627H49.703C49.6503 26.977 49.5844 27.429 49.5054 27.8188C49.4296 28.2053 49.3407 28.5394 49.2386 28.8211C49.1365 29.1028 49.0228 29.337 48.8977 29.5237C48.7758 29.7072 48.6407 29.8529 48.4925 29.961C48.3443 30.0691 48.1829 30.1461 48.0083 30.192C47.837 30.2378 47.6559 30.2607 47.4648 30.2607C47.4187 30.2607 47.3808 30.2542 47.3512 30.2411C47.3215 30.228 47.2985 30.2034 47.282 30.1674C47.2655 30.1281 47.254 30.0724 47.2474 30.0003C47.2408 29.9283 47.2375 29.8333 47.2375 29.7154C47.2375 29.5942 47.2392 29.4959 47.2425 29.4206C47.2491 29.3452 47.2589 29.2879 47.2721 29.2486C47.2853 29.206 47.3034 29.1782 47.3265 29.1651C47.3495 29.152 47.3775 29.1454 47.4105 29.1454C47.5027 29.1454 47.59 29.1274 47.6723 29.0914C47.758 29.0521 47.837 28.9849 47.9095 28.8899C47.9853 28.7917 48.0561 28.6639 48.1219 28.5067C48.1878 28.3462 48.2488 28.1447 48.3048 27.9023C48.3608 27.66 48.4135 27.3717 48.4629 27.0376C48.5123 26.7002 48.56 26.3088 48.6062 25.8633C48.6127 25.729 48.6407 25.6291 48.6901 25.5636C48.7428 25.4981 48.8268 25.4653 48.9421 25.4653H51.4965C51.6118 25.4653 51.6975 25.4981 51.7535 25.5636C51.8095 25.6291 51.8375 25.729 51.8375 25.8633V30.0052Z" fill="black"/>
<path d="M54.55 29.4648C54.55 29.7694 54.4956 29.9741 54.3869 30.0789C54.2815 30.1838 54.0905 30.2362 53.8138 30.2362C53.5371 30.2362 53.3461 30.1854 53.2407 30.0839C53.1353 29.979 53.0826 29.7825 53.0826 29.4943C53.0826 29.1864 53.1353 28.98 53.2407 28.8752C53.3494 28.7704 53.5437 28.718 53.8237 28.718C54.0971 28.718 54.2865 28.7704 54.3919 28.8752C54.4973 28.9767 54.55 29.1733 54.55 29.4648Z" fill="black"/>
<path d="M63.1421 30.0052C63.1421 30.038 63.1322 30.0675 63.1125 30.0937C63.0927 30.1166 63.0581 30.1363 63.0087 30.1526C62.9593 30.169 62.8918 30.1805 62.8061 30.187C62.7238 30.1969 62.62 30.2018 62.4948 30.2018C62.3697 30.2018 62.2643 30.1969 62.1786 30.187C62.0963 30.1805 62.0304 30.169 61.981 30.1526C61.9316 30.1363 61.8954 30.1166 61.8723 30.0937C61.8525 30.0675 61.8427 30.038 61.8427 30.0052V24.8905H59.4612V30.0052C59.4612 30.038 59.4496 30.0675 59.4266 30.0937C59.4068 30.1166 59.3722 30.1363 59.3228 30.1526C59.2734 30.169 59.2075 30.1805 59.1252 30.187C59.0428 30.1969 58.9374 30.2018 58.809 30.2018C58.6838 30.2018 58.5784 30.1969 58.4928 30.187C58.4104 30.1805 58.3445 30.169 58.2951 30.1526C58.2457 30.1363 58.2111 30.1166 58.1914 30.0937C58.1716 30.0675 58.1617 30.038 58.1617 30.0052V24.2223C58.1617 24.0847 58.1963 23.9831 58.2655 23.9176C58.3347 23.8488 58.4269 23.8145 58.5422 23.8145H62.7666C62.8852 23.8145 62.9774 23.8488 63.0433 23.9176C63.1092 23.9831 63.1421 24.0847 63.1421 24.2223V30.0052Z" fill="black"/>
<path d="M67.574 28.4182C67.4291 28.7851 67.2858 29.0881 67.1442 29.3272C67.0058 29.5663 66.856 29.7563 66.6946 29.8972C66.5365 30.0347 66.3619 30.1297 66.1708 30.1821C65.9831 30.2378 65.7673 30.2657 65.5236 30.2657C65.4346 30.2657 65.3474 30.2591 65.2617 30.246C65.1761 30.2362 65.0954 30.2214 65.0196 30.2018C64.9439 30.1821 64.878 30.1592 64.822 30.133C64.766 30.1068 64.7248 30.0822 64.6985 30.0593C64.6721 30.0364 64.6507 30.0118 64.6342 29.9856C64.6211 29.9561 64.6095 29.9184 64.5996 29.8726C64.5898 29.8267 64.5815 29.7694 64.5749 29.7006C64.5716 29.6286 64.57 29.5401 64.57 29.4353C64.57 29.2453 64.5832 29.111 64.6095 29.0324C64.6392 28.9505 64.6836 28.9096 64.7429 28.9096C64.7726 28.9096 64.8055 28.921 64.8417 28.944C64.878 28.9669 64.9208 28.9915 64.9702 29.0177C65.0229 29.0439 65.0822 29.0684 65.1481 29.0914C65.2172 29.111 65.298 29.1208 65.3902 29.1208C65.4594 29.1208 65.5236 29.1143 65.5829 29.1012C65.6422 29.0848 65.6982 29.0553 65.7509 29.0128C65.8036 28.9702 65.8563 28.9112 65.909 28.8359C65.9617 28.7573 66.0177 28.6557 66.077 28.5312L63.9722 24.2714C63.926 24.1699 63.898 24.088 63.8882 24.0257C63.8816 23.9602 63.898 23.9094 63.9376 23.8734C63.9771 23.8374 64.043 23.8145 64.1352 23.8046C64.2307 23.7915 64.3575 23.785 64.5157 23.785C64.6705 23.785 64.794 23.7882 64.8862 23.7948C64.9784 23.8014 65.0526 23.8161 65.1086 23.839C65.1645 23.8587 65.2074 23.8898 65.237 23.9324C65.2667 23.9717 65.2963 24.0241 65.3259 24.0896L66.2252 26.0156C66.324 26.222 66.4179 26.4283 66.5068 26.6347C66.5957 26.8378 66.6814 27.0441 66.7637 27.2538H66.7786C66.8444 27.0343 66.9136 26.8214 66.9861 26.6151C67.0618 26.4054 67.1442 26.186 67.2331 25.9567L67.9693 24.0012C67.9858 23.9553 68.0072 23.9193 68.0335 23.8931C68.0599 23.8636 68.0994 23.8407 68.1521 23.8243C68.2048 23.8079 68.2773 23.7981 68.3695 23.7948C68.4617 23.7882 68.582 23.785 68.7302 23.785C68.8817 23.785 69.0019 23.7899 69.0909 23.7997C69.1798 23.8095 69.244 23.8292 69.2836 23.8587C69.3231 23.8849 69.3412 23.9225 69.3379 23.9717C69.3346 24.0208 69.3181 24.0847 69.2885 24.1633L67.574 28.4182Z" fill="black"/>
<path d="M77.762 29.7645C77.762 29.9021 77.7291 30.0052 77.6632 30.074C77.5973 30.1395 77.5051 30.1723 77.3865 30.1723H70.4644C70.3491 30.1723 70.2553 30.1395 70.1828 30.074C70.1136 30.0052 70.079 29.9021 70.079 29.7645V23.9717C70.079 23.9389 70.0889 23.9111 70.1087 23.8882C70.1317 23.8652 70.168 23.8472 70.2174 23.8341C70.2668 23.8177 70.3327 23.8063 70.415 23.7997C70.4974 23.7899 70.5978 23.785 70.7164 23.785C70.8383 23.785 70.9387 23.7899 71.0178 23.7997C71.1001 23.8063 71.166 23.8177 71.2154 23.8341C71.2648 23.8472 71.2994 23.8652 71.3192 23.8882C71.3422 23.9111 71.3538 23.9389 71.3538 23.9717V29.1208H73.2856V23.9717C73.2856 23.9389 73.2955 23.9111 73.3153 23.8882C73.3383 23.8652 73.3729 23.8472 73.419 23.8341C73.4685 23.8177 73.5343 23.8063 73.6167 23.7997C73.699 23.7899 73.7995 23.785 73.9181 23.785C74.0366 23.785 74.1355 23.7899 74.2145 23.7997C74.2969 23.8063 74.3627 23.8177 74.4122 23.8341C74.4616 23.8472 74.4961 23.8652 74.5159 23.8882C74.539 23.9111 74.5505 23.9389 74.5505 23.9717V29.1208H76.4873V23.9717C76.4873 23.9389 76.4972 23.9111 76.5169 23.8882C76.54 23.8652 76.5762 23.8472 76.6256 23.8341C76.6751 23.8177 76.7393 23.8063 76.8183 23.7997C76.9007 23.7899 77.0028 23.785 77.1247 23.785C77.2433 23.785 77.3421 23.7899 77.4211 23.7997C77.5035 23.8063 77.5693 23.8177 77.6188 23.8341C77.6682 23.8472 77.7044 23.8652 77.7275 23.8882C77.7505 23.9111 77.762 23.9389 77.762 23.9717V29.7645Z" fill="black"/>
<path d="M83.8936 30.0003C83.8936 30.0364 83.8837 30.0675 83.864 30.0937C83.8442 30.1166 83.808 30.1363 83.7553 30.1526C83.7059 30.169 83.6383 30.1805 83.5527 30.187C83.4671 30.1969 83.3567 30.2018 83.2217 30.2018C83.08 30.2018 82.9647 30.1969 82.8758 30.187C82.7902 30.1805 82.721 30.169 82.6683 30.1526C82.6156 30.133 82.5761 30.1084 82.5497 30.0789C82.5234 30.0462 82.5036 30.0069 82.4904 29.961L81.9766 28.546C81.9041 28.3396 81.8284 28.1677 81.7493 28.0301C81.6702 27.8892 81.583 27.7762 81.4874 27.6911C81.3919 27.6026 81.2832 27.5404 81.1613 27.5044C81.0395 27.4683 80.9028 27.4503 80.7512 27.4503H80.4597V29.9954C80.4597 30.0315 80.4499 30.0626 80.4301 30.0888C80.4103 30.1117 80.3757 30.133 80.3263 30.1526C80.2769 30.169 80.211 30.1805 80.1287 30.187C80.0464 30.1969 79.9409 30.2018 79.8125 30.2018C79.6873 30.2018 79.5819 30.1969 79.4963 30.187C79.4139 30.1805 79.348 30.169 79.2986 30.1526C79.2492 30.133 79.213 30.1117 79.1899 30.0888C79.1702 30.0626 79.1603 30.0315 79.1603 29.9954V23.9864C79.1603 23.9504 79.1702 23.9209 79.1899 23.898C79.213 23.8718 79.2492 23.8505 79.2986 23.8341C79.348 23.8177 79.4139 23.8063 79.4963 23.7997C79.5819 23.7899 79.6873 23.785 79.8125 23.785C79.9409 23.785 80.0464 23.7899 80.1287 23.7997C80.211 23.8063 80.2769 23.8177 80.3263 23.8341C80.3757 23.8505 80.4103 23.8718 80.4301 23.898C80.4499 23.9209 80.4597 23.9504 80.4597 23.9864V26.3743H80.7512C80.8995 26.3743 81.0296 26.3546 81.1416 26.3153C81.2536 26.276 81.354 26.2138 81.443 26.1286C81.5352 26.0435 81.6175 25.9337 81.69 25.7994C81.7658 25.6619 81.8382 25.4932 81.9074 25.2934L82.3373 24.0257C82.3537 23.9799 82.3735 23.9422 82.3965 23.9127C82.4196 23.88 82.4558 23.8554 82.5052 23.839C82.5579 23.8194 82.6255 23.8063 82.7078 23.7997C82.7935 23.7899 82.9071 23.785 83.0487 23.785C83.1772 23.785 83.2826 23.7899 83.3649 23.7997C83.4506 23.8063 83.5165 23.8177 83.5626 23.8341C83.612 23.8472 83.6449 23.8669 83.6614 23.8931C83.6779 23.916 83.6861 23.9455 83.6861 23.9815C83.6861 24.0241 83.6779 24.0765 83.6614 24.1387C83.6482 24.201 83.6235 24.2829 83.5873 24.3844L83.1574 25.5145C83.0784 25.7241 82.9993 25.9026 82.9203 26.05C82.8412 26.1974 82.7572 26.3235 82.6683 26.4283C82.5826 26.5299 82.4904 26.6134 82.3916 26.6789C82.2961 26.7444 82.189 26.7985 82.0704 26.8411V26.846C82.2022 26.9017 82.3208 26.9655 82.4262 27.0376C82.5349 27.1064 82.6354 27.1948 82.7276 27.3029C82.8231 27.411 82.9137 27.5437 82.9993 27.7009C83.085 27.8581 83.1723 28.0514 83.2612 28.2807L83.7849 29.5974C83.8376 29.7317 83.8689 29.8251 83.8788 29.8775C83.8887 29.9266 83.8936 29.9676 83.8936 30.0003Z" fill="black"/>
<path d="M90.0647 30.0052C90.0647 30.038 90.0532 30.0675 90.0301 30.0937C90.0104 30.1166 89.9758 30.1363 89.9264 30.1526C89.877 30.169 89.8095 30.1805 89.7238 30.187C89.6415 30.1969 89.5377 30.2018 89.4125 30.2018C89.2874 30.2018 89.182 30.1969 89.0963 30.187C89.014 30.1805 88.9481 30.169 88.8987 30.1526C88.8526 30.1363 88.8196 30.1166 88.7999 30.0937C88.7801 30.0675 88.7702 30.038 88.7702 30.0052V26.6544C88.7702 26.5266 88.7719 26.4021 88.7752 26.2809C88.7785 26.1565 88.7834 26.0467 88.79 25.9518H88.7801C88.7538 25.9976 88.7225 26.0517 88.6862 26.1139C88.65 26.1729 88.6105 26.2367 88.5677 26.3055C88.5281 26.371 88.4853 26.4398 88.4392 26.5119C88.3931 26.5807 88.347 26.6478 88.3008 26.7133L86.0775 30.0102C86.0511 30.0462 86.0231 30.0773 85.9935 30.1035C85.9671 30.1297 85.9309 30.151 85.8848 30.1674C85.842 30.1805 85.7876 30.1887 85.7217 30.192C85.6591 30.1985 85.5768 30.2018 85.4747 30.2018C85.3462 30.2018 85.2425 30.1969 85.1634 30.187C85.0844 30.1805 85.0218 30.169 84.9757 30.1526C84.9328 30.1363 84.9032 30.115 84.8867 30.0888C84.8703 30.0626 84.862 30.0315 84.862 29.9954V23.9815C84.862 23.9488 84.8719 23.9209 84.8917 23.898C84.9147 23.8718 84.951 23.8505 85.0004 23.8341C85.0531 23.8177 85.1206 23.8063 85.2029 23.7997C85.2853 23.7899 85.389 23.785 85.5142 23.785C85.6427 23.785 85.7481 23.7899 85.8304 23.7997C85.9128 23.8063 85.9787 23.8177 86.0281 23.8341C86.0775 23.8505 86.1121 23.8718 86.1318 23.898C86.1516 23.9209 86.1615 23.9488 86.1615 23.9815V27.3521C86.1615 27.4569 86.1598 27.5682 86.1565 27.6862C86.1532 27.8041 86.1483 27.9187 86.1417 28.0301H86.1516C86.2076 27.9318 86.2784 27.8139 86.364 27.6763C86.4497 27.5388 86.5386 27.4045 86.6308 27.2734L88.8542 23.9766C88.8773 23.9438 88.902 23.916 88.9283 23.8931C88.9547 23.8669 88.9893 23.8456 89.0321 23.8292C89.0782 23.8128 89.1342 23.8014 89.2001 23.7948C89.266 23.7882 89.35 23.785 89.4521 23.785C89.5772 23.785 89.6777 23.7899 89.7535 23.7997C89.8325 23.8063 89.8951 23.8177 89.9412 23.8341C89.9873 23.8505 90.0186 23.8718 90.0351 23.898C90.0548 23.9209 90.0647 23.9504 90.0647 23.9864V30.0052Z" fill="black"/>
<path d="M96.4532 29.9954C96.4532 30.0282 96.4417 30.0577 96.4186 30.0839C96.3989 30.1101 96.3643 30.1314 96.3149 30.1477C96.2655 30.1641 96.1996 30.1772 96.1173 30.187C96.0349 30.1969 95.9311 30.2018 95.806 30.2018C95.6775 30.2018 95.5705 30.1969 95.4848 30.187C95.4025 30.1772 95.3366 30.1641 95.2872 30.1477C95.2411 30.1314 95.2065 30.1101 95.1834 30.0839C95.1637 30.0577 95.1538 30.0282 95.1538 29.9954V27.4258H92.7624V29.9954C92.7624 30.0282 92.7525 30.0577 92.7328 30.0839C92.713 30.1101 92.6784 30.1314 92.629 30.1477C92.5796 30.1641 92.5137 30.1772 92.4314 30.187C92.349 30.1969 92.2436 30.2018 92.1152 30.2018C91.99 30.2018 91.8846 30.1969 91.799 30.187C91.7166 30.1772 91.6507 30.1641 91.6013 30.1477C91.5519 30.1314 91.5157 30.1101 91.4926 30.0839C91.4729 30.0577 91.463 30.0282 91.463 29.9954V23.9913C91.463 23.9586 91.4729 23.9291 91.4926 23.9029C91.5157 23.8767 91.5519 23.8554 91.6013 23.839C91.6507 23.8226 91.7166 23.8095 91.799 23.7997C91.8846 23.7899 91.99 23.785 92.1152 23.785C92.2436 23.785 92.349 23.7899 92.4314 23.7997C92.5137 23.8095 92.5796 23.8226 92.629 23.839C92.6784 23.8554 92.713 23.8767 92.7328 23.9029C92.7525 23.9291 92.7624 23.9586 92.7624 23.9913V26.3252H95.1538V23.9913C95.1538 23.9586 95.1637 23.9291 95.1834 23.9029C95.2065 23.8767 95.2411 23.8554 95.2872 23.839C95.3366 23.8226 95.4025 23.8095 95.4848 23.7997C95.5705 23.7899 95.6775 23.785 95.806 23.785C95.9311 23.785 96.0349 23.7899 96.1173 23.7997C96.1996 23.8095 96.2655 23.8226 96.3149 23.839C96.3643 23.8554 96.3989 23.8767 96.4186 23.9029C96.4417 23.9291 96.4532 23.9586 96.4532 23.9913V29.9954Z" fill="black"/>
<path d="M103.084 29.6908C103.123 29.8087 103.148 29.9021 103.158 29.9709C103.168 30.0396 103.155 30.0921 103.118 30.1281C103.082 30.1608 103.018 30.1805 102.926 30.187C102.833 30.1969 102.707 30.2018 102.545 30.2018C102.377 30.2018 102.246 30.1985 102.15 30.192C102.058 30.1887 101.987 30.1805 101.938 30.1674C101.888 30.151 101.854 30.1297 101.834 30.1035C101.814 30.0773 101.798 30.0429 101.784 30.0003L101.355 28.7229H98.9533L98.5481 29.9659C98.535 30.0118 98.5169 30.0511 98.4938 30.0839C98.474 30.1133 98.4394 30.1379 98.39 30.1576C98.3439 30.1739 98.2764 30.1854 98.1875 30.192C98.1018 30.1985 97.9882 30.2018 97.8465 30.2018C97.695 30.2018 97.5765 30.1969 97.4908 30.187C97.4052 30.1772 97.3459 30.1543 97.3129 30.1183C97.28 30.0789 97.2685 30.0249 97.2784 29.9561C97.2882 29.8873 97.3129 29.7956 97.3525 29.681L99.3239 24.0405C99.3436 23.9848 99.3667 23.9406 99.393 23.9078C99.4194 23.8718 99.4606 23.8456 99.5166 23.8292C99.5758 23.8095 99.6565 23.7981 99.7587 23.7948C99.8608 23.7882 99.9958 23.785 100.164 23.785C100.358 23.785 100.513 23.7882 100.628 23.7948C100.744 23.7981 100.832 23.8095 100.895 23.8292C100.961 23.8456 101.007 23.8718 101.033 23.9078C101.063 23.9438 101.088 23.993 101.108 24.0552L103.084 29.6908ZM100.149 25.028H100.144L99.2399 27.7304H101.053L100.149 25.028Z" fill="black"/>
<path d="M87.3561 58.557C87.3561 58.6553 87.3511 58.7388 87.3413 58.8076C87.3347 58.8731 87.3231 58.9272 87.3067 58.9698C87.2902 59.0091 87.2688 59.0385 87.2424 59.0582C87.2194 59.0746 87.1914 59.0828 87.1584 59.0828H85.0388V64.2123C85.0388 64.245 85.0273 64.2745 85.0042 64.3007C84.9845 64.3236 84.9499 64.3433 84.9005 64.3597C84.8511 64.3761 84.7852 64.3875 84.7028 64.3941C84.6205 64.4039 84.5151 64.4088 84.3866 64.4088C84.2615 64.4088 84.1561 64.4039 84.0704 64.3941C83.9881 64.3875 83.9222 64.3761 83.8728 64.3597C83.8234 64.3433 83.7871 64.3236 83.7641 64.3007C83.7443 64.2745 83.7344 64.245 83.7344 64.2123V58.4293C83.7344 58.2917 83.769 58.1902 83.8382 58.1247C83.9107 58.0559 84.0045 58.0215 84.1198 58.0215H87.1584C87.2243 58.0215 87.2737 58.0624 87.3067 58.1443C87.3396 58.2262 87.3561 58.3638 87.3561 58.557Z" fill="black"/>
<path d="M93.5766 61.1267C93.5766 61.6541 93.5107 62.1258 93.379 62.5417C93.2472 62.9577 93.0512 63.3115 92.791 63.603C92.5308 63.8913 92.208 64.1124 91.8226 64.2663C91.4405 64.417 90.9975 64.4923 90.4935 64.4923C89.9961 64.4923 89.5613 64.4285 89.1891 64.3007C88.8202 64.1697 88.5122 63.9715 88.2652 63.7062C88.0182 63.4409 87.832 63.1035 87.7069 62.6941C87.585 62.2846 87.5241 61.7998 87.5241 61.2397C87.5241 60.7255 87.5899 60.2636 87.7217 59.8542C87.8535 59.4414 88.0494 59.091 88.3097 58.8027C88.5699 58.5145 88.891 58.2934 89.2731 58.1394C89.6585 57.9855 90.1048 57.9085 90.6121 57.9085C91.0963 57.9085 91.5229 57.9724 91.8918 58.1001C92.264 58.2278 92.5736 58.4244 92.8206 58.6897C93.071 58.955 93.2587 59.2908 93.3839 59.6969C93.5124 60.0998 93.5766 60.5764 93.5766 61.1267ZM92.2129 61.1955C92.2129 60.8614 92.1866 60.5584 92.1339 60.2865C92.0812 60.0114 91.9906 59.7772 91.8621 59.5839C91.737 59.3874 91.569 59.2367 91.3582 59.1319C91.1473 59.0238 90.8838 58.9698 90.5676 58.9698C90.2481 58.9698 89.9813 59.0304 89.7672 59.1516C89.5531 59.2695 89.3802 59.4283 89.2484 59.6281C89.1167 59.828 89.0228 60.0622 88.9668 60.3307C88.9141 60.5961 88.8877 60.8778 88.8877 61.1758C88.8877 61.5231 88.9141 61.8359 88.9668 62.1143C89.0195 62.3894 89.1084 62.6253 89.2336 62.8218C89.3588 63.0183 89.5268 63.169 89.7376 63.2738C89.9484 63.3754 90.2135 63.4261 90.533 63.4261C90.8525 63.4261 91.1194 63.3672 91.3335 63.2493C91.5476 63.1313 91.7205 62.9708 91.8522 62.7678C91.984 62.5647 92.0762 62.3288 92.1289 62.0602C92.1849 61.7884 92.2129 61.5001 92.2129 61.1955Z" fill="black"/>
<path d="M98.2951 58.557C98.2951 58.6553 98.2902 58.7388 98.2803 58.8076C98.2737 58.8731 98.2622 58.9272 98.2457 58.9698C98.2292 59.0091 98.2078 59.0385 98.1815 59.0582C98.1584 59.0746 98.1304 59.0828 98.0975 59.0828H95.9778V64.2123C95.9778 64.245 95.9663 64.2745 95.9433 64.3007C95.9235 64.3236 95.8889 64.3433 95.8395 64.3597C95.7901 64.3761 95.7242 64.3875 95.6419 64.3941C95.5595 64.4039 95.4541 64.4088 95.3257 64.4088C95.2005 64.4088 95.0951 64.4039 95.0094 64.3941C94.9271 64.3875 94.8612 64.3761 94.8118 64.3597C94.7624 64.3433 94.7262 64.3236 94.7031 64.3007C94.6833 64.2745 94.6735 64.245 94.6735 64.2123V58.4293C94.6735 58.2917 94.708 58.1902 94.7772 58.1247C94.8497 58.0559 94.9436 58.0215 95.0588 58.0215H98.0975C98.1633 58.0215 98.2127 58.0624 98.2457 58.1443C98.2786 58.2262 98.2951 58.3638 98.2951 58.557Z" fill="black"/>
<path d="M104.516 61.1267C104.516 61.6541 104.45 62.1258 104.318 62.5417C104.186 62.9577 103.99 63.3115 103.73 63.603C103.47 63.8913 103.147 64.1124 102.762 64.2663C102.38 64.417 101.936 64.4923 101.433 64.4923C100.935 64.4923 100.5 64.4285 100.128 64.3007C99.7592 64.1697 99.4513 63.9715 99.2042 63.7062C98.9572 63.4409 98.7711 63.1035 98.6459 62.6941C98.524 62.2846 98.4631 61.7998 98.4631 61.2397C98.4631 60.7255 98.529 60.2636 98.6607 59.8542C98.7925 59.4414 98.9885 59.091 99.2487 58.8027C99.5089 58.5145 99.83 58.2934 100.212 58.1394C100.598 57.9855 101.044 57.9085 101.551 57.9085C102.035 57.9085 102.462 57.9724 102.831 58.1001C103.203 58.2278 103.513 58.4244 103.76 58.6897C104.01 58.955 104.198 59.2908 104.323 59.6969C104.451 60.0998 104.516 60.5764 104.516 61.1267ZM103.152 61.1955C103.152 60.8614 103.126 60.5584 103.073 60.2865C103.02 60.0114 102.93 59.7772 102.801 59.5839C102.676 59.3874 102.508 59.2367 102.297 59.1319C102.086 59.0238 101.823 58.9698 101.507 58.9698C101.187 58.9698 100.92 59.0304 100.706 59.1516C100.492 59.2695 100.319 59.4283 100.187 59.6281C100.056 59.828 99.9618 60.0622 99.9058 60.3307C99.8531 60.5961 99.8268 60.8778 99.8268 61.1758C99.8268 61.5231 99.8531 61.8359 99.9058 62.1143C99.9585 62.3894 100.047 62.6253 100.173 62.8218C100.298 63.0183 100.466 63.169 100.677 63.2738C100.887 63.3754 101.153 63.4261 101.472 63.4261C101.792 63.4261 102.058 63.3672 102.272 63.2493C102.487 63.1313 102.66 62.9708 102.791 62.7678C102.923 62.5647 103.015 62.3288 103.068 62.0602C103.124 61.7884 103.152 61.5001 103.152 61.1955Z" fill="black"/>
<path d="M110.311 64.2123C110.311 64.245 110.301 64.2745 110.282 64.3007C110.262 64.3236 110.227 64.3433 110.178 64.3597C110.128 64.3761 110.061 64.3875 109.975 64.3941C109.893 64.4039 109.789 64.4088 109.664 64.4088C109.536 64.4088 109.43 64.4039 109.348 64.3941C109.265 64.3875 109.2 64.3761 109.15 64.3597C109.101 64.3433 109.066 64.3236 109.046 64.3007C109.027 64.2745 109.017 64.245 109.017 64.2123V59.0828H107.643C107.551 59.8329 107.457 60.488 107.362 61.0481C107.266 61.6082 107.164 62.0881 107.055 62.4877C106.947 62.8873 106.826 63.2149 106.695 63.4704C106.566 63.7259 106.418 63.9289 106.25 64.0796C106.085 64.227 105.897 64.3286 105.687 64.3842C105.479 64.4399 105.242 64.4678 104.975 64.4678C104.926 64.4678 104.883 64.4612 104.847 64.4481C104.81 64.435 104.781 64.4105 104.758 64.3744C104.738 64.3384 104.723 64.2876 104.713 64.2221C104.703 64.1566 104.698 64.0731 104.698 63.9715C104.698 63.8307 104.702 63.7177 104.708 63.6325C104.715 63.5441 104.726 63.4769 104.743 63.4311C104.759 63.3819 104.781 63.3492 104.807 63.3328C104.833 63.3164 104.865 63.3082 104.901 63.3082C105.003 63.3082 105.1 63.2886 105.193 63.2493C105.288 63.2067 105.379 63.1248 105.464 63.0036C105.553 62.8824 105.637 62.7121 105.716 62.4926C105.799 62.2732 105.878 61.9849 105.953 61.6279C106.032 61.2676 106.11 60.8303 106.186 60.316C106.265 59.7985 106.344 59.1843 106.423 58.4735C106.443 58.3065 106.482 58.1902 106.541 58.1247C106.601 58.0559 106.688 58.0215 106.803 58.0215H109.941C110.059 58.0215 110.15 58.0559 110.212 58.1247C110.278 58.1902 110.311 58.2917 110.311 58.4293V64.2123Z" fill="black"/>
<path d="M116.413 62.2715C116.413 62.5729 116.367 62.8496 116.275 63.1019C116.186 63.3541 116.039 63.5752 115.835 63.7652C115.634 63.9519 115.371 64.1009 115.045 64.2123C114.718 64.3236 114.272 64.3793 113.706 64.3793H112.11C112.054 64.3793 112.001 64.3728 111.952 64.3597C111.905 64.3433 111.864 64.3187 111.828 64.286C111.792 64.2499 111.762 64.2074 111.739 64.1582C111.719 64.1058 111.709 64.0436 111.709 63.9715V58.1885C111.709 58.1558 111.719 58.1279 111.739 58.105C111.762 58.0788 111.798 58.0575 111.848 58.0411C111.901 58.0248 111.968 58.0133 112.05 58.0067C112.136 57.9969 112.24 57.992 112.362 57.992C112.49 57.992 112.596 57.9969 112.678 58.0067C112.76 58.0133 112.826 58.0248 112.876 58.0411C112.925 58.0575 112.96 58.0788 112.979 58.105C112.999 58.1279 113.009 58.1558 113.009 58.1885V60.3553H113.903C114.387 60.3553 114.773 60.3979 115.059 60.4831C115.346 60.565 115.588 60.6878 115.786 60.8516C115.987 61.0153 116.141 61.2168 116.25 61.4559C116.359 61.695 116.413 61.9669 116.413 62.2715ZM115.079 62.3796C115.079 62.2191 115.056 62.0766 115.01 61.9521C114.964 61.8277 114.893 61.7212 114.797 61.6328C114.702 61.5443 114.578 61.4772 114.427 61.4313C114.279 61.3822 114.056 61.3576 113.76 61.3576H113.009V63.377H113.785C114.094 63.377 114.325 63.3475 114.476 63.2886C114.631 63.2263 114.751 63.1477 114.837 63.0527C114.923 62.9545 114.984 62.8464 115.02 62.7285C115.059 62.6105 115.079 62.4943 115.079 62.3796Z" fill="black"/>
<path d="M123.671 64.2614C123.671 64.2876 123.661 64.3105 123.642 64.3302C123.625 64.3466 123.594 64.3613 123.548 64.3744C123.502 64.3842 123.437 64.3924 123.355 64.399C123.276 64.4055 123.176 64.4088 123.054 64.4088C122.915 64.4088 122.802 64.4055 122.713 64.399C122.624 64.3924 122.553 64.3842 122.5 64.3744C122.448 64.3613 122.41 64.3433 122.387 64.3204C122.364 64.2974 122.345 64.2696 122.332 64.2368L121.922 63.1903C121.873 63.0495 121.818 62.9315 121.759 62.8365C121.703 62.7416 121.641 62.6662 121.571 62.6105C121.502 62.5516 121.423 62.5106 121.334 62.4877C121.245 62.4615 121.143 62.4484 121.028 62.4484H120.776V64.2368C120.776 64.2598 120.764 64.2827 120.741 64.3056C120.718 64.3253 120.682 64.3433 120.633 64.3597C120.583 64.3761 120.519 64.3875 120.44 64.3941C120.361 64.4039 120.265 64.4088 120.153 64.4088C120.038 64.4088 119.941 64.4039 119.862 64.3941C119.783 64.3875 119.719 64.3761 119.669 64.3597C119.62 64.3433 119.584 64.3253 119.56 64.3056C119.541 64.2827 119.531 64.2598 119.531 64.2368V59.8001C119.531 59.7772 119.541 59.7559 119.56 59.7362C119.584 59.7133 119.62 59.6953 119.669 59.6822C119.719 59.6658 119.783 59.6543 119.862 59.6478C119.941 59.638 120.038 59.6331 120.153 59.6331C120.265 59.6331 120.361 59.638 120.44 59.6478C120.519 59.6543 120.583 59.6658 120.633 59.6822C120.682 59.6953 120.718 59.7133 120.741 59.7362C120.764 59.7559 120.776 59.7772 120.776 59.8001V61.505H121.028C121.13 61.505 121.222 61.4936 121.305 61.4706C121.387 61.4444 121.461 61.4035 121.527 61.3478C121.596 61.2888 121.659 61.2119 121.715 61.1169C121.774 61.0219 121.83 60.904 121.883 60.7631L122.253 59.8198C122.263 59.787 122.28 59.7592 122.303 59.7362C122.326 59.71 122.36 59.6904 122.406 59.6773C122.456 59.6609 122.522 59.6494 122.604 59.6429C122.69 59.6363 122.802 59.6331 122.94 59.6331C123.062 59.6331 123.161 59.6363 123.236 59.6429C123.316 59.6494 123.376 59.6593 123.419 59.6724C123.465 59.6855 123.497 59.7018 123.513 59.7215C123.53 59.7379 123.538 59.7592 123.538 59.7854C123.538 59.8181 123.531 59.8574 123.518 59.9033C123.505 59.9491 123.482 60.0114 123.449 60.09L123.098 60.9253C123.029 61.0923 122.955 61.2348 122.876 61.3527C122.8 61.4674 122.721 61.5624 122.639 61.6377C122.56 61.713 122.479 61.7736 122.397 61.8195C122.314 61.8653 122.235 61.9014 122.159 61.9276V61.9374C122.261 61.98 122.357 62.0258 122.446 62.075C122.535 62.1241 122.619 62.188 122.698 62.2666C122.78 62.3452 122.858 62.4435 122.93 62.5614C123.006 62.676 123.08 62.8153 123.152 62.979L123.582 63.9617C123.602 64.0043 123.617 64.042 123.627 64.0747C123.64 64.1042 123.65 64.132 123.656 64.1582C123.663 64.1812 123.666 64.2008 123.666 64.2172C123.67 64.2336 123.671 64.2483 123.671 64.2614Z" fill="black"/>
<path d="M126.725 61.9079C126.725 62.0979 126.707 62.2306 126.67 62.3059C126.634 62.3812 126.576 62.4189 126.497 62.4189H124.442C124.36 62.4189 124.3 62.3812 124.264 62.3059C124.228 62.2273 124.21 62.0946 124.21 61.9079C124.21 61.7245 124.228 61.5951 124.264 61.5198C124.3 61.4444 124.36 61.4068 124.442 61.4068H126.497C126.537 61.4068 126.57 61.415 126.596 61.4313C126.626 61.4477 126.651 61.4756 126.67 61.5149C126.69 61.5542 126.703 61.6066 126.71 61.6721C126.72 61.7376 126.725 61.8162 126.725 61.9079Z" fill="black"/>
<path d="M130.979 63.5146C130.979 63.5998 130.975 63.6718 130.969 63.7308C130.966 63.7865 130.959 63.834 130.949 63.8733C130.943 63.9126 130.933 63.9453 130.919 63.9715C130.91 63.9945 130.885 64.0256 130.845 64.0649C130.806 64.1009 130.738 64.1468 130.643 64.2025C130.547 64.2549 130.439 64.3024 130.317 64.3449C130.195 64.3875 130.061 64.4219 129.916 64.4481C129.775 64.4743 129.628 64.4874 129.477 64.4874C129.137 64.4874 128.836 64.435 128.573 64.3302C128.312 64.2254 128.093 64.0714 127.915 63.8683C127.738 63.662 127.603 63.4114 127.51 63.1166C127.421 62.8218 127.377 62.4844 127.377 62.1045C127.377 61.6655 127.431 61.2872 127.54 60.9695C127.652 60.6485 127.807 60.3832 128.004 60.1735C128.202 59.9639 128.436 59.8083 128.706 59.7068C128.976 59.6052 129.273 59.5544 129.595 59.5544C129.727 59.5544 129.856 59.5659 129.981 59.5888C130.109 59.6118 130.228 59.6429 130.336 59.6822C130.448 59.7215 130.547 59.7657 130.633 59.8148C130.722 59.864 130.784 59.9066 130.821 59.9426C130.857 59.9786 130.882 60.0097 130.895 60.0359C130.911 60.0589 130.923 60.09 130.929 60.1293C130.939 60.1686 130.946 60.2177 130.949 60.2767C130.956 60.3324 130.959 60.4012 130.959 60.4831C130.959 60.673 130.943 60.8073 130.91 60.886C130.877 60.9613 130.834 60.999 130.781 60.999C130.725 60.999 130.666 60.976 130.603 60.9302C130.541 60.8843 130.467 60.8335 130.381 60.7779C130.295 60.7222 130.193 60.6714 130.075 60.6255C129.956 60.5797 129.814 60.5568 129.65 60.5568C129.327 60.5568 129.08 60.6812 128.909 60.9302C128.737 61.1758 128.652 61.5378 128.652 62.016C128.652 62.2519 128.673 62.4599 128.716 62.64C128.759 62.8202 128.821 62.9708 128.904 63.092C128.989 63.2132 129.095 63.305 129.22 63.3672C129.348 63.4261 129.496 63.4556 129.664 63.4556C129.836 63.4556 129.982 63.4311 130.104 63.3819C130.229 63.3295 130.338 63.2722 130.43 63.21C130.523 63.1477 130.6 63.092 130.663 63.0429C130.725 62.9905 130.778 62.9643 130.821 62.9643C130.85 62.9643 130.875 62.9725 130.895 62.9889C130.915 63.0052 130.929 63.0364 130.939 63.0822C130.952 63.1248 130.962 63.1805 130.969 63.2493C130.975 63.3181 130.979 63.4065 130.979 63.5146Z" fill="black"/>
<path d="M133.128 64.2123C133.128 64.245 133.118 64.2745 133.098 64.3007C133.079 64.3236 133.044 64.3433 132.995 64.3597C132.948 64.3761 132.886 64.3875 132.807 64.3941C132.728 64.4039 132.627 64.4088 132.505 64.4088C132.384 64.4088 132.283 64.4039 132.204 64.3941C132.125 64.3875 132.061 64.3761 132.011 64.3597C131.965 64.3433 131.932 64.3236 131.913 64.3007C131.893 64.2745 131.883 64.245 131.883 64.2123V59.8394C131.883 59.8067 131.893 59.7788 131.913 59.7559C131.932 59.7297 131.965 59.7084 132.011 59.692C132.061 59.6724 132.125 59.6576 132.204 59.6478C132.283 59.638 132.384 59.6331 132.505 59.6331C132.627 59.6331 132.728 59.638 132.807 59.6478C132.886 59.6576 132.948 59.6724 132.995 59.692C133.044 59.7084 133.079 59.7297 133.098 59.7559C133.118 59.7788 133.128 59.8067 133.128 59.8394V64.2123ZM133.222 58.3458C133.222 58.5947 133.171 58.7667 133.069 58.8617C132.967 58.9567 132.777 59.0042 132.501 59.0042C132.221 59.0042 132.031 58.9583 131.932 58.8666C131.837 58.7749 131.789 58.6094 131.789 58.3703C131.789 58.1214 131.838 57.9494 131.937 57.8544C132.039 57.7562 132.23 57.707 132.51 57.707C132.787 57.707 132.975 57.7545 133.074 57.8495C133.172 57.9412 133.222 58.1066 133.222 58.3458Z" fill="black"/>
<path d="M86.2147 74.0043L85.6811 75.5569C85.6515 75.6388 85.5708 75.6978 85.439 75.7338C85.3073 75.7699 85.1146 75.7879 84.861 75.7879C84.7292 75.7879 84.6238 75.7813 84.5447 75.7682C84.4657 75.7584 84.4064 75.7404 84.3669 75.7142C84.3273 75.688 84.3059 75.6552 84.3026 75.6159C84.2993 75.5766 84.3092 75.5291 84.3323 75.4734L84.9202 74.0043C84.8774 73.9847 84.8379 73.9552 84.8017 73.9159C84.7687 73.8733 84.744 73.8291 84.7276 73.7832L83.2107 69.7543C83.1679 69.6397 83.1465 69.5529 83.1465 69.4939C83.1465 69.4317 83.1662 69.3842 83.2058 69.3514C83.2453 69.3154 83.3112 69.2908 83.4034 69.2777C83.4989 69.2646 83.6241 69.2581 83.7789 69.2581C83.9205 69.2581 84.0325 69.2613 84.1149 69.2679C84.1972 69.2712 84.2615 69.2826 84.3076 69.3023C84.3537 69.3219 84.3883 69.353 84.4113 69.3956C84.4344 69.4349 84.4575 69.4923 84.4805 69.5676L85.5181 72.5009H85.5329L86.4816 69.5086C86.5013 69.4235 86.526 69.3678 86.5557 69.3416C86.5886 69.3121 86.6413 69.2908 86.7138 69.2777C86.7862 69.2646 86.9131 69.2581 87.0942 69.2581C87.2359 69.2581 87.3528 69.2646 87.445 69.2777C87.5405 69.2908 87.6097 69.3154 87.6525 69.3514C87.6986 69.3874 87.7217 69.4366 87.7217 69.4988C87.7217 69.5578 87.7085 69.6282 87.6822 69.7101L86.2147 74.0043Z" fill="black"/>
<path d="M92.1734 73.8373C92.1734 73.87 92.1635 73.8995 92.1438 73.9257C92.124 73.9486 92.0911 73.9683 92.0449 73.9847C91.9988 74.0011 91.9346 74.0125 91.8522 74.0191C91.7732 74.0289 91.6744 74.0338 91.5558 74.0338C91.4339 74.0338 91.3318 74.0289 91.2495 74.0191C91.1704 74.0125 91.1062 74.0011 91.0568 73.9847C91.0107 73.9683 90.9777 73.9486 90.958 73.9257C90.9415 73.8995 90.9332 73.87 90.9332 73.8373V70.2948H90.039C89.9863 70.809 89.9204 71.2611 89.8413 71.6508C89.7656 72.0374 89.6766 72.3715 89.5745 72.6532C89.4724 72.9349 89.3588 73.1691 89.2336 73.3558C89.1117 73.5392 88.9767 73.685 88.8284 73.7931C88.6802 73.9012 88.5188 73.9781 88.3442 74.024C88.173 74.0698 87.9918 74.0928 87.8008 74.0928C87.7546 74.0928 87.7168 74.0862 87.6871 74.0731C87.6575 74.06 87.6344 74.0355 87.6179 73.9994C87.6015 73.9601 87.5899 73.9044 87.5834 73.8324C87.5768 73.7603 87.5735 73.6653 87.5735 73.5474C87.5735 73.4262 87.5751 73.3279 87.5784 73.2526C87.585 73.1773 87.5949 73.1199 87.6081 73.0806C87.6212 73.038 87.6394 73.0102 87.6624 72.9971C87.6855 72.984 87.7135 72.9774 87.7464 72.9774C87.8386 72.9774 87.9259 72.9594 88.0083 72.9234C88.0939 72.8841 88.173 72.8169 88.2454 72.722C88.3212 72.6237 88.392 72.4959 88.4579 72.3387C88.5238 72.1782 88.5847 71.9768 88.6407 71.7344C88.6967 71.492 88.7494 71.2037 88.7988 70.8696C88.8482 70.5322 88.896 70.1408 88.9421 69.6953C88.9487 69.561 88.9767 69.4611 89.0261 69.3956C89.0788 69.3301 89.1628 69.2974 89.2781 69.2974H91.8325C91.9478 69.2974 92.0334 69.3301 92.0894 69.3956C92.1454 69.4611 92.1734 69.561 92.1734 69.6953V73.8373Z" fill="black"/>
<path d="M94.8859 73.2968C94.8859 73.6014 94.8316 73.8062 94.7229 73.911C94.6175 74.0158 94.4264 74.0682 94.1497 74.0682C93.873 74.0682 93.682 74.0174 93.5766 73.9159C93.4712 73.8111 93.4185 73.6145 93.4185 73.3263C93.4185 73.0184 93.4712 72.812 93.5766 72.7072C93.6853 72.6024 93.8796 72.55 94.1596 72.55C94.433 72.55 94.6224 72.6024 94.7278 72.7072C94.8332 72.8088 94.8859 73.0053 94.8859 73.2968Z" fill="black"/>
<path d="M102.119 68.182C102.119 68.2803 102.114 68.3638 102.104 68.4326C102.098 68.4981 102.086 68.5522 102.07 68.5948C102.053 68.6341 102.032 68.6635 102.006 68.6832C101.983 68.6996 101.955 68.7078 101.922 68.7078H99.8021V73.8373C99.8021 73.87 99.7905 73.8995 99.7675 73.9257C99.7477 73.9486 99.7131 73.9683 99.6637 73.9847C99.6143 74.0011 99.5484 74.0125 99.4661 74.0191C99.3837 74.0289 99.2783 74.0338 99.1499 74.0338C99.0247 74.0338 98.9193 74.0289 98.8336 74.0191C98.7513 74.0125 98.6854 74.0011 98.636 73.9847C98.5866 73.9683 98.5504 73.9486 98.5273 73.9257C98.5076 73.8995 98.4977 73.87 98.4977 73.8373V68.0543C98.4977 67.9167 98.5323 67.8152 98.6014 67.7497C98.6739 67.6809 98.7678 67.6465 98.8831 67.6465H101.922C101.988 67.6465 102.037 67.6874 102.07 67.7693C102.103 67.8512 102.119 67.9888 102.119 68.182Z" fill="black"/>
<path d="M108.34 70.7517C108.34 71.2791 108.274 71.7508 108.142 72.1667C108.01 72.5827 107.814 72.9365 107.554 73.228C107.294 73.5163 106.971 73.7374 106.586 73.8913C106.204 74.042 105.761 74.1173 105.257 74.1173C104.759 74.1173 104.325 74.0535 103.952 73.9257C103.583 73.7947 103.275 73.5965 103.028 73.3312C102.781 73.0659 102.595 72.7285 102.47 72.3191C102.348 71.9096 102.287 71.4248 102.287 70.8647C102.287 70.3505 102.353 69.8886 102.485 69.4792C102.617 69.0664 102.813 68.716 103.073 68.4277C103.333 68.1395 103.654 67.9184 104.036 67.7644C104.422 67.6105 104.868 67.5335 105.375 67.5335C105.86 67.5335 106.286 67.5974 106.655 67.7251C107.027 67.8528 107.337 68.0494 107.584 68.3147C107.834 68.58 108.022 68.9158 108.147 69.3219C108.276 69.7248 108.34 70.2014 108.34 70.7517ZM106.976 70.8205C106.976 70.4864 106.95 70.1834 106.897 69.9115C106.844 69.6364 106.754 69.4022 106.625 69.2089C106.5 69.0124 106.332 68.8617 106.121 68.7569C105.911 68.6488 105.647 68.5948 105.331 68.5948C105.011 68.5948 104.745 68.6554 104.53 68.7766C104.316 68.8945 104.143 69.0533 104.012 69.2531C103.88 69.453 103.786 69.6872 103.73 69.9557C103.677 70.2211 103.651 70.5028 103.651 70.8008C103.651 71.1481 103.677 71.4609 103.73 71.7393C103.783 72.0144 103.872 72.2503 103.997 72.4468C104.122 72.6433 104.29 72.794 104.501 72.8988C104.712 73.0004 104.977 73.0511 105.296 73.0511C105.616 73.0511 105.883 72.9922 106.097 72.8743C106.311 72.7563 106.484 72.5958 106.615 72.3928C106.747 72.1897 106.839 71.9538 106.892 71.6852C106.948 71.4134 106.976 71.1251 106.976 70.8205Z" fill="black"/>
<path d="M113.058 68.182C113.058 68.2803 113.053 68.3638 113.044 68.4326C113.037 68.4981 113.025 68.5522 113.009 68.5948C112.992 68.6341 112.971 68.6635 112.945 68.6832C112.922 68.6996 112.894 68.7078 112.861 68.7078H110.741V73.8373C110.741 73.87 110.73 73.8995 110.706 73.9257C110.687 73.9486 110.652 73.9683 110.603 73.9847C110.553 74.0011 110.487 74.0125 110.405 74.0191C110.323 74.0289 110.217 74.0338 110.089 74.0338C109.964 74.0338 109.858 74.0289 109.773 74.0191C109.69 74.0125 109.624 74.0011 109.575 73.9847C109.526 73.9683 109.489 73.9486 109.466 73.9257C109.447 73.8995 109.437 73.87 109.437 73.8373V68.0543C109.437 67.9167 109.471 67.8152 109.54 67.7497C109.613 67.6809 109.707 67.6465 109.822 67.6465H112.861C112.927 67.6465 112.976 67.6874 113.009 67.7693C113.042 67.8512 113.058 67.9888 113.058 68.182Z" fill="black"/>
<path d="M119.279 70.7517C119.279 71.2791 119.213 71.7508 119.081 72.1667C118.949 72.5827 118.753 72.9365 118.493 73.228C118.233 73.5163 117.91 73.7374 117.525 73.8913C117.143 74.042 116.7 74.1173 116.196 74.1173C115.698 74.1173 115.264 74.0535 114.891 73.9257C114.522 73.7947 114.214 73.5965 113.967 73.3312C113.72 73.0659 113.534 72.7285 113.409 72.3191C113.287 71.9096 113.226 71.4248 113.226 70.8647C113.226 70.3505 113.292 69.8886 113.424 69.4792C113.556 69.0664 113.752 68.716 114.012 68.4277C114.272 68.1395 114.593 67.9184 114.975 67.7644C115.361 67.6105 115.807 67.5335 116.314 67.5335C116.799 67.5335 117.225 67.5974 117.594 67.7251C117.966 67.8528 118.276 68.0494 118.523 68.3147C118.773 68.58 118.961 68.9158 119.086 69.3219C119.215 69.7248 119.279 70.2014 119.279 70.7517ZM117.915 70.8205C117.915 70.4864 117.889 70.1834 117.836 69.9115C117.783 69.6364 117.693 69.4022 117.564 69.2089C117.439 69.0124 117.271 68.8617 117.06 68.7569C116.85 68.6488 116.586 68.5948 116.27 68.5948C115.95 68.5948 115.684 68.6554 115.469 68.7766C115.255 68.8945 115.082 69.0533 114.951 69.2531C114.819 69.453 114.725 69.6872 114.669 69.9557C114.616 70.2211 114.59 70.5028 114.59 70.8008C114.59 71.1481 114.616 71.4609 114.669 71.7393C114.722 72.0144 114.811 72.2503 114.936 72.4468C115.061 72.6433 115.229 72.794 115.44 72.8988C115.651 73.0004 115.916 73.0511 116.235 73.0511C116.555 73.0511 116.822 72.9922 117.036 72.8743C117.25 72.7563 117.423 72.5958 117.554 72.3928C117.686 72.1897 117.778 71.9538 117.831 71.6852C117.887 71.4134 117.915 71.1251 117.915 70.8205Z" fill="black"/>
<path d="M125.074 73.8373C125.074 73.87 125.065 73.8995 125.045 73.9257C125.025 73.9486 124.99 73.9683 124.941 73.9847C124.892 74.0011 124.824 74.0125 124.738 74.0191C124.656 74.0289 124.552 74.0338 124.427 74.0338C124.299 74.0338 124.193 74.0289 124.111 74.0191C124.029 74.0125 123.963 74.0011 123.913 73.9847C123.864 73.9683 123.829 73.9486 123.81 73.9257C123.79 73.8995 123.78 73.87 123.78 73.8373V68.7078H122.406C122.314 69.4579 122.22 70.113 122.125 70.6731C122.029 71.2332 121.927 71.7131 121.818 72.1127C121.71 72.5123 121.59 72.8399 121.458 73.0954C121.329 73.3509 121.181 73.5539 121.013 73.7046C120.848 73.852 120.661 73.9536 120.45 74.0092C120.242 74.0649 120.005 74.0928 119.738 74.0928C119.689 74.0928 119.646 74.0862 119.61 74.0731C119.574 74.06 119.544 74.0355 119.521 73.9994C119.501 73.9634 119.486 73.9126 119.476 73.8471C119.467 73.7816 119.462 73.6981 119.462 73.5965C119.462 73.4557 119.465 73.3427 119.472 73.2575C119.478 73.1691 119.49 73.1019 119.506 73.0561C119.523 73.0069 119.544 72.9742 119.57 72.9578C119.597 72.9414 119.628 72.9332 119.664 72.9332C119.766 72.9332 119.864 72.9136 119.956 72.8743C120.051 72.8317 120.142 72.7498 120.227 72.6286C120.316 72.5074 120.4 72.3371 120.479 72.1176C120.562 71.8982 120.641 71.6099 120.717 71.2529C120.796 70.8926 120.873 70.4553 120.949 69.941C121.028 69.4235 121.107 68.8093 121.186 68.0985C121.206 67.9315 121.245 67.8152 121.305 67.7497C121.364 67.6809 121.451 67.6465 121.566 67.6465H124.704C124.822 67.6465 124.913 67.6809 124.976 67.7497C125.042 67.8152 125.074 67.9167 125.074 68.0543V73.8373Z" fill="black"/>
<path d="M130.885 73.8373C130.885 73.87 130.875 73.8995 130.855 73.9257C130.835 73.9486 130.801 73.9683 130.751 73.9847C130.705 74.0011 130.639 74.0125 130.554 74.0191C130.471 74.0289 130.368 74.0338 130.243 74.0338C130.114 74.0338 130.009 74.0289 129.926 74.0191C129.844 74.0125 129.776 74.0011 129.724 73.9847C129.674 73.9683 129.64 73.9486 129.62 73.9257C129.6 73.8995 129.59 73.87 129.59 73.8373V71.4592H129.111C128.913 71.4592 128.762 71.4789 128.657 71.5182C128.554 71.5575 128.462 71.6181 128.38 71.7C128.301 71.7819 128.23 71.8851 128.167 72.0095C128.105 72.1307 128.044 72.2748 127.985 72.4419L127.5 73.8176C127.484 73.8569 127.463 73.8913 127.436 73.9208C127.41 73.947 127.369 73.9699 127.313 73.9896C127.26 74.006 127.189 74.0174 127.1 74.024C127.011 74.0305 126.898 74.0338 126.759 74.0338C126.608 74.0338 126.488 74.0289 126.399 74.0191C126.313 74.0092 126.247 73.9961 126.201 73.9798C126.155 73.9601 126.125 73.9388 126.112 73.9159C126.099 73.893 126.092 73.8684 126.092 73.8422C126.092 73.8094 126.097 73.7701 126.107 73.7243C126.12 73.6751 126.145 73.6031 126.181 73.5081L126.66 72.2601C126.723 72.0963 126.787 71.9538 126.853 71.8326C126.919 71.7114 126.991 71.6034 127.071 71.5084C127.153 71.4101 127.239 71.3282 127.327 71.2627C127.42 71.1972 127.52 71.1448 127.629 71.1055C127.425 71.0498 127.243 70.9777 127.085 70.8893C126.931 70.7976 126.799 70.6878 126.69 70.5601C126.585 70.4291 126.504 70.28 126.448 70.113C126.395 69.9426 126.369 69.7527 126.369 69.543C126.369 69.2548 126.418 68.9944 126.517 68.7618C126.619 68.526 126.769 68.3262 126.967 68.1624C127.164 67.9986 127.41 67.8725 127.703 67.7841C127.999 67.6923 128.411 67.6465 128.938 67.6465H130.504C130.61 67.6465 130.699 67.6792 130.771 67.7448C130.847 67.807 130.885 67.9102 130.885 68.0543V73.8373ZM129.59 68.6439H128.923C128.643 68.6439 128.434 68.6652 128.296 68.7078C128.158 68.7503 128.044 68.8126 127.955 68.8945C127.869 68.9731 127.807 69.0697 127.767 69.1844C127.728 69.2957 127.708 69.4202 127.708 69.5578C127.708 69.6921 127.729 69.8165 127.772 69.9312C127.815 70.0426 127.881 70.1408 127.97 70.226C128.059 70.3079 128.172 70.3717 128.311 70.4176C128.449 70.4635 128.647 70.4864 128.904 70.4864H129.59V68.6439Z" fill="black"/>
<path d="M73.6019 90.2686C73.6019 90.6125 73.541 90.9204 73.4191 91.1923C73.3006 91.4609 73.1309 91.6885 72.9102 91.8752C72.6928 92.0587 72.4293 92.1995 72.1197 92.2978C71.8134 92.3961 71.4724 92.4452 71.0969 92.4452C70.8993 92.4452 70.7116 92.4321 70.5337 92.4059C70.3558 92.383 70.1961 92.3535 70.0544 92.3174C69.9128 92.2781 69.7958 92.2405 69.7036 92.2044C69.6147 92.1651 69.5554 92.134 69.5257 92.1111C69.4994 92.0849 69.4796 92.057 69.4665 92.0276C69.4533 91.9981 69.4418 91.9637 69.4319 91.9244C69.4253 91.8818 69.4203 91.8294 69.4171 91.7672C69.4138 91.7049 69.4121 91.6312 69.4121 91.5461C69.4121 91.4543 69.4154 91.3774 69.422 91.3151C69.4286 91.2496 69.4385 91.1972 69.4516 91.1579C69.4681 91.1186 69.4862 91.0907 69.506 91.0744C69.5257 91.058 69.5488 91.0498 69.5752 91.0498C69.6081 91.0498 69.6575 91.0695 69.7234 91.1088C69.7926 91.1448 69.8815 91.1857 69.9902 91.2316C70.1022 91.2775 70.2372 91.32 70.3953 91.3593C70.5534 91.3954 70.7428 91.4134 70.9635 91.4134C71.1546 91.4134 71.3275 91.3937 71.4823 91.3544C71.6404 91.3151 71.7738 91.2529 71.8825 91.1677C71.9912 91.0793 72.0752 90.9696 72.1345 90.8385C72.1938 90.7075 72.2234 90.5503 72.2234 90.3669C72.2234 90.2096 72.1987 90.0704 72.1493 89.9492C72.0999 89.8247 72.0225 89.7199 71.9171 89.6348C71.8117 89.5496 71.675 89.4857 71.507 89.4431C71.339 89.4006 71.1348 89.3793 70.8944 89.3793C70.7033 89.3793 70.5287 89.3891 70.3706 89.4088C70.2158 89.4284 70.0692 89.4382 69.9309 89.4382C69.8354 89.4382 69.7662 89.4153 69.7234 89.3694C69.6839 89.3203 69.6641 89.2319 69.6641 89.1041V86.3428C69.6641 86.2118 69.6888 86.1185 69.7382 86.0628C69.7909 86.0038 69.8733 85.9743 69.9852 85.9743H73.014C73.0436 85.9743 73.0716 85.9842 73.098 86.0038C73.1243 86.0235 73.1457 86.0546 73.1622 86.0972C73.182 86.1398 73.1951 86.1971 73.2017 86.2691C73.2116 86.3379 73.2166 86.4214 73.2166 86.5197C73.2166 86.7162 73.1984 86.8587 73.1622 86.9472C73.1293 87.0356 73.0799 87.0798 73.014 87.0798H70.7412V88.4408C70.8565 88.4277 70.9701 88.4195 71.0821 88.4163C71.1974 88.413 71.3176 88.4113 71.4428 88.4113C71.7887 88.4113 72.095 88.4523 72.3618 88.5342C72.6319 88.6128 72.8575 88.7307 73.0387 88.8879C73.2231 89.0419 73.3631 89.2351 73.4587 89.4677C73.5542 89.697 73.6019 89.964 73.6019 90.2686Z" fill="black"/>
<path d="M78.9183 89.1287C78.9183 89.6364 78.8771 90.095 78.7948 90.5044C78.7124 90.9139 78.5774 91.2627 78.3896 91.551C78.2052 91.8392 77.9631 92.0603 77.6633 92.2143C77.3669 92.3682 77.0029 92.4452 76.5714 92.4452C76.1333 92.4452 75.771 92.3715 75.4844 92.2241C75.1978 92.0734 74.9706 91.8589 74.8026 91.5804C74.6346 91.2987 74.516 90.9565 74.4468 90.5536C74.3809 90.1474 74.348 89.6888 74.348 89.1778C74.348 88.6734 74.3892 88.2165 74.4715 87.807C74.5572 87.3943 74.6922 87.0438 74.8767 86.7556C75.0644 86.4673 75.3065 86.2462 75.603 86.0923C75.9027 85.9383 76.2667 85.8613 76.6949 85.8613C77.133 85.8613 77.4953 85.9367 77.7819 86.0873C78.0718 86.2347 78.3007 86.4493 78.4687 86.731C78.6367 87.0094 78.7536 87.3517 78.8195 87.7579C78.8853 88.1608 78.9183 88.6177 78.9183 89.1287ZM77.609 89.1926C77.609 88.8912 77.6007 88.6259 77.5843 88.3966C77.5678 88.164 77.5414 87.9626 77.5052 87.7923C77.4723 87.6219 77.4294 87.4778 77.3767 87.3599C77.3273 87.242 77.2664 87.1486 77.1939 87.0798C77.1215 87.0078 77.0391 86.957 76.9469 86.9275C76.8547 86.898 76.7526 86.8833 76.6406 86.8833C76.4462 86.8833 76.2848 86.9308 76.1564 87.0258C76.0312 87.1175 75.9307 87.2567 75.855 87.4434C75.7825 87.6301 75.7314 87.8627 75.7018 88.1411C75.6722 88.4195 75.6573 88.7438 75.6573 89.114C75.6573 89.566 75.6754 89.941 75.7117 90.2391C75.7479 90.5339 75.8039 90.7697 75.8797 90.9466C75.9587 91.1202 76.0592 91.2431 76.1811 91.3151C76.3029 91.3839 76.4495 91.4183 76.6208 91.4183C76.7493 91.4183 76.8629 91.3987 76.9617 91.3593C77.0605 91.3168 77.1462 91.2545 77.2186 91.1726C77.2944 91.0907 77.357 90.9876 77.4064 90.8631C77.4558 90.7386 77.4953 90.5945 77.525 90.4307C77.5579 90.2669 77.5793 90.0819 77.5892 89.8755C77.6024 89.6692 77.609 89.4415 77.609 89.1926Z" fill="black"/>
<path d="M86.0331 92.1406C86.0397 92.2225 86.0018 92.2798 85.9195 92.3125C85.8371 92.3453 85.6905 92.3617 85.4797 92.3617C85.3513 92.3617 85.2475 92.36 85.1684 92.3568C85.0927 92.3535 85.0334 92.3453 84.9906 92.3322C84.951 92.3191 84.9231 92.3011 84.9066 92.2781C84.8934 92.2519 84.8852 92.2192 84.8819 92.1799L84.62 89.8264C84.6101 89.7412 84.6003 89.6462 84.5904 89.5414C84.5838 89.4366 84.5755 89.3301 84.5657 89.222C84.5591 89.114 84.5525 89.0075 84.5459 88.9027C84.5393 88.7946 84.5311 88.698 84.5212 88.6128L84.5261 88.49C84.5031 88.5784 84.4767 88.675 84.4471 88.7798C84.4207 88.8847 84.3911 88.9911 84.3581 89.0992C84.3252 89.2073 84.2939 89.3154 84.2643 89.4235C84.2346 89.5283 84.2066 89.6233 84.1803 89.7085L83.4046 92.1357C83.3914 92.175 83.3716 92.2094 83.3453 92.2388C83.3189 92.2683 83.281 92.2929 83.2316 92.3125C83.1855 92.3289 83.1246 92.3404 83.0488 92.3469C82.9764 92.3568 82.8841 92.3617 82.7721 92.3617C82.67 92.3617 82.5827 92.3568 82.5103 92.3469C82.4411 92.3404 82.3818 92.3289 82.3324 92.3125C82.2863 92.2929 82.2501 92.2683 82.2237 92.2388C82.1974 92.2094 82.1792 92.1733 82.1694 92.1307L81.4134 89.7085C81.3871 89.6233 81.3574 89.5283 81.3245 89.4235C81.2948 89.3187 81.2635 89.2122 81.2306 89.1041C81.201 88.996 81.1713 88.8896 81.1417 88.7848C81.1153 88.6767 81.0923 88.5784 81.0725 88.49L81.0774 88.6128C81.0708 88.698 81.0643 88.7946 81.0577 88.9027C81.0511 89.0075 81.0428 89.114 81.033 89.222C81.0231 89.3301 81.0132 89.4366 81.0033 89.5414C80.9934 89.6462 80.9852 89.7412 80.9786 89.8264L80.7266 92.1504C80.72 92.193 80.7085 92.229 80.692 92.2585C80.6756 92.2847 80.6443 92.306 80.5982 92.3224C80.5521 92.3387 80.4895 92.3486 80.4104 92.3518C80.3314 92.3584 80.2276 92.3617 80.0991 92.3617C79.9839 92.3617 79.8916 92.3584 79.8225 92.3518C79.7533 92.3453 79.6989 92.3338 79.6594 92.3174C79.6232 92.2978 79.5985 92.2749 79.5853 92.2487C79.5754 92.2192 79.5721 92.1831 79.5754 92.1406L80.0102 88.0379C80.0267 87.8971 80.0728 87.7923 80.1486 87.7235C80.2243 87.6514 80.3396 87.6154 80.4944 87.6154H81.1219C81.2537 87.6154 81.3656 87.6252 81.4579 87.6449C81.5501 87.6645 81.6308 87.6989 81.7 87.748C81.7691 87.7972 81.8268 87.8643 81.8729 87.9495C81.919 88.0347 81.9602 88.1411 81.9964 88.2689L82.4905 89.7723C82.5202 89.8706 82.5498 89.9738 82.5794 90.0819C82.6091 90.1867 82.6387 90.2932 82.6684 90.4012C82.698 90.5061 82.7244 90.6092 82.7474 90.7108C82.7738 90.8091 82.7968 90.9024 82.8166 90.9908H82.8215C82.8413 90.9024 82.8644 90.8058 82.8907 90.701C82.9171 90.5961 82.9434 90.4897 82.9698 90.3816C82.9994 90.2735 83.0291 90.167 83.0587 90.0622C83.0916 89.9574 83.1229 89.8591 83.1526 89.7674L83.6467 88.2689C83.6796 88.1509 83.7158 88.051 83.7554 87.9691C83.7949 87.884 83.8459 87.8168 83.9085 87.7677C83.9711 87.7153 84.0485 87.6776 84.1408 87.6547C84.233 87.6285 84.3466 87.6154 84.4817 87.6154H85.1042C85.2623 87.6154 85.3793 87.6514 85.455 87.7235C85.5341 87.7923 85.5802 87.8971 85.5934 88.0379L86.0331 92.1406Z" fill="black"/>
</g>
<defs>
<clipPath id="clip0_355_31345">
<rect width="128" height="98" fill="white" transform="translate(16)"/>
</clipPath>
</defs>
</svg>
