<svg width="57" height="99" viewBox="0 0 57 99" fill="none" xmlns="http://www.w3.org/2000/svg">
<rect x="5.55469" y="6.47656" width="3.57143" height="76.3839" fill="#AEAEAE"/>
<path d="M4.83984 82.6686C4.83984 82.1375 5.28401 81.707 5.83191 81.707H8.84778C9.39568 81.707 9.83984 82.1375 9.83984 82.6686V96.4768H4.83984V82.6686Z" fill="#9F9B9B"/>
<path d="M4.67578 5.44894C4.67578 3.87098 5.95497 2.5918 7.53292 2.5918H46.9073C48.4852 2.5918 49.7644 3.87098 49.7644 5.44894V20.5578C49.7644 22.1357 48.4852 23.4149 46.9073 23.4149H7.53292C5.95497 23.4149 4.67578 22.1357 4.67578 20.5578V5.44894Z" fill="#0D69E1"/>
<path fill-rule="evenodd" clip-rule="evenodd" d="M7.53125 0.449219H46.9056C49.667 0.449219 51.9056 2.6878 51.9056 5.44922V20.558C51.9056 23.3195 49.667 25.558 46.9056 25.558H7.53125C4.76982 25.558 2.53125 23.3195 2.53125 20.558V5.44922C2.53125 2.6878 4.76983 0.449219 7.53125 0.449219ZM7.53125 2.59208C5.95329 2.59208 4.67411 3.87126 4.67411 5.44922V20.558C4.67411 22.136 5.95329 23.4152 7.53125 23.4152H46.9056C48.4836 23.4152 49.7628 22.136 49.7628 20.558V5.44922C49.7628 3.87126 48.4836 2.59208 46.9056 2.59208H7.53125Z" fill="black"/>
<path d="M4.67578 5.44894C4.67578 3.87098 5.95497 2.5918 7.53292 2.5918H46.9073C48.4852 2.5918 49.7644 3.87098 49.7644 5.44894V20.5578C49.7644 22.1357 48.4852 23.4149 46.9073 23.4149H7.53292C5.95497 23.4149 4.67578 22.1357 4.67578 20.5578V5.44894Z" fill="#0D69E1"/>
<path fill-rule="evenodd" clip-rule="evenodd" d="M7.53181 1.16406H46.9062C49.2731 1.16406 51.1919 3.08284 51.1919 5.44978V20.5586C51.1919 22.9255 49.2731 24.8443 46.9062 24.8443H7.53181C5.16487 24.8443 3.24609 22.9255 3.24609 20.5586V5.44978C3.24609 3.08284 5.16487 1.16406 7.53181 1.16406ZM7.53181 2.59263C5.95385 2.59263 4.67467 3.87182 4.67467 5.44978V20.5586C4.67467 22.1366 5.95385 23.4157 7.53181 23.4157H46.9062C48.4841 23.4157 49.7633 22.1366 49.7633 20.5586V5.44978C49.7633 3.87182 48.4841 2.59263 46.9062 2.59263H7.53181Z" fill="white"/>
<path d="M19.7213 14.9919C19.7213 15.4932 19.6445 15.9587 19.4911 16.3884C19.3376 16.813 19.1125 17.1813 18.8158 17.4933C18.5192 17.8002 18.1534 18.0432 17.7186 18.2222C17.2838 18.3962 16.7825 18.4831 16.2147 18.4831C15.7543 18.4831 15.3528 18.4294 15.01 18.322C14.6673 18.2197 14.3706 18.0713 14.12 17.877C13.8693 17.6775 13.6647 17.437 13.5061 17.1557C13.3476 16.8743 13.2197 16.5572 13.1225 16.2042C13.0304 15.8513 12.9665 15.4676 12.9307 15.0533C12.8949 14.6389 12.877 14.199 12.877 13.7335C12.877 13.3448 12.8949 12.9381 12.9307 12.5135C12.9716 12.089 13.0458 11.6721 13.1532 11.2628C13.2657 10.8536 13.4217 10.4648 13.6212 10.0965C13.8207 9.72312 14.0765 9.3983 14.3885 9.12207C14.7057 8.84073 15.0868 8.61821 15.5318 8.45452C15.982 8.29083 16.514 8.20898 17.1278 8.20898C17.3222 8.20898 17.5166 8.22177 17.7109 8.24735C17.9104 8.26781 18.0946 8.29594 18.2634 8.33175C18.4322 8.36756 18.5754 8.40848 18.6931 8.45452C18.8107 8.50056 18.8875 8.54148 18.9233 8.57729C18.9642 8.60798 18.9949 8.64379 19.0153 8.68471C19.0358 8.72563 19.0512 8.77167 19.0614 8.82282C19.0767 8.86886 19.087 8.92769 19.0921 8.9993C19.0972 9.07092 19.0997 9.15788 19.0997 9.26018C19.0997 9.41876 19.0946 9.55176 19.0844 9.65918C19.0793 9.76149 19.0665 9.84333 19.046 9.90472C19.0256 9.96098 18.9974 10.0019 18.9616 10.0275C18.9258 10.0531 18.8823 10.0658 18.8312 10.0658C18.7698 10.0658 18.6905 10.0505 18.5933 10.0198C18.4961 9.984 18.3785 9.94564 18.2404 9.90472C18.1023 9.86379 17.9386 9.82799 17.7493 9.79729C17.5652 9.7666 17.3503 9.75126 17.1048 9.75126C16.6904 9.75126 16.34 9.82799 16.0536 9.98145C15.7671 10.1349 15.5344 10.3446 15.3553 10.6106C15.1763 10.8715 15.0459 11.1759 14.964 11.5237C14.8822 11.8716 14.8387 12.2399 14.8336 12.6286C14.9461 12.557 15.074 12.4854 15.2172 12.4138C15.3656 12.3422 15.5241 12.2808 15.6929 12.2296C15.8669 12.1785 16.0536 12.1376 16.2531 12.1069C16.4526 12.0711 16.6649 12.0532 16.8899 12.0532C17.3912 12.0532 17.8209 12.1222 18.179 12.2603C18.5371 12.3984 18.8286 12.5954 19.0537 12.8511C19.2839 13.1069 19.4527 13.4164 19.5601 13.7796C19.6675 14.1428 19.7213 14.5469 19.7213 14.9919ZM17.7416 15.1837C17.7416 14.9229 17.7186 14.6952 17.6726 14.5008C17.6265 14.3013 17.5524 14.1351 17.4501 14.0021C17.3477 13.864 17.2122 13.7617 17.0434 13.6952C16.8746 13.6236 16.67 13.5878 16.4295 13.5878C16.2863 13.5878 16.1456 13.6005 16.0075 13.6261C15.8694 13.6517 15.7339 13.6875 15.6009 13.7335C15.4679 13.7796 15.34 13.8358 15.2172 13.9023C15.0944 13.9637 14.9794 14.0302 14.8719 14.1018C14.8719 14.6492 14.9026 15.107 14.964 15.4753C15.0254 15.8385 15.1149 16.1275 15.2326 16.3424C15.3553 16.5572 15.5062 16.7107 15.6853 16.8027C15.8694 16.8897 16.0817 16.9332 16.3221 16.9332C16.5574 16.9332 16.762 16.8897 16.936 16.8027C17.115 16.7158 17.2633 16.593 17.381 16.4344C17.4987 16.2759 17.5882 16.0917 17.6496 15.882C17.7109 15.6671 17.7416 15.4344 17.7416 15.1837Z" fill="white"/>
<path d="M26.5723 1.86523H28.0008V24.7852H26.5723V1.86523Z" fill="white"/>
<path d="M44.9198 7.00977L42.3668 16.6539L40.1355 14.3944L35.4788 19.1098L32.9688 16.5681L37.6255 11.8527L35.3942 9.59432L44.9198 7.00977Z" fill="white"/>
</svg>
