<svg width="45" height="99" viewBox="0 0 45 99" fill="none" xmlns="http://www.w3.org/2000/svg">
<rect x="4.71484" y="3" width="3.57143" height="76.3839" fill="#AEAEAE"/>
<path d="M4 79.192C4 78.661 4.44416 78.2305 4.99206 78.2305H8.00794C8.55584 78.2305 9 78.661 9 79.192V93.0002H4V79.192Z" fill="#9F9B9B"/>
<path d="M4.33008 5.8298C4.33008 4.25184 5.60926 2.97266 7.18722 2.97266H37.2786C38.8566 2.97266 40.1358 4.25184 40.1358 5.8298V20.9386C40.1358 22.5166 38.8566 23.7958 37.2786 23.7958H7.18722C5.60927 23.7958 4.33008 22.5166 4.33008 20.9386V5.8298Z" fill="#0D69E1"/>
<path fill-rule="evenodd" clip-rule="evenodd" d="M7.1875 0.830078H37.2789C40.0403 0.830078 42.2789 3.06865 42.2789 5.83008V20.9389C42.2789 23.7003 40.0403 25.9389 37.2789 25.9389H7.1875C4.42608 25.9389 2.1875 23.7003 2.1875 20.9389V5.83008C2.1875 3.06866 4.42608 0.830078 7.1875 0.830078ZM7.1875 2.97294C5.60954 2.97294 4.33036 4.25212 4.33036 5.83008V20.9389C4.33036 22.5168 5.60955 23.796 7.1875 23.796H37.2789C38.8569 23.796 40.136 22.5168 40.136 20.9389V5.83008C40.136 4.25212 38.8569 2.97294 37.2789 2.97294H7.1875Z" fill="black"/>
<path d="M4.33008 5.8298C4.33008 4.25184 5.60926 2.97266 7.18722 2.97266H37.2786C38.8566 2.97266 40.1358 4.25184 40.1358 5.8298V20.9386C40.1358 22.5166 38.8566 23.7958 37.2786 23.7958H7.18722C5.60927 23.7958 4.33008 22.5166 4.33008 20.9386V5.8298Z" fill="#0D69E1"/>
<path fill-rule="evenodd" clip-rule="evenodd" d="M7.18806 1.54492H37.2795C39.6464 1.54492 41.5652 3.4637 41.5652 5.83064V20.9395C41.5652 23.3064 39.6464 25.2252 37.2795 25.2252H7.18806C4.82113 25.2252 2.90234 23.3064 2.90234 20.9395V5.83064C2.90234 3.4637 4.82112 1.54492 7.18806 1.54492ZM7.18806 2.97349C5.6101 2.97349 4.33092 4.25268 4.33092 5.83064V20.9395C4.33092 22.5174 5.6101 23.7966 7.18806 23.7966H37.2795C38.8574 23.7966 40.1366 22.5174 40.1366 20.9395V5.83064C40.1366 4.25268 38.8574 2.97349 37.2795 2.97349H7.18806Z" fill="white"/>
<path d="M14.0209 17.3108C14.0209 17.4345 14.0143 17.5405 14.001 17.6288C13.9878 17.7128 13.9679 17.7812 13.9414 17.8343C13.9193 17.8829 13.8928 17.9182 13.8619 17.9403C13.831 17.9624 13.7956 17.9734 13.7559 17.9734H9.02441C8.98907 17.9734 8.95594 17.9624 8.92501 17.9403C8.89409 17.9182 8.86537 17.8829 8.83887 17.8343C8.81678 17.7812 8.79911 17.7128 8.78585 17.6288C8.7726 17.5405 8.76597 17.4345 8.76597 17.3108C8.76597 17.1826 8.77039 17.0766 8.77923 16.9927C8.79248 16.9043 8.81015 16.8336 8.83224 16.7806C8.85875 16.7276 8.88746 16.6901 8.91839 16.668C8.94931 16.6415 8.98465 16.6282 9.02441 16.6282H10.6214V11.0485L9.24309 11.8106C9.14149 11.8592 9.05755 11.8901 8.99128 11.9034C8.92943 11.9122 8.87863 11.899 8.83887 11.8636C8.80352 11.8239 8.77923 11.7576 8.76597 11.6648C8.75272 11.5721 8.74609 11.4417 8.74609 11.2739C8.74609 11.1678 8.7483 11.0817 8.75272 11.0154C8.75714 10.9447 8.76818 10.8851 8.78585 10.8365C8.80352 10.7879 8.82782 10.7481 8.85875 10.7172C8.88967 10.6863 8.93164 10.6532 8.98465 10.6178L10.8269 9.42501C10.849 9.40734 10.8755 9.39409 10.9064 9.38525C10.9417 9.372 10.9859 9.36316 11.0389 9.35875C11.0919 9.34991 11.1604 9.34549 11.2443 9.34549C11.3327 9.34108 11.4454 9.33887 11.5823 9.33887C11.7502 9.33887 11.8849 9.34328 11.9865 9.35212C12.0926 9.35654 12.1721 9.36758 12.2251 9.38525C12.2781 9.39851 12.3135 9.41839 12.3311 9.44489C12.3488 9.4714 12.3576 9.50453 12.3576 9.54429V16.6282H13.7559C13.7956 16.6282 13.831 16.6415 13.8619 16.668C13.8972 16.6901 13.9259 16.7276 13.948 16.7806C13.9745 16.8336 13.9922 16.9043 14.001 16.9927C14.0143 17.0766 14.0209 17.1826 14.0209 17.3108Z" fill="white"/>
<path d="M21.2504 17.2644C21.2504 17.3925 21.2437 17.5029 21.2305 17.5957C21.2216 17.6841 21.2062 17.757 21.1841 17.8144C21.162 17.8718 21.1333 17.9138 21.0979 17.9403C21.0626 17.9624 21.0228 17.9734 20.9787 17.9734H16.0484C15.9512 17.9734 15.8673 17.9646 15.7966 17.9469C15.7259 17.9292 15.6685 17.8961 15.6243 17.8475C15.5801 17.7945 15.547 17.7194 15.5249 17.6222C15.5072 17.525 15.4984 17.3991 15.4984 17.2445C15.4984 17.0987 15.505 16.975 15.5183 16.8734C15.5315 16.7674 15.5558 16.6746 15.5912 16.5951C15.6265 16.5111 15.6707 16.4316 15.7237 16.3565C15.7811 16.277 15.854 16.1908 15.9424 16.0981L17.4268 14.5077C17.7228 14.1984 17.9613 13.9179 18.1425 13.6661C18.3236 13.4099 18.465 13.1779 18.5666 12.9703C18.6682 12.7582 18.7366 12.5638 18.772 12.3871C18.8117 12.2104 18.8316 12.0426 18.8316 11.8835C18.8316 11.7377 18.8073 11.6008 18.7587 11.4727C18.7146 11.3401 18.6461 11.2253 18.5533 11.1281C18.465 11.0309 18.3523 10.9558 18.2153 10.9028C18.0784 10.8453 17.9171 10.8166 17.7316 10.8166C17.471 10.8166 17.239 10.8497 17.0358 10.916C16.837 10.9823 16.6603 11.0574 16.5057 11.1413C16.3555 11.2208 16.2296 11.2959 16.1279 11.3666C16.0263 11.4329 15.9468 11.466 15.8894 11.466C15.8496 11.466 15.8143 11.4528 15.7834 11.4263C15.7569 11.3998 15.7348 11.3556 15.7171 11.2937C15.6994 11.2319 15.684 11.1502 15.6707 11.0485C15.6619 10.9425 15.6575 10.8144 15.6575 10.6642C15.6575 10.5626 15.6597 10.4787 15.6641 10.4124C15.6729 10.3417 15.684 10.2821 15.6972 10.2335C15.7105 10.1805 15.7281 10.1363 15.7502 10.1009C15.7723 10.0612 15.8099 10.0148 15.8629 9.96177C15.9203 9.90876 16.0219 9.84249 16.1677 9.76297C16.3179 9.67904 16.5012 9.59952 16.7177 9.52441C16.9342 9.44489 17.1727 9.37863 17.4334 9.32561C17.694 9.2726 17.9657 9.24609 18.2485 9.24609C18.6947 9.24609 19.0834 9.30352 19.4148 9.41839C19.7505 9.52883 20.0288 9.68566 20.2497 9.88888C20.4706 10.0877 20.6341 10.3262 20.7401 10.6046C20.8506 10.8785 20.9058 11.1745 20.9058 11.4925C20.9058 11.7709 20.8793 12.0448 20.8263 12.3142C20.7732 12.5837 20.6628 12.8753 20.4949 13.189C20.327 13.4982 20.0907 13.8428 19.7859 14.2227C19.481 14.5982 19.0768 15.0356 18.5732 15.5348L17.5726 16.5619H20.9522C20.9963 16.5619 21.0361 16.5752 21.0714 16.6017C21.1112 16.6282 21.1443 16.6702 21.1708 16.7276C21.1974 16.7806 21.2172 16.8535 21.2305 16.9463C21.2437 17.0346 21.2504 17.1407 21.2504 17.2644Z" fill="white"/>
<path d="M28.5726 13.6528C28.5726 14.3376 28.5174 14.9561 28.4069 15.5083C28.2965 16.0605 28.1153 16.531 27.8635 16.9198C27.6161 17.3085 27.2914 17.6067 26.8894 17.8144C26.4918 18.022 26.0036 18.1258 25.4249 18.1258C24.8373 18.1258 24.3514 18.0264 23.967 17.8276C23.5827 17.6244 23.2779 17.3351 23.0526 16.9595C22.8272 16.5796 22.6682 16.118 22.5754 15.5746C22.4871 15.0268 22.4429 14.4083 22.4429 13.7191C22.4429 13.0388 22.4981 12.4225 22.6086 11.8703C22.7234 11.3136 22.9046 10.8409 23.152 10.4521C23.4038 10.0634 23.7285 9.76518 24.1261 9.55755C24.5281 9.34991 25.0163 9.24609 25.5906 9.24609C26.1781 9.24609 26.6641 9.3477 27.0484 9.55092C27.4372 9.74972 27.7442 10.0391 27.9695 10.419C28.1949 10.7945 28.3517 11.2562 28.44 11.804C28.5284 12.3474 28.5726 12.9637 28.5726 13.6528ZM26.8165 13.739C26.8165 13.3325 26.8055 12.9747 26.7834 12.6655C26.7613 12.3518 26.7259 12.0801 26.6773 11.8504C26.6332 11.6207 26.5757 11.4263 26.5051 11.2672C26.4388 11.1082 26.3571 10.9823 26.2599 10.8895C26.1627 10.7923 26.0522 10.7238 25.9285 10.6841C25.8048 10.6443 25.6679 10.6244 25.5177 10.6244C25.257 10.6244 25.0406 10.6885 24.8683 10.8166C24.7004 10.9403 24.5656 11.1281 24.464 11.3799C24.3668 11.6317 24.2984 11.9454 24.2586 12.3209C24.2188 12.6964 24.199 13.1337 24.199 13.633C24.199 14.2426 24.2233 14.7484 24.2719 15.1505C24.3205 15.5481 24.3956 15.8661 24.4972 16.1047C24.6032 16.3388 24.7379 16.5045 24.9014 16.6017C25.0649 16.6945 25.2614 16.7409 25.4912 16.7409C25.6635 16.7409 25.8159 16.7144 25.9484 16.6613C26.0809 16.6039 26.1958 16.52 26.293 16.4095C26.3946 16.2991 26.4785 16.1599 26.5448 15.992C26.6111 15.8242 26.6641 15.6298 26.7039 15.4089C26.748 15.188 26.7767 14.9384 26.79 14.6601C26.8077 14.3818 26.8165 14.0747 26.8165 13.739Z" fill="white"/>
<path d="M35.4707 15.1902C35.4707 15.6541 35.3889 16.0694 35.2255 16.436C35.0664 16.7983 34.8389 17.1053 34.5429 17.3571C34.2514 17.6045 33.8979 17.7945 33.4827 17.927C33.0718 18.0596 32.6146 18.1258 32.111 18.1258C31.8459 18.1258 31.5941 18.1082 31.3555 18.0728C31.117 18.0419 30.9027 18.0021 30.7127 17.9535C30.5228 17.9005 30.3659 17.8497 30.2422 17.8011C30.1229 17.7481 30.0434 17.7061 30.0037 17.6752C29.9683 17.6399 29.9418 17.6023 29.9241 17.5626C29.9065 17.5228 29.891 17.4764 29.8778 17.4234C29.8689 17.366 29.8623 17.2953 29.8579 17.2114C29.8535 17.1274 29.8513 17.028 29.8513 16.9132C29.8513 16.7895 29.8557 16.6856 29.8645 16.6017C29.8733 16.5133 29.8866 16.4427 29.9043 16.3896C29.9264 16.3366 29.9507 16.2991 29.9772 16.277C30.0037 16.2549 30.0346 16.2439 30.0699 16.2439C30.1141 16.2439 30.1804 16.2704 30.2687 16.3234C30.3615 16.372 30.4808 16.4272 30.6266 16.489C30.7768 16.5509 30.9579 16.6083 31.17 16.6613C31.382 16.7099 31.636 16.7342 31.932 16.7342C32.1883 16.7342 32.4202 16.7077 32.6278 16.6547C32.8399 16.6017 33.0188 16.5178 33.1646 16.4029C33.3104 16.2836 33.423 16.1356 33.5026 15.9589C33.5821 15.7822 33.6218 15.5701 33.6218 15.3228C33.6218 15.1107 33.5887 14.9229 33.5224 14.7595C33.4562 14.5916 33.3523 14.4502 33.211 14.3354C33.0696 14.2205 32.8863 14.1344 32.661 14.0769C32.4357 14.0195 32.1618 13.9908 31.8393 13.9908C31.583 13.9908 31.3489 14.004 31.1368 14.0306C30.9292 14.0571 30.7326 14.0703 30.5471 14.0703C30.4189 14.0703 30.3262 14.0394 30.2687 13.9775C30.2157 13.9113 30.1892 13.792 30.1892 13.6197V9.89551C30.1892 9.7188 30.2223 9.59289 30.2886 9.51779C30.3593 9.43827 30.4697 9.39851 30.6199 9.39851H34.6821C34.7219 9.39851 34.7594 9.41176 34.7948 9.43827C34.8301 9.46477 34.8588 9.50674 34.8809 9.56417C34.9074 9.62161 34.9251 9.69892 34.9339 9.79611C34.9472 9.88888 34.9538 10.0015 34.9538 10.1341C34.9538 10.3991 34.9295 10.5913 34.8809 10.7106C34.8367 10.8299 34.7705 10.8895 34.6821 10.8895H31.6338V12.7251C31.7885 12.7074 31.9409 12.6964 32.0911 12.692C32.2457 12.6875 32.4069 12.6853 32.5748 12.6853C33.0387 12.6853 33.4495 12.7406 33.8074 12.851C34.1696 12.957 34.4723 13.1161 34.7152 13.3281C34.9626 13.5358 35.1504 13.7964 35.2785 14.1101C35.4066 14.4193 35.4707 14.7794 35.4707 15.1902Z" fill="white"/>
</svg>
