<svg width="147" height="160" viewBox="0 0 147 160" fill="none" xmlns="http://www.w3.org/2000/svg">
<rect x="5.76172" y="10.1055" width="108.159" height="2.64341" fill="#9F9B9B"/>
<rect x="5.76172" y="15.6348" width="108.159" height="2.64341" fill="#9F9B9B"/>
<rect x="5.76172" y="51.6797" width="108.159" height="2.64341" fill="#9F9B9B"/>
<rect x="5.76172" y="57.207" width="108.159" height="2.64341" fill="#9F9B9B"/>
<rect x="1.91992" y="4.09766" width="5.31313" height="155" fill="#AEAEAE"/>
<rect x="1.91992" y="4.09766" width="5.31313" height="6.24806" fill="#AEAEAE"/>
<g clip-path="url(#clip0_355_31430)">
<path d="M141.585 0H19.4147C17.5288 0 16 1.53017 16 3.41772V56.5823C16 58.4698 17.5288 60 19.4147 60H141.585C143.471 60 145 58.4698 145 56.5823V3.41772C145 1.53017 143.471 0 141.585 0Z" fill="white"/>
<path d="M141.586 0.0761719H19.415C17.571 0.0761719 16.0762 1.57233 16.0762 3.41794V56.5825C16.0762 58.4281 17.571 59.9243 19.415 59.9243H141.586C143.43 59.9243 144.924 58.4281 144.924 56.5825V3.41794C144.924 1.57233 143.43 0.0761719 141.586 0.0761719Z" stroke="black" stroke-width="2"/>
<path fill-rule="evenodd" clip-rule="evenodd" d="M17.3652 3.41782C17.3652 2.28177 18.279 1.36719 19.4141 1.36719H141.585C142.72 1.36719 143.633 2.28177 143.633 3.41782V56.5824C143.633 57.7184 142.72 58.633 141.585 58.633H19.4141C18.279 58.633 17.3652 57.7184 17.3652 56.5824V3.41782ZM47.3008 40.2533L38.7641 25.455L30.2273 40.2533H35.6908V51.8735H41.8373V40.2533H47.3008Z" fill="#00A500"/>
<rect x="30.7793" y="6.5957" width="14.248" height="13.7695" rx="2.75" stroke="white" stroke-width="0.5"/>
<path d="M40.125 10.4141C40.125 10.5273 40.1211 10.627 40.1133 10.7129C40.1055 10.7949 40.0938 10.873 40.0781 10.9473C40.0664 11.0176 40.0488 11.0859 40.0254 11.1523C40.002 11.2148 39.9746 11.2832 39.9434 11.3574L37.4473 17.1406C37.4238 17.1914 37.3926 17.2324 37.3535 17.2637C37.3184 17.2949 37.2676 17.3203 37.2012 17.3398C37.1348 17.3555 37.0488 17.3652 36.9434 17.3691C36.8418 17.377 36.7148 17.3809 36.5625 17.3809C36.3555 17.3809 36.1914 17.373 36.0703 17.3574C35.9492 17.3457 35.8594 17.3262 35.8008 17.2988C35.7461 17.2676 35.7168 17.2305 35.7129 17.1875C35.709 17.1406 35.7227 17.084 35.7539 17.0176L38.4375 11.0996H35.25C35.168 11.0996 35.1055 11.0469 35.0625 10.9414C35.0234 10.832 35.0039 10.6602 35.0039 10.4258C35.0039 10.3086 35.0098 10.209 35.0215 10.127C35.0332 10.041 35.0488 9.9707 35.0684 9.91602C35.0918 9.86133 35.1172 9.82227 35.1445 9.79883C35.1758 9.77539 35.2109 9.76367 35.25 9.76367H39.7559C39.8262 9.76367 39.8848 9.77148 39.9316 9.78711C39.9785 9.79883 40.0156 9.82812 40.043 9.875C40.0703 9.92188 40.0898 9.98828 40.1016 10.0742C40.1172 10.1602 40.125 10.2734 40.125 10.4141Z" fill="white"/>
<path d="M70.2468 16.7847C70.2468 16.8258 70.2356 16.8614 70.2131 16.8914C70.1907 16.9176 70.1495 16.94 70.0896 16.9587C70.0334 16.9775 69.9548 16.9906 69.8538 16.998C69.7564 17.0093 69.631 17.0149 69.4775 17.0149C69.3203 17.0149 69.1912 17.0093 69.0901 16.998C68.989 16.9906 68.9085 16.9775 68.8486 16.9587C68.7925 16.9363 68.7494 16.9082 68.7195 16.8745C68.6933 16.8371 68.6708 16.7922 68.6521 16.7397L68.1299 15.0945C68.0588 14.8624 67.9801 14.6696 67.894 14.5161C67.8117 14.3589 67.7162 14.2316 67.6077 14.1343C67.5028 14.0369 67.3831 13.9696 67.2483 13.9321C67.1173 13.891 66.9657 13.8704 66.7935 13.8704H66.5071V16.7791C66.5071 16.8202 66.4958 16.8558 66.4734 16.8857C66.4509 16.9119 66.4116 16.9363 66.3555 16.9587C66.3031 16.9775 66.2301 16.9906 66.1365 16.998C66.0429 17.0093 65.925 17.0149 65.7827 17.0149C65.6405 17.0149 65.5225 17.0093 65.429 16.998C65.3354 16.9906 65.2605 16.9775 65.2043 16.9587C65.1519 16.9363 65.1145 16.9119 65.092 16.8857C65.0733 16.8558 65.064 16.8202 65.064 16.7791V13.8704H64.7776C64.5942 13.8704 64.4332 13.8947 64.2947 13.9434C64.1562 13.9883 64.0345 14.0613 63.9297 14.1624C63.8249 14.2597 63.7332 14.3851 63.6545 14.5386C63.5759 14.6921 63.5029 14.8774 63.4355 15.0945L62.9189 16.7397C62.9002 16.7922 62.8759 16.8371 62.8459 16.8745C62.8197 16.9082 62.7767 16.9363 62.7168 16.9587C62.6569 16.9775 62.5764 16.9906 62.4753 16.998C62.378 17.0093 62.2507 17.0149 62.0935 17.0149C61.9363 17.0149 61.809 17.0093 61.7117 16.998C61.6143 16.9906 61.5357 16.9775 61.4758 16.9587C61.4197 16.94 61.3804 16.9176 61.3579 16.8914C61.3354 16.8614 61.3242 16.8258 61.3242 16.7847C61.3242 16.766 61.3242 16.7435 61.3242 16.7173C61.328 16.6911 61.3336 16.6611 61.3411 16.6274C61.3523 16.59 61.3654 16.547 61.3804 16.4983C61.3953 16.4496 61.4159 16.3916 61.4421 16.3242L61.9475 14.8755C62.0411 14.606 62.1347 14.3795 62.2283 14.196C62.3219 14.0089 62.4211 13.8535 62.5259 13.73C62.6307 13.6027 62.7449 13.4998 62.8684 13.4211C62.9919 13.3388 63.1305 13.2677 63.2839 13.2078V13.2021C63.1529 13.161 63.0312 13.1048 62.9189 13.0337C62.8104 12.9626 62.7074 12.869 62.6101 12.7529C62.5165 12.6331 62.4248 12.4853 62.335 12.3093C62.2489 12.1334 62.1628 11.92 62.0767 11.6692L61.6443 10.3665C61.6031 10.2467 61.575 10.1531 61.5601 10.0857C61.5451 10.0146 61.5376 9.95467 61.5376 9.90601C61.5376 9.86483 61.547 9.83114 61.5657 9.80493C61.5881 9.77498 61.6256 9.75252 61.678 9.73755C61.7341 9.71883 61.809 9.70573 61.9026 9.69824C61.9999 9.68701 62.1235 9.6814 62.2732 9.6814C62.4304 9.6814 62.5577 9.68701 62.655 9.69824C62.7524 9.70573 62.8291 9.7207 62.8853 9.74316C62.9414 9.76188 62.9807 9.78996 63.0032 9.82739C63.0294 9.86108 63.05 9.90413 63.0649 9.95654L63.5254 11.4951C63.589 11.7085 63.6564 11.8882 63.7275 12.0342C63.8024 12.1802 63.8885 12.2981 63.9858 12.3879C64.0832 12.4778 64.1955 12.5433 64.3228 12.5845C64.45 12.6219 64.6016 12.6406 64.7776 12.6406H65.064V9.91162C65.064 9.87044 65.0733 9.83675 65.092 9.81055C65.1145 9.7806 65.1519 9.75627 65.2043 9.73755C65.2605 9.71883 65.3354 9.70573 65.429 9.69824C65.5225 9.68701 65.6405 9.6814 65.7827 9.6814C65.925 9.6814 66.0429 9.68701 66.1365 9.69824C66.2301 9.70573 66.3031 9.71883 66.3555 9.73755C66.4116 9.75627 66.4509 9.7806 66.4734 9.81055C66.4958 9.83675 66.5071 9.87044 66.5071 9.91162V12.6406H66.7935C66.9619 12.6406 67.1098 12.62 67.2371 12.5789C67.3681 12.5339 67.4823 12.4647 67.5796 12.3711C67.6807 12.2775 67.7686 12.1596 67.8435 12.0173C67.9184 11.8713 67.9858 11.6954 68.0457 11.4895L68.5061 9.95654C68.5211 9.90413 68.5398 9.86108 68.5623 9.82739C68.5885 9.78996 68.6296 9.76188 68.6858 9.74316C68.7419 9.7207 68.8187 9.70573 68.916 9.69824C69.0133 9.68701 69.1406 9.6814 69.2979 9.6814C69.4476 9.6814 69.5693 9.68701 69.6628 9.69824C69.7564 9.70573 69.8313 9.71883 69.8875 9.73755C69.9436 9.75252 69.981 9.77498 69.9998 9.80493C70.0222 9.83114 70.0334 9.86483 70.0334 9.90601C70.0334 9.95467 70.0241 10.0146 70.0054 10.0857C69.9904 10.1568 69.9642 10.2504 69.9268 10.3665L69.4944 11.6467C69.412 11.8863 69.3278 12.0922 69.2417 12.2644C69.1593 12.4329 69.0695 12.5751 68.9722 12.6912C68.8786 12.8072 68.7756 12.9045 68.6633 12.9832C68.551 13.058 68.4256 13.1217 68.2871 13.1741V13.1797C68.4443 13.2471 68.5847 13.3238 68.7083 13.4099C68.8318 13.4923 68.946 13.5971 69.0508 13.7244C69.1556 13.8516 69.2529 14.0089 69.3428 14.196C69.4326 14.3795 69.5262 14.606 69.6235 14.8755L70.1233 16.3242C70.1495 16.3916 70.1701 16.4496 70.1851 16.4983C70.2 16.547 70.2113 16.59 70.2188 16.6274C70.23 16.6611 70.2375 16.6911 70.2412 16.7173C70.245 16.7435 70.2468 16.766 70.2468 16.7847Z" fill="white"/>
<path d="M75.6768 16.4028C75.6768 16.5114 75.6711 16.6031 75.6599 16.678C75.6524 16.7491 75.6393 16.8071 75.6206 16.8521C75.6019 16.897 75.5776 16.9307 75.5476 16.9531C75.5214 16.9718 75.4915 16.9812 75.4578 16.9812H71.8079C71.6843 16.9812 71.5795 16.9456 71.4934 16.8745C71.4111 16.7996 71.3699 16.6799 71.3699 16.5151V10.1812C71.3699 10.0164 71.4111 9.89852 71.4934 9.82739C71.5795 9.75252 71.6843 9.71509 71.8079 9.71509H75.4353C75.469 9.71509 75.4989 9.72445 75.5251 9.74316C75.5514 9.76188 75.5738 9.79557 75.5925 9.84424C75.6112 9.88916 75.6243 9.94906 75.6318 10.0239C75.6431 10.0951 75.6487 10.1868 75.6487 10.2991C75.6487 10.4039 75.6431 10.4937 75.6318 10.5686C75.6243 10.6397 75.6112 10.6978 75.5925 10.7427C75.5738 10.7876 75.5514 10.8213 75.5251 10.8438C75.4989 10.8625 75.469 10.8718 75.4353 10.8718H72.8411V12.6462H75.0366C75.0703 12.6462 75.1003 12.6575 75.1265 12.6799C75.1564 12.6986 75.1807 12.7305 75.1995 12.7754C75.2182 12.8166 75.2313 12.8746 75.2388 12.9495C75.25 13.0206 75.2556 13.1086 75.2556 13.2134C75.2556 13.3219 75.25 13.4118 75.2388 13.4829C75.2313 13.554 75.2182 13.6121 75.1995 13.657C75.1807 13.6982 75.1564 13.7281 75.1265 13.7468C75.1003 13.7655 75.0703 13.7749 75.0366 13.7749H72.8411V15.8245H75.4578C75.4915 15.8245 75.5214 15.8357 75.5476 15.8582C75.5776 15.8769 75.6019 15.9087 75.6206 15.9536C75.6393 15.9985 75.6524 16.0584 75.6599 16.1333C75.6711 16.2044 75.6768 16.2943 75.6768 16.4028Z" fill="white"/>
<path d="M81.3425 14.8755C81.3425 15.2424 81.2733 15.5662 81.1348 15.8469C80.9963 16.1239 80.7979 16.3579 80.5396 16.5488C80.285 16.736 79.978 16.8764 79.6187 16.97C79.263 17.0636 78.8681 17.1104 78.4338 17.1104C78.1943 17.1104 77.9734 17.0935 77.7712 17.0598C77.5728 17.0261 77.3988 16.9849 77.249 16.9363C77.103 16.8839 76.9851 16.8333 76.8953 16.7847C76.8054 16.736 76.7418 16.6967 76.7043 16.6667C76.6669 16.6331 76.6388 16.5994 76.6201 16.5657C76.6014 16.532 76.5864 16.4852 76.5752 16.4253C76.564 16.3617 76.5546 16.283 76.5471 16.1895C76.5434 16.0959 76.5415 15.9798 76.5415 15.8413C76.5415 15.6841 76.5546 15.5793 76.5808 15.5269C76.6108 15.4707 76.6538 15.4426 76.71 15.4426C76.7549 15.4426 76.8185 15.467 76.9009 15.5156C76.9832 15.5605 77.0881 15.613 77.2153 15.6729C77.3426 15.7327 77.4961 15.787 77.6758 15.8357C77.8555 15.8844 78.067 15.9087 78.3103 15.9087C78.5125 15.9087 78.6959 15.8844 78.8606 15.8357C79.0253 15.787 79.1638 15.7178 79.2761 15.6279C79.3922 15.5381 79.482 15.4314 79.5457 15.3079C79.6093 15.1806 79.6411 15.0402 79.6411 14.8867C79.6411 14.7183 79.6112 14.5667 79.5513 14.4319C79.4951 14.2971 79.4053 14.1829 79.2817 14.0894C79.1582 13.9958 79.001 13.9246 78.8101 13.876C78.6229 13.8236 78.3964 13.7974 78.1306 13.7974H77.3613C77.3052 13.7974 77.2603 13.7899 77.2266 13.7749C77.1929 13.7599 77.1648 13.7319 77.1423 13.6907C77.1236 13.6495 77.1105 13.5933 77.103 13.5222C77.0993 13.4473 77.0974 13.35 77.0974 13.2302C77.0974 13.1217 77.1012 13.0337 77.1086 12.9663C77.1161 12.8952 77.1292 12.839 77.1479 12.7979C77.1704 12.7567 77.1966 12.7286 77.2266 12.7136C77.2603 12.6949 77.2996 12.6855 77.3445 12.6855H78.125C78.3534 12.6855 78.5555 12.6631 78.7314 12.6182C78.9074 12.5732 79.0534 12.5077 79.1694 12.4216C79.2892 12.3318 79.3791 12.2251 79.439 12.1016C79.5026 11.9743 79.5344 11.8302 79.5344 11.6692C79.5344 11.5344 79.512 11.4109 79.467 11.2986C79.4259 11.1863 79.3604 11.0927 79.2705 11.0178C79.1807 10.9392 79.0665 10.8793 78.928 10.8381C78.7895 10.7932 78.6248 10.7708 78.4338 10.7708C78.2092 10.7708 78.0071 10.7951 77.8274 10.8438C77.6477 10.8924 77.4905 10.9448 77.3557 11.001C77.2247 11.0571 77.1124 11.1114 77.0188 11.1638C76.929 11.2125 76.8616 11.2368 76.8167 11.2368C76.7904 11.2368 76.768 11.2293 76.7493 11.2144C76.7305 11.1994 76.7137 11.1732 76.6987 11.1357C76.6838 11.0946 76.6725 11.0403 76.665 10.9729C76.6613 10.9055 76.6594 10.8175 76.6594 10.709C76.6594 10.6341 76.6613 10.5649 76.665 10.5012C76.6688 10.4376 76.6763 10.3796 76.6875 10.3271C76.6987 10.2747 76.7137 10.2298 76.7324 10.1924C76.7511 10.1512 76.7792 10.1119 76.8167 10.0745C76.8578 10.037 76.9383 9.98836 77.0581 9.92847C77.1816 9.86857 77.3314 9.81429 77.5073 9.76562C77.6833 9.71322 77.8817 9.67017 78.1025 9.63647C78.3234 9.60278 78.5574 9.58594 78.8044 9.58594C79.1938 9.58594 79.5326 9.62712 79.8208 9.70947C80.1128 9.79183 80.3561 9.91162 80.5508 10.0688C80.7454 10.2223 80.8914 10.4132 80.9888 10.6416C81.0861 10.8662 81.1348 11.1245 81.1348 11.4165C81.1348 11.6486 81.1029 11.8601 81.0393 12.051C80.9757 12.2419 80.884 12.4104 80.7642 12.5564C80.6481 12.7024 80.5077 12.8259 80.343 12.927C80.182 13.0243 80.0024 13.0955 79.804 13.1404V13.1516C80.0323 13.1778 80.2401 13.2415 80.4272 13.3425C80.6182 13.4399 80.781 13.5653 80.9158 13.7188C81.0505 13.8722 81.1554 14.0482 81.2302 14.2466C81.3051 14.4412 81.3425 14.6509 81.3425 14.8755Z" fill="white"/>
<path d="M88.3212 9.8412L85.7212 13.2712L87.5012 15.6812H89.1012V19.0612H87.6412V16.9812H86.7412L84.1512 13.3612V16.9812H82.6412V9.8412H84.1512V13.3012L86.7112 9.8412H88.3212Z" fill="white"/>
<path d="M96.0437 16.4309C96.0886 16.5657 96.1167 16.6724 96.1279 16.751C96.1392 16.8296 96.1242 16.8895 96.083 16.9307C96.0418 16.9681 95.9688 16.9906 95.864 16.998C95.7592 17.0093 95.6151 17.0149 95.4316 17.0149C95.2407 17.0149 95.091 17.0111 94.9824 17.0037C94.8776 16.9999 94.7971 16.9906 94.741 16.9756C94.6848 16.9569 94.6455 16.9325 94.623 16.9026C94.6006 16.8726 94.5819 16.8333 94.5669 16.7847L94.0784 15.3247H91.3494L90.8889 16.7454C90.8739 16.7978 90.8534 16.8427 90.8271 16.8801C90.8047 16.9138 90.7654 16.9419 90.7092 16.9644C90.6568 16.9831 90.5801 16.9962 90.479 17.0037C90.3817 17.0111 90.2525 17.0149 90.0916 17.0149C89.9194 17.0149 89.7846 17.0093 89.6873 16.998C89.5899 16.9868 89.5225 16.9606 89.4851 16.9194C89.4477 16.8745 89.4346 16.8127 89.4458 16.7341C89.457 16.6555 89.4851 16.5507 89.53 16.4197L91.7705 9.97339C91.793 9.90975 91.8192 9.85921 91.8491 9.82178C91.8791 9.7806 91.9259 9.75065 91.9895 9.73193C92.0569 9.70947 92.1486 9.69637 92.2646 9.69263C92.3807 9.68514 92.5342 9.6814 92.7251 9.6814C92.946 9.6814 93.1219 9.68514 93.2529 9.69263C93.384 9.69637 93.485 9.70947 93.5562 9.73193C93.631 9.75065 93.6834 9.7806 93.7134 9.82178C93.7471 9.86296 93.7751 9.91911 93.7976 9.99023L96.0437 16.4309ZM92.7083 11.1021H92.7026L91.675 14.1904H93.7358L92.7083 11.1021Z" fill="white"/>
<path d="M101.423 14.8755C101.423 15.2424 101.354 15.5662 101.215 15.8469C101.077 16.1239 100.878 16.3579 100.62 16.5488C100.366 16.736 100.059 16.8764 99.6992 16.97C99.3436 17.0636 98.9487 17.1104 98.5144 17.1104C98.2748 17.1104 98.054 17.0935 97.8518 17.0598C97.6534 17.0261 97.4793 16.9849 97.3296 16.9363C97.1836 16.8839 97.0657 16.8333 96.9758 16.7847C96.886 16.736 96.8223 16.6967 96.7849 16.6667C96.7475 16.6331 96.7194 16.5994 96.7007 16.5657C96.682 16.532 96.667 16.4852 96.6558 16.4253C96.6445 16.3617 96.6352 16.283 96.6277 16.1895C96.6239 16.0959 96.6221 15.9798 96.6221 15.8413C96.6221 15.6841 96.6352 15.5793 96.6614 15.5269C96.6913 15.4707 96.7344 15.4426 96.7905 15.4426C96.8354 15.4426 96.8991 15.467 96.9814 15.5156C97.0638 15.5605 97.1686 15.613 97.2959 15.6729C97.4232 15.7327 97.5767 15.787 97.7563 15.8357C97.936 15.8844 98.1475 15.9087 98.3909 15.9087C98.593 15.9087 98.7764 15.8844 98.9412 15.8357C99.1059 15.787 99.2444 15.7178 99.3567 15.6279C99.4727 15.5381 99.5626 15.4314 99.6262 15.3079C99.6899 15.1806 99.7217 15.0402 99.7217 14.8867C99.7217 14.7183 99.6917 14.5667 99.6318 14.4319C99.5757 14.2971 99.4858 14.1829 99.3623 14.0894C99.2388 13.9958 99.0815 13.9246 98.8906 13.876C98.7034 13.8236 98.477 13.7974 98.2112 13.7974H97.4419C97.3857 13.7974 97.3408 13.7899 97.3071 13.7749C97.2734 13.7599 97.2454 13.7319 97.2229 13.6907C97.2042 13.6495 97.1911 13.5933 97.1836 13.5222C97.1799 13.4473 97.178 13.35 97.178 13.2302C97.178 13.1217 97.1817 13.0337 97.1892 12.9663C97.1967 12.8952 97.2098 12.839 97.2285 12.7979C97.251 12.7567 97.2772 12.7286 97.3071 12.7136C97.3408 12.6949 97.3801 12.6855 97.425 12.6855H98.2056C98.4339 12.6855 98.6361 12.6631 98.812 12.6182C98.988 12.5732 99.134 12.5077 99.25 12.4216C99.3698 12.3318 99.4596 12.2251 99.5195 12.1016C99.5832 11.9743 99.615 11.8302 99.615 11.6692C99.615 11.5344 99.5925 11.4109 99.5476 11.2986C99.5064 11.1863 99.4409 11.0927 99.3511 11.0178C99.2612 10.9392 99.1471 10.8793 99.0085 10.8381C98.87 10.7932 98.7053 10.7708 98.5144 10.7708C98.2898 10.7708 98.0876 10.7951 97.908 10.8438C97.7283 10.8924 97.571 10.9448 97.4363 11.001C97.3053 11.0571 97.193 11.1114 97.0994 11.1638C97.0095 11.2125 96.9421 11.2368 96.8972 11.2368C96.871 11.2368 96.8486 11.2293 96.8298 11.2144C96.8111 11.1994 96.7943 11.1732 96.7793 11.1357C96.7643 11.0946 96.7531 11.0403 96.7456 10.9729C96.7419 10.9055 96.74 10.8175 96.74 10.709C96.74 10.6341 96.7419 10.5649 96.7456 10.5012C96.7493 10.4376 96.7568 10.3796 96.7681 10.3271C96.7793 10.2747 96.7943 10.2298 96.813 10.1924C96.8317 10.1512 96.8598 10.1119 96.8972 10.0745C96.9384 10.037 97.0189 9.98836 97.1387 9.92847C97.2622 9.86857 97.4119 9.81429 97.5879 9.76562C97.7638 9.71322 97.9622 9.67017 98.1831 9.63647C98.404 9.60278 98.6379 9.58594 98.885 9.58594C99.2743 9.58594 99.6131 9.62712 99.9014 9.70947C100.193 9.79183 100.437 9.91162 100.631 10.0688C100.826 10.2223 100.972 10.4132 101.069 10.6416C101.167 10.8662 101.215 11.1245 101.215 11.4165C101.215 11.6486 101.184 11.8601 101.12 12.051C101.056 12.2419 100.965 12.4104 100.845 12.5564C100.729 12.7024 100.588 12.8259 100.424 12.927C100.263 13.0243 100.083 13.0955 99.8845 13.1404V13.1516C100.113 13.1778 100.321 13.2415 100.508 13.3425C100.699 13.4399 100.862 13.5653 100.996 13.7188C101.131 13.8722 101.236 14.0482 101.311 14.2466C101.386 14.4412 101.423 14.6509 101.423 14.8755Z" fill="white"/>
<path d="M107.212 9.8412V11.0812H104.232V12.8312H106.192V14.0712H104.232V16.9812H102.722V14.0712H102.052V12.8312H102.722V9.8412H107.212Z" fill="white"/>
<path d="M114.152 16.4309C114.197 16.5657 114.225 16.6724 114.236 16.751C114.247 16.8296 114.232 16.8895 114.191 16.9307C114.15 16.9681 114.077 16.9906 113.972 16.998C113.867 17.0093 113.723 17.0149 113.54 17.0149C113.349 17.0149 113.199 17.0111 113.09 17.0037C112.986 16.9999 112.905 16.9906 112.849 16.9756C112.793 16.9569 112.753 16.9325 112.731 16.9026C112.708 16.8726 112.69 16.8333 112.675 16.7847L112.186 15.3247H109.457L108.997 16.7454C108.982 16.7978 108.961 16.8427 108.935 16.8801C108.913 16.9138 108.873 16.9419 108.817 16.9644C108.765 16.9831 108.688 16.9962 108.587 17.0037C108.49 17.0111 108.36 17.0149 108.199 17.0149C108.027 17.0149 107.892 17.0093 107.795 16.998C107.698 16.9868 107.63 16.9606 107.593 16.9194C107.556 16.8745 107.542 16.8127 107.554 16.7341C107.565 16.6555 107.593 16.5507 107.638 16.4197L109.878 9.97339C109.901 9.90975 109.927 9.85921 109.957 9.82178C109.987 9.7806 110.034 9.75065 110.097 9.73193C110.165 9.70947 110.257 9.69637 110.373 9.69263C110.489 9.68514 110.642 9.6814 110.833 9.6814C111.054 9.6814 111.23 9.68514 111.361 9.69263C111.492 9.69637 111.593 9.70947 111.664 9.73193C111.739 9.75065 111.791 9.7806 111.821 9.82178C111.855 9.86296 111.883 9.91911 111.906 9.99023L114.152 16.4309ZM110.816 11.1021H110.811L109.783 14.1904H111.844L110.816 11.1021Z" fill="white"/>
<path d="M120.845 16.7791C120.845 16.8165 120.832 16.8502 120.806 16.8801C120.783 16.9101 120.744 16.9344 120.688 16.9531C120.632 16.9718 120.557 16.9868 120.463 16.998C120.37 17.0093 120.252 17.0149 120.109 17.0149C119.963 17.0149 119.842 17.0093 119.744 16.998C119.651 16.9868 119.576 16.9718 119.52 16.9531C119.467 16.9344 119.428 16.9101 119.402 16.8801C119.379 16.8502 119.368 16.8165 119.368 16.7791V13.8423H116.65V16.7791C116.65 16.8165 116.639 16.8502 116.617 16.8801C116.594 16.9101 116.555 16.9344 116.499 16.9531C116.443 16.9718 116.368 16.9868 116.274 16.998C116.181 17.0093 116.061 17.0149 115.915 17.0149C115.773 17.0149 115.653 17.0093 115.555 16.998C115.462 16.9868 115.387 16.9718 115.331 16.9531C115.275 16.9344 115.233 16.9101 115.207 16.8801C115.185 16.8502 115.174 16.8165 115.174 16.7791V9.91724C115.174 9.8798 115.185 9.84611 115.207 9.81616C115.233 9.78621 115.275 9.76188 115.331 9.74316C115.387 9.72445 115.462 9.70947 115.555 9.69824C115.653 9.68701 115.773 9.6814 115.915 9.6814C116.061 9.6814 116.181 9.68701 116.274 9.69824C116.368 9.70947 116.443 9.72445 116.499 9.74316C116.555 9.76188 116.594 9.78621 116.617 9.81616C116.639 9.84611 116.65 9.8798 116.65 9.91724V12.5845H119.368V9.91724C119.368 9.8798 119.379 9.84611 119.402 9.81616C119.428 9.78621 119.467 9.76188 119.52 9.74316C119.576 9.72445 119.651 9.70947 119.744 9.69824C119.842 9.68701 119.963 9.6814 120.109 9.6814C120.252 9.6814 120.37 9.68701 120.463 9.69824C120.557 9.70947 120.632 9.72445 120.688 9.74316C120.744 9.76188 120.783 9.78621 120.806 9.81616C120.832 9.84611 120.845 9.8798 120.845 9.91724V16.7791Z" fill="white"/>
<path d="M70.2468 27.7847C70.2468 27.8258 70.2356 27.8614 70.2131 27.8914C70.1907 27.9176 70.1495 27.94 70.0896 27.9587C70.0334 27.9775 69.9548 27.9906 69.8538 27.998C69.7564 28.0093 69.631 28.0149 69.4775 28.0149C69.3203 28.0149 69.1912 28.0093 69.0901 27.998C68.989 27.9906 68.9085 27.9775 68.8486 27.9587C68.7925 27.9363 68.7494 27.9082 68.7195 27.8745C68.6933 27.8371 68.6708 27.7922 68.6521 27.7397L68.1299 26.0945C68.0588 25.8624 67.9801 25.6696 67.894 25.5161C67.8117 25.3589 67.7162 25.2316 67.6077 25.1343C67.5028 25.0369 67.3831 24.9696 67.2483 24.9321C67.1173 24.891 66.9657 24.8704 66.7935 24.8704H66.5071V27.7791C66.5071 27.8202 66.4958 27.8558 66.4734 27.8857C66.4509 27.9119 66.4116 27.9363 66.3555 27.9587C66.3031 27.9775 66.2301 27.9906 66.1365 27.998C66.0429 28.0093 65.925 28.0149 65.7827 28.0149C65.6405 28.0149 65.5225 28.0093 65.429 27.998C65.3354 27.9906 65.2605 27.9775 65.2043 27.9587C65.1519 27.9363 65.1145 27.9119 65.092 27.8857C65.0733 27.8558 65.064 27.8202 65.064 27.7791V24.8704H64.7776C64.5942 24.8704 64.4332 24.8947 64.2947 24.9434C64.1562 24.9883 64.0345 25.0613 63.9297 25.1624C63.8249 25.2597 63.7332 25.3851 63.6545 25.5386C63.5759 25.6921 63.5029 25.8774 63.4355 26.0945L62.9189 27.7397C62.9002 27.7922 62.8759 27.8371 62.8459 27.8745C62.8197 27.9082 62.7767 27.9363 62.7168 27.9587C62.6569 27.9775 62.5764 27.9906 62.4753 27.998C62.378 28.0093 62.2507 28.0149 62.0935 28.0149C61.9363 28.0149 61.809 28.0093 61.7117 27.998C61.6143 27.9906 61.5357 27.9775 61.4758 27.9587C61.4197 27.94 61.3804 27.9176 61.3579 27.8914C61.3354 27.8614 61.3242 27.8258 61.3242 27.7847C61.3242 27.766 61.3242 27.7435 61.3242 27.7173C61.328 27.6911 61.3336 27.6611 61.3411 27.6274C61.3523 27.59 61.3654 27.547 61.3804 27.4983C61.3953 27.4496 61.4159 27.3916 61.4421 27.3242L61.9475 25.8755C62.0411 25.606 62.1347 25.3795 62.2283 25.196C62.3219 25.0089 62.4211 24.8535 62.5259 24.73C62.6307 24.6027 62.7449 24.4998 62.8684 24.4211C62.9919 24.3388 63.1305 24.2677 63.2839 24.2078V24.2021C63.1529 24.161 63.0312 24.1048 62.9189 24.0337C62.8104 23.9626 62.7074 23.869 62.6101 23.7529C62.5165 23.6331 62.4248 23.4853 62.335 23.3093C62.2489 23.1334 62.1628 22.92 62.0767 22.6692L61.6443 21.3665C61.6031 21.2467 61.575 21.1531 61.5601 21.0857C61.5451 21.0146 61.5376 20.9547 61.5376 20.906C61.5376 20.8648 61.547 20.8311 61.5657 20.8049C61.5881 20.775 61.6256 20.7525 61.678 20.7375C61.7341 20.7188 61.809 20.7057 61.9026 20.6982C61.9999 20.687 62.1235 20.6814 62.2732 20.6814C62.4304 20.6814 62.5577 20.687 62.655 20.6982C62.7524 20.7057 62.8291 20.7207 62.8853 20.7432C62.9414 20.7619 62.9807 20.79 63.0032 20.8274C63.0294 20.8611 63.05 20.9041 63.0649 20.9565L63.5254 22.4951C63.589 22.7085 63.6564 22.8882 63.7275 23.0342C63.8024 23.1802 63.8885 23.2981 63.9858 23.3879C64.0832 23.4778 64.1955 23.5433 64.3228 23.5845C64.45 23.6219 64.6016 23.6406 64.7776 23.6406H65.064V20.9116C65.064 20.8704 65.0733 20.8368 65.092 20.8105C65.1145 20.7806 65.1519 20.7563 65.2043 20.7375C65.2605 20.7188 65.3354 20.7057 65.429 20.6982C65.5225 20.687 65.6405 20.6814 65.7827 20.6814C65.925 20.6814 66.0429 20.687 66.1365 20.6982C66.2301 20.7057 66.3031 20.7188 66.3555 20.7375C66.4116 20.7563 66.4509 20.7806 66.4734 20.8105C66.4958 20.8368 66.5071 20.8704 66.5071 20.9116V23.6406H66.7935C66.9619 23.6406 67.1098 23.62 67.2371 23.5789C67.3681 23.5339 67.4823 23.4647 67.5796 23.3711C67.6807 23.2775 67.7686 23.1596 67.8435 23.0173C67.9184 22.8713 67.9858 22.6954 68.0457 22.4895L68.5061 20.9565C68.5211 20.9041 68.5398 20.8611 68.5623 20.8274C68.5885 20.79 68.6296 20.7619 68.6858 20.7432C68.7419 20.7207 68.8187 20.7057 68.916 20.6982C69.0133 20.687 69.1406 20.6814 69.2979 20.6814C69.4476 20.6814 69.5693 20.687 69.6628 20.6982C69.7564 20.7057 69.8313 20.7188 69.8875 20.7375C69.9436 20.7525 69.981 20.775 69.9998 20.8049C70.0222 20.8311 70.0334 20.8648 70.0334 20.906C70.0334 20.9547 70.0241 21.0146 70.0054 21.0857C69.9904 21.1568 69.9642 21.2504 69.9268 21.3665L69.4944 22.6467C69.412 22.8863 69.3278 23.0922 69.2417 23.2644C69.1593 23.4329 69.0695 23.5751 68.9722 23.6912C68.8786 23.8072 68.7756 23.9045 68.6633 23.9832C68.551 24.058 68.4256 24.1217 68.2871 24.1741V24.1797C68.4443 24.2471 68.5847 24.3238 68.7083 24.4099C68.8318 24.4923 68.946 24.5971 69.0508 24.7244C69.1556 24.8516 69.2529 25.0089 69.3428 25.196C69.4326 25.3795 69.5262 25.606 69.6235 25.8755L70.1233 27.3242C70.1495 27.3916 70.1701 27.4496 70.1851 27.4983C70.2 27.547 70.2113 27.59 70.2188 27.6274C70.23 27.6611 70.2375 27.6911 70.2412 27.7173C70.245 27.7435 70.2468 27.766 70.2468 27.7847Z" fill="white"/>
<path d="M75.6768 27.4028C75.6768 27.5114 75.6711 27.6031 75.6599 27.678C75.6524 27.7491 75.6393 27.8071 75.6206 27.8521C75.6019 27.897 75.5776 27.9307 75.5476 27.9531C75.5214 27.9718 75.4915 27.9812 75.4578 27.9812H71.8079C71.6843 27.9812 71.5795 27.9456 71.4934 27.8745C71.4111 27.7996 71.3699 27.6798 71.3699 27.5151V21.1812C71.3699 21.0164 71.4111 20.8985 71.4934 20.8274C71.5795 20.7525 71.6843 20.7151 71.8079 20.7151H75.4353C75.469 20.7151 75.4989 20.7244 75.5251 20.7432C75.5514 20.7619 75.5738 20.7956 75.5925 20.8442C75.6112 20.8892 75.6243 20.9491 75.6318 21.0239C75.6431 21.0951 75.6487 21.1868 75.6487 21.2991C75.6487 21.4039 75.6431 21.4937 75.6318 21.5686C75.6243 21.6397 75.6112 21.6978 75.5925 21.7427C75.5738 21.7876 75.5514 21.8213 75.5251 21.8438C75.4989 21.8625 75.469 21.8718 75.4353 21.8718H72.8411V23.6462H75.0366C75.0703 23.6462 75.1003 23.6575 75.1265 23.6799C75.1564 23.6986 75.1807 23.7305 75.1995 23.7754C75.2182 23.8166 75.2313 23.8746 75.2388 23.9495C75.25 24.0206 75.2556 24.1086 75.2556 24.2134C75.2556 24.3219 75.25 24.4118 75.2388 24.4829C75.2313 24.554 75.2182 24.6121 75.1995 24.657C75.1807 24.6982 75.1564 24.7281 75.1265 24.7468C75.1003 24.7655 75.0703 24.7749 75.0366 24.7749H72.8411V26.8245H75.4578C75.4915 26.8245 75.5214 26.8357 75.5476 26.8582C75.5776 26.8769 75.6019 26.9087 75.6206 26.9536C75.6393 26.9985 75.6524 27.0584 75.6599 27.1333C75.6711 27.2044 75.6768 27.2943 75.6768 27.4028Z" fill="white"/>
<path d="M81.3425 25.8755C81.3425 26.2423 81.2733 26.5662 81.1348 26.8469C80.9963 27.1239 80.7979 27.3579 80.5396 27.5488C80.285 27.736 79.978 27.8764 79.6187 27.97C79.263 28.0636 78.8681 28.1104 78.4338 28.1104C78.1943 28.1104 77.9734 28.0935 77.7712 28.0598C77.5728 28.0261 77.3988 27.9849 77.249 27.9363C77.103 27.8839 76.9851 27.8333 76.8953 27.7847C76.8054 27.736 76.7418 27.6967 76.7043 27.6667C76.6669 27.6331 76.6388 27.5994 76.6201 27.5657C76.6014 27.532 76.5864 27.4852 76.5752 27.4253C76.564 27.3617 76.5546 27.283 76.5471 27.1895C76.5434 27.0959 76.5415 26.9798 76.5415 26.8413C76.5415 26.6841 76.5546 26.5793 76.5808 26.5269C76.6108 26.4707 76.6538 26.4426 76.71 26.4426C76.7549 26.4426 76.8185 26.467 76.9009 26.5156C76.9832 26.5605 77.0881 26.613 77.2153 26.6729C77.3426 26.7327 77.4961 26.787 77.6758 26.8357C77.8555 26.8844 78.067 26.9087 78.3103 26.9087C78.5125 26.9087 78.6959 26.8844 78.8606 26.8357C79.0253 26.787 79.1638 26.7178 79.2761 26.6279C79.3922 26.5381 79.482 26.4314 79.5457 26.3079C79.6093 26.1806 79.6411 26.0402 79.6411 25.8867C79.6411 25.7183 79.6112 25.5667 79.5513 25.4319C79.4951 25.2971 79.4053 25.1829 79.2817 25.0894C79.1582 24.9958 79.001 24.9246 78.8101 24.876C78.6229 24.8236 78.3964 24.7974 78.1306 24.7974H77.3613C77.3052 24.7974 77.2603 24.7899 77.2266 24.7749C77.1929 24.7599 77.1648 24.7319 77.1423 24.6907C77.1236 24.6495 77.1105 24.5933 77.103 24.5222C77.0993 24.4473 77.0974 24.35 77.0974 24.2302C77.0974 24.1217 77.1012 24.0337 77.1086 23.9663C77.1161 23.8952 77.1292 23.839 77.1479 23.7979C77.1704 23.7567 77.1966 23.7286 77.2266 23.7136C77.2603 23.6949 77.2996 23.6855 77.3445 23.6855H78.125C78.3534 23.6855 78.5555 23.6631 78.7314 23.6182C78.9074 23.5732 79.0534 23.5077 79.1694 23.4216C79.2892 23.3318 79.3791 23.2251 79.439 23.1016C79.5026 22.9743 79.5344 22.8302 79.5344 22.6692C79.5344 22.5344 79.512 22.4109 79.467 22.2986C79.4259 22.1863 79.3604 22.0927 79.2705 22.0178C79.1807 21.9392 79.0665 21.8793 78.928 21.8381C78.7895 21.7932 78.6248 21.7708 78.4338 21.7708C78.2092 21.7708 78.0071 21.7951 77.8274 21.8438C77.6477 21.8924 77.4905 21.9448 77.3557 22.001C77.2247 22.0571 77.1124 22.1114 77.0188 22.1638C76.929 22.2125 76.8616 22.2368 76.8167 22.2368C76.7904 22.2368 76.768 22.2293 76.7493 22.2144C76.7305 22.1994 76.7137 22.1732 76.6987 22.1357C76.6838 22.0946 76.6725 22.0403 76.665 21.9729C76.6613 21.9055 76.6594 21.8175 76.6594 21.709C76.6594 21.6341 76.6613 21.5649 76.665 21.5012C76.6688 21.4376 76.6763 21.3796 76.6875 21.3271C76.6987 21.2747 76.7137 21.2298 76.7324 21.1924C76.7511 21.1512 76.7792 21.1119 76.8167 21.0745C76.8578 21.037 76.9383 20.9884 77.0581 20.9285C77.1816 20.8686 77.3314 20.8143 77.5073 20.7656C77.6833 20.7132 77.8817 20.6702 78.1025 20.6365C78.3234 20.6028 78.5574 20.5859 78.8044 20.5859C79.1938 20.5859 79.5326 20.6271 79.8208 20.7095C80.1128 20.7918 80.3561 20.9116 80.5508 21.0688C80.7454 21.2223 80.8914 21.4132 80.9888 21.6416C81.0861 21.8662 81.1348 22.1245 81.1348 22.4165C81.1348 22.6486 81.1029 22.8601 81.0393 23.051C80.9757 23.2419 80.884 23.4104 80.7642 23.5564C80.6481 23.7024 80.5077 23.8259 80.343 23.927C80.182 24.0243 80.0024 24.0955 79.804 24.1404V24.1516C80.0323 24.1778 80.2401 24.2415 80.4272 24.3425C80.6182 24.4399 80.781 24.5653 80.9158 24.7188C81.0505 24.8722 81.1554 25.0482 81.2302 25.2466C81.3051 25.4412 81.3425 25.6509 81.3425 25.8755Z" fill="white"/>
<path d="M87.9124 27.7847C87.9124 27.8258 87.9011 27.8614 87.8787 27.8914C87.8562 27.9176 87.815 27.94 87.7551 27.9587C87.699 27.9775 87.6222 27.9906 87.5249 27.998C87.4276 28.0093 87.3022 28.0149 87.1487 28.0149C86.9877 28.0149 86.8567 28.0093 86.7556 27.998C86.6583 27.9906 86.5797 27.9775 86.5198 27.9587C86.4599 27.9363 86.415 27.9082 86.385 27.8745C86.3551 27.8371 86.3326 27.7922 86.3176 27.7397L85.7336 26.1226C85.6513 25.8867 85.5652 25.6902 85.4753 25.533C85.3855 25.372 85.2863 25.2428 85.1777 25.1455C85.0692 25.0444 84.9456 24.9733 84.8071 24.9321C84.6686 24.891 84.5133 24.8704 84.3411 24.8704H84.0098V27.7791C84.0098 27.8202 83.9985 27.8558 83.9761 27.8857C83.9536 27.9119 83.9143 27.9363 83.8582 27.9587C83.802 27.9775 83.7271 27.9906 83.6335 27.998C83.54 28.0093 83.4202 28.0149 83.2742 28.0149C83.1319 28.0149 83.0121 28.0093 82.9148 27.998C82.8212 27.9906 82.7463 27.9775 82.6902 27.9587C82.634 27.9363 82.5929 27.9119 82.5667 27.8857C82.5442 27.8558 82.533 27.8202 82.533 27.7791V20.9116C82.533 20.8704 82.5442 20.8368 82.5667 20.8105C82.5929 20.7806 82.634 20.7563 82.6902 20.7375C82.7463 20.7188 82.8212 20.7057 82.9148 20.6982C83.0121 20.687 83.1319 20.6814 83.2742 20.6814C83.4202 20.6814 83.54 20.687 83.6335 20.6982C83.7271 20.7057 83.802 20.7188 83.8582 20.7375C83.9143 20.7563 83.9536 20.7806 83.9761 20.8105C83.9985 20.8368 84.0098 20.8704 84.0098 20.9116V23.6406H84.3411C84.5095 23.6406 84.6574 23.6182 84.7847 23.5732C84.9119 23.5283 85.0261 23.4572 85.1272 23.3599C85.232 23.2625 85.3256 23.1371 85.408 22.9836C85.4941 22.8264 85.5764 22.6336 85.655 22.4053L86.1436 20.9565C86.1623 20.9041 86.1847 20.8611 86.2109 20.8274C86.2371 20.79 86.2783 20.7619 86.3345 20.7432C86.3944 20.7207 86.4711 20.7057 86.5647 20.6982C86.662 20.687 86.7912 20.6814 86.9521 20.6814C87.0981 20.6814 87.2179 20.687 87.3115 20.6982C87.4089 20.7057 87.4837 20.7188 87.5361 20.7375C87.5923 20.7525 87.6297 20.775 87.6484 20.8049C87.6672 20.8311 87.6765 20.8648 87.6765 20.906C87.6765 20.9547 87.6672 21.0146 87.6484 21.0857C87.6335 21.1568 87.6054 21.2504 87.5642 21.3665L87.0757 22.658C86.9858 22.8975 86.896 23.1016 86.8062 23.27C86.7163 23.4385 86.6208 23.5826 86.5198 23.7024C86.4224 23.8184 86.3176 23.9139 86.2053 23.9888C86.0968 24.0636 85.9751 24.1254 85.8403 24.1741V24.1797C85.9901 24.2433 86.1248 24.3163 86.2446 24.3987C86.3682 24.4773 86.4823 24.5784 86.5872 24.7019C86.6957 24.8254 86.7987 24.9771 86.896 25.1567C86.9933 25.3364 87.0925 25.5573 87.1936 25.8193L87.7888 27.3242C87.8487 27.4777 87.8843 27.5844 87.8955 27.6443C87.9067 27.7004 87.9124 27.7472 87.9124 27.7847Z" fill="white"/>
<path d="M94.9651 27.4309C95.01 27.5657 95.0381 27.6724 95.0493 27.751C95.0605 27.8296 95.0456 27.8895 95.0044 27.9307C94.9632 27.9681 94.8902 27.9906 94.7854 27.998C94.6806 28.0093 94.5365 28.0149 94.353 28.0149C94.1621 28.0149 94.0124 28.0111 93.9038 28.0037C93.799 27.9999 93.7185 27.9906 93.6624 27.9756C93.6062 27.9569 93.5669 27.9325 93.5444 27.9026C93.522 27.8726 93.5033 27.8333 93.4883 27.7847L92.9998 26.3247H90.2708L89.8103 27.7454C89.7953 27.7978 89.7747 27.8427 89.7485 27.8801C89.7261 27.9138 89.6868 27.9419 89.6306 27.9644C89.5782 27.9831 89.5015 27.9962 89.4004 28.0037C89.3031 28.0111 89.1739 28.0149 89.0129 28.0149C88.8407 28.0149 88.706 28.0093 88.6086 27.998C88.5113 27.9868 88.4439 27.9606 88.4065 27.9194C88.3691 27.8745 88.356 27.8127 88.3672 27.7341C88.3784 27.6555 88.4065 27.5507 88.4514 27.4197L90.6919 20.9734C90.7144 20.9097 90.7406 20.8592 90.7705 20.8218C90.8005 20.7806 90.8472 20.7507 90.9109 20.7319C90.9783 20.7095 91.07 20.6964 91.186 20.6926C91.3021 20.6851 91.4556 20.6814 91.6465 20.6814C91.8673 20.6814 92.0433 20.6851 92.1743 20.6926C92.3053 20.6964 92.4064 20.7095 92.4775 20.7319C92.5524 20.7507 92.6048 20.7806 92.6348 20.8218C92.6685 20.863 92.6965 20.9191 92.719 20.9902L94.9651 27.4309ZM91.6296 22.1021H91.624L90.5964 25.1904H92.6572L91.6296 22.1021Z" fill="white"/>
<path d="M100.344 25.8755C100.344 26.2423 100.275 26.5662 100.137 26.8469C99.9982 27.1239 99.7998 27.3579 99.5415 27.5488C99.2869 27.736 98.98 27.8764 98.6206 27.97C98.265 28.0636 97.87 28.1104 97.4358 28.1104C97.1962 28.1104 96.9753 28.0935 96.7732 28.0598C96.5748 28.0261 96.4007 27.9849 96.251 27.9363C96.105 27.8839 95.9871 27.8333 95.8972 27.7847C95.8074 27.736 95.7437 27.6967 95.7063 27.6667C95.6689 27.6331 95.6408 27.5994 95.6221 27.5657C95.6034 27.532 95.5884 27.4852 95.5771 27.4253C95.5659 27.3617 95.5566 27.283 95.5491 27.1895C95.5453 27.0959 95.5435 26.9798 95.5435 26.8413C95.5435 26.6841 95.5566 26.5793 95.5828 26.5269C95.6127 26.4707 95.6558 26.4426 95.7119 26.4426C95.7568 26.4426 95.8205 26.467 95.9028 26.5156C95.9852 26.5605 96.09 26.613 96.2173 26.6729C96.3446 26.7327 96.498 26.787 96.6777 26.8357C96.8574 26.8844 97.0689 26.9087 97.3123 26.9087C97.5144 26.9087 97.6978 26.8844 97.8625 26.8357C98.0273 26.787 98.1658 26.7178 98.2781 26.6279C98.3941 26.5381 98.484 26.4314 98.5476 26.3079C98.6112 26.1806 98.6431 26.0402 98.6431 25.8867C98.6431 25.7183 98.6131 25.5667 98.5532 25.4319C98.4971 25.2971 98.4072 25.1829 98.2837 25.0894C98.1602 24.9958 98.0029 24.9246 97.812 24.876C97.6248 24.8236 97.3984 24.7974 97.1326 24.7974H96.3633C96.3071 24.7974 96.2622 24.7899 96.2285 24.7749C96.1948 24.7599 96.1667 24.7319 96.1443 24.6907C96.1256 24.6495 96.1125 24.5933 96.105 24.5222C96.1012 24.4473 96.0994 24.35 96.0994 24.2302C96.0994 24.1217 96.1031 24.0337 96.1106 23.9663C96.1181 23.8952 96.1312 23.839 96.1499 23.7979C96.1724 23.7567 96.1986 23.7286 96.2285 23.7136C96.2622 23.6949 96.3015 23.6855 96.3464 23.6855H97.127C97.3553 23.6855 97.5575 23.6631 97.7334 23.6182C97.9093 23.5732 98.0553 23.5077 98.1714 23.4216C98.2912 23.3318 98.381 23.2251 98.4409 23.1016C98.5046 22.9743 98.5364 22.8302 98.5364 22.6692C98.5364 22.5344 98.5139 22.4109 98.469 22.2986C98.4278 22.1863 98.3623 22.0927 98.2725 22.0178C98.1826 21.9392 98.0684 21.8793 97.9299 21.8381C97.7914 21.7932 97.6267 21.7708 97.4358 21.7708C97.2112 21.7708 97.009 21.7951 96.8293 21.8438C96.6497 21.8924 96.4924 21.9448 96.3577 22.001C96.2266 22.0571 96.1143 22.1114 96.0208 22.1638C95.9309 22.2125 95.8635 22.2368 95.8186 22.2368C95.7924 22.2368 95.7699 22.2293 95.7512 22.2144C95.7325 22.1994 95.7157 22.1732 95.7007 22.1357C95.6857 22.0946 95.6745 22.0403 95.667 21.9729C95.6632 21.9055 95.6614 21.8175 95.6614 21.709C95.6614 21.6341 95.6632 21.5649 95.667 21.5012C95.6707 21.4376 95.6782 21.3796 95.6895 21.3271C95.7007 21.2747 95.7157 21.2298 95.7344 21.1924C95.7531 21.1512 95.7812 21.1119 95.8186 21.0745C95.8598 21.037 95.9403 20.9884 96.0601 20.9285C96.1836 20.8686 96.3333 20.8143 96.5093 20.7656C96.6852 20.7132 96.8836 20.6702 97.1045 20.6365C97.3254 20.6028 97.5593 20.5859 97.8064 20.5859C98.1957 20.5859 98.5345 20.6271 98.8228 20.7095C99.1147 20.7918 99.3581 20.9116 99.5527 21.0688C99.7474 21.2223 99.8934 21.4132 99.9907 21.6416C100.088 21.8662 100.137 22.1245 100.137 22.4165C100.137 22.6486 100.105 22.8601 100.041 23.051C99.9776 23.2419 99.8859 23.4104 99.7661 23.5564C99.6501 23.7024 99.5097 23.8259 99.345 23.927C99.184 24.0243 99.0043 24.0955 98.8059 24.1404V24.1516C99.0343 24.1778 99.242 24.2415 99.4292 24.3425C99.6201 24.4399 99.783 24.5653 99.9177 24.7188C100.052 24.8722 100.157 25.0482 100.232 25.2466C100.307 25.4412 100.344 25.6509 100.344 25.8755Z" fill="white"/>
<path d="M105.651 21.3271C105.651 21.4395 105.645 21.5349 105.634 21.6135C105.627 21.6884 105.613 21.7502 105.595 21.7988C105.576 21.8438 105.552 21.8774 105.522 21.8999C105.496 21.9186 105.464 21.928 105.426 21.928H103.017V27.7903C103.017 27.8277 103.004 27.8614 102.978 27.8914C102.956 27.9176 102.916 27.94 102.86 27.9587C102.804 27.9775 102.729 27.9906 102.635 27.998C102.542 28.0093 102.422 28.0149 102.276 28.0149C102.134 28.0149 102.014 28.0093 101.917 27.998C101.823 27.9906 101.748 27.9775 101.692 27.9587C101.636 27.94 101.595 27.9176 101.569 27.8914C101.546 27.8614 101.535 27.8277 101.535 27.7903V21.1812C101.535 21.0239 101.574 20.9079 101.653 20.833C101.735 20.7544 101.842 20.7151 101.973 20.7151H105.426C105.501 20.7151 105.557 20.7619 105.595 20.8555C105.632 20.9491 105.651 21.1063 105.651 21.3271Z" fill="white"/>
<path d="M111.564 27.4309C111.609 27.5657 111.637 27.6724 111.648 27.751C111.659 27.8296 111.644 27.8895 111.603 27.9307C111.562 27.9681 111.489 27.9906 111.384 27.998C111.279 28.0093 111.135 28.0149 110.952 28.0149C110.761 28.0149 110.611 28.0111 110.502 28.0037C110.398 27.9999 110.317 27.9906 110.261 27.9756C110.205 27.9569 110.166 27.9325 110.143 27.9026C110.121 27.8726 110.102 27.8333 110.087 27.7847L109.598 26.3247H106.869L106.409 27.7454C106.394 27.7978 106.373 27.8427 106.347 27.8801C106.325 27.9138 106.285 27.9419 106.229 27.9644C106.177 27.9831 106.1 27.9962 105.999 28.0037C105.902 28.0111 105.773 28.0149 105.612 28.0149C105.439 28.0149 105.305 28.0093 105.207 27.998C105.11 27.9868 105.043 27.9606 105.005 27.9194C104.968 27.8745 104.955 27.8127 104.966 27.7341C104.977 27.6555 105.005 27.5507 105.05 27.4197L107.291 20.9734C107.313 20.9097 107.339 20.8592 107.369 20.8218C107.399 20.7806 107.446 20.7507 107.51 20.7319C107.577 20.7095 107.669 20.6964 107.785 20.6926C107.901 20.6851 108.054 20.6814 108.245 20.6814C108.466 20.6814 108.642 20.6851 108.773 20.6926C108.904 20.6964 109.005 20.7095 109.076 20.7319C109.151 20.7507 109.203 20.7806 109.233 20.8218C109.267 20.863 109.295 20.9191 109.318 20.9902L111.564 27.4309ZM108.228 22.1021H108.223L107.195 25.1904H109.256L108.228 22.1021Z" fill="white"/>
<path d="M118.257 27.7791C118.257 27.8165 118.244 27.8502 118.218 27.8801C118.195 27.9101 118.156 27.9344 118.1 27.9531C118.044 27.9718 117.969 27.9868 117.875 27.998C117.782 28.0093 117.664 28.0149 117.521 28.0149C117.375 28.0149 117.254 28.0093 117.156 27.998C117.063 27.9868 116.988 27.9718 116.932 27.9531C116.879 27.9344 116.84 27.9101 116.814 27.8801C116.792 27.8502 116.78 27.8165 116.78 27.7791V24.8423H114.062V27.7791C114.062 27.8165 114.051 27.8502 114.029 27.8801C114.006 27.9101 113.967 27.9344 113.911 27.9531C113.855 27.9718 113.78 27.9868 113.686 27.998C113.593 28.0093 113.473 28.0149 113.327 28.0149C113.185 28.0149 113.065 28.0093 112.968 27.998C112.874 27.9868 112.799 27.9718 112.743 27.9531C112.687 27.9344 112.646 27.9101 112.619 27.8801C112.597 27.8502 112.586 27.8165 112.586 27.7791V20.9172C112.586 20.8798 112.597 20.8461 112.619 20.8162C112.646 20.7862 112.687 20.7619 112.743 20.7432C112.799 20.7244 112.874 20.7095 112.968 20.6982C113.065 20.687 113.185 20.6814 113.327 20.6814C113.473 20.6814 113.593 20.687 113.686 20.6982C113.78 20.7095 113.855 20.7244 113.911 20.7432C113.967 20.7619 114.006 20.7862 114.029 20.8162C114.051 20.8461 114.062 20.8798 114.062 20.9172V23.5845H116.78V20.9172C116.78 20.8798 116.792 20.8461 116.814 20.8162C116.84 20.7862 116.879 20.7619 116.932 20.7432C116.988 20.7244 117.063 20.7095 117.156 20.6982C117.254 20.687 117.375 20.6814 117.521 20.6814C117.664 20.6814 117.782 20.687 117.875 20.6982C117.969 20.7095 118.044 20.7244 118.1 20.7432C118.156 20.7619 118.195 20.7862 118.218 20.8162C118.244 20.8461 118.257 20.8798 118.257 20.9172V27.7791Z" fill="white"/>
<path d="M67.5785 31.8412L64.9785 35.2712L66.7585 37.6812H68.3585V41.0612H66.8985V38.9812H65.9985L63.4085 35.3612V38.9812H61.8985V31.8412H63.4085V35.3012L65.9685 31.8412H67.5785Z" fill="white"/>
<path d="M75.301 38.4309C75.3459 38.5657 75.374 38.6724 75.3853 38.751C75.3965 38.8296 75.3815 38.8895 75.3403 38.9307C75.2992 38.9681 75.2262 38.9906 75.1213 38.998C75.0165 39.0093 74.8724 39.0149 74.689 39.0149C74.498 39.0149 74.3483 39.0111 74.2397 39.0037C74.1349 38.9999 74.0544 38.9906 73.9983 38.9756C73.9421 38.9569 73.9028 38.9325 73.8804 38.9026C73.8579 38.8726 73.8392 38.8333 73.8242 38.7847L73.3357 37.3247H70.6067L70.1462 38.7454C70.1313 38.7978 70.1107 38.8427 70.0845 38.8801C70.062 38.9138 70.0227 38.9419 69.9666 38.9644C69.9141 38.9831 69.8374 38.9962 69.7363 39.0037C69.639 39.0111 69.5098 39.0149 69.3489 39.0149C69.1767 39.0149 69.0419 39.0093 68.9446 38.998C68.8472 38.9868 68.7799 38.9606 68.7424 38.9194C68.705 38.8745 68.6919 38.8127 68.7031 38.7341C68.7144 38.6555 68.7424 38.5507 68.7874 38.4197L71.0278 31.9734C71.0503 31.9097 71.0765 31.8592 71.1064 31.8218C71.1364 31.7806 71.1832 31.7507 71.2468 31.7319C71.3142 31.7095 71.4059 31.6964 71.522 31.6926C71.638 31.6851 71.7915 31.6814 71.9824 31.6814C72.2033 31.6814 72.3792 31.6851 72.5103 31.6926C72.6413 31.6964 72.7424 31.7095 72.8135 31.7319C72.8883 31.7507 72.9408 31.7806 72.9707 31.8218C73.0044 31.863 73.0325 31.9191 73.0549 31.9902L75.301 38.4309ZM71.9656 33.1021H71.96L70.9324 36.1904H72.9932L71.9656 33.1021Z" fill="white"/>
<path d="M81.2981 33.9219C81.2981 34.3299 81.2345 34.6912 81.1072 35.0056C80.9799 35.3201 80.7946 35.5859 80.5513 35.803C80.3079 36.0164 80.0085 36.1792 79.6528 36.2915C79.3009 36.4038 78.8854 36.46 78.4062 36.46H77.7998V38.7791C77.7998 38.8165 77.7867 38.8502 77.7605 38.8801C77.738 38.9101 77.6987 38.9344 77.6426 38.9531C77.5864 38.9718 77.5116 38.9868 77.418 38.998C77.3244 39.0093 77.2046 39.0149 77.0586 39.0149C76.9163 39.0149 76.7965 39.0093 76.6992 38.998C76.6056 38.9868 76.5308 38.9718 76.4746 38.9531C76.4185 38.9344 76.3792 38.9101 76.3567 38.8801C76.3342 38.8502 76.323 38.8165 76.323 38.7791V32.2429C76.323 32.067 76.3679 31.936 76.4578 31.8499C76.5514 31.76 76.673 31.7151 76.8228 31.7151H78.5354C78.7076 31.7151 78.8704 31.7226 79.0239 31.7375C79.1812 31.7488 79.3683 31.7769 79.5854 31.8218C79.8026 31.863 80.0216 31.9416 80.2424 32.0576C80.467 32.1737 80.658 32.3215 80.8152 32.5012C80.9724 32.6772 81.0922 32.8849 81.1746 33.1245C81.2569 33.3604 81.2981 33.6261 81.2981 33.9219ZM79.7539 34.0286C79.7539 33.774 79.709 33.5644 79.6191 33.3997C79.5293 33.2349 79.4189 33.1133 79.2878 33.0347C79.1568 32.9561 79.0183 32.9074 78.8723 32.8887C78.7301 32.8662 78.5822 32.855 78.4287 32.855H77.7998V35.3201H78.4624C78.6982 35.3201 78.8948 35.2882 79.052 35.2246C79.213 35.161 79.344 35.073 79.4451 34.9607C79.5461 34.8446 79.6229 34.708 79.6753 34.5508C79.7277 34.3898 79.7539 34.2157 79.7539 34.0286Z" fill="white"/>
<path d="M87.7556 38.4309C87.8005 38.5657 87.8286 38.6724 87.8398 38.751C87.8511 38.8296 87.8361 38.8895 87.7949 38.9307C87.7537 38.9681 87.6807 38.9906 87.5759 38.998C87.4711 39.0093 87.327 39.0149 87.1436 39.0149C86.9526 39.0149 86.8029 39.0111 86.6943 39.0037C86.5895 38.9999 86.509 38.9906 86.4529 38.9756C86.3967 38.9569 86.3574 38.9325 86.335 38.9026C86.3125 38.8726 86.2938 38.8333 86.2788 38.7847L85.7903 37.3247H83.0613L82.6008 38.7454C82.5859 38.7978 82.5653 38.8427 82.5391 38.8801C82.5166 38.9138 82.4773 38.9419 82.4211 38.9644C82.3687 38.9831 82.292 38.9962 82.1909 39.0037C82.0936 39.0111 81.9644 39.0149 81.8035 39.0149C81.6313 39.0149 81.4965 39.0093 81.3992 38.998C81.3018 38.9868 81.2345 38.9606 81.197 38.9194C81.1596 38.8745 81.1465 38.8127 81.1577 38.7341C81.1689 38.6555 81.197 38.5507 81.2419 38.4197L83.4824 31.9734C83.5049 31.9097 83.5311 31.8592 83.561 31.8218C83.591 31.7806 83.6378 31.7507 83.7014 31.7319C83.7688 31.7095 83.8605 31.6964 83.9766 31.6926C84.0926 31.6851 84.2461 31.6814 84.437 31.6814C84.6579 31.6814 84.8338 31.6851 84.9648 31.6926C85.0959 31.6964 85.1969 31.7095 85.2681 31.7319C85.3429 31.7507 85.3953 31.7806 85.4253 31.8218C85.459 31.863 85.4871 31.9191 85.5095 31.9902L87.7556 38.4309ZM84.4202 33.1021H84.4146L83.387 36.1904H85.4478L84.4202 33.1021Z" fill="white"/>
<path d="M93.3758 31.8412V33.0812H90.3958V34.8312H92.3558V36.0712H90.3958V38.9812H88.8858V36.0712H88.2158V34.8312H88.8858V31.8412H93.3758Z" fill="white"/>
<path d="M100.316 38.4309C100.361 38.5657 100.389 38.6724 100.4 38.751C100.411 38.8296 100.396 38.8895 100.355 38.9307C100.314 38.9681 100.241 38.9906 100.136 38.998C100.031 39.0093 99.887 39.0149 99.7036 39.0149C99.5127 39.0149 99.363 39.0111 99.2544 39.0037C99.1496 38.9999 99.0691 38.9906 99.0129 38.9756C98.9568 38.9569 98.9175 38.9325 98.895 38.9026C98.8726 38.8726 98.8538 38.8333 98.8389 38.7847L98.3503 37.3247H95.6213L95.1609 38.7454C95.1459 38.7978 95.1253 38.8427 95.0991 38.8801C95.0767 38.9138 95.0374 38.9419 94.9812 38.9644C94.9288 38.9831 94.8521 38.9962 94.751 39.0037C94.6536 39.0111 94.5245 39.0149 94.3635 39.0149C94.1913 39.0149 94.0566 39.0093 93.9592 38.998C93.8619 38.9868 93.7945 38.9606 93.7571 38.9194C93.7196 38.8745 93.7065 38.8127 93.7178 38.7341C93.729 38.6555 93.7571 38.5507 93.802 38.4197L96.0425 31.9734C96.0649 31.9097 96.0911 31.8592 96.1211 31.8218C96.151 31.7806 96.1978 31.7507 96.2615 31.7319C96.3289 31.7095 96.4206 31.6964 96.5366 31.6926C96.6527 31.6851 96.8062 31.6814 96.9971 31.6814C97.2179 31.6814 97.3939 31.6851 97.5249 31.6926C97.6559 31.6964 97.757 31.7095 97.8281 31.7319C97.903 31.7507 97.9554 31.7806 97.9854 31.8218C98.019 31.863 98.0471 31.9191 98.0696 31.9902L100.316 38.4309ZM96.9802 33.1021H96.9746L95.947 36.1904H98.0078L96.9802 33.1021Z" fill="white"/>
<path d="M107.009 38.7791C107.009 38.8165 106.996 38.8502 106.97 38.8801C106.947 38.9101 106.908 38.9344 106.852 38.9531C106.796 38.9718 106.721 38.9868 106.627 38.998C106.534 39.0093 106.416 39.0149 106.273 39.0149C106.127 39.0149 106.006 39.0093 105.908 38.998C105.815 38.9868 105.74 38.9718 105.684 38.9531C105.631 38.9344 105.592 38.9101 105.566 38.8801C105.543 38.8502 105.532 38.8165 105.532 38.7791V35.8423H102.814V38.7791C102.814 38.8165 102.803 38.8502 102.781 38.8801C102.758 38.9101 102.719 38.9344 102.663 38.9531C102.607 38.9718 102.532 38.9868 102.438 38.998C102.345 39.0093 102.225 39.0149 102.079 39.0149C101.937 39.0149 101.817 39.0093 101.719 38.998C101.626 38.9868 101.551 38.9718 101.495 38.9531C101.439 38.9344 101.398 38.9101 101.371 38.8801C101.349 38.8502 101.338 38.8165 101.338 38.7791V31.9172C101.338 31.8798 101.349 31.8461 101.371 31.8162C101.398 31.7862 101.439 31.7619 101.495 31.7432C101.551 31.7244 101.626 31.7095 101.719 31.6982C101.817 31.687 101.937 31.6814 102.079 31.6814C102.225 31.6814 102.345 31.687 102.438 31.6982C102.532 31.7095 102.607 31.7244 102.663 31.7432C102.719 31.7619 102.758 31.7862 102.781 31.8162C102.803 31.8461 102.814 31.8798 102.814 31.9172V34.5845H105.532V31.9172C105.532 31.8798 105.543 31.8461 105.566 31.8162C105.592 31.7862 105.631 31.7619 105.684 31.7432C105.74 31.7244 105.815 31.7095 105.908 31.6982C106.006 31.687 106.127 31.6814 106.273 31.6814C106.416 31.6814 106.534 31.687 106.627 31.6982C106.721 31.7095 106.796 31.7244 106.852 31.7432C106.908 31.7619 106.947 31.7862 106.97 31.8162C106.996 31.8461 107.009 31.8798 107.009 31.9172V38.7791Z" fill="white"/>
<path d="M115.292 40.6938C115.292 40.7313 115.282 40.7631 115.263 40.7893C115.245 40.8155 115.211 40.8361 115.162 40.8511C115.114 40.8698 115.048 40.8829 114.966 40.8904C114.883 40.9016 114.777 40.9072 114.646 40.9072C114.518 40.9072 114.414 40.9016 114.331 40.8904C114.253 40.8829 114.187 40.8698 114.135 40.8511C114.086 40.8361 114.051 40.8155 114.028 40.7893C114.009 40.7631 114 40.7313 114 40.6938V38.9812H109.165V40.6938C109.165 40.7313 109.154 40.7631 109.132 40.7893C109.113 40.8155 109.077 40.8361 109.025 40.8511C108.976 40.8698 108.911 40.8829 108.828 40.8904C108.746 40.9016 108.641 40.9072 108.514 40.9072C108.387 40.9072 108.282 40.9016 108.199 40.8904C108.117 40.8829 108.05 40.8698 107.997 40.8511C107.949 40.8361 107.915 40.8155 107.896 40.7893C107.878 40.7631 107.868 40.7313 107.868 40.6938V38.0828C107.861 37.9742 107.879 37.8975 107.924 37.8525C107.973 37.8039 108.044 37.7795 108.138 37.7795H108.475C108.564 37.6523 108.649 37.5212 108.727 37.3865C108.81 37.2517 108.888 37.0926 108.963 36.9092C109.038 36.722 109.111 36.5011 109.182 36.2466C109.257 35.9883 109.33 35.6738 109.401 35.3032C109.472 34.9326 109.543 34.4946 109.615 33.9893C109.689 33.4801 109.766 32.8831 109.845 32.198C109.867 32.0295 109.91 31.9079 109.974 31.833C110.038 31.7544 110.135 31.7151 110.266 31.7151H113.978C114.109 31.7151 114.212 31.7544 114.286 31.833C114.361 31.9079 114.399 32.0239 114.399 32.1812V37.7795H115.016C115.117 37.7795 115.189 37.8076 115.23 37.8638C115.271 37.9162 115.292 37.991 115.292 38.0884V40.6938ZM112.927 32.9055H111.232C111.164 33.4745 111.097 33.9762 111.03 34.4104C110.966 34.8409 110.9 35.219 110.833 35.5447C110.769 35.8704 110.704 36.1511 110.636 36.387C110.569 36.6228 110.5 36.8268 110.429 36.999C110.361 37.1712 110.29 37.3191 110.215 37.4426C110.14 37.5662 110.064 37.6785 109.985 37.7795H112.927V32.9055Z" fill="white"/>
<path d="M123.928 38.7903C123.928 38.8277 123.915 38.8614 123.888 38.8914C123.866 38.9176 123.827 38.94 123.771 38.9587C123.714 38.9775 123.638 38.9906 123.54 38.998C123.447 39.0093 123.329 39.0149 123.187 39.0149C123.044 39.0149 122.926 39.0093 122.833 38.998C122.739 38.9906 122.662 38.9775 122.603 38.9587C122.546 38.94 122.505 38.9176 122.479 38.8914C122.457 38.8614 122.445 38.8277 122.445 38.7903V31.906C122.445 31.8686 122.457 31.8368 122.479 31.8105C122.505 31.7806 122.546 31.7563 122.603 31.7375C122.662 31.7188 122.739 31.7057 122.833 31.6982C122.93 31.687 123.048 31.6814 123.187 31.6814C123.329 31.6814 123.447 31.687 123.54 31.6982C123.638 31.7057 123.714 31.7188 123.771 31.7375C123.827 31.7563 123.866 31.7806 123.888 31.8105C123.915 31.8368 123.928 31.8686 123.928 31.906V38.7903ZM121.564 36.5835C121.564 36.9279 121.509 37.2442 121.401 37.5325C121.296 37.817 121.129 38.0659 120.901 38.2793C120.673 38.4927 120.373 38.663 120.003 38.7903C119.636 38.9176 119.134 38.9812 118.498 38.9812H116.785C116.722 38.9812 116.662 38.9737 116.605 38.9587C116.553 38.94 116.506 38.9119 116.465 38.8745C116.424 38.8333 116.39 38.7847 116.364 38.7285C116.342 38.6686 116.33 38.5975 116.33 38.5151V31.906C116.33 31.8686 116.342 31.8368 116.364 31.8105C116.39 31.7806 116.431 31.7563 116.488 31.7375C116.547 31.7188 116.624 31.7057 116.718 31.6982C116.815 31.687 116.933 31.6814 117.072 31.6814C117.218 31.6814 117.337 31.687 117.431 31.6982C117.524 31.7057 117.599 31.7188 117.656 31.7375C117.712 31.7563 117.751 31.7806 117.773 31.8105C117.796 31.8368 117.807 31.8686 117.807 31.906V34.416H118.722C119.265 34.416 119.698 34.4628 120.02 34.5564C120.345 34.65 120.62 34.7885 120.845 34.9719C121.073 35.1554 121.249 35.3837 121.373 35.657C121.5 35.9303 121.564 36.2391 121.564 36.5835ZM120.048 36.707C120.048 36.5273 120.021 36.3664 119.969 36.2241C119.917 36.0819 119.836 35.9602 119.728 35.8591C119.619 35.7581 119.48 35.6794 119.312 35.6233C119.144 35.5671 118.895 35.5391 118.565 35.5391H117.807V37.8469H118.588C118.932 37.8469 119.19 37.8132 119.363 37.7458C119.538 37.6747 119.675 37.5849 119.772 37.4763C119.87 37.364 119.939 37.2405 119.98 37.1057C120.025 36.9709 120.048 36.8381 120.048 36.707Z" fill="white"/>
<path d="M67.1697 49.7847C67.1697 49.8258 67.1584 49.8614 67.136 49.8914C67.1135 49.9176 67.0723 49.94 67.0125 49.9587C66.9563 49.9775 66.8796 49.9906 66.7822 49.998C66.6849 50.0093 66.5595 50.0149 66.406 50.0149C66.245 50.0149 66.114 50.0093 66.0129 49.998C65.9156 49.9906 65.837 49.9775 65.7771 49.9587C65.7172 49.9363 65.6723 49.9082 65.6423 49.8745C65.6124 49.8371 65.5899 49.7922 65.575 49.7397L64.991 48.1226C64.9086 47.8867 64.8225 47.6902 64.7327 47.533C64.6428 47.372 64.5436 47.2428 64.4351 47.1455C64.3265 47.0444 64.203 46.9733 64.0645 46.9321C63.9259 46.8909 63.7706 46.8704 63.5984 46.8704H63.2671V49.7791C63.2671 49.8202 63.2559 49.8558 63.2334 49.8857C63.2109 49.9119 63.1716 49.9363 63.1155 49.9587C63.0593 49.9775 62.9845 49.9906 62.8909 49.998C62.7973 50.0093 62.6775 50.0149 62.5315 50.0149C62.3892 50.0149 62.2694 50.0093 62.1721 49.998C62.0785 49.9906 62.0037 49.9775 61.9475 49.9587C61.8914 49.9363 61.8502 49.9119 61.824 49.8857C61.8015 49.8558 61.7903 49.8202 61.7903 49.7791V42.9116C61.7903 42.8704 61.8015 42.8368 61.824 42.8105C61.8502 42.7806 61.8914 42.7563 61.9475 42.7375C62.0037 42.7188 62.0785 42.7057 62.1721 42.6982C62.2694 42.687 62.3892 42.6814 62.5315 42.6814C62.6775 42.6814 62.7973 42.687 62.8909 42.6982C62.9845 42.7057 63.0593 42.7188 63.1155 42.7375C63.1716 42.7563 63.2109 42.7806 63.2334 42.8105C63.2559 42.8368 63.2671 42.8704 63.2671 42.9116V45.6406H63.5984C63.7668 45.6406 63.9147 45.6182 64.042 45.5732C64.1693 45.5283 64.2834 45.4572 64.3845 45.3599C64.4893 45.2625 64.5829 45.1371 64.6653 44.9836C64.7514 44.8264 64.8337 44.6336 64.9124 44.4053L65.4009 42.9565C65.4196 42.9041 65.4421 42.8611 65.4683 42.8274C65.4945 42.79 65.5356 42.7619 65.5918 42.7432C65.6517 42.7207 65.7284 42.7057 65.822 42.6982C65.9194 42.687 66.0485 42.6814 66.2095 42.6814C66.3555 42.6814 66.4753 42.687 66.5688 42.6982C66.6662 42.7057 66.741 42.7188 66.7935 42.7375C66.8496 42.7525 66.887 42.775 66.9058 42.8049C66.9245 42.8311 66.9338 42.8648 66.9338 42.906C66.9338 42.9547 66.9245 43.0146 66.9058 43.0857C66.8908 43.1568 66.8627 43.2504 66.8215 43.3665L66.333 44.658C66.2432 44.8975 66.1533 45.1016 66.0635 45.27C65.9736 45.4385 65.8782 45.5826 65.7771 45.7024C65.6798 45.8184 65.575 45.9139 65.4626 45.9888C65.3541 46.0636 65.2324 46.1254 65.0977 46.1741V46.1797C65.2474 46.2433 65.3822 46.3163 65.502 46.3987C65.6255 46.4773 65.7397 46.5784 65.8445 46.7019C65.953 46.8254 66.056 46.9771 66.1533 47.1567C66.2507 47.3364 66.3499 47.5573 66.4509 47.8193L67.0461 49.3242C67.106 49.4777 67.1416 49.5844 67.1528 49.6443C67.1641 49.7004 67.1697 49.7472 67.1697 49.7847Z" fill="white"/>
<path d="M74.2224 49.4309C74.2673 49.5657 74.2954 49.6724 74.3066 49.751C74.3179 49.8296 74.3029 49.8895 74.2617 49.9307C74.2205 49.9681 74.1475 49.9906 74.0427 49.998C73.9379 50.0093 73.7938 50.0149 73.6104 50.0149C73.4194 50.0149 73.2697 50.0112 73.1611 50.0037C73.0563 49.9999 72.9758 49.9906 72.9197 49.9756C72.8635 49.9569 72.8242 49.9325 72.8018 49.9026C72.7793 49.8726 72.7606 49.8333 72.7456 49.7847L72.2571 48.3247H69.5281L69.0676 49.7454C69.0527 49.7978 69.0321 49.8427 69.0059 49.8801C68.9834 49.9138 68.9441 49.9419 68.8879 49.9644C68.8355 49.9831 68.7588 49.9962 68.6577 50.0037C68.5604 50.0112 68.4312 50.0149 68.2703 50.0149C68.0981 50.0149 67.9633 50.0093 67.866 49.998C67.7686 49.9868 67.7013 49.9606 67.6638 49.9194C67.6264 49.8745 67.6133 49.8127 67.6245 49.7341C67.6357 49.6555 67.6638 49.5507 67.7087 49.4197L69.9492 42.9734C69.9717 42.9097 69.9979 42.8592 70.0278 42.8218C70.0578 42.7806 70.1046 42.7507 70.1682 42.7319C70.2356 42.7095 70.3273 42.6964 70.4434 42.6926C70.5594 42.6851 70.7129 42.6814 70.9038 42.6814C71.1247 42.6814 71.3006 42.6851 71.4316 42.6926C71.5627 42.6964 71.6637 42.7095 71.7349 42.7319C71.8097 42.7507 71.8621 42.7806 71.8921 42.8218C71.9258 42.863 71.9539 42.9191 71.9763 42.9902L74.2224 49.4309ZM70.887 44.1021H70.8813L69.8538 47.1904H71.9146L70.887 44.1021Z" fill="white"/>
<path d="M80.2195 44.9219C80.2195 45.3299 80.1558 45.6912 80.0286 46.0056C79.9013 46.3201 79.716 46.5859 79.4727 46.803C79.2293 47.0164 78.9298 47.1792 78.5742 47.2915C78.2223 47.4038 77.8068 47.46 77.3276 47.46H76.7212V49.7791C76.7212 49.8165 76.7081 49.8502 76.6819 49.8801C76.6594 49.9101 76.6201 49.9344 76.564 49.9531C76.5078 49.9718 76.4329 49.9868 76.3394 49.998C76.2458 50.0093 76.126 50.0149 75.98 50.0149C75.8377 50.0149 75.7179 50.0093 75.6206 49.998C75.527 49.9868 75.4521 49.9718 75.396 49.9531C75.3398 49.9344 75.3005 49.9101 75.2781 49.8801C75.2556 49.8502 75.2444 49.8165 75.2444 49.7791V43.2429C75.2444 43.067 75.2893 42.936 75.3792 42.8499C75.4727 42.76 75.5944 42.7151 75.7441 42.7151H77.4568C77.629 42.7151 77.7918 42.7226 77.9453 42.7375C78.1025 42.7488 78.2897 42.7769 78.5068 42.8218C78.724 42.863 78.943 42.9416 79.1638 43.0576C79.3884 43.1737 79.5793 43.3215 79.7366 43.5012C79.8938 43.6772 80.0136 43.8849 80.0959 44.1245C80.1783 44.3604 80.2195 44.6261 80.2195 44.9219ZM78.6753 45.0286C78.6753 44.774 78.6304 44.5644 78.5405 44.3997C78.4507 44.2349 78.3403 44.1133 78.2092 44.0347C78.0782 43.9561 77.9397 43.9074 77.7937 43.8887C77.6514 43.8662 77.5036 43.855 77.3501 43.855H76.7212V46.3201H77.3838C77.6196 46.3201 77.8162 46.2882 77.9734 46.2246C78.1344 46.161 78.2654 46.073 78.3665 45.9607C78.4675 45.8446 78.5443 45.708 78.5967 45.5508C78.6491 45.3898 78.6753 45.2157 78.6753 45.0286Z" fill="white"/>
<path d="M86.677 49.4309C86.7219 49.5657 86.75 49.6724 86.7612 49.751C86.7725 49.8296 86.7575 49.8895 86.7163 49.9307C86.6751 49.9681 86.6021 49.9906 86.4973 49.998C86.3925 50.0093 86.2484 50.0149 86.0649 50.0149C85.874 50.0149 85.7243 50.0112 85.6157 50.0037C85.5109 49.9999 85.4304 49.9906 85.3743 49.9756C85.3181 49.9569 85.2788 49.9325 85.2563 49.9026C85.2339 49.8726 85.2152 49.8333 85.2002 49.7847L84.7117 48.3247H81.9827L81.5222 49.7454C81.5072 49.7978 81.4867 49.8427 81.4604 49.8801C81.438 49.9138 81.3987 49.9419 81.3425 49.9644C81.2901 49.9831 81.2134 49.9962 81.1123 50.0037C81.015 50.0112 80.8858 50.0149 80.7249 50.0149C80.5527 50.0149 80.4179 50.0093 80.3206 49.998C80.2232 49.9868 80.1558 49.9606 80.1184 49.9194C80.081 49.8745 80.0679 49.8127 80.0791 49.7341C80.0903 49.6555 80.1184 49.5507 80.1633 49.4197L82.4038 42.9734C82.4263 42.9097 82.4525 42.8592 82.4824 42.8218C82.5124 42.7806 82.5592 42.7507 82.6228 42.7319C82.6902 42.7095 82.7819 42.6964 82.8979 42.6926C83.014 42.6851 83.1675 42.6814 83.3584 42.6814C83.5793 42.6814 83.7552 42.6851 83.8862 42.6926C84.0173 42.6964 84.1183 42.7095 84.1895 42.7319C84.2643 42.7507 84.3167 42.7806 84.3467 42.8218C84.3804 42.863 84.4084 42.9191 84.4309 42.9902L86.677 49.4309ZM83.3416 44.1021H83.3359L82.3083 47.1904H84.3691L83.3416 44.1021Z" fill="white"/>
<path d="M91.8149 43.3271C91.8149 43.4395 91.8093 43.5349 91.7981 43.6135C91.7906 43.6884 91.7775 43.7502 91.7588 43.7988C91.7401 43.8438 91.7157 43.8774 91.6858 43.8999C91.6596 43.9186 91.6278 43.928 91.5903 43.928H89.1814V49.7903C89.1814 49.8277 89.1683 49.8614 89.1421 49.8914C89.1196 49.9176 89.0803 49.94 89.0242 49.9587C88.968 49.9775 88.8931 49.9906 88.7996 49.998C88.706 50.0093 88.5862 50.0149 88.4402 50.0149C88.2979 50.0149 88.1781 50.0093 88.0808 49.998C87.9872 49.9906 87.9124 49.9775 87.8562 49.9587C87.8 49.94 87.7589 49.9176 87.7327 49.8914C87.7102 49.8614 87.699 49.8277 87.699 49.7903V43.1812C87.699 43.0239 87.7383 42.9079 87.8169 42.833C87.8993 42.7544 88.0059 42.7151 88.137 42.7151H91.5903C91.6652 42.7151 91.7214 42.7619 91.7588 42.8555C91.7962 42.9491 91.8149 43.1063 91.8149 43.3271Z" fill="white"/>
<path d="M97.7278 49.4309C97.7727 49.5657 97.8008 49.6724 97.812 49.751C97.8232 49.8296 97.8083 49.8895 97.7671 49.9307C97.7259 49.9681 97.6529 49.9906 97.5481 49.998C97.4433 50.0093 97.2992 50.0149 97.1157 50.0149C96.9248 50.0149 96.7751 50.0112 96.6665 50.0037C96.5617 49.9999 96.4812 49.9906 96.425 49.9756C96.3689 49.9569 96.3296 49.9325 96.3071 49.9026C96.2847 49.8726 96.2659 49.8333 96.251 49.7847L95.7625 48.3247H93.0334L92.573 49.7454C92.558 49.7978 92.5374 49.8427 92.5112 49.8801C92.4888 49.9138 92.4495 49.9419 92.3933 49.9644C92.3409 49.9831 92.2642 49.9962 92.1631 50.0037C92.0658 50.0112 91.9366 50.0149 91.7756 50.0149C91.6034 50.0149 91.4687 50.0093 91.3713 49.998C91.274 49.9868 91.2066 49.9606 91.1692 49.9194C91.1318 49.8745 91.1187 49.8127 91.1299 49.7341C91.1411 49.6555 91.1692 49.5507 91.2141 49.4197L93.4546 42.9734C93.4771 42.9097 93.5033 42.8592 93.5332 42.8218C93.5632 42.7806 93.6099 42.7507 93.6736 42.7319C93.741 42.7095 93.8327 42.6964 93.9487 42.6926C94.0648 42.6851 94.2183 42.6814 94.4092 42.6814C94.63 42.6814 94.806 42.6851 94.937 42.6926C95.068 42.6964 95.1691 42.7095 95.2402 42.7319C95.3151 42.7507 95.3675 42.7806 95.3975 42.8218C95.4312 42.863 95.4592 42.9191 95.4817 42.9902L97.7278 49.4309ZM94.3923 44.1021H94.3867L93.3591 47.1904H95.4199L94.3923 44.1021Z" fill="white"/>
<path d="M104.421 49.7791C104.421 49.8165 104.408 49.8502 104.382 49.8801C104.359 49.9101 104.32 49.9344 104.264 49.9531C104.208 49.9718 104.133 49.9868 104.039 49.998C103.946 50.0093 103.828 50.0149 103.686 50.0149C103.54 50.0149 103.418 50.0093 103.321 49.998C103.227 49.9868 103.152 49.9718 103.096 49.9531C103.044 49.9344 103.004 49.9101 102.978 49.8801C102.956 49.8502 102.944 49.8165 102.944 49.7791V46.8423H100.227V49.7791C100.227 49.8165 100.215 49.8502 100.193 49.8801C100.17 49.9101 100.131 49.9344 100.075 49.9531C100.019 49.9718 99.9439 49.9868 99.8503 49.998C99.7568 50.0093 99.637 50.0149 99.491 50.0149C99.3487 50.0149 99.2289 50.0093 99.1316 49.998C99.038 49.9868 98.9631 49.9718 98.907 49.9531C98.8508 49.9344 98.8097 49.9101 98.7834 49.8801C98.761 49.8502 98.7498 49.8165 98.7498 49.7791V42.9172C98.7498 42.8798 98.761 42.8461 98.7834 42.8162C98.8097 42.7862 98.8508 42.7619 98.907 42.7432C98.9631 42.7244 99.038 42.7095 99.1316 42.6982C99.2289 42.687 99.3487 42.6814 99.491 42.6814C99.637 42.6814 99.7568 42.687 99.8503 42.6982C99.9439 42.7095 100.019 42.7244 100.075 42.7432C100.131 42.7619 100.17 42.7862 100.193 42.8162C100.215 42.8461 100.227 42.8798 100.227 42.9172V45.5845H102.944V42.9172C102.944 42.8798 102.956 42.8461 102.978 42.8162C103.004 42.7862 103.044 42.7619 103.096 42.7432C103.152 42.7244 103.227 42.7095 103.321 42.6982C103.418 42.687 103.54 42.6814 103.686 42.6814C103.828 42.6814 103.946 42.687 104.039 42.6982C104.133 42.7095 104.208 42.7244 104.264 42.7432C104.32 42.7619 104.359 42.7862 104.382 42.8162C104.408 42.8461 104.421 42.8798 104.421 42.9172V49.7791Z" fill="white"/>
<path d="M112.704 51.6938C112.704 51.7313 112.694 51.7631 112.676 51.7893C112.657 51.8155 112.623 51.8361 112.574 51.8511C112.526 51.8698 112.46 51.8829 112.378 51.8904C112.296 51.9016 112.189 51.9072 112.058 51.9072C111.931 51.9072 111.826 51.9016 111.743 51.8904C111.665 51.8829 111.599 51.8698 111.547 51.8511C111.498 51.8361 111.463 51.8155 111.44 51.7893C111.421 51.7631 111.412 51.7313 111.412 51.6938V49.9812H106.577V51.6938C106.577 51.7313 106.566 51.7631 106.544 51.7893C106.525 51.8155 106.489 51.8361 106.437 51.8511C106.388 51.8698 106.323 51.8829 106.24 51.8904C106.158 51.9016 106.053 51.9072 105.926 51.9072C105.799 51.9072 105.694 51.9016 105.612 51.8904C105.529 51.8829 105.462 51.8698 105.409 51.8511C105.361 51.8361 105.327 51.8155 105.308 51.7893C105.29 51.7631 105.28 51.7313 105.28 51.6938V49.0828C105.273 48.9742 105.292 48.8975 105.336 48.8525C105.385 48.8039 105.456 48.7795 105.55 48.7795H105.887C105.977 48.6523 106.061 48.5212 106.139 48.3865C106.222 48.2517 106.3 48.0926 106.375 47.9092C106.45 47.722 106.523 47.5011 106.594 47.2466C106.669 46.9883 106.742 46.6738 106.813 46.3032C106.884 45.9326 106.955 45.4946 107.027 44.9893C107.101 44.4801 107.178 43.8831 107.257 43.198C107.279 43.0295 107.322 42.9079 107.386 42.833C107.45 42.7544 107.547 42.7151 107.678 42.7151H111.39C111.521 42.7151 111.624 42.7544 111.698 42.833C111.773 42.9079 111.811 43.0239 111.811 43.1812V48.7795H112.428C112.53 48.7795 112.601 48.8076 112.642 48.8638C112.683 48.9162 112.704 48.991 112.704 49.0884V51.6938ZM110.34 43.9055H108.644C108.576 44.4745 108.509 44.9762 108.442 45.4104C108.378 45.8409 108.312 46.219 108.245 46.5447C108.181 46.8704 108.116 47.1511 108.049 47.387C107.981 47.6228 107.912 47.8268 107.841 47.999C107.773 48.1712 107.702 48.3191 107.627 48.4426C107.553 48.5662 107.476 48.6785 107.397 48.7795H110.34V43.9055Z" fill="white"/>
<path d="M119.695 49.4309C119.74 49.5657 119.768 49.6724 119.779 49.751C119.79 49.8296 119.775 49.8895 119.734 49.9307C119.693 49.9681 119.62 49.9906 119.515 49.998C119.41 50.0093 119.266 50.0149 119.083 50.0149C118.892 50.0149 118.742 50.0112 118.633 50.0037C118.528 49.9999 118.448 49.9906 118.392 49.9756C118.336 49.9569 118.296 49.9325 118.274 49.9026C118.251 49.8726 118.233 49.8333 118.218 49.7847L117.729 48.3247H115L114.54 49.7454C114.525 49.7978 114.504 49.8427 114.478 49.8801C114.456 49.9138 114.416 49.9419 114.36 49.9644C114.308 49.9831 114.231 49.9962 114.13 50.0037C114.033 50.0112 113.903 50.0149 113.742 50.0149C113.57 50.0149 113.435 50.0093 113.338 49.998C113.241 49.9868 113.173 49.9606 113.136 49.9194C113.099 49.8745 113.085 49.8127 113.097 49.7341C113.108 49.6555 113.136 49.5507 113.181 49.4197L115.421 42.9734C115.444 42.9097 115.47 42.8592 115.5 42.8218C115.53 42.7806 115.577 42.7507 115.64 42.7319C115.708 42.7095 115.799 42.6964 115.916 42.6926C116.032 42.6851 116.185 42.6814 116.376 42.6814C116.597 42.6814 116.773 42.6851 116.904 42.6926C117.035 42.6964 117.136 42.7095 117.207 42.7319C117.282 42.7507 117.334 42.7806 117.364 42.8218C117.398 42.863 117.426 42.9191 117.448 42.9902L119.695 49.4309ZM116.359 44.1021H116.354L115.326 47.1904H117.387L116.359 44.1021Z" fill="white"/>
</g>
<defs>
<clipPath id="clip0_355_31430">
<rect width="129" height="60" fill="white" transform="translate(16)"/>
</clipPath>
</defs>
</svg>
