<svg width="147" height="160" viewBox="0 0 147 160" fill="none" xmlns="http://www.w3.org/2000/svg">
<rect x="5.76172" y="10.1055" width="108.159" height="2.64341" fill="#9F9B9B"/>
<rect x="5.76172" y="15.6348" width="108.159" height="2.64341" fill="#9F9B9B"/>
<rect x="5.76172" y="51.6797" width="108.159" height="2.64341" fill="#9F9B9B"/>
<rect x="5.76172" y="57.207" width="108.159" height="2.64341" fill="#9F9B9B"/>
<rect x="1.91992" y="4.09766" width="5.31313" height="155" fill="#AEAEAE"/>
<rect x="1.91992" y="4.09766" width="5.31313" height="6.24806" fill="#AEAEAE"/>
<g clip-path="url(#clip0_355_31429)">
<path d="M141.585 0H19.4147C17.5288 0 16 1.53017 16 3.41772V56.5823C16 58.4698 17.5288 60 19.4147 60H141.585C143.471 60 145 58.4698 145 56.5823V3.41772C145 1.53017 143.471 0 141.585 0Z" fill="white"/>
<path d="M141.586 0.0761719H19.415C17.571 0.0761719 16.0762 1.57233 16.0762 3.41794V56.5825C16.0762 58.4281 17.571 59.9243 19.415 59.9243H141.586C143.43 59.9243 144.924 58.4281 144.924 56.5825V3.41794C144.924 1.57233 143.43 0.0761719 141.586 0.0761719Z" stroke="black" stroke-width="2"/>
<path fill-rule="evenodd" clip-rule="evenodd" d="M19.4141 1.36719C18.279 1.36719 17.3652 2.28177 17.3652 3.41782V56.5824C17.3652 57.7184 18.279 58.633 19.4141 58.633H141.585C142.72 58.633 143.633 57.7184 143.633 56.5824V3.41782C143.633 2.28177 142.72 1.36719 141.585 1.36719H19.4141ZM134.059 19.1074L129.641 35.7969L125.779 31.8867L117.721 40.0469L113.377 35.6484L121.436 27.4883L117.574 23.5801L134.059 19.1074Z" fill="#0D69E1"/>
<rect x="96.2676" y="8.5957" width="14.248" height="13.7695" rx="2.75" stroke="white" stroke-width="0.5"/>
<path d="M105.854 17.166C105.854 17.3652 105.832 17.5176 105.789 17.623C105.75 17.7246 105.695 17.7754 105.625 17.7754H104.951V19.1465C104.951 19.1855 104.939 19.2207 104.916 19.252C104.893 19.2793 104.852 19.3027 104.793 19.3223C104.734 19.3418 104.658 19.3555 104.564 19.3633C104.471 19.375 104.35 19.3809 104.201 19.3809C104.061 19.3809 103.941 19.375 103.844 19.3633C103.75 19.3555 103.674 19.3418 103.615 19.3223C103.561 19.3027 103.521 19.2793 103.498 19.252C103.479 19.2207 103.469 19.1855 103.469 19.1465V17.7754H100.568C100.514 17.7754 100.465 17.7695 100.422 17.7578C100.379 17.7422 100.342 17.7109 100.311 17.6641C100.283 17.6133 100.262 17.543 100.246 17.4531C100.234 17.3594 100.229 17.2363 100.229 17.084C100.229 16.959 100.23 16.8516 100.234 16.7617C100.242 16.668 100.252 16.584 100.264 16.5098C100.279 16.4355 100.299 16.3652 100.322 16.2988C100.35 16.2324 100.383 16.1621 100.422 16.0879L102.777 11.9336C102.797 11.8984 102.83 11.8691 102.877 11.8457C102.924 11.8184 102.988 11.7969 103.07 11.7812C103.156 11.7617 103.264 11.748 103.393 11.7402C103.521 11.7324 103.678 11.7285 103.861 11.7285C104.061 11.7285 104.23 11.7344 104.371 11.7461C104.512 11.7539 104.623 11.7695 104.705 11.793C104.791 11.8125 104.854 11.8379 104.893 11.8691C104.932 11.9004 104.951 11.9375 104.951 11.9805V16.5449H105.625C105.688 16.5449 105.74 16.5938 105.783 16.6914C105.83 16.7852 105.854 16.9434 105.854 17.166ZM103.469 13.0586H103.457L101.459 16.5449H103.469V13.0586Z" fill="white"/>
<path d="M37.2468 16.7847C37.2468 16.8258 37.2356 16.8614 37.2131 16.8914C37.1907 16.9176 37.1495 16.94 37.0896 16.9587C37.0334 16.9775 36.9548 16.9906 36.8538 16.998C36.7564 17.0093 36.631 17.0149 36.4775 17.0149C36.3203 17.0149 36.1912 17.0093 36.0901 16.998C35.989 16.9906 35.9085 16.9775 35.8486 16.9587C35.7925 16.9363 35.7494 16.9082 35.7195 16.8745C35.6933 16.8371 35.6708 16.7922 35.6521 16.7397L35.1299 15.0945C35.0588 14.8624 34.9801 14.6696 34.894 14.5161C34.8117 14.3589 34.7162 14.2316 34.6077 14.1343C34.5028 14.0369 34.3831 13.9696 34.2483 13.9321C34.1173 13.891 33.9657 13.8704 33.7935 13.8704H33.5071V16.7791C33.5071 16.8202 33.4958 16.8558 33.4734 16.8857C33.4509 16.9119 33.4116 16.9363 33.3555 16.9587C33.3031 16.9775 33.2301 16.9906 33.1365 16.998C33.0429 17.0093 32.925 17.0149 32.7827 17.0149C32.6405 17.0149 32.5225 17.0093 32.429 16.998C32.3354 16.9906 32.2605 16.9775 32.2043 16.9587C32.1519 16.9363 32.1145 16.9119 32.092 16.8857C32.0733 16.8558 32.064 16.8202 32.064 16.7791V13.8704H31.7776C31.5942 13.8704 31.4332 13.8947 31.2947 13.9434C31.1562 13.9883 31.0345 14.0613 30.9297 14.1624C30.8249 14.2597 30.7332 14.3851 30.6545 14.5386C30.5759 14.6921 30.5029 14.8774 30.4355 15.0945L29.9189 16.7397C29.9002 16.7922 29.8759 16.8371 29.8459 16.8745C29.8197 16.9082 29.7767 16.9363 29.7168 16.9587C29.6569 16.9775 29.5764 16.9906 29.4753 16.998C29.378 17.0093 29.2507 17.0149 29.0935 17.0149C28.9363 17.0149 28.809 17.0093 28.7117 16.998C28.6143 16.9906 28.5357 16.9775 28.4758 16.9587C28.4197 16.94 28.3804 16.9176 28.3579 16.8914C28.3354 16.8614 28.3242 16.8258 28.3242 16.7847C28.3242 16.766 28.3242 16.7435 28.3242 16.7173C28.328 16.6911 28.3336 16.6611 28.3411 16.6274C28.3523 16.59 28.3654 16.547 28.3804 16.4983C28.3953 16.4496 28.4159 16.3916 28.4421 16.3242L28.9475 14.8755C29.0411 14.606 29.1347 14.3795 29.2283 14.196C29.3219 14.0089 29.4211 13.8535 29.5259 13.73C29.6307 13.6027 29.7449 13.4998 29.8684 13.4211C29.9919 13.3388 30.1305 13.2677 30.2839 13.2078V13.2021C30.1529 13.161 30.0312 13.1048 29.9189 13.0337C29.8104 12.9626 29.7074 12.869 29.6101 12.7529C29.5165 12.6331 29.4248 12.4853 29.335 12.3093C29.2489 12.1334 29.1628 11.92 29.0767 11.6692L28.6443 10.3665C28.6031 10.2467 28.575 10.1531 28.5601 10.0857C28.5451 10.0146 28.5376 9.95467 28.5376 9.90601C28.5376 9.86483 28.547 9.83114 28.5657 9.80493C28.5881 9.77498 28.6256 9.75252 28.678 9.73755C28.7341 9.71883 28.809 9.70573 28.9026 9.69824C28.9999 9.68701 29.1235 9.6814 29.2732 9.6814C29.4304 9.6814 29.5577 9.68701 29.655 9.69824C29.7524 9.70573 29.8291 9.7207 29.8853 9.74316C29.9414 9.76188 29.9807 9.78996 30.0032 9.82739C30.0294 9.86108 30.05 9.90413 30.0649 9.95654L30.5254 11.4951C30.589 11.7085 30.6564 11.8882 30.7275 12.0342C30.8024 12.1802 30.8885 12.2981 30.9858 12.3879C31.0832 12.4778 31.1955 12.5433 31.3228 12.5845C31.45 12.6219 31.6016 12.6406 31.7776 12.6406H32.064V9.91162C32.064 9.87044 32.0733 9.83675 32.092 9.81055C32.1145 9.7806 32.1519 9.75627 32.2043 9.73755C32.2605 9.71883 32.3354 9.70573 32.429 9.69824C32.5225 9.68701 32.6405 9.6814 32.7827 9.6814C32.925 9.6814 33.0429 9.68701 33.1365 9.69824C33.2301 9.70573 33.3031 9.71883 33.3555 9.73755C33.4116 9.75627 33.4509 9.7806 33.4734 9.81055C33.4958 9.83675 33.5071 9.87044 33.5071 9.91162V12.6406H33.7935C33.9619 12.6406 34.1098 12.62 34.2371 12.5789C34.3681 12.5339 34.4823 12.4647 34.5796 12.3711C34.6807 12.2775 34.7686 12.1596 34.8435 12.0173C34.9184 11.8713 34.9858 11.6954 35.0457 11.4895L35.5061 9.95654C35.5211 9.90413 35.5398 9.86108 35.5623 9.82739C35.5885 9.78996 35.6296 9.76188 35.6858 9.74316C35.7419 9.7207 35.8187 9.70573 35.916 9.69824C36.0133 9.68701 36.1406 9.6814 36.2979 9.6814C36.4476 9.6814 36.5693 9.68701 36.6628 9.69824C36.7564 9.70573 36.8313 9.71883 36.8875 9.73755C36.9436 9.75252 36.981 9.77498 36.9998 9.80493C37.0222 9.83114 37.0334 9.86483 37.0334 9.90601C37.0334 9.95467 37.0241 10.0146 37.0054 10.0857C36.9904 10.1568 36.9642 10.2504 36.9268 10.3665L36.4944 11.6467C36.412 11.8863 36.3278 12.0922 36.2417 12.2644C36.1593 12.4329 36.0695 12.5751 35.9722 12.6912C35.8786 12.8072 35.7756 12.9045 35.6633 12.9832C35.551 13.058 35.4256 13.1217 35.2871 13.1741V13.1797C35.4443 13.2471 35.5847 13.3238 35.7083 13.4099C35.8318 13.4923 35.946 13.5971 36.0508 13.7244C36.1556 13.8516 36.2529 14.0089 36.3428 14.196C36.4326 14.3795 36.5262 14.606 36.6235 14.8755L37.1233 16.3242C37.1495 16.3916 37.1701 16.4496 37.1851 16.4983C37.2 16.547 37.2113 16.59 37.2188 16.6274C37.23 16.6611 37.2375 16.6911 37.2412 16.7173C37.245 16.7435 37.2468 16.766 37.2468 16.7847Z" fill="white"/>
<path d="M42.6768 16.4028C42.6768 16.5114 42.6711 16.6031 42.6599 16.678C42.6524 16.7491 42.6393 16.8071 42.6206 16.8521C42.6019 16.897 42.5776 16.9307 42.5476 16.9531C42.5214 16.9718 42.4915 16.9812 42.4578 16.9812H38.8079C38.6843 16.9812 38.5795 16.9456 38.4934 16.8745C38.4111 16.7996 38.3699 16.6799 38.3699 16.5151V10.1812C38.3699 10.0164 38.4111 9.89852 38.4934 9.82739C38.5795 9.75252 38.6843 9.71509 38.8079 9.71509H42.4353C42.469 9.71509 42.4989 9.72445 42.5251 9.74316C42.5514 9.76188 42.5738 9.79557 42.5925 9.84424C42.6112 9.88916 42.6243 9.94906 42.6318 10.0239C42.6431 10.0951 42.6487 10.1868 42.6487 10.2991C42.6487 10.4039 42.6431 10.4937 42.6318 10.5686C42.6243 10.6397 42.6112 10.6978 42.5925 10.7427C42.5738 10.7876 42.5514 10.8213 42.5251 10.8438C42.4989 10.8625 42.469 10.8718 42.4353 10.8718H39.8411V12.6462H42.0366C42.0703 12.6462 42.1003 12.6575 42.1265 12.6799C42.1564 12.6986 42.1807 12.7305 42.1995 12.7754C42.2182 12.8166 42.2313 12.8746 42.2388 12.9495C42.25 13.0206 42.2556 13.1086 42.2556 13.2134C42.2556 13.3219 42.25 13.4118 42.2388 13.4829C42.2313 13.554 42.2182 13.6121 42.1995 13.657C42.1807 13.6982 42.1564 13.7281 42.1265 13.7468C42.1003 13.7655 42.0703 13.7749 42.0366 13.7749H39.8411V15.8245H42.4578C42.4915 15.8245 42.5214 15.8357 42.5476 15.8582C42.5776 15.8769 42.6019 15.9087 42.6206 15.9536C42.6393 15.9985 42.6524 16.0584 42.6599 16.1333C42.6711 16.2044 42.6768 16.2943 42.6768 16.4028Z" fill="white"/>
<path d="M48.3425 14.8755C48.3425 15.2424 48.2733 15.5662 48.1348 15.8469C47.9963 16.1239 47.7979 16.3579 47.5396 16.5488C47.285 16.736 46.978 16.8764 46.6187 16.97C46.263 17.0636 45.8681 17.1104 45.4338 17.1104C45.1943 17.1104 44.9734 17.0935 44.7712 17.0598C44.5728 17.0261 44.3988 16.9849 44.249 16.9363C44.103 16.8839 43.9851 16.8333 43.8953 16.7847C43.8054 16.736 43.7418 16.6967 43.7043 16.6667C43.6669 16.6331 43.6388 16.5994 43.6201 16.5657C43.6014 16.532 43.5864 16.4852 43.5752 16.4253C43.564 16.3617 43.5546 16.283 43.5471 16.1895C43.5434 16.0959 43.5415 15.9798 43.5415 15.8413C43.5415 15.6841 43.5546 15.5793 43.5808 15.5269C43.6108 15.4707 43.6538 15.4426 43.71 15.4426C43.7549 15.4426 43.8185 15.467 43.9009 15.5156C43.9832 15.5605 44.0881 15.613 44.2153 15.6729C44.3426 15.7327 44.4961 15.787 44.6758 15.8357C44.8555 15.8844 45.067 15.9087 45.3103 15.9087C45.5125 15.9087 45.6959 15.8844 45.8606 15.8357C46.0253 15.787 46.1638 15.7178 46.2761 15.6279C46.3922 15.5381 46.482 15.4314 46.5457 15.3079C46.6093 15.1806 46.6411 15.0402 46.6411 14.8867C46.6411 14.7183 46.6112 14.5667 46.5513 14.4319C46.4951 14.2971 46.4053 14.1829 46.2817 14.0894C46.1582 13.9958 46.001 13.9246 45.8101 13.876C45.6229 13.8236 45.3964 13.7974 45.1306 13.7974H44.3613C44.3052 13.7974 44.2603 13.7899 44.2266 13.7749C44.1929 13.7599 44.1648 13.7319 44.1423 13.6907C44.1236 13.6495 44.1105 13.5933 44.103 13.5222C44.0993 13.4473 44.0974 13.35 44.0974 13.2302C44.0974 13.1217 44.1012 13.0337 44.1086 12.9663C44.1161 12.8952 44.1292 12.839 44.1479 12.7979C44.1704 12.7567 44.1966 12.7286 44.2266 12.7136C44.2603 12.6949 44.2996 12.6855 44.3445 12.6855H45.125C45.3534 12.6855 45.5555 12.6631 45.7314 12.6182C45.9074 12.5732 46.0534 12.5077 46.1694 12.4216C46.2892 12.3318 46.3791 12.2251 46.439 12.1016C46.5026 11.9743 46.5344 11.8302 46.5344 11.6692C46.5344 11.5344 46.512 11.4109 46.467 11.2986C46.4259 11.1863 46.3604 11.0927 46.2705 11.0178C46.1807 10.9392 46.0665 10.8793 45.928 10.8381C45.7895 10.7932 45.6248 10.7708 45.4338 10.7708C45.2092 10.7708 45.0071 10.7951 44.8274 10.8438C44.6477 10.8924 44.4905 10.9448 44.3557 11.001C44.2247 11.0571 44.1124 11.1114 44.0188 11.1638C43.929 11.2125 43.8616 11.2368 43.8167 11.2368C43.7904 11.2368 43.768 11.2293 43.7493 11.2144C43.7305 11.1994 43.7137 11.1732 43.6987 11.1357C43.6838 11.0946 43.6725 11.0403 43.665 10.9729C43.6613 10.9055 43.6594 10.8175 43.6594 10.709C43.6594 10.6341 43.6613 10.5649 43.665 10.5012C43.6688 10.4376 43.6763 10.3796 43.6875 10.3271C43.6987 10.2747 43.7137 10.2298 43.7324 10.1924C43.7511 10.1512 43.7792 10.1119 43.8167 10.0745C43.8578 10.037 43.9383 9.98836 44.0581 9.92847C44.1816 9.86857 44.3314 9.81429 44.5073 9.76562C44.6833 9.71322 44.8817 9.67017 45.1025 9.63647C45.3234 9.60278 45.5574 9.58594 45.8044 9.58594C46.1938 9.58594 46.5326 9.62712 46.8208 9.70947C47.1128 9.79183 47.3561 9.91162 47.5508 10.0688C47.7454 10.2223 47.8914 10.4132 47.9888 10.6416C48.0861 10.8662 48.1348 11.1245 48.1348 11.4165C48.1348 11.6486 48.1029 11.8601 48.0393 12.051C47.9757 12.2419 47.884 12.4104 47.7642 12.5564C47.6481 12.7024 47.5077 12.8259 47.343 12.927C47.182 13.0243 47.0024 13.0955 46.804 13.1404V13.1516C47.0323 13.1778 47.2401 13.2415 47.4272 13.3425C47.6182 13.4399 47.781 13.5653 47.9158 13.7188C48.0505 13.8722 48.1554 14.0482 48.2302 14.2466C48.3051 14.4412 48.3425 14.6509 48.3425 14.8755Z" fill="white"/>
<path d="M55.3212 9.8412L52.7212 13.2712L54.5012 15.6812H56.1012V19.0612H54.6412V16.9812H53.7412L51.1512 13.3612V16.9812H49.6412V9.8412H51.1512V13.3012L53.7112 9.8412H55.3212Z" fill="white"/>
<path d="M63.0437 16.4309C63.0886 16.5657 63.1167 16.6724 63.1279 16.751C63.1392 16.8296 63.1242 16.8895 63.083 16.9307C63.0418 16.9681 62.9688 16.9906 62.864 16.998C62.7592 17.0093 62.6151 17.0149 62.4316 17.0149C62.2407 17.0149 62.091 17.0111 61.9824 17.0037C61.8776 16.9999 61.7971 16.9906 61.741 16.9756C61.6848 16.9569 61.6455 16.9325 61.623 16.9026C61.6006 16.8726 61.5819 16.8333 61.5669 16.7847L61.0784 15.3247H58.3494L57.8889 16.7454C57.8739 16.7978 57.8534 16.8427 57.8271 16.8801C57.8047 16.9138 57.7654 16.9419 57.7092 16.9644C57.6568 16.9831 57.5801 16.9962 57.479 17.0037C57.3817 17.0111 57.2525 17.0149 57.0916 17.0149C56.9194 17.0149 56.7846 17.0093 56.6873 16.998C56.5899 16.9868 56.5225 16.9606 56.4851 16.9194C56.4477 16.8745 56.4346 16.8127 56.4458 16.7341C56.457 16.6555 56.4851 16.5507 56.53 16.4197L58.7705 9.97339C58.793 9.90975 58.8192 9.85921 58.8491 9.82178C58.8791 9.7806 58.9259 9.75065 58.9895 9.73193C59.0569 9.70947 59.1486 9.69637 59.2646 9.69263C59.3807 9.68514 59.5342 9.6814 59.7251 9.6814C59.946 9.6814 60.1219 9.68514 60.2529 9.69263C60.384 9.69637 60.485 9.70947 60.5562 9.73193C60.631 9.75065 60.6834 9.7806 60.7134 9.82178C60.7471 9.86296 60.7751 9.91911 60.7976 9.99023L63.0437 16.4309ZM59.7083 11.1021H59.7026L58.675 14.1904H60.7358L59.7083 11.1021Z" fill="white"/>
<path d="M68.4231 14.8755C68.4231 15.2424 68.3538 15.5662 68.2153 15.8469C68.0768 16.1239 67.8784 16.3579 67.6201 16.5488C67.3656 16.736 67.0586 16.8764 66.6992 16.97C66.3436 17.0636 65.9487 17.1104 65.5144 17.1104C65.2748 17.1104 65.054 17.0935 64.8518 17.0598C64.6534 17.0261 64.4793 16.9849 64.3296 16.9363C64.1836 16.8839 64.0657 16.8333 63.9758 16.7847C63.886 16.736 63.8223 16.6967 63.7849 16.6667C63.7475 16.6331 63.7194 16.5994 63.7007 16.5657C63.682 16.532 63.667 16.4852 63.6558 16.4253C63.6445 16.3617 63.6352 16.283 63.6277 16.1895C63.6239 16.0959 63.6221 15.9798 63.6221 15.8413C63.6221 15.6841 63.6352 15.5793 63.6614 15.5269C63.6913 15.4707 63.7344 15.4426 63.7905 15.4426C63.8354 15.4426 63.8991 15.467 63.9814 15.5156C64.0638 15.5605 64.1686 15.613 64.2959 15.6729C64.4232 15.7327 64.5767 15.787 64.7563 15.8357C64.936 15.8844 65.1475 15.9087 65.3909 15.9087C65.593 15.9087 65.7764 15.8844 65.9412 15.8357C66.1059 15.787 66.2444 15.7178 66.3567 15.6279C66.4727 15.5381 66.5626 15.4314 66.6262 15.3079C66.6899 15.1806 66.7217 15.0402 66.7217 14.8867C66.7217 14.7183 66.6917 14.5667 66.6318 14.4319C66.5757 14.2971 66.4858 14.1829 66.3623 14.0894C66.2388 13.9958 66.0815 13.9246 65.8906 13.876C65.7034 13.8236 65.477 13.7974 65.2112 13.7974H64.4419C64.3857 13.7974 64.3408 13.7899 64.3071 13.7749C64.2734 13.7599 64.2454 13.7319 64.2229 13.6907C64.2042 13.6495 64.1911 13.5933 64.1836 13.5222C64.1799 13.4473 64.178 13.35 64.178 13.2302C64.178 13.1217 64.1817 13.0337 64.1892 12.9663C64.1967 12.8952 64.2098 12.839 64.2285 12.7979C64.251 12.7567 64.2772 12.7286 64.3071 12.7136C64.3408 12.6949 64.3801 12.6855 64.425 12.6855H65.2056C65.4339 12.6855 65.6361 12.6631 65.812 12.6182C65.988 12.5732 66.134 12.5077 66.25 12.4216C66.3698 12.3318 66.4596 12.2251 66.5195 12.1016C66.5832 11.9743 66.615 11.8302 66.615 11.6692C66.615 11.5344 66.5925 11.4109 66.5476 11.2986C66.5064 11.1863 66.4409 11.0927 66.3511 11.0178C66.2612 10.9392 66.1471 10.8793 66.0085 10.8381C65.87 10.7932 65.7053 10.7708 65.5144 10.7708C65.2898 10.7708 65.0876 10.7951 64.908 10.8438C64.7283 10.8924 64.571 10.9448 64.4363 11.001C64.3053 11.0571 64.193 11.1114 64.0994 11.1638C64.0095 11.2125 63.9421 11.2368 63.8972 11.2368C63.871 11.2368 63.8486 11.2293 63.8298 11.2144C63.8111 11.1994 63.7943 11.1732 63.7793 11.1357C63.7643 11.0946 63.7531 11.0403 63.7456 10.9729C63.7419 10.9055 63.74 10.8175 63.74 10.709C63.74 10.6341 63.7419 10.5649 63.7456 10.5012C63.7493 10.4376 63.7568 10.3796 63.7681 10.3271C63.7793 10.2747 63.7943 10.2298 63.813 10.1924C63.8317 10.1512 63.8598 10.1119 63.8972 10.0745C63.9384 10.037 64.0189 9.98836 64.1387 9.92847C64.2622 9.86857 64.4119 9.81429 64.5879 9.76562C64.7638 9.71322 64.9622 9.67017 65.1831 9.63647C65.404 9.60278 65.6379 9.58594 65.885 9.58594C66.2743 9.58594 66.6131 9.62712 66.9014 9.70947C67.1934 9.79183 67.4367 9.91162 67.6313 10.0688C67.826 10.2223 67.972 10.4132 68.0693 10.6416C68.1667 10.8662 68.2153 11.1245 68.2153 11.4165C68.2153 11.6486 68.1835 11.8601 68.1199 12.051C68.0562 12.2419 67.9645 12.4104 67.8447 12.5564C67.7287 12.7024 67.5883 12.8259 67.4236 12.927C67.2626 13.0243 67.0829 13.0955 66.8845 13.1404V13.1516C67.1129 13.1778 67.3206 13.2415 67.5078 13.3425C67.6987 13.4399 67.8616 13.5653 67.9963 13.7188C68.1311 13.8722 68.2359 14.0482 68.3108 14.2466C68.3857 14.4412 68.4231 14.6509 68.4231 14.8755Z" fill="white"/>
<path d="M74.2118 9.8412V11.0812H71.2318V12.8312H73.1918V14.0712H71.2318V16.9812H69.7218V14.0712H69.0518V12.8312H69.7218V9.8412H74.2118Z" fill="white"/>
<path d="M81.1516 16.4309C81.1965 16.5657 81.2246 16.6724 81.2358 16.751C81.2471 16.8296 81.2321 16.8895 81.1909 16.9307C81.1497 16.9681 81.0767 16.9906 80.9719 16.998C80.8671 17.0093 80.723 17.0149 80.5396 17.0149C80.3486 17.0149 80.1989 17.0111 80.0903 17.0037C79.9855 16.9999 79.905 16.9906 79.8489 16.9756C79.7927 16.9569 79.7534 16.9325 79.731 16.9026C79.7085 16.8726 79.6898 16.8333 79.6748 16.7847L79.1863 15.3247H76.4573L75.9968 16.7454C75.9819 16.7978 75.9613 16.8427 75.9351 16.8801C75.9126 16.9138 75.8733 16.9419 75.8171 16.9644C75.7647 16.9831 75.688 16.9962 75.5869 17.0037C75.4896 17.0111 75.3604 17.0149 75.1995 17.0149C75.0273 17.0149 74.8925 17.0093 74.7952 16.998C74.6978 16.9868 74.6305 16.9606 74.593 16.9194C74.5556 16.8745 74.5425 16.8127 74.5537 16.7341C74.5649 16.6555 74.593 16.5507 74.6379 16.4197L76.8784 9.97339C76.9009 9.90975 76.9271 9.85921 76.957 9.82178C76.987 9.7806 77.0338 9.75065 77.0974 9.73193C77.1648 9.70947 77.2565 9.69637 77.3726 9.69263C77.4886 9.68514 77.6421 9.6814 77.833 9.6814C78.0539 9.6814 78.2298 9.68514 78.3608 9.69263C78.4919 9.69637 78.5929 9.70947 78.6641 9.73193C78.7389 9.75065 78.7913 9.7806 78.8213 9.82178C78.855 9.86296 78.8831 9.91911 78.9055 9.99023L81.1516 16.4309ZM77.8162 11.1021H77.8105L76.783 14.1904H78.8438L77.8162 11.1021Z" fill="white"/>
<path d="M87.845 16.7791C87.845 16.8165 87.8319 16.8502 87.8057 16.8801C87.7832 16.9101 87.7439 16.9344 87.6877 16.9531C87.6316 16.9718 87.5567 16.9868 87.4631 16.998C87.3695 17.0093 87.2516 17.0149 87.1094 17.0149C86.9634 17.0149 86.8417 17.0093 86.7444 16.998C86.6508 16.9868 86.5759 16.9718 86.5198 16.9531C86.4674 16.9344 86.4281 16.9101 86.4019 16.8801C86.3794 16.8502 86.3682 16.8165 86.3682 16.7791V13.8423H83.6504V16.7791C83.6504 16.8165 83.6392 16.8502 83.6167 16.8801C83.5942 16.9101 83.5549 16.9344 83.4988 16.9531C83.4426 16.9718 83.3678 16.9868 83.2742 16.998C83.1806 17.0093 83.0608 17.0149 82.9148 17.0149C82.7725 17.0149 82.6528 17.0093 82.5554 16.998C82.4618 16.9868 82.387 16.9718 82.3308 16.9531C82.2747 16.9344 82.2335 16.9101 82.2073 16.8801C82.1848 16.8502 82.1736 16.8165 82.1736 16.7791V9.91724C82.1736 9.8798 82.1848 9.84611 82.2073 9.81616C82.2335 9.78621 82.2747 9.76188 82.3308 9.74316C82.387 9.72445 82.4618 9.70947 82.5554 9.69824C82.6528 9.68701 82.7725 9.6814 82.9148 9.6814C83.0608 9.6814 83.1806 9.68701 83.2742 9.69824C83.3678 9.70947 83.4426 9.72445 83.4988 9.74316C83.5549 9.76188 83.5942 9.78621 83.6167 9.81616C83.6392 9.84611 83.6504 9.8798 83.6504 9.91724V12.5845H86.3682V9.91724C86.3682 9.8798 86.3794 9.84611 86.4019 9.81616C86.4281 9.78621 86.4674 9.76188 86.5198 9.74316C86.5759 9.72445 86.6508 9.70947 86.7444 9.69824C86.8417 9.68701 86.9634 9.6814 87.1094 9.6814C87.2516 9.6814 87.3695 9.68701 87.4631 9.69824C87.5567 9.70947 87.6316 9.72445 87.6877 9.74316C87.7439 9.76188 87.7832 9.78621 87.8057 9.81616C87.8319 9.84611 87.845 9.8798 87.845 9.91724V16.7791Z" fill="white"/>
<path d="M37.2468 27.7847C37.2468 27.8258 37.2356 27.8614 37.2131 27.8914C37.1907 27.9176 37.1495 27.94 37.0896 27.9587C37.0334 27.9775 36.9548 27.9906 36.8538 27.998C36.7564 28.0093 36.631 28.0149 36.4775 28.0149C36.3203 28.0149 36.1912 28.0093 36.0901 27.998C35.989 27.9906 35.9085 27.9775 35.8486 27.9587C35.7925 27.9363 35.7494 27.9082 35.7195 27.8745C35.6933 27.8371 35.6708 27.7922 35.6521 27.7397L35.1299 26.0945C35.0588 25.8624 34.9801 25.6696 34.894 25.5161C34.8117 25.3589 34.7162 25.2316 34.6077 25.1343C34.5028 25.0369 34.3831 24.9696 34.2483 24.9321C34.1173 24.891 33.9657 24.8704 33.7935 24.8704H33.5071V27.7791C33.5071 27.8202 33.4958 27.8558 33.4734 27.8857C33.4509 27.9119 33.4116 27.9363 33.3555 27.9587C33.3031 27.9775 33.2301 27.9906 33.1365 27.998C33.0429 28.0093 32.925 28.0149 32.7827 28.0149C32.6405 28.0149 32.5225 28.0093 32.429 27.998C32.3354 27.9906 32.2605 27.9775 32.2043 27.9587C32.1519 27.9363 32.1145 27.9119 32.092 27.8857C32.0733 27.8558 32.064 27.8202 32.064 27.7791V24.8704H31.7776C31.5942 24.8704 31.4332 24.8947 31.2947 24.9434C31.1562 24.9883 31.0345 25.0613 30.9297 25.1624C30.8249 25.2597 30.7332 25.3851 30.6545 25.5386C30.5759 25.6921 30.5029 25.8774 30.4355 26.0945L29.9189 27.7397C29.9002 27.7922 29.8759 27.8371 29.8459 27.8745C29.8197 27.9082 29.7767 27.9363 29.7168 27.9587C29.6569 27.9775 29.5764 27.9906 29.4753 27.998C29.378 28.0093 29.2507 28.0149 29.0935 28.0149C28.9363 28.0149 28.809 28.0093 28.7117 27.998C28.6143 27.9906 28.5357 27.9775 28.4758 27.9587C28.4197 27.94 28.3804 27.9176 28.3579 27.8914C28.3354 27.8614 28.3242 27.8258 28.3242 27.7847C28.3242 27.766 28.3242 27.7435 28.3242 27.7173C28.328 27.6911 28.3336 27.6611 28.3411 27.6274C28.3523 27.59 28.3654 27.547 28.3804 27.4983C28.3953 27.4496 28.4159 27.3916 28.4421 27.3242L28.9475 25.8755C29.0411 25.606 29.1347 25.3795 29.2283 25.196C29.3219 25.0089 29.4211 24.8535 29.5259 24.73C29.6307 24.6027 29.7449 24.4998 29.8684 24.4211C29.9919 24.3388 30.1305 24.2677 30.2839 24.2078V24.2021C30.1529 24.161 30.0312 24.1048 29.9189 24.0337C29.8104 23.9626 29.7074 23.869 29.6101 23.7529C29.5165 23.6331 29.4248 23.4853 29.335 23.3093C29.2489 23.1334 29.1628 22.92 29.0767 22.6692L28.6443 21.3665C28.6031 21.2467 28.575 21.1531 28.5601 21.0857C28.5451 21.0146 28.5376 20.9547 28.5376 20.906C28.5376 20.8648 28.547 20.8311 28.5657 20.8049C28.5881 20.775 28.6256 20.7525 28.678 20.7375C28.7341 20.7188 28.809 20.7057 28.9026 20.6982C28.9999 20.687 29.1235 20.6814 29.2732 20.6814C29.4304 20.6814 29.5577 20.687 29.655 20.6982C29.7524 20.7057 29.8291 20.7207 29.8853 20.7432C29.9414 20.7619 29.9807 20.79 30.0032 20.8274C30.0294 20.8611 30.05 20.9041 30.0649 20.9565L30.5254 22.4951C30.589 22.7085 30.6564 22.8882 30.7275 23.0342C30.8024 23.1802 30.8885 23.2981 30.9858 23.3879C31.0832 23.4778 31.1955 23.5433 31.3228 23.5845C31.45 23.6219 31.6016 23.6406 31.7776 23.6406H32.064V20.9116C32.064 20.8704 32.0733 20.8368 32.092 20.8105C32.1145 20.7806 32.1519 20.7563 32.2043 20.7375C32.2605 20.7188 32.3354 20.7057 32.429 20.6982C32.5225 20.687 32.6405 20.6814 32.7827 20.6814C32.925 20.6814 33.0429 20.687 33.1365 20.6982C33.2301 20.7057 33.3031 20.7188 33.3555 20.7375C33.4116 20.7563 33.4509 20.7806 33.4734 20.8105C33.4958 20.8368 33.5071 20.8704 33.5071 20.9116V23.6406H33.7935C33.9619 23.6406 34.1098 23.62 34.2371 23.5789C34.3681 23.5339 34.4823 23.4647 34.5796 23.3711C34.6807 23.2775 34.7686 23.1596 34.8435 23.0173C34.9184 22.8713 34.9858 22.6954 35.0457 22.4895L35.5061 20.9565C35.5211 20.9041 35.5398 20.8611 35.5623 20.8274C35.5885 20.79 35.6296 20.7619 35.6858 20.7432C35.7419 20.7207 35.8187 20.7057 35.916 20.6982C36.0133 20.687 36.1406 20.6814 36.2979 20.6814C36.4476 20.6814 36.5693 20.687 36.6628 20.6982C36.7564 20.7057 36.8313 20.7188 36.8875 20.7375C36.9436 20.7525 36.981 20.775 36.9998 20.8049C37.0222 20.8311 37.0334 20.8648 37.0334 20.906C37.0334 20.9547 37.0241 21.0146 37.0054 21.0857C36.9904 21.1568 36.9642 21.2504 36.9268 21.3665L36.4944 22.6467C36.412 22.8863 36.3278 23.0922 36.2417 23.2644C36.1593 23.4329 36.0695 23.5751 35.9722 23.6912C35.8786 23.8072 35.7756 23.9045 35.6633 23.9832C35.551 24.058 35.4256 24.1217 35.2871 24.1741V24.1797C35.4443 24.2471 35.5847 24.3238 35.7083 24.4099C35.8318 24.4923 35.946 24.5971 36.0508 24.7244C36.1556 24.8516 36.2529 25.0089 36.3428 25.196C36.4326 25.3795 36.5262 25.606 36.6235 25.8755L37.1233 27.3242C37.1495 27.3916 37.1701 27.4496 37.1851 27.4983C37.2 27.547 37.2113 27.59 37.2188 27.6274C37.23 27.6611 37.2375 27.6911 37.2412 27.7173C37.245 27.7435 37.2468 27.766 37.2468 27.7847Z" fill="white"/>
<path d="M42.6768 27.4028C42.6768 27.5114 42.6711 27.6031 42.6599 27.678C42.6524 27.7491 42.6393 27.8071 42.6206 27.8521C42.6019 27.897 42.5776 27.9307 42.5476 27.9531C42.5214 27.9718 42.4915 27.9812 42.4578 27.9812H38.8079C38.6843 27.9812 38.5795 27.9456 38.4934 27.8745C38.4111 27.7996 38.3699 27.6798 38.3699 27.5151V21.1812C38.3699 21.0164 38.4111 20.8985 38.4934 20.8274C38.5795 20.7525 38.6843 20.7151 38.8079 20.7151H42.4353C42.469 20.7151 42.4989 20.7244 42.5251 20.7432C42.5514 20.7619 42.5738 20.7956 42.5925 20.8442C42.6112 20.8892 42.6243 20.9491 42.6318 21.0239C42.6431 21.0951 42.6487 21.1868 42.6487 21.2991C42.6487 21.4039 42.6431 21.4937 42.6318 21.5686C42.6243 21.6397 42.6112 21.6978 42.5925 21.7427C42.5738 21.7876 42.5514 21.8213 42.5251 21.8438C42.4989 21.8625 42.469 21.8718 42.4353 21.8718H39.8411V23.6462H42.0366C42.0703 23.6462 42.1003 23.6575 42.1265 23.6799C42.1564 23.6986 42.1807 23.7305 42.1995 23.7754C42.2182 23.8166 42.2313 23.8746 42.2388 23.9495C42.25 24.0206 42.2556 24.1086 42.2556 24.2134C42.2556 24.3219 42.25 24.4118 42.2388 24.4829C42.2313 24.554 42.2182 24.6121 42.1995 24.657C42.1807 24.6982 42.1564 24.7281 42.1265 24.7468C42.1003 24.7655 42.0703 24.7749 42.0366 24.7749H39.8411V26.8245H42.4578C42.4915 26.8245 42.5214 26.8357 42.5476 26.8582C42.5776 26.8769 42.6019 26.9087 42.6206 26.9536C42.6393 26.9985 42.6524 27.0584 42.6599 27.1333C42.6711 27.2044 42.6768 27.2943 42.6768 27.4028Z" fill="white"/>
<path d="M48.3425 25.8755C48.3425 26.2423 48.2733 26.5662 48.1348 26.8469C47.9963 27.1239 47.7979 27.3579 47.5396 27.5488C47.285 27.736 46.978 27.8764 46.6187 27.97C46.263 28.0636 45.8681 28.1104 45.4338 28.1104C45.1943 28.1104 44.9734 28.0935 44.7712 28.0598C44.5728 28.0261 44.3988 27.9849 44.249 27.9363C44.103 27.8839 43.9851 27.8333 43.8953 27.7847C43.8054 27.736 43.7418 27.6967 43.7043 27.6667C43.6669 27.6331 43.6388 27.5994 43.6201 27.5657C43.6014 27.532 43.5864 27.4852 43.5752 27.4253C43.564 27.3617 43.5546 27.283 43.5471 27.1895C43.5434 27.0959 43.5415 26.9798 43.5415 26.8413C43.5415 26.6841 43.5546 26.5793 43.5808 26.5269C43.6108 26.4707 43.6538 26.4426 43.71 26.4426C43.7549 26.4426 43.8185 26.467 43.9009 26.5156C43.9832 26.5605 44.0881 26.613 44.2153 26.6729C44.3426 26.7327 44.4961 26.787 44.6758 26.8357C44.8555 26.8844 45.067 26.9087 45.3103 26.9087C45.5125 26.9087 45.6959 26.8844 45.8606 26.8357C46.0253 26.787 46.1638 26.7178 46.2761 26.6279C46.3922 26.5381 46.482 26.4314 46.5457 26.3079C46.6093 26.1806 46.6411 26.0402 46.6411 25.8867C46.6411 25.7183 46.6112 25.5667 46.5513 25.4319C46.4951 25.2971 46.4053 25.1829 46.2817 25.0894C46.1582 24.9958 46.001 24.9246 45.8101 24.876C45.6229 24.8236 45.3964 24.7974 45.1306 24.7974H44.3613C44.3052 24.7974 44.2603 24.7899 44.2266 24.7749C44.1929 24.7599 44.1648 24.7319 44.1423 24.6907C44.1236 24.6495 44.1105 24.5933 44.103 24.5222C44.0993 24.4473 44.0974 24.35 44.0974 24.2302C44.0974 24.1217 44.1012 24.0337 44.1086 23.9663C44.1161 23.8952 44.1292 23.839 44.1479 23.7979C44.1704 23.7567 44.1966 23.7286 44.2266 23.7136C44.2603 23.6949 44.2996 23.6855 44.3445 23.6855H45.125C45.3534 23.6855 45.5555 23.6631 45.7314 23.6182C45.9074 23.5732 46.0534 23.5077 46.1694 23.4216C46.2892 23.3318 46.3791 23.2251 46.439 23.1016C46.5026 22.9743 46.5344 22.8302 46.5344 22.6692C46.5344 22.5344 46.512 22.4109 46.467 22.2986C46.4259 22.1863 46.3604 22.0927 46.2705 22.0178C46.1807 21.9392 46.0665 21.8793 45.928 21.8381C45.7895 21.7932 45.6248 21.7708 45.4338 21.7708C45.2092 21.7708 45.0071 21.7951 44.8274 21.8438C44.6477 21.8924 44.4905 21.9448 44.3557 22.001C44.2247 22.0571 44.1124 22.1114 44.0188 22.1638C43.929 22.2125 43.8616 22.2368 43.8167 22.2368C43.7904 22.2368 43.768 22.2293 43.7493 22.2144C43.7305 22.1994 43.7137 22.1732 43.6987 22.1357C43.6838 22.0946 43.6725 22.0403 43.665 21.9729C43.6613 21.9055 43.6594 21.8175 43.6594 21.709C43.6594 21.6341 43.6613 21.5649 43.665 21.5012C43.6688 21.4376 43.6763 21.3796 43.6875 21.3271C43.6987 21.2747 43.7137 21.2298 43.7324 21.1924C43.7511 21.1512 43.7792 21.1119 43.8167 21.0745C43.8578 21.037 43.9383 20.9884 44.0581 20.9285C44.1816 20.8686 44.3314 20.8143 44.5073 20.7656C44.6833 20.7132 44.8817 20.6702 45.1025 20.6365C45.3234 20.6028 45.5574 20.5859 45.8044 20.5859C46.1938 20.5859 46.5326 20.6271 46.8208 20.7095C47.1128 20.7918 47.3561 20.9116 47.5508 21.0688C47.7454 21.2223 47.8914 21.4132 47.9888 21.6416C48.0861 21.8662 48.1348 22.1245 48.1348 22.4165C48.1348 22.6486 48.1029 22.8601 48.0393 23.051C47.9757 23.2419 47.884 23.4104 47.7642 23.5564C47.6481 23.7024 47.5077 23.8259 47.343 23.927C47.182 24.0243 47.0024 24.0955 46.804 24.1404V24.1516C47.0323 24.1778 47.2401 24.2415 47.4272 24.3425C47.6182 24.4399 47.781 24.5653 47.9158 24.7188C48.0505 24.8722 48.1554 25.0482 48.2302 25.2466C48.3051 25.4412 48.3425 25.6509 48.3425 25.8755Z" fill="white"/>
<path d="M54.9124 27.7847C54.9124 27.8258 54.9011 27.8614 54.8787 27.8914C54.8562 27.9176 54.815 27.94 54.7551 27.9587C54.699 27.9775 54.6222 27.9906 54.5249 27.998C54.4276 28.0093 54.3022 28.0149 54.1487 28.0149C53.9877 28.0149 53.8567 28.0093 53.7556 27.998C53.6583 27.9906 53.5797 27.9775 53.5198 27.9587C53.4599 27.9363 53.415 27.9082 53.385 27.8745C53.3551 27.8371 53.3326 27.7922 53.3176 27.7397L52.7336 26.1226C52.6513 25.8867 52.5652 25.6902 52.4753 25.533C52.3855 25.372 52.2863 25.2428 52.1777 25.1455C52.0692 25.0444 51.9456 24.9733 51.8071 24.9321C51.6686 24.891 51.5133 24.8704 51.3411 24.8704H51.0098V27.7791C51.0098 27.8202 50.9985 27.8558 50.9761 27.8857C50.9536 27.9119 50.9143 27.9363 50.8582 27.9587C50.802 27.9775 50.7271 27.9906 50.6335 27.998C50.54 28.0093 50.4202 28.0149 50.2742 28.0149C50.1319 28.0149 50.0121 28.0093 49.9148 27.998C49.8212 27.9906 49.7463 27.9775 49.6902 27.9587C49.634 27.9363 49.5929 27.9119 49.5667 27.8857C49.5442 27.8558 49.533 27.8202 49.533 27.7791V20.9116C49.533 20.8704 49.5442 20.8368 49.5667 20.8105C49.5929 20.7806 49.634 20.7563 49.6902 20.7375C49.7463 20.7188 49.8212 20.7057 49.9148 20.6982C50.0121 20.687 50.1319 20.6814 50.2742 20.6814C50.4202 20.6814 50.54 20.687 50.6335 20.6982C50.7271 20.7057 50.802 20.7188 50.8582 20.7375C50.9143 20.7563 50.9536 20.7806 50.9761 20.8105C50.9985 20.8368 51.0098 20.8704 51.0098 20.9116V23.6406H51.3411C51.5095 23.6406 51.6574 23.6182 51.7847 23.5732C51.9119 23.5283 52.0261 23.4572 52.1272 23.3599C52.232 23.2625 52.3256 23.1371 52.408 22.9836C52.4941 22.8264 52.5764 22.6336 52.655 22.4053L53.1436 20.9565C53.1623 20.9041 53.1847 20.8611 53.2109 20.8274C53.2371 20.79 53.2783 20.7619 53.3345 20.7432C53.3944 20.7207 53.4711 20.7057 53.5647 20.6982C53.662 20.687 53.7912 20.6814 53.9521 20.6814C54.0981 20.6814 54.2179 20.687 54.3115 20.6982C54.4089 20.7057 54.4837 20.7188 54.5361 20.7375C54.5923 20.7525 54.6297 20.775 54.6484 20.8049C54.6672 20.8311 54.6765 20.8648 54.6765 20.906C54.6765 20.9547 54.6672 21.0146 54.6484 21.0857C54.6335 21.1568 54.6054 21.2504 54.5642 21.3665L54.0757 22.658C53.9858 22.8975 53.896 23.1016 53.8062 23.27C53.7163 23.4385 53.6208 23.5826 53.5198 23.7024C53.4224 23.8184 53.3176 23.9139 53.2053 23.9888C53.0968 24.0636 52.9751 24.1254 52.8403 24.1741V24.1797C52.9901 24.2433 53.1248 24.3163 53.2446 24.3987C53.3682 24.4773 53.4823 24.5784 53.5872 24.7019C53.6957 24.8254 53.7987 24.9771 53.896 25.1567C53.9933 25.3364 54.0925 25.5573 54.1936 25.8193L54.7888 27.3242C54.8487 27.4777 54.8843 27.5844 54.8955 27.6443C54.9067 27.7004 54.9124 27.7472 54.9124 27.7847Z" fill="white"/>
<path d="M61.9651 27.4309C62.01 27.5657 62.0381 27.6724 62.0493 27.751C62.0605 27.8296 62.0456 27.8895 62.0044 27.9307C61.9632 27.9681 61.8902 27.9906 61.7854 27.998C61.6806 28.0093 61.5365 28.0149 61.353 28.0149C61.1621 28.0149 61.0124 28.0111 60.9038 28.0037C60.799 27.9999 60.7185 27.9906 60.6624 27.9756C60.6062 27.9569 60.5669 27.9325 60.5444 27.9026C60.522 27.8726 60.5033 27.8333 60.4883 27.7847L59.9998 26.3247H57.2708L56.8103 27.7454C56.7953 27.7978 56.7747 27.8427 56.7485 27.8801C56.7261 27.9138 56.6868 27.9419 56.6306 27.9644C56.5782 27.9831 56.5015 27.9962 56.4004 28.0037C56.3031 28.0111 56.1739 28.0149 56.0129 28.0149C55.8407 28.0149 55.706 28.0093 55.6086 27.998C55.5113 27.9868 55.4439 27.9606 55.4065 27.9194C55.3691 27.8745 55.356 27.8127 55.3672 27.7341C55.3784 27.6555 55.4065 27.5507 55.4514 27.4197L57.6919 20.9734C57.7144 20.9097 57.7406 20.8592 57.7705 20.8218C57.8005 20.7806 57.8472 20.7507 57.9109 20.7319C57.9783 20.7095 58.07 20.6964 58.186 20.6926C58.3021 20.6851 58.4556 20.6814 58.6465 20.6814C58.8673 20.6814 59.0433 20.6851 59.1743 20.6926C59.3053 20.6964 59.4064 20.7095 59.4775 20.7319C59.5524 20.7507 59.6048 20.7806 59.6348 20.8218C59.6685 20.863 59.6965 20.9191 59.719 20.9902L61.9651 27.4309ZM58.6296 22.1021H58.624L57.5964 25.1904H59.6572L58.6296 22.1021Z" fill="white"/>
<path d="M67.3445 25.8755C67.3445 26.2423 67.2752 26.5662 67.1367 26.8469C66.9982 27.1239 66.7998 27.3579 66.5415 27.5488C66.2869 27.736 65.98 27.8764 65.6206 27.97C65.265 28.0636 64.87 28.1104 64.4358 28.1104C64.1962 28.1104 63.9753 28.0935 63.7732 28.0598C63.5748 28.0261 63.4007 27.9849 63.251 27.9363C63.105 27.8839 62.9871 27.8333 62.8972 27.7847C62.8074 27.736 62.7437 27.6967 62.7063 27.6667C62.6689 27.6331 62.6408 27.5994 62.6221 27.5657C62.6034 27.532 62.5884 27.4852 62.5771 27.4253C62.5659 27.3617 62.5566 27.283 62.5491 27.1895C62.5453 27.0959 62.5435 26.9798 62.5435 26.8413C62.5435 26.6841 62.5566 26.5793 62.5828 26.5269C62.6127 26.4707 62.6558 26.4426 62.7119 26.4426C62.7568 26.4426 62.8205 26.467 62.9028 26.5156C62.9852 26.5605 63.09 26.613 63.2173 26.6729C63.3446 26.7327 63.498 26.787 63.6777 26.8357C63.8574 26.8844 64.0689 26.9087 64.3123 26.9087C64.5144 26.9087 64.6978 26.8844 64.8625 26.8357C65.0273 26.787 65.1658 26.7178 65.2781 26.6279C65.3941 26.5381 65.484 26.4314 65.5476 26.3079C65.6112 26.1806 65.6431 26.0402 65.6431 25.8867C65.6431 25.7183 65.6131 25.5667 65.5532 25.4319C65.4971 25.2971 65.4072 25.1829 65.2837 25.0894C65.1602 24.9958 65.0029 24.9246 64.812 24.876C64.6248 24.8236 64.3984 24.7974 64.1326 24.7974H63.3633C63.3071 24.7974 63.2622 24.7899 63.2285 24.7749C63.1948 24.7599 63.1667 24.7319 63.1443 24.6907C63.1256 24.6495 63.1125 24.5933 63.105 24.5222C63.1012 24.4473 63.0994 24.35 63.0994 24.2302C63.0994 24.1217 63.1031 24.0337 63.1106 23.9663C63.1181 23.8952 63.1312 23.839 63.1499 23.7979C63.1724 23.7567 63.1986 23.7286 63.2285 23.7136C63.2622 23.6949 63.3015 23.6855 63.3464 23.6855H64.127C64.3553 23.6855 64.5575 23.6631 64.7334 23.6182C64.9093 23.5732 65.0553 23.5077 65.1714 23.4216C65.2912 23.3318 65.381 23.2251 65.4409 23.1016C65.5046 22.9743 65.5364 22.8302 65.5364 22.6692C65.5364 22.5344 65.5139 22.4109 65.469 22.2986C65.4278 22.1863 65.3623 22.0927 65.2725 22.0178C65.1826 21.9392 65.0684 21.8793 64.9299 21.8381C64.7914 21.7932 64.6267 21.7708 64.4358 21.7708C64.2112 21.7708 64.009 21.7951 63.8293 21.8438C63.6497 21.8924 63.4924 21.9448 63.3577 22.001C63.2266 22.0571 63.1143 22.1114 63.0208 22.1638C62.9309 22.2125 62.8635 22.2368 62.8186 22.2368C62.7924 22.2368 62.7699 22.2293 62.7512 22.2144C62.7325 22.1994 62.7157 22.1732 62.7007 22.1357C62.6857 22.0946 62.6745 22.0403 62.667 21.9729C62.6632 21.9055 62.6614 21.8175 62.6614 21.709C62.6614 21.6341 62.6632 21.5649 62.667 21.5012C62.6707 21.4376 62.6782 21.3796 62.6895 21.3271C62.7007 21.2747 62.7157 21.2298 62.7344 21.1924C62.7531 21.1512 62.7812 21.1119 62.8186 21.0745C62.8598 21.037 62.9403 20.9884 63.0601 20.9285C63.1836 20.8686 63.3333 20.8143 63.5093 20.7656C63.6852 20.7132 63.8836 20.6702 64.1045 20.6365C64.3254 20.6028 64.5593 20.5859 64.8064 20.5859C65.1957 20.5859 65.5345 20.6271 65.8228 20.7095C66.1147 20.7918 66.3581 20.9116 66.5527 21.0688C66.7474 21.2223 66.8934 21.4132 66.9907 21.6416C67.0881 21.8662 67.1367 22.1245 67.1367 22.4165C67.1367 22.6486 67.1049 22.8601 67.0413 23.051C66.9776 23.2419 66.8859 23.4104 66.7661 23.5564C66.6501 23.7024 66.5097 23.8259 66.345 23.927C66.184 24.0243 66.0043 24.0955 65.8059 24.1404V24.1516C66.0343 24.1778 66.242 24.2415 66.4292 24.3425C66.6201 24.4399 66.783 24.5653 66.9177 24.7188C67.0525 24.8722 67.1573 25.0482 67.2322 25.2466C67.307 25.4412 67.3445 25.6509 67.3445 25.8755Z" fill="white"/>
<path d="M72.6509 21.3271C72.6509 21.4395 72.6453 21.5349 72.634 21.6135C72.6265 21.6884 72.6134 21.7502 72.5947 21.7988C72.576 21.8438 72.5517 21.8774 72.5217 21.8999C72.4955 21.9186 72.4637 21.928 72.4263 21.928H70.0173V27.7903C70.0173 27.8277 70.0042 27.8614 69.978 27.8914C69.9556 27.9176 69.9163 27.94 69.8601 27.9587C69.804 27.9775 69.7291 27.9906 69.6355 27.998C69.5419 28.0093 69.4221 28.0149 69.2761 28.0149C69.1339 28.0149 69.0141 28.0093 68.9167 27.998C68.8232 27.9906 68.7483 27.9775 68.6921 27.9587C68.636 27.94 68.5948 27.9176 68.5686 27.8914C68.5461 27.8614 68.5349 27.8277 68.5349 27.7903V21.1812C68.5349 21.0239 68.5742 20.9079 68.6528 20.833C68.7352 20.7544 68.8419 20.7151 68.9729 20.7151H72.4263C72.5011 20.7151 72.5573 20.7619 72.5947 20.8555C72.6322 20.9491 72.6509 21.1063 72.6509 21.3271Z" fill="white"/>
<path d="M78.5637 27.4309C78.6086 27.5657 78.6367 27.6724 78.6479 27.751C78.6592 27.8296 78.6442 27.8895 78.603 27.9307C78.5618 27.9681 78.4888 27.9906 78.384 27.998C78.2792 28.0093 78.1351 28.0149 77.9517 28.0149C77.7607 28.0149 77.611 28.0111 77.5024 28.0037C77.3976 27.9999 77.3171 27.9906 77.261 27.9756C77.2048 27.9569 77.1655 27.9325 77.1431 27.9026C77.1206 27.8726 77.1019 27.8333 77.0869 27.7847L76.5984 26.3247H73.8694L73.4089 27.7454C73.394 27.7978 73.3734 27.8427 73.3472 27.8801C73.3247 27.9138 73.2854 27.9419 73.2292 27.9644C73.1768 27.9831 73.1001 27.9962 72.999 28.0037C72.9017 28.0111 72.7725 28.0149 72.6116 28.0149C72.4394 28.0149 72.3046 28.0093 72.2073 27.998C72.1099 27.9868 72.0426 27.9606 72.0051 27.9194C71.9677 27.8745 71.9546 27.8127 71.9658 27.7341C71.9771 27.6555 72.0051 27.5507 72.05 27.4197L74.2905 20.9734C74.313 20.9097 74.3392 20.8592 74.3691 20.8218C74.3991 20.7806 74.4459 20.7507 74.5095 20.7319C74.5769 20.7095 74.6686 20.6964 74.7847 20.6926C74.9007 20.6851 75.0542 20.6814 75.2451 20.6814C75.466 20.6814 75.6419 20.6851 75.7729 20.6926C75.904 20.6964 76.005 20.7095 76.0762 20.7319C76.151 20.7507 76.2034 20.7806 76.2334 20.8218C76.2671 20.863 76.2952 20.9191 76.3176 20.9902L78.5637 27.4309ZM75.2283 22.1021H75.2227L74.1951 25.1904H76.2559L75.2283 22.1021Z" fill="white"/>
<path d="M85.2571 27.7791C85.2571 27.8165 85.244 27.8502 85.2178 27.8801C85.1953 27.9101 85.156 27.9344 85.0999 27.9531C85.0437 27.9718 84.9688 27.9868 84.8752 27.998C84.7817 28.0093 84.6637 28.0149 84.5215 28.0149C84.3755 28.0149 84.2538 28.0093 84.1565 27.998C84.0629 27.9868 83.988 27.9718 83.9319 27.9531C83.8795 27.9344 83.8402 27.9101 83.814 27.8801C83.7915 27.8502 83.7803 27.8165 83.7803 27.7791V24.8423H81.0625V27.7791C81.0625 27.8165 81.0513 27.8502 81.0288 27.8801C81.0063 27.9101 80.967 27.9344 80.9109 27.9531C80.8547 27.9718 80.7799 27.9868 80.6863 27.998C80.5927 28.0093 80.4729 28.0149 80.3269 28.0149C80.1847 28.0149 80.0649 28.0093 79.9675 27.998C79.8739 27.9868 79.7991 27.9718 79.7429 27.9531C79.6868 27.9344 79.6456 27.9101 79.6194 27.8801C79.5969 27.8502 79.5857 27.8165 79.5857 27.7791V20.9172C79.5857 20.8798 79.5969 20.8461 79.6194 20.8162C79.6456 20.7862 79.6868 20.7619 79.7429 20.7432C79.7991 20.7244 79.8739 20.7095 79.9675 20.6982C80.0649 20.687 80.1847 20.6814 80.3269 20.6814C80.4729 20.6814 80.5927 20.687 80.6863 20.6982C80.7799 20.7095 80.8547 20.7244 80.9109 20.7432C80.967 20.7619 81.0063 20.7862 81.0288 20.8162C81.0513 20.8461 81.0625 20.8798 81.0625 20.9172V23.5845H83.7803V20.9172C83.7803 20.8798 83.7915 20.8461 83.814 20.8162C83.8402 20.7862 83.8795 20.7619 83.9319 20.7432C83.988 20.7244 84.0629 20.7095 84.1565 20.6982C84.2538 20.687 84.3755 20.6814 84.5215 20.6814C84.6637 20.6814 84.7817 20.687 84.8752 20.6982C84.9688 20.7095 85.0437 20.7244 85.0999 20.7432C85.156 20.7619 85.1953 20.7862 85.2178 20.8162C85.244 20.8461 85.2571 20.8798 85.2571 20.9172V27.7791Z" fill="white"/>
<path d="M34.5785 31.8412L31.9785 35.2712L33.7585 37.6812H35.3585V41.0612H33.8985V38.9812H32.9985L30.4085 35.3612V38.9812H28.8985V31.8412H30.4085V35.3012L32.9685 31.8412H34.5785Z" fill="white"/>
<path d="M42.301 38.4309C42.3459 38.5657 42.374 38.6724 42.3853 38.751C42.3965 38.8296 42.3815 38.8895 42.3403 38.9307C42.2992 38.9681 42.2262 38.9906 42.1213 38.998C42.0165 39.0093 41.8724 39.0149 41.689 39.0149C41.498 39.0149 41.3483 39.0111 41.2397 39.0037C41.1349 38.9999 41.0544 38.9906 40.9983 38.9756C40.9421 38.9569 40.9028 38.9325 40.8804 38.9026C40.8579 38.8726 40.8392 38.8333 40.8242 38.7847L40.3357 37.3247H37.6067L37.1462 38.7454C37.1313 38.7978 37.1107 38.8427 37.0845 38.8801C37.062 38.9138 37.0227 38.9419 36.9666 38.9644C36.9141 38.9831 36.8374 38.9962 36.7363 39.0037C36.639 39.0111 36.5098 39.0149 36.3489 39.0149C36.1767 39.0149 36.0419 39.0093 35.9446 38.998C35.8472 38.9868 35.7799 38.9606 35.7424 38.9194C35.705 38.8745 35.6919 38.8127 35.7031 38.7341C35.7144 38.6555 35.7424 38.5507 35.7874 38.4197L38.0278 31.9734C38.0503 31.9097 38.0765 31.8592 38.1064 31.8218C38.1364 31.7806 38.1832 31.7507 38.2468 31.7319C38.3142 31.7095 38.4059 31.6964 38.522 31.6926C38.638 31.6851 38.7915 31.6814 38.9824 31.6814C39.2033 31.6814 39.3792 31.6851 39.5103 31.6926C39.6413 31.6964 39.7424 31.7095 39.8135 31.7319C39.8883 31.7507 39.9408 31.7806 39.9707 31.8218C40.0044 31.863 40.0325 31.9191 40.0549 31.9902L42.301 38.4309ZM38.9656 33.1021H38.96L37.9324 36.1904H39.9932L38.9656 33.1021Z" fill="white"/>
<path d="M48.2981 33.9219C48.2981 34.3299 48.2345 34.6912 48.1072 35.0056C47.9799 35.3201 47.7946 35.5859 47.5513 35.803C47.3079 36.0164 47.0085 36.1792 46.6528 36.2915C46.3009 36.4038 45.8854 36.46 45.4062 36.46H44.7998V38.7791C44.7998 38.8165 44.7867 38.8502 44.7605 38.8801C44.738 38.9101 44.6987 38.9344 44.6426 38.9531C44.5864 38.9718 44.5116 38.9868 44.418 38.998C44.3244 39.0093 44.2046 39.0149 44.0586 39.0149C43.9163 39.0149 43.7965 39.0093 43.6992 38.998C43.6056 38.9868 43.5308 38.9718 43.4746 38.9531C43.4185 38.9344 43.3792 38.9101 43.3567 38.8801C43.3342 38.8502 43.323 38.8165 43.323 38.7791V32.2429C43.323 32.067 43.3679 31.936 43.4578 31.8499C43.5514 31.76 43.673 31.7151 43.8228 31.7151H45.5354C45.7076 31.7151 45.8704 31.7226 46.0239 31.7375C46.1812 31.7488 46.3683 31.7769 46.5854 31.8218C46.8026 31.863 47.0216 31.9416 47.2424 32.0576C47.467 32.1737 47.658 32.3215 47.8152 32.5012C47.9724 32.6772 48.0922 32.8849 48.1746 33.1245C48.2569 33.3604 48.2981 33.6261 48.2981 33.9219ZM46.7539 34.0286C46.7539 33.774 46.709 33.5644 46.6191 33.3997C46.5293 33.2349 46.4189 33.1133 46.2878 33.0347C46.1568 32.9561 46.0183 32.9074 45.8723 32.8887C45.7301 32.8662 45.5822 32.855 45.4287 32.855H44.7998V35.3201H45.4624C45.6982 35.3201 45.8948 35.2882 46.052 35.2246C46.213 35.161 46.344 35.073 46.4451 34.9607C46.5461 34.8446 46.6229 34.708 46.6753 34.5508C46.7277 34.3898 46.7539 34.2157 46.7539 34.0286Z" fill="white"/>
<path d="M54.7556 38.4309C54.8005 38.5657 54.8286 38.6724 54.8398 38.751C54.8511 38.8296 54.8361 38.8895 54.7949 38.9307C54.7537 38.9681 54.6807 38.9906 54.5759 38.998C54.4711 39.0093 54.327 39.0149 54.1436 39.0149C53.9526 39.0149 53.8029 39.0111 53.6943 39.0037C53.5895 38.9999 53.509 38.9906 53.4529 38.9756C53.3967 38.9569 53.3574 38.9325 53.335 38.9026C53.3125 38.8726 53.2938 38.8333 53.2788 38.7847L52.7903 37.3247H50.0613L49.6008 38.7454C49.5859 38.7978 49.5653 38.8427 49.5391 38.8801C49.5166 38.9138 49.4773 38.9419 49.4211 38.9644C49.3687 38.9831 49.292 38.9962 49.1909 39.0037C49.0936 39.0111 48.9644 39.0149 48.8035 39.0149C48.6313 39.0149 48.4965 39.0093 48.3992 38.998C48.3018 38.9868 48.2345 38.9606 48.197 38.9194C48.1596 38.8745 48.1465 38.8127 48.1577 38.7341C48.1689 38.6555 48.197 38.5507 48.2419 38.4197L50.4824 31.9734C50.5049 31.9097 50.5311 31.8592 50.561 31.8218C50.591 31.7806 50.6378 31.7507 50.7014 31.7319C50.7688 31.7095 50.8605 31.6964 50.9766 31.6926C51.0926 31.6851 51.2461 31.6814 51.437 31.6814C51.6579 31.6814 51.8338 31.6851 51.9648 31.6926C52.0959 31.6964 52.1969 31.7095 52.2681 31.7319C52.3429 31.7507 52.3953 31.7806 52.4253 31.8218C52.459 31.863 52.4871 31.9191 52.5095 31.9902L54.7556 38.4309ZM51.4202 33.1021H51.4146L50.387 36.1904H52.4478L51.4202 33.1021Z" fill="white"/>
<path d="M60.3758 31.8412V33.0812H57.3958V34.8312H59.3558V36.0712H57.3958V38.9812H55.8858V36.0712H55.2158V34.8312H55.8858V31.8412H60.3758Z" fill="white"/>
<path d="M67.3157 38.4309C67.3606 38.5657 67.3887 38.6724 67.3999 38.751C67.4111 38.8296 67.3962 38.8895 67.355 38.9307C67.3138 38.9681 67.2408 38.9906 67.136 38.998C67.0312 39.0093 66.887 39.0149 66.7036 39.0149C66.5127 39.0149 66.363 39.0111 66.2544 39.0037C66.1496 38.9999 66.0691 38.9906 66.0129 38.9756C65.9568 38.9569 65.9175 38.9325 65.895 38.9026C65.8726 38.8726 65.8538 38.8333 65.8389 38.7847L65.3503 37.3247H62.6213L62.1609 38.7454C62.1459 38.7978 62.1253 38.8427 62.0991 38.8801C62.0767 38.9138 62.0374 38.9419 61.9812 38.9644C61.9288 38.9831 61.8521 38.9962 61.751 39.0037C61.6536 39.0111 61.5245 39.0149 61.3635 39.0149C61.1913 39.0149 61.0566 39.0093 60.9592 38.998C60.8619 38.9868 60.7945 38.9606 60.7571 38.9194C60.7196 38.8745 60.7065 38.8127 60.7178 38.7341C60.729 38.6555 60.7571 38.5507 60.802 38.4197L63.0425 31.9734C63.0649 31.9097 63.0911 31.8592 63.1211 31.8218C63.151 31.7806 63.1978 31.7507 63.2615 31.7319C63.3289 31.7095 63.4206 31.6964 63.5366 31.6926C63.6527 31.6851 63.8062 31.6814 63.9971 31.6814C64.2179 31.6814 64.3939 31.6851 64.5249 31.6926C64.6559 31.6964 64.757 31.7095 64.8281 31.7319C64.903 31.7507 64.9554 31.7806 64.9854 31.8218C65.019 31.863 65.0471 31.9191 65.0696 31.9902L67.3157 38.4309ZM63.9802 33.1021H63.9746L62.947 36.1904H65.0078L63.9802 33.1021Z" fill="white"/>
<path d="M74.009 38.7791C74.009 38.8165 73.9959 38.8502 73.9697 38.8801C73.9473 38.9101 73.908 38.9344 73.8518 38.9531C73.7957 38.9718 73.7208 38.9868 73.6272 38.998C73.5336 39.0093 73.4157 39.0149 73.2734 39.0149C73.1274 39.0149 73.0058 39.0093 72.9084 38.998C72.8149 38.9868 72.74 38.9718 72.6838 38.9531C72.6314 38.9344 72.5921 38.9101 72.5659 38.8801C72.5435 38.8502 72.5322 38.8165 72.5322 38.7791V35.8423H69.8145V38.7791C69.8145 38.8165 69.8032 38.8502 69.7808 38.8801C69.7583 38.9101 69.719 38.9344 69.6628 38.9531C69.6067 38.9718 69.5318 38.9868 69.4382 38.998C69.3446 39.0093 69.2249 39.0149 69.0789 39.0149C68.9366 39.0149 68.8168 39.0093 68.7195 38.998C68.6259 38.9868 68.551 38.9718 68.4949 38.9531C68.4387 38.9344 68.3975 38.9101 68.3713 38.8801C68.3489 38.8502 68.3376 38.8165 68.3376 38.7791V31.9172C68.3376 31.8798 68.3489 31.8461 68.3713 31.8162C68.3975 31.7862 68.4387 31.7619 68.4949 31.7432C68.551 31.7244 68.6259 31.7095 68.7195 31.6982C68.8168 31.687 68.9366 31.6814 69.0789 31.6814C69.2249 31.6814 69.3446 31.687 69.4382 31.6982C69.5318 31.7095 69.6067 31.7244 69.6628 31.7432C69.719 31.7619 69.7583 31.7862 69.7808 31.8162C69.8032 31.8461 69.8145 31.8798 69.8145 31.9172V34.5845H72.5322V31.9172C72.5322 31.8798 72.5435 31.8461 72.5659 31.8162C72.5921 31.7862 72.6314 31.7619 72.6838 31.7432C72.74 31.7244 72.8149 31.7095 72.9084 31.6982C73.0058 31.687 73.1274 31.6814 73.2734 31.6814C73.4157 31.6814 73.5336 31.687 73.6272 31.6982C73.7208 31.7095 73.7957 31.7244 73.8518 31.7432C73.908 31.7619 73.9473 31.7862 73.9697 31.8162C73.9959 31.8461 74.009 31.8798 74.009 31.9172V38.7791Z" fill="white"/>
<path d="M82.2915 40.6938C82.2915 40.7313 82.2821 40.7631 82.2634 40.7893C82.2447 40.8155 82.211 40.8361 82.1624 40.8511C82.1137 40.8698 82.0482 40.8829 81.9658 40.8904C81.8835 40.9016 81.7768 40.9072 81.6458 40.9072C81.5185 40.9072 81.4137 40.9016 81.3313 40.8904C81.2527 40.8829 81.1872 40.8698 81.1348 40.8511C81.0861 40.8361 81.0505 40.8155 81.0281 40.7893C81.0094 40.7631 81 40.7313 81 40.6938V38.9812H76.1653V40.6938C76.1653 40.7313 76.1541 40.7631 76.1316 40.7893C76.1129 40.8155 76.0773 40.8361 76.0249 40.8511C75.9762 40.8698 75.9107 40.8829 75.8284 40.8904C75.746 40.9016 75.6412 40.9072 75.5139 40.9072C75.3866 40.9072 75.2818 40.9016 75.1995 40.8904C75.1171 40.8829 75.0497 40.8698 74.9973 40.8511C74.9487 40.8361 74.915 40.8155 74.8962 40.7893C74.8775 40.7631 74.8682 40.7313 74.8682 40.6938V38.0828C74.8607 37.9742 74.8794 37.8975 74.9243 37.8525C74.973 37.8039 75.0441 37.7795 75.1377 37.7795H75.4746C75.5645 37.6523 75.6487 37.5212 75.7273 37.3865C75.8097 37.2517 75.8883 37.0926 75.9631 36.9092C76.038 36.722 76.111 36.5011 76.1821 36.2466C76.257 35.9883 76.33 35.6738 76.4011 35.3032C76.4722 34.9326 76.5434 34.4946 76.6145 33.9893C76.6894 33.4801 76.7661 32.8831 76.8447 32.198C76.8672 32.0295 76.9102 31.9079 76.9739 31.833C77.0375 31.7544 77.1348 31.7151 77.2659 31.7151H80.9775C81.1086 31.7151 81.2115 31.7544 81.2864 31.833C81.3612 31.9079 81.3987 32.0239 81.3987 32.1812V37.7795H82.0164C82.1174 37.7795 82.1886 37.8076 82.2297 37.8638C82.2709 37.9162 82.2915 37.991 82.2915 38.0884V40.6938ZM79.9275 32.9055H78.2317C78.1643 33.4745 78.0969 33.9762 78.0295 34.4104C77.9659 34.8409 77.9004 35.219 77.833 35.5447C77.7694 35.8704 77.7039 36.1511 77.6365 36.387C77.5691 36.6228 77.4998 36.8268 77.4287 36.999C77.3613 37.1712 77.2902 37.3191 77.2153 37.4426C77.1405 37.5662 77.0637 37.6785 76.9851 37.7795H79.9275V32.9055Z" fill="white"/>
<path d="M90.9277 38.7903C90.9277 38.8277 90.9146 38.8614 90.8884 38.8914C90.866 38.9176 90.8267 38.94 90.7705 38.9587C90.7144 38.9775 90.6376 38.9906 90.5403 38.998C90.4467 39.0093 90.3288 39.0149 90.1865 39.0149C90.0443 39.0149 89.9263 39.0093 89.8328 38.998C89.7392 38.9906 89.6624 38.9775 89.6025 38.9587C89.5464 38.94 89.5052 38.9176 89.479 38.8914C89.4565 38.8614 89.4453 38.8277 89.4453 38.7903V31.906C89.4453 31.8686 89.4565 31.8368 89.479 31.8105C89.5052 31.7806 89.5464 31.7563 89.6025 31.7375C89.6624 31.7188 89.7392 31.7057 89.8328 31.6982C89.9301 31.687 90.048 31.6814 90.1865 31.6814C90.3288 31.6814 90.4467 31.687 90.5403 31.6982C90.6376 31.7057 90.7144 31.7188 90.7705 31.7375C90.8267 31.7563 90.866 31.7806 90.8884 31.8105C90.9146 31.8368 90.9277 31.8686 90.9277 31.906V38.7903ZM88.5637 36.5835C88.5637 36.9279 88.5094 37.2442 88.4009 37.5325C88.2961 37.817 88.1295 38.0659 87.9011 38.2793C87.6728 38.4927 87.3733 38.663 87.0027 38.7903C86.6358 38.9176 86.1342 38.9812 85.4978 38.9812H83.7852C83.7215 38.9812 83.6616 38.9737 83.6055 38.9587C83.5531 38.94 83.5063 38.9119 83.4651 38.8745C83.4239 38.8333 83.3902 38.7847 83.364 38.7285C83.3416 38.6686 83.3303 38.5975 83.3303 38.5151V31.906C83.3303 31.8686 83.3416 31.8368 83.364 31.8105C83.3902 31.7806 83.4314 31.7563 83.4875 31.7375C83.5474 31.7188 83.6242 31.7057 83.7178 31.6982C83.8151 31.687 83.933 31.6814 84.0715 31.6814C84.2175 31.6814 84.3373 31.687 84.4309 31.6982C84.5245 31.7057 84.5994 31.7188 84.6555 31.7375C84.7117 31.7563 84.751 31.7806 84.7734 31.8105C84.7959 31.8368 84.8071 31.8686 84.8071 31.906V34.416H85.7224C86.2652 34.416 86.6976 34.4628 87.0195 34.5564C87.3452 34.65 87.6204 34.7885 87.845 34.9719C88.0733 35.1554 88.2493 35.3837 88.3728 35.657C88.5001 35.9303 88.5637 36.2391 88.5637 36.5835ZM87.0476 36.707C87.0476 36.5273 87.0214 36.3664 86.969 36.2241C86.9166 36.0819 86.8361 35.9602 86.7275 35.8591C86.619 35.7581 86.4805 35.6794 86.312 35.6233C86.1436 35.5671 85.8946 35.5391 85.5652 35.5391H84.8071V37.8469H85.5876C85.932 37.8469 86.1903 37.8132 86.3625 37.7458C86.5385 37.6747 86.6751 37.5849 86.7725 37.4763C86.8698 37.364 86.939 37.2405 86.9802 37.1057C87.0251 36.9709 87.0476 36.8381 87.0476 36.707Z" fill="white"/>
<path d="M34.1697 49.7847C34.1697 49.8258 34.1584 49.8614 34.136 49.8914C34.1135 49.9176 34.0723 49.94 34.0125 49.9587C33.9563 49.9775 33.8796 49.9906 33.7822 49.998C33.6849 50.0093 33.5595 50.0149 33.406 50.0149C33.245 50.0149 33.114 50.0093 33.0129 49.998C32.9156 49.9906 32.837 49.9775 32.7771 49.9587C32.7172 49.9363 32.6723 49.9082 32.6423 49.8745C32.6124 49.8371 32.5899 49.7922 32.575 49.7397L31.991 48.1226C31.9086 47.8867 31.8225 47.6902 31.7327 47.533C31.6428 47.372 31.5436 47.2428 31.4351 47.1455C31.3265 47.0444 31.203 46.9733 31.0645 46.9321C30.9259 46.8909 30.7706 46.8704 30.5984 46.8704H30.2671V49.7791C30.2671 49.8202 30.2559 49.8558 30.2334 49.8857C30.2109 49.9119 30.1716 49.9363 30.1155 49.9587C30.0593 49.9775 29.9845 49.9906 29.8909 49.998C29.7973 50.0093 29.6775 50.0149 29.5315 50.0149C29.3892 50.0149 29.2694 50.0093 29.1721 49.998C29.0785 49.9906 29.0037 49.9775 28.9475 49.9587C28.8914 49.9363 28.8502 49.9119 28.824 49.8857C28.8015 49.8558 28.7903 49.8202 28.7903 49.7791V42.9116C28.7903 42.8704 28.8015 42.8368 28.824 42.8105C28.8502 42.7806 28.8914 42.7563 28.9475 42.7375C29.0037 42.7188 29.0785 42.7057 29.1721 42.6982C29.2694 42.687 29.3892 42.6814 29.5315 42.6814C29.6775 42.6814 29.7973 42.687 29.8909 42.6982C29.9845 42.7057 30.0593 42.7188 30.1155 42.7375C30.1716 42.7563 30.2109 42.7806 30.2334 42.8105C30.2559 42.8368 30.2671 42.8704 30.2671 42.9116V45.6406H30.5984C30.7668 45.6406 30.9147 45.6182 31.042 45.5732C31.1693 45.5283 31.2834 45.4572 31.3845 45.3599C31.4893 45.2625 31.5829 45.1371 31.6653 44.9836C31.7514 44.8264 31.8337 44.6336 31.9124 44.4053L32.4009 42.9565C32.4196 42.9041 32.4421 42.8611 32.4683 42.8274C32.4945 42.79 32.5356 42.7619 32.5918 42.7432C32.6517 42.7207 32.7284 42.7057 32.822 42.6982C32.9194 42.687 33.0485 42.6814 33.2095 42.6814C33.3555 42.6814 33.4753 42.687 33.5688 42.6982C33.6662 42.7057 33.741 42.7188 33.7935 42.7375C33.8496 42.7525 33.887 42.775 33.9058 42.8049C33.9245 42.8311 33.9338 42.8648 33.9338 42.906C33.9338 42.9547 33.9245 43.0146 33.9058 43.0857C33.8908 43.1568 33.8627 43.2504 33.8215 43.3665L33.333 44.658C33.2432 44.8975 33.1533 45.1016 33.0635 45.27C32.9736 45.4385 32.8782 45.5826 32.7771 45.7024C32.6798 45.8184 32.575 45.9139 32.4626 45.9888C32.3541 46.0636 32.2324 46.1254 32.0977 46.1741V46.1797C32.2474 46.2433 32.3822 46.3163 32.502 46.3987C32.6255 46.4773 32.7397 46.5784 32.8445 46.7019C32.953 46.8254 33.056 46.9771 33.1533 47.1567C33.2507 47.3364 33.3499 47.5573 33.4509 47.8193L34.0461 49.3242C34.106 49.4777 34.1416 49.5844 34.1528 49.6443C34.1641 49.7004 34.1697 49.7472 34.1697 49.7847Z" fill="white"/>
<path d="M41.2224 49.4309C41.2673 49.5657 41.2954 49.6724 41.3066 49.751C41.3179 49.8296 41.3029 49.8895 41.2617 49.9307C41.2205 49.9681 41.1475 49.9906 41.0427 49.998C40.9379 50.0093 40.7938 50.0149 40.6104 50.0149C40.4194 50.0149 40.2697 50.0112 40.1611 50.0037C40.0563 49.9999 39.9758 49.9906 39.9197 49.9756C39.8635 49.9569 39.8242 49.9325 39.8018 49.9026C39.7793 49.8726 39.7606 49.8333 39.7456 49.7847L39.2571 48.3247H36.5281L36.0676 49.7454C36.0527 49.7978 36.0321 49.8427 36.0059 49.8801C35.9834 49.9138 35.9441 49.9419 35.8879 49.9644C35.8355 49.9831 35.7588 49.9962 35.6577 50.0037C35.5604 50.0112 35.4312 50.0149 35.2703 50.0149C35.0981 50.0149 34.9633 50.0093 34.866 49.998C34.7686 49.9868 34.7013 49.9606 34.6638 49.9194C34.6264 49.8745 34.6133 49.8127 34.6245 49.7341C34.6357 49.6555 34.6638 49.5507 34.7087 49.4197L36.9492 42.9734C36.9717 42.9097 36.9979 42.8592 37.0278 42.8218C37.0578 42.7806 37.1046 42.7507 37.1682 42.7319C37.2356 42.7095 37.3273 42.6964 37.4434 42.6926C37.5594 42.6851 37.7129 42.6814 37.9038 42.6814C38.1247 42.6814 38.3006 42.6851 38.4316 42.6926C38.5627 42.6964 38.6637 42.7095 38.7349 42.7319C38.8097 42.7507 38.8621 42.7806 38.8921 42.8218C38.9258 42.863 38.9539 42.9191 38.9763 42.9902L41.2224 49.4309ZM37.887 44.1021H37.8813L36.8538 47.1904H38.9146L37.887 44.1021Z" fill="white"/>
<path d="M47.2195 44.9219C47.2195 45.3299 47.1558 45.6912 47.0286 46.0056C46.9013 46.3201 46.716 46.5859 46.4727 46.803C46.2293 47.0164 45.9298 47.1792 45.5742 47.2915C45.2223 47.4038 44.8068 47.46 44.3276 47.46H43.7212V49.7791C43.7212 49.8165 43.7081 49.8502 43.6819 49.8801C43.6594 49.9101 43.6201 49.9344 43.564 49.9531C43.5078 49.9718 43.4329 49.9868 43.3394 49.998C43.2458 50.0093 43.126 50.0149 42.98 50.0149C42.8377 50.0149 42.7179 50.0093 42.6206 49.998C42.527 49.9868 42.4521 49.9718 42.396 49.9531C42.3398 49.9344 42.3005 49.9101 42.2781 49.8801C42.2556 49.8502 42.2444 49.8165 42.2444 49.7791V43.2429C42.2444 43.067 42.2893 42.936 42.3792 42.8499C42.4727 42.76 42.5944 42.7151 42.7441 42.7151H44.4568C44.629 42.7151 44.7918 42.7226 44.9453 42.7375C45.1025 42.7488 45.2897 42.7769 45.5068 42.8218C45.724 42.863 45.943 42.9416 46.1638 43.0576C46.3884 43.1737 46.5793 43.3215 46.7366 43.5012C46.8938 43.6772 47.0136 43.8849 47.0959 44.1245C47.1783 44.3604 47.2195 44.6261 47.2195 44.9219ZM45.6753 45.0286C45.6753 44.774 45.6304 44.5644 45.5405 44.3997C45.4507 44.2349 45.3403 44.1133 45.2092 44.0347C45.0782 43.9561 44.9397 43.9074 44.7937 43.8887C44.6514 43.8662 44.5036 43.855 44.3501 43.855H43.7212V46.3201H44.3838C44.6196 46.3201 44.8162 46.2882 44.9734 46.2246C45.1344 46.161 45.2654 46.073 45.3665 45.9607C45.4675 45.8446 45.5443 45.708 45.5967 45.5508C45.6491 45.3898 45.6753 45.2157 45.6753 45.0286Z" fill="white"/>
<path d="M53.677 49.4309C53.7219 49.5657 53.75 49.6724 53.7612 49.751C53.7725 49.8296 53.7575 49.8895 53.7163 49.9307C53.6751 49.9681 53.6021 49.9906 53.4973 49.998C53.3925 50.0093 53.2484 50.0149 53.0649 50.0149C52.874 50.0149 52.7243 50.0112 52.6157 50.0037C52.5109 49.9999 52.4304 49.9906 52.3743 49.9756C52.3181 49.9569 52.2788 49.9325 52.2563 49.9026C52.2339 49.8726 52.2152 49.8333 52.2002 49.7847L51.7117 48.3247H48.9827L48.5222 49.7454C48.5072 49.7978 48.4867 49.8427 48.4604 49.8801C48.438 49.9138 48.3987 49.9419 48.3425 49.9644C48.2901 49.9831 48.2134 49.9962 48.1123 50.0037C48.015 50.0112 47.8858 50.0149 47.7249 50.0149C47.5527 50.0149 47.4179 50.0093 47.3206 49.998C47.2232 49.9868 47.1558 49.9606 47.1184 49.9194C47.081 49.8745 47.0679 49.8127 47.0791 49.7341C47.0903 49.6555 47.1184 49.5507 47.1633 49.4197L49.4038 42.9734C49.4263 42.9097 49.4525 42.8592 49.4824 42.8218C49.5124 42.7806 49.5592 42.7507 49.6228 42.7319C49.6902 42.7095 49.7819 42.6964 49.8979 42.6926C50.014 42.6851 50.1675 42.6814 50.3584 42.6814C50.5793 42.6814 50.7552 42.6851 50.8862 42.6926C51.0173 42.6964 51.1183 42.7095 51.1895 42.7319C51.2643 42.7507 51.3167 42.7806 51.3467 42.8218C51.3804 42.863 51.4084 42.9191 51.4309 42.9902L53.677 49.4309ZM50.3416 44.1021H50.3359L49.3083 47.1904H51.3691L50.3416 44.1021Z" fill="white"/>
<path d="M58.8149 43.3271C58.8149 43.4395 58.8093 43.5349 58.7981 43.6135C58.7906 43.6884 58.7775 43.7502 58.7588 43.7988C58.7401 43.8438 58.7157 43.8774 58.6858 43.8999C58.6596 43.9186 58.6278 43.928 58.5903 43.928H56.1814V49.7903C56.1814 49.8277 56.1683 49.8614 56.1421 49.8914C56.1196 49.9176 56.0803 49.94 56.0242 49.9587C55.968 49.9775 55.8931 49.9906 55.7996 49.998C55.706 50.0093 55.5862 50.0149 55.4402 50.0149C55.2979 50.0149 55.1781 50.0093 55.0808 49.998C54.9872 49.9906 54.9124 49.9775 54.8562 49.9587C54.8 49.94 54.7589 49.9176 54.7327 49.8914C54.7102 49.8614 54.699 49.8277 54.699 49.7903V43.1812C54.699 43.0239 54.7383 42.9079 54.8169 42.833C54.8993 42.7544 55.0059 42.7151 55.137 42.7151H58.5903C58.6652 42.7151 58.7214 42.7619 58.7588 42.8555C58.7962 42.9491 58.8149 43.1063 58.8149 43.3271Z" fill="white"/>
<path d="M64.7278 49.4309C64.7727 49.5657 64.8008 49.6724 64.812 49.751C64.8232 49.8296 64.8083 49.8895 64.7671 49.9307C64.7259 49.9681 64.6529 49.9906 64.5481 49.998C64.4433 50.0093 64.2992 50.0149 64.1157 50.0149C63.9248 50.0149 63.7751 50.0112 63.6665 50.0037C63.5617 49.9999 63.4812 49.9906 63.425 49.9756C63.3689 49.9569 63.3296 49.9325 63.3071 49.9026C63.2847 49.8726 63.2659 49.8333 63.251 49.7847L62.7625 48.3247H60.0334L59.573 49.7454C59.558 49.7978 59.5374 49.8427 59.5112 49.8801C59.4888 49.9138 59.4495 49.9419 59.3933 49.9644C59.3409 49.9831 59.2642 49.9962 59.1631 50.0037C59.0658 50.0112 58.9366 50.0149 58.7756 50.0149C58.6034 50.0149 58.4687 50.0093 58.3713 49.998C58.274 49.9868 58.2066 49.9606 58.1692 49.9194C58.1318 49.8745 58.1187 49.8127 58.1299 49.7341C58.1411 49.6555 58.1692 49.5507 58.2141 49.4197L60.4546 42.9734C60.4771 42.9097 60.5033 42.8592 60.5332 42.8218C60.5632 42.7806 60.6099 42.7507 60.6736 42.7319C60.741 42.7095 60.8327 42.6964 60.9487 42.6926C61.0648 42.6851 61.2183 42.6814 61.4092 42.6814C61.63 42.6814 61.806 42.6851 61.937 42.6926C62.068 42.6964 62.1691 42.7095 62.2402 42.7319C62.3151 42.7507 62.3675 42.7806 62.3975 42.8218C62.4312 42.863 62.4592 42.9191 62.4817 42.9902L64.7278 49.4309ZM61.3923 44.1021H61.3867L60.3591 47.1904H62.4199L61.3923 44.1021Z" fill="white"/>
<path d="M71.4211 49.7791C71.4211 49.8165 71.408 49.8502 71.3818 49.8801C71.3594 49.9101 71.3201 49.9344 71.2639 49.9531C71.2078 49.9718 71.1329 49.9868 71.0393 49.998C70.9457 50.0093 70.8278 50.0149 70.6855 50.0149C70.5396 50.0149 70.4179 50.0093 70.3206 49.998C70.227 49.9868 70.1521 49.9718 70.0959 49.9531C70.0435 49.9344 70.0042 49.9101 69.978 49.8801C69.9556 49.8502 69.9443 49.8165 69.9443 49.7791V46.8423H67.2266V49.7791C67.2266 49.8165 67.2153 49.8502 67.1929 49.8801C67.1704 49.9101 67.1311 49.9344 67.075 49.9531C67.0188 49.9718 66.9439 49.9868 66.8503 49.998C66.7568 50.0093 66.637 50.0149 66.491 50.0149C66.3487 50.0149 66.2289 50.0093 66.1316 49.998C66.038 49.9868 65.9631 49.9718 65.907 49.9531C65.8508 49.9344 65.8097 49.9101 65.7834 49.8801C65.761 49.8502 65.7498 49.8165 65.7498 49.7791V42.9172C65.7498 42.8798 65.761 42.8461 65.7834 42.8162C65.8097 42.7862 65.8508 42.7619 65.907 42.7432C65.9631 42.7244 66.038 42.7095 66.1316 42.6982C66.2289 42.687 66.3487 42.6814 66.491 42.6814C66.637 42.6814 66.7568 42.687 66.8503 42.6982C66.9439 42.7095 67.0188 42.7244 67.075 42.7432C67.1311 42.7619 67.1704 42.7862 67.1929 42.8162C67.2153 42.8461 67.2266 42.8798 67.2266 42.9172V45.5845H69.9443V42.9172C69.9443 42.8798 69.9556 42.8461 69.978 42.8162C70.0042 42.7862 70.0435 42.7619 70.0959 42.7432C70.1521 42.7244 70.227 42.7095 70.3206 42.6982C70.4179 42.687 70.5396 42.6814 70.6855 42.6814C70.8278 42.6814 70.9457 42.687 71.0393 42.6982C71.1329 42.7095 71.2078 42.7244 71.2639 42.7432C71.3201 42.7619 71.3594 42.7862 71.3818 42.8162C71.408 42.8461 71.4211 42.8798 71.4211 42.9172V49.7791Z" fill="white"/>
<path d="M79.7036 51.6938C79.7036 51.7313 79.6943 51.7631 79.6755 51.7893C79.6568 51.8155 79.6231 51.8361 79.5745 51.8511C79.5258 51.8698 79.4603 51.8829 79.3779 51.8904C79.2956 51.9016 79.1889 51.9072 79.0579 51.9072C78.9306 51.9072 78.8258 51.9016 78.7434 51.8904C78.6648 51.8829 78.5993 51.8698 78.5469 51.8511C78.4982 51.8361 78.4626 51.8155 78.4402 51.7893C78.4215 51.7631 78.4121 51.7313 78.4121 51.6938V49.9812H73.5774V51.6938C73.5774 51.7313 73.5662 51.7631 73.5437 51.7893C73.525 51.8155 73.4894 51.8361 73.437 51.8511C73.3883 51.8698 73.3228 51.8829 73.2405 51.8904C73.1581 51.9016 73.0533 51.9072 72.926 51.9072C72.7987 51.9072 72.6939 51.9016 72.6116 51.8904C72.5292 51.8829 72.4618 51.8698 72.4094 51.8511C72.3608 51.8361 72.3271 51.8155 72.3083 51.7893C72.2896 51.7631 72.2803 51.7313 72.2803 51.6938V49.0828C72.2728 48.9742 72.2915 48.8975 72.3364 48.8525C72.3851 48.8039 72.4562 48.7795 72.5498 48.7795H72.8867C72.9766 48.6523 73.0608 48.5212 73.1394 48.3865C73.2218 48.2517 73.3004 48.0926 73.3752 47.9092C73.4501 47.722 73.5231 47.5011 73.5942 47.2466C73.6691 46.9883 73.7421 46.6738 73.8132 46.3032C73.8844 45.9326 73.9555 45.4946 74.0266 44.9893C74.1015 44.4801 74.1782 43.8831 74.2568 43.198C74.2793 43.0295 74.3223 42.9079 74.386 42.833C74.4496 42.7544 74.547 42.7151 74.678 42.7151H78.3896C78.5207 42.7151 78.6236 42.7544 78.6985 42.833C78.7734 42.9079 78.8108 43.0239 78.8108 43.1812V48.7795H79.4285C79.5295 48.7795 79.6007 48.8076 79.6418 48.8638C79.683 48.9162 79.7036 48.991 79.7036 49.0884V51.6938ZM77.3396 43.9055H75.6438C75.5764 44.4745 75.509 44.9762 75.4417 45.4104C75.378 45.8409 75.3125 46.219 75.2451 46.5447C75.1815 46.8704 75.116 47.1511 75.0486 47.387C74.9812 47.6228 74.9119 47.8268 74.8408 47.999C74.7734 48.1712 74.7023 48.3191 74.6274 48.4426C74.5526 48.5662 74.4758 48.6785 74.3972 48.7795H77.3396V43.9055Z" fill="white"/>
<path d="M86.6946 49.4309C86.7395 49.5657 86.7676 49.6724 86.7788 49.751C86.79 49.8296 86.7751 49.8895 86.7339 49.9307C86.6927 49.9681 86.6197 49.9906 86.5149 49.998C86.4101 50.0093 86.2659 50.0149 86.0825 50.0149C85.8916 50.0149 85.7419 50.0112 85.6333 50.0037C85.5285 49.9999 85.448 49.9906 85.3918 49.9756C85.3357 49.9569 85.2964 49.9325 85.2739 49.9026C85.2515 49.8726 85.2327 49.8333 85.2178 49.7847L84.7292 48.3247H82.0002L81.5398 49.7454C81.5248 49.7978 81.5042 49.8427 81.478 49.8801C81.4556 49.9138 81.4163 49.9419 81.3601 49.9644C81.3077 49.9831 81.231 49.9962 81.1299 50.0037C81.0326 50.0112 80.9034 50.0149 80.7424 50.0149C80.5702 50.0149 80.4355 50.0093 80.3381 49.998C80.2408 49.9868 80.1734 49.9606 80.136 49.9194C80.0986 49.8745 80.0854 49.8127 80.0967 49.7341C80.1079 49.6555 80.136 49.5507 80.1809 49.4197L82.4214 42.9734C82.4438 42.9097 82.4701 42.8592 82.5 42.8218C82.5299 42.7806 82.5767 42.7507 82.6404 42.7319C82.7078 42.7095 82.7995 42.6964 82.9155 42.6926C83.0316 42.6851 83.1851 42.6814 83.376 42.6814C83.5968 42.6814 83.7728 42.6851 83.9038 42.6926C84.0348 42.6964 84.1359 42.7095 84.207 42.7319C84.2819 42.7507 84.3343 42.7806 84.3643 42.8218C84.3979 42.863 84.426 42.9191 84.4485 42.9902L86.6946 49.4309ZM83.3591 44.1021H83.3535L82.3259 47.1904H84.3867L83.3591 44.1021Z" fill="white"/>
</g>
<defs>
<clipPath id="clip0_355_31429">
<rect width="129" height="60" fill="white" transform="translate(16)"/>
</clipPath>
</defs>
</svg>
