<svg width="119" height="161" viewBox="0 0 119 161" fill="none" xmlns="http://www.w3.org/2000/svg">
<rect x="5.8418" y="11.0078" width="108.159" height="2.64341" fill="#9F9B9B"/>
<rect x="5.8418" y="16.5371" width="108.159" height="2.64341" fill="#9F9B9B"/>
<rect x="5.8418" y="52.582" width="108.159" height="2.64341" fill="#9F9B9B"/>
<rect x="5.8418" y="58.1094" width="108.159" height="2.64341" fill="#9F9B9B"/>
<rect x="2" y="5" width="5.31313" height="155" fill="#AEAEAE"/>
<rect x="2" y="5" width="5.31313" height="6.24806" fill="#AEAEAE"/>
<g clip-path="url(#clip0_355_31212)">
<path d="M116.209 0.619141H16.9165C15.8926 0.619141 15.0625 1.44192 15.0625 2.45688V60.0393C15.0625 61.0543 15.8926 61.877 16.9165 61.877H116.209C117.232 61.877 118.062 61.0543 118.062 60.0393V2.45688C118.062 1.44192 117.232 0.619141 116.209 0.619141Z" fill="white"/>
<path d="M43.284 17.3633C42.9416 17.3633 42.666 17.6365 42.666 17.9759V33.9029C42.666 34.2423 42.9416 34.5155 43.284 34.5155H104.672C105.014 34.5155 105.29 34.2423 105.29 33.9029V17.9759C105.29 17.6365 105.014 17.3633 104.672 17.3633H43.284ZM65.4432 18.4863C66.0087 18.5018 66.4307 18.7117 66.7075 19.1155C66.9843 19.5193 67.1217 20.0242 67.1208 20.6304C67.1217 21.2366 66.9843 21.7414 66.7075 22.1452C66.4307 22.5491 66.0087 22.7589 65.4432 22.7744C64.8776 22.7589 64.457 22.5491 64.1801 22.1452C63.9033 21.7414 63.7646 21.2366 63.7656 20.6304C63.7647 20.0242 63.9033 19.5193 64.1801 19.1155C64.457 18.7117 64.8776 18.5018 65.4432 18.4863ZM69.419 18.4863C69.8075 18.4917 70.1222 18.5959 70.3627 18.799C70.6033 19.0021 70.7865 19.2723 70.9125 19.6094L70.2198 19.8646C70.1427 19.6115 70.0377 19.4286 69.9044 19.3159C69.7711 19.2031 69.6098 19.1478 69.419 19.15C69.1303 19.1542 68.8965 19.2861 68.7173 19.5456C68.5381 19.8051 68.4458 20.1667 68.4405 20.6304C68.4458 21.0941 68.5381 21.4556 68.7173 21.7151C68.8965 21.9746 69.1303 22.1065 69.419 22.1108C69.6098 22.1129 69.7711 22.0576 69.9044 21.9449C70.0377 21.8321 70.1427 21.6492 70.2198 21.3961L70.9125 21.6513C70.7865 21.9885 70.6033 22.2586 70.3627 22.4617C70.1222 22.6649 69.8075 22.7691 69.419 22.7744C68.8534 22.7591 68.4315 22.5498 68.1547 22.1465C67.8779 21.7432 67.7404 21.2378 67.7414 20.6304C67.7405 20.023 67.8779 19.5176 68.1547 19.1142C68.4315 18.7109 68.8534 18.5017 69.419 18.4863ZM74.4801 18.4863L74.6346 19.201C74.4445 19.204 74.3021 19.2526 74.2085 19.3465C74.1148 19.4404 74.0169 19.5619 73.9136 19.7115C73.8103 19.8534 73.6905 20.0042 73.5544 20.1646C73.4183 20.3249 73.2978 20.4124 73.1926 20.4262C73.4407 20.4573 73.6278 20.5532 73.754 20.7146C73.8802 20.876 74.002 21.0694 74.1196 21.294C74.2672 21.5611 74.4141 21.8209 74.56 22.0738C74.7058 22.3266 74.868 22.5262 75.0466 22.6723H74.1493C74.074 22.5319 73.956 22.3277 73.7952 22.0597C73.6344 21.7917 73.4849 21.5365 73.3471 21.294C73.2597 21.1319 73.1635 21.0061 73.06 20.9175C72.9565 20.829 72.8295 20.7847 72.6776 20.7835C72.6196 20.7844 72.5553 20.7886 72.4845 20.795C72.4138 20.8014 72.3751 20.8043 72.3686 20.8052V22.6723H71.6476V18.5884H72.3686V20.1122C72.3748 20.1169 72.3813 20.1203 72.388 20.1224C72.3946 20.1246 72.4053 20.1268 72.4201 20.1275C72.6687 20.123 72.8814 19.9943 73.0575 19.7434C73.2336 19.4925 73.4263 19.2346 73.6368 18.9675C73.8472 18.7004 74.1285 18.5396 74.4801 18.4863ZM84.5574 18.4863C84.946 18.4917 85.2606 18.5959 85.5011 18.799C85.7417 19.0021 85.925 19.2723 86.0509 19.6094L85.3595 19.8646C85.2824 19.6115 85.1761 19.4286 85.0428 19.3159C84.9095 19.2031 84.7483 19.1478 84.5574 19.15C84.2688 19.1542 84.0349 19.2861 83.8557 19.5456C83.6765 19.8051 83.5843 20.1667 83.5789 20.6304C83.5843 21.0941 83.6765 21.4556 83.8557 21.7151C84.0349 21.9746 84.2688 22.1065 84.5574 22.1108C84.7483 22.1129 84.9095 22.0576 85.0428 21.9449C85.1761 21.8321 85.2824 21.6492 85.3595 21.3961L86.0509 21.6513C85.925 21.9885 85.7417 22.2586 85.5011 22.4617C85.2606 22.6649 84.946 22.7691 84.5574 22.7744C83.9918 22.7591 83.5699 22.5498 83.2931 22.1465C83.0162 21.7432 82.8789 21.2378 82.8798 20.6304C82.8789 20.023 83.0162 19.5176 83.2931 19.1142C83.5699 18.7109 83.9918 18.5017 84.5574 18.4863ZM95.9222 18.4863C96.3107 18.4917 96.6254 18.5959 96.8659 18.799C97.1065 19.0021 97.2897 19.2723 97.4157 19.6094L96.7243 19.8646C96.6471 19.6115 96.5409 19.4286 96.4076 19.3159C96.2743 19.2031 96.113 19.1478 95.9222 19.15C95.6336 19.1542 95.3996 19.2861 95.2205 19.5456C95.0413 19.8051 94.949 20.1667 94.9437 20.6304C94.949 21.0941 95.0413 21.4556 95.2205 21.7151C95.3996 21.9746 95.6335 22.1065 95.9222 22.1108C96.113 22.1129 96.2743 22.0576 96.4076 21.9449C96.5409 21.8321 96.6471 21.6492 96.7243 21.3961L97.4157 21.6513C97.2897 21.9885 97.1065 22.2586 96.8659 22.4617C96.6254 22.6649 96.3107 22.7691 95.9222 22.7744C95.3566 22.7591 94.9347 22.5498 94.6578 22.1465C94.381 21.7432 94.2437 21.2378 94.2446 20.6304C94.2436 20.023 94.381 19.5176 94.6578 19.1142C94.9347 18.7109 95.3566 18.5017 95.9222 18.4863ZM100.983 18.4863L101.138 19.201C100.948 19.204 100.805 19.2526 100.712 19.3465C100.618 19.4404 100.52 19.5619 100.417 19.7115C100.314 19.8534 100.194 20.0042 100.058 20.1646C99.9215 20.3249 99.801 20.4124 99.6958 20.4262C99.9439 20.4573 100.131 20.5532 100.257 20.7146C100.383 20.876 100.505 21.0694 100.623 21.294C100.77 21.5611 100.917 21.8209 101.063 22.0738C101.209 22.3266 101.371 22.5262 101.55 22.6723H100.652C100.577 22.5319 100.459 22.3277 100.298 22.0597C100.138 21.7917 99.9881 21.5365 99.8503 21.294C99.7628 21.1319 99.6667 21.0061 99.5632 20.9175C99.4597 20.829 99.3326 20.7847 99.1808 20.7835C99.1227 20.7844 99.0585 20.7886 98.9877 20.795C98.917 20.8014 98.8782 20.8043 98.8718 20.8052V22.6723H98.1508V18.5884H98.8718V20.1122C98.878 20.1169 98.8845 20.1203 98.8911 20.1224C98.8978 20.1246 98.9084 20.1268 98.9233 20.1275C99.1719 20.123 99.3845 19.9943 99.5606 19.7434C99.7368 19.4925 99.9296 19.2346 100.14 18.9675C100.35 18.7004 100.632 18.5396 100.983 18.4863ZM60.176 18.5884H61.7725C62.1608 18.6015 62.459 18.7207 62.666 18.9471C62.8731 19.1734 62.9769 19.4286 62.9789 19.7115C62.9769 19.87 62.9246 20.0252 62.8205 20.1773C62.7165 20.3294 62.5728 20.4464 62.3905 20.5283C62.6008 20.6048 62.7725 20.7197 62.9055 20.8728C63.0386 21.026 63.1072 21.2174 63.1115 21.4471C63.1038 21.7885 62.9779 22.0757 62.733 22.3086C62.4881 22.5415 62.1705 22.6627 61.7802 22.6723H60.176V18.5884ZM75.6737 18.5884H77.0642C77.5727 18.6118 77.9332 18.7692 78.1457 19.0606C78.3581 19.352 78.4611 19.6371 78.4547 19.9157C78.4482 20.1943 78.3195 20.4794 78.0684 20.7708C77.8174 21.0622 77.4826 21.2196 77.0642 21.2429H76.3947V22.6723H75.6737V18.5884ZM79.4473 18.5884H82.0223V19.2521H80.1683V20.222H81.6618V20.8346H80.1683V22.0597H82.0738V22.6723H79.4473V18.5884ZM86.8376 18.5884H89.4126V19.2521H87.5586V20.222H89.0521V20.8346H87.5586V22.0597H89.4641V22.6723H86.8376V18.5884ZM90.4529 18.5884H91.1739V20.222H92.7189V18.5884H93.4399V22.6723H92.7189V20.8346H91.1739V22.6723H90.4529V18.5884ZM65.4432 19.15C65.1545 19.1542 64.9207 19.2861 64.7415 19.5456C64.5623 19.8051 64.47 20.1667 64.4647 20.6304C64.47 21.0941 64.5623 21.4556 64.7415 21.7151C64.9207 21.9746 65.1545 22.1065 65.4432 22.1108C65.7318 22.1065 65.9657 21.9746 66.1449 21.7151C66.324 21.4556 66.4163 21.0941 66.4217 20.6304C66.4163 20.1667 66.324 19.8051 66.1449 19.5456C65.9657 19.2861 65.7318 19.1542 65.4432 19.15ZM60.897 19.201V20.2513H61.721C61.8777 20.2486 62.0021 20.199 62.0944 20.1033C62.1867 20.0076 62.2339 19.8814 62.236 19.7255C62.2306 19.5473 62.177 19.4161 62.0751 19.3299C61.9731 19.2438 61.8551 19.2006 61.721 19.201H60.897ZM76.3947 19.201V20.6304H76.8582C77.0728 20.6325 77.2616 20.5772 77.4247 20.4645C77.5878 20.3517 77.6736 20.1688 77.6822 19.9157C77.6736 19.6626 77.5878 19.4797 77.4247 19.3669C77.2616 19.2542 77.0728 19.1989 76.8582 19.201H76.3947ZM60.897 20.8346V22.0597H61.7725C61.9785 22.0524 62.133 21.9872 62.236 21.8632C62.339 21.7392 62.3905 21.6003 62.3905 21.4471C62.3905 21.294 62.339 21.1551 62.236 21.0311C62.133 20.9071 61.9785 20.8419 61.7725 20.8346H60.897ZM44.726 22.8765H57.086C57.6566 22.8765 58.116 23.3318 58.116 23.8975V27.9813C58.116 28.5469 57.6566 29.0023 57.086 29.0023H44.726C44.1554 29.0023 43.696 28.5469 43.696 27.9813V23.8975C43.696 23.3318 44.1554 22.8765 44.726 22.8765ZM69.11 23.8426C69.1618 23.8432 69.2105 23.8531 69.2568 23.8719C69.3031 23.8908 69.3445 23.9149 69.3816 23.9447C69.4077 23.959 69.4406 24.0015 69.4795 24.0723C69.5184 24.1431 69.5399 24.2651 69.5439 24.4398C69.5209 24.6972 69.4293 24.8972 69.2683 25.0397C69.1074 25.1822 69.0145 25.2545 68.9915 25.2566L68.94 25.1328C68.9535 25.1299 69.0078 25.0867 69.1023 25.0027C69.1967 24.9186 69.251 24.8116 69.2645 24.681V24.63C69.2419 24.6408 69.2169 24.6486 69.1898 24.653C69.1627 24.6574 69.1362 24.6595 69.11 24.6594C68.993 24.6565 68.8951 24.6161 68.8177 24.5394C68.7403 24.4627 68.7009 24.3669 68.698 24.251C68.7009 24.135 68.7403 24.038 68.8177 23.9613C68.8951 23.8845 68.993 23.8455 69.11 23.8426ZM70.082 23.8426C70.1338 23.8432 70.1825 23.8531 70.2288 23.8719C70.2751 23.8908 70.3166 23.9149 70.3537 23.9447C70.3798 23.959 70.4126 24.0015 70.4516 24.0723C70.4905 24.1431 70.5119 24.2651 70.5159 24.4398C70.4929 24.6972 70.4014 24.8972 70.2404 25.0397C70.0795 25.1822 69.9879 25.2545 69.9649 25.2566L69.9134 25.1328C69.9269 25.1299 69.9799 25.0867 70.0743 25.0027C70.1687 24.9186 70.2231 24.8116 70.2365 24.681V24.63C70.214 24.6408 70.189 24.6486 70.1619 24.653C70.1347 24.6574 70.1082 24.6595 70.082 24.6594C69.9651 24.6565 69.8685 24.6161 69.7911 24.5394C69.7137 24.4627 69.673 24.3669 69.67 24.251C69.673 24.135 69.7137 24.038 69.7911 23.9613C69.8685 23.8845 69.9651 23.8455 70.082 23.8426ZM85.944 23.8426C85.9958 23.8432 86.0445 23.8531 86.0908 23.8719C86.1371 23.8908 86.1786 23.9149 86.2157 23.9447C86.2418 23.959 86.2746 24.0015 86.3136 24.0723C86.3525 24.1431 86.3739 24.2651 86.3779 24.4398C86.3549 24.6972 86.2621 24.8972 86.1011 25.0397C85.9402 25.1822 85.8486 25.2545 85.8256 25.2566L85.7741 25.1328C85.7876 25.1299 85.8419 25.0867 85.9363 25.0027C86.0307 24.9186 86.0851 24.8116 86.0985 24.681V24.63C86.076 24.6408 86.051 24.6486 86.0239 24.653C85.9967 24.6574 85.9702 24.6595 85.944 24.6594C85.8271 24.6565 85.7292 24.6161 85.6518 24.5394C85.5744 24.4627 85.535 24.3669 85.532 24.251C85.535 24.135 85.5744 24.038 85.6518 23.9613C85.7292 23.8845 85.8271 23.8455 85.944 23.8426ZM86.9161 23.8426C86.9679 23.8432 87.0166 23.8531 87.0629 23.8719C87.1092 23.8908 87.1507 23.9149 87.1878 23.9447C87.2138 23.959 87.2467 24.0015 87.2856 24.0723C87.3245 24.1431 87.346 24.2651 87.35 24.4398C87.327 24.6972 87.2341 24.8972 87.0732 25.0397C86.9122 25.1822 86.8207 25.2545 86.7977 25.2566L86.7462 25.1328C86.7596 25.1299 86.814 25.0867 86.9084 25.0027C87.0028 24.9186 87.0571 24.8116 87.0706 24.681V24.63C87.0481 24.6408 87.0231 24.6486 86.9959 24.653C86.9688 24.6574 86.9423 24.6595 86.9161 24.6594C86.7992 24.6565 86.7012 24.6161 86.6238 24.5394C86.5464 24.4627 86.507 24.3669 86.5041 24.251C86.507 24.135 86.5464 24.038 86.6238 23.9613C86.7012 23.8845 86.7992 23.8455 86.9161 23.8426ZM60.4451 24.1016H61.1661L62.0931 26.0925L63.0201 24.1016H63.7411L64.2046 28.1855H63.4321L63.1746 25.1737L62.0931 27.5729L61.0116 25.1737L60.7541 28.1855H59.9816L60.4451 24.1016ZM64.6694 24.1016H67.0384L66.8324 24.7653H65.3389V25.7352C65.4197 25.6352 65.5218 25.5672 65.644 25.531C65.7662 25.4948 65.8871 25.4778 66.0084 25.48C66.3077 25.4821 66.5845 25.5927 66.8388 25.8118C67.0931 26.0308 67.2283 26.3456 67.2444 26.7562C67.239 27.1752 67.0952 27.524 66.8131 27.8026C66.5309 28.0813 66.1425 28.2259 65.6479 28.2366C65.4043 28.228 65.1833 28.194 64.9848 28.1345C64.7863 28.0749 64.6812 28.0409 64.6694 28.0324L64.5664 27.3687C64.6954 27.4506 64.8484 27.5053 65.0235 27.5334C65.1985 27.5615 65.3717 27.5749 65.5449 27.5729C65.7638 27.5729 65.9698 27.5091 66.1629 27.3815C66.356 27.2539 66.459 27.0624 66.4719 26.8072C66.4708 26.619 66.4086 26.4467 66.2852 26.2903C66.1618 26.134 65.9837 26.0511 65.7509 26.0415C65.5964 26.0511 65.4676 26.0957 65.3646 26.1755C65.2616 26.2552 65.1844 26.3127 65.1329 26.3478L64.6694 26.0925V24.1016ZM70.6962 24.1016H71.4687L72.4472 26.2457L73.2712 24.1016H74.0437L72.7047 27.5219C72.6207 27.718 72.4836 27.8784 72.294 28.0043C72.1043 28.1302 71.9153 28.1953 71.7262 28.1995C71.6242 28.1994 71.5449 28.1971 71.488 28.1906C71.4311 28.1841 71.3903 28.1749 71.3657 28.1638L71.2112 27.5219C71.2154 27.524 71.2584 27.5325 71.3399 27.5474C71.4214 27.5623 71.5159 27.5708 71.6232 27.5729C71.756 27.5655 71.87 27.5166 71.9657 27.4262C72.0613 27.3358 72.1118 27.2486 72.1163 27.1645C72.1089 27.1115 72.0354 26.93 71.8948 26.6209C71.7543 26.3118 71.5905 25.9637 71.4056 25.5757C71.2207 25.1876 71.0581 24.8485 70.9176 24.5585C70.7771 24.2686 70.7036 24.1164 70.6962 24.1016ZM74.5188 24.1016H75.9093C76.4178 24.125 76.7783 24.2824 76.9908 24.5738C77.2032 24.8652 77.3062 25.1503 77.2998 25.4289C77.2933 25.7075 77.1646 25.9926 76.9135 26.284C76.6625 26.5754 76.3277 26.7328 75.9093 26.7562H75.2398V28.1855H74.5188V24.1016ZM79.2671 24.1016H80.0911L81.4301 28.1855H80.6576L80.4001 27.3687H78.9581L78.7006 28.1855H77.9281L79.2671 24.1016ZM82.6159 24.1016H85.1909V28.1855H84.4699V24.7142H83.3369C83.3373 24.73 83.3373 24.8687 83.3356 25.1303C83.334 25.3918 83.3287 25.6811 83.3214 25.9994C83.3141 26.3176 83.3022 26.5702 83.2854 26.7562C83.2219 27.225 83.0809 27.5693 82.8605 27.7886C82.64 28.0079 82.4273 28.148 82.2232 28.2085C82.0191 28.269 81.9093 28.2952 81.8949 28.2876L81.7777 27.6023C81.7856 27.6035 81.8466 27.5812 81.9605 27.5346C82.0745 27.4881 82.1939 27.4101 82.3185 27.3011C82.443 27.1921 82.5246 27.0442 82.5644 26.8583C82.5812 26.7448 82.5931 26.5289 82.6004 26.2112C82.6077 25.8936 82.613 25.5428 82.6146 25.1571C82.6162 24.7714 82.6162 24.4193 82.6159 24.1016ZM75.2398 24.7142V26.1436H75.7033C75.9178 26.1457 76.1067 26.0904 76.2698 25.9777C76.4328 25.8649 76.5187 25.682 76.5273 25.4289C76.5187 25.1758 76.4328 24.9929 76.2698 24.8801C76.1067 24.7674 75.9178 24.7121 75.7033 24.7142H75.2398ZM79.6791 25.0205L79.1641 26.7562H80.1941L79.6791 25.0205ZM69.4628 29.5128C69.5146 29.5134 69.5632 29.5233 69.6095 29.5421C69.6558 29.561 69.6973 29.5851 69.7344 29.6149C69.7605 29.6291 69.7933 29.6717 69.8323 29.7425C69.8712 29.8133 69.8927 29.9366 69.8966 30.1113C69.8736 30.3687 69.7821 30.5686 69.6211 30.7111C69.4602 30.8536 69.3673 30.926 69.3443 30.9281L69.2928 30.803C69.3063 30.8001 69.3606 30.7569 69.455 30.6728C69.5494 30.5888 69.6038 30.4817 69.6173 30.3512V30.3002C69.5947 30.311 69.5697 30.3188 69.5426 30.3232C69.5154 30.3276 69.489 30.3297 69.4628 30.3295C69.3458 30.3267 69.2479 30.2863 69.1705 30.2096C69.0931 30.1329 69.0537 30.0371 69.0508 29.9211C69.0537 29.8052 69.0931 29.7095 69.1705 29.6327C69.2479 29.556 69.3458 29.5157 69.4628 29.5128ZM70.4348 29.5128C70.4866 29.5134 70.5353 29.5233 70.5816 29.5421C70.6279 29.561 70.6694 29.5851 70.7065 29.6149C70.7325 29.6291 70.7654 29.6717 70.8043 29.7425C70.8433 29.8133 70.8647 29.9366 70.8687 30.1113C70.8457 30.3687 70.7541 30.5686 70.5932 30.7111C70.4322 30.8536 70.3394 30.926 70.3164 30.9281L70.2649 30.803C70.2784 30.8001 70.3327 30.7569 70.4271 30.6728C70.5215 30.5888 70.5758 30.4817 70.5893 30.3512V30.3002C70.5668 30.311 70.5418 30.3188 70.5146 30.3232C70.4875 30.3276 70.461 30.3297 70.4348 30.3295C70.3179 30.3267 70.22 30.2863 70.1426 30.2096C70.0652 30.1329 70.0257 30.0371 70.0228 29.9211C70.0257 29.8052 70.0652 29.7095 70.1426 29.6327C70.22 29.556 70.3179 29.5157 70.4348 29.5128ZM77.0706 29.5128C77.6362 29.5283 78.0568 29.7381 78.3336 30.1419C78.6104 30.5458 78.7491 31.0506 78.7482 31.6568C78.7492 32.263 78.6104 32.7678 78.3336 33.1716C78.0568 33.5755 77.6362 33.7853 77.0706 33.8008C76.505 33.7853 76.0831 33.5755 75.8063 33.1716C75.5295 32.7678 75.392 32.263 75.393 31.6568C75.392 31.0506 75.5295 30.5458 75.8063 30.1419C76.0831 29.7381 76.505 29.5283 77.0706 29.5128ZM83.4888 29.5128C83.5406 29.5134 83.5893 29.5233 83.6356 29.5421C83.6818 29.561 83.7234 29.5851 83.7604 29.6149C83.7865 29.6291 83.8194 29.6717 83.8583 29.7425C83.8972 29.8133 83.9187 29.9366 83.9227 30.1113C83.8997 30.3687 83.8081 30.5686 83.6471 30.7111C83.4862 30.8536 83.3946 30.926 83.3716 30.9281L83.3201 30.803C83.3336 30.8001 83.3866 30.7569 83.4811 30.6728C83.5755 30.5888 83.6298 30.4817 83.6433 30.3512V30.3002C83.6207 30.311 83.5957 30.3188 83.5686 30.3232C83.5415 30.3276 83.515 30.3297 83.4888 30.3295C83.3718 30.3267 83.2752 30.2863 83.1978 30.2096C83.1204 30.1329 83.0797 30.0371 83.0768 29.9211C83.0797 29.8052 83.1204 29.7095 83.1978 29.6327C83.2752 29.556 83.3718 29.5157 83.4888 29.5128ZM84.4608 29.5128C84.5126 29.5134 84.5613 29.5233 84.6076 29.5421C84.6539 29.561 84.6967 29.5851 84.7338 29.6149C84.7598 29.6291 84.7914 29.6717 84.8304 29.7425C84.8693 29.8133 84.8907 29.9366 84.8947 30.1113C84.8717 30.3687 84.7801 30.5686 84.6192 30.7111C84.4583 30.8536 84.3667 30.926 84.3437 30.9281L84.2922 30.803C84.3057 30.8001 84.3587 30.7569 84.4531 30.6728C84.5475 30.5888 84.6019 30.4817 84.6153 30.3512V30.3002C84.5928 30.311 84.5678 30.3188 84.5407 30.3232C84.5135 30.3276 84.487 30.3297 84.4608 30.3295C84.3439 30.3267 84.2473 30.2863 84.1699 30.2096C84.0925 30.1329 84.0518 30.0371 84.0488 29.9211C84.0518 29.8052 84.0925 29.7095 84.1699 29.6327C84.2473 29.556 84.3439 29.5157 84.4608 29.5128ZM60.4335 29.6149H61.1545L62.0815 31.6057L63.0085 29.6149H63.7295L64.193 33.6987H63.4205L63.163 30.6869L62.0815 33.0861L61 30.6869L60.7425 33.6987H59.97L60.4335 29.6149ZM66.544 29.6149H67.162V32.2694H67.7285L67.4929 32.8819H67.2135V33.6987H66.4925V32.8819H64.5355V32.2694L66.544 29.6149ZM72.0931 29.6149H74.5136V29.9211V33.0861H74.9771V34.4134H74.3591V33.6987H71.7841V34.4134H71.1661V33.0861H71.6296C71.7002 32.9084 71.7702 32.6587 71.8408 32.337C71.9113 32.0153 71.9708 31.6675 72.0184 31.2931C72.0661 30.9187 72.0912 30.5632 72.0931 30.2274V29.6149ZM79.4769 29.6149H80.1979V31.2484H81.7429V29.6149H82.4639V33.6987H81.7429V31.861H80.1979V33.6987H79.4769V29.6149ZM77.0706 30.1764C76.782 30.1806 76.5481 30.3125 76.3689 30.572C76.1897 30.8315 76.0975 31.1931 76.0921 31.6568C76.0975 32.1205 76.1897 32.4821 76.3689 32.7416C76.5481 33.0011 76.782 33.1329 77.0706 33.1372C77.3592 33.1329 77.5931 33.0011 77.7723 32.7416C77.9514 32.4821 78.0437 32.1205 78.0491 31.6568C78.0437 31.1931 77.9514 30.8315 77.7723 30.572C77.5931 30.3125 77.3592 30.1806 77.0706 30.1764ZM72.8141 30.2274C72.8114 30.7294 72.7656 31.2442 72.6764 31.7716C72.5872 32.2991 72.4713 32.7373 72.3287 33.0861H73.7926V30.2274H72.8141ZM66.4925 30.6869L65.308 32.2694H66.4925V30.6869Z" fill="#0D69E1"/>
<path d="M37.7235 4.08984C37.3811 4.08984 37.1055 4.36305 37.1055 4.70242V8.78628C37.1055 9.12565 37.3811 9.39886 37.7235 9.39886H48.0235C48.3658 9.39886 48.6415 9.12565 48.6415 8.78628V4.70242C48.6415 4.36305 48.3658 4.08984 48.0235 4.08984H37.7235ZM45.0069 4.89768C45.2691 4.90332 45.5052 4.9937 45.7163 5.16824C45.9274 5.34278 46.0387 5.56747 46.051 5.84335C46.0524 6.05918 46.0292 6.22593 45.9802 6.34362C45.9312 6.46133 45.8485 6.58665 45.733 6.71883C45.588 6.89766 45.4137 7.08889 45.2103 7.29185C45.0069 7.49481 44.7882 7.7174 44.5524 7.96058H46.051C46.051 8.03002 46.0403 8.11643 46.0175 8.21965C45.9948 8.32287 45.96 8.43187 45.9145 8.54636H43.7335V8.00524C43.9818 7.78151 44.2142 7.55817 44.4301 7.33524C44.6459 7.1123 44.8555 6.88081 45.0584 6.64098C45.1709 6.51765 45.2623 6.39799 45.3326 6.28109C45.4029 6.1642 45.4386 6.01816 45.4407 5.84335C45.4387 5.72525 45.3916 5.61908 45.2978 5.5243C45.2041 5.42953 45.0765 5.37921 44.9154 5.37371C44.7801 5.37921 44.6527 5.42953 44.5343 5.5243C44.416 5.61908 44.3007 5.72525 44.188 5.84335L43.8249 5.43752C43.9594 5.27987 44.1217 5.15184 44.3129 5.0521C44.5041 4.95237 44.7361 4.9009 45.0069 4.89768ZM40.1028 4.94235H40.7388L41.5564 6.69969L42.3739 4.94235H43.0112L43.4194 8.54636H42.7383L42.5104 5.88802L41.5564 8.00524L40.6023 5.88802L40.3757 8.54636H39.6933L40.1028 4.94235Z" fill="#0D69E1"/>
<path d="M116.208 0.660156H16.9163C15.9151 0.660156 15.1035 1.46465 15.1035 2.45705V60.0396C15.1035 61.032 15.9151 61.8365 16.9163 61.8365H116.208C117.21 61.8365 118.021 61.032 118.021 60.0396V2.45705C118.021 1.46465 117.21 0.660156 116.208 0.660156Z" stroke="black" stroke-width="1.99787"/>
<path fill-rule="evenodd" clip-rule="evenodd" d="M44.8602 17.8691C43.954 17.8691 43.2194 18.6038 43.2194 19.51V32.8749C43.2194 33.7811 43.954 34.5157 44.8602 34.5157H100.703C101.609 34.5157 102.344 33.7811 102.344 32.8749V19.51C102.344 18.6038 101.609 17.8691 100.703 17.8691H44.8602ZM43.284 35.945C42.9416 35.945 42.666 36.2183 42.666 36.5576V52.4847C42.666 52.8241 42.9416 53.0973 43.284 53.0973H104.672C105.014 53.0973 105.29 52.8241 105.29 52.4847V36.5576C105.29 36.2183 105.014 35.945 104.672 35.945H43.284Z" fill="#0D69E1"/>
<path fill-rule="evenodd" clip-rule="evenodd" d="M15.5566 2.45705C15.5566 1.71044 16.163 1.10938 16.9162 1.10938H116.208C116.961 1.10938 117.568 1.71044 117.568 2.45705V60.0395C117.568 60.7861 116.961 61.3871 116.208 61.3871H26.1695V50.4552C26.1695 49.4222 26.7257 48.4665 27.6282 47.95L35.7253 43.3161L37.1763 45.8059L41.7083 38.0249H32.6443L34.0941 40.5148L26.1695 45.0517V23.9598C26.1695 22.363 27.476 21.068 29.087 21.068L35.0391 21.142C36.6501 21.142 37.9553 22.437 37.9553 24.0339C37.9553 25.0669 37.4003 26.0213 36.4978 26.5378L35.0481 24.0479L30.5161 31.8289H39.5801L38.1291 29.3391C40.0412 28.2448 41.2191 26.2224 41.2191 24.0339C41.2191 20.6507 38.4522 17.9081 35.0391 17.9081L29.087 17.8341C28.0319 17.8341 27.0385 18.0956 26.1695 18.5577V10.6809H29.0702L24.5382 2.89989L20.0062 10.6809H22.907V61.3871H16.9162C16.163 61.3871 15.5566 60.7861 15.5566 60.0395V2.45705ZM104.672 16.9547H43.2842C42.7136 16.9547 42.2542 17.4101 42.2542 17.9757V33.9028C42.2542 34.4684 42.7136 34.9237 43.2842 34.9237H104.672C105.243 34.9237 105.702 34.4684 105.702 33.9028V17.9757C105.702 17.4101 105.243 16.9547 104.672 16.9547ZM104.672 35.5363H43.2842C42.7136 35.5363 42.2542 35.9917 42.2542 36.5573V52.4843C42.2542 53.0499 42.7136 53.5053 43.2842 53.5053H104.672C105.243 53.5053 105.702 53.0499 105.702 52.4843V36.5573C105.702 35.9917 105.243 35.5363 104.672 35.5363Z" fill="#00A500"/>
<path d="M63.3361 20.8729L61.9642 22.6828L62.9035 23.9545H63.7477V25.738H62.9773V24.6404H62.5024L61.1358 22.7303V24.6404H60.339V20.8729H61.1358V22.6986L62.4866 20.8729H63.3361Z" fill="white"/>
<path d="M67.3889 24.3518C67.4125 24.4225 67.4272 24.4785 67.4331 24.5197C67.439 24.5609 67.4311 24.5923 67.4095 24.6139C67.3879 24.6335 67.3497 24.6453 67.2947 24.6492C67.2397 24.6551 67.1641 24.6581 67.068 24.6581C66.9678 24.6581 66.8893 24.6561 66.8324 24.6522C66.7774 24.6502 66.7352 24.6453 66.7058 24.6375C66.6763 24.6277 66.6557 24.6149 66.6439 24.5992C66.6322 24.5835 66.6223 24.5629 66.6145 24.5374L66.3583 23.7718H64.9273L64.6858 24.5167C64.678 24.5442 64.6672 24.5678 64.6534 24.5874C64.6416 24.6051 64.621 24.6198 64.5916 24.6316C64.5641 24.6414 64.5239 24.6483 64.4709 24.6522C64.4198 24.6561 64.3521 24.6581 64.2677 24.6581C64.1774 24.6581 64.1067 24.6551 64.0557 24.6492C64.0046 24.6434 63.9693 24.6296 63.9497 24.608C63.93 24.5845 63.9232 24.5521 63.9291 24.5109C63.935 24.4696 63.9497 24.4147 63.9732 24.346L65.1481 20.9656C65.1599 20.9322 65.1736 20.9057 65.1893 20.8861C65.205 20.8645 65.2296 20.8488 65.2629 20.839C65.2983 20.8272 65.3464 20.8204 65.4072 20.8184C65.4681 20.8145 65.5486 20.8125 65.6487 20.8125C65.7645 20.8125 65.8568 20.8145 65.9255 20.8184C65.9942 20.8204 66.0472 20.8272 66.0845 20.839C66.1237 20.8488 66.1512 20.8645 66.1669 20.8861C66.1846 20.9077 66.1993 20.9372 66.2111 20.9745L67.3889 24.3518ZM65.6398 21.5575H65.6369L65.0981 23.177H66.1787L65.6398 21.5575Z" fill="white"/>
<path d="M70.5337 21.9874C70.5337 22.2013 70.5003 22.3908 70.4336 22.5557C70.3668 22.7206 70.2697 22.8599 70.1421 22.9738C70.0145 23.0857 69.8574 23.1711 69.6709 23.23C69.4864 23.2889 69.2685 23.3183 69.0172 23.3183H68.6992V24.5344C68.6992 24.554 68.6924 24.5717 68.6786 24.5874C68.6668 24.6031 68.6462 24.6159 68.6168 24.6257C68.5873 24.6355 68.5481 24.6434 68.499 24.6492C68.4499 24.6551 68.3871 24.6581 68.3106 24.6581C68.236 24.6581 68.1731 24.6551 68.1221 24.6492C68.073 24.6434 68.0338 24.6355 68.0043 24.6257C67.9749 24.6159 67.9543 24.6031 67.9425 24.5874C67.9307 24.5717 67.9248 24.554 67.9248 24.5344V21.107C67.9248 21.0147 67.9484 20.946 67.9955 20.9008C68.0446 20.8537 68.1084 20.8302 68.1869 20.8302H69.085C69.1753 20.8302 69.2607 20.8341 69.3411 20.8419C69.4236 20.8478 69.5217 20.8626 69.6356 20.8861C69.7495 20.9077 69.8643 20.9489 69.9801 21.0098C70.0979 21.0706 70.198 21.1482 70.2805 21.2424C70.3629 21.3347 70.4257 21.4436 70.4689 21.5692C70.5121 21.6929 70.5337 21.8323 70.5337 21.9874ZM69.7239 22.0433C69.7239 21.9098 69.7004 21.7999 69.6533 21.7135C69.6062 21.6272 69.5482 21.5634 69.4795 21.5221C69.4108 21.4809 69.3382 21.4554 69.2616 21.4456C69.187 21.4338 69.1095 21.4279 69.029 21.4279H68.6992V22.7206H69.0467C69.1704 22.7206 69.2734 22.7039 69.3559 22.6705C69.4403 22.6371 69.509 22.591 69.562 22.5321C69.615 22.4713 69.6552 22.3996 69.6827 22.3172C69.7102 22.2328 69.7239 22.1415 69.7239 22.0433Z" fill="white"/>
<path d="M73.9199 24.3518C73.9435 24.4225 73.9582 24.4785 73.9641 24.5197C73.97 24.5609 73.9621 24.5923 73.9405 24.6139C73.9189 24.6335 73.8807 24.6453 73.8257 24.6492C73.7707 24.6551 73.6952 24.6581 73.599 24.6581C73.4989 24.6581 73.4203 24.6561 73.3634 24.6522C73.3084 24.6502 73.2662 24.6453 73.2368 24.6375C73.2073 24.6277 73.1867 24.6149 73.175 24.5992C73.1632 24.5835 73.1534 24.5629 73.1455 24.5374L72.8893 23.7718H71.4583L71.2168 24.5167C71.209 24.5442 71.1982 24.5678 71.1844 24.5874C71.1727 24.6051 71.152 24.6198 71.1226 24.6316C71.0951 24.6414 71.0549 24.6483 71.0019 24.6522C70.9508 24.6561 70.8831 24.6581 70.7987 24.6581C70.7084 24.6581 70.6377 24.6551 70.5867 24.6492C70.5357 24.6434 70.5003 24.6296 70.4807 24.608C70.4611 24.5845 70.4542 24.5521 70.4601 24.5109C70.466 24.4696 70.4807 24.4147 70.5042 24.346L71.6791 20.9656C71.6909 20.9322 71.7046 20.9057 71.7203 20.8861C71.736 20.8645 71.7606 20.8488 71.794 20.839C71.8293 20.8272 71.8774 20.8204 71.9382 20.8184C71.9991 20.8145 72.0796 20.8125 72.1797 20.8125C72.2955 20.8125 72.3878 20.8145 72.4565 20.8184C72.5252 20.8204 72.5782 20.8272 72.6155 20.839C72.6547 20.8488 72.6822 20.8645 72.6979 20.8861C72.7156 20.9077 72.7303 20.9372 72.7421 20.9745L73.9199 24.3518ZM72.1709 21.5575H72.1679L71.6291 23.177H72.7097L72.1709 21.5575Z" fill="white"/>
<path d="M76.8848 20.8729V21.5272H75.3123V22.4506H76.3465V23.1049H75.3123V24.6404H74.5155V23.1049H74.162V22.4506H74.5155V20.8729H76.8848Z" fill="white"/>
<path d="M80.5245 24.3518C80.5481 24.4225 80.5628 24.4785 80.5687 24.5197C80.5746 24.5609 80.5668 24.5923 80.5452 24.6139C80.5236 24.6335 80.4853 24.6453 80.4303 24.6492C80.3754 24.6551 80.2998 24.6581 80.2036 24.6581C80.1035 24.6581 80.025 24.6561 79.968 24.6522C79.9131 24.6502 79.8709 24.6453 79.8414 24.6375C79.812 24.6277 79.7914 24.6149 79.7796 24.5992C79.7678 24.5835 79.758 24.5629 79.7501 24.5374L79.494 23.7718H78.0629L77.8214 24.5167C77.8136 24.5442 77.8028 24.5678 77.7891 24.5874C77.7773 24.6051 77.7567 24.6198 77.7272 24.6316C77.6997 24.6414 77.6595 24.6483 77.6065 24.6522C77.5555 24.6561 77.4877 24.6581 77.4033 24.6581C77.313 24.6581 77.2424 24.6551 77.1913 24.6492C77.1403 24.6434 77.1049 24.6296 77.0853 24.608C77.0657 24.5845 77.0588 24.5521 77.0647 24.5109C77.0706 24.4696 77.0853 24.4147 77.1089 24.346L78.2837 20.9656C78.2955 20.9322 78.3093 20.9057 78.325 20.8861C78.3407 20.8645 78.3652 20.8488 78.3986 20.839C78.4339 20.8272 78.482 20.8204 78.5429 20.8184C78.6037 20.8145 78.6842 20.8125 78.7843 20.8125C78.9001 20.8125 78.9924 20.8145 79.0611 20.8184C79.1298 20.8204 79.1828 20.8272 79.2201 20.839C79.2594 20.8488 79.2869 20.8645 79.3026 20.8861C79.3202 20.9077 79.3349 20.9372 79.3467 20.9745L80.5245 24.3518ZM78.7755 21.5575H78.7725L78.2337 23.177H79.3143L78.7755 21.5575Z" fill="white"/>
<path d="M84.0344 24.5344C84.0344 24.554 84.0276 24.5717 84.0138 24.5874C84.0021 24.6031 83.9814 24.6159 83.952 24.6257C83.9226 24.6355 83.8833 24.6434 83.8342 24.6492C83.7851 24.6551 83.7233 24.6581 83.6487 24.6581C83.5722 24.6581 83.5084 24.6551 83.4573 24.6492C83.4082 24.6434 83.369 24.6355 83.3395 24.6257C83.3121 24.6159 83.2914 24.6031 83.2777 24.5874C83.2659 24.5717 83.26 24.554 83.26 24.5344V22.9944H81.8349V24.5344C81.8349 24.554 81.829 24.5717 81.8172 24.5874C81.8054 24.6031 81.7848 24.6159 81.7554 24.6257C81.7259 24.6355 81.6867 24.6434 81.6376 24.6492C81.5885 24.6551 81.5257 24.6581 81.4491 24.6581C81.3745 24.6581 81.3117 24.6551 81.2607 24.6492C81.2116 24.6434 81.1723 24.6355 81.1429 24.6257C81.1135 24.6159 81.0919 24.6031 81.0781 24.5874C81.0663 24.5717 81.0605 24.554 81.0605 24.5344V20.9362C81.0605 20.9165 81.0663 20.8989 81.0781 20.8832C81.0919 20.8675 81.1135 20.8547 81.1429 20.8449C81.1723 20.8351 81.2116 20.8272 81.2607 20.8213C81.3117 20.8154 81.3745 20.8125 81.4491 20.8125C81.5257 20.8125 81.5885 20.8154 81.6376 20.8213C81.6867 20.8272 81.7259 20.8351 81.7554 20.8449C81.7848 20.8547 81.8054 20.8675 81.8172 20.8832C81.829 20.8989 81.8349 20.9165 81.8349 20.9362V22.3348H83.26V20.9362C83.26 20.9165 83.2659 20.8989 83.2777 20.8832C83.2914 20.8675 83.3121 20.8547 83.3395 20.8449C83.369 20.8351 83.4082 20.8272 83.4573 20.8213C83.5084 20.8154 83.5722 20.8125 83.6487 20.8125C83.7233 20.8125 83.7851 20.8154 83.8342 20.8213C83.8833 20.8272 83.9226 20.8351 83.952 20.8449C83.9814 20.8547 84.0021 20.8675 84.0138 20.8832C84.0276 20.8989 84.0344 20.9165 84.0344 20.9362V24.5344Z" fill="white"/>
<path d="M88.3777 25.5385C88.3777 25.5581 88.3728 25.5748 88.3629 25.5886C88.3531 25.6023 88.3355 25.6131 88.3099 25.6209C88.2844 25.6308 88.2501 25.6376 88.2069 25.6416C88.1637 25.6474 88.1077 25.6504 88.039 25.6504C87.9723 25.6504 87.9173 25.6474 87.8741 25.6416C87.8329 25.6376 87.7986 25.6308 87.7711 25.6209C87.7456 25.6131 87.7269 25.6023 87.7151 25.5886C87.7053 25.5748 87.7004 25.5581 87.7004 25.5385V24.6404H85.1652V25.5385C85.1652 25.5581 85.1593 25.5748 85.1475 25.5886C85.1377 25.6023 85.119 25.6131 85.0915 25.6209C85.066 25.6308 85.0317 25.6376 84.9885 25.6416C84.9453 25.6474 84.8903 25.6504 84.8236 25.6504C84.7568 25.6504 84.7019 25.6474 84.6587 25.6416C84.6155 25.6376 84.5802 25.6308 84.5527 25.6209C84.5272 25.6131 84.5095 25.6023 84.4997 25.5886C84.4899 25.5748 84.485 25.5581 84.485 25.5385V24.1693C84.481 24.1124 84.4909 24.0721 84.5144 24.0486C84.5399 24.023 84.5772 24.0103 84.6263 24.0103H84.803C84.8501 23.9435 84.8943 23.8748 84.9355 23.8042C84.9787 23.7335 85.0199 23.6501 85.0592 23.5539C85.0984 23.4557 85.1367 23.3399 85.174 23.2064C85.2132 23.071 85.2515 22.9061 85.2888 22.7117C85.3261 22.5174 85.3634 22.2877 85.4007 22.0227C85.44 21.7557 85.4802 21.4426 85.5214 21.0834C85.5332 20.9951 85.5558 20.9313 85.5892 20.892C85.6225 20.8508 85.6736 20.8302 85.7423 20.8302H87.6886C87.7573 20.8302 87.8113 20.8508 87.8506 20.892C87.8898 20.9313 87.9095 20.9921 87.9095 21.0746V24.0103H88.2334C88.2864 24.0103 88.3237 24.025 88.3453 24.0544C88.3669 24.0819 88.3777 24.1212 88.3777 24.1722V25.5385ZM87.138 21.4544H86.2487C86.2134 21.7528 86.1781 22.0158 86.1427 22.2436C86.1094 22.4693 86.075 22.6676 86.0397 22.8383C86.0063 23.0091 85.972 23.1564 85.9366 23.28C85.9013 23.4037 85.865 23.5107 85.8277 23.601C85.7923 23.6913 85.755 23.7688 85.7158 23.8336C85.6765 23.8984 85.6363 23.9573 85.5951 24.0103H87.138V21.4544Z" fill="white"/>
<path d="M92.9064 24.5403C92.9064 24.5599 92.8995 24.5776 92.8858 24.5933C92.874 24.607 92.8534 24.6188 92.8239 24.6286C92.7945 24.6385 92.7542 24.6453 92.7032 24.6492C92.6541 24.6551 92.5923 24.6581 92.5177 24.6581C92.4431 24.6581 92.3813 24.6551 92.3322 24.6492C92.2831 24.6453 92.2429 24.6385 92.2115 24.6286C92.182 24.6188 92.1604 24.607 92.1467 24.5933C92.1349 24.5776 92.129 24.5599 92.129 24.5403V20.9303C92.129 20.9107 92.1349 20.894 92.1467 20.8802C92.1604 20.8645 92.182 20.8518 92.2115 20.8419C92.2429 20.8321 92.2831 20.8253 92.3322 20.8213C92.3832 20.8154 92.4451 20.8125 92.5177 20.8125C92.5923 20.8125 92.6541 20.8154 92.7032 20.8213C92.7542 20.8253 92.7945 20.8321 92.8239 20.8419C92.8534 20.8518 92.874 20.8645 92.8858 20.8802C92.8995 20.894 92.9064 20.9107 92.9064 20.9303V24.5403ZM91.6667 23.3831C91.6667 23.5637 91.6383 23.7296 91.5813 23.8807C91.5264 24.0299 91.439 24.1605 91.3193 24.2723C91.1995 24.3842 91.0425 24.4736 90.8481 24.5403C90.6558 24.607 90.3927 24.6404 90.059 24.6404H89.1609C89.1275 24.6404 89.0961 24.6365 89.0667 24.6286C89.0392 24.6188 89.0147 24.6041 88.9931 24.5845C88.9715 24.5629 88.9538 24.5374 88.9401 24.5079C88.9283 24.4765 88.9224 24.4392 88.9224 24.396V20.9303C88.9224 20.9107 88.9283 20.894 88.9401 20.8802C88.9538 20.8645 88.9754 20.8518 89.0048 20.8419C89.0363 20.8321 89.0765 20.8253 89.1256 20.8213C89.1766 20.8154 89.2384 20.8125 89.3111 20.8125C89.3876 20.8125 89.4505 20.8154 89.4995 20.8213C89.5486 20.8253 89.5879 20.8321 89.6173 20.8419C89.6468 20.8518 89.6674 20.8645 89.6791 20.8802C89.6909 20.894 89.6968 20.9107 89.6968 20.9303V22.2465H90.1768C90.4614 22.2465 90.6881 22.271 90.857 22.3201C91.0278 22.3692 91.172 22.4418 91.2898 22.538C91.4096 22.6342 91.5018 22.7539 91.5666 22.8972C91.6333 23.0405 91.6667 23.2025 91.6667 23.3831ZM90.8717 23.4479C90.8717 23.3536 90.858 23.2692 90.8305 23.1946C90.803 23.12 90.7608 23.0562 90.7039 23.0032C90.6469 22.9502 90.5743 22.909 90.486 22.8796C90.3976 22.8501 90.2671 22.8354 90.0943 22.8354H89.6968V24.0456H90.1061C90.2867 24.0456 90.4222 24.0279 90.5125 23.9926C90.6047 23.9553 90.6764 23.9082 90.7274 23.8513C90.7784 23.7924 90.8148 23.7276 90.8364 23.6569C90.8599 23.5863 90.8717 23.5166 90.8717 23.4479Z" fill="white"/>
<path d="M63.1002 30.5678C63.1002 30.5894 63.0943 30.608 63.0825 30.6237C63.0707 30.6375 63.0491 30.6493 63.0177 30.6591C62.9883 30.6689 62.948 30.6758 62.897 30.6797C62.846 30.6856 62.7802 30.6885 62.6997 30.6885C62.6153 30.6885 62.5466 30.6856 62.4936 30.6797C62.4426 30.6758 62.4013 30.6689 62.3699 30.6591C62.3385 30.6473 62.315 30.6326 62.2993 30.6149C62.2836 30.5953 62.2718 30.5717 62.2639 30.5442L61.9577 29.6962C61.9145 29.5725 61.8694 29.4695 61.8222 29.387C61.7751 29.3026 61.7231 29.2349 61.6662 29.1839C61.6093 29.1309 61.5445 29.0936 61.4718 29.072C61.3992 29.0504 61.3177 29.0396 61.2274 29.0396H61.0537V30.5648C61.0537 30.5864 61.0478 30.6051 61.036 30.6208C61.0243 30.6345 61.0037 30.6473 60.9742 30.6591C60.9448 30.6689 60.9055 30.6758 60.8564 30.6797C60.8074 30.6856 60.7445 30.6885 60.668 30.6885C60.5934 30.6885 60.5306 30.6856 60.4795 30.6797C60.4305 30.6758 60.3912 30.6689 60.3617 30.6591C60.3323 30.6473 60.3107 30.6345 60.297 30.6208C60.2852 30.6051 60.2793 30.5864 60.2793 30.5648V26.9637C60.2793 26.9421 60.2852 26.9244 60.297 26.9107C60.3107 26.895 60.3323 26.8822 60.3617 26.8724C60.3912 26.8626 60.4305 26.8557 60.4795 26.8518C60.5306 26.8459 60.5934 26.8429 60.668 26.8429C60.7445 26.8429 60.8074 26.8459 60.8564 26.8518C60.9055 26.8557 60.9448 26.8626 60.9742 26.8724C61.0037 26.8822 61.0243 26.895 61.036 26.9107C61.0478 26.9244 61.0537 26.9421 61.0537 26.9637V28.3947H61.2274C61.3158 28.3947 61.3933 28.3829 61.4601 28.3594C61.5268 28.3358 61.5867 28.2985 61.6397 28.2475C61.6946 28.1964 61.7437 28.1307 61.7869 28.0502C61.8321 27.9678 61.8752 27.8667 61.9165 27.7469L62.1726 26.9872C62.1825 26.9597 62.1942 26.9372 62.208 26.9195C62.2217 26.8999 62.2433 26.8851 62.2728 26.8753C62.3042 26.8635 62.3444 26.8557 62.3935 26.8518C62.4445 26.8459 62.5122 26.8429 62.5967 26.8429C62.6732 26.8429 62.736 26.8459 62.7851 26.8518C62.8361 26.8557 62.8754 26.8626 62.9029 26.8724C62.9323 26.8802 62.952 26.892 62.9618 26.9077C62.9716 26.9215 62.9765 26.9391 62.9765 26.9607C62.9765 26.9862 62.9716 27.0176 62.9618 27.0549C62.9539 27.0922 62.9392 27.1413 62.9176 27.2022L62.6614 27.8794C62.6143 28.0051 62.5672 28.112 62.5201 28.2004C62.473 28.2887 62.4229 28.3643 62.3699 28.4271C62.3189 28.488 62.2639 28.538 62.205 28.5773C62.1481 28.6165 62.0843 28.6489 62.0136 28.6744V28.6774C62.0922 28.7108 62.1628 28.749 62.2256 28.7922C62.2904 28.8335 62.3503 28.8865 62.4053 28.9512C62.4622 29.016 62.5162 29.0955 62.5672 29.1897C62.6183 29.284 62.6703 29.3998 62.7233 29.5372L63.0354 30.3263C63.0668 30.4068 63.0855 30.4628 63.0913 30.4942C63.0972 30.5236 63.1002 30.5482 63.1002 30.5678Z" fill="white"/>
<path d="M66.7985 30.3823C66.8221 30.453 66.8368 30.5089 66.8427 30.5501C66.8486 30.5913 66.8407 30.6228 66.8191 30.6443C66.7975 30.664 66.7593 30.6758 66.7043 30.6797C66.6493 30.6856 66.5738 30.6885 66.4776 30.6885C66.3775 30.6885 66.2989 30.6866 66.242 30.6826C66.187 30.6807 66.1448 30.6758 66.1154 30.6679C66.0859 30.6581 66.0653 30.6453 66.0536 30.6296C66.0418 30.6139 66.032 30.5933 66.0241 30.5678L65.7679 29.8022H64.3369L64.0954 30.5472C64.0876 30.5747 64.0768 30.5982 64.063 30.6178C64.0513 30.6355 64.0307 30.6502 64.0012 30.662C63.9737 30.6718 63.9335 30.6787 63.8805 30.6826C63.8294 30.6866 63.7617 30.6885 63.6773 30.6885C63.587 30.6885 63.5163 30.6856 63.4653 30.6797C63.4143 30.6738 63.3789 30.6601 63.3593 30.6385C63.3397 30.6149 63.3328 30.5825 63.3387 30.5413C63.3446 30.5001 63.3593 30.4451 63.3829 30.3764L64.5577 26.9961C64.5695 26.9627 64.5832 26.9362 64.599 26.9165C64.6147 26.895 64.6392 26.8793 64.6726 26.8694C64.7079 26.8577 64.756 26.8508 64.8168 26.8488C64.8777 26.8449 64.9582 26.8429 65.0583 26.8429C65.1741 26.8429 65.2664 26.8449 65.3351 26.8488C65.4038 26.8508 65.4568 26.8577 65.4941 26.8694C65.5334 26.8793 65.5608 26.895 65.5765 26.9165C65.5942 26.9381 65.6089 26.9676 65.6207 27.0049L66.7985 30.3823ZM65.0495 27.5879H65.0465L64.5077 29.2074H65.5883L65.0495 27.5879Z" fill="white"/>
<path d="M69.9433 28.0178C69.9433 28.2318 69.9099 28.4212 69.8432 28.5861C69.7765 28.751 69.6793 28.8904 69.5517 29.0042C69.4241 29.1161 69.267 29.2015 69.0806 29.2604C68.896 29.3193 68.6781 29.3487 68.4269 29.3487H68.1089V30.5648C68.1089 30.5845 68.102 30.6021 68.0882 30.6178C68.0765 30.6336 68.0559 30.6463 68.0264 30.6561C67.997 30.6659 67.9577 30.6738 67.9086 30.6797C67.8595 30.6856 67.7967 30.6885 67.7202 30.6885C67.6456 30.6885 67.5828 30.6856 67.5317 30.6797C67.4826 30.6738 67.4434 30.6659 67.4139 30.6561C67.3845 30.6463 67.3639 30.6336 67.3521 30.6178C67.3403 30.6021 67.3344 30.5845 67.3344 30.5648V27.1374C67.3344 27.0451 67.358 26.9764 67.4051 26.9313C67.4542 26.8842 67.518 26.8606 67.5965 26.8606H68.4946C68.5849 26.8606 68.6703 26.8645 68.7508 26.8724C68.8332 26.8783 68.9314 26.893 69.0452 26.9165C69.1591 26.9381 69.2739 26.9794 69.3897 27.0402C69.5075 27.1011 69.6076 27.1786 69.6901 27.2728C69.7725 27.3651 69.8353 27.4741 69.8785 27.5997C69.9217 27.7234 69.9433 27.8627 69.9433 28.0178ZM69.1336 28.0738C69.1336 27.9403 69.11 27.8303 69.0629 27.744C69.0158 27.6576 68.9579 27.5938 68.8892 27.5526C68.8205 27.5113 68.7478 27.4858 68.6713 27.476C68.5967 27.4642 68.5191 27.4583 68.4386 27.4583H68.1089V28.751H68.4563C68.58 28.751 68.683 28.7343 68.7655 28.7009C68.8499 28.6676 68.9186 28.6214 68.9716 28.5626C69.0246 28.5017 69.0649 28.43 69.0923 28.3476C69.1198 28.2632 69.1336 28.1719 69.1336 28.0738Z" fill="white"/>
<path d="M73.3295 30.3823C73.3531 30.453 73.3678 30.5089 73.3737 30.5501C73.3796 30.5913 73.3717 30.6228 73.3502 30.6443C73.3286 30.664 73.2903 30.6758 73.2353 30.6797C73.1803 30.6856 73.1048 30.6885 73.0086 30.6885C72.9085 30.6885 72.8299 30.6866 72.773 30.6826C72.7181 30.6807 72.6758 30.6758 72.6464 30.6679C72.617 30.6581 72.5963 30.6453 72.5846 30.6296C72.5728 30.6139 72.563 30.5933 72.5551 30.5678L72.2989 29.8022H70.8679L70.6264 30.5472C70.6186 30.5747 70.6078 30.5982 70.5941 30.6178C70.5823 30.6355 70.5617 30.6502 70.5322 30.662C70.5047 30.6718 70.4645 30.6787 70.4115 30.6826C70.3605 30.6866 70.2927 30.6885 70.2083 30.6885C70.118 30.6885 70.0473 30.6856 69.9963 30.6797C69.9453 30.6738 69.9099 30.6601 69.8903 30.6385C69.8707 30.6149 69.8638 30.5825 69.8697 30.5413C69.8756 30.5001 69.8903 30.4451 69.9139 30.3764L71.0887 26.9961C71.1005 26.9627 71.1143 26.9362 71.13 26.9165C71.1457 26.895 71.1702 26.8793 71.2036 26.8694C71.2389 26.8577 71.287 26.8508 71.3479 26.8488C71.4087 26.8449 71.4892 26.8429 71.5893 26.8429C71.7051 26.8429 71.7974 26.8449 71.8661 26.8488C71.9348 26.8508 71.9878 26.8577 72.0251 26.8694C72.0644 26.8793 72.0918 26.895 72.1076 26.9165C72.1252 26.9381 72.1399 26.9676 72.1517 27.0049L73.3295 30.3823ZM71.5805 27.5879H71.5775L71.0387 29.2074H72.1193L71.5805 27.5879Z" fill="white"/>
<path d="M76.0238 27.1816C76.0238 27.2404 76.0209 27.2905 76.015 27.3317C76.011 27.371 76.0042 27.4034 75.9944 27.4289C75.9845 27.4525 75.9718 27.4701 75.9561 27.4819C75.9423 27.4917 75.9257 27.4966 75.906 27.4966H74.6428V30.5707C74.6428 30.5904 74.6359 30.608 74.6222 30.6237C74.6104 30.6375 74.5898 30.6493 74.5604 30.6591C74.5309 30.6689 74.4917 30.6758 74.4426 30.6797C74.3935 30.6856 74.3307 30.6885 74.2541 30.6885C74.1795 30.6885 74.1167 30.6856 74.0657 30.6797C74.0166 30.6758 73.9773 30.6689 73.9479 30.6591C73.9184 30.6493 73.8969 30.6375 73.8831 30.6237C73.8713 30.608 73.8654 30.5904 73.8654 30.5707V27.105C73.8654 27.0226 73.8861 26.9617 73.9273 26.9224C73.9705 26.8812 74.0264 26.8606 74.0951 26.8606H75.906C75.9453 26.8606 75.9747 26.8851 75.9944 26.9342C76.014 26.9833 76.0238 27.0657 76.0238 27.1816Z" fill="white"/>
<path d="M79.1244 30.3823C79.148 30.453 79.1627 30.5089 79.1686 30.5501C79.1745 30.5913 79.1666 30.6228 79.145 30.6443C79.1234 30.664 79.0852 30.6758 79.0302 30.6797C78.9752 30.6856 78.8996 30.6885 78.8035 30.6885C78.7033 30.6885 78.6248 30.6866 78.5679 30.6826C78.5129 30.6807 78.4707 30.6758 78.4413 30.6679C78.4118 30.6581 78.3912 30.6453 78.3794 30.6296C78.3677 30.6139 78.3578 30.5933 78.35 30.5678L78.0938 29.8022H76.6628L76.4213 30.5472C76.4135 30.5747 76.4027 30.5982 76.3889 30.6178C76.3771 30.6355 76.3565 30.6502 76.3271 30.662C76.2996 30.6718 76.2594 30.6787 76.2064 30.6826C76.1553 30.6866 76.0876 30.6885 76.0032 30.6885C75.9129 30.6885 75.8422 30.6856 75.7912 30.6797C75.7401 30.6738 75.7048 30.6601 75.6852 30.6385C75.6655 30.6149 75.6587 30.5825 75.6646 30.5413C75.6705 30.5001 75.6852 30.4451 75.7087 30.3764L76.8836 26.9961C76.8954 26.9627 76.9091 26.9362 76.9248 26.9165C76.9405 26.895 76.9651 26.8793 76.9984 26.8694C77.0338 26.8577 77.0819 26.8508 77.1427 26.8488C77.2036 26.8449 77.2841 26.8429 77.3842 26.8429C77.5 26.8429 77.5923 26.8449 77.661 26.8488C77.7297 26.8508 77.7827 26.8577 77.82 26.8694C77.8592 26.8793 77.8867 26.895 77.9024 26.9165C77.9201 26.9381 77.9348 26.9676 77.9466 27.0049L79.1244 30.3823ZM77.3754 27.5879H77.3724L76.8336 29.2074H77.9142L77.3754 27.5879Z" fill="white"/>
<path d="M82.6343 30.5648C82.6343 30.5845 82.6274 30.6021 82.6137 30.6178C82.6019 30.6336 82.5813 30.6463 82.5519 30.6561C82.5224 30.6659 82.4832 30.6738 82.4341 30.6797C82.385 30.6856 82.3232 30.6885 82.2486 30.6885C82.172 30.6885 82.1082 30.6856 82.0572 30.6797C82.0081 30.6738 81.9688 30.6659 81.9394 30.6561C81.9119 30.6463 81.8913 30.6336 81.8776 30.6178C81.8658 30.6021 81.8599 30.5845 81.8599 30.5648V29.0248H80.4347V30.5648C80.4347 30.5845 80.4288 30.6021 80.4171 30.6178C80.4053 30.6336 80.3847 30.6463 80.3552 30.6561C80.3258 30.6659 80.2865 30.6738 80.2375 30.6797C80.1884 30.6856 80.1256 30.6885 80.049 30.6885C79.9744 30.6885 79.9116 30.6856 79.8605 30.6797C79.8115 30.6738 79.7722 30.6659 79.7428 30.6561C79.7133 30.6463 79.6917 30.6336 79.678 30.6178C79.6662 30.6021 79.6603 30.5845 79.6603 30.5648V26.9666C79.6603 26.947 79.6662 26.9293 79.678 26.9136C79.6917 26.8979 79.7133 26.8851 79.7428 26.8753C79.7722 26.8655 79.8115 26.8577 79.8605 26.8518C79.9116 26.8459 79.9744 26.8429 80.049 26.8429C80.1256 26.8429 80.1884 26.8459 80.2375 26.8518C80.2865 26.8577 80.3258 26.8655 80.3552 26.8753C80.3847 26.8851 80.4053 26.8979 80.4171 26.9136C80.4288 26.9293 80.4347 26.947 80.4347 26.9666V28.3653H81.8599V26.9666C81.8599 26.947 81.8658 26.9293 81.8776 26.9136C81.8913 26.8979 81.9119 26.8851 81.9394 26.8753C81.9688 26.8655 82.0081 26.8577 82.0572 26.8518C82.1082 26.8459 82.172 26.8429 82.2486 26.8429C82.3232 26.8429 82.385 26.8459 82.4341 26.8518C82.4832 26.8577 82.5224 26.8655 82.5519 26.8753C82.5813 26.8851 82.6019 26.8979 82.6137 26.9136C82.6274 26.9293 82.6343 26.947 82.6343 26.9666V30.5648Z" fill="white"/>
<path d="M86.9775 31.5689C86.9775 31.5886 86.9726 31.6053 86.9628 31.619C86.953 31.6327 86.9353 31.6435 86.9098 31.6514C86.8843 31.6612 86.8499 31.6681 86.8067 31.672C86.7636 31.6779 86.7076 31.6808 86.6389 31.6808C86.5722 31.6808 86.5172 31.6779 86.474 31.672C86.4328 31.6681 86.3984 31.6612 86.3709 31.6514C86.3454 31.6435 86.3268 31.6327 86.315 31.619C86.3052 31.6053 86.3003 31.5886 86.3003 31.5689V30.6708H83.765V31.5689C83.765 31.5886 83.7591 31.6053 83.7474 31.619C83.7375 31.6327 83.7189 31.6435 83.6914 31.6514C83.6659 31.6612 83.6315 31.6681 83.5883 31.672C83.5452 31.6779 83.4902 31.6808 83.4235 31.6808C83.3567 31.6808 83.3017 31.6779 83.2586 31.672C83.2154 31.6681 83.18 31.6612 83.1526 31.6514C83.127 31.6435 83.1094 31.6327 83.0996 31.619C83.0897 31.6053 83.0848 31.5886 83.0848 31.5689V30.1997C83.0809 30.1428 83.0907 30.1026 83.1143 30.079C83.1398 30.0535 83.1771 30.0407 83.2262 30.0407H83.4028C83.45 29.974 83.4941 29.9053 83.5353 29.8346C83.5785 29.7639 83.6198 29.6805 83.659 29.5843C83.6983 29.4862 83.7366 29.3703 83.7739 29.2369C83.8131 29.1014 83.8514 28.9365 83.8887 28.7422C83.926 28.5478 83.9633 28.3182 84.0006 28.0531C84.0398 27.7862 84.0801 27.4731 84.1213 27.1138C84.1331 27.0255 84.1557 26.9617 84.189 26.9224C84.2224 26.8812 84.2734 26.8606 84.3422 26.8606H86.2885C86.3572 26.8606 86.4112 26.8812 86.4505 26.9224C86.4897 26.9617 86.5093 27.0226 86.5093 27.105V30.0407H86.8332C86.8862 30.0407 86.9235 30.0554 86.9451 30.0849C86.9667 30.1124 86.9775 30.1516 86.9775 30.2027V31.5689ZM85.7379 27.4848H84.8486C84.8133 27.7832 84.7779 28.0463 84.7426 28.274C84.7092 28.4997 84.6749 28.698 84.6396 28.8688C84.6062 29.0396 84.5718 29.1868 84.5365 29.3105C84.5012 29.4341 84.4648 29.5411 84.4275 29.6314C84.3922 29.7217 84.3549 29.7993 84.3157 29.864C84.2764 29.9288 84.2362 29.9877 84.1949 30.0407H85.7379V27.4848Z" fill="white"/>
<path d="M90.6435 30.3823C90.667 30.453 90.6818 30.5089 90.6877 30.5501C90.6935 30.5913 90.6857 30.6228 90.6641 30.6443C90.6425 30.664 90.6042 30.6758 90.5493 30.6797C90.4943 30.6856 90.4187 30.6885 90.3225 30.6885C90.2224 30.6885 90.1439 30.6866 90.087 30.6826C90.032 30.6807 89.9898 30.6758 89.9604 30.6679C89.9309 30.6581 89.9103 30.6453 89.8985 30.6296C89.8867 30.6139 89.8769 30.5933 89.8691 30.5678L89.6129 29.8022H88.1818L87.9404 30.5472C87.9325 30.5747 87.9217 30.5982 87.908 30.6178C87.8962 30.6355 87.8756 30.6502 87.8462 30.662C87.8187 30.6718 87.7784 30.6787 87.7254 30.6826C87.6744 30.6866 87.6067 30.6885 87.5223 30.6885C87.432 30.6885 87.3613 30.6856 87.3103 30.6797C87.2592 30.6738 87.2239 30.6601 87.2043 30.6385C87.1846 30.6149 87.1778 30.5825 87.1836 30.5413C87.1895 30.5001 87.2043 30.4451 87.2278 30.3764L88.4027 26.9961C88.4145 26.9627 88.4282 26.9362 88.4439 26.9165C88.4596 26.895 88.4842 26.8793 88.5175 26.8694C88.5529 26.8577 88.601 26.8508 88.6618 26.8488C88.7227 26.8449 88.8031 26.8429 88.9033 26.8429C89.0191 26.8429 89.1113 26.8449 89.18 26.8488C89.2488 26.8508 89.3018 26.8577 89.3391 26.8694C89.3783 26.8793 89.4058 26.895 89.4215 26.9165C89.4392 26.9381 89.4539 26.9676 89.4657 27.0049L90.6435 30.3823ZM88.8944 27.5879H88.8915L88.3526 29.2074H89.4333L88.8944 27.5879Z" fill="white"/>
<path d="M51.9213 9.85641C51.9213 9.87358 51.9162 9.88904 51.9059 9.90278C51.8955 9.91481 51.8775 9.92511 51.8517 9.9337C51.826 9.94229 51.7908 9.9483 51.7461 9.95174C51.7032 9.95689 51.6491 9.95946 51.5838 9.95946C51.5185 9.95946 51.4636 9.95689 51.4189 9.95174C51.376 9.9483 51.3416 9.94229 51.3158 9.9337C51.2901 9.92511 51.2712 9.91481 51.2592 9.90278C51.2488 9.88904 51.2437 9.87358 51.2437 9.85641V7.17429H50.0018V9.85641C50.0018 9.87358 49.9958 9.88904 49.9838 9.90278C49.9735 9.91481 49.9555 9.92511 49.9297 9.9337C49.9039 9.94229 49.8696 9.9483 49.8266 9.95174C49.7837 9.95689 49.7287 9.95946 49.6617 9.95946C49.5965 9.95946 49.5415 9.95689 49.4968 9.95174C49.4539 9.9483 49.4195 9.94229 49.3938 9.9337C49.368 9.92511 49.35 9.91481 49.3397 9.90278C49.3294 9.88904 49.3242 9.87358 49.3242 9.85641V6.82389C49.3242 6.75175 49.3423 6.6985 49.3783 6.66415C49.4144 6.62808 49.4625 6.61004 49.5226 6.61004H51.7255C51.7873 6.61004 51.8354 6.62808 51.8698 6.66415C51.9041 6.6985 51.9213 6.75175 51.9213 6.82389V9.85641Z" fill="white"/>
<path d="M55.3789 9.69151C55.3996 9.75335 55.4124 9.8023 55.4176 9.83837C55.4227 9.87444 55.4159 9.90192 55.397 9.92082C55.3781 9.93799 55.3446 9.9483 55.2965 9.95174C55.2484 9.95689 55.1823 9.95946 55.0981 9.95946C55.0105 9.95946 54.9418 9.95775 54.892 9.95431C54.8439 9.95259 54.807 9.9483 54.7812 9.94143C54.7554 9.93284 54.7374 9.92168 54.7271 9.90793C54.7168 9.89419 54.7082 9.87616 54.7013 9.85383L54.4772 9.18394H53.225L53.0137 9.83579C53.0069 9.85984 52.9974 9.88045 52.9854 9.89763C52.9751 9.91309 52.9571 9.92597 52.9313 9.93628C52.9072 9.94486 52.872 9.95088 52.8257 9.95431C52.781 9.95775 52.7217 9.95946 52.6479 9.95946C52.5689 9.95946 52.507 9.95689 52.4624 9.95174C52.4177 9.94658 52.3868 9.93456 52.3696 9.91566C52.3524 9.89505 52.3464 9.86671 52.3516 9.83064C52.3567 9.79457 52.3696 9.74648 52.3902 9.68636L53.4182 6.72856C53.4286 6.69936 53.4406 6.67617 53.4543 6.65899C53.4681 6.6401 53.4895 6.62636 53.5187 6.61777C53.5496 6.60746 53.5917 6.60145 53.645 6.59973C53.6982 6.5963 53.7686 6.59458 53.8562 6.59458C53.9576 6.59458 54.0383 6.5963 54.0984 6.59973C54.1586 6.60145 54.2049 6.60746 54.2376 6.61777C54.2719 6.62636 54.296 6.6401 54.3097 6.65899C54.3252 6.67789 54.338 6.70365 54.3484 6.73629L55.3789 9.69151ZM53.8485 7.24643H53.8459L53.3744 8.6635H54.32L53.8485 7.24643Z" fill="white"/>
<path d="M58.262 8.94433C58.262 9.06285 58.2457 9.1702 58.2131 9.26639C58.1804 9.36258 58.1349 9.4476 58.0765 9.52146C58.0198 9.59532 57.9511 9.65888 57.8704 9.71212C57.7914 9.76537 57.7038 9.80917 57.6076 9.84352C57.5114 9.87788 57.4084 9.90364 57.2984 9.92082C57.1902 9.93628 57.0691 9.94401 56.9351 9.94401H56.0488C55.9922 9.94401 55.9441 9.92769 55.9046 9.89505C55.8668 9.8607 55.8479 9.80573 55.8479 9.73016V6.82389C55.8479 6.74831 55.8668 6.69421 55.9046 6.66157C55.9441 6.62722 55.9922 6.61004 56.0488 6.61004H56.8862C57.0906 6.61004 57.2632 6.62722 57.4041 6.66157C57.5466 6.69592 57.666 6.74831 57.7622 6.81874C57.8601 6.88744 57.9348 6.97504 57.9863 7.08154C58.0379 7.18803 58.0636 7.31342 58.0636 7.4577C58.0636 7.53843 58.0533 7.61487 58.0327 7.68701C58.0121 7.75743 57.9821 7.82184 57.9425 7.88025C57.903 7.93865 57.8541 7.99017 57.7957 8.03483C57.739 8.07949 57.6737 8.11556 57.5999 8.14305C57.6943 8.16022 57.7811 8.19028 57.8601 8.23322C57.9408 8.27616 58.0104 8.33199 58.0688 8.40069C58.1289 8.46768 58.1761 8.54669 58.2105 8.63773C58.2449 8.72877 58.262 8.83097 58.262 8.94433ZM57.386 7.54015C57.386 7.47316 57.3757 7.41304 57.3551 7.3598C57.3345 7.30655 57.3036 7.26275 57.2624 7.2284C57.2211 7.19232 57.1687 7.16484 57.1052 7.14595C57.0434 7.12705 56.96 7.11761 56.8553 7.11761H56.5126V7.9833H56.8913C56.9892 7.9833 57.0674 7.97214 57.1258 7.94981C57.1842 7.92576 57.2323 7.89399 57.2701 7.85448C57.3096 7.81326 57.3388 7.76602 57.3577 7.71277C57.3766 7.65781 57.386 7.60027 57.386 7.54015ZM57.5587 8.96752C57.5587 8.89023 57.5458 8.82152 57.52 8.7614C57.4942 8.69957 57.4565 8.64804 57.4066 8.60681C57.3568 8.56559 57.2933 8.53381 57.216 8.51148C57.1387 8.48915 57.0382 8.47799 56.9145 8.47799H56.5126V9.42613H57.0021C57.0966 9.42613 57.1756 9.41669 57.2392 9.39779C57.3044 9.37718 57.3603 9.34798 57.4066 9.31019C57.4547 9.27069 57.4917 9.22259 57.5174 9.16591C57.5449 9.10751 57.5587 9.04138 57.5587 8.96752Z" fill="white"/>
<path d="M61.395 9.85641C61.395 9.87358 61.3899 9.88904 61.3796 9.90278C61.3693 9.91481 61.3512 9.92511 61.3255 9.9337C61.2997 9.94229 61.2645 9.9483 61.2198 9.95174C61.1769 9.95689 61.1228 9.95946 61.0575 9.95946C60.9905 9.95946 60.9356 9.95689 60.8926 9.95174C60.8497 9.9483 60.8153 9.94229 60.7896 9.9337C60.7638 9.92511 60.7458 9.91481 60.7355 9.90278C60.7251 9.88904 60.72 9.87358 60.72 9.85641V7.16656H60.0037C59.9556 7.5599 59.9067 7.90343 59.8569 8.19715C59.8071 8.49087 59.7538 8.74251 59.6971 8.95206C59.6404 9.16161 59.5778 9.33338 59.509 9.46736C59.4421 9.60133 59.3648 9.70783 59.2772 9.78684C59.1913 9.86413 59.0934 9.91738 58.9834 9.94658C58.8752 9.97578 58.7516 9.99038 58.6124 9.99038C58.5867 9.99038 58.5643 9.98695 58.5454 9.98008C58.5265 9.97321 58.5111 9.96032 58.4991 9.94143C58.4888 9.92253 58.481 9.89591 58.4759 9.86156C58.4707 9.82721 58.4681 9.78341 58.4681 9.73016C58.4681 9.6563 58.4699 9.59704 58.4733 9.55238C58.4767 9.506 58.4827 9.47079 58.4913 9.44675C58.4999 9.42098 58.5111 9.4038 58.5248 9.39522C58.5386 9.38663 58.5549 9.38233 58.5738 9.38233C58.627 9.38233 58.6777 9.37203 58.7258 9.35142C58.7756 9.32909 58.8228 9.28614 58.8675 9.22259C58.9139 9.15904 58.9577 9.06972 58.9989 8.95464C59.0418 8.83955 59.0831 8.6884 59.1226 8.50118C59.1638 8.31223 59.2042 8.08293 59.2437 7.81326C59.2849 7.54187 59.3261 7.21981 59.3673 6.84708C59.3776 6.75948 59.3983 6.6985 59.4292 6.66415C59.4601 6.62808 59.5056 6.61004 59.5657 6.61004H61.2018C61.2636 6.61004 61.3109 6.62808 61.3435 6.66415C61.3779 6.6985 61.395 6.75175 61.395 6.82389V9.85641Z" fill="white"/>
<path d="M65.1232 8.23838C65.1232 8.51492 65.0888 8.76226 65.0201 8.9804C64.9514 9.19854 64.8492 9.38405 64.7135 9.53692C64.5778 9.68808 64.4095 9.80402 64.2085 9.88475C64.0093 9.96376 63.7783 10.0033 63.5155 10.0033C63.2561 10.0033 63.0294 9.96977 62.8353 9.90278C62.6429 9.83408 62.4823 9.73016 62.3535 9.59103C62.2247 9.4519 62.1276 9.27498 62.0623 9.06027C61.9988 8.84557 61.967 8.59135 61.967 8.29763C61.967 8.02796 62.0014 7.78577 62.0701 7.57107C62.1388 7.35464 62.241 7.17085 62.3767 7.0197C62.5124 6.86855 62.6798 6.75261 62.8791 6.67188C63.08 6.59115 63.3128 6.55078 63.5773 6.55078C63.8298 6.55078 64.0522 6.58428 64.2446 6.65126C64.4387 6.71825 64.6002 6.82131 64.729 6.96044C64.8595 7.09957 64.9574 7.27563 65.0227 7.48862C65.0897 7.69989 65.1232 7.94981 65.1232 8.23838ZM64.4121 8.27445C64.4121 8.09925 64.3983 7.94036 64.3709 7.7978C64.3434 7.65351 64.2961 7.5307 64.2292 7.42936C64.1639 7.3263 64.0763 7.24729 63.9664 7.19232C63.8564 7.13564 63.719 7.1073 63.5541 7.1073C63.3875 7.1073 63.2484 7.13908 63.1367 7.20263C63.0251 7.26447 62.9349 7.34777 62.8662 7.45255C62.7975 7.55733 62.7485 7.68014 62.7193 7.82099C62.6919 7.96012 62.6781 8.10783 62.6781 8.26414C62.6781 8.44621 62.6919 8.61025 62.7193 8.75625C62.7468 8.90053 62.7932 9.0242 62.8585 9.12726C62.9237 9.23032 63.0113 9.30933 63.1213 9.3643C63.2312 9.41754 63.3695 9.44417 63.5361 9.44417C63.7027 9.44417 63.8418 9.41325 63.9535 9.35142C64.0651 9.28958 64.1553 9.20541 64.224 9.09892C64.2927 8.99243 64.3408 8.86875 64.3683 8.72791C64.3975 8.58534 64.4121 8.43419 64.4121 8.27445Z" fill="white"/>
<path d="M68.6298 10.7298C68.6298 10.747 68.6255 10.7616 68.6169 10.7736C68.6083 10.7857 68.5929 10.7951 68.5705 10.802C68.5482 10.8106 68.5181 10.8166 68.4804 10.82C68.4426 10.8252 68.3936 10.8277 68.3335 10.8277C68.2751 10.8277 68.227 10.8252 68.1892 10.82C68.1531 10.8166 68.1231 10.8106 68.099 10.802C68.0767 10.7951 68.0604 10.7857 68.0501 10.7736C68.0415 10.7616 68.0372 10.747 68.0372 10.7298V9.94401H65.8188V10.7298C65.8188 10.747 65.8137 10.7616 65.8034 10.7736C65.7948 10.7857 65.7785 10.7951 65.7544 10.802C65.7321 10.8106 65.702 10.8166 65.6643 10.82C65.6265 10.8252 65.5784 10.8277 65.52 10.8277C65.4616 10.8277 65.4135 10.8252 65.3757 10.82C65.3379 10.8166 65.307 10.8106 65.2829 10.802C65.2606 10.7951 65.2452 10.7857 65.2366 10.7736C65.228 10.7616 65.2237 10.747 65.2237 10.7298V9.53177C65.2202 9.48196 65.2288 9.44675 65.2494 9.42613C65.2718 9.4038 65.3044 9.39264 65.3474 9.39264H65.5019C65.5432 9.33424 65.5818 9.27412 65.6179 9.21229C65.6557 9.15045 65.6917 9.07745 65.7261 8.99328C65.7604 8.9074 65.7939 8.80606 65.8266 8.68926C65.8609 8.57074 65.8944 8.42646 65.9271 8.25641C65.9597 8.08636 65.9923 7.8854 66.025 7.65351C66.0593 7.41991 66.0945 7.14595 66.1306 6.83162C66.1409 6.75432 66.1607 6.6985 66.1899 6.66415C66.2191 6.62808 66.2637 6.61004 66.3238 6.61004H68.0269C68.087 6.61004 68.1342 6.62808 68.1686 6.66415C68.203 6.6985 68.2201 6.75175 68.2201 6.82389V9.39264H68.5035C68.5499 9.39264 68.5826 9.40552 68.6014 9.43129C68.6203 9.45533 68.6298 9.48969 68.6298 9.53435V10.7298ZM67.5451 7.15625H66.767C66.7361 7.41734 66.7052 7.6475 66.6742 7.84675C66.645 8.04428 66.615 8.21776 66.5841 8.3672C66.5549 8.51664 66.5248 8.64546 66.4939 8.75367C66.463 8.86188 66.4312 8.9555 66.3986 9.03451C66.3676 9.11352 66.335 9.18137 66.3006 9.23805C66.2663 9.29473 66.2311 9.34626 66.195 9.39264H67.5451V7.15625Z" fill="white"/>
<path d="M71.8375 9.69151C71.8581 9.75335 71.871 9.8023 71.8762 9.83837C71.8813 9.87444 71.8744 9.90192 71.8555 9.92082C71.8366 9.93799 71.8032 9.9483 71.7551 9.95174C71.707 9.95689 71.6408 9.95946 71.5567 9.95946C71.4691 9.95946 71.4004 9.95775 71.3506 9.95431C71.3025 9.95259 71.2655 9.9483 71.2398 9.94143C71.214 9.93284 71.196 9.92168 71.1857 9.90793C71.1754 9.89419 71.1668 9.87616 71.1599 9.85383L70.9357 9.18394H69.6836L69.4723 9.83579C69.4654 9.85984 69.456 9.88045 69.444 9.89763C69.4337 9.91309 69.4156 9.92597 69.3899 9.93628C69.3658 9.94486 69.3306 9.95088 69.2842 9.95431C69.2396 9.95775 69.1803 9.95946 69.1064 9.95946C69.0274 9.95946 68.9656 9.95689 68.9209 9.95174C68.8763 9.94658 68.8454 9.93456 68.8282 9.91566C68.811 9.89505 68.805 9.86671 68.8101 9.83064C68.8153 9.79457 68.8282 9.74648 68.8488 9.68636L69.8768 6.72856C69.8871 6.69936 69.8991 6.67617 69.9129 6.65899C69.9266 6.6401 69.9481 6.62636 69.9773 6.61777C70.0082 6.60746 70.0503 6.60145 70.1035 6.59973C70.1568 6.5963 70.2272 6.59458 70.3148 6.59458C70.4161 6.59458 70.4969 6.5963 70.557 6.59973C70.6171 6.60145 70.6635 6.60746 70.6961 6.61777C70.7305 6.62636 70.7545 6.6401 70.7683 6.65899C70.7837 6.67789 70.7966 6.70365 70.8069 6.73629L71.8375 9.69151ZM70.3071 7.24643H70.3045L69.833 8.6635H70.7786L70.3071 7.24643Z" fill="white"/>
<path d="M74.5892 7.6226C74.5892 7.80982 74.56 7.97557 74.5016 8.11986C74.4432 8.26414 74.3582 8.38609 74.2465 8.48572C74.1349 8.58362 73.9975 8.65834 73.8343 8.70987C73.6728 8.7614 73.4822 8.78717 73.2623 8.78717H72.984V9.85125C72.984 9.86843 72.978 9.88389 72.966 9.89763C72.9557 9.91137 72.9377 9.92253 72.9119 9.93112C72.8861 9.93971 72.8518 9.94658 72.8088 9.95174C72.7659 9.95689 72.7109 9.95946 72.6439 9.95946C72.5787 9.95946 72.5237 9.95689 72.479 9.95174C72.4361 9.94658 72.4018 9.93971 72.376 9.93112C72.3502 9.92253 72.3322 9.91137 72.3219 9.89763C72.3116 9.88389 72.3064 9.86843 72.3064 9.85125V6.85223C72.3064 6.7715 72.327 6.71138 72.3683 6.67188C72.4112 6.63065 72.467 6.61004 72.5357 6.61004H73.3216C73.4006 6.61004 73.4753 6.61348 73.5457 6.62035C73.6179 6.6255 73.7037 6.63838 73.8034 6.65899C73.903 6.67789 74.0035 6.71396 74.1048 6.76721C74.2079 6.82045 74.2955 6.8883 74.3676 6.97075C74.4398 7.05148 74.4947 7.14681 74.5325 7.25674C74.5703 7.36495 74.5892 7.4869 74.5892 7.6226ZM73.8807 7.67155C73.8807 7.55475 73.86 7.45856 73.8188 7.38298C73.7776 7.30741 73.7269 7.25158 73.6668 7.21551C73.6067 7.17944 73.5431 7.15711 73.4761 7.14852C73.4109 7.13822 73.343 7.13307 73.2726 7.13307H72.984V8.26414H73.2881C73.3963 8.26414 73.4865 8.24954 73.5586 8.22034C73.6325 8.19114 73.6926 8.15078 73.7389 8.09925C73.7853 8.046 73.8205 7.9833 73.8446 7.91116C73.8686 7.8373 73.8807 7.75743 73.8807 7.67155Z" fill="white"/>
<path d="M63.3084 46.3602C63.3291 46.422 63.3419 46.471 63.3471 46.507C63.3522 46.5431 63.3454 46.5706 63.3265 46.5895C63.3076 46.6067 63.2741 46.617 63.226 46.6204C63.1779 46.6256 63.1118 46.6281 63.0276 46.6281C62.94 46.6281 62.8713 46.6264 62.8215 46.623C62.7734 46.6213 62.7365 46.617 62.7107 46.6101C62.6849 46.6015 62.6669 46.5904 62.6566 46.5766C62.6463 46.5629 62.6377 46.5448 62.6308 46.5225L62.4067 45.8526H61.1545L60.9432 46.5045C60.9364 46.5285 60.9269 46.5491 60.9149 46.5663C60.9046 46.5818 60.8866 46.5946 60.8608 46.605C60.8367 46.6135 60.8015 46.6196 60.7552 46.623C60.7105 46.6264 60.6512 46.6281 60.5774 46.6281C60.4984 46.6281 60.4365 46.6256 60.3919 46.6204C60.3472 46.6153 60.3163 46.6032 60.2991 46.5843C60.2819 46.5637 60.2759 46.5354 60.2811 46.4993C60.2862 46.4632 60.2991 46.4151 60.3197 46.355L61.3477 43.3972C61.358 43.368 61.3701 43.3448 61.3838 43.3277C61.3976 43.3088 61.419 43.295 61.4482 43.2864C61.4791 43.2761 61.5212 43.2701 61.5745 43.2684C61.6277 43.265 61.6981 43.2633 61.7857 43.2633C61.8871 43.2633 61.9678 43.265 62.0279 43.2684C62.0881 43.2701 62.1344 43.2761 62.1671 43.2864C62.2014 43.295 62.2255 43.3088 62.2392 43.3277C62.2547 43.3466 62.2675 43.3723 62.2779 43.405L63.3084 46.3602ZM61.778 43.9151H61.7754L61.3039 45.3322H62.2495L61.778 43.9151Z" fill="white"/>
<path d="M65.9287 46.1077C65.9287 46.1506 65.927 46.1876 65.9236 46.2185C65.9219 46.2477 65.9184 46.2734 65.9133 46.2958C65.9081 46.3164 65.9012 46.3344 65.8927 46.3499C65.8841 46.3653 65.8703 46.3834 65.8514 46.404C65.8325 46.4229 65.7956 46.4478 65.7406 46.4787C65.6874 46.5096 65.6213 46.5397 65.5423 46.5689C65.465 46.5964 65.3756 46.6196 65.2743 46.6384C65.1747 46.6573 65.0665 46.6668 64.9497 46.6668C64.7212 46.6668 64.5151 46.6316 64.3313 46.5612C64.1475 46.4907 63.9912 46.3859 63.8624 46.2468C63.7336 46.106 63.6348 45.9308 63.5661 45.7212C63.4974 45.5117 63.463 45.2678 63.463 44.9895C63.463 44.7061 63.5008 44.4544 63.5764 44.2346C63.652 44.0147 63.7576 43.8301 63.8933 43.6806C64.029 43.5312 64.1913 43.4178 64.3803 43.3406C64.5709 43.2633 64.7805 43.2246 65.0089 43.2246C65.1017 43.2246 65.191 43.2323 65.2769 43.2478C65.3628 43.2633 65.4418 43.2839 65.5139 43.3096C65.5878 43.3337 65.6539 43.362 65.7123 43.3947C65.7707 43.4273 65.8111 43.4556 65.8334 43.4797C65.8574 43.502 65.8738 43.5209 65.8823 43.5364C65.8909 43.5518 65.8978 43.5716 65.903 43.5956C65.9081 43.6197 65.9115 43.648 65.9133 43.6806C65.9167 43.7133 65.9184 43.7536 65.9184 43.8017C65.9184 43.8533 65.9167 43.8971 65.9133 43.9331C65.9098 43.9692 65.9038 43.9984 65.8952 44.0207C65.8866 44.0431 65.8763 44.0594 65.8643 44.0697C65.8523 44.08 65.8385 44.0852 65.8231 44.0852C65.7973 44.0852 65.7647 44.0706 65.7252 44.0414C65.6857 44.0104 65.6341 43.9769 65.5706 43.9409C65.5088 43.9031 65.434 43.8696 65.3464 43.8404C65.2606 43.8095 65.1575 43.794 65.0373 43.794C64.905 43.794 64.7865 43.8215 64.6817 43.8765C64.5786 43.9297 64.4902 44.007 64.4163 44.1083C64.3442 44.208 64.2892 44.3291 64.2514 44.4716C64.2136 44.6142 64.1948 44.7748 64.1948 44.9534C64.1948 45.1492 64.2145 45.3193 64.254 45.4636C64.2952 45.6061 64.3528 45.7238 64.4266 45.8165C64.5022 45.9093 64.5924 45.9789 64.6972 46.0252C64.8037 46.0699 64.923 46.0922 65.0553 46.0922C65.1755 46.0922 65.2795 46.0785 65.3671 46.051C65.4547 46.0218 65.5294 45.99 65.5912 45.9557C65.6548 45.9213 65.7063 45.8904 65.7458 45.8629C65.787 45.8354 65.8188 45.8217 65.8411 45.8217C65.8583 45.8217 65.872 45.8251 65.8823 45.832C65.8927 45.8389 65.9012 45.8526 65.9081 45.8732C65.915 45.8938 65.9201 45.923 65.9236 45.9608C65.927 45.9969 65.9287 46.0459 65.9287 46.1077Z" fill="white"/>
<path d="M68.634 43.557C68.634 43.6068 68.6315 43.6497 68.6263 43.6858C68.6229 43.7202 68.6169 43.7485 68.6083 43.7708C68.5997 43.7914 68.5885 43.8069 68.5748 43.8172C68.5627 43.8275 68.549 43.8327 68.5335 43.8327H67.6988V46.5199C67.6988 46.5371 67.6928 46.5526 67.6807 46.5663C67.6704 46.58 67.6524 46.5912 67.6266 46.5998C67.6009 46.6084 67.5656 46.6153 67.521 46.6204C67.478 46.6256 67.4239 46.6281 67.3587 46.6281C67.2934 46.6281 67.2384 46.6256 67.1938 46.6204C67.1508 46.6153 67.1165 46.6084 67.0907 46.5998C67.065 46.5912 67.0461 46.58 67.034 46.5663C67.0237 46.5526 67.0186 46.5371 67.0186 46.5199V43.8327H66.1838C66.1666 43.8327 66.152 43.8275 66.14 43.8172C66.128 43.8069 66.1177 43.7914 66.1091 43.7708C66.1005 43.7485 66.0936 43.7202 66.0885 43.6858C66.085 43.6497 66.0833 43.6068 66.0833 43.557C66.0833 43.5054 66.085 43.4616 66.0885 43.4256C66.0936 43.3895 66.1005 43.3612 66.1091 43.3406C66.1177 43.3182 66.128 43.3028 66.14 43.2942C66.152 43.2839 66.1666 43.2787 66.1838 43.2787H68.5335C68.549 43.2787 68.5627 43.2839 68.5748 43.2942C68.5885 43.3028 68.5997 43.3182 68.6083 43.3406C68.6169 43.3612 68.6229 43.3895 68.6263 43.4256C68.6315 43.4616 68.634 43.5054 68.634 43.557Z" fill="white"/>
<path d="M71.3986 46.3602C71.4192 46.422 71.4321 46.471 71.4372 46.507C71.4424 46.5431 71.4355 46.5706 71.4166 46.5895C71.3977 46.6067 71.3642 46.617 71.3161 46.6204C71.2681 46.6256 71.2019 46.6281 71.1178 46.6281C71.0302 46.6281 70.9615 46.6264 70.9116 46.623C70.8635 46.6213 70.8266 46.617 70.8009 46.6101C70.7751 46.6015 70.7571 46.5904 70.7467 46.5766C70.7364 46.5629 70.7279 46.5448 70.721 46.5225L70.4968 45.8526H69.2447L69.0334 46.5045C69.0265 46.5285 69.0171 46.5491 69.005 46.5663C68.9947 46.5818 68.9767 46.5946 68.9509 46.605C68.9269 46.6135 68.8917 46.6196 68.8453 46.623C68.8006 46.6264 68.7414 46.6281 68.6675 46.6281C68.5885 46.6281 68.5267 46.6256 68.482 46.6204C68.4374 46.6153 68.4064 46.6032 68.3893 46.5843C68.3721 46.5637 68.3661 46.5354 68.3712 46.4993C68.3764 46.4632 68.3893 46.4151 68.4099 46.355L69.4379 43.3972C69.4482 43.368 69.4602 43.3448 69.474 43.3277C69.4877 43.3088 69.5092 43.295 69.5384 43.2864C69.5693 43.2761 69.6114 43.2701 69.6646 43.2684C69.7179 43.265 69.7883 43.2633 69.8759 43.2633C69.9772 43.2633 70.058 43.265 70.1181 43.2684C70.1782 43.2701 70.2246 43.2761 70.2572 43.2864C70.2916 43.295 70.3156 43.3088 70.3294 43.3277C70.3448 43.3466 70.3577 43.3723 70.368 43.405L71.3986 46.3602ZM69.8682 43.9151H69.8656L69.3941 45.3322H70.3397L69.8682 43.9151Z" fill="white"/>
<path d="M74.4698 46.5199C74.4698 46.5371 74.4637 46.5526 74.4517 46.5663C74.4414 46.58 74.4234 46.5912 74.3976 46.5998C74.3719 46.6084 74.3375 46.6153 74.2946 46.6204C74.2516 46.6256 74.1975 46.6281 74.1322 46.6281C74.0653 46.6281 74.0094 46.6256 73.9648 46.6204C73.9218 46.6153 73.8875 46.6084 73.8617 46.5998C73.8377 46.5912 73.8196 46.58 73.8076 46.5663C73.7973 46.5526 73.7921 46.5371 73.7921 46.5199V45.1724H72.5451V46.5199C72.5451 46.5371 72.54 46.5526 72.5297 46.5663C72.5194 46.58 72.5013 46.5912 72.4756 46.5998C72.4498 46.6084 72.4154 46.6153 72.3725 46.6204C72.3296 46.6256 72.2746 46.6281 72.2076 46.6281C72.1423 46.6281 72.0874 46.6256 72.0427 46.6204C71.9998 46.6153 71.9654 46.6084 71.9397 46.5998C71.9139 46.5912 71.895 46.58 71.883 46.5663C71.8727 46.5526 71.8675 46.5371 71.8675 46.5199V43.3715C71.8675 43.3543 71.8727 43.3388 71.883 43.3251C71.895 43.3114 71.9139 43.3002 71.9397 43.2916C71.9654 43.283 71.9998 43.2761 72.0427 43.271C72.0874 43.2658 72.1423 43.2633 72.2076 43.2633C72.2746 43.2633 72.3296 43.2658 72.3725 43.271C72.4154 43.2761 72.4498 43.283 72.4756 43.2916C72.5013 43.3002 72.5194 43.3114 72.5297 43.3251C72.54 43.3388 72.5451 43.3543 72.5451 43.3715V44.5953H73.7921V43.3715C73.7921 43.3543 73.7973 43.3388 73.8076 43.3251C73.8196 43.3114 73.8377 43.3002 73.8617 43.2916C73.8875 43.283 73.9218 43.2761 73.9648 43.271C74.0094 43.2658 74.0653 43.2633 74.1322 43.2633C74.1975 43.2633 74.2516 43.2658 74.2946 43.271C74.3375 43.2761 74.3719 43.283 74.3976 43.2916C74.4234 43.3002 74.4414 43.3114 74.4517 43.3251C74.4637 43.3388 74.4698 43.3543 74.4698 43.3715V46.5199Z" fill="white"/>
<path d="M77.9274 46.3602C77.948 46.422 77.9609 46.471 77.966 46.507C77.9712 46.5431 77.9643 46.5706 77.9454 46.5895C77.9265 46.6067 77.893 46.617 77.8449 46.6204C77.7969 46.6256 77.7307 46.6281 77.6466 46.6281C77.559 46.6281 77.4903 46.6264 77.4404 46.623C77.3923 46.6213 77.3554 46.617 77.3297 46.6101C77.3039 46.6015 77.2859 46.5904 77.2755 46.5766C77.2652 46.5629 77.2567 46.5448 77.2498 46.5225L77.0256 45.8526H75.7735L75.5622 46.5045C75.5553 46.5285 75.5459 46.5491 75.5338 46.5663C75.5235 46.5818 75.5055 46.5946 75.4797 46.605C75.4557 46.6135 75.4205 46.6196 75.3741 46.623C75.3294 46.6264 75.2702 46.6281 75.1963 46.6281C75.1173 46.6281 75.0555 46.6256 75.0108 46.6204C74.9662 46.6153 74.9352 46.6032 74.9181 46.5843C74.9009 46.5637 74.8949 46.5354 74.9 46.4993C74.9052 46.4632 74.9181 46.4151 74.9387 46.355L75.9667 43.3972C75.977 43.368 75.989 43.3448 76.0028 43.3277C76.0165 43.3088 76.038 43.295 76.0672 43.2864C76.0981 43.2761 76.1402 43.2701 76.1934 43.2684C76.2467 43.265 76.3171 43.2633 76.4047 43.2633C76.506 43.2633 76.5868 43.265 76.6469 43.2684C76.707 43.2701 76.7534 43.2761 76.786 43.2864C76.8204 43.295 76.8444 43.3088 76.8582 43.3277C76.8736 43.3466 76.8865 43.3723 76.8968 43.405L77.9274 46.3602ZM76.397 43.9151H76.3944L75.9229 45.3322H76.8685L76.397 43.9151Z" fill="white"/>
<rect x="46.1191" y="22.4941" width="11.5328" height="6.06334" rx="3.03167" stroke="white" stroke-width="0.5"/>
<path d="M49.5295 26.4104C49.5465 26.4617 49.5572 26.5023 49.5615 26.5322C49.5658 26.5621 49.5601 26.5849 49.5444 26.6006C49.5287 26.6148 49.501 26.6234 49.4611 26.6262C49.4212 26.6305 49.3664 26.6326 49.2966 26.6326C49.2239 26.6326 49.167 26.6312 49.1257 26.6284C49.0858 26.6269 49.0551 26.6234 49.0338 26.6177C49.0124 26.6105 48.9975 26.6013 48.9889 26.5899C48.9804 26.5785 48.9732 26.5635 48.9676 26.545L48.7817 25.9895H47.7433L47.5681 26.5301C47.5624 26.55 47.5546 26.5671 47.5446 26.5813C47.5361 26.5942 47.5211 26.6048 47.4998 26.6134C47.4798 26.6205 47.4506 26.6255 47.4122 26.6284C47.3751 26.6312 47.326 26.6326 47.2648 26.6326C47.1992 26.6326 47.148 26.6305 47.1109 26.6262C47.0739 26.6219 47.0483 26.612 47.034 26.5963C47.0198 26.5792 47.0148 26.5557 47.0191 26.5258C47.0233 26.4959 47.034 26.456 47.0511 26.4062L47.9036 23.9534C47.9121 23.9292 47.9221 23.91 47.9335 23.8958C47.9449 23.8801 47.9627 23.8687 47.9869 23.8616C48.0125 23.853 48.0474 23.848 48.0916 23.8466C48.1357 23.8438 48.1941 23.8423 48.2668 23.8423C48.3508 23.8423 48.4178 23.8438 48.4676 23.8466C48.5175 23.848 48.5559 23.853 48.583 23.8616C48.6115 23.8687 48.6314 23.8801 48.6428 23.8958C48.6556 23.9114 48.6663 23.9328 48.6748 23.9599L49.5295 26.4104ZM48.2604 24.3829H48.2582L47.8673 25.558H48.6513L48.2604 24.3829Z" fill="white"/>
<path d="M51.6339 26.4062C51.6339 26.446 51.6318 26.4802 51.6275 26.5087C51.6232 26.5358 51.6168 26.5578 51.6083 26.5749C51.6012 26.5906 51.5926 26.602 51.5826 26.6091C51.5727 26.6162 51.5613 26.6198 51.5484 26.6198H50.023C50.0116 26.6198 50.0009 26.6162 49.9909 26.6091C49.981 26.602 49.9717 26.5906 49.9632 26.5749C49.956 26.5578 49.9503 26.5358 49.9461 26.5087C49.9418 26.4802 49.9397 26.446 49.9397 26.4062C49.9397 26.3648 49.9411 26.3307 49.9439 26.3036C49.9482 26.2751 49.9539 26.2523 49.961 26.2352C49.9696 26.2181 49.9788 26.206 49.9888 26.1989C49.9988 26.1904 50.0102 26.1861 50.023 26.1861H50.5379V24.3872L50.0935 24.6329C50.0607 24.6485 50.0337 24.6585 50.0123 24.6628C49.9924 24.6656 49.976 24.6613 49.9632 24.6499C49.9518 24.6371 49.9439 24.6158 49.9397 24.5859C49.9354 24.5559 49.9333 24.5139 49.9333 24.4598C49.9333 24.4256 49.934 24.3978 49.9354 24.3765C49.9368 24.3537 49.9404 24.3345 49.9461 24.3188C49.9518 24.3031 49.9596 24.2903 49.9696 24.2803C49.9795 24.2704 49.9931 24.2597 50.0102 24.2483L50.6041 23.8637C50.6112 23.858 50.6198 23.8537 50.6298 23.8509C50.6411 23.8466 50.6554 23.8438 50.6725 23.8423C50.6896 23.8395 50.7117 23.8381 50.7387 23.8381C50.7672 23.8366 50.8035 23.8359 50.8477 23.8359C50.9018 23.8359 50.9452 23.8374 50.978 23.8402C51.0122 23.8416 51.0378 23.8452 51.0549 23.8509C51.072 23.8552 51.0834 23.8616 51.0891 23.8701C51.0948 23.8787 51.0976 23.8894 51.0976 23.9022V26.1861H51.5484C51.5613 26.1861 51.5727 26.1904 51.5826 26.1989C51.594 26.206 51.6033 26.2181 51.6104 26.2352C51.619 26.2523 51.6247 26.2751 51.6275 26.3036C51.6318 26.3307 51.6339 26.3648 51.6339 26.4062Z" fill="white"/>
<path d="M53.9627 25.825C53.9627 25.8977 53.9549 25.9532 53.9392 25.9917C53.925 26.0287 53.905 26.0472 53.8794 26.0472H53.6337V26.5472C53.6337 26.5614 53.6294 26.5742 53.6209 26.5856C53.6123 26.5956 53.5974 26.6041 53.576 26.6113C53.5546 26.6184 53.5269 26.6234 53.4927 26.6262C53.4585 26.6305 53.4143 26.6326 53.3602 26.6326C53.3089 26.6326 53.2655 26.6305 53.2299 26.6262C53.1957 26.6234 53.1679 26.6184 53.1466 26.6113C53.1266 26.6041 53.1124 26.5956 53.1038 26.5856C53.0967 26.5742 53.0931 26.5614 53.0931 26.5472V26.0472H52.0356C52.0156 26.0472 51.9978 26.0451 51.9822 26.0408C51.9665 26.0351 51.953 26.0237 51.9416 26.0066C51.9316 25.9881 51.9238 25.9625 51.9181 25.9297C51.9138 25.8955 51.9117 25.8507 51.9117 25.7951C51.9117 25.7495 51.9124 25.7104 51.9138 25.6776C51.9166 25.6434 51.9202 25.6128 51.9245 25.5857C51.9302 25.5587 51.9373 25.533 51.9458 25.5088C51.9558 25.4846 51.9679 25.459 51.9822 25.4319L52.841 23.9171C52.8482 23.9043 52.8603 23.8936 52.8774 23.8851C52.8944 23.8751 52.9179 23.8673 52.9479 23.8616C52.9792 23.8545 53.0184 23.8495 53.0654 23.8466C53.1124 23.8438 53.1693 23.8423 53.2363 23.8423C53.3089 23.8423 53.3709 23.8445 53.4222 23.8488C53.4734 23.8516 53.514 23.8573 53.5439 23.8658C53.5753 23.873 53.5981 23.8822 53.6123 23.8936C53.6266 23.905 53.6337 23.9185 53.6337 23.9342V25.5986H53.8794C53.9022 25.5986 53.9214 25.6164 53.9371 25.652C53.9542 25.6862 53.9627 25.7438 53.9627 25.825ZM53.0931 24.3273H53.0889L52.3603 25.5986H53.0931V24.3273Z" fill="white"/>
<path d="M56.0693 26.4062C56.0693 26.446 56.0672 26.4802 56.0629 26.5087C56.0586 26.5358 56.0522 26.5578 56.0437 26.5749C56.0365 26.5906 56.028 26.602 56.018 26.6091C56.008 26.6162 55.9967 26.6198 55.9838 26.6198H54.4584C54.447 26.6198 54.4363 26.6162 54.4263 26.6091C54.4164 26.602 54.4071 26.5906 54.3985 26.5749C54.3914 26.5578 54.3857 26.5358 54.3815 26.5087C54.3772 26.4802 54.375 26.446 54.375 26.4062C54.375 26.3648 54.3765 26.3307 54.3793 26.3036C54.3836 26.2751 54.3893 26.2523 54.3964 26.2352C54.405 26.2181 54.4142 26.206 54.4242 26.1989C54.4342 26.1904 54.4456 26.1861 54.4584 26.1861H54.9733V24.3872L54.5289 24.6329C54.4961 24.6485 54.4691 24.6585 54.4477 24.6628C54.4277 24.6656 54.4114 24.6613 54.3985 24.6499C54.3872 24.6371 54.3793 24.6158 54.375 24.5859C54.3708 24.5559 54.3686 24.5139 54.3686 24.4598C54.3686 24.4256 54.3693 24.3978 54.3708 24.3765C54.3722 24.3537 54.3758 24.3345 54.3815 24.3188C54.3872 24.3031 54.395 24.2903 54.405 24.2803C54.4149 24.2704 54.4285 24.2597 54.4456 24.2483L55.0395 23.8637C55.0466 23.858 55.0552 23.8537 55.0651 23.8509C55.0765 23.8466 55.0908 23.8438 55.1079 23.8423C55.125 23.8395 55.147 23.8381 55.1741 23.8381C55.2026 23.8366 55.2389 23.8359 55.2831 23.8359C55.3372 23.8359 55.3806 23.8374 55.4134 23.8402C55.4476 23.8416 55.4732 23.8452 55.4903 23.8509C55.5074 23.8552 55.5188 23.8616 55.5245 23.8701C55.5302 23.8787 55.533 23.8894 55.533 23.9022V26.1861H55.9838C55.9967 26.1861 56.008 26.1904 56.018 26.1989C56.0294 26.206 56.0387 26.2181 56.0458 26.2352C56.0543 26.2523 56.06 26.2751 56.0629 26.3036C56.0672 26.3307 56.0693 26.3648 56.0693 26.4062Z" fill="white"/>
<rect x="37.457" y="5.43359" width="9.34502" height="6.06335" rx="3.03167" stroke="white" stroke-width="0.5"/>
<path d="M40.2403 9.33981C40.2403 9.38112 40.2381 9.41601 40.2339 9.4445C40.231 9.47156 40.226 9.49364 40.2189 9.51073C40.2118 9.52782 40.2025 9.54064 40.1911 9.54919C40.1812 9.55631 40.1698 9.55987 40.1569 9.55987H38.7682C38.7212 9.55987 38.6813 9.54634 38.6486 9.51928C38.6172 9.49079 38.6016 9.44521 38.6016 9.38254V6.97256C38.6016 6.90989 38.6172 6.86503 38.6486 6.83796C38.6813 6.80948 38.7212 6.79523 38.7682 6.79523H40.1484C40.1612 6.79523 40.1726 6.79879 40.1826 6.80592C40.1925 6.81304 40.2011 6.82586 40.2082 6.84437C40.2153 6.86147 40.2203 6.88425 40.2232 6.91274C40.2274 6.9398 40.2296 6.9747 40.2296 7.01743C40.2296 7.05731 40.2274 7.0915 40.2232 7.11998C40.2203 7.14704 40.2153 7.16912 40.2082 7.18621C40.2011 7.20331 40.1925 7.21612 40.1826 7.22467C40.1726 7.23179 40.1612 7.23535 40.1484 7.23535H39.1613V7.91049H39.9967C40.0095 7.91049 40.0209 7.91476 40.0309 7.92331C40.0423 7.93043 40.0515 7.94254 40.0587 7.95963C40.0658 7.9753 40.0708 7.99737 40.0736 8.02586C40.0779 8.05292 40.08 8.08639 40.08 8.12628C40.08 8.16758 40.0779 8.20177 40.0736 8.22883C40.0708 8.25589 40.0658 8.27797 40.0587 8.29506C40.0515 8.31073 40.0423 8.32212 40.0309 8.32924C40.0209 8.33637 40.0095 8.33993 39.9967 8.33993H39.1613V9.11975H40.1569C40.1698 9.11975 40.1812 9.12402 40.1911 9.13257C40.2025 9.13969 40.2118 9.1518 40.2189 9.16889C40.226 9.18598 40.231 9.20877 40.2339 9.23726C40.2381 9.26432 40.2403 9.29851 40.2403 9.33981Z" fill="white"/>
<path d="M43.4578 8.75014C43.4578 8.8883 43.4315 9.01079 43.3788 9.11761C43.3261 9.22444 43.2527 9.31417 43.1587 9.38681C43.0647 9.45946 42.9522 9.515 42.8212 9.55346C42.6901 9.59049 42.547 9.60901 42.3917 9.60901C42.2977 9.60901 42.2094 9.60189 42.1268 9.58765C42.0442 9.57483 41.9708 9.55845 41.9067 9.53851C41.8441 9.51857 41.7921 9.49791 41.7508 9.47655C41.7095 9.45518 41.6824 9.4388 41.6696 9.42741C41.6568 9.41601 41.6468 9.40319 41.6397 9.38895C41.634 9.37471 41.6283 9.35833 41.6226 9.33981C41.6183 9.31987 41.6147 9.29566 41.6119 9.26717C41.6105 9.23726 41.6098 9.20165 41.6098 9.16034C41.6098 9.09198 41.6155 9.04497 41.6269 9.01934C41.6382 8.99227 41.6553 8.97874 41.6781 8.97874C41.6924 8.97874 41.7166 8.98871 41.7508 9.00865C41.7864 9.02717 41.8312 9.04782 41.8854 9.07061C41.9395 9.09198 42.0029 9.11263 42.0755 9.13257C42.1482 9.15109 42.2308 9.16034 42.3234 9.16034C42.4017 9.16034 42.4708 9.15109 42.5306 9.13257C42.5904 9.11405 42.641 9.08842 42.6823 9.05566C42.725 9.02147 42.7564 8.98088 42.7763 8.93388C42.7977 8.88545 42.8083 8.83204 42.8083 8.77364C42.8083 8.70954 42.7955 8.65186 42.7699 8.60058C42.7457 8.5493 42.7086 8.50586 42.6588 8.47025C42.6104 8.43322 42.5484 8.40473 42.4729 8.38479C42.3988 8.36485 42.3112 8.35488 42.2101 8.35488H41.9708C41.9523 8.35488 41.9366 8.35275 41.9238 8.34847C41.911 8.34278 41.9003 8.33209 41.8918 8.31643C41.8832 8.30076 41.8768 8.27939 41.8726 8.25233C41.8697 8.22384 41.8683 8.18752 41.8683 8.14337C41.8683 8.10206 41.8697 8.06859 41.8726 8.04295C41.8768 8.01589 41.8825 7.99524 41.8896 7.98099C41.8982 7.96675 41.9082 7.95678 41.9196 7.95108C41.9324 7.94539 41.9473 7.94254 41.9644 7.94254H42.2058C42.2885 7.94254 42.3618 7.93328 42.4259 7.91476C42.49 7.89482 42.5434 7.86705 42.5861 7.83144C42.6303 7.79583 42.6638 7.7531 42.6866 7.70325C42.7094 7.65197 42.7207 7.59571 42.7207 7.53446C42.7207 7.48746 42.7129 7.44331 42.6972 7.402C42.6816 7.35927 42.6581 7.32295 42.6267 7.29304C42.5968 7.2617 42.5577 7.23749 42.5092 7.2204C42.4608 7.20188 42.4038 7.19262 42.3383 7.19262C42.2642 7.19262 42.1945 7.20402 42.1289 7.22681C42.0634 7.24817 42.0043 7.27239 41.9516 7.29945C41.9003 7.32509 41.8562 7.3493 41.8191 7.37209C41.7835 7.39488 41.7572 7.40627 41.7401 7.40627C41.7287 7.40627 41.7187 7.40414 41.7102 7.39986C41.7016 7.39417 41.6945 7.3842 41.6888 7.36995C41.6831 7.35571 41.6788 7.33506 41.676 7.30799C41.6731 7.28093 41.6717 7.24604 41.6717 7.20331C41.6717 7.1677 41.6724 7.1385 41.6739 7.11571C41.6753 7.0915 41.6781 7.07155 41.6824 7.05589C41.6867 7.04022 41.6917 7.02669 41.6974 7.01529C41.7045 7.0039 41.7152 6.99179 41.7294 6.97897C41.7437 6.96473 41.7728 6.94408 41.817 6.91701C41.8612 6.88995 41.9167 6.8636 41.9837 6.83796C42.0506 6.81233 42.1275 6.79096 42.2144 6.77387C42.3027 6.75535 42.3981 6.74609 42.5007 6.74609C42.6346 6.74609 42.7528 6.76176 42.8553 6.7931C42.9593 6.82443 43.0462 6.87001 43.116 6.92983C43.1872 6.98823 43.2406 7.06087 43.2762 7.14776C43.3133 7.23322 43.3318 7.33007 43.3318 7.43832C43.3318 7.52236 43.3211 7.6007 43.2997 7.67334C43.2784 7.74598 43.247 7.81079 43.2057 7.86776C43.1644 7.92473 43.1124 7.97316 43.0498 8.01304C42.9885 8.05292 42.9173 8.08283 42.8361 8.10277V8.10918C42.933 8.12058 43.0199 8.1455 43.0968 8.18396C43.1737 8.22099 43.2385 8.268 43.2912 8.32497C43.3453 8.38194 43.3866 8.44675 43.4151 8.51939C43.4436 8.59061 43.4578 8.66752 43.4578 8.75014Z" fill="white"/>
<path d="M45.7439 8.16687C45.7439 8.38764 45.7261 8.58705 45.6905 8.76509C45.6549 8.94313 45.5965 9.09483 45.5153 9.22017C45.4355 9.34551 45.3308 9.44165 45.2012 9.5086C45.073 9.57554 44.9156 9.60901 44.7291 9.60901C44.5396 9.60901 44.3829 9.57696 44.259 9.51287C44.1351 9.44735 44.0368 9.35405 43.9642 9.23299C43.8916 9.11049 43.8403 8.96165 43.8104 8.78646C43.7819 8.60984 43.7676 8.41043 43.7676 8.18823C43.7676 7.96889 43.7854 7.77019 43.821 7.59215C43.8581 7.41268 43.9165 7.26028 43.9962 7.13494C44.0774 7.0096 44.1821 6.91345 44.3103 6.84651C44.4399 6.77957 44.5973 6.74609 44.7825 6.74609C44.9719 6.74609 45.1286 6.77885 45.2525 6.84437C45.3778 6.90847 45.4768 7.00176 45.5495 7.12426C45.6221 7.24532 45.6727 7.39417 45.7012 7.57078C45.7297 7.74598 45.7439 7.94467 45.7439 8.16687ZM45.1777 8.19464C45.1777 8.06361 45.1742 7.94823 45.167 7.84853C45.1599 7.7474 45.1485 7.65981 45.1329 7.58574C45.1186 7.51167 45.1001 7.449 45.0773 7.39773C45.0559 7.34645 45.0296 7.30586 44.9983 7.27595C44.9669 7.24461 44.9313 7.22253 44.8914 7.20972C44.8516 7.1969 44.8074 7.19049 44.759 7.19049C44.6749 7.19049 44.6051 7.21114 44.5496 7.25245C44.4955 7.29233 44.452 7.35286 44.4193 7.43405C44.3879 7.51524 44.3659 7.61636 44.353 7.73743C44.3402 7.8585 44.3338 7.99951 44.3338 8.16046C44.3338 8.35702 44.3416 8.52011 44.3573 8.64972C44.373 8.77791 44.3972 8.88046 44.4299 8.95738C44.4641 9.03287 44.5076 9.08628 44.5603 9.11761C44.613 9.14753 44.6764 9.16248 44.7504 9.16248C44.806 9.16248 44.8551 9.15394 44.8978 9.13684C44.9406 9.11833 44.9776 9.09126 45.0089 9.05566C45.0417 9.02005 45.0688 8.97518 45.0901 8.92106C45.1115 8.86693 45.1286 8.80426 45.1414 8.73304C45.1556 8.66183 45.1649 8.58135 45.1692 8.49162C45.1749 8.40189 45.1777 8.30289 45.1777 8.19464Z" fill="white"/>
<rect x="46.1191" y="42.0137" width="11.5328" height="6.06334" rx="3.03167" stroke="white" stroke-width="0.5"/>
<path d="M49.5295 45.93C49.5465 45.9812 49.5572 46.0218 49.5615 46.0517C49.5658 46.0816 49.5601 46.1044 49.5444 46.1201C49.5287 46.1343 49.501 46.1429 49.4611 46.1457C49.4212 46.15 49.3664 46.1522 49.2966 46.1522C49.2239 46.1522 49.167 46.1507 49.1257 46.1479C49.0858 46.1465 49.0551 46.1429 49.0338 46.1372C49.0124 46.1301 48.9975 46.1208 48.9889 46.1094C48.9804 46.098 48.9732 46.0831 48.9676 46.0646L48.7817 45.5091H47.7433L47.5681 46.0496C47.5624 46.0695 47.5546 46.0866 47.5446 46.1009C47.5361 46.1137 47.5211 46.1244 47.4998 46.1329C47.4798 46.14 47.4506 46.145 47.4122 46.1479C47.3751 46.1507 47.326 46.1522 47.2648 46.1522C47.1992 46.1522 47.148 46.15 47.1109 46.1457C47.0739 46.1415 47.0483 46.1315 47.034 46.1158C47.0198 46.0987 47.0148 46.0752 47.0191 46.0453C47.0233 46.0154 47.034 45.9755 47.0511 45.9257L47.9036 43.473C47.9121 43.4488 47.9221 43.4295 47.9335 43.4153C47.9449 43.3996 47.9627 43.3882 47.9869 43.3811C48.0125 43.3726 48.0474 43.3676 48.0916 43.3662C48.1357 43.3633 48.1941 43.3619 48.2668 43.3619C48.3508 43.3619 48.4178 43.3633 48.4676 43.3662C48.5175 43.3676 48.5559 43.3726 48.583 43.3811C48.6115 43.3882 48.6314 43.3996 48.6428 43.4153C48.6556 43.431 48.6663 43.4523 48.6748 43.4794L49.5295 45.93ZM48.2604 43.9024H48.2582L47.8673 45.0775H48.6513L48.2604 43.9024Z" fill="white"/>
<path d="M51.6339 45.9257C51.6339 45.9656 51.6318 45.9997 51.6275 46.0282C51.6232 46.0553 51.6168 46.0774 51.6083 46.0945C51.6012 46.1101 51.5926 46.1215 51.5826 46.1287C51.5727 46.1358 51.5613 46.1393 51.5484 46.1393H50.023C50.0116 46.1393 50.0009 46.1358 49.9909 46.1287C49.981 46.1215 49.9717 46.1101 49.9632 46.0945C49.956 46.0774 49.9503 46.0553 49.9461 46.0282C49.9418 45.9997 49.9397 45.9656 49.9397 45.9257C49.9397 45.8844 49.9411 45.8502 49.9439 45.8231C49.9482 45.7946 49.9539 45.7719 49.961 45.7548C49.9696 45.7377 49.9788 45.7256 49.9888 45.7184C49.9988 45.7099 50.0102 45.7056 50.023 45.7056H50.5379V43.9067L50.0935 44.1524C50.0607 44.1681 50.0337 44.178 50.0123 44.1823C49.9924 44.1851 49.976 44.1809 49.9632 44.1695C49.9518 44.1567 49.9439 44.1353 49.9397 44.1054C49.9354 44.0755 49.9333 44.0335 49.9333 43.9793C49.9333 43.9451 49.934 43.9174 49.9354 43.896C49.9368 43.8732 49.9404 43.854 49.9461 43.8383C49.9518 43.8227 49.9596 43.8098 49.9696 43.7999C49.9795 43.7899 49.9931 43.7792 50.0102 43.7678L50.6041 43.3832C50.6112 43.3775 50.6198 43.3733 50.6298 43.3704C50.6411 43.3662 50.6554 43.3633 50.6725 43.3619C50.6896 43.359 50.7117 43.3576 50.7387 43.3576C50.7672 43.3562 50.8035 43.3555 50.8477 43.3555C50.9018 43.3555 50.9452 43.3569 50.978 43.3597C51.0122 43.3612 51.0378 43.3647 51.0549 43.3704C51.072 43.3747 51.0834 43.3811 51.0891 43.3897C51.0948 43.3982 51.0976 43.4089 51.0976 43.4217V45.7056H51.5484C51.5613 45.7056 51.5727 45.7099 51.5826 45.7184C51.594 45.7256 51.6033 45.7377 51.6104 45.7548C51.619 45.7719 51.6247 45.7946 51.6275 45.8231C51.6318 45.8502 51.6339 45.8844 51.6339 45.9257Z" fill="white"/>
<path d="M53.9627 45.3446C53.9627 45.4172 53.9549 45.4727 53.9392 45.5112C53.925 45.5482 53.905 45.5668 53.8794 45.5668H53.6337V46.0667C53.6337 46.0809 53.6294 46.0938 53.6209 46.1052C53.6123 46.1151 53.5974 46.1237 53.576 46.1308C53.5546 46.1379 53.5269 46.1429 53.4927 46.1457C53.4585 46.15 53.4143 46.1522 53.3602 46.1522C53.3089 46.1522 53.2655 46.15 53.2299 46.1457C53.1957 46.1429 53.1679 46.1379 53.1466 46.1308C53.1266 46.1237 53.1124 46.1151 53.1038 46.1052C53.0967 46.0938 53.0931 46.0809 53.0931 46.0667V45.5668H52.0356C52.0156 45.5668 51.9978 45.5646 51.9822 45.5603C51.9665 45.5546 51.953 45.5432 51.9416 45.5262C51.9316 45.5076 51.9238 45.482 51.9181 45.4492C51.9138 45.4151 51.9117 45.3702 51.9117 45.3146C51.9117 45.2691 51.9124 45.2299 51.9138 45.1971C51.9166 45.163 51.9202 45.1323 51.9245 45.1053C51.9302 45.0782 51.9373 45.0526 51.9458 45.0284C51.9558 45.0041 51.9679 44.9785 51.9822 44.9514L52.841 43.4367C52.8482 43.4238 52.8603 43.4132 52.8774 43.4046C52.8944 43.3946 52.9179 43.3868 52.9479 43.3811C52.9792 43.374 53.0184 43.369 53.0654 43.3662C53.1124 43.3633 53.1693 43.3619 53.2363 43.3619C53.3089 43.3619 53.3709 43.364 53.4222 43.3683C53.4734 43.3711 53.514 43.3768 53.5439 43.3854C53.5753 43.3925 53.5981 43.4018 53.6123 43.4132C53.6266 43.4245 53.6337 43.4381 53.6337 43.4537V45.1181H53.8794C53.9022 45.1181 53.9214 45.1359 53.9371 45.1715C53.9542 45.2057 53.9627 45.2634 53.9627 45.3446ZM53.0931 43.8469H53.0889L52.3603 45.1181H53.0931V43.8469Z" fill="white"/>
<path d="M56.0693 45.9257C56.0693 45.9656 56.0672 45.9997 56.0629 46.0282C56.0586 46.0553 56.0522 46.0774 56.0437 46.0945C56.0365 46.1101 56.028 46.1215 56.018 46.1287C56.008 46.1358 55.9967 46.1393 55.9838 46.1393H54.4584C54.447 46.1393 54.4363 46.1358 54.4263 46.1287C54.4164 46.1215 54.4071 46.1101 54.3985 46.0945C54.3914 46.0774 54.3857 46.0553 54.3815 46.0282C54.3772 45.9997 54.375 45.9656 54.375 45.9257C54.375 45.8844 54.3765 45.8502 54.3793 45.8231C54.3836 45.7946 54.3893 45.7719 54.3964 45.7548C54.405 45.7377 54.4142 45.7256 54.4242 45.7184C54.4342 45.7099 54.4456 45.7056 54.4584 45.7056H54.9733V43.9067L54.5289 44.1524C54.4961 44.1681 54.4691 44.178 54.4477 44.1823C54.4277 44.1851 54.4114 44.1809 54.3985 44.1695C54.3872 44.1567 54.3793 44.1353 54.375 44.1054C54.3708 44.0755 54.3686 44.0335 54.3686 43.9793C54.3686 43.9451 54.3693 43.9174 54.3708 43.896C54.3722 43.8732 54.3758 43.854 54.3815 43.8383C54.3872 43.8227 54.395 43.8098 54.405 43.7999C54.4149 43.7899 54.4285 43.7792 54.4456 43.7678L55.0395 43.3832C55.0466 43.3775 55.0552 43.3733 55.0651 43.3704C55.0765 43.3662 55.0908 43.3633 55.1079 43.3619C55.125 43.359 55.147 43.3576 55.1741 43.3576C55.2026 43.3562 55.2389 43.3555 55.2831 43.3555C55.3372 43.3555 55.3806 43.3569 55.4134 43.3597C55.4476 43.3612 55.4732 43.3647 55.4903 43.3704C55.5074 43.3747 55.5188 43.3811 55.5245 43.3897C55.5302 43.3982 55.533 43.4089 55.533 43.4217V45.7056H55.9838C55.9967 45.7056 56.008 45.7099 56.018 45.7184C56.0294 45.7256 56.0387 45.7377 56.0458 45.7548C56.0543 45.7719 56.06 45.7946 56.0629 45.8231C56.0672 45.8502 56.0693 45.8844 56.0693 45.9257Z" fill="white"/>
</g>
<defs>
<clipPath id="clip0_355_31212">
<rect width="103" height="61.2579" fill="white" transform="translate(15.0625 0.619141)"/>
</clipPath>
</defs>
</svg>
