<svg width="69" height="101" viewBox="0 0 69 101" fill="none" xmlns="http://www.w3.org/2000/svg">
<path d="M2.49805 6.1252C2.49805 3.70884 4.45689 1.75 6.87325 1.75H29.6243C32.0407 1.75 33.9995 3.70885 33.9995 6.1252V94.5043C33.9995 96.9207 32.0407 98.8795 29.6243 98.8795H6.87325C4.45689 98.8795 2.49805 96.9207 2.49805 94.5043V6.1252Z" fill="white"/>
<path fill-rule="evenodd" clip-rule="evenodd" d="M6.87333 0H29.6244C33.0073 0 35.7497 2.74238 35.7497 6.12529V94.5044C35.7497 97.8873 33.0073 100.63 29.6244 100.63H6.87333C3.49043 100.63 0.748047 97.8873 0.748047 94.5044V6.12528C0.748047 2.74238 3.49043 0 6.87333 0ZM6.87333 1.75008C4.45697 1.75008 2.49813 3.70893 2.49813 6.12528V94.5044C2.49813 96.9208 4.45697 98.8796 6.87333 98.8796H29.6244C32.0408 98.8796 33.9996 96.9208 33.9996 94.5044V6.12529C33.9996 3.70893 32.0408 1.75008 29.6244 1.75008H6.87333Z" fill="black"/>
<path d="M33.1244 17.9387C33.1244 20.1134 31.547 21.8763 29.6012 21.8763C27.6554 21.8763 26.0781 20.1134 26.0781 17.9387C26.0781 15.7639 27.6554 14.001 29.6012 14.001C31.547 14.001 33.1244 15.7639 33.1244 17.9387Z" fill="white"/>
<path d="M10.4194 17.9387C10.4194 20.1134 8.84204 21.8763 6.89624 21.8763C4.95043 21.8763 3.37305 20.1134 3.37305 17.9387C3.37305 15.7639 4.95043 14.001 6.89624 14.001C8.84204 14.001 10.4194 15.7639 10.4194 17.9387Z" fill="white"/>
<path fill-rule="evenodd" clip-rule="evenodd" d="M33.9995 17.9387C33.9995 20.5967 32.0603 22.7514 29.6681 22.7514C27.2759 22.7514 25.3366 20.5967 25.3366 17.9387C25.3366 15.2807 27.2759 13.126 29.6681 13.126C32.0603 13.126 33.9995 15.2807 33.9995 17.9387ZM11.161 17.9387C11.161 20.5967 9.22169 22.7514 6.8295 22.7514C4.4373 22.7514 2.49805 20.5967 2.49805 17.9387C2.49805 15.2807 4.4373 13.126 6.8295 13.126C9.22169 13.126 11.161 15.2807 11.161 17.9387ZM6.8295 21.8764C8.78675 21.8764 10.3734 20.1134 10.3734 17.9387C10.3734 15.764 8.78675 14.001 6.8295 14.001C4.87225 14.001 3.28558 15.764 3.28558 17.9387C3.28558 20.1134 4.87225 21.8764 6.8295 21.8764ZM29.6681 21.8764C31.6253 21.8764 33.212 20.1134 33.212 17.9387C33.212 15.764 31.6253 14.001 29.6681 14.001C27.7108 14.001 26.1241 15.764 26.1241 17.9387C26.1241 20.1134 27.7108 21.8764 29.6681 21.8764Z" fill="black"/>
<path d="M31.3743 18.3766C31.3743 25.6257 25.4977 31.5022 18.2487 31.5022C10.9996 31.5022 5.12305 25.6257 5.12305 18.3766C5.12305 11.1275 10.9996 5.25098 18.2487 5.25098C25.4977 5.25098 31.3743 11.1275 31.3743 18.3766Z" fill="white" id="red"/>
<mask id="mask0_534_442" style="mask-type:alpha" maskUnits="userSpaceOnUse" x="5" y="5" width="27" height="27">
<ellipse cx="18.2487" cy="18.3766" rx="13.1256" ry="13.1256" fill="white"/>
</mask>
<g mask="url(#mask0_534_442)">
<path d="M31.3743 12.6889C31.3743 16.7967 25.0602 8.75122 17.8111 8.75122C10.5621 8.75122 5.12305 16.7967 5.12305 12.6889C5.12305 8.5811 10.5621 3.50098 17.8111 3.50098C25.0602 3.50098 31.3743 8.5811 31.3743 12.6889Z" fill="white"/>
<path fill-rule="evenodd" clip-rule="evenodd" d="M26.8594 13.0099C24.34 11.4911 21.1541 9.6263 17.8112 9.6263C14.4832 9.6263 11.5169 11.4795 9.23128 12.9905C9.14491 13.0476 9.05917 13.1044 8.9742 13.1607C8.51209 13.4669 8.07299 13.7579 7.68041 13.9962C7.22783 14.271 6.75893 14.5255 6.32479 14.6486C5.89455 14.7705 5.23189 14.8284 4.73362 14.2987C4.32323 13.8625 4.24805 13.2311 4.24805 12.6889C4.24805 10.2695 5.82138 7.74511 8.20752 5.86696C10.6215 3.96686 13.9826 2.62598 17.8112 2.62598C21.6336 2.62598 25.2005 3.9624 27.8214 5.84369C30.3983 7.69342 32.2494 10.219 32.2494 12.6889C32.2494 13.2543 32.153 13.906 31.6837 14.3409C31.1675 14.8193 30.5112 14.768 30.0619 14.6555C29.5953 14.5386 29.0834 14.2932 28.5758 14.0167C28.0916 13.7531 27.5501 13.4265 26.9803 13.0829C26.9402 13.0586 26.8998 13.0343 26.8594 13.0099ZM27.4265 12.3301C29.8446 13.7883 31.3743 14.7109 31.3743 12.6889C31.3743 8.58114 25.0603 3.50102 17.8112 3.50102C10.5621 3.50102 5.12309 8.58114 5.12309 12.6889C5.12309 14.6626 6.37868 13.8307 8.48735 12.4336C10.7675 10.9229 14.045 8.75126 17.8112 8.75126C21.4921 8.75126 24.932 10.8257 27.4265 12.3301Z" fill="black"/>
</g>
<path fill-rule="evenodd" clip-rule="evenodd" d="M18.2487 30.6272C25.0145 30.6272 30.4992 25.1424 30.4992 18.3766C30.4992 11.6108 25.0145 6.12602 18.2487 6.12602C11.4829 6.12602 5.99809 11.6108 5.99809 18.3766C5.99809 25.1424 11.4829 30.6272 18.2487 30.6272ZM18.2487 31.5022C25.4977 31.5022 31.3743 25.6257 31.3743 18.3766C31.3743 11.1275 25.4977 5.25098 18.2487 5.25098C10.9996 5.25098 5.12305 11.1275 5.12305 18.3766C5.12305 25.6257 10.9996 31.5022 18.2487 31.5022Z" fill="black"/>
<path d="M33.1244 50.3146C33.1244 52.4894 31.547 54.2523 29.6012 54.2523C27.6554 54.2523 26.0781 52.4894 26.0781 50.3146C26.0781 48.1399 27.6554 46.377 29.6012 46.377C31.547 46.377 33.1244 48.1399 33.1244 50.3146Z" fill="white"/>
<path d="M10.4194 50.3146C10.4194 52.4894 8.84204 54.2523 6.89624 54.2523C4.95043 54.2523 3.37305 52.4894 3.37305 50.3146C3.37305 48.1399 4.95043 46.377 6.89624 46.377C8.84204 46.377 10.4194 48.1399 10.4194 50.3146Z" fill="white"/>
<path fill-rule="evenodd" clip-rule="evenodd" d="M33.9995 50.3147C33.9995 52.9727 32.0603 55.1274 29.6681 55.1274C27.2759 55.1274 25.3366 52.9727 25.3366 50.3147C25.3366 47.6567 27.2759 45.502 29.6681 45.502C32.0603 45.502 33.9995 47.6567 33.9995 50.3147ZM11.161 50.3147C11.161 52.9727 9.22169 55.1274 6.8295 55.1274C4.4373 55.1274 2.49805 52.9727 2.49805 50.3147C2.49805 47.6567 4.4373 45.502 6.8295 45.502C9.22169 45.502 11.161 47.6567 11.161 50.3147ZM6.8295 54.2524C8.78675 54.2524 10.3734 52.4894 10.3734 50.3147C10.3734 48.14 8.78675 46.377 6.8295 46.377C4.87225 46.377 3.28558 48.14 3.28558 50.3147C3.28558 52.4894 4.87225 54.2524 6.8295 54.2524ZM29.6681 54.2524C31.6253 54.2524 33.212 52.4894 33.212 50.3147C33.212 48.14 31.6253 46.377 29.6681 46.377C27.7108 46.377 26.1241 48.14 26.1241 50.3147C26.1241 52.4894 27.7108 54.2524 29.6681 54.2524Z" fill="black"/>
<path d="M31.3743 50.7526C31.3743 58.0016 25.4977 63.8782 18.2487 63.8782C10.9996 63.8782 5.12305 58.0016 5.12305 50.7526C5.12305 43.5035 10.9996 37.627 18.2487 37.627C25.4977 37.627 31.3743 43.5035 31.3743 50.7526Z" fill="white" id="yellow"/>
<mask id="mask1_534_442" style="mask-type:alpha" maskUnits="userSpaceOnUse" x="5" y="37" width="27" height="27">
<ellipse cx="18.2487" cy="50.7526" rx="13.1256" ry="13.1256" fill="white"/>
</mask>
<g mask="url(#mask1_534_442)">
<path d="M31.3743 45.0649C31.3743 49.1727 25.0602 41.1272 17.8111 41.1272C10.5621 41.1272 5.12305 49.1727 5.12305 45.0649C5.12305 40.9571 10.5621 35.877 17.8111 35.877C25.0602 35.877 31.3743 40.9571 31.3743 45.0649Z" fill="white"/>
<path fill-rule="evenodd" clip-rule="evenodd" d="M26.8594 45.3859C24.34 43.8671 21.1541 42.0023 17.8112 42.0023C14.4832 42.0023 11.5169 43.8555 9.23128 45.3665C9.14491 45.4236 9.05917 45.4804 8.9742 45.5367C8.51209 45.8429 8.07299 46.1339 7.68041 46.3722C7.22783 46.6469 6.75893 46.9015 6.32479 47.0245C5.89455 47.1465 5.23189 47.2043 4.73362 46.6747C4.32323 46.2385 4.24805 45.607 4.24805 45.0649C4.24805 42.6455 5.82138 40.1211 8.20752 38.2429C10.6215 36.3428 13.9826 35.002 17.8112 35.002C21.6336 35.002 25.2005 36.3384 27.8214 38.2197C30.3983 40.0694 32.2494 42.5949 32.2494 45.0649C32.2494 45.6303 32.153 46.2819 31.6837 46.7169C31.1675 47.1953 30.5112 47.144 30.0619 47.0315C29.5953 46.9146 29.0834 46.6691 28.5758 46.3927C28.0916 46.1291 27.5501 45.8025 26.9803 45.4589C26.9402 45.4346 26.8998 45.4103 26.8594 45.3859ZM27.4265 44.7061C29.8446 46.1643 31.3743 47.0869 31.3743 45.0649C31.3743 40.9571 25.0603 35.877 17.8112 35.877C10.5621 35.877 5.12309 40.9571 5.12309 45.0649C5.12309 47.0386 6.37868 46.2067 8.48735 44.8096C10.7675 43.2988 14.045 41.1272 17.8112 41.1272C21.4921 41.1272 24.932 43.2017 27.4265 44.7061Z" fill="black"/>
</g>
<path fill-rule="evenodd" clip-rule="evenodd" d="M18.2487 63.0031C25.0145 63.0031 30.4992 57.5184 30.4992 50.7526C30.4992 43.9868 25.0145 38.502 18.2487 38.502C11.4829 38.502 5.99809 43.9868 5.99809 50.7526C5.99809 57.5184 11.4829 63.0031 18.2487 63.0031ZM18.2487 63.8782C25.4977 63.8782 31.3743 58.0016 31.3743 50.7526C31.3743 43.5035 25.4977 37.627 18.2487 37.627C10.9996 37.627 5.12305 43.5035 5.12305 50.7526C5.12305 58.0016 10.9996 63.8782 18.2487 63.8782Z" fill="black"/>
<path d="M33.1244 82.6916C33.1244 84.8663 31.547 86.6293 29.6012 86.6293C27.6554 86.6293 26.0781 84.8663 26.0781 82.6916C26.0781 80.5169 27.6554 78.7539 29.6012 78.7539C31.547 78.7539 33.1244 80.5169 33.1244 82.6916Z" fill="white"/>
<path d="M10.4194 82.6916C10.4194 84.8663 8.84204 86.6293 6.89624 86.6293C4.95043 86.6293 3.37305 84.8663 3.37305 82.6916C3.37305 80.5169 4.95043 78.7539 6.89624 78.7539C8.84204 78.7539 10.4194 80.5169 10.4194 82.6916Z" fill="white"/>
<path fill-rule="evenodd" clip-rule="evenodd" d="M33.9995 82.6916C33.9995 85.3496 32.0603 87.5044 29.6681 87.5044C27.2759 87.5044 25.3366 85.3496 25.3366 82.6916C25.3366 80.0336 27.2759 77.8789 29.6681 77.8789C32.0603 77.8789 33.9995 80.0336 33.9995 82.6916ZM11.161 82.6916C11.161 85.3496 9.22169 87.5044 6.8295 87.5044C4.4373 87.5044 2.49805 85.3496 2.49805 82.6916C2.49805 80.0336 4.4373 77.8789 6.8295 77.8789C9.22169 77.8789 11.161 80.0336 11.161 82.6916ZM6.8295 86.6293C8.78675 86.6293 10.3734 84.8664 10.3734 82.6916C10.3734 80.5169 8.78675 78.7539 6.8295 78.7539C4.87225 78.7539 3.28558 80.5169 3.28558 82.6916C3.28558 84.8664 4.87225 86.6293 6.8295 86.6293ZM29.6681 86.6293C31.6253 86.6293 33.212 84.8664 33.212 82.6916C33.212 80.5169 31.6253 78.7539 29.6681 78.7539C27.7108 78.7539 26.1241 80.5169 26.1241 82.6916C26.1241 84.8664 27.7108 86.6293 29.6681 86.6293Z" fill="black"/>
<path d="M31.3743 83.1295C31.3743 90.3786 25.4977 96.2551 18.2487 96.2551C10.9996 96.2551 5.12305 90.3786 5.12305 83.1295C5.12305 75.8804 10.9996 70.0039 18.2487 70.0039C25.4977 70.0039 31.3743 75.8804 31.3743 83.1295Z" fill="white" id="green"/>
<mask id="mask2_534_442" style="mask-type:alpha" maskUnits="userSpaceOnUse" x="5" y="70" width="27" height="27">
<ellipse cx="18.2487" cy="83.1295" rx="13.1256" ry="13.1256" fill="white"/>
</mask>
<g mask="url(#mask2_534_442)">
<path d="M31.3743 77.4418C31.3743 81.5496 25.0602 73.5042 17.8111 73.5042C10.5621 73.5042 5.12305 81.5496 5.12305 77.4418C5.12305 73.334 10.5621 68.2539 17.8111 68.2539C25.0602 68.2539 31.3743 73.334 31.3743 77.4418Z" fill="white"/>
<path fill-rule="evenodd" clip-rule="evenodd" d="M26.8594 77.7629C24.34 76.2441 21.1541 74.3792 17.8112 74.3792C14.4832 74.3792 11.5169 76.2325 9.23128 77.7434C9.14491 77.8005 9.05917 77.8573 8.9742 77.9136C8.51209 78.2198 8.07299 78.5108 7.68041 78.7491C7.22783 79.0239 6.75893 79.2784 6.32479 79.4015C5.89455 79.5234 5.23189 79.5813 4.73362 79.0517C4.32323 78.6154 4.24805 77.984 4.24805 77.4419C4.24805 75.0225 5.82138 72.498 8.20752 70.6199C10.6215 68.7198 13.9826 67.3789 17.8112 67.3789C21.6336 67.3789 25.2005 68.7153 27.8214 70.5966C30.3983 72.4464 32.2494 74.9719 32.2494 77.4419C32.2494 78.0072 32.153 78.6589 31.6837 79.0939C31.1675 79.5722 30.5112 79.5209 30.0619 79.4084C29.5953 79.2916 29.0834 79.0461 28.5758 78.7697C28.0916 78.506 27.5501 78.1794 26.9803 77.8358C26.9402 77.8116 26.8998 77.7872 26.8594 77.7629ZM27.4265 77.083C29.8446 78.5413 31.3743 79.4638 31.3743 77.4419C31.3743 73.3341 25.0603 68.2539 17.8112 68.2539C10.5621 68.2539 5.12309 73.3341 5.12309 77.4419C5.12309 79.4155 6.37868 78.5836 8.48735 77.1865C10.7675 75.6758 14.045 73.5042 17.8112 73.5042C21.4921 73.5042 24.932 75.5787 27.4265 77.083Z" fill="black"/>
</g>
<path fill-rule="evenodd" clip-rule="evenodd" d="M18.2487 95.3801C25.0145 95.3801 30.4992 89.8953 30.4992 83.1295C30.4992 76.3637 25.0145 70.8789 18.2487 70.8789C11.4829 70.8789 5.99809 76.3637 5.99809 83.1295C5.99809 89.8953 11.4829 95.3801 18.2487 95.3801ZM18.2487 96.2551C25.4977 96.2551 31.3743 90.3786 31.3743 83.1295C31.3743 75.8804 25.4977 70.0039 18.2487 70.0039C10.9996 70.0039 5.12305 75.8804 5.12305 83.1295C5.12305 90.3786 10.9996 96.2551 18.2487 96.2551Z" fill="black"/>
<path d="M35.75 70.2775C35.75 67.8612 37.7088 65.9023 40.1252 65.9023H62.8763C65.2926 65.9023 67.2515 67.8612 67.2515 70.2775L67.2515 94.5045C67.2515 96.9209 65.2926 98.8797 62.8763 98.8797H40.1252C37.7088 98.8797 35.75 96.9209 35.75 94.5045V70.2775Z" fill="white"/>
<path fill-rule="evenodd" clip-rule="evenodd" d="M40.1253 64.1523H62.8763C66.2593 64.1523 69.0016 66.8947 69.0016 70.2776L69.0016 94.5047C69.0016 97.8876 66.2592 100.63 62.8763 100.63H40.1253C36.7424 100.63 34 97.8876 34 94.5047V70.2776C34 66.8947 36.7424 64.1523 40.1253 64.1523ZM40.1253 65.9024C37.7089 65.9024 35.7501 67.8613 35.7501 70.2776V94.5047C35.7501 96.9211 37.7089 98.8799 40.1253 98.8799H62.8763C65.2927 98.8799 67.2515 96.9211 67.2515 94.5047L67.2516 70.2776C67.2516 67.8613 65.2927 65.9024 62.8763 65.9024H40.1253Z" fill="black"/>
<path d="M66.3764 82.6066C66.3764 84.7814 64.799 86.5443 62.8532 86.5443C60.9074 86.5443 59.33 84.7814 59.33 82.6066C59.33 80.4319 60.9074 78.6689 62.8532 78.6689C64.799 78.6689 66.3764 80.4319 66.3764 82.6066Z" fill="white"/>
<path d="M43.6714 82.6066C43.6714 84.7814 42.094 86.5443 40.1482 86.5443C38.2024 86.5443 36.625 84.7814 36.625 82.6066C36.625 80.4319 38.2024 78.6689 40.1482 78.6689C42.094 78.6689 43.6714 80.4319 43.6714 82.6066Z" fill="white"/>
<path fill-rule="evenodd" clip-rule="evenodd" d="M67.2515 82.6067C67.2515 85.2647 65.3122 87.4194 62.92 87.4194C60.5278 87.4194 58.5886 85.2647 58.5886 82.6067C58.5886 79.9487 60.5278 77.7939 62.92 77.7939C65.3122 77.7939 67.2515 79.9487 67.2515 82.6067ZM44.4129 82.6067C44.4129 85.2647 42.4736 87.4194 40.0815 87.4194C37.6893 87.4194 35.75 85.2647 35.75 82.6067C35.75 79.9487 37.6893 77.7939 40.0815 77.7939C42.4736 77.7939 44.4129 79.9487 44.4129 82.6067ZM40.0815 86.5444C42.0387 86.5444 43.6254 84.7814 43.6254 82.6067C43.6254 80.4319 42.0387 78.669 40.0815 78.669C38.1242 78.669 36.5375 80.4319 36.5375 82.6067C36.5375 84.7814 38.1242 86.5444 40.0815 86.5444ZM62.92 86.5444C64.8773 86.5444 66.4639 84.7814 66.4639 82.6067C66.4639 80.4319 64.8773 78.669 62.92 78.669C60.9628 78.669 59.3761 80.4319 59.3761 82.6067C59.3761 84.7814 60.9628 86.5444 62.92 86.5444Z" fill="black"/>
<path d="M64.6262 83.0436C64.6262 90.2927 58.7497 96.1692 51.5006 96.1692C44.2515 96.1692 38.375 90.2927 38.375 83.0436C38.375 75.7945 44.2515 69.918 51.5006 69.918C58.7497 69.918 64.6262 75.7945 64.6262 83.0436Z" fill="black" id="green-arrow"/>
<mask id="mask3_534_442" style="mask-type:alpha" maskUnits="userSpaceOnUse" x="38" y="69" width="27" height="28">
<ellipse cx="51.5006" cy="83.0436" rx="13.1256" ry="13.1256" fill="white"/>
</mask>
<g mask="url(#mask3_534_442)">
<path d="M60.5883 83.106L57.1512 86.5431V79.669L60.5883 83.106Z" fill="white"/>
<path d="M38.8984 81.8935H57.3888V84.0811H38.8984V81.8935Z" fill="white"/>
<path d="M64.6262 77.3559C64.6262 81.4637 58.3122 73.4182 51.0631 73.4182C43.814 73.4182 38.375 81.4637 38.375 77.3559C38.375 73.2481 43.814 68.168 51.0631 68.168C58.3122 68.168 64.6262 73.2481 64.6262 77.3559Z" fill="white"/>
<path fill-rule="evenodd" clip-rule="evenodd" d="M60.1113 77.6769C57.592 76.1581 54.4061 74.2933 51.0631 74.2933C47.7352 74.2933 44.7689 76.1465 42.4832 77.6575C42.3969 77.7146 42.3111 77.7714 42.2262 77.8277C41.764 78.1339 41.3249 78.4249 40.9324 78.6632C40.4798 78.938 40.0109 79.1925 39.5767 79.3155C39.1465 79.4375 38.4838 79.4954 37.9856 78.9657C37.5752 78.5295 37.5 77.8981 37.5 77.3559C37.5 74.9365 39.0733 72.4121 41.4595 70.534C43.8735 68.6339 47.2346 67.293 51.0631 67.293C54.8856 67.293 58.4525 68.6294 61.0734 70.5107C63.6503 72.3604 65.5013 74.886 65.5013 77.3559C65.5013 77.9213 65.4049 78.573 64.9356 79.0079C64.4195 79.4863 63.7631 79.435 63.3139 79.3225C62.8472 79.2056 62.3354 78.9601 61.8277 78.6837C61.3436 78.4201 60.802 78.0935 60.2323 77.7499C60.1921 77.7256 60.1518 77.7013 60.1113 77.6769ZM60.6785 76.9971C63.0965 78.4553 64.6263 79.3779 64.6263 77.3559C64.6263 73.2481 58.3122 68.168 51.0631 68.168C43.8141 68.168 38.375 73.2481 38.375 77.3559C38.375 79.3296 39.6306 78.4977 41.7393 77.1006C44.0194 75.5898 47.297 73.4183 51.0631 73.4183C54.7441 73.4183 58.1839 75.4927 60.6785 76.9971Z" fill="black"/>
</g>
<path fill-rule="evenodd" clip-rule="evenodd" d="M51.5006 95.2942C58.2664 95.2942 63.7512 89.8094 63.7512 83.0436C63.7512 76.2778 58.2664 70.793 51.5006 70.793C44.7348 70.793 39.25 76.2778 39.25 83.0436C39.25 89.8094 44.7348 95.2942 51.5006 95.2942ZM51.5006 96.1692C58.7497 96.1692 64.6262 90.2927 64.6262 83.0436C64.6262 75.7945 58.7497 69.918 51.5006 69.918C44.2515 69.918 38.375 75.7945 38.375 83.0436C38.375 90.2927 44.2515 96.1692 51.5006 96.1692Z" fill="black"/>
</svg>
