<svg width="78" height="115" viewBox="0 0 78 115" fill="none" xmlns="http://www.w3.org/2000/svg">
<path d="M2 7C2 4.23857 4.23858 2 7 2H33C35.7614 2 38 4.23858 38 7V108C38 110.761 35.7614 113 33 113H7C4.23858 113 2 110.761 2 108V7Z" fill="white"/>
<path fill-rule="evenodd" clip-rule="evenodd" d="M7 0H33C36.866 0 40 3.13401 40 7V108C40 111.866 36.866 115 33 115H7C3.13401 115 0 111.866 0 108V7C0 3.134 3.13401 0 7 0ZM7 2C4.23858 2 2 4.23857 2 7V108C2 110.761 4.23858 113 7 113H33C35.7614 113 38 110.761 38 108V7C38 4.23858 35.7614 2 33 2H7Z" fill="black"/>
<path d="M37 20.5C37 22.9853 35.1974 25 32.9737 25C30.75 25 28.9474 22.9853 28.9474 20.5C28.9474 18.0147 30.75 16 32.9737 16C35.1974 16 37 18.0147 37 20.5Z" fill="white"/>
<path d="M11.0526 20.5C11.0526 22.9853 9.24999 25 7.02632 25C4.80264 25 3 22.9853 3 20.5C3 18.0147 4.80264 16 7.02632 16C9.24999 16 11.0526 18.0147 11.0526 20.5Z" fill="white"/>
<path fill-rule="evenodd" clip-rule="evenodd" d="M38 20.5C38 23.5376 35.7838 26 33.05 26C30.3162 26 28.1 23.5376 28.1 20.5C28.1 17.4624 30.3162 15 33.05 15C35.7838 15 38 17.4624 38 20.5ZM11.9 20.5C11.9 23.5376 9.68381 26 6.95 26C4.21619 26 2 23.5376 2 20.5C2 17.4624 4.21619 15 6.95 15C9.68381 15 11.9 17.4624 11.9 20.5ZM6.95 25C9.18675 25 11 22.9853 11 20.5C11 18.0147 9.18675 16 6.95 16C4.71325 16 2.9 18.0147 2.9 20.5C2.9 22.9853 4.71325 25 6.95 25ZM33.05 25C35.2868 25 37.1 22.9853 37.1 20.5C37.1 18.0147 35.2868 16 33.05 16C30.8132 16 29 18.0147 29 20.5C29 22.9853 30.8132 25 33.05 25Z" fill="black"/>
<path d="M35 21C35 29.2843 28.2843 36 20 36C11.7157 36 5 29.2843 5 21C5 12.7157 11.7157 6 20 6C28.2843 6 35 12.7157 35 21Z" fill="white" id="red"/>
<mask id="mask0_534_35" style="mask-type:alpha" maskUnits="userSpaceOnUse" x="5" y="6" width="30" height="30">
<circle cx="20" cy="21" r="15" fill="white"/>
</mask>
<g mask="url(#mask0_534_35)">
<path d="M35 14.5C35 19.1944 27.7843 10 19.5 10C11.2157 10 5 19.1944 5 14.5C5 9.80558 11.2157 4 19.5 4C27.7843 4 35 9.80558 35 14.5Z" fill="white"/>
<path fill-rule="evenodd" clip-rule="evenodd" d="M29.8403 14.8668C26.9612 13.1311 23.3203 11 19.5 11C15.6968 11 12.3069 13.1179 9.69486 14.8446C9.59615 14.9099 9.49816 14.9748 9.40107 15.0391C8.87296 15.3891 8.37116 15.7216 7.92251 15.994C7.40531 16.3079 6.86944 16.5988 6.37331 16.7394C5.88163 16.8788 5.12434 16.9449 4.55491 16.3397C4.08592 15.8411 4 15.1195 4 14.5C4 11.7351 5.79801 8.85017 8.5249 6.70381C11.2836 4.53237 15.1247 3 19.5 3C23.8683 3 27.9446 4.52727 30.9397 6.67722C33.8846 8.7911 36 11.6773 36 14.5C36 15.1461 35.8898 15.8908 35.3535 16.3879C34.7637 16.9346 34.0136 16.876 33.5002 16.7474C32.9669 16.6138 32.382 16.3333 31.8018 16.0174C31.2485 15.7161 30.6297 15.3429 29.9786 14.9502C29.9326 14.9225 29.8865 14.8947 29.8403 14.8668ZM30.4884 14.0899C33.2518 15.7564 35 16.8107 35 14.5C35 9.80558 27.7843 4 19.5 4C11.2157 4 5 9.80558 5 14.5C5 16.7555 6.43489 15.8048 8.84469 14.2082C11.4504 12.4817 15.196 10 19.5 10C23.7066 10 27.6377 12.3707 30.4884 14.0899Z" fill="black"/>
</g>
<path fill-rule="evenodd" clip-rule="evenodd" d="M20 35C27.732 35 34 28.732 34 21C34 13.268 27.732 7 20 7C12.268 7 6 13.268 6 21C6 28.732 12.268 35 20 35ZM20 36C28.2843 36 35 29.2843 35 21C35 12.7157 28.2843 6 20 6C11.7157 6 5 12.7157 5 21C5 29.2843 11.7157 36 20 36Z" fill="black"/>
<path d="M37 57.5C37 59.9853 35.1974 62 32.9737 62C30.75 62 28.9474 59.9853 28.9474 57.5C28.9474 55.0147 30.75 53 32.9737 53C35.1974 53 37 55.0147 37 57.5Z" fill="white"/>
<path d="M11.0526 57.5C11.0526 59.9853 9.24999 62 7.02632 62C4.80264 62 3 59.9853 3 57.5C3 55.0147 4.80264 53 7.02632 53C9.24999 53 11.0526 55.0147 11.0526 57.5Z" fill="white"/>
<path fill-rule="evenodd" clip-rule="evenodd" d="M38 57.5C38 60.5376 35.7838 63 33.05 63C30.3162 63 28.1 60.5376 28.1 57.5C28.1 54.4624 30.3162 52 33.05 52C35.7838 52 38 54.4624 38 57.5ZM11.9 57.5C11.9 60.5376 9.68381 63 6.95 63C4.21619 63 2 60.5376 2 57.5C2 54.4624 4.21619 52 6.95 52C9.68381 52 11.9 54.4624 11.9 57.5ZM6.95 62C9.18675 62 11 59.9853 11 57.5C11 55.0147 9.18675 53 6.95 53C4.71325 53 2.9 55.0147 2.9 57.5C2.9 59.9853 4.71325 62 6.95 62ZM33.05 62C35.2868 62 37.1 59.9853 37.1 57.5C37.1 55.0147 35.2868 53 33.05 53C30.8132 53 29 55.0147 29 57.5C29 59.9853 30.8132 62 33.05 62Z" fill="black"/>
<path d="M35 58C35 66.2843 28.2843 73 20 73C11.7157 73 5 66.2843 5 58C5 49.7157 11.7157 43 20 43C28.2843 43 35 49.7157 35 58Z" fill="white" id="yellow"/>
<mask id="mask1_534_35" style="mask-type:alpha" maskUnits="userSpaceOnUse" x="5" y="43" width="30" height="30">
<circle cx="20" cy="58" r="15" fill="white"/>
</mask>
<g mask="url(#mask1_534_35)">
<path d="M35 51.5C35 56.1944 27.7843 47 19.5 47C11.2157 47 5 56.1944 5 51.5C5 46.8056 11.2157 41 19.5 41C27.7843 41 35 46.8056 35 51.5Z" fill="white"/>
<path fill-rule="evenodd" clip-rule="evenodd" d="M29.8403 51.8668C26.9612 50.1311 23.3203 48 19.5 48C15.6968 48 12.3069 50.1179 9.69486 51.8446C9.59615 51.9099 9.49816 51.9748 9.40107 52.0391C8.87296 52.3891 8.37116 52.7216 7.92251 52.994C7.40531 53.3079 6.86944 53.5988 6.37331 53.7394C5.88163 53.8788 5.12434 53.9449 4.55491 53.3397C4.08592 52.8411 4 52.1195 4 51.5C4 48.7351 5.79801 45.8502 8.5249 43.7038C11.2836 41.5324 15.1247 40 19.5 40C23.8683 40 27.9446 41.5273 30.9397 43.6772C33.8846 45.7911 36 48.6773 36 51.5C36 52.1461 35.8898 52.8908 35.3535 53.3879C34.7637 53.9346 34.0136 53.876 33.5002 53.7474C32.9669 53.6138 32.382 53.3333 31.8018 53.0174C31.2485 52.7161 30.6297 52.3429 29.9786 51.9502C29.9326 51.9225 29.8865 51.8947 29.8403 51.8668ZM30.4884 51.0899C33.2518 52.7564 35 53.8107 35 51.5C35 46.8056 27.7843 41 19.5 41C11.2157 41 5 46.8056 5 51.5C5 53.7555 6.43489 52.8048 8.84469 51.2082C11.4504 49.4817 15.196 47 19.5 47C23.7066 47 27.6377 49.3707 30.4884 51.0899Z" fill="black"/>
</g>
<path fill-rule="evenodd" clip-rule="evenodd" d="M20 72C27.732 72 34 65.732 34 58C34 50.268 27.732 44 20 44C12.268 44 6 50.268 6 58C6 65.732 12.268 72 20 72ZM20 73C28.2843 73 35 66.2843 35 58C35 49.7157 28.2843 43 20 43C11.7157 43 5 49.7157 5 58C5 66.2843 11.7157 73 20 73Z" fill="black"/>
<path d="M37 94.5C37 96.9853 35.1974 99 32.9737 99C30.75 99 28.9474 96.9853 28.9474 94.5C28.9474 92.0147 30.75 90 32.9737 90C35.1974 90 37 92.0147 37 94.5Z" fill="white"/>
<path d="M11.0526 94.5C11.0526 96.9853 9.24999 99 7.02632 99C4.80264 99 3 96.9853 3 94.5C3 92.0147 4.80264 90 7.02632 90C9.24999 90 11.0526 92.0147 11.0526 94.5Z" fill="white"/>
<path fill-rule="evenodd" clip-rule="evenodd" d="M38 94.5C38 97.5376 35.7838 100 33.05 100C30.3162 100 28.1 97.5376 28.1 94.5C28.1 91.4624 30.3162 89 33.05 89C35.7838 89 38 91.4624 38 94.5ZM11.9 94.5C11.9 97.5376 9.68381 100 6.95 100C4.21619 100 2 97.5376 2 94.5C2 91.4624 4.21619 89 6.95 89C9.68381 89 11.9 91.4624 11.9 94.5ZM6.95 99C9.18675 99 11 96.9853 11 94.5C11 92.0147 9.18675 90 6.95 90C4.71325 90 2.9 92.0147 2.9 94.5C2.9 96.9853 4.71325 99 6.95 99ZM33.05 99C35.2868 99 37.1 96.9853 37.1 94.5C37.1 92.0147 35.2868 90 33.05 90C30.8132 90 29 92.0147 29 94.5C29 96.9853 30.8132 99 33.05 99Z" fill="black"/>
<path d="M35 95C35 103.284 28.2843 110 20 110C11.7157 110 5 103.284 5 95C5 86.7157 11.7157 80 20 80C28.2843 80 35 86.7157 35 95Z" fill="white" id="green"/>
<mask id="mask2_534_35" style="mask-type:alpha" maskUnits="userSpaceOnUse" x="5" y="80" width="30" height="30">
<circle cx="20" cy="95" r="15" fill="white"/>
</mask>
<g mask="url(#mask2_534_35)">
<path d="M35 88.5C35 93.1944 27.7843 84 19.5 84C11.2157 84 5 93.1944 5 88.5C5 83.8056 11.2157 78 19.5 78C27.7843 78 35 83.8056 35 88.5Z" fill="white"/>
<path fill-rule="evenodd" clip-rule="evenodd" d="M29.8403 88.8668C26.9612 87.1311 23.3203 85 19.5 85C15.6968 85 12.3069 87.1179 9.69486 88.8446C9.59615 88.9099 9.49816 88.9748 9.40107 89.0391C8.87296 89.3891 8.37116 89.7216 7.92251 89.994C7.40531 90.3079 6.86944 90.5988 6.37331 90.7394C5.88163 90.8788 5.12434 90.9449 4.55491 90.3397C4.08592 89.8411 4 89.1195 4 88.5C4 85.7351 5.79801 82.8502 8.5249 80.7038C11.2836 78.5324 15.1247 77 19.5 77C23.8683 77 27.9446 78.5273 30.9397 80.6772C33.8846 82.7911 36 85.6773 36 88.5C36 89.1461 35.8898 89.8908 35.3535 90.3879C34.7637 90.9346 34.0136 90.876 33.5002 90.7474C32.9669 90.6138 32.382 90.3333 31.8018 90.0174C31.2485 89.7161 30.6297 89.3429 29.9786 88.9502C29.9326 88.9225 29.8865 88.8947 29.8403 88.8668ZM30.4884 88.0899C33.2518 89.7564 35 90.8107 35 88.5C35 83.8056 27.7843 78 19.5 78C11.2157 78 5 83.8056 5 88.5C5 90.7555 6.43489 89.8048 8.84469 88.2082C11.4504 86.4817 15.196 84 19.5 84C23.7066 84 27.6377 86.3707 30.4884 88.0899Z" fill="black"/>
<path d="M15.9281 93.7381L22.7854 86.8809L29.6427 93.7381H25.0856L25.0859 110.469L20.4802 111.491L20.4849 105.305L21.5073 105.417L21.5026 110.469H24.0585L24.0633 92.7157H27.1744L22.7854 88.3267L18.3964 92.7157H21.5073V98.8833L20.4889 99.3791L20.4849 93.7381H15.9281Z" fill="black"/>
<path d="M20.4889 97.7136C18.4629 99.0725 18.0143 99.6471 15.5917 99.3252L15.5917 94.7684L8.73438 101.626L15.5917 108.483L15.5917 103.926C18.0764 103.596 18.5889 104.209 20.644 105.644L21.5023 106.306L21.5265 104.281L20.5918 103.926C18.5475 102.842 18.2219 102.422 15.9277 102.725L14.5693 102.904V106.015L10.1803 101.626L14.5693 97.2367V100.348L15.9278 100.527C18.1835 100.824 18.4695 100.423 20.4889 99.3791V97.7136Z" fill="black"/>
</g>
<path fill-rule="evenodd" clip-rule="evenodd" d="M20 109C27.732 109 34 102.732 34 95C34 87.268 27.732 81 20 81C12.268 81 6 87.268 6 95C6 102.732 12.268 109 20 109ZM20 110C28.2843 110 35 103.284 35 95C35 86.7157 28.2843 80 20 80C11.7157 80 5 86.7157 5 95C5 103.284 11.7157 110 20 110Z" fill="black"/>
<path d="M40 80.3134C40 77.552 42.2386 75.3135 45 75.3135H71C73.7614 75.3135 76 77.552 76 80.3135L76 108C76 110.762 73.7614 113 71 113H45C42.2386 113 40 110.762 40 108V80.3134Z" fill="white"/>
<path fill-rule="evenodd" clip-rule="evenodd" d="M45 73.3135H71C74.866 73.3135 78 76.4475 78 80.3135L78 108C78 111.866 74.866 115 71 115H45C41.134 115 38 111.866 38 108V80.3135C38 76.4475 41.134 73.3135 45 73.3135ZM45 75.3135C42.2386 75.3135 40 77.5521 40 80.3135V108C40 110.762 42.2386 113 45 113H71C73.7614 113 76 110.762 76 108L76 80.3135C76 77.5521 73.7614 75.3135 71 75.3135H45Z" fill="black"/>
<path d="M75 94.4043C75 96.8896 73.1974 98.9043 70.9737 98.9043C68.75 98.9043 66.9474 96.8896 66.9474 94.4043C66.9474 91.919 68.75 89.9043 70.9737 89.9043C73.1974 89.9043 75 91.919 75 94.4043Z" fill="white"/>
<path d="M49.0526 94.4043C49.0526 96.8896 47.25 98.9043 45.0263 98.9043C42.8026 98.9043 41 96.8896 41 94.4043C41 91.919 42.8026 89.9043 45.0263 89.9043C47.25 89.9043 49.0526 91.919 49.0526 94.4043Z" fill="white"/>
<path fill-rule="evenodd" clip-rule="evenodd" d="M76 94.4043C76 97.4419 73.7838 99.9043 71.05 99.9043C68.3162 99.9043 66.1 97.4419 66.1 94.4043C66.1 91.3667 68.3162 88.9043 71.05 88.9043C73.7838 88.9043 76 91.3667 76 94.4043ZM49.9 94.4043C49.9 97.4419 47.6838 99.9043 44.95 99.9043C42.2162 99.9043 40 97.4419 40 94.4043C40 91.3667 42.2162 88.9043 44.95 88.9043C47.6838 88.9043 49.9 91.3667 49.9 94.4043ZM44.95 98.9043C47.1868 98.9043 49 96.8896 49 94.4043C49 91.919 47.1868 89.9043 44.95 89.9043C42.7132 89.9043 40.9 91.919 40.9 94.4043C40.9 96.8896 42.7132 98.9043 44.95 98.9043ZM71.05 98.9043C73.2868 98.9043 75.1 96.8896 75.1 94.4043C75.1 91.919 73.2868 89.9043 71.05 89.9043C68.8132 89.9043 67 91.919 67 94.4043C67 96.8896 68.8132 98.9043 71.05 98.9043Z" fill="black"/>
<path d="M73 94.9043C73 103.189 66.2843 109.904 58 109.904C49.7157 109.904 43 103.189 43 94.9043C43 86.62 49.7157 79.9043 58 79.9043C66.2843 79.9043 73 86.62 73 94.9043Z" fill="black" id="green-arrow"/>
<mask id="mask3_534_35" style="mask-type:alpha" maskUnits="userSpaceOnUse" x="43" y="79" width="30" height="31">
<circle cx="58" cy="94.9043" r="15" fill="white"/>
</mask>
<g mask="url(#mask3_534_35)">
<path d="M68.3849 94.9755L64.457 98.9033V91.0476L68.3849 94.9755Z" fill="white"/>
<path d="M43.5977 93.5898H64.7285V96.0898H43.5977V93.5898Z" fill="white"/>
<path d="M73 88.4043C73 93.0987 65.7843 83.9043 57.5 83.9043C49.2157 83.9043 43 93.0987 43 88.4043C43 83.7099 49.2157 77.9043 57.5 77.9043C65.7843 77.9043 73 83.7099 73 88.4043Z" fill="white"/>
<path fill-rule="evenodd" clip-rule="evenodd" d="M67.8403 88.7711C64.9612 87.0354 61.3203 84.9043 57.5 84.9043C53.6968 84.9043 50.3069 87.0222 47.6949 88.7489C47.5962 88.8142 47.4982 88.8791 47.4011 88.9434C46.873 89.2934 46.3712 89.6259 45.9225 89.8982C45.4053 90.2122 44.8694 90.5031 44.3733 90.6437C43.8816 90.7831 43.1243 90.8492 42.5549 90.244C42.0859 89.7454 42 89.0238 42 88.4043C42 85.6394 43.798 82.7545 46.5249 80.6081C49.2836 78.4367 53.1247 76.9043 57.5 76.9043C61.8683 76.9043 65.9446 78.4316 68.9397 80.5815C71.8846 82.6954 74 85.5816 74 88.4043C74 89.0504 73.8898 89.7951 73.3535 90.2922C72.7637 90.8389 72.0136 90.7803 71.5002 90.6517C70.9669 90.5181 70.382 90.2376 69.8018 89.9217C69.2485 89.6204 68.6297 89.2472 67.9786 88.8545C67.9326 88.8268 67.8865 88.799 67.8403 88.7711ZM68.4884 87.9942C71.2518 89.6607 73 90.715 73 88.4043C73 83.7099 65.7843 77.9043 57.5 77.9043C49.2157 77.9043 43 83.7099 43 88.4043C43 90.6598 44.4349 89.7091 46.8447 88.1125C49.4504 86.386 53.196 83.9043 57.5 83.9043C61.7066 83.9043 65.6377 86.275 68.4884 87.9942Z" fill="black"/>
</g>
<path fill-rule="evenodd" clip-rule="evenodd" d="M58 108.904C65.732 108.904 72 102.636 72 94.9043C72 87.1723 65.732 80.9043 58 80.9043C50.268 80.9043 44 87.1723 44 94.9043C44 102.636 50.268 108.904 58 108.904ZM58 109.904C66.2843 109.904 73 103.189 73 94.9043C73 86.62 66.2843 79.9043 58 79.9043C49.7157 79.9043 43 86.62 43 94.9043C43 103.189 49.7157 109.904 58 109.904Z" fill="black"/>
</svg>
