<svg width="70" height="101" viewBox="0 0 70 101" fill="none" xmlns="http://www.w3.org/2000/svg">
<path d="M36.498 6.125C36.498 3.70875 38.4568 1.75 40.873 1.75H63.623C66.0393 1.75 67.998 3.70875 67.998 6.125V94.5C67.998 96.9162 66.0393 98.875 63.623 98.875H40.873C38.4568 98.875 36.498 96.9162 36.498 94.5V6.125Z" fill="white"/>
<path fill-rule="evenodd" clip-rule="evenodd" d="M40.873 0H63.623C67.0058 0 69.748 2.74226 69.748 6.125V94.5C69.748 97.8828 67.0058 100.625 63.623 100.625H40.873C37.4903 100.625 34.748 97.8827 34.748 94.5V6.125C34.748 2.74225 37.4903 0 40.873 0ZM40.873 1.75C38.4568 1.75 36.498 3.70875 36.498 6.125V94.5C36.498 96.9162 38.4568 98.875 40.873 98.875H63.623C66.0393 98.875 67.998 96.9163 67.998 94.5V6.125C67.998 3.70875 66.0393 1.75 63.623 1.75H40.873Z" fill="black"/>
<path d="M67.123 17.9365C67.123 20.1111 65.5457 21.874 63.6 21.874C61.6543 21.874 60.077 20.1111 60.077 17.9365C60.077 15.7619 61.6543 13.999 63.6 13.999C65.5457 13.999 67.123 15.7619 67.123 17.9365Z" fill="white"/>
<path d="M44.4191 17.9365C44.4191 20.1111 42.8418 21.874 40.8961 21.874C38.9504 21.874 37.373 20.1111 37.373 17.9365C37.373 15.7619 38.9504 13.999 40.8961 13.999C42.8418 13.999 44.4191 15.7619 44.4191 17.9365Z" fill="white"/>
<path fill-rule="evenodd" clip-rule="evenodd" d="M67.998 17.9375C67.998 20.5954 66.0589 22.75 63.6668 22.75C61.2747 22.75 59.3355 20.5954 59.3355 17.9375C59.3355 15.2796 61.2747 13.125 63.6668 13.125C66.0589 13.125 67.998 15.2796 67.998 17.9375ZM45.1605 17.9375C45.1605 20.5954 43.2214 22.75 40.8293 22.75C38.4372 22.75 36.498 20.5954 36.498 17.9375C36.498 15.2796 38.4372 13.125 40.8293 13.125C43.2214 13.125 45.1605 15.2796 45.1605 17.9375ZM40.8293 21.875C42.7865 21.875 44.373 20.1121 44.373 17.9375C44.373 15.7629 42.7865 14 40.8293 14C38.8721 14 37.2855 15.7629 37.2855 17.9375C37.2855 20.1121 38.8721 21.875 40.8293 21.875ZM63.6668 21.875C65.624 21.875 67.2105 20.1121 67.2105 17.9375C67.2105 15.7629 65.624 14 63.6668 14C61.7096 14 60.123 15.7629 60.123 17.9375C60.123 20.1121 61.7096 21.875 63.6668 21.875Z" fill="black"/>
<path d="M65.373 18.374C65.373 25.6228 59.4968 31.499 52.248 31.499C44.9993 31.499 39.123 25.6228 39.123 18.374C39.123 11.1253 44.9993 5.24902 52.248 5.24902C59.4968 5.24902 65.373 11.1253 65.373 18.374Z" fill="white" id="red"/>
<mask id="mask0_534_363" style="mask-type:alpha" maskUnits="userSpaceOnUse" x="39" y="5" width="27" height="27">
<circle cx="52.2461" cy="18.374" r="13.125" fill="white"/>
</mask>
<g mask="url(#mask0_534_363)">
<path d="M65.3711 12.6865C65.3711 16.7941 59.0573 8.74902 51.8086 8.74902C44.5599 8.74902 39.1211 16.7941 39.1211 12.6865C39.1211 8.57891 44.5599 3.49902 51.8086 3.49902C59.0573 3.49902 65.3711 8.57891 65.3711 12.6865Z" fill="white"/>
<path fill-rule="evenodd" clip-rule="evenodd" d="M60.8564 13.0075C58.3372 11.4888 55.1514 9.62402 51.8086 9.62402C48.4808 9.62402 45.5146 11.4772 43.2291 12.9881C43.1427 13.0452 43.057 13.102 42.972 13.1583C42.5099 13.4645 42.0709 13.7554 41.6783 13.9937C41.2257 14.2685 40.7569 14.523 40.3227 14.646C39.8925 14.768 39.2299 14.8258 38.7316 14.2962C38.3213 13.86 38.2461 13.2286 38.2461 12.6865C38.2461 10.2672 39.8194 7.74292 42.2054 5.86486C44.6193 3.96485 47.9802 2.62402 51.8086 2.62402C55.6308 2.62402 59.1976 3.96039 61.8184 5.84159C64.3951 7.69123 66.2461 10.2167 66.2461 12.6865C66.2461 13.2519 66.1497 13.9035 65.6804 14.3384C65.1643 14.8168 64.508 14.7655 64.0587 14.653C63.5922 14.5361 63.0803 14.2907 62.5727 14.0142C62.0885 13.7506 61.547 13.424 60.9773 13.0804C60.9371 13.0562 60.8968 13.0319 60.8564 13.0075ZM61.4235 12.3277C63.8414 13.7859 65.3711 14.7084 65.3711 12.6865C65.3711 8.57891 59.0573 3.49902 51.8086 3.49902C44.5599 3.49902 39.1211 8.57891 39.1211 12.6865C39.1211 14.6601 40.3766 13.8282 42.4852 12.4312C44.7652 10.9205 48.0426 8.74902 51.8086 8.74902C55.4894 8.74902 58.9291 10.8234 61.4235 12.3277Z" fill="black"/>
</g>
<path fill-rule="evenodd" clip-rule="evenodd" d="M52.248 30.624C59.0135 30.624 64.498 25.1395 64.498 18.374C64.498 11.6085 59.0135 6.12402 52.248 6.12402C45.4826 6.12402 39.998 11.6085 39.998 18.374C39.998 25.1395 45.4826 30.624 52.248 30.624ZM52.248 31.499C59.4968 31.499 65.373 25.6228 65.373 18.374C65.373 11.1253 59.4968 5.24902 52.248 5.24902C44.9993 5.24902 39.123 11.1253 39.123 18.374C39.123 25.6228 44.9993 31.499 52.248 31.499Z" fill="black"/>
<path d="M67.123 50.3125C67.123 52.4871 65.5457 54.25 63.6 54.25C61.6543 54.25 60.077 52.4871 60.077 50.3125C60.077 48.1379 61.6543 46.375 63.6 46.375C65.5457 46.375 67.123 48.1379 67.123 50.3125Z" fill="white"/>
<path d="M44.4191 50.3125C44.4191 52.4871 42.8418 54.25 40.8961 54.25C38.9504 54.25 37.373 52.4871 37.373 50.3125C37.373 48.1379 38.9504 46.375 40.8961 46.375C42.8418 46.375 44.4191 48.1379 44.4191 50.3125Z" fill="white"/>
<path fill-rule="evenodd" clip-rule="evenodd" d="M67.998 50.3135C67.998 52.9713 66.0589 55.126 63.6668 55.126C61.2747 55.126 59.3355 52.9713 59.3355 50.3135C59.3355 47.6556 61.2747 45.501 63.6668 45.501C66.0589 45.501 67.998 47.6556 67.998 50.3135ZM45.1605 50.3135C45.1605 52.9713 43.2214 55.126 40.8293 55.126C38.4372 55.126 36.498 52.9713 36.498 50.3135C36.498 47.6556 38.4372 45.501 40.8293 45.501C43.2214 45.501 45.1605 47.6556 45.1605 50.3135ZM40.8293 54.251C42.7865 54.251 44.373 52.4881 44.373 50.3135C44.373 48.1389 42.7865 46.376 40.8293 46.376C38.8721 46.376 37.2855 48.1389 37.2855 50.3135C37.2855 52.4881 38.8721 54.251 40.8293 54.251ZM63.6668 54.251C65.624 54.251 67.2105 52.4881 67.2105 50.3135C67.2105 48.1389 65.624 46.376 63.6668 46.376C61.7096 46.376 60.123 48.1389 60.123 50.3135C60.123 52.4881 61.7096 54.251 63.6668 54.251Z" fill="black"/>
<path d="M65.373 50.75C65.373 57.9987 59.4968 63.875 52.248 63.875C44.9993 63.875 39.123 57.9987 39.123 50.75C39.123 43.5013 44.9993 37.625 52.248 37.625C59.4968 37.625 65.373 43.5013 65.373 50.75Z" fill="white" id="yellow"/>
<mask id="mask1_534_363" style="mask-type:alpha" maskUnits="userSpaceOnUse" x="39" y="37" width="27" height="27">
<circle cx="52.2461" cy="50.75" r="13.125" fill="white"/>
</mask>
<g mask="url(#mask1_534_363)">
<path d="M65.3711 45.0625C65.3711 49.1701 59.0573 41.125 51.8086 41.125C44.5599 41.125 39.1211 49.1701 39.1211 45.0625C39.1211 40.9549 44.5599 35.875 51.8086 35.875C59.0573 35.875 65.3711 40.9549 65.3711 45.0625Z" fill="white"/>
<path fill-rule="evenodd" clip-rule="evenodd" d="M60.8564 45.3835C58.3372 43.8647 55.1514 42 51.8086 42C48.4808 42 45.5146 43.8531 43.2291 45.364C43.1427 45.4211 43.057 45.4779 42.972 45.5342C42.5099 45.8404 42.0709 46.1314 41.6783 46.3697C41.2257 46.6445 40.7569 46.899 40.3227 47.022C39.8925 47.1439 39.2299 47.2018 38.7316 46.6722C38.3213 46.236 38.2461 45.6046 38.2461 45.0625C38.2461 42.6432 39.8194 40.1189 42.2054 38.2408C44.6193 36.3408 47.9802 35 51.8086 35C55.6308 35 59.1976 36.3364 61.8184 38.2176C64.3951 40.0672 66.2461 42.5926 66.2461 45.0625C66.2461 45.6278 66.1497 46.2795 65.6804 46.7144C65.1643 47.1928 64.508 47.1415 64.0587 47.029C63.5922 46.9121 63.0803 46.6666 62.5727 46.3902C62.0885 46.1266 61.547 45.8 60.9773 45.4564C60.9371 45.4322 60.8968 45.4079 60.8564 45.3835ZM61.4235 44.7037C63.8414 46.1618 65.3711 47.0843 65.3711 45.0625C65.3711 40.9549 59.0573 35.875 51.8086 35.875C44.5599 35.875 39.1211 40.9549 39.1211 45.0625C39.1211 47.0361 40.3766 46.2042 42.4852 44.8071C44.7652 43.2965 48.0426 41.125 51.8086 41.125C55.4894 41.125 58.9291 43.1994 61.4235 44.7037Z" fill="black"/>
</g>
<path fill-rule="evenodd" clip-rule="evenodd" d="M52.248 63C59.0135 63 64.498 57.5155 64.498 50.75C64.498 43.9845 59.0135 38.5 52.248 38.5C45.4826 38.5 39.998 43.9845 39.998 50.75C39.998 57.5155 45.4826 63 52.248 63ZM52.248 63.875C59.4968 63.875 65.373 57.9987 65.373 50.75C65.373 43.5013 59.4968 37.625 52.248 37.625C44.9993 37.625 39.123 43.5013 39.123 50.75C39.123 57.9987 44.9993 63.875 52.248 63.875Z" fill="black"/>
<path d="M67.123 82.6865C67.123 84.8611 65.5457 86.624 63.6 86.624C61.6543 86.624 60.077 84.8611 60.077 82.6865C60.077 80.5119 61.6543 78.749 63.6 78.749C65.5457 78.749 67.123 80.5119 67.123 82.6865Z" fill="white"/>
<path d="M44.4191 82.6865C44.4191 84.8611 42.8418 86.624 40.8961 86.624C38.9504 86.624 37.373 84.8611 37.373 82.6865C37.373 80.5119 38.9504 78.749 40.8961 78.749C42.8418 78.749 44.4191 80.5119 44.4191 82.6865Z" fill="white"/>
<path fill-rule="evenodd" clip-rule="evenodd" d="M67.998 82.6865C67.998 85.3444 66.0589 87.499 63.6668 87.499C61.2747 87.499 59.3355 85.3444 59.3355 82.6865C59.3355 80.0287 61.2747 77.874 63.6668 77.874C66.0589 77.874 67.998 80.0287 67.998 82.6865ZM45.1605 82.6865C45.1605 85.3444 43.2214 87.499 40.8293 87.499C38.4372 87.499 36.498 85.3444 36.498 82.6865C36.498 80.0287 38.4372 77.874 40.8293 77.874C43.2214 77.874 45.1605 80.0287 45.1605 82.6865ZM40.8293 86.624C42.7865 86.624 44.373 84.8611 44.373 82.6865C44.373 80.5119 42.7865 78.749 40.8293 78.749C38.8721 78.749 37.2855 80.5119 37.2855 82.6865C37.2855 84.8611 38.8721 86.624 40.8293 86.624ZM63.6668 86.624C65.624 86.624 67.2105 84.8611 67.2105 82.6865C67.2105 80.5119 65.624 78.749 63.6668 78.749C61.7096 78.749 60.123 80.5119 60.123 82.6865C60.123 84.8611 61.7096 86.624 63.6668 86.624Z" fill="black"/>
<path d="M65.373 83.124C65.373 90.3728 59.4968 96.249 52.248 96.249C44.9993 96.249 39.123 90.3728 39.123 83.124C39.123 75.8753 44.9993 69.999 52.248 69.999C59.4968 69.999 65.373 75.8753 65.373 83.124Z" fill="white" id="green"/>
<mask id="mask2_534_363" style="mask-type:alpha" maskUnits="userSpaceOnUse" x="39" y="69" width="27" height="28">
<circle cx="52.2461" cy="83.124" r="13.125" fill="white"/>
</mask>
<g mask="url(#mask2_534_363)">
<path d="M65.3711 77.4365C65.3711 81.5441 59.0573 73.499 51.8086 73.499C44.5599 73.499 39.1211 81.5441 39.1211 77.4365C39.1211 73.3289 44.5599 68.249 51.8086 68.249C59.0573 68.249 65.3711 73.3289 65.3711 77.4365Z" fill="white"/>
<path fill-rule="evenodd" clip-rule="evenodd" d="M60.8564 77.7575C58.3372 76.2388 55.1514 74.374 51.8086 74.374C48.4808 74.374 45.5146 76.2272 43.2291 77.7381C43.1427 77.7952 43.057 77.852 42.972 77.9083C42.5099 78.2145 42.0709 78.5054 41.6783 78.7437C41.2257 79.0185 40.7569 79.273 40.3227 79.396C39.8925 79.518 39.2299 79.5758 38.7316 79.0462C38.3213 78.61 38.2461 77.9786 38.2461 77.4365C38.2461 75.0172 39.8194 72.4929 42.2054 70.6149C44.6193 68.7148 47.9802 67.374 51.8086 67.374C55.6308 67.374 59.1976 68.7104 61.8184 70.5916C64.3951 72.4412 66.2461 74.9667 66.2461 77.4365C66.2461 78.0019 66.1497 78.6535 65.6804 79.0884C65.1643 79.5668 64.508 79.5155 64.0587 79.403C63.5922 79.2861 63.0803 79.0407 62.5727 78.7642C62.0885 78.5006 61.547 78.174 60.9773 77.8304C60.9371 77.8062 60.8968 77.7819 60.8564 77.7575ZM61.4235 77.0777C63.8414 78.5359 65.3711 79.4584 65.3711 77.4365C65.3711 73.3289 59.0573 68.249 51.8086 68.249C44.5599 68.249 39.1211 73.3289 39.1211 77.4365C39.1211 79.4101 40.3766 78.5782 42.4852 77.1812C44.7652 75.6705 48.0426 73.499 51.8086 73.499C55.4894 73.499 58.9291 75.5734 61.4235 77.0777Z" fill="black"/>
<path d="M55.5116 82.6307L49.9932 77.1123L44.4747 82.6307H48.142L48.1419 96.0949L51.8483 96.9177L51.8445 91.9391L51.0217 92.0292L51.0255 96.0949H48.9686L48.9648 81.808H46.4611L49.9932 78.2759L53.5252 81.808H51.0217V86.7713L51.8413 87.1703L51.8445 82.6307H55.5116Z" fill="black"/>
<path d="M51.8413 85.83C53.4717 86.9236 53.8327 87.386 55.7823 87.127V83.4599L61.3008 88.9783L55.7824 94.4967L55.7824 90.8296C53.7827 90.564 53.3703 91.0572 51.7164 92.212L51.0257 92.7451L51.0063 91.1154L51.7585 90.8296C53.4036 89.9572 53.6657 89.6192 55.5119 89.8627L56.6051 90.0069V92.5104L60.1372 88.9783L56.6051 85.4462V87.9497L55.5118 88.0939C53.6965 88.3333 53.4664 88.0105 51.8413 87.1703V85.83Z" fill="black"/>
</g>
<path fill-rule="evenodd" clip-rule="evenodd" d="M52.248 95.374C59.0135 95.374 64.498 89.8895 64.498 83.124C64.498 76.3585 59.0135 70.874 52.248 70.874C45.4826 70.874 39.998 76.3585 39.998 83.124C39.998 89.8895 45.4826 95.374 52.248 95.374ZM52.248 96.249C59.4968 96.249 65.373 90.3728 65.373 83.124C65.373 75.8753 59.4968 69.999 52.248 69.999C44.9993 69.999 39.123 75.8753 39.123 83.124C39.123 90.3728 44.9993 96.249 52.248 96.249Z" fill="black"/>
<path d="M33.998 70.2744C33.998 67.8582 32.0393 65.8994 29.623 65.8994H6.87305C4.4568 65.8994 2.49805 67.8582 2.49805 70.2744L2.49805 94.5002C2.49805 96.9165 4.4568 98.8752 6.87305 98.8752H29.623C32.0393 98.8752 33.998 96.9165 33.998 94.5002V70.2744Z" fill="white"/>
<path fill-rule="evenodd" clip-rule="evenodd" d="M29.623 64.1494H6.87305C3.4903 64.1494 0.748047 66.8917 0.748047 70.2744L0.748051 94.5004C0.748051 97.8831 3.49031 100.625 6.87305 100.625H29.623C33.0058 100.625 35.748 97.8831 35.748 94.5004V70.2744C35.748 66.8917 33.0058 64.1494 29.623 64.1494ZM29.623 65.8994C32.0393 65.8994 33.998 67.8582 33.998 70.2744V94.5004C33.998 96.9166 32.0393 98.8754 29.623 98.8754H6.87305C4.4568 98.8754 2.49805 96.9166 2.49805 94.5004L2.49805 70.2744C2.49805 67.8582 4.4568 65.8994 6.87305 65.8994H29.623Z" fill="black"/>
<path d="M3.37305 82.6045C3.37305 84.7791 4.95036 86.542 6.89607 86.542C8.84179 86.542 10.4191 84.7791 10.4191 82.6045C10.4191 80.4299 8.84179 78.667 6.89607 78.667C4.95036 78.667 3.37305 80.4299 3.37305 82.6045Z" fill="white"/>
<path d="M26.077 82.6045C26.077 84.7791 27.6543 86.542 29.6 86.542C31.5457 86.542 33.123 84.7791 33.123 82.6045C33.123 80.4299 31.5457 78.667 29.6 78.667C27.6543 78.667 26.077 80.4299 26.077 82.6045Z" fill="white"/>
<path fill-rule="evenodd" clip-rule="evenodd" d="M2.49805 82.6045C2.49805 85.2624 4.43721 87.417 6.8293 87.417C9.22138 87.417 11.1605 85.2624 11.1605 82.6045C11.1605 79.9466 9.22138 77.792 6.8293 77.792C4.43721 77.792 2.49805 79.9466 2.49805 82.6045ZM25.3355 82.6045C25.3355 85.2624 27.2747 87.417 29.6668 87.417C32.0589 87.417 33.998 85.2624 33.998 82.6045C33.998 79.9466 32.0589 77.792 29.6668 77.792C27.2747 77.792 25.3355 79.9466 25.3355 82.6045ZM29.6668 86.542C27.7096 86.542 26.123 84.7791 26.123 82.6045C26.123 80.4299 27.7096 78.667 29.6668 78.667C31.624 78.667 33.2105 80.4299 33.2105 82.6045C33.2105 84.7791 31.624 86.542 29.6668 86.542ZM6.8293 86.542C4.87214 86.542 3.28555 84.7791 3.28555 82.6045C3.28555 80.4299 4.87214 78.667 6.8293 78.667C8.78646 78.667 10.373 80.4299 10.373 82.6045C10.373 84.7791 8.78646 86.542 6.8293 86.542Z" fill="black"/>
<path d="M5.12305 83.042C5.12305 90.2907 10.9993 96.167 18.248 96.167C25.4968 96.167 31.373 90.2907 31.373 83.042C31.373 75.7933 25.4968 69.917 18.248 69.917C10.9993 69.917 5.12305 75.7933 5.12305 83.042Z" fill="black" id="green-arrow"/>
<mask id="mask3_534_363" style="mask-type:alpha" maskUnits="userSpaceOnUse" x="5" y="69" width="27" height="28">
<circle cx="13.125" cy="13.125" r="13.125" transform="matrix(-1 0 0 1 31.373 69.917)" fill="white"/>
</mask>
<g mask="url(#mask3_534_363)">
<path d="M5.12305 77.3545C5.12305 81.4621 11.4368 73.417 18.6855 73.417C25.9343 73.417 31.373 81.4621 31.373 77.3545C31.373 73.2469 25.9343 68.167 18.6855 68.167C11.4368 68.167 5.12305 73.2469 5.12305 77.3545Z" fill="white"/>
<path fill-rule="evenodd" clip-rule="evenodd" d="M9.63778 77.6755C12.157 76.1567 15.3428 74.292 18.6855 74.292C22.0134 74.292 24.9795 76.1451 27.265 77.656C27.3514 77.7131 27.4372 77.7699 27.5221 77.8262C27.9842 78.1324 28.4233 78.4234 28.8158 78.6617C29.2684 78.9364 29.7373 79.191 30.1714 79.314C30.6016 79.4359 31.2642 79.4938 31.7625 78.9642C32.1729 78.528 32.248 77.8966 32.248 77.3545C32.248 74.9352 30.6748 72.4109 28.2888 70.5328C25.8749 68.6328 22.5139 67.292 18.6855 67.292C14.8633 67.292 11.2965 68.6284 8.67578 70.5096C6.09899 72.3592 4.24805 74.8846 4.24805 77.3545C4.24805 77.9198 4.34443 78.5715 4.81371 79.0064C5.32985 79.4848 5.98615 79.4335 6.43539 79.3209C6.90198 79.2041 7.41382 78.9586 7.92146 78.6822C8.40561 78.4186 8.94709 78.092 9.51681 77.7484C9.55699 77.7242 9.59732 77.6998 9.63778 77.6755ZM9.07068 76.9956C6.65274 78.4538 5.12305 79.3763 5.12305 77.3545C5.12305 73.2469 11.4368 68.167 18.6855 68.167C25.9343 68.167 31.373 73.2469 31.373 77.3545C31.373 79.3281 30.1175 78.4962 28.0089 77.0991C25.7289 75.5885 22.4515 73.417 18.6855 73.417C15.0048 73.417 11.5651 75.4914 9.07068 76.9956Z" fill="black"/>
<path d="M18.3322 77.0049C16.0332 77.0049 14.1695 78.8686 14.1695 81.1676V83.2124H11.6621L14.9246 92.8231L17.7579 83.127L15.5029 83.2124V81.1675H15.5016C15.5016 79.6042 16.7689 78.337 18.3322 78.337C19.8956 78.337 21.1629 79.6043 21.1629 81.1676V91.654H22.495V81.1676C22.495 78.8686 20.6312 77.0049 18.3322 77.0049Z" fill="white"/>
</g>
<path fill-rule="evenodd" clip-rule="evenodd" d="M18.248 95.292C11.4826 95.292 5.99805 89.8075 5.99805 83.042C5.99805 76.2765 11.4826 70.792 18.248 70.792C25.0135 70.792 30.498 76.2765 30.498 83.042C30.498 89.8075 25.0135 95.292 18.248 95.292ZM18.248 96.167C10.9993 96.167 5.12305 90.2907 5.12305 83.042C5.12305 75.7933 10.9993 69.917 18.248 69.917C25.4968 69.917 31.373 75.7933 31.373 83.042C31.373 90.2907 25.4968 96.167 18.248 96.167Z" fill="black"/>
</svg>
