<svg width="116" height="115" viewBox="0 0 116 115" fill="none" xmlns="http://www.w3.org/2000/svg">
<path d="M40 7C40 4.23857 42.2386 2 45 2H71C73.7614 2 76 4.23858 76 7V108C76 110.761 73.7614 113 71 113H45C42.2386 113 40 110.761 40 108V7Z" fill="white"/>
<path fill-rule="evenodd" clip-rule="evenodd" d="M45 0H71C74.866 0 78 3.13401 78 7V108C78 111.866 74.866 115 71 115H45C41.134 115 38 111.866 38 108V7C38 3.134 41.134 0 45 0ZM45 2C42.2386 2 40 4.23857 40 7V108C40 110.761 42.2386 113 45 113H71C73.7614 113 76 110.761 76 108V7C76 4.23858 73.7614 2 71 2H45Z" fill="black"/>
<path d="M75 20.5C75 22.9853 73.1974 25 70.9737 25C68.75 25 66.9474 22.9853 66.9474 20.5C66.9474 18.0147 68.75 16 70.9737 16C73.1974 16 75 18.0147 75 20.5Z" fill="white"/>
<path d="M49.0526 20.5C49.0526 22.9853 47.25 25 45.0263 25C42.8026 25 41 22.9853 41 20.5C41 18.0147 42.8026 16 45.0263 16C47.25 16 49.0526 18.0147 49.0526 20.5Z" fill="white"/>
<path fill-rule="evenodd" clip-rule="evenodd" d="M76 20.5C76 23.5376 73.7838 26 71.05 26C68.3162 26 66.1 23.5376 66.1 20.5C66.1 17.4624 68.3162 15 71.05 15C73.7838 15 76 17.4624 76 20.5ZM49.9 20.5C49.9 23.5376 47.6838 26 44.95 26C42.2162 26 40 23.5376 40 20.5C40 17.4624 42.2162 15 44.95 15C47.6838 15 49.9 17.4624 49.9 20.5ZM44.95 25C47.1868 25 49 22.9853 49 20.5C49 18.0147 47.1868 16 44.95 16C42.7132 16 40.9 18.0147 40.9 20.5C40.9 22.9853 42.7132 25 44.95 25ZM71.05 25C73.2868 25 75.1 22.9853 75.1 20.5C75.1 18.0147 73.2868 16 71.05 16C68.8132 16 67 18.0147 67 20.5C67 22.9853 68.8132 25 71.05 25Z" fill="black"/>
<path d="M73 21C73 29.2843 66.2843 36 58 36C49.7157 36 43 29.2843 43 21C43 12.7157 49.7157 6 58 6C66.2843 6 73 12.7157 73 21Z" fill="white" id="red"/>
<mask id="mask0_534_129" style="mask-type:alpha" maskUnits="userSpaceOnUse" x="43" y="6" width="30" height="30">
<circle cx="58" cy="21" r="15" fill="white"/>
</mask>
<g mask="url(#mask0_534_129)">
<path d="M73 14.5C73 19.1944 65.7843 10 57.5 10C49.2157 10 43 19.1944 43 14.5C43 9.80558 49.2157 4 57.5 4C65.7843 4 73 9.80558 73 14.5Z" fill="white"/>
<path fill-rule="evenodd" clip-rule="evenodd" d="M67.8403 14.8668C64.9612 13.1311 61.3203 11 57.5 11C53.6968 11 50.3069 13.1179 47.6949 14.8446C47.5962 14.9099 47.4982 14.9748 47.4011 15.0391C46.873 15.3891 46.3712 15.7216 45.9225 15.994C45.4053 16.3079 44.8694 16.5988 44.3733 16.7394C43.8816 16.8788 43.1243 16.9449 42.5549 16.3397C42.0859 15.8411 42 15.1195 42 14.5C42 11.7351 43.798 8.85017 46.5249 6.70381C49.2836 4.53237 53.1247 3 57.5 3C61.8683 3 65.9446 4.52727 68.9397 6.67722C71.8846 8.7911 74 11.6773 74 14.5C74 15.1461 73.8898 15.8908 73.3535 16.3879C72.7637 16.9346 72.0136 16.876 71.5002 16.7474C70.9669 16.6138 70.382 16.3333 69.8018 16.0174C69.2485 15.7161 68.6297 15.3429 67.9786 14.9502C67.9326 14.9225 67.8865 14.8947 67.8403 14.8668ZM68.4884 14.0899C71.2518 15.7564 73 16.8107 73 14.5C73 9.80558 65.7843 4 57.5 4C49.2157 4 43 9.80558 43 14.5C43 16.7555 44.4349 15.8048 46.8447 14.2082C49.4504 12.4817 53.196 10 57.5 10C61.7066 10 65.6377 12.3707 68.4884 14.0899Z" fill="black"/>
</g>
<path fill-rule="evenodd" clip-rule="evenodd" d="M58 35C65.732 35 72 28.732 72 21C72 13.268 65.732 7 58 7C50.268 7 44 13.268 44 21C44 28.732 50.268 35 58 35ZM58 36C66.2843 36 73 29.2843 73 21C73 12.7157 66.2843 6 58 6C49.7157 6 43 12.7157 43 21C43 29.2843 49.7157 36 58 36Z" fill="black"/>
<path d="M75 57.5C75 59.9853 73.1974 62 70.9737 62C68.75 62 66.9474 59.9853 66.9474 57.5C66.9474 55.0147 68.75 53 70.9737 53C73.1974 53 75 55.0147 75 57.5Z" fill="white"/>
<path d="M49.0526 57.5C49.0526 59.9853 47.25 62 45.0263 62C42.8026 62 41 59.9853 41 57.5C41 55.0147 42.8026 53 45.0263 53C47.25 53 49.0526 55.0147 49.0526 57.5Z" fill="white"/>
<path fill-rule="evenodd" clip-rule="evenodd" d="M76 57.5C76 60.5376 73.7838 63 71.05 63C68.3162 63 66.1 60.5376 66.1 57.5C66.1 54.4624 68.3162 52 71.05 52C73.7838 52 76 54.4624 76 57.5ZM49.9 57.5C49.9 60.5376 47.6838 63 44.95 63C42.2162 63 40 60.5376 40 57.5C40 54.4624 42.2162 52 44.95 52C47.6838 52 49.9 54.4624 49.9 57.5ZM44.95 62C47.1868 62 49 59.9853 49 57.5C49 55.0147 47.1868 53 44.95 53C42.7132 53 40.9 55.0147 40.9 57.5C40.9 59.9853 42.7132 62 44.95 62ZM71.05 62C73.2868 62 75.1 59.9853 75.1 57.5C75.1 55.0147 73.2868 53 71.05 53C68.8132 53 67 55.0147 67 57.5C67 59.9853 68.8132 62 71.05 62Z" fill="black"/>
<path d="M73 58C73 66.2843 66.2843 73 58 73C49.7157 73 43 66.2843 43 58C43 49.7157 49.7157 43 58 43C66.2843 43 73 49.7157 73 58Z" fill="white" id="yellow"/>
<mask id="mask1_534_129" style="mask-type:alpha" maskUnits="userSpaceOnUse" x="43" y="43" width="30" height="30">
<circle cx="58" cy="58" r="15" fill="white"/>
</mask>
<g mask="url(#mask1_534_129)">
<path d="M73 51.5C73 56.1944 65.7843 47 57.5 47C49.2157 47 43 56.1944 43 51.5C43 46.8056 49.2157 41 57.5 41C65.7843 41 73 46.8056 73 51.5Z" fill="white"/>
<path fill-rule="evenodd" clip-rule="evenodd" d="M67.8403 51.8668C64.9612 50.1311 61.3203 48 57.5 48C53.6968 48 50.3069 50.1179 47.6949 51.8446C47.5962 51.9099 47.4982 51.9748 47.4011 52.0391C46.873 52.3891 46.3712 52.7216 45.9225 52.994C45.4053 53.3079 44.8694 53.5988 44.3733 53.7394C43.8816 53.8788 43.1243 53.9449 42.5549 53.3397C42.0859 52.8411 42 52.1195 42 51.5C42 48.7351 43.798 45.8502 46.5249 43.7038C49.2836 41.5324 53.1247 40 57.5 40C61.8683 40 65.9446 41.5273 68.9397 43.6772C71.8846 45.7911 74 48.6773 74 51.5C74 52.1461 73.8898 52.8908 73.3535 53.3879C72.7637 53.9346 72.0136 53.876 71.5002 53.7474C70.9669 53.6138 70.382 53.3333 69.8018 53.0174C69.2485 52.7161 68.6297 52.3429 67.9786 51.9502C67.9326 51.9225 67.8865 51.8947 67.8403 51.8668ZM68.4884 51.0899C71.2518 52.7564 73 53.8107 73 51.5C73 46.8056 65.7843 41 57.5 41C49.2157 41 43 46.8056 43 51.5C43 53.7555 44.4349 52.8048 46.8447 51.2082C49.4504 49.4817 53.196 47 57.5 47C61.7066 47 65.6377 49.3707 68.4884 51.0899Z" fill="black"/>
</g>
<path fill-rule="evenodd" clip-rule="evenodd" d="M58 72C65.732 72 72 65.732 72 58C72 50.268 65.732 44 58 44C50.268 44 44 50.268 44 58C44 65.732 50.268 72 58 72ZM58 73C66.2843 73 73 66.2843 73 58C73 49.7157 66.2843 43 58 43C49.7157 43 43 49.7157 43 58C43 66.2843 49.7157 73 58 73Z" fill="black"/>
<path d="M75 94.5C75 96.9853 73.1974 99 70.9737 99C68.75 99 66.9474 96.9853 66.9474 94.5C66.9474 92.0147 68.75 90 70.9737 90C73.1974 90 75 92.0147 75 94.5Z" fill="white"/>
<path d="M49.0526 94.5C49.0526 96.9853 47.25 99 45.0263 99C42.8026 99 41 96.9853 41 94.5C41 92.0147 42.8026 90 45.0263 90C47.25 90 49.0526 92.0147 49.0526 94.5Z" fill="white"/>
<path fill-rule="evenodd" clip-rule="evenodd" d="M76 94.5C76 97.5376 73.7838 100 71.05 100C68.3162 100 66.1 97.5376 66.1 94.5C66.1 91.4624 68.3162 89 71.05 89C73.7838 89 76 91.4624 76 94.5ZM49.9 94.5C49.9 97.5376 47.6838 100 44.95 100C42.2162 100 40 97.5376 40 94.5C40 91.4624 42.2162 89 44.95 89C47.6838 89 49.9 91.4624 49.9 94.5ZM44.95 99C47.1868 99 49 96.9853 49 94.5C49 92.0147 47.1868 90 44.95 90C42.7132 90 40.9 92.0147 40.9 94.5C40.9 96.9853 42.7132 99 44.95 99ZM71.05 99C73.2868 99 75.1 96.9853 75.1 94.5C75.1 92.0147 73.2868 90 71.05 90C68.8132 90 67 92.0147 67 94.5C67 96.9853 68.8132 99 71.05 99Z" fill="black"/>
<path d="M73 95C73 103.284 66.2843 110 58 110C49.7157 110 43 103.284 43 95C43 86.7157 49.7157 80 58 80C66.2843 80 73 86.7157 73 95Z" fill="white" id="green"/>
<mask id="mask2_534_129" style="mask-type:alpha" maskUnits="userSpaceOnUse" x="43" y="80" width="30" height="30">
<circle cx="58" cy="95" r="15" fill="white"/>
</mask>
<g mask="url(#mask2_534_129)">
<path fill-rule="evenodd" clip-rule="evenodd" d="M57.9978 86.6357L65.8315 98.2081H61.1607V111.364H54.8348V98.2081H50.1641L57.9978 86.6357ZM52.0486 97.2081H55.8348V110.364H60.1607V97.2081H63.947L57.9978 88.4196L52.0486 97.2081Z" fill="black"/>
<path d="M73 88.5C73 93.1944 65.7843 84 57.5 84C49.2157 84 43 93.1944 43 88.5C43 83.8056 49.2157 78 57.5 78C65.7843 78 73 83.8056 73 88.5Z" fill="white"/>
<path fill-rule="evenodd" clip-rule="evenodd" d="M67.8403 88.8668C64.9612 87.1311 61.3203 85 57.5 85C53.6968 85 50.3069 87.1179 47.6949 88.8446C47.5962 88.9099 47.4982 88.9748 47.4011 89.0391C46.873 89.3891 46.3712 89.7216 45.9225 89.994C45.4053 90.3079 44.8694 90.5988 44.3733 90.7394C43.8816 90.8788 43.1243 90.9449 42.5549 90.3397C42.0859 89.8411 42 89.1195 42 88.5C42 85.7351 43.798 82.8502 46.5249 80.7038C49.2836 78.5324 53.1247 77 57.5 77C61.8683 77 65.9446 78.5273 68.9397 80.6772C71.8846 82.7911 74 85.6773 74 88.5C74 89.1461 73.8898 89.8908 73.3535 90.3879C72.7637 90.9346 72.0136 90.876 71.5002 90.7474C70.9669 90.6138 70.382 90.3333 69.8018 90.0174C69.2485 89.7161 68.6297 89.3429 67.9786 88.9502C67.9326 88.9225 67.8865 88.8947 67.8403 88.8668ZM68.4884 88.0899C71.2518 89.7564 73 90.8107 73 88.5C73 83.8056 65.7843 78 57.5 78C49.2157 78 43 83.8056 43 88.5C43 90.7555 44.4349 89.8048 46.8447 88.2082C49.4504 86.4817 53.196 84 57.5 84C61.7066 84 65.6377 86.3707 68.4884 88.0899Z" fill="black"/>
</g>
<path fill-rule="evenodd" clip-rule="evenodd" d="M58 109C65.732 109 72 102.732 72 95C72 87.268 65.732 81 58 81C50.268 81 44 87.268 44 95C44 102.732 50.268 109 58 109ZM58 110C66.2843 110 73 103.284 73 95C73 86.7157 66.2843 80 58 80C49.7157 80 43 86.7157 43 95C43 103.284 49.7157 110 58 110Z" fill="black"/>
<path d="M38 80.3134C38 77.552 35.7614 75.3135 33 75.3135H7C4.23857 75.3135 2 77.552 2 80.3135L2 108C2 110.762 4.23858 113 7 113H33C35.7614 113 38 110.762 38 108V80.3134Z" fill="white"/>
<path fill-rule="evenodd" clip-rule="evenodd" d="M33 73.3135H7C3.13401 73.3135 0 76.4475 0 80.3135L3.8147e-06 108C3.8147e-06 111.866 3.13401 115 7 115H33C36.866 115 40 111.866 40 108V80.3135C40 76.4475 36.866 73.3135 33 73.3135ZM33 75.3135C35.7614 75.3135 38 77.5521 38 80.3135V108C38 110.762 35.7614 113 33 113H7C4.23858 113 2 110.762 2 108L2 80.3135C2 77.5521 4.23857 75.3135 7 75.3135H33Z" fill="black"/>
<path d="M3 94.4043C3 96.8896 4.80264 98.9043 7.02632 98.9043C9.24999 98.9043 11.0526 96.8896 11.0526 94.4043C11.0526 91.919 9.24999 89.9043 7.02632 89.9043C4.80264 89.9043 3 91.919 3 94.4043Z" fill="white"/>
<path d="M28.9474 94.4043C28.9474 96.8896 30.75 98.9043 32.9737 98.9043C35.1974 98.9043 37 96.8896 37 94.4043C37 91.919 35.1974 89.9043 32.9737 89.9043C30.75 89.9043 28.9474 91.919 28.9474 94.4043Z" fill="white"/>
<path fill-rule="evenodd" clip-rule="evenodd" d="M2 94.4043C2 97.4419 4.21619 99.9043 6.95 99.9043C9.68381 99.9043 11.9 97.4419 11.9 94.4043C11.9 91.3667 9.68381 88.9043 6.95 88.9043C4.21619 88.9043 2 91.3667 2 94.4043ZM28.1 94.4043C28.1 97.4419 30.3162 99.9043 33.05 99.9043C35.7838 99.9043 38 97.4419 38 94.4043C38 91.3667 35.7838 88.9043 33.05 88.9043C30.3162 88.9043 28.1 91.3667 28.1 94.4043ZM33.05 98.9043C30.8132 98.9043 29 96.8896 29 94.4043C29 91.919 30.8132 89.9043 33.05 89.9043C35.2868 89.9043 37.1 91.919 37.1 94.4043C37.1 96.8896 35.2868 98.9043 33.05 98.9043ZM6.95 98.9043C4.71325 98.9043 2.9 96.8896 2.9 94.4043C2.9 91.919 4.71325 89.9043 6.95 89.9043C9.18675 89.9043 11 91.919 11 94.4043C11 96.8896 9.18675 98.9043 6.95 98.9043Z" fill="black"/>
<path d="M5 94.9043C5 103.189 11.7157 109.904 20 109.904C28.2843 109.904 35 103.189 35 94.9043C35 86.62 28.2843 79.9043 20 79.9043C11.7157 79.9043 5 86.62 5 94.9043Z" fill="black" id="green-left"/>
<mask id="mask3_534_129" style="mask-type:alpha" maskUnits="userSpaceOnUse" x="5" y="79" width="30" height="31">
<circle cx="15" cy="15" r="15" transform="matrix(-1 0 0 1 35 79.9043)" fill="white"/>
</mask>
<g mask="url(#mask3_534_129)">
<path d="M9.61512 94.9755L13.543 98.9033V91.0476L9.61512 94.9755Z" fill="white"/>
<path d="M34.4023 93.5898H13.2715V96.0898H34.4023V93.5898Z" fill="white"/>
<path d="M5 88.4043C5 93.0987 12.2157 83.9043 20.5 83.9043C28.7843 83.9043 35 93.0987 35 88.4043C35 83.7099 28.7843 77.9043 20.5 77.9043C12.2157 77.9043 5 83.7099 5 88.4043Z" fill="white"/>
<path fill-rule="evenodd" clip-rule="evenodd" d="M10.1597 88.7711C13.0388 87.0354 16.6797 84.9043 20.5 84.9043C24.3032 84.9043 27.6931 87.0222 30.3051 88.7489C30.4038 88.8142 30.5018 88.8791 30.5989 88.9434C31.127 89.2934 31.6288 89.6259 32.0775 89.8982C32.5947 90.2122 33.1306 90.5031 33.6267 90.6437C34.1184 90.7831 34.8757 90.8492 35.4451 90.244C35.9141 89.7454 36 89.0238 36 88.4043C36 85.6394 34.202 82.7545 31.4751 80.6081C28.7164 78.4367 24.8753 76.9043 20.5 76.9043C16.1317 76.9043 12.0554 78.4316 9.06027 80.5815C6.11536 82.6954 4 85.5816 4 88.4043C4 89.0504 4.11015 89.7951 4.64647 90.2922C5.23635 90.8389 5.9864 90.7803 6.49983 90.6517C7.03307 90.5181 7.61803 90.2376 8.19819 89.9217C8.7515 89.6204 9.37034 89.2472 10.0214 88.8545C10.0674 88.8268 10.1135 88.799 10.1597 88.7711ZM9.51158 87.9942C6.74822 89.6607 5 90.715 5 88.4043C5 83.7099 12.2157 77.9043 20.5 77.9043C28.7843 77.9043 35 83.7099 35 88.4043C35 90.6598 33.5651 89.7091 31.1553 88.1125C28.5496 86.386 24.804 83.9043 20.5 83.9043C16.2934 83.9043 12.3623 86.275 9.51158 87.9942Z" fill="black"/>
</g>
<path fill-rule="evenodd" clip-rule="evenodd" d="M20 108.904C12.268 108.904 6 102.636 6 94.9043C6 87.1723 12.268 80.9043 20 80.9043C27.732 80.9043 34 87.1723 34 94.9043C34 102.636 27.732 108.904 20 108.904ZM20 109.904C11.7157 109.904 5 103.189 5 94.9043C5 86.62 11.7157 79.9043 20 79.9043C28.2843 79.9043 35 86.62 35 94.9043C35 103.189 28.2843 109.904 20 109.904Z" fill="black"/>
<path d="M78 80.3134C78 77.552 80.2386 75.3135 83 75.3135H109C111.761 75.3135 114 77.552 114 80.3135L114 108C114 110.762 111.761 113 109 113H83C80.2386 113 78 110.762 78 108V80.3134Z" fill="white"/>
<path fill-rule="evenodd" clip-rule="evenodd" d="M83 73.3135H109C112.866 73.3135 116 76.4475 116 80.3135L116 108C116 111.866 112.866 115 109 115H83C79.134 115 76 111.866 76 108V80.3135C76 76.4475 79.134 73.3135 83 73.3135ZM83 75.3135C80.2386 75.3135 78 77.5521 78 80.3135V108C78 110.762 80.2386 113 83 113H109C111.761 113 114 110.762 114 108L114 80.3135C114 77.5521 111.761 75.3135 109 75.3135H83Z" fill="black"/>
<path d="M113 94.4043C113 96.8896 111.197 98.9043 108.974 98.9043C106.75 98.9043 104.947 96.8896 104.947 94.4043C104.947 91.919 106.75 89.9043 108.974 89.9043C111.197 89.9043 113 91.919 113 94.4043Z" fill="white"/>
<path d="M87.0526 94.4043C87.0526 96.8896 85.25 98.9043 83.0263 98.9043C80.8026 98.9043 79 96.8896 79 94.4043C79 91.919 80.8026 89.9043 83.0263 89.9043C85.25 89.9043 87.0526 91.919 87.0526 94.4043Z" fill="white"/>
<path fill-rule="evenodd" clip-rule="evenodd" d="M114 94.4043C114 97.4419 111.784 99.9043 109.05 99.9043C106.316 99.9043 104.1 97.4419 104.1 94.4043C104.1 91.3667 106.316 88.9043 109.05 88.9043C111.784 88.9043 114 91.3667 114 94.4043ZM87.9 94.4043C87.9 97.4419 85.6838 99.9043 82.95 99.9043C80.2162 99.9043 78 97.4419 78 94.4043C78 91.3667 80.2162 88.9043 82.95 88.9043C85.6838 88.9043 87.9 91.3667 87.9 94.4043ZM82.95 98.9043C85.1868 98.9043 87 96.8896 87 94.4043C87 91.919 85.1868 89.9043 82.95 89.9043C80.7132 89.9043 78.9 91.919 78.9 94.4043C78.9 96.8896 80.7132 98.9043 82.95 98.9043ZM109.05 98.9043C111.287 98.9043 113.1 96.8896 113.1 94.4043C113.1 91.919 111.287 89.9043 109.05 89.9043C106.813 89.9043 105 91.919 105 94.4043C105 96.8896 106.813 98.9043 109.05 98.9043Z" fill="black"/>
<path d="M111 94.9043C111 103.189 104.284 109.904 96 109.904C87.7157 109.904 81 103.189 81 94.9043C81 86.62 87.7157 79.9043 96 79.9043C104.284 79.9043 111 86.62 111 94.9043Z" fill="black" id="green-right"/>
<mask id="mask4_534_129" style="mask-type:alpha" maskUnits="userSpaceOnUse" x="81" y="79" width="30" height="31">
<circle cx="96" cy="94.9043" r="15" fill="white"/>
</mask>
<g mask="url(#mask4_534_129)">
<path d="M106.385 94.9755L102.457 98.9033V91.0476L106.385 94.9755Z" fill="white"/>
<path d="M81.5977 93.5898H102.729V96.0898H81.5977V93.5898Z" fill="white"/>
<path d="M111 88.4043C111 93.0987 103.784 83.9043 95.5 83.9043C87.2157 83.9043 81 93.0987 81 88.4043C81 83.7099 87.2157 77.9043 95.5 77.9043C103.784 77.9043 111 83.7099 111 88.4043Z" fill="white"/>
<path fill-rule="evenodd" clip-rule="evenodd" d="M105.84 88.7711C102.961 87.0354 99.3203 84.9043 95.5 84.9043C91.6968 84.9043 88.3069 87.0222 85.6949 88.7489C85.5962 88.8142 85.4982 88.8791 85.4011 88.9434C84.873 89.2934 84.3712 89.6259 83.9225 89.8982C83.4053 90.2122 82.8694 90.5031 82.3733 90.6437C81.8816 90.7831 81.1243 90.8492 80.5549 90.244C80.0859 89.7454 80 89.0238 80 88.4043C80 85.6394 81.798 82.7545 84.5249 80.6081C87.2836 78.4367 91.1247 76.9043 95.5 76.9043C99.8683 76.9043 103.945 78.4316 106.94 80.5815C109.885 82.6954 112 85.5816 112 88.4043C112 89.0504 111.89 89.7951 111.354 90.2922C110.764 90.8389 110.014 90.7803 109.5 90.6517C108.967 90.5181 108.382 90.2376 107.802 89.9217C107.249 89.6204 106.63 89.2472 105.979 88.8545C105.933 88.8268 105.887 88.799 105.84 88.7711ZM106.488 87.9942C109.252 89.6607 111 90.715 111 88.4043C111 83.7099 103.784 77.9043 95.5 77.9043C87.2157 77.9043 81 83.7099 81 88.4043C81 90.6598 82.4349 89.7091 84.8447 88.1125C87.4504 86.386 91.196 83.9043 95.5 83.9043C99.7066 83.9043 103.638 86.275 106.488 87.9942Z" fill="black"/>
</g>
<path fill-rule="evenodd" clip-rule="evenodd" d="M96 108.904C103.732 108.904 110 102.636 110 94.9043C110 87.1723 103.732 80.9043 96 80.9043C88.268 80.9043 82 87.1723 82 94.9043C82 102.636 88.268 108.904 96 108.904ZM96 109.904C104.284 109.904 111 103.189 111 94.9043C111 86.62 104.284 79.9043 96 79.9043C87.7157 79.9043 81 86.62 81 94.9043C81 103.189 87.7157 109.904 96 109.904Z" fill="black"/>
</svg>
