<svg width="44" height="96" viewBox="0 0 44 96" fill="none" xmlns="http://www.w3.org/2000/svg">
<rect x="20.7207" y="2" width="3.6" height="79.44" fill="#AEAEAE"/>
<path d="M20 81.2402C20 80.6879 20.4477 80.2402 21 80.2402H24.04C24.5923 80.2402 25.04 80.6879 25.04 81.2402V95.6009H20V81.2402Z" fill="#9F9B9B"/>
<g clip-path="url(#clip0_355_42101)">
<path d="M0.632812 26.6772L6.0627 28.1322L22.1478 18.8454L38.2329 28.1322L43.6628 26.6772L42.2079 21.2473L30.0977 14.2555L42.2079 7.26374L43.6628 1.83385L38.2329 0.378906L22.1478 9.66564L6.0627 0.378906L0.632813 1.83385L2.08776 7.26374L14.1979 14.2555L2.08776 21.2473L0.632812 26.6772Z" fill="white"/>
<path d="M0.681641 26.6494L6.05719 28.0898L22.1479 18.7999L38.2387 28.0898L43.6143 26.6494L42.1739 21.2739L30.0182 14.2559L42.1739 7.23783L43.6143 1.86227L38.2387 0.421875L22.1479 9.71187L6.05719 0.421875L0.681641 1.86227L2.12204 7.23783L14.2776 14.2559L2.12204 21.2739L0.681641 26.6494Z" stroke="black" stroke-width="2"/>
<path d="M1.11914 26.3954L6.00601 27.7048L22.1473 18.3856L38.2886 27.7048L43.1755 26.3954L41.8661 21.5085L29.3022 14.2547L41.8661 7.00098L43.1755 2.11411L38.2886 0.804688L22.1473 10.1239L6.00601 0.804688L1.11914 2.11411L2.42857 7.00098L14.9924 14.2547L2.42857 21.5085L1.11914 26.3954ZM3.06646 25.2711L3.79392 22.5562L18.1724 14.2547L3.79392 5.95331L3.06646 3.23838L5.78139 2.51093L22.1473 11.9598L38.5133 2.51093L41.2282 3.23838L40.5007 5.95331L26.1223 14.2547L40.5007 22.5562L41.2282 25.2711L38.5133 25.9985L22.1473 16.5497L5.78139 25.9985L3.06646 25.2711Z" fill="#FF0000"/>
</g>
<defs>
<clipPath id="clip0_355_42101">
<rect width="43.03" height="27.7533" fill="white" transform="translate(0.632812 0.378906)"/>
</clipPath>
</defs>
</svg>
