<svg width="65" height="99" viewBox="0 0 65 99" fill="none" xmlns="http://www.w3.org/2000/svg">
<rect x="6.56055" y="5.36719" width="3.6" height="79.44" fill="#AEAEAE"/>
<path d="M5.83984 84.6074C5.83984 84.0551 6.28756 83.6074 6.83984 83.6074H9.87984C10.4321 83.6074 10.8798 84.0551 10.8798 84.6074V98.9681H5.83984V84.6074Z" fill="#9F9B9B"/>
<g clip-path="url(#clip0_355_39300)">
<path d="M64.9492 0.449219H4.94922V13.7826H64.9492V0.449219Z" fill="white"/>
<path d="M5.91602 1.56055V12.6717H10.7547L15.5934 7.1161L10.7547 1.56055H5.91602Z" fill="#FF0000"/>
<path d="M15.5938 1.56055L20.4325 7.1161L15.5938 12.6717H25.2712L30.1099 7.1161L25.2712 1.56055H15.5938Z" fill="#FF0000"/>
<path d="M30.1113 1.56055L34.95 7.1161L30.1113 12.6717H39.7888L44.6275 7.1161L39.7888 1.56055H30.1113Z" fill="#FF0000"/>
<path d="M44.627 1.56055L49.4657 7.1161L44.627 12.6717H54.3044L59.1431 7.1161L54.3044 1.56055H44.627Z" fill="#FF0000"/>
<path d="M59.1426 1.56055L63.9813 7.1161L59.1426 12.6717H63.9813V1.56055H59.1426Z" fill="#FF0000"/>
<path d="M64.9232 0.476562H4.97656V13.7566H64.9232V0.476562Z" stroke="black" stroke-width="2"/>
</g>
<defs>
<clipPath id="clip0_355_39300">
<rect width="60" height="13.3333" fill="white" transform="translate(4.94922 0.449219)"/>
</clipPath>
</defs>
</svg>
