<svg width="44" height="96" viewBox="0 0 44 96" fill="none" xmlns="http://www.w3.org/2000/svg">
<rect x="20.7207" y="2" width="3.6" height="79.44" fill="#AEAEAE"/>
<path d="M20 81.2402C20 80.6879 20.4477 80.2402 21 80.2402H24.04C24.5923 80.2402 25.04 80.6879 25.04 81.2402V95.6009H20V81.2402Z" fill="#9F9B9B"/>
<g clip-path="url(#clip0_355_42157)">
<path d="M0.664062 26.6589L6.09016 28.1128L22.1641 18.8326L38.238 28.1128L43.6641 26.6589L42.2101 21.2328L30.1084 14.2459L42.2101 7.25894L43.6641 1.83284L38.238 0.378906L22.1641 9.65916L6.09016 0.378906L0.664063 1.83284L2.118 7.25894L14.2197 14.2459L2.118 21.2328L0.664062 26.6589Z" fill="white"/>
<path d="M0.712891 26.6312L6.08469 28.0706L22.1642 18.787L38.2438 28.0706L43.6156 26.6312L42.1762 21.2594L30.029 14.2462L42.1762 7.23307L43.6156 1.86127L38.2438 0.421875L22.1642 9.70539L6.08469 0.421875L0.712891 1.86127L2.15229 7.23307L14.2994 14.2462L2.15229 21.2594L0.712891 26.6312Z" stroke="black" stroke-width="2"/>
<path d="M1.15039 26.3775L6.03385 27.686L22.1639 18.3733L38.294 27.686L43.1774 26.3775L41.8689 21.4941L29.3138 14.2454L41.8689 6.99666L43.1774 2.1132L38.294 0.804688L22.1639 10.1174L6.03385 0.804688L1.15039 2.1132L2.4589 6.99666L15.014 14.2454L2.4589 21.4941L1.15039 26.3775ZM3.09636 25.254L3.8233 22.541L18.1917 14.2454L3.8233 5.94972L3.09636 3.23669L5.80939 2.50974L22.1639 11.952L38.5184 2.50974L41.2315 3.23669L40.5045 5.94972L26.1361 14.2454L40.5045 22.541L41.2315 25.254L38.5184 25.981L22.1639 16.5387L5.80939 25.981L3.09636 25.254Z" fill="#FF0000"/>
<path d="M0.664062 45.0056L6.09016 46.4595L22.1641 37.1793L38.238 46.4595L43.6641 45.0056L42.2101 39.5795L22.1641 28.0059L2.118 39.5795L0.664062 45.0056Z" fill="white"/>
<path d="M0.712891 44.9766L6.08469 46.4159L22.1642 37.1324L38.2438 46.4159L43.6156 44.9766L42.1762 39.6047L22.1642 28.0508L2.15229 39.6047L0.712891 44.9766Z" stroke="black" stroke-width="2"/>
<path d="M1.15039 44.725L6.03385 46.0335L22.1639 36.7208L38.294 46.0335L43.1774 44.725L41.8689 39.8415L22.1639 28.4648L2.4589 39.8415L1.15039 44.725ZM3.09636 43.6015L3.8233 40.8884L22.1639 30.2995L40.5045 40.8884L41.2315 43.6015L38.5184 44.3284L22.1639 34.8861L5.80939 44.3284L3.09636 43.6015Z" fill="#FF0000"/>
</g>
<defs>
<clipPath id="clip0_355_42157">
<rect width="43" height="46.0806" fill="white" transform="translate(0.664062 0.378906)"/>
</clipPath>
</defs>
</svg>
